<svg width="540" height="540" viewBox="0 0 540 540" fill="none" xmlns="http://www.w3.org/2000/svg">
<rect x="0.1" y="0.1" width="179.8" height="179.8" fill="white" stroke="#CBCBCB" stroke-width="0.2"/>
<rect x="180.1" y="0.1" width="179.8" height="179.8" fill="white" stroke="#CBCBCB" stroke-width="0.2"/>
<rect x="360.1" y="0.1" width="179.8" height="179.8" fill="white" stroke="#CBCBCB" stroke-width="0.2"/>
<rect x="0.1" y="180.1" width="179.8" height="179.8" fill="white" stroke="#CBCBCB" stroke-width="0.2"/>
<rect x="180.1" y="180.1" width="179.8" height="179.8" fill="white" stroke="#CBCBCB" stroke-width="0.2"/>
<rect x="360.1" y="180.1" width="179.8" height="179.8" fill="white" stroke="#CBCBCB" stroke-width="0.2"/>
<rect x="0.1" y="360.1" width="179.8" height="179.8" fill="white" stroke="#CBCBCB" stroke-width="0.2"/>
<rect x="180.1" y="360.1" width="179.8" height="179.8" fill="white" stroke="#CBCBCB" stroke-width="0.2"/>
<rect x="360.1" y="360.1" width="179.8" height="179.8" fill="white" stroke="#CBCBCB" stroke-width="0.2"/>
<path d="M85.0667 37.2664C79.4667 46.3331 78 51.5331 78 61.5331C78 68.3331 78.8 71.9331 81.6 77.6664C83.6 81.7997 85.2 87.3997 85.3333 90.3331C85.3333 94.9997 85.8667 95.9331 89.6 97.6664C94.5333 99.9331 99.3333 109.4 99.3333 116.866C99.3333 125.4 96.5333 135 91.8667 141.666C87.2 148.333 87.7333 152.066 92.8 147.533C97.8667 143 102.4 131.266 103.067 121C103.6 112.733 103.2 110.333 100.4 104.066C97.8667 98.5997 97.3333 96.1997 98.4 94.0664C100.133 90.0664 96.4 84.3331 92.1333 84.3331C87.6 84.3331 82 71.3997 82 60.8664C82 52.9997 86.2667 41.2664 90.9333 36.0664C92.8 33.9331 92.4 30.9997 90 30.9997C89.4667 30.9997 87.2 33.7997 85.0667 37.2664Z" fill="black"/>
<path d="M270.467 31.4959C270.067 32.1626 271.933 36.9626 274.467 42.0293C278.733 50.1626 279.267 52.4293 279.133 60.9626C279 72.2959 274.867 81.6293 268.333 85.3626C265.267 87.0959 264.333 88.5626 264.333 91.4959C264.333 93.6293 262.733 98.2959 260.733 101.896C257.4 107.629 257 109.763 257 120.429C257 131.496 257.4 133.096 261.533 140.696C265.667 148.563 267.933 150.429 270.067 148.163C270.6 147.763 269.533 145.496 267.933 143.229C259.667 132.296 258.067 117.363 263.667 105.363C266.467 99.3626 267.4 98.4293 270.733 98.4293C276.067 98.4293 278.067 95.6293 277.4 89.4959C276.867 85.8959 277.667 82.5626 280.067 77.7626C285 67.8959 284.867 54.0293 279.8 42.8293C275.933 34.2959 271.8 29.3626 270.467 31.4959Z" fill="black"/>
<path d="M446.471 35.1769C439.671 42.7769 435.404 57.4435 436.871 67.4435C437.804 73.7102 441.937 84.2435 444.071 85.5769C445.937 86.7769 443.937 95.7102 440.204 102.91C435.004 112.91 434.604 128.244 439.137 138.244C445.671 152.11 448.737 153.31 455.004 144.244C462.604 133.444 464.737 116.644 459.937 106.244C455.804 97.3102 455.804 87.0435 459.937 78.9102C465.804 67.3102 463.937 48.3769 455.804 36.5102C452.871 32.3769 449.404 31.8435 446.471 35.1769ZM455.404 45.1769C460.204 55.5769 460.071 69.7102 455.004 78.9102C453.004 82.5102 450.737 85.5769 450.071 85.5769C449.404 85.5769 447.137 82.5102 445.137 78.9102C440.471 70.3769 440.071 56.7769 444.204 47.7102C449.404 36.1102 451.004 35.7102 455.404 45.1769ZM455.004 105.177C459.137 113.044 459.137 127.044 454.871 135.844C450.737 144.377 448.604 146.11 446.071 142.777C439.537 134.11 438.204 117.444 443.404 106.51C447.537 97.5769 450.737 97.1769 455.004 105.177Z" fill="black"/>
<path d="M106.245 261C102.912 262.6 98.1118 264.333 95.5785 264.733C92.2451 265.133 90.5118 266.467 89.3118 268.867C87.0451 273.533 73.9785 279.4 65.7118 279.4C57.5785 279.4 45.4451 275 40.6451 270.467C37.4451 267.4 36.5118 267.133 35.5785 268.733C33.9785 271.267 35.4451 272.867 43.1785 277C56.9118 284.333 70.2451 285 82.1118 279.133C87.7118 276.467 89.0451 276.2 91.0451 277.667C96.1118 281.4 102.245 277.8 102.245 271.133C102.245 268.333 103.445 267.133 107.978 264.867C119.312 259.4 138.378 262.067 147.312 270.333C149.578 272.6 150.645 272.867 151.845 271.667C153.178 270.333 152.645 269.267 149.578 266.733C138.912 258.067 118.112 255.267 106.245 261Z" fill="black"/>
<path d="M231.898 257.001C220.965 259.268 209.631 266.334 212.431 269.134C213.631 270.334 214.965 269.801 218.431 267.268C220.831 265.534 225.231 263.268 228.165 262.201C235.498 259.801 251.231 259.934 255.498 262.468C263.365 267.001 264.831 268.468 264.831 271.134C264.831 275.534 269.365 278.868 274.165 277.801C276.831 277.401 279.765 277.801 282.165 279.001C289.631 282.868 299.098 284.068 308.298 282.334C317.498 280.601 328.831 274.334 328.831 271.001C328.831 268.334 328.565 268.334 321.631 272.868C313.231 278.201 305.098 280.201 296.565 279.134C287.098 277.801 281.231 274.601 278.431 269.001C276.431 264.868 275.498 264.334 270.831 264.201C267.365 264.201 263.631 262.868 259.898 260.468C253.631 256.201 242.031 254.868 231.898 257.001Z" fill="black"/>
<path d="M406.333 257.721C396.333 260.254 387 265.854 387 269.321C387.133 271.987 395.933 277.721 404.067 280.521C413.533 283.587 425.533 282.787 434.067 278.654C439.667 275.987 441 275.721 443.667 277.187C445.4 278.121 448.333 278.521 450.067 277.987C452.2 277.454 455.8 278.254 459.8 280.121C467.8 283.587 482.2 283.854 490.867 280.654C497.667 278.121 505.667 272.387 505.667 270.121C505.667 269.187 503.4 266.921 500.6 265.054C488.6 256.521 469.8 254.521 458.2 260.654C449.667 265.054 443.533 265.454 437.667 261.854C427.667 255.721 419.133 254.521 406.333 257.721ZM434.6 264.921C437.8 266.921 440.067 269.054 439.933 269.854C439.667 270.521 436.2 272.921 432.2 274.921C425.8 278.254 423.933 278.654 415.667 278.254C406.333 277.721 393.8 273.054 392.733 269.587C392.067 267.587 402.067 262.387 409 261.054C418.067 259.321 428.333 260.921 434.6 264.921ZM493 265.454C496.6 267.321 499.667 269.321 499.933 270.121C500.733 272.254 488.067 278.121 481 278.921C472.733 279.854 463.533 278.254 464.067 275.987C464.333 274.921 463.533 274.654 461.8 275.187C458.867 276.121 453.133 271.454 454.067 268.787C454.333 267.854 456.867 265.854 459.8 264.121C467.133 259.854 483.533 260.387 493 265.454Z" fill="black"/>
<path d="M81.7409 394.662C72.6743 406.795 70.8076 425.195 77.3409 438.262C82.2743 447.995 81.7409 450.128 73.0743 454.662C61.4743 460.795 46.5409 459.462 34.5409 451.462C28.1409 447.062 24.5409 447.728 28.9409 452.395C33.7409 457.462 44.5409 461.462 55.7409 462.128C64.6743 462.662 66.6743 462.262 73.4743 459.062C79.0743 456.395 81.6076 455.862 82.6743 456.928C83.4743 457.728 85.2076 458.395 86.5409 458.395C90.5409 458.395 94.2743 468.128 94.2743 478.395C94.2743 487.195 90.2743 498.528 85.3409 504.128C83.6076 505.862 83.4743 506.795 84.6743 507.995C86.6743 509.995 89.0743 507.195 94.4076 496.395C99.6076 485.595 99.8743 472.262 94.9409 462.395C92.9409 458.528 92.1409 455.595 92.9409 455.062C93.7409 454.662 94.2743 452.528 94.2743 450.395C94.2743 447.328 95.2076 446.128 100.008 443.862C110.141 438.928 126.141 440.662 136.674 447.862C140.674 450.662 143.074 451.462 144.008 450.528C145.741 448.795 141.341 444.928 132.941 440.795C128.008 438.262 124.808 437.728 114.141 437.728C102.674 437.728 100.941 438.128 96.1409 441.195C88.9409 445.862 85.3409 444.795 81.0743 436.528C74.8076 424.528 76.1409 409.995 84.4076 398.795C87.8743 394.262 88.2743 392.395 86.4076 391.062C85.7409 390.662 83.6076 392.262 81.7409 394.662Z" fill="black"/>
<path d="M269.615 392.2C269.615 392.467 271.749 396.867 274.282 402.067C280.415 414.067 280.815 425.667 275.615 436.067C270.949 445.134 267.482 446.6 260.815 442.2C252.549 436.734 244.815 435.267 234.282 437C224.549 438.6 214.149 443.134 211.749 446.867C209.882 449.8 211.749 451.667 214.682 449.534C222.015 444.2 225.482 442.734 233.082 441.267C243.082 439.4 251.349 440.867 259.082 445.934C264.815 449.667 264.949 452.2 259.882 462.6C254.682 473.134 254.815 486.734 260.015 497.934C264.282 506.734 267.482 510.334 268.949 507.934C269.482 507 268.815 504.734 267.349 502.867C262.149 495.667 259.882 487.267 260.549 477.4C261.882 459.4 269.349 454.2 284.015 461C294.015 465.534 308.415 464.867 318.682 459.267C326.815 454.867 329.215 452.334 327.482 450.6C326.549 449.667 324.549 450.467 321.615 452.6C314.815 457.534 305.215 460.334 296.415 459.667C286.815 459 278.415 454.867 277.882 450.467C277.615 448.734 276.949 446.734 276.282 446.2C275.749 445.534 277.082 441.8 279.349 437.8C283.082 430.867 283.215 429.667 282.682 418.734C282.282 408.734 281.615 406.067 278.015 399.8C275.749 395.8 272.949 392.467 271.749 392.2C270.549 391.934 269.615 391.934 269.615 392.2Z" fill="black"/>
<path d="M438.909 465.909V465.636C438.939 462.742 439.242 460.439 439.818 458.727C440.394 457.015 441.212 455.629 442.273 454.568C443.333 453.508 444.606 452.53 446.091 451.636C446.985 451.091 447.788 450.447 448.5 449.705C449.212 448.947 449.773 448.076 450.182 447.091C450.606 446.106 450.818 445.015 450.818 443.818C450.818 442.333 450.47 441.045 449.773 439.955C449.076 438.864 448.144 438.023 446.977 437.432C445.811 436.841 444.515 436.545 443.091 436.545C441.848 436.545 440.652 436.803 439.5 437.318C438.348 437.833 437.386 438.644 436.614 439.75C435.841 440.856 435.394 442.303 435.273 444.091H429.545C429.667 441.515 430.333 439.311 431.545 437.477C432.773 435.644 434.386 434.242 436.386 433.273C438.402 432.303 440.636 431.818 443.091 431.818C445.758 431.818 448.076 432.348 450.045 433.409C452.03 434.47 453.561 435.924 454.636 437.773C455.727 439.621 456.273 441.727 456.273 444.091C456.273 445.758 456.015 447.265 455.5 448.614C455 449.962 454.273 451.167 453.318 452.227C452.379 453.288 451.242 454.227 449.909 455.045C448.576 455.879 447.508 456.758 446.705 457.682C445.902 458.591 445.318 459.674 444.955 460.932C444.591 462.189 444.394 463.758 444.364 465.636V465.909H438.909ZM441.818 479.364C440.697 479.364 439.735 478.962 438.932 478.159C438.129 477.356 437.727 476.394 437.727 475.273C437.727 474.152 438.129 473.189 438.932 472.386C439.735 471.583 440.697 471.182 441.818 471.182C442.939 471.182 443.902 471.583 444.705 472.386C445.508 473.189 445.909 474.152 445.909 475.273C445.909 476.015 445.72 476.697 445.341 477.318C444.977 477.939 444.485 478.439 443.864 478.818C443.258 479.182 442.576 479.364 441.818 479.364Z" fill="black"/>
</svg>
