<svg width="180" height="180" viewBox="0 0 180 180" fill="none" xmlns="http://www.w3.org/2000/svg">
<rect x="0.1" y="0.1" width="179.8" height="179.8" fill="white" stroke="#CBCBCB" stroke-width="0.2"/>
<path d="M87 44.2613C86.6 44.9279 87.5333 47.4613 89.2667 49.7279C93.6667 55.5946 94.4667 72.2613 90.6 79.7279L87.9333 84.9279L86.4667 79.4613C83.8 69.5946 71.1333 58.5279 59.4 55.7279C56.2 55.0613 55.6667 55.3279 55.6667 57.5946C55.6667 59.328 56.6 60.2613 58.3333 60.2613C65.5333 60.2613 79.8 71.9946 82.4667 79.9946C83.2667 82.3946 83.6667 84.6613 83.2667 85.0613C83 85.3279 80.0667 84.3946 76.8667 82.9279C68.6 79.1946 57.6667 79.4613 48.3333 83.4613C44.3333 85.3279 41 87.3279 41 87.9946C41 90.6613 43 90.6613 48.0667 87.9946C56.4667 83.7279 68.3333 83.3279 76.4667 86.9279L83 89.8613L76.7333 91.7279C72.7333 92.9279 68.3333 95.7279 64.4667 99.5946C57.6667 106.261 55 110.795 53.6667 117.995C52.8667 121.861 53.1333 122.928 54.7333 122.928C55.9333 122.928 57.2667 120.661 58.2 117.061C60.0667 109.728 69.9333 98.3946 76.4667 96.2613C79 95.3279 81.4 94.9279 81.8 95.1946C82.0667 95.5946 81.4 98.1279 80.2 101.061C76.7333 108.928 77.2667 121.061 81.4 130.128C84.6 137.195 86.6 139.061 88.2 136.528C88.6 135.861 87.2667 132.395 85.4 128.528C83 123.461 82.0667 119.728 82.2 113.995C82.3333 100.528 86.8667 94.5279 90.4667 103.195C94.3333 112.528 107.533 123.061 117 124.395C122.733 125.328 120.733 121.461 114.333 119.328C106.333 116.661 100.2 111.728 96.0667 104.661C91.8 97.3279 93.1333 94.9279 99.9333 97.7279C106.6 100.528 122.067 99.8613 128.733 96.3946C131.667 94.9279 134.467 93.0613 134.867 92.3946C136.6 89.5946 132.733 89.5946 127.4 92.5279C118.2 97.1946 97 96.1279 97 90.9279C97 90.2613 99.5333 88.3946 102.733 86.7946C110.867 82.5279 117.667 75.0613 120.867 66.2613C122.467 61.9946 123.4 58.2613 123.133 57.8613C121.533 56.2613 118.733 59.0613 117.267 63.8613C115.267 70.7946 110.067 77.4613 103.4 81.8613C98.4667 85.1946 93 86.7946 93 84.9279C93 84.3946 93.9333 82.2613 95.1333 79.9946C98.4667 73.5946 97.2667 54.3946 93.1333 47.8613C90.0667 42.7946 88.4667 41.8613 87 44.2613Z" fill="black"/>
</svg>
