<svg width="180" height="180" viewBox="0 0 180 180" fill="none" xmlns="http://www.w3.org/2000/svg">
<rect x="0.1" y="0.1" width="179.8" height="179.8" fill="white" stroke="#CBCBCB" stroke-width="0.2"/>
<path d="M82.7333 48.3681C81.1333 51.5681 79.5333 56.6348 79 59.8348L78.0667 65.4348L72.6 61.4348C66.8667 57.1681 57.9333 54.1014 55.6667 55.4348C53 57.0348 54.4667 63.7014 58.8667 71.0348C63.2667 78.3681 63.2667 78.5014 60.4667 79.3014C59 79.7014 56.6 80.1014 55.2667 80.1014C50.8667 80.1014 41 85.7014 41 88.1014C41 90.6348 48.3333 95.7014 53.4 96.6348C55 97.0348 58.0667 97.7014 60.2 98.1014L64.0667 98.9014L60.6 102.501C54.8667 108.501 50.8667 121.301 54.0667 123.301C55.5333 124.235 68.3333 119.435 72.8667 116.235L76.7333 113.435L77.5333 118.901C78.0667 121.835 79.9333 127.301 81.8 130.901C84.6 136.501 85.4 137.301 87.5333 136.235C90.4667 134.635 94.8667 125.435 96.2 118.368L97.1333 113.435L101.533 116.768C105.8 119.968 115.667 124.101 119.133 124.101C123.533 124.101 119.267 107.435 113.933 102.901C110.467 100.101 111.133 99.1681 117.667 98.3681C125.667 97.1681 134.333 92.7681 134.333 89.7014C134.333 86.5014 125.533 81.7014 117.8 80.6348C111.533 79.7014 111.533 79.7014 114.067 76.9014C119.533 70.7681 124.2 56.2348 120.867 55.9681C115.267 55.4348 105.933 59.1681 100.867 63.7014L97.4 66.9014L96.6 59.4348C95.6667 50.7681 92.0667 43.5681 88.0667 43.0348C86.0667 42.7681 84.7333 43.9681 82.7333 48.3681ZM91.1333 52.7681C94.7333 61.5681 92.3333 82.7681 87.6667 82.7681C85.2667 82.7681 82.3333 73.9681 82.3333 66.5014C82.3333 60.1014 86.3333 48.1014 88.3333 48.1014C88.7333 48.1014 90.0667 50.2348 91.1333 52.7681ZM69.2667 64.1014C72.6 66.3681 75.9333 68.9014 76.6 69.8348C78.2 71.9681 82.4667 83.1681 81.8 83.7014C80.8667 84.6348 69.4 78.7681 66.7333 75.8348C64.2 73.0348 58.3333 62.6348 58.3333 60.7681C58.3333 58.9014 63.8 60.5014 69.2667 64.1014ZM117 62.5014C117 63.8348 115.133 67.8348 112.867 71.3014C109.667 76.1014 106.867 78.3681 101.267 80.9014C97.2667 82.6348 93.6667 83.9681 93.4 83.7014C93.1333 83.4348 94.0667 80.3681 95.5333 77.0348C98.8667 69.3014 106.2 63.4348 116.733 60.2348C116.867 60.1014 117 61.1681 117 62.5014ZM77.5333 86.3681C81 88.1014 81.1333 88.5014 79.2667 90.3681C76.3333 93.3014 64.4667 94.9014 57.2667 93.3014C50.6 91.8348 46.3333 89.8348 46.3333 88.2348C46.3333 87.3014 52.3333 85.0348 59 83.5681C63.1333 82.6348 73.2667 84.1014 77.5333 86.3681ZM125.4 86.7681C127.4 87.7014 129 88.9014 129 89.4348C129 91.3014 121.533 93.7014 114.067 94.3681C105.667 95.1681 93.8 91.8348 94.7333 88.9014C96.2 84.3681 117 82.9014 125.4 86.7681ZM79.9333 100.368C78.8667 103.568 76.6 107.435 75.1333 109.168C72.2 112.501 58.7333 119.568 57.5333 118.368C56.2 117.035 62.0667 106.101 66.4667 101.968C69.8 98.7681 76.3333 95.7014 81.2667 94.9014C81.6667 94.7681 81.1333 97.3014 79.9333 100.368ZM101.4 97.4348C107 100.101 114.333 109.168 116.333 115.701C118.733 124.101 101 113.835 96.0667 104.101C91 94.1014 91.9333 93.0348 101.4 97.4348ZM91.1333 102.368C93.5333 108.235 93 118.235 89.8 125.968C88.0667 130.101 87.2667 130.768 85.8 129.568C82.8667 127.168 80.7333 116.501 81.8 109.568C83.6667 96.5014 87.4 93.7014 91.1333 102.368Z" fill="black"/>
</svg>
