<svg width="180" height="180" viewBox="0 0 180 180" fill="none" xmlns="http://www.w3.org/2000/svg">
<rect x="0.1" y="0.1" width="179.8" height="179.8" fill="white" stroke="#CBCBCB" stroke-width="0.2"/>
<path d="M51.9416 78.3925C44.7416 80.3925 37.5416 84.5259 35.5416 87.5925C33.5416 90.7925 37.0083 94.1259 47.1416 98.7925C58.3416 103.993 73.675 104.259 82.6083 99.4592C87.5416 96.9259 88.875 96.6592 91.5416 97.9925C93.1416 98.9259 96.075 99.3259 97.8083 98.7925C99.9416 98.2592 103.542 99.0592 107.542 100.926C112.342 102.926 116.875 103.859 124.208 103.859C133.275 103.993 135.408 103.459 143.542 99.3259C155.275 93.3259 155.808 90.9259 147.142 85.0592C135.408 77.3259 118.608 75.8592 106.742 81.5925C96.475 86.5259 91.675 86.3925 83.675 81.4592C78.075 77.9925 75.5417 77.3259 67.5417 77.0592C62.3416 76.7925 55.275 77.4592 51.9416 78.3925ZM79.675 83.9925C90.475 89.4592 90.7416 90.5259 82.6083 94.6592C78.875 96.6592 72.6083 98.5259 68.875 98.9259C60.7416 99.7259 48.2083 96.3925 43.1416 92.1259L39.675 89.0592L43.675 86.2592C52.6083 79.8592 69.275 78.9259 79.675 83.9925ZM141.008 86.1259C144.475 87.9925 147.408 90.2592 147.408 91.3259C147.408 92.2592 144.475 94.6592 140.742 96.5259C131.808 100.926 118.342 101.193 109.142 96.9259C103.942 94.6592 102.742 93.4592 102.742 90.7925C102.742 82.1259 127.275 79.1925 141.008 86.1259Z" fill="black"/>
</svg>
