<svg width="180" height="180" viewBox="0 0 180 180" fill="none" xmlns="http://www.w3.org/2000/svg">
<rect x="0.1" y="0.1" width="179.8" height="179.8" fill="white" stroke="#CBCBCB" stroke-width="0.2"/>
<path d="M90.4458 32.3784C90.4458 33.045 91.9125 35.9784 93.7792 38.645C98.1792 45.045 99.7792 51.3117 99.7792 61.5784C99.7792 71.7117 95.3792 81.3117 89.2458 84.7784C85.9125 86.645 85.1125 87.845 85.1125 91.7117C85.1125 94.245 84.5792 96.7784 83.7792 97.1784C78.8458 100.245 75.3792 118.778 77.7792 129.445C79.6458 137.445 85.7792 148.512 88.4458 148.512C90.9792 148.512 90.9792 145.312 88.5792 143.312C87.5125 142.512 85.3792 138.645 83.7792 134.912C77.6458 120.645 82.0458 99.1784 91.2458 98.1117C93.3792 97.845 95.9125 97.045 96.8458 96.245C98.7125 94.645 98.9792 87.7117 97.1125 86.5117C96.3125 86.1117 97.5125 82.645 99.9125 78.3784C103.912 71.445 104.046 70.5117 103.512 58.7784C103.112 47.9784 102.446 45.445 98.8458 39.1784C95.2458 32.645 90.4458 28.7784 90.4458 32.3784Z" fill="black"/>
</svg>
