<svg width="180" height="180" viewBox="0 0 180 180" fill="none" xmlns="http://www.w3.org/2000/svg">
<rect x="0.1" y="0.1" width="179.8" height="179.8" fill="white" stroke="#CBCBCB" stroke-width="0.2"/>
<path d="M90.304 34.722C89.904 35.122 90.9707 37.7886 92.8374 40.5886C97.2374 47.2553 100.037 56.722 100.037 65.122C99.904 73.122 94.5707 84.322 89.504 86.722C86.8374 88.0553 85.504 87.7886 79.6374 84.0553C73.2374 80.1886 72.1707 79.922 60.1707 80.0553C46.5707 80.0553 37.9041 82.8553 32.5707 88.722C29.3707 92.322 31.3707 93.6553 35.7707 90.8553C43.3707 85.922 49.104 84.1886 59.3707 83.6553C69.104 83.2553 70.7041 83.522 76.7041 86.8553C84.9707 91.522 85.6374 94.5886 80.4374 104.722C77.3707 110.722 76.8374 113.655 76.8374 122.589C76.7041 131.522 77.3707 134.455 80.4374 140.722C84.704 149.522 87.504 152.322 89.504 150.322C90.5707 149.255 89.7707 147.255 86.9707 143.389C79.3707 132.855 78.304 118.455 84.304 106.322C86.4374 101.922 87.7707 100.722 89.6374 101.389C90.9707 101.789 92.9707 101.522 94.1707 100.855C95.7707 99.922 98.5707 100.589 103.637 102.855C110.171 105.789 112.304 106.189 122.437 105.655C133.904 105.122 139.904 103.122 147.371 97.3886C149.371 95.922 149.637 95.122 148.437 93.922C147.237 92.5886 145.904 92.9886 142.437 95.522C132.437 103.122 116.437 104.722 105.104 99.2553C96.5707 95.2553 95.3707 90.4553 100.304 80.322C106.571 67.522 104.837 50.1886 95.904 37.6553C93.2374 33.922 91.904 33.2553 90.304 34.722Z" fill="black"/>
</svg>
