<svg width="180" height="180" viewBox="0 0 180 180" fill="none" xmlns="http://www.w3.org/2000/svg">
<rect x="0.1" y="0.1" width="179.8" height="179.8" fill="white" stroke="#CBCBCB" stroke-width="0.2"/>
<path d="M86.7487 35.2669C80.6154 42.6002 78.2154 50.0669 78.2154 61.5336C78.2154 69.1336 78.8821 73.1336 80.8821 77.0002C82.3487 79.8002 83.2821 82.3336 83.1487 82.6002C82.8821 82.7336 80.0821 81.5336 76.7487 79.9336C72.2154 77.6669 68.6154 77.0002 60.0821 77.0002C50.7487 77.0002 48.3487 77.5336 41.5487 81.0002C28.3487 87.8002 28.7487 91.4002 43.2821 98.4669C53.2821 103.4 69.1487 103.8 77.6821 99.5336L83.2821 96.7336L79.9487 104.067C77.0154 110.334 76.6154 112.6 77.1487 122.2C77.6821 131.4 78.3487 134.467 81.8154 140.334C87.1487 149.934 89.2821 151.134 92.7487 146.867C94.3487 145.134 97.1487 140.334 99.1487 136.334C102.349 130.2 102.882 127.4 102.749 118.334C102.749 110.867 102.082 106.467 100.482 103.667C97.1487 97.8002 97.5487 97.5336 104.615 100.734C109.149 102.867 113.415 103.667 120.349 103.534C128.482 103.534 131.149 102.867 139.015 99.0002C150.882 93.0002 151.682 90.0669 142.882 84.4669C131.549 77.2669 113.815 75.6669 103.415 80.8669C101.015 82.0669 98.8821 82.7336 98.6154 82.4669C98.3487 82.2002 99.2821 79.5336 100.882 76.6002C105.149 68.4669 104.882 53.4002 100.215 43.4002C96.7487 35.8002 93.4154 31.0002 91.4154 31.0002C90.8821 31.0002 88.8821 33.0002 86.7487 35.2669ZM97.5487 47.2669C101.149 57.2669 100.882 67.4002 96.8821 75.6669C92.4821 84.3336 89.2821 84.6002 85.2821 76.3336C79.9487 66.0669 81.4154 50.2002 88.4821 39.4002C90.3487 36.6002 90.7487 36.4669 92.7487 38.2002C93.9487 39.4002 96.0821 43.4002 97.5487 47.2669ZM75.6821 83.9336C85.1487 88.8669 85.4154 91.0002 76.7487 95.1336C66.6154 99.8002 53.2821 99.5336 43.6821 94.3336C39.9487 92.2002 37.0154 89.9336 37.2821 89.1336C37.4154 88.3336 40.8821 86.0669 44.8821 84.0669C55.1487 79.0002 65.6821 79.0002 75.6821 83.9336ZM136.882 85.8002C140.082 87.5336 142.882 89.6669 143.149 90.6002C143.949 93.0002 135.949 97.4002 127.549 99.1336C121.415 100.467 118.749 100.334 111.549 98.4669C96.8821 94.7336 94.4821 89.2669 105.149 84.2002C113.282 80.4669 128.749 81.2669 136.882 85.8002ZM96.8821 106.067C99.2821 111.667 99.6821 114.334 99.0154 121C98.2154 129 92.2154 143.267 89.5487 143.4C88.8821 143.4 86.6154 140.2 84.6154 136.2C79.6821 126.467 79.5487 114.6 84.0821 104.867C86.8821 98.7336 87.6821 98.0669 90.6154 98.6002C93.1487 99.1336 94.7487 101 96.8821 106.067Z" fill="black"/>
</svg>
