<svg width="180" height="180" viewBox="0 0 180 180" fill="none" xmlns="http://www.w3.org/2000/svg">
<rect x="0.1" y="0.1" width="179.8" height="179.8" fill="white" stroke="#CBCBCB" stroke-width="0.2"/>
<mask id="mask0_0_1" style="mask-type:alpha" maskUnits="userSpaceOnUse" x="89" y="27" width="65" height="65">
<rect x="89" y="27" width="65" height="65" fill="white"/>
</mask>
<g mask="url(#mask0_0_1)">
<line x1="134.707" y1="11.2929" x2="171.707" y2="48.2929" stroke="black" stroke-width="2"/>
<line x1="129.707" y1="13.2929" x2="168.707" y2="52.2929" stroke="black" stroke-width="2"/>
<line x1="125.707" y1="16.2929" x2="165.707" y2="56.2929" stroke="black" stroke-width="2"/>
<line x1="121.707" y1="19.2929" x2="161.707" y2="59.2929" stroke="black" stroke-width="2"/>
<line x1="118.707" y1="23.2929" x2="155.707" y2="60.2929" stroke="black" stroke-width="2"/>
<line x1="113.707" y1="25.2929" x2="162.707" y2="74.2929" stroke="black" stroke-width="2"/>
<line x1="105.707" y1="24.2929" x2="161.707" y2="80.2929" stroke="black" stroke-width="2"/>
<line x1="99.7071" y1="25.2929" x2="163.707" y2="89.2929" stroke="black" stroke-width="2"/>
<line x1="92.7071" y1="25.2929" x2="160.707" y2="93.2929" stroke="black" stroke-width="2"/>
<line x1="84.7071" y1="24.2929" x2="157.707" y2="97.2929" stroke="black" stroke-width="2"/>
<line x1="86.7071" y1="33.2929" x2="151.707" y2="98.2929" stroke="black" stroke-width="2"/>
<line x1="82.7071" y1="36.2929" x2="146.707" y2="100.293" stroke="black" stroke-width="2"/>
<line x1="84.7071" y1="45.2929" x2="140.707" y2="101.293" stroke="black" stroke-width="2"/>
<line x1="85.7071" y1="53.2929" x2="131.707" y2="99.2929" stroke="black" stroke-width="2"/>
<line x1="81.7071" y1="56.2929" x2="121.707" y2="96.2929" stroke="black" stroke-width="2"/>
<line x1="77.7071" y1="59.2929" x2="117.707" y2="99.2929" stroke="black" stroke-width="2"/>
<line x1="75.7071" y1="64.2929" x2="112.707" y2="101.293" stroke="black" stroke-width="2"/>
<line x1="70.7071" y1="66.2929" x2="109.707" y2="105.293" stroke="black" stroke-width="2"/>
<line x1="66.7071" y1="69.2929" x2="106.707" y2="109.293" stroke="black" stroke-width="2"/>
</g>
<mask id="mask1_0_1" style="mask-type:alpha" maskUnits="userSpaceOnUse" x="24" y="25" width="65" height="65">
<rect x="24" y="25" width="65" height="65" fill="white"/>
</mask>
<g mask="url(#mask1_0_1)">
<line x1="69.7071" y1="9.29289" x2="106.707" y2="46.2929" stroke="black" stroke-width="2"/>
<line x1="64.7071" y1="11.2929" x2="103.707" y2="50.2929" stroke="black" stroke-width="2"/>
<line x1="60.7071" y1="14.2929" x2="100.707" y2="54.2929" stroke="black" stroke-width="2"/>
<line x1="56.7071" y1="17.2929" x2="96.7071" y2="57.2929" stroke="black" stroke-width="2"/>
<line x1="53.7071" y1="21.2929" x2="90.7071" y2="58.2929" stroke="black" stroke-width="2"/>
<line x1="48.7071" y1="23.2929" x2="97.7071" y2="72.2929" stroke="black" stroke-width="2"/>
<line x1="40.7071" y1="22.2929" x2="96.7071" y2="78.2929" stroke="black" stroke-width="2"/>
<line x1="34.7071" y1="23.2929" x2="98.7071" y2="87.2929" stroke="black" stroke-width="2"/>
<line x1="27.7071" y1="23.2929" x2="95.7071" y2="91.2929" stroke="black" stroke-width="2"/>
<line x1="19.7071" y1="22.2929" x2="92.7071" y2="95.2929" stroke="black" stroke-width="2"/>
<line x1="21.7071" y1="31.2929" x2="86.7071" y2="96.2929" stroke="black" stroke-width="2"/>
<line x1="17.7071" y1="34.2929" x2="81.7071" y2="98.2929" stroke="black" stroke-width="2"/>
<line x1="19.7071" y1="43.2929" x2="75.7071" y2="99.2929" stroke="black" stroke-width="2"/>
<line x1="20.7071" y1="51.2929" x2="66.7071" y2="97.2929" stroke="black" stroke-width="2"/>
<line x1="16.7071" y1="54.2929" x2="56.7071" y2="94.2929" stroke="black" stroke-width="2"/>
<line x1="12.7071" y1="57.2929" x2="52.7071" y2="97.2929" stroke="black" stroke-width="2"/>
<line x1="10.7071" y1="62.2929" x2="47.7071" y2="99.2929" stroke="black" stroke-width="2"/>
<line x1="5.70711" y1="64.2929" x2="44.7071" y2="103.293" stroke="black" stroke-width="2"/>
<line x1="1.70711" y1="67.2929" x2="41.7071" y2="107.293" stroke="black" stroke-width="2"/>
</g>
<path d="M28.5718 47.2379L32.8087 51.5002L24.2399 60.0179L20.003 55.7556L28.5718 47.2379Z" fill="black"/>
<rect x="25.3086" y="25.5002" width="127" height="127" stroke="black" stroke-width="3"/>
<path d="M39.1404 22.6704L43.3773 26.9327L34.8085 35.4504L30.5716 31.188L39.1404 22.6704Z" fill="black"/>
<path d="M54.8774 21.0002L59.1144 25.2625L50.5456 33.7802L46.3087 29.5179L54.8774 21.0002Z" fill="black"/>
<path d="M67.8774 22.0004L72.1144 26.2628L63.5456 34.7805L59.3087 30.5181L67.8774 22.0004Z" fill="black"/>
<path d="M82.5717 21.238L86.8086 25.5004L78.2398 34.0181L74.0029 29.7557L82.5717 21.238Z" fill="black"/>
<path d="M96.1405 21.7202L100.377 25.9826L91.8086 34.5002L87.5717 30.2379L96.1405 21.7202Z" fill="black"/>
<mask id="mask2_0_1" style="mask-type:alpha" maskUnits="userSpaceOnUse" x="23" y="88" width="66" height="66">
<rect x="88.8086" y="88.0002" width="65" height="65" transform="rotate(90 88.8086 88.0002)" fill="white"/>
</mask>
<g mask="url(#mask2_0_1)">
<line x1="103.93" y1="130.122" x2="64.9299" y2="169.122" stroke="black" stroke-width="6"/>
<line x1="97.9299" y1="122.122" x2="57.9299" y2="162.122" stroke="black" stroke-width="6"/>
<line x1="91.9299" y1="114.122" x2="42.9299" y2="163.122" stroke="black" stroke-width="6"/>
<line x1="91.9299" y1="100.122" x2="27.9299" y2="164.122" stroke="black" stroke-width="6"/>
<line x1="92.9299" y1="85.1216" x2="19.9299" y2="158.122" stroke="black" stroke-width="6"/>
<line x1="80.9299" y1="83.1216" x2="16.9299" y2="147.122" stroke="black" stroke-width="6"/>
<line x1="63.9299" y1="86.1216" x2="17.9299" y2="132.122" stroke="black" stroke-width="6"/>
<line x1="57.9299" y1="78.1216" x2="17.9299" y2="118.122" stroke="black" stroke-width="6"/>
<line x1="50.9299" y1="71.1216" x2="11.9299" y2="110.122" stroke="black" stroke-width="6"/>
</g>
<mask id="mask3_0_1" style="mask-type:alpha" maskUnits="userSpaceOnUse" x="27" y="28" width="66" height="66">
<rect x="92.8086" y="28.0002" width="65" height="65" transform="rotate(90 92.8086 28.0002)" fill="white"/>
</mask>
<g mask="url(#mask3_0_1)">
<line x1="107.93" y1="70.1216" x2="68.9299" y2="109.122" stroke="black" stroke-width="6"/>
<line x1="101.93" y1="62.1216" x2="61.9299" y2="102.122" stroke="black" stroke-width="6"/>
<line x1="95.9299" y1="54.1216" x2="46.9299" y2="103.122" stroke="black" stroke-width="6"/>
<line x1="95.9299" y1="40.1216" x2="31.9299" y2="104.122" stroke="black" stroke-width="6"/>
<line x1="96.9299" y1="25.1216" x2="23.9299" y2="98.1216" stroke="black" stroke-width="6"/>
<line x1="84.9299" y1="23.1216" x2="20.9299" y2="87.1216" stroke="black" stroke-width="6"/>
<line x1="67.9299" y1="26.1216" x2="21.9299" y2="72.1216" stroke="black" stroke-width="6"/>
<line x1="61.9299" y1="18.1216" x2="21.9299" y2="58.1216" stroke="black" stroke-width="6"/>
<line x1="54.9299" y1="11.1216" x2="15.9299" y2="50.1216" stroke="black" stroke-width="6"/>
</g>
<rect x="30.3494" y="73.4734" width="6.00992" height="12.082" transform="rotate(45.1714 30.3494 73.4734)" fill="black"/>
<path d="M28.573 61.2379L32.8099 65.5002L24.2411 74.0179L20.0042 69.7556L28.573 61.2379Z" fill="black"/>
<path d="M28.5718 47.2379L32.8087 51.5002L24.2399 60.0179L20.003 55.7556L28.5718 47.2379Z" fill="black"/>
<path d="M29.5718 32.2378L33.8087 36.5001L25.2399 45.0178L21.003 40.7555L29.5718 32.2378Z" fill="black"/>
<path d="M28.5718 47.2379L32.8087 51.5002L24.2399 60.0179L20.003 55.7556L28.5718 47.2379Z" fill="black"/>
<rect x="25" y="11" width="75" height="13" fill="white"/>
<rect x="25" y="11" width="75" height="13" fill="white"/>
<rect x="12" y="35" width="12" height="55" fill="white"/>
<rect x="12" y="35" width="12" height="55" fill="white"/>
<rect x="12" y="35" width="12" height="55" fill="white"/>
</svg>
