<svg width="180" height="180" viewBox="0 0 180 180" fill="none" xmlns="http://www.w3.org/2000/svg">
<rect x="0.1" y="0.1" width="179.8" height="179.8" fill="white" stroke="#CBCBCB" stroke-width="0.2"/>
<rect x="26.5" y="26.5" width="127" height="127" stroke="black" stroke-width="3"/>
<mask id="mask0_0_1" style="mask-type:alpha" maskUnits="userSpaceOnUse" x="90" y="27" width="65" height="65">
<rect x="90" y="27" width="65" height="65" fill="white"/>
</mask>
<g mask="url(#mask0_0_1)">
<line x1="135.707" y1="11.2929" x2="172.707" y2="48.2929" stroke="black" stroke-width="2"/>
<line x1="130.707" y1="13.2929" x2="169.707" y2="52.2929" stroke="black" stroke-width="2"/>
<line x1="126.707" y1="16.2929" x2="166.707" y2="56.2929" stroke="black" stroke-width="2"/>
<line x1="122.707" y1="19.2929" x2="162.707" y2="59.2929" stroke="black" stroke-width="2"/>
<line x1="119.707" y1="23.2929" x2="156.707" y2="60.2929" stroke="black" stroke-width="2"/>
<line x1="114.707" y1="25.2929" x2="163.707" y2="74.2929" stroke="black" stroke-width="2"/>
<line x1="106.707" y1="24.2929" x2="162.707" y2="80.2929" stroke="black" stroke-width="2"/>
<line x1="100.707" y1="25.2929" x2="164.707" y2="89.2929" stroke="black" stroke-width="2"/>
<line x1="93.7071" y1="25.2929" x2="161.707" y2="93.2929" stroke="black" stroke-width="2"/>
<line x1="85.7071" y1="24.2929" x2="158.707" y2="97.2929" stroke="black" stroke-width="2"/>
<line x1="87.7071" y1="33.2929" x2="152.707" y2="98.2929" stroke="black" stroke-width="2"/>
<line x1="83.7071" y1="36.2929" x2="147.707" y2="100.293" stroke="black" stroke-width="2"/>
<line x1="85.7071" y1="45.2929" x2="141.707" y2="101.293" stroke="black" stroke-width="2"/>
<line x1="86.7071" y1="53.2929" x2="132.707" y2="99.2929" stroke="black" stroke-width="2"/>
<line x1="82.7071" y1="56.2929" x2="122.707" y2="96.2929" stroke="black" stroke-width="2"/>
<line x1="78.7071" y1="59.2929" x2="118.707" y2="99.2929" stroke="black" stroke-width="2"/>
<line x1="76.7071" y1="64.2929" x2="113.707" y2="101.293" stroke="black" stroke-width="2"/>
<line x1="71.7071" y1="66.2929" x2="110.707" y2="105.293" stroke="black" stroke-width="2"/>
<line x1="67.7071" y1="69.2929" x2="107.707" y2="109.293" stroke="black" stroke-width="2"/>
</g>
<mask id="mask1_0_1" style="mask-type:alpha" maskUnits="userSpaceOnUse" x="25" y="25" width="65" height="65">
<rect x="25" y="25" width="65" height="65" fill="white"/>
</mask>
<g mask="url(#mask1_0_1)">
<line x1="70.7071" y1="9.29289" x2="107.707" y2="46.2929" stroke="black" stroke-width="2"/>
<line x1="65.7071" y1="11.2929" x2="104.707" y2="50.2929" stroke="black" stroke-width="2"/>
<line x1="61.7071" y1="14.2929" x2="101.707" y2="54.2929" stroke="black" stroke-width="2"/>
<line x1="57.7071" y1="17.2929" x2="97.7071" y2="57.2929" stroke="black" stroke-width="2"/>
<line x1="54.7071" y1="21.2929" x2="91.7071" y2="58.2929" stroke="black" stroke-width="2"/>
<line x1="49.7071" y1="23.2929" x2="98.7071" y2="72.2929" stroke="black" stroke-width="2"/>
<line x1="41.7071" y1="22.2929" x2="97.7071" y2="78.2929" stroke="black" stroke-width="2"/>
<line x1="35.7071" y1="23.2929" x2="99.7071" y2="87.2929" stroke="black" stroke-width="2"/>
<line x1="28.7071" y1="23.2929" x2="96.7071" y2="91.2929" stroke="black" stroke-width="2"/>
<line x1="20.7071" y1="22.2929" x2="93.7071" y2="95.2929" stroke="black" stroke-width="2"/>
<line x1="22.7071" y1="31.2929" x2="87.7071" y2="96.2929" stroke="black" stroke-width="2"/>
<line x1="18.7071" y1="34.2929" x2="82.7071" y2="98.2929" stroke="black" stroke-width="2"/>
<line x1="20.7071" y1="43.2929" x2="76.7071" y2="99.2929" stroke="black" stroke-width="2"/>
<line x1="21.7071" y1="51.2929" x2="67.7071" y2="97.2929" stroke="black" stroke-width="2"/>
<line x1="17.7071" y1="54.2929" x2="57.7071" y2="94.2929" stroke="black" stroke-width="2"/>
<line x1="13.7071" y1="57.2929" x2="53.7071" y2="97.2929" stroke="black" stroke-width="2"/>
<line x1="11.7071" y1="62.2929" x2="48.7071" y2="99.2929" stroke="black" stroke-width="2"/>
<line x1="6.70711" y1="64.2929" x2="45.7071" y2="103.293" stroke="black" stroke-width="2"/>
<line x1="2.70711" y1="67.2929" x2="42.7071" y2="107.293" stroke="black" stroke-width="2"/>
</g>
<mask id="mask2_0_1" style="mask-type:alpha" maskUnits="userSpaceOnUse" x="26" y="90" width="65" height="65">
<rect x="91" y="90" width="65" height="65" transform="rotate(90 91 90)" fill="white"/>
</mask>
<g mask="url(#mask2_0_1)">
<line x1="106.121" y1="132.121" x2="67.1213" y2="171.121" stroke="black" stroke-width="6"/>
<line x1="100.121" y1="124.121" x2="60.1213" y2="164.121" stroke="black" stroke-width="6"/>
<line x1="94.1213" y1="116.121" x2="45.1213" y2="165.121" stroke="black" stroke-width="6"/>
<line x1="94.1213" y1="102.121" x2="30.1213" y2="166.121" stroke="black" stroke-width="6"/>
<line x1="95.1213" y1="87.1213" x2="22.1213" y2="160.121" stroke="black" stroke-width="6"/>
<line x1="83.1213" y1="85.1213" x2="19.1213" y2="149.121" stroke="black" stroke-width="6"/>
<line x1="66.1213" y1="88.1213" x2="20.1213" y2="134.121" stroke="black" stroke-width="6"/>
<line x1="60.1213" y1="80.1213" x2="20.1213" y2="120.121" stroke="black" stroke-width="6"/>
<line x1="53.1213" y1="73.1213" x2="14.1213" y2="112.121" stroke="black" stroke-width="6"/>
</g>
</svg>
