<svg width="540" height="540" viewBox="0 0 540 540" fill="none" xmlns="http://www.w3.org/2000/svg">
<rect x="0.1" y="0.1" width="179.8" height="179.8" fill="white" stroke="#CBCBCB" stroke-width="0.2"/>
<rect x="180.1" y="0.1" width="179.8" height="179.8" fill="white" stroke="#CBCBCB" stroke-width="0.2"/>
<rect x="360.1" y="0.1" width="179.8" height="179.8" fill="white" stroke="#CBCBCB" stroke-width="0.2"/>
<rect x="0.1" y="180.1" width="179.8" height="179.8" fill="white" stroke="#CBCBCB" stroke-width="0.2"/>
<rect x="180.1" y="180.1" width="179.8" height="179.8" fill="white" stroke="#CBCBCB" stroke-width="0.2"/>
<rect x="360.1" y="180.1" width="179.8" height="179.8" fill="white" stroke="#CBCBCB" stroke-width="0.2"/>
<rect x="0.1" y="360.1" width="179.8" height="179.8" fill="white" stroke="#CBCBCB" stroke-width="0.2"/>
<rect x="180.1" y="360.1" width="179.8" height="179.8" fill="white" stroke="#CBCBCB" stroke-width="0.2"/>
<rect x="360.1" y="360.1" width="179.8" height="179.8" fill="white" stroke="#CBCBCB" stroke-width="0.2"/>
<path d="M444.742 55.3331C443.275 58.1331 441.408 63.5998 440.608 67.3331C439.808 70.9331 438.608 73.9998 438.075 73.9998C437.408 73.9998 434.608 75.9998 431.942 78.2665C426.075 83.3331 422.208 91.4665 422.075 97.9998C422.075 101.866 421.008 103.866 416.608 108C410.208 114.266 407.142 119.733 408.208 122.666C409.008 124.4 410.475 124.8 415.942 124.266C419.675 123.866 424.475 122.933 426.608 122C429.675 120.933 430.875 120.933 432.608 122.533C441.142 129.866 455.142 131.2 465.808 125.333C471.808 122.133 472.875 121.866 479.408 123.066C488.608 124.8 493.275 123.2 491.942 118.933C490.875 115.333 483.675 106 481.942 106C481.275 106 480.742 103.2 480.742 99.7331C480.742 96.1331 479.542 91.0665 477.942 87.7331C475.008 81.7331 467.408 74.3998 462.742 73.1998C460.742 72.6665 459.542 70.6665 458.475 65.8665C456.608 57.9998 451.942 49.9998 449.275 49.9998C448.342 49.9998 446.208 52.3998 444.742 55.3331ZM451.942 58.9331C452.875 61.0665 454.208 64.6665 454.742 66.9331L455.675 71.3331H449.542C446.208 71.3331 443.408 71.0665 443.408 70.6665C443.408 69.4665 449.008 55.3331 449.408 55.3331C449.808 55.3331 450.875 56.9331 451.942 58.9331ZM455.408 79.3331C455.408 83.9998 451.675 93.9998 449.942 93.9998C448.342 93.9998 443.408 82.7998 443.408 79.3331C443.408 76.3998 445.142 75.5998 451.142 75.4665C455.008 75.3331 455.408 75.7331 455.408 79.3331ZM466.742 81.1998C471.675 84.9331 475.408 91.9998 475.408 97.3331C475.408 100.266 475.008 100.8 473.142 99.9998C471.808 99.3331 467.408 98.2665 463.408 97.3331C455.275 95.5998 455.275 95.5998 458.342 84.2665C459.275 80.7998 460.608 77.9998 461.275 77.9998C461.942 77.9998 464.475 79.4665 466.742 81.1998ZM439.942 80.9331C440.475 83.0665 443.542 92.7998 444.342 94.9331C444.875 96.1331 443.675 96.6665 441.142 96.6665C438.875 96.6665 435.275 97.3331 432.875 98.1331C430.475 98.9331 428.208 99.3331 427.808 98.9331C426.075 97.1998 429.142 88.2665 433.008 83.9998C437.275 79.0665 439.142 78.2665 439.942 80.9331ZM444.742 102C444.742 104.8 435.142 115.333 432.608 115.333C431.942 115.333 430.342 113.2 429.275 110.533C426.742 104.533 428.075 102.533 435.808 100.8C444.075 99.0665 444.742 99.0665 444.742 102ZM469.275 102.533C471.808 103.6 474.208 105.066 474.608 105.866C475.542 107.333 472.342 114.533 470.208 115.866C468.742 116.8 458.208 109.333 457.142 106.666C455.008 100.933 460.875 99.0665 469.275 102.533ZM458.475 113.2L466.075 120.4L460.742 122.533C453.675 125.333 448.075 125.2 441.142 122L435.408 119.466L441.808 112.8C445.275 109.2 448.742 106.133 449.408 106.133C450.208 106 454.208 109.2 458.475 113.2ZM426.342 118.266C424.742 119.866 412.742 121.2 412.742 119.733C412.742 118.133 418.875 109.866 421.008 108.533C423.008 107.333 428.075 116.533 426.342 118.266ZM486.742 118.666C486.742 119.866 476.875 119.866 475.542 118.666C475.275 118.266 476.075 115.866 477.408 113.2L479.675 108.266L483.275 112.8C485.142 115.2 486.742 117.866 486.742 118.666Z" fill="black"/>
<path d="M86.4 46.266C79.8667 53.9993 78 73.466 82.6667 83.866C84.1333 87.066 85.3333 89.866 85.3333 90.1327C85.3333 90.3993 82.9333 90.666 80.1333 90.666C73.0667 90.666 68.6667 92.5327 60.4 98.9327C53.2 104.399 48 111.599 48 116.133C48 118.133 48.9333 118.666 52.8 118.666C65.3333 118.666 76.2667 113.466 84.9333 103.333L90.2667 97.1993L93.4667 101.866C95.2 104.533 98.8 108.133 101.333 109.999C107.2 113.999 119.6 118.399 124 117.999C125.867 117.866 128.4 117.599 129.867 117.466C133.733 117.199 131.467 109.599 125.6 103.599C118.4 95.9993 110.533 91.9993 102 91.066C95.0667 90.3993 94.5333 89.9993 95.3333 87.466C99.8667 73.1993 100.4 69.9993 98.8 61.9993C97.2 54.3993 91.8667 43.9993 89.4667 43.9993C88.9333 43.9993 87.4667 45.066 86.4 46.266ZM92.9333 54.9327C96.1333 60.9327 96 77.7327 92.9333 83.7327C91.6 86.1327 90 87.7327 89.2 87.3327C84.2667 84.1327 82.1333 64.3993 85.8667 55.466C88.4 49.5993 90 49.466 92.9333 54.9327ZM102.933 94.7993C110.8 96.5327 119.067 101.599 124.667 108.133C127.733 111.866 127.867 112.666 126.133 113.599C123.467 115.066 114.4 112.799 106.667 108.399C100.533 105.066 92.8 96.5327 94.1333 94.5327C94.9333 93.066 94.5333 93.066 102.933 94.7993ZM84.2667 98.266C78 107.066 68.6667 112.799 58.6667 114.133L51.4667 115.066L53.8667 111.199C59.8667 101.866 71.3333 94.7993 80.4 94.666H86.8L84.2667 98.266Z" fill="black"/>
<path d="M261.113 63.0037C257.647 64.2037 253.38 67.2703 250.313 70.8703C240.98 81.2703 240.58 96.4703 249.113 107.67C266.047 129.67 300.713 117.937 300.713 90.337C300.713 77.6703 295.38 69.2703 284.047 63.937C276.447 60.337 269.247 60.0703 261.113 63.0037ZM286.713 70.6037C292.447 75.0037 296.713 83.2703 296.713 90.0703C296.713 96.8703 292.447 105.137 286.713 109.537C277.513 116.47 261.513 115.137 253.78 106.47C250.447 102.87 247.38 94.8703 247.38 90.0703C247.38 84.8703 250.58 77.137 254.447 72.8703C259.113 67.8037 264.58 65.937 273.513 66.4703C280.047 66.737 282.713 67.537 286.713 70.6037Z" fill="black"/>
<path d="M267.647 85.0042C266.714 85.9375 266.047 88.3375 266.047 90.3375C266.047 94.8709 271.514 98.2042 275.114 95.8042C277.914 94.2042 278.847 87.9375 276.58 85.2709C274.714 83.0042 269.78 82.8709 267.647 85.0042Z" fill="black"/>
<path d="M437.667 222.554C422.6 226.687 410.867 236.421 404.6 249.754C401.4 256.421 401 258.954 401 270.687C401 282.554 401.4 284.821 404.6 291.487C409.4 301.221 417.667 309.221 428.333 314.421C436.333 318.421 437.933 318.688 450.333 318.688C462.067 318.554 464.6 318.154 471.133 314.954C482.333 309.487 490.2 301.887 495.267 291.621C499.267 283.487 499.667 281.754 499.667 270.021C499.667 258.821 499.133 256.554 495.933 250.154C490.6 239.621 485.533 233.887 477.4 229.087C464.867 221.487 450.2 219.087 437.667 222.554ZM469.8 230.421C477.667 234.154 484.333 239.621 484.333 242.021C484.333 242.687 482.6 243.354 480.6 243.354C470.733 243.354 456.2 252.287 451.267 261.354C449.933 263.754 449.533 263.621 444.333 257.754C438.2 250.687 427.533 244.954 419.933 244.421C413.267 243.887 413.933 241.487 422.2 235.221C431.4 228.287 438.867 226.021 451.667 226.421C460.2 226.687 463.8 227.487 469.8 230.421ZM487 247.887C487 250.287 476.467 259.887 470.067 263.087C463.533 266.421 457.533 267.621 455.133 266.154C450.733 263.354 462.333 252.554 474.067 248.554C482.467 245.621 487 245.354 487 247.887ZM426.067 250.021C439.267 254.954 449.933 267.354 441 267.354C434.733 267.354 423.667 262.154 417.4 256.021C413.8 252.687 411 249.354 411 248.687C411 246.554 418.467 247.221 426.067 250.021ZM493.8 257.621C500.733 282.554 486.333 306.954 460.467 314.021C457.4 314.821 454.467 315.221 454.2 314.954C453.933 314.687 454.733 311.754 456.2 308.554C460.067 299.754 460.733 290.554 458.333 281.621C455.533 270.687 455.667 270.021 460.733 270.021C467.267 270.021 478.2 263.887 484.6 256.687C487.8 253.221 490.733 250.554 491.133 250.821C491.533 251.087 492.733 254.154 493.8 257.621ZM423.933 265.621C428.2 267.887 434.467 270.154 438.067 270.554C441.533 271.087 444.333 272.021 444.333 272.554C444.333 273.221 443.4 276.021 442.2 278.821C440.733 282.421 440.2 286.687 440.6 293.354C441.133 301.354 442.2 305.087 446.733 314.554C447.667 316.287 437.933 314.154 431.533 311.087C423.8 307.487 414.333 298.954 410.467 292.287C404.333 281.487 403 266.687 407.133 255.754L408.467 252.154L412.333 256.821C414.467 259.487 419.667 263.354 423.933 265.621ZM453.8 279.621C457.933 287.354 453.667 314.821 449.133 309.887C444.733 305.221 442.733 287.887 445.667 280.154C447.267 275.887 451.667 275.621 453.8 279.621Z" fill="black"/>
<path d="M260.533 226.916C246.667 229.716 232.8 240.383 225.733 253.716C222.267 260.249 222 262.116 222 274.916C222 287.316 222.4 289.849 225.6 296.516C237.067 321.049 267.467 331.449 292.667 319.583C302.267 314.916 310.667 306.649 315.6 296.516C318.933 289.716 319.333 287.583 319.333 274.916C319.333 262.116 319.067 260.249 315.6 253.849C304.933 233.583 282.533 222.649 260.533 226.916ZM289.467 235.183C299.067 239.583 306.533 247.049 311.467 257.049C314.8 263.849 315.333 266.383 315.2 275.716C315.2 284.783 314.533 287.716 311.467 294.249C306.667 303.849 298.8 311.583 289.333 316.116C278.667 321.049 262.4 321.049 251.867 316.116C236.933 309.049 226.933 294.649 225.733 278.249C224.133 258.916 236.8 239.983 256 233.049C265.067 229.849 280 230.783 289.467 235.183Z" fill="black"/>
<path d="M265.6 271.182C264.667 272.115 264 273.982 264 275.582C264 279.315 266.533 281.582 270.667 281.582C274.8 281.582 277.333 279.315 277.333 275.582C277.333 271.849 274.8 269.582 270.667 269.582C268.8 269.582 266.533 270.249 265.6 271.182Z" fill="black"/>
<path d="M112.343 241.121C102.61 245.121 97.2768 248.855 93.8101 254.588L91.0101 259.121L84.0768 252.055C76.0768 243.921 65.6768 239.255 55.2768 239.255C47.0101 239.255 46.0768 241.388 51.0101 248.188C58.7435 258.988 70.2101 265.788 80.2101 265.921C86.4768 265.921 86.6101 266.321 83.8101 272.988C82.6101 275.788 81.8101 281.921 81.8101 287.655C81.8101 295.521 82.4768 298.721 85.2768 304.321C89.9435 313.655 92.8768 313.655 97.1435 304.188C101.543 294.988 101.81 280.455 97.8101 272.321C96.3435 269.255 95.1435 266.588 95.1435 266.455C95.1435 266.321 98.2101 265.921 101.943 265.388C111.01 264.188 117.41 260.721 125.01 253.255C131.01 247.121 133.543 242.055 131.81 239.388C130.343 236.988 120.21 237.788 112.343 241.121ZM127.143 243.655C127.143 246.321 116.477 255.921 110.21 259.121C107.143 260.721 102.077 261.921 99.0101 261.921H93.5435L96.2101 257.521C99.2768 252.721 107.943 246.321 115.01 243.788C121.277 241.521 127.143 241.388 127.143 243.655ZM69.0101 246.055C76.6101 248.855 87.9435 259.521 86.3435 262.188C85.1435 263.921 75.4101 262.188 69.1435 258.988C63.5435 256.188 55.8101 249.521 53.6768 245.521C52.6101 243.521 53.0101 243.255 57.0101 243.255C59.6768 243.255 65.0101 244.455 69.0101 246.055ZM94.6101 273.521C98.8768 283.255 95.9435 307.255 90.8768 305.655C88.0768 304.721 85.4101 295.255 85.4101 286.588C85.4101 278.455 88.4768 268.588 91.0101 268.588C91.8101 268.588 93.4101 270.855 94.6101 273.521Z" fill="black"/>
<path d="M257.394 401.599C220.861 411.865 208.728 457.599 235.394 484.265C245.794 494.799 261.928 500.665 275.928 499.065C285.528 497.999 298.994 491.465 306.061 484.265C314.861 475.465 319.128 465.332 319.794 451.732C320.328 438.799 317.794 429.465 310.728 419.732C299.528 404.265 276.194 396.399 257.394 401.599ZM290.061 408.932C298.994 413.332 307.528 422.132 311.794 431.332C316.861 442.265 316.861 457.199 311.794 467.865C307.528 476.932 298.728 485.999 289.794 490.399C284.461 493.065 281.394 493.599 270.728 493.599C260.061 493.599 256.994 493.065 251.661 490.399C243.128 486.265 234.461 477.465 229.928 468.799C226.594 462.532 226.194 459.999 226.061 449.599C226.061 438.932 226.461 436.799 229.928 429.865C234.594 420.665 242.994 412.532 252.461 408.132C262.061 403.732 280.061 404.132 290.061 408.932Z" fill="black"/>
<path d="M257.394 423.598C239.661 432.931 236.194 455.731 250.194 469.865C263.661 483.198 286.728 480.265 295.794 463.998C303.928 449.198 298.594 431.065 283.794 423.465C277.128 420.131 263.794 420.131 257.394 423.598ZM280.461 427.065C289.661 431.731 294.728 439.731 294.728 449.598C294.728 469.731 272.728 480.798 256.328 468.931C253.528 466.931 250.194 463.065 248.994 460.531C246.194 454.798 246.061 443.465 248.594 438.531C254.461 427.331 269.928 421.731 280.461 427.065Z" fill="black"/>
<path d="M266.994 444.4C265.394 445.466 264.061 447.866 264.061 449.466C264.061 456.666 274.328 458 276.728 451.066C277.794 447.866 277.528 446.933 274.861 444.8C271.128 441.733 270.728 441.733 266.994 444.4Z" fill="black"/>
<path d="M85.6624 405.701C82.4624 410.501 79.6624 420.634 79.6624 427.434C79.6624 430.501 79.3957 433.167 79.129 433.167C78.8624 433.167 75.6624 431.701 72.0624 429.967C63.7957 425.834 49.3957 423.967 48.1957 426.901C46.5957 431.034 54.9957 441.301 66.4624 449.301L69.529 451.434L63.929 454.501C58.5957 457.567 52.4624 464.101 49.129 470.367C46.729 474.767 48.9957 476.501 56.729 476.101C63.6624 475.834 68.5957 474.234 75.7957 469.701L80.5957 466.634L81.2624 475.701C82.0624 486.767 86.9957 497.834 90.9957 497.834C94.8624 497.834 99.7957 487.034 100.596 476.767L101.262 468.367L107.529 471.434C115.129 475.167 130.062 477.034 131.662 474.501C132.329 473.567 132.329 471.567 131.796 470.234C130.462 466.367 118.596 454.901 114.196 453.167C109.396 451.034 109.262 449.967 114.196 447.967C122.996 444.234 134.729 429.034 131.262 425.701C128.729 423.301 114.062 425.701 106.862 429.701C103.529 431.567 100.462 433.167 100.196 433.167C99.929 433.167 99.6624 430.634 99.6624 427.434C99.6624 420.101 97.6624 413.167 93.929 407.834C90.0624 402.101 88.329 401.567 85.6624 405.701ZM94.329 417.167C97.129 427.167 94.5957 445.167 90.4624 445.167C89.6624 445.167 87.7957 442.634 86.1957 439.567C83.929 435.034 83.3957 432.367 83.929 425.167C84.329 420.367 85.6624 414.367 86.9957 411.967C89.2624 407.567 89.3957 407.434 91.129 409.834C92.1957 411.301 93.6624 414.501 94.329 417.167ZM126.862 429.034C128.196 431.034 120.596 439.434 113.662 443.701C107.129 447.701 94.329 450.767 94.329 448.367C94.329 445.301 101.662 436.901 107.129 433.701C115.396 428.901 125.396 426.501 126.862 429.034ZM65.529 431.434C71.929 433.167 75.129 435.167 79.929 440.101C83.529 443.567 86.329 447.034 86.329 447.834C86.329 450.101 76.729 449.301 70.729 446.634C64.329 443.701 52.9957 433.701 52.9957 431.034C52.9957 428.634 55.7957 428.634 65.529 431.434ZM85.129 455.434C80.9957 463.167 67.6624 471.701 58.729 472.234C52.0624 472.634 51.929 470.234 58.1957 463.967C65.529 456.634 72.329 453.301 80.0624 453.167C85.6624 453.167 86.329 453.434 85.129 455.434ZM111.929 455.967C117.529 458.767 127.662 468.234 127.662 470.634C127.662 473.967 110.729 470.234 103.929 465.301C101.662 463.834 98.729 460.367 97.129 457.834L94.4624 453.167H100.462C103.929 453.167 108.729 454.367 111.929 455.967ZM95.129 462.634C96.1957 464.767 96.9957 469.567 96.9957 473.567C96.9957 481.167 93.6624 493.167 91.529 493.167C88.729 493.167 84.9957 481.834 84.9957 473.567C84.9957 463.567 88.329 455.034 91.2624 457.434C92.329 458.234 94.0624 460.634 95.129 462.634Z" fill="black"/>
<path d="M444.909 451.909V451.636C444.939 448.742 445.242 446.439 445.818 444.727C446.394 443.015 447.212 441.629 448.273 440.568C449.333 439.508 450.606 438.53 452.091 437.636C452.985 437.091 453.788 436.447 454.5 435.705C455.212 434.947 455.773 434.076 456.182 433.091C456.606 432.106 456.818 431.015 456.818 429.818C456.818 428.333 456.47 427.045 455.773 425.955C455.076 424.864 454.144 424.023 452.977 423.432C451.811 422.841 450.515 422.545 449.091 422.545C447.848 422.545 446.652 422.803 445.5 423.318C444.348 423.833 443.386 424.644 442.614 425.75C441.841 426.856 441.394 428.303 441.273 430.091H435.545C435.667 427.515 436.333 425.311 437.545 423.477C438.773 421.644 440.386 420.242 442.386 419.273C444.402 418.303 446.636 417.818 449.091 417.818C451.758 417.818 454.076 418.348 456.045 419.409C458.03 420.47 459.561 421.924 460.636 423.773C461.727 425.621 462.273 427.727 462.273 430.091C462.273 431.758 462.015 433.265 461.5 434.614C461 435.962 460.273 437.167 459.318 438.227C458.379 439.288 457.242 440.227 455.909 441.045C454.576 441.879 453.508 442.758 452.705 443.682C451.902 444.591 451.318 445.674 450.955 446.932C450.591 448.189 450.394 449.758 450.364 451.636V451.909H444.909ZM447.818 465.364C446.697 465.364 445.735 464.962 444.932 464.159C444.129 463.356 443.727 462.394 443.727 461.273C443.727 460.152 444.129 459.189 444.932 458.386C445.735 457.583 446.697 457.182 447.818 457.182C448.939 457.182 449.902 457.583 450.705 458.386C451.508 459.189 451.909 460.152 451.909 461.273C451.909 462.015 451.72 462.697 451.341 463.318C450.977 463.939 450.485 464.439 449.864 464.818C449.258 465.182 448.576 465.364 447.818 465.364Z" fill="black"/>
</svg>
