<svg width="180" height="180" viewBox="0 0 180 180" fill="none" xmlns="http://www.w3.org/2000/svg">
<rect x="0.1" y="0.1" width="179.8" height="179.8" fill="white" stroke="#CBCBCB" stroke-width="0.2"/>
<path d="M86.2667 46.4452C82.8 51.5119 80 61.7785 80 68.5785C80 72.3119 79.7333 75.2452 79.4667 75.2452C79.2 75.2452 75.7333 73.6452 71.7333 71.6452C63.2 67.2452 49.8667 65.7785 48.5333 68.9785C46.9333 73.3785 57.6 86.3119 66.1333 90.1785C70.4 92.1785 70.2667 92.8452 64.5333 95.9119C58.2667 99.2452 48 110.979 48 114.845C48 117.645 48.5333 117.912 55.7333 117.912C61.6 117.912 65.3333 116.845 72.2667 113.512L81.0667 109.245L81.6 117.912C82.1333 127.645 87.2 139.645 91.0667 140.312C94.2667 140.979 99.7333 128.712 100.8 118.179L101.733 110.045L108.267 113.512C115.6 117.379 130.933 119.379 132.533 116.712C134.933 112.845 121.467 97.1119 113.6 94.7119C109.6 93.3785 109.867 92.3119 115.067 89.3785C124.667 83.9119 134.133 72.1785 132.533 67.9119C131.733 66.0452 130.533 65.7785 124.8 66.4452C116 67.6452 109.6 69.6452 105.067 72.7119C100.4 76.1785 100 75.9119 100 70.4452C100 60.5785 94.4 45.7785 90 44.0452C89.0667 43.7785 87.3333 44.7119 86.2667 46.4452ZM92.8 54.0452C96.1333 60.5785 96.6667 76.1785 93.7333 81.9119C92.4 84.4452 90.8 86.4452 90 86.4452C87.2 86.0452 84 77.1119 84 69.7785C84 62.1785 87.3333 49.9119 89.4667 49.9119C90.1333 49.9119 91.6 51.7785 92.8 54.0452ZM128 71.2452C128 73.9119 118.667 82.8452 112.267 86.3119C104.667 90.4452 94.6667 92.4452 94.6667 89.9119C94.6667 83.9119 108.4 73.3785 118.8 71.3785C126.933 69.7785 128 69.7785 128 71.2452ZM70 75.1119C77.3333 78.5785 85.3333 85.6452 85.3333 88.7119C85.3333 90.5785 75.4667 90.1785 70.1333 87.9119C64.9333 85.6452 55.3333 77.6452 53.2 73.6452C52 71.5119 52.5333 71.2452 56.9333 71.2452C59.7333 71.2452 65.6 72.9785 70 75.1119ZM83.6 94.9785L86.6667 95.9119L83.2 100.312C78.6667 106.045 71.7333 110.312 62.2667 113.379C52.1333 116.579 50.4 114.845 56.6667 107.645C61.7333 101.779 68.4 96.9785 74.4 95.2452C78.6667 93.9119 79.7333 93.9119 83.6 94.9785ZM110 97.1119C116.8 100.312 128 110.045 128 112.712C128 115.512 114.933 112.845 107.333 108.579C101.467 105.245 94.6667 97.6452 94.6667 94.4452C94.6667 92.7119 104.267 94.3119 110 97.1119ZM94.5333 103.645C96.1333 106.845 97.3333 111.779 97.3333 114.712C97.3333 120.845 93.8667 133.379 92 134.579C89.6 136.045 85.3333 123.912 85.2 115.645C85.0667 107.912 88 97.9119 90.5333 97.9119C91.2 97.9119 93.0667 100.445 94.5333 103.645Z" fill="black"/>
</svg>
