<svg width="180" height="180" viewBox="0 0 180 180" fill="none" xmlns="http://www.w3.org/2000/svg">
<rect x="0.1" y="0.1" width="179.8" height="179.8" fill="white" stroke="#CBCBCB" stroke-width="0.2"/>
<path d="M87.8803 34.5385C85.2137 36.8051 81.8803 44.6718 80.2803 52.4051C79.8803 54.5385 77.4803 57.2051 74.2803 59.3385C68.2803 63.3385 62.147 74.4051 62.147 81.3385C62.147 84.6718 61.0803 86.6718 58.147 89.2051C53.347 93.2051 46.947 103.605 48.147 105.605C49.347 107.472 57.8803 107.338 65.0803 105.205C70.6803 103.472 71.2137 103.472 74.6803 106.538C78.147 109.472 78.2803 110.005 76.8137 113.738C74.547 119.072 67.347 123.872 58.547 125.738C54.2803 126.672 51.4803 128.138 51.4803 129.205C51.4803 131.738 130.28 131.205 131.214 128.672C131.747 126.805 131.747 126.805 121.614 124.405C113.747 122.538 108.147 118.805 105.48 113.605C103.614 109.872 103.614 109.738 107.88 107.205C111.347 105.072 113.48 104.805 119.347 105.605C127.214 106.538 132.814 106.005 132.814 104.005C132.814 101.605 128.947 95.4718 124.947 91.7385C121.614 88.5385 120.814 86.6718 120.814 82.4051C120.814 79.3385 119.347 73.8718 117.614 70.1385C114.414 63.0718 110.28 59.0718 103.747 56.4051C100.68 55.0718 99.6137 53.6051 98.947 49.8718C98.2803 45.3385 94.0137 35.8718 91.6137 33.2051C91.0803 32.6718 89.347 33.2051 87.8803 34.5385ZM94.147 46.9385C95.0803 49.8718 95.6137 52.5385 95.347 52.8051C95.0803 53.0718 92.4137 53.6051 89.4803 53.7385C83.347 54.2718 83.2137 53.4718 87.0803 43.0718C88.947 38.0051 89.4803 37.4718 90.8137 39.3385C91.6137 40.5385 93.0803 43.8718 94.147 46.9385ZM95.2137 62.2718C95.6137 66.6718 92.147 76.2718 90.147 76.2718C88.4137 76.2718 85.2137 69.8718 84.147 64.0051C83.2137 58.8051 84.547 57.6051 91.4803 58.0051C94.147 58.2718 94.947 59.0718 95.2137 62.2718ZM105.614 62.8051C110.28 65.7385 117.614 78.9385 116.28 82.2718C115.614 84.1385 115.08 84.1385 111.48 82.2718C109.347 81.2051 104.814 79.8718 101.48 79.3385C94.8137 78.5385 94.6803 78.1385 97.4803 71.3385C98.547 68.8051 99.4803 65.2051 99.4803 63.4718C99.4803 59.6051 100.28 59.4718 105.614 62.8051ZM80.8137 66.0051C80.947 67.6051 81.747 70.4051 82.8137 72.2718C85.747 77.3385 85.2137 78.9385 80.8137 78.9385C78.547 78.9385 74.6803 79.8718 72.147 80.8051C67.6137 82.8051 67.4803 82.8051 67.4803 79.4718C67.4803 72.6718 76.2803 60.2718 79.747 62.4051C80.2803 62.8051 80.8137 64.4051 80.8137 66.0051ZM84.8137 85.2051C84.8137 87.8718 75.747 97.6051 73.0803 97.6051C71.6137 97.6051 67.4803 90.2718 67.4803 87.6051C67.4803 86.1385 76.147 83.0718 80.547 82.9385C83.747 82.9385 84.8137 83.4718 84.8137 85.2051ZM109.88 85.6051C112.947 86.9385 115.48 88.5385 115.48 88.9385C115.48 91.4718 110.947 98.9385 109.48 98.9385C108.547 98.9385 105.214 96.6718 102.147 93.8718C97.6137 89.8718 96.6803 88.2718 97.347 85.8718C98.547 82.2718 102.147 82.1385 109.88 85.6051ZM99.4803 96.5385L106.547 102.672L102.414 104.805C96.6803 107.738 85.2137 107.605 80.0137 104.405L75.747 101.872L82.0137 95.3385C86.0137 90.9385 88.8137 88.9385 90.2803 89.4718C91.4803 89.8718 95.4803 93.0718 99.4803 96.5385ZM65.6137 96.0051C67.347 100.138 67.2137 100.405 64.4137 101.472C59.6137 103.338 53.747 103.738 53.2137 102.272C52.6803 100.405 60.8137 90.6718 62.4137 91.2051C63.2137 91.4718 64.547 93.6051 65.6137 96.0051ZM127.48 101.205C127.48 103.205 119.88 103.605 117.08 101.738C115.48 100.805 115.614 99.8718 117.48 96.2718L119.747 92.0051L123.614 95.7385C125.747 97.7385 127.48 100.272 127.48 101.205ZM100.947 115.338C101.747 117.338 104.28 120.405 106.28 122.272C108.414 124.005 110.147 125.738 110.147 126.138C110.147 126.538 101.347 126.938 90.547 126.938H71.0803L75.8803 122.272C78.547 119.605 81.0803 116.138 81.4803 114.538C82.147 111.872 83.0803 111.605 90.8137 111.605C98.947 111.605 99.4803 111.872 100.947 115.338Z" fill="black"/>
</svg>
