<svg width="180" height="180" viewBox="0 0 180 180" fill="none" xmlns="http://www.w3.org/2000/svg">
<rect x="0.1" y="0.1" width="179.8" height="179.8" fill="white" stroke="#CBCBCB" stroke-width="0.2"/>
<path d="M75.4 42.4643C61.5333 46.9977 50.7333 56.5977 44.4667 69.7977C41.4 76.331 41 78.9977 41 90.5977C41 101.531 41.5333 105.131 43.9333 110.331C48.0667 119.131 59.2667 130.598 68.2 134.864C75 138.198 77 138.598 90.3333 138.598C104.067 138.598 105.4 138.331 112.333 134.598C122.2 129.131 130.467 120.731 134.733 111.531C137.667 105.398 138.333 101.531 138.733 91.6643C139.267 80.0643 139 78.731 135 70.331C129.8 59.131 122.067 50.9977 111.667 45.6643C105 42.1977 101.8 41.531 92.3333 41.131C85 40.731 79 41.2643 75.4 42.4643ZM80.8667 50.8643C79.9333 53.6643 79.1333 57.531 79 59.531C79 62.0643 77.8 63.6643 74.6 65.531C70.8667 67.7977 69.8 67.931 66.3333 66.4643C64.0667 65.531 60.3333 64.731 58.0667 64.5977C55.6667 64.5977 53.6667 64.0643 53.6667 63.3977C53.6667 59.531 74.4667 45.931 80.4667 45.931C82.4667 45.931 82.4667 46.4643 80.8667 50.8643ZM92.2 53.7977C94.6 61.131 94.2 61.931 88.3333 61.931C83.5333 61.931 83 61.6643 83 58.5977C83 56.731 83.9333 52.9977 85 50.331C86.7333 46.1977 87.2667 45.6643 88.8667 47.3977C89.8 48.4643 91.2667 51.2643 92.2 53.7977ZM107.8 49.131C114.333 52.1977 124.333 59.7977 124.333 61.7977C124.333 62.331 120.467 63.531 115.8 64.331C103.933 66.5977 98.8667 64.4643 96.7333 56.331C95.9333 53.131 94.7333 49.531 94.3333 48.1977C93 44.8643 99.4 45.2643 107.8 49.131ZM93.8 71.2643C93.4 76.4643 90.2 83.2643 88.4667 83.2643C87 83.2643 81.6667 72.5977 81.6667 69.7977C81.6667 66.4643 83.1333 65.7977 89 66.1977C94.2 66.5977 94.3333 66.731 93.8 71.2643ZM125.667 67.7977C125.667 70.0643 118.467 77.931 116.467 77.931C115.667 77.931 115 77.131 115 76.0643C115 75.131 114.067 73.531 113 72.5977C109.8 69.931 110.6 68.8643 116.733 67.531C124.733 65.6643 125.667 65.6643 125.667 67.7977ZM61.1333 68.731C64.3333 69.531 67 70.5977 67 70.8643C67 71.3977 63.6667 77.6643 61.9333 80.4643C61.2667 81.531 51 70.731 51 68.9977C51 66.8643 53.4 66.8643 61.1333 68.731ZM101.267 69.531C101.533 70.331 100.867 71.2643 99.6667 71.6643C98.3333 72.331 97.6667 71.6643 97.6667 69.7977C97.6667 66.9977 100.467 66.8643 101.267 69.531ZM79 70.4643C79 71.931 76.4667 72.4643 75.6667 71.2643C75.2667 70.5977 75.8 69.931 76.8667 69.931C78.0667 69.931 79 70.1977 79 70.4643ZM133.267 78.331C135.533 86.0643 135.4 96.1977 132.867 103.798L130.733 110.064L128.067 105.664C126.6 103.264 123.933 100.064 122.2 98.5977C119.8 96.4643 119 94.4643 118.733 88.8643C118.6 82.331 118.867 81.531 123.4 76.9977C126.067 74.4643 128.333 71.6643 128.333 70.8643C128.333 67.7977 131.667 72.731 133.267 78.331ZM60.3333 89.131C60.3333 92.1977 58.7333 94.8643 54.2 99.531C50.8667 103.131 47.9333 105.931 47.6667 105.931C47.5333 105.931 46.6 102.864 45.6667 99.131C44.0667 92.4643 44.6 82.1977 47 75.931C48.2 72.8643 48.2 72.8643 54.2 78.8643C58.8667 83.531 60.3333 85.931 60.3333 89.131ZM110.067 76.4643C113 81.531 113 81.531 108.6 83.7977C103.133 86.5977 95.5333 87.7977 94.3333 85.931C92.6 83.131 101.4 72.731 105.667 72.5977C106.867 72.5977 108.733 74.331 110.067 76.4643ZM77.1333 76.331C78.7333 77.6643 81 80.731 82.2 82.9977L84.4667 87.2643H79.9333C73.6667 87.2643 67 84.731 67 82.4643C67 79.6643 71 73.931 72.8667 73.931C73.6667 74.0643 75.6667 75.131 77.1333 76.331ZM114.067 88.5977C114.733 91.3977 113.933 91.7977 110.467 90.4643C108.733 89.7977 108.6 89.2643 109.8 87.7977C111.933 85.2643 113.267 85.531 114.067 88.5977ZM67.6667 88.5977C68.0667 89.2643 67.8 89.931 67.1333 89.931C66.3333 89.931 65.6667 89.2643 65.6667 88.5977C65.6667 87.7977 65.9333 87.2643 66.2 87.2643C66.6 87.2643 67.2667 87.7977 67.6667 88.5977ZM108.333 93.7977C113.4 96.0643 113.8 98.5977 110.2 104.331L108.2 107.264L102.467 103.398C96.2 98.9977 94.4667 96.331 95.6667 92.4643C96.6 89.531 100.333 89.931 108.333 93.7977ZM84.3333 92.0643C84.3333 93.7977 78.6 100.731 75 103.264L71.1333 106.064L69.1333 102.998C65.9333 97.7977 66.0667 94.8643 69.6667 92.9977C73 91.2643 84.3333 90.5977 84.3333 92.0643ZM92.8667 100.864C95.9333 106.464 95.2667 114.331 91.9333 114.998C90.6 115.264 88.0667 115.131 86.2 114.731C82.6 113.798 82.0667 110.064 84.4667 101.531C86.2 95.2643 89.6667 94.9977 92.8667 100.864ZM63.6667 102.731C64.7333 105.398 65.6667 107.798 65.6667 107.931C65.6667 108.198 63.8 108.998 61.5333 109.798C56.2 111.664 51 111.664 51 109.931C51 108.731 60.0667 97.931 61.1333 97.931C61.4 97.931 62.6 100.064 63.6667 102.731ZM122.333 104.198C127.133 109.531 126.733 111.264 120.733 110.464C112.333 109.264 112.2 109.131 114.733 104.598C115.933 102.464 117.4 100.598 117.933 100.598C118.467 100.598 120.467 102.198 122.333 104.198ZM79 109.264C79 112.198 78.7333 112.464 76.4667 110.998C74.4667 109.798 74.2 108.998 75.2667 107.664C77.4 104.998 79 105.664 79 109.264ZM104.333 109.798C104.333 110.864 101.267 112.598 99.5333 112.598C99.2667 112.598 99 111.131 99 109.264C99 106.198 99.2667 106.064 101.667 107.264C103.133 108.064 104.333 109.264 104.333 109.798ZM74.8667 114.864C78.0667 116.864 80.3333 119.398 80.3333 120.864C80.3333 122.331 81.5333 125.931 83 128.864C84.4667 131.931 85.4 134.731 85 134.998C83.8 136.331 73 132.331 65.9333 128.198C62.0667 125.798 57.4 122.064 55.6667 119.798L52.4667 115.531L60.0667 113.531C64.2 112.464 68.0667 111.531 68.6 111.398C69 111.398 71.9333 112.864 74.8667 114.864ZM121.8 113.931C124.733 113.931 127 114.464 127 115.264C127 117.798 116.467 127.131 109.8 130.464C106.2 132.331 100.733 134.331 97.6667 134.731L92.0667 135.664L94.4667 131.131C95.6667 128.598 97.1333 124.864 97.5333 122.731C98.6 117.664 107.267 112.331 112.867 113.264C115 113.664 119 113.931 121.8 113.931ZM94.2 121.531C90.7333 132.464 89.5333 133.398 86.3333 127.264C83 120.864 83.6667 119.264 89.6667 119.264C94.0667 119.264 94.7333 119.664 94.2 121.531Z" fill="black"/>
</svg>
