<svg width="180" height="180" viewBox="0 0 180 180" fill="none" xmlns="http://www.w3.org/2000/svg">
<rect x="0.1" y="0.1" width="179.8" height="179.8" fill="white" stroke="#CBCBCB" stroke-width="0.2"/>
<path d="M74 42.5216C53.3333 49.3216 40 67.9882 40 89.8549C40 101.188 43.0667 110.255 49.8667 119.455C56.6667 128.788 65.2 134.522 77.4667 137.722C84.8 139.722 87.7333 139.855 95.3333 138.655C135.867 132.388 152.933 88.1216 127.067 56.2549C124.133 52.5216 119.333 49.0549 112.533 45.7216C99.8667 39.4549 86.6667 38.2549 74 42.5216ZM85.3333 45.5882C85.3333 45.8549 84.2667 48.1216 83.0667 50.6549C79.7333 57.0549 79.2 71.3216 81.8667 77.7216C84.4 83.8549 83.8667 84.7882 79.3333 82.7882C73.7333 80.2549 57.4667 80.9216 50.8 83.8549C47.6 85.3216 44.6667 86.3882 44.5333 86.1216C44.2667 85.8549 44.8 82.6549 45.7333 78.9216C49.4667 64.7882 59.7333 52.9216 72.9333 47.8549C78.6667 45.5882 85.3333 44.3882 85.3333 45.5882ZM109.2 49.3216C119.333 54.3882 126 61.0549 130.133 69.8549C134 78.2549 135.333 83.8549 133.6 83.8549C132.933 83.8549 130.133 82.9216 127.6 81.8549C120.533 78.9216 106.4 79.3216 100 82.5216C97.0667 83.9882 94.6667 85.0549 94.6667 84.6549C94.6667 84.3882 95.6 81.9882 96.6667 79.4549C99.4667 72.5216 99.2 59.1882 96 51.9882C94.5333 48.7882 93.3333 45.9882 93.3333 45.7216C93.3333 43.8549 102.267 45.8549 109.2 49.3216ZM92.5333 53.1882C96.6667 63.5882 93.7333 86.7882 88.9333 82.6549C84 78.6549 82.6667 60.9216 86.4 51.4549C88.5333 46.5216 90 46.9216 92.5333 53.1882ZM127.733 85.9882C130.133 86.9216 131.867 88.3882 131.467 89.0549C130.133 91.1882 118.4 94.5216 111.867 94.5216C105.6 94.5216 96 91.4549 96 89.3216C96 88.2549 103.867 84.5216 108.667 83.3216C112.533 82.3882 122.667 83.8549 127.733 85.9882ZM77.3333 85.7216C87.6 89.4549 80.6667 95.1882 66 95.0549C57.7333 95.0549 48 92.5216 48 90.5216C48 89.8549 49.3333 88.5216 51.0667 87.7216C58.1333 83.8549 69.7333 83.0549 77.3333 85.7216ZM133.2 100.922C127.867 117.588 114.533 130.388 99.0667 133.855C94 134.922 94 135.055 96.6667 128.788C99.3333 122.388 99.3333 104.522 96.6667 99.3216C93.6 93.4549 94.2667 92.9216 100.267 95.9882C107.067 99.4549 118.8 99.0549 128 94.9216C134.933 91.8549 135.867 92.9216 133.2 100.922ZM51.6 96.5216C57.7333 99.0549 75.4667 99.0549 80 96.5216C85.0667 93.5882 85.4667 94.1216 83.4667 99.4549C79.4667 110.122 80 121.322 84.9333 131.055L86.9333 134.922L81.3333 133.988C64.9333 131.455 49.0667 116.388 45.6 100.122C44.1333 93.8549 44.5333 93.5882 51.6 96.5216ZM94.5333 103.722C95.3333 106.255 96 110.388 96 113.188C96 119.322 92.4 131.855 90.5333 131.855C88.4 131.855 85.2 122.788 84.6667 114.788C84 105.455 88.2667 94.1216 91.2 97.3216C92.1333 98.3882 93.6 101.188 94.5333 103.722Z" fill="black"/>
</svg>
