<svg width="180" height="180" viewBox="0 0 180 180" fill="none" xmlns="http://www.w3.org/2000/svg">
<rect x="0.1" y="0.1" width="179.8" height="179.8" fill="white" stroke="#CBCBCB" stroke-width="0.2"/>
<path d="M74.2 43.9794C60.6 49.7127 52.4667 57.4461 46.4667 70.2461C43.4 76.6461 43 79.3127 43 90.9127C43 102.779 43.4 105.046 46.7333 111.713C51 120.513 62.6 131.979 70.8667 135.713C74.0667 137.046 80.4667 138.779 85.1333 139.446C111.533 143.046 135.667 125.446 141.133 98.5127C145.4 77.9794 133.133 54.3794 113.267 45.1794C102.2 40.1127 84.7333 39.5794 74.2 43.9794ZM103.933 46.7794C107.4 47.8461 111.533 49.4461 113.267 50.3794C117.4 52.5127 126.333 59.5794 126.333 60.6461C126.333 61.1794 122.733 62.6461 118.2 63.9794C105.667 67.7127 100.333 71.5794 92.0667 83.4461C91.8 83.8461 89.5333 81.4461 86.8667 78.3794C80.8667 71.4461 68.3333 64.9127 61 64.9127C58.0667 64.9127 55.6667 64.3794 55.6667 63.7127C55.6667 61.8461 65.8 53.1794 71.5333 50.2461C82.0667 44.9127 93.5333 43.7127 103.933 46.7794ZM129 67.0461C129 69.7127 119 79.4461 113.267 82.6461C106.2 86.5127 97 87.9794 96.0667 85.4461C95 82.3794 105.667 72.7794 113.667 69.5794C121.267 66.5127 129 65.1794 129 67.0461ZM72.6 72.5127C79.6667 75.8461 88.2 84.2461 86.7333 86.6461C85.4 88.9127 72.8667 86.5127 67.5333 83.0461C60.4667 78.2461 52.7333 70.3794 53.8 68.7794C55 66.7794 64.4667 68.6461 72.6 72.5127ZM136.733 87.5794C137.667 103.979 131 117.446 117.267 127.179C111 131.713 97.6667 136.779 96.2 135.179C95.6667 134.779 96.4667 132.113 97.6667 129.313C101.133 122.113 101.933 105.713 99.1333 99.0461C96.4667 92.7794 97.6667 90.9127 104.867 89.8461C111.4 89.0461 123.533 81.3127 128.467 74.9127L132.2 69.9794L134.2 73.8461C135.267 75.8461 136.333 82.1127 136.733 87.5794ZM69.5333 88.3794C73.2667 90.1127 78.6 91.5794 81.5333 91.5794C86.2 91.5794 86.6 91.8461 85.6667 94.5127C80.7333 110.513 80.8667 119.979 86.3333 130.513L89.1333 135.846L84.0667 135.046C77 133.713 66.4667 128.379 61.2667 123.446C48.3333 111.313 43.1333 91.4461 49 76.2461L50.3333 72.9127L56.6 79.0461C60.0667 82.5127 65.9333 86.6461 69.5333 88.3794ZM96.6 104.246C99 113.579 95.2667 132.513 91.4 131.313C87.1333 129.846 84.3333 107.979 87.4 100.513C88.6 97.7127 89.8 96.7794 92.0667 97.1794C94.3333 97.4461 95.4 98.9127 96.6 104.246Z" fill="black"/>
</svg>
