<svg width="180" height="180" viewBox="0 0 180 180" fill="none" xmlns="http://www.w3.org/2000/svg">
<rect x="0.1" y="0.1" width="179.8" height="179.8" fill="white" stroke="#CBCBCB" stroke-width="0.2"/>
<path d="M77.5282 41.5873C64.3282 45.3206 53.2615 53.1873 47.5282 62.9206C34.0615 85.9873 38.9949 113.054 59.6615 128.787C81.2615 145.454 114.462 140.787 129.928 118.921C136.995 108.921 139.128 101.854 138.995 89.054C138.862 79.5873 138.195 76.5206 134.995 69.454C124.728 47.5873 99.7949 35.454 77.5282 41.5873ZM84.1949 45.854C84.1949 46.254 83.5282 47.7206 82.7282 49.1873C81.9282 50.7873 80.5949 55.9873 79.6615 60.7873L78.0615 69.7206L72.7282 61.7206C69.7949 57.3206 66.8615 53.054 66.4615 52.1206C65.7949 51.1873 67.9282 49.5873 72.4615 47.854C79.5282 45.1873 84.1949 44.3873 84.1949 45.854ZM104.595 47.1873C108.062 48.3873 110.862 49.854 110.862 50.3873C110.862 51.054 108.328 55.5873 105.262 60.5206L99.5282 69.3206L98.0615 61.5873C97.2615 57.1873 95.6615 51.7206 94.3282 49.3206C92.1949 45.054 92.1949 45.054 95.2615 45.054C96.9949 45.054 101.128 45.9873 104.595 47.1873ZM91.6615 51.9873C95.1282 58.654 95.6615 71.5873 92.7282 79.5873C91.3949 83.3206 89.7949 86.3873 89.2615 86.3873C86.7282 86.3873 82.8615 74.9206 82.8615 67.5873C82.8615 59.9873 86.1949 47.7206 88.3282 47.7206C88.9949 47.7206 90.4615 49.5873 91.6615 51.9873ZM123.395 59.7206C129.395 66.5206 134.862 78.254 134.862 84.3873V87.5873L114.595 87.9873C103.395 88.254 94.0615 88.254 93.7949 88.1206C92.0615 87.3206 113.528 53.054 115.662 53.054C116.595 53.054 120.062 56.1206 123.395 59.7206ZM73.2615 69.054C78.5949 77.1873 83.2615 84.654 83.6615 85.5873C84.5949 87.9873 77.5282 89.054 58.9949 89.054H43.7949L44.7282 82.9206C45.1282 79.5873 46.5949 74.254 48.0615 71.054C50.7282 64.9206 59.5282 54.3873 62.0615 54.3873C62.8615 54.3873 67.9282 61.054 73.2615 69.054ZM134.462 97.054C134.062 100.654 132.995 104.921 132.195 106.521C130.595 109.321 130.595 109.187 127.528 104.787C125.795 102.254 121.928 98.5206 118.862 96.3873C114.062 93.054 113.662 92.3873 115.795 91.5873C117.128 91.054 122.062 90.5206 126.728 90.5206L135.262 90.3873L134.462 97.054ZM63.5282 93.454C62.0615 94.3873 58.0615 97.854 54.5949 101.321C48.8615 107.054 48.1949 107.454 46.9949 105.187C46.1949 103.854 45.2615 100.254 44.7282 97.1873L43.7949 91.7206L54.9949 91.854C64.3282 91.854 65.7949 92.1206 63.5282 93.454ZM85.5282 92.7873C85.5282 93.454 83.3949 96.3873 80.8615 99.454C75.1282 106.121 63.7949 111.721 56.0615 111.721H50.4615L53.7949 107.454C58.5949 101.321 65.6615 95.854 71.6615 93.7206C77.3949 91.5873 85.5282 91.1873 85.5282 92.7873ZM108.862 94.9206C115.662 98.1206 126.862 107.854 126.862 110.521C126.862 113.454 113.795 110.654 106.062 106.387C99.7949 102.654 92.1949 95.1873 92.1949 92.654C92.1949 90.5206 102.728 91.9873 108.862 94.9206ZM104.995 116.654C109.128 122.654 112.062 128.254 111.528 128.921C110.195 131.187 97.5282 134.387 90.1949 134.387C83.6615 134.387 72.1949 131.721 68.4615 129.321C67.1282 128.387 68.3282 125.454 73.7949 116.921C77.6615 110.787 82.7282 103.454 84.8615 100.654L88.8615 95.7206L93.2615 100.654C95.6615 103.454 100.995 110.654 104.995 116.654ZM68.8615 117.987C63.6615 127.054 63.6615 127.054 58.3282 122.387C52.5949 117.321 52.3282 115.721 57.2615 115.587C59.2615 115.587 62.9949 114.654 65.5282 113.721C72.5949 111.054 72.7282 111.187 68.8615 117.987ZM124.062 115.721C127.262 115.721 127.262 115.854 122.195 121.054C119.395 123.987 116.595 126.387 116.195 126.387C115.528 126.387 106.862 113.587 106.862 112.654C106.862 112.387 109.928 112.921 113.795 113.854C117.662 114.921 122.328 115.721 124.062 115.721Z" fill="black"/>
</svg>
