<svg width="540" height="540" viewBox="0 0 540 540" fill="none" xmlns="http://www.w3.org/2000/svg">
<g clip-path="url(#clip0_109_4160)">
<rect width="540" height="540" fill="white"/>
<rect x="0.1" y="0.1" width="179.8" height="179.8" fill="white" stroke="#CBCBCB" stroke-width="0.2"/>
<rect x="180.1" y="0.1" width="179.8" height="179.8" fill="white" stroke="#CBCBCB" stroke-width="0.2"/>
<rect x="360.1" y="0.1" width="179.8" height="179.8" fill="white" stroke="#CBCBCB" stroke-width="0.2"/>
<rect x="0.1" y="180.1" width="179.8" height="179.8" fill="white" stroke="#CBCBCB" stroke-width="0.2"/>
<rect x="180.1" y="180.1" width="179.8" height="179.8" fill="white" stroke="#CBCBCB" stroke-width="0.2"/>
<rect x="360.1" y="180.1" width="179.8" height="179.8" fill="white" stroke="#CBCBCB" stroke-width="0.2"/>
<rect x="0.1" y="360.1" width="179.8" height="179.8" fill="white" stroke="#CBCBCB" stroke-width="0.2"/>
<rect x="180.1" y="360.1" width="179.8" height="179.8" fill="white" stroke="#CBCBCB" stroke-width="0.2"/>
<rect x="360.1" y="360.1" width="179.8" height="179.8" fill="white" stroke="#CBCBCB" stroke-width="0.2"/>
<path d="M444.909 459.909V459.636C444.939 456.742 445.242 454.439 445.818 452.727C446.394 451.015 447.212 449.629 448.273 448.568C449.333 447.508 450.606 446.53 452.091 445.636C452.985 445.091 453.788 444.447 454.5 443.705C455.212 442.947 455.773 442.076 456.182 441.091C456.606 440.106 456.818 439.015 456.818 437.818C456.818 436.333 456.47 435.045 455.773 433.955C455.076 432.864 454.144 432.023 452.977 431.432C451.811 430.841 450.515 430.545 449.091 430.545C447.848 430.545 446.652 430.803 445.5 431.318C444.348 431.833 443.386 432.644 442.614 433.75C441.841 434.856 441.394 436.303 441.273 438.091H435.545C435.667 435.515 436.333 433.311 437.545 431.477C438.773 429.644 440.386 428.242 442.386 427.273C444.402 426.303 446.636 425.818 449.091 425.818C451.758 425.818 454.076 426.348 456.045 427.409C458.03 428.47 459.561 429.924 460.636 431.773C461.727 433.621 462.273 435.727 462.273 438.091C462.273 439.758 462.015 441.265 461.5 442.614C461 443.962 460.273 445.167 459.318 446.227C458.379 447.288 457.242 448.227 455.909 449.045C454.576 449.879 453.508 450.758 452.705 451.682C451.902 452.591 451.318 453.674 450.955 454.932C450.591 456.189 450.394 457.758 450.364 459.636V459.909H444.909ZM447.818 473.364C446.697 473.364 445.735 472.962 444.932 472.159C444.129 471.356 443.727 470.394 443.727 469.273C443.727 468.152 444.129 467.189 444.932 466.386C445.735 465.583 446.697 465.182 447.818 465.182C448.939 465.182 449.902 465.583 450.705 466.386C451.508 467.189 451.909 468.152 451.909 469.273C451.909 470.015 451.72 470.697 451.341 471.318C450.977 471.939 450.485 472.439 449.864 472.818C449.258 473.182 448.576 473.364 447.818 473.364Z" fill="black"/>
<path d="M261.732 393.467L254.398 400.8L254.532 410.4C254.532 418.4 255.465 422.267 259.998 433.334C262.932 440.667 265.198 446.934 264.932 447.2C264.665 447.467 259.732 444.134 253.998 439.734C235.332 425.2 222.665 421.2 214.932 427.2C213.198 428.534 209.732 430.667 207.465 431.867C203.198 434 201.598 438.267 204.398 440C205.065 440.4 206.798 443.467 208.265 446.667C209.865 450.134 212.665 453.6 215.198 455.2C220.932 458.667 235.465 459.867 249.598 458.134C255.865 457.334 261.065 456.934 261.332 457.2C261.732 457.467 257.198 461.334 251.465 465.734C232.798 479.867 227.865 488.534 231.865 500C232.798 502.934 233.732 506.667 233.732 508.134C233.732 512.267 236.798 514.4 240.532 512.8C242.265 512.134 245.998 511.2 248.665 510.667C259.465 508.934 265.998 498.134 268.532 477.467C269.198 471.467 270.532 464.4 271.198 461.467L272.665 456.267L283.465 457.467C289.465 458.134 300.798 458.667 308.665 458.667C322.532 458.667 322.932 458.534 326.932 454.8C329.198 452.667 331.465 449.6 331.865 448.134C332.398 446.534 333.865 443.867 335.198 442.134C336.665 440.4 337.732 438.267 337.732 437.467C337.732 434.934 322.932 425.734 317.865 425.067C311.332 424.267 300.932 429.067 287.332 439.334C281.332 444 275.998 447.334 275.598 447.067C275.332 446.667 277.065 441.867 279.465 436.4C286.932 420 289.198 406.934 285.598 400.4C283.465 396.667 271.998 386 270.265 386C269.598 386.134 265.732 389.467 261.732 393.467Z" fill="black"/>
<path d="M107.945 392.271C104.479 395.738 101.012 400.005 100.079 401.605C97.6787 406.405 99.5454 418.138 105.279 433.205C108.079 440.538 110.212 446.805 109.945 447.071C109.679 447.338 104.745 444.005 99.1454 439.605C79.4121 424.405 67.2787 420.805 59.0121 427.871C56.8787 429.605 53.5454 431.738 51.5454 432.405C48.0787 433.871 46.7454 438.271 49.4121 439.871C50.2121 440.405 51.8121 443.071 53.0121 446.005C57.5454 457.605 69.1454 461.071 93.4121 457.871C100.079 456.938 105.945 456.538 106.345 456.938C106.612 457.338 102.479 460.938 97.0121 465.071C78.3454 479.205 71.6787 490.671 76.6121 500.271C77.8121 502.538 78.7454 505.871 78.7454 507.605C78.7454 511.871 81.8121 514.405 85.0121 512.805C86.3454 512.138 89.6787 511.205 92.4787 510.671C95.4121 510.138 99.0121 509.071 100.745 508.271C106.479 505.738 111.812 492.538 114.212 475.205C116.079 460.405 119.945 447.338 126.745 431.871C128.345 428.138 130.479 421.071 131.412 415.871C132.879 408.138 132.879 405.871 131.412 402.271C129.545 397.738 117.812 385.738 115.545 386.005C114.745 386.005 111.279 388.938 107.945 392.271Z" fill="black"/>
<path d="M441.79 213.733C437.657 217.867 433.79 222.933 433.39 224.8C432.057 230 435.123 243.867 440.057 255.867C442.457 261.867 444.323 266.8 444.057 267.067C443.257 267.867 438.723 264.933 431.923 259.333C428.323 256.4 421.39 251.867 416.457 249.333C406.19 244.267 399.923 244 394.19 248.533C392.323 250 388.723 252.133 386.457 253.2C382.323 255.067 380.723 258.4 383.123 259.867C383.657 260.267 385.79 263.733 387.923 267.733C393.523 278.933 396.323 280 418.857 278.8C429.123 278.267 439.79 277.733 442.723 277.6L447.923 277.333L450.19 292.667C454.19 319.333 459.123 328.933 469.79 330.667C472.457 331.2 476.457 332.133 478.457 332.933C482.723 334.533 484.457 333.467 485.39 328.667C485.657 327.067 486.99 323.067 488.19 319.867C489.923 315.2 490.057 313.467 488.723 309.333C486.99 304.133 473.523 289.733 463.39 282.133L457.39 277.733L468.057 278.8C473.923 279.467 483.657 279.867 489.79 279.733C502.59 279.467 508.723 276.667 511.523 269.6C512.457 267.333 514.323 263.867 515.657 262.133C518.99 257.733 518.723 256.8 513.79 254.533C511.39 253.467 507.39 251.067 504.857 249.333C496.323 243.067 485.257 246.267 466.857 260.4C458.59 266.8 455.39 268.533 455.39 266.533C455.39 266.133 457.123 261.733 459.39 256.667C464.323 245.333 467.79 230.667 466.857 225.333C466.323 222.8 463.257 218.533 458.323 213.6C453.923 209.467 450.19 206 449.923 206C449.657 206 445.923 209.467 441.79 213.733Z" fill="black"/>
<path d="M261.137 241.133L253.27 249.133L254.07 258.733C254.47 265.267 256.337 272.333 259.537 280.733C262.203 287.4 264.337 293.267 264.337 293.667C264.337 295.4 261.537 293.8 253.003 286.867C242.337 278.2 229.537 271.667 223.537 271.667C221.137 271.667 216.87 273.4 213.537 275.667C210.337 277.8 207.003 279.667 206.203 279.667C202.07 279.667 201.937 282.867 205.803 290.333C210.87 300.467 215.003 304.6 221.137 305.8C225.803 306.6 242.47 306.067 263.003 304.2C268.07 303.8 278.47 304.333 287.803 305.533C305.27 307.8 318.47 307.4 324.203 304.467C326.203 303.4 329.003 300.2 330.47 297.4C331.803 294.6 334.07 290.867 335.403 289.133C338.47 284.867 338.337 282.467 334.603 281.133C332.87 280.467 329.137 278.333 326.337 276.467C316.737 269.933 305.937 272.867 286.47 287.4C281.403 291.267 276.737 294.333 276.203 294.333C275.003 294.333 278.47 284.333 280.47 281.667C282.203 279.267 287.003 260.6 287.003 255.933C287.003 253.533 286.337 250.2 285.537 248.6C283.67 245.133 271.67 233 270.07 233C269.537 233 265.403 236.733 261.137 241.133Z" fill="black"/>
<path d="M108.533 240.267C104.667 243.867 100.933 248.133 100 249.867C97.4667 254.8 99.4667 267.6 105.333 282.267C108.133 289.467 109.867 295.333 109.333 295.333C108.667 295.333 103.867 292 98.4 287.867C84.1333 277.067 73.6 272.133 66.9333 273.333C64 273.733 60.4 275.333 58.8 276.8C57.2 278.267 54.1333 280.133 52 280.933C49.7333 281.6 48 282.933 48 283.6C48 286.8 55.0667 299.2 58.8 302.8L62.9333 306.667L82.4 306.4C93.2 306.267 105.6 305.733 110 305.067C117.2 304.133 118 303.6 119.2 300C119.867 297.733 122.533 291.333 124.933 285.733C130.667 272.8 133.867 256.8 131.867 251.733C130.667 248.667 117.467 234 115.867 234C115.467 234 112.267 236.8 108.533 240.267Z" fill="black"/>
<path d="M80.8954 62.9998C72.8954 71.1332 72.8954 71.1332 73.0287 78.7332C73.2954 86.1998 74.6287 90.8665 82.7621 113.667C85.6954 122.067 87.4287 125.133 89.4287 125.4C91.4287 125.8 92.4954 124.2 94.8954 116.867C96.4954 111.8 98.6287 106.066 99.8287 103.933C104.895 94.0665 107.829 77.5332 105.562 71.7998C104.229 68.0665 91.8287 54.9998 89.8287 54.9998C89.2954 54.9998 85.2954 58.5998 80.8954 62.9998Z" fill="black"/>
<path d="M236.911 60.2009C232.777 64.0675 228.911 69.0009 228.377 71.1342C226.911 76.8675 229.844 91.5342 235.044 103.934C237.577 110.068 239.977 116.868 240.511 119.268C241.444 124.068 239.044 123.401 267.311 126.334C281.977 127.934 294.111 127.268 299.177 124.601C302.244 123.001 306.377 118.201 306.511 116.201C306.511 115.401 307.977 112.468 309.844 109.668C312.511 105.801 312.911 104.334 311.711 102.868C310.911 101.801 309.577 101.001 308.911 101.001C308.244 101.001 305.577 99.4009 303.177 97.5342C297.177 93.0009 289.444 92.0675 281.844 95.0009C276.511 97.0009 263.044 105.268 261.177 107.668C259.044 110.334 250.511 115.668 250.511 114.334C250.511 113.401 252.644 107.534 255.044 101.134C260.244 88.3342 262.511 76.7342 261.044 71.1342C260.244 68.2009 246.644 52.8675 244.911 53.0009C244.644 53.0009 241.044 56.2009 236.911 60.2009Z" fill="black"/>
<path d="M416.681 33.8666C412.548 38.1333 408.681 43.1999 408.281 45.0666C407.081 49.8666 409.748 61.8666 415.748 77.4666C421.215 92.1333 424.148 103.467 425.615 116C426.815 125.333 430.948 139.867 433.881 144.133C434.948 145.867 438.281 148 441.348 149.067C454.148 153.467 457.215 154.267 458.281 153.2C458.815 152.533 460.548 147.733 462.148 142.4C464.815 133.867 464.948 132.533 463.215 128.4C460.681 122.4 450.948 112 441.081 104.667C432.948 98.6666 430.815 95.8666 435.348 97.1999C442.148 99.0666 462.281 100.933 468.415 100.133C479.215 98.9333 481.881 97.0666 487.748 87.1999C490.548 82.2666 492.948 77.5999 492.948 76.9333C492.948 76.1333 491.348 74.9333 489.348 74.1333C487.215 73.3333 483.615 71.1999 481.081 69.3333C472.148 62.7999 460.681 65.8666 442.415 79.8666C433.481 86.5333 430.281 88.3999 430.281 86.7999C430.281 86.5333 432.681 80.3999 435.481 73.1999C444.015 51.4666 443.748 40.9333 434.281 34.6666C432.148 33.1999 430.281 31.5999 430.281 31.0666C430.281 29.8666 426.415 25.9999 425.215 25.9999C424.681 25.9999 420.815 29.4666 416.681 33.8666Z" fill="black"/>
</g>
<defs>
<clipPath id="clip0_109_4160">
<rect width="540" height="540" fill="white"/>
</clipPath>
</defs>
</svg>
