<svg width="180" height="180" viewBox="0 0 180 180" fill="none" xmlns="http://www.w3.org/2000/svg">
<rect x="0.1" y="0.1" width="179.8" height="179.8" fill="white" stroke="#CBCBCB" stroke-width="0.2"/>
<path d="M82.008 37.1346L74.2746 45.2679L74.808 54.7346C75.3413 61.2679 76.9413 68.0679 80.408 76.7346C83.0746 83.5346 85.208 89.4013 85.208 89.6679C85.208 91.4013 81.608 89.4013 74.408 83.2679C64.5413 75.0013 50.1413 67.5346 44.408 67.5346C42.008 67.5346 37.7413 69.2679 34.408 71.5346C31.208 73.6679 27.8746 75.5346 27.0746 75.5346C26.2746 75.5346 24.808 76.4679 23.8746 77.5346C22.5413 79.1346 22.6746 80.2013 24.6746 83.1346C26.008 85.2679 28.2746 89.2679 29.8746 92.2013C34.9413 102.068 45.4746 104.601 68.5413 101.668C75.4746 100.735 81.208 100.468 81.208 101.135C81.208 101.801 78.408 104.201 74.9413 106.601C59.7413 117.001 50.5413 127.801 50.5413 135.001C50.5413 139.935 54.008 154.201 55.4746 155.668C56.1413 156.201 61.0746 155.535 66.5413 154.201C73.4746 152.468 77.4746 150.601 79.3413 148.335C83.208 144.068 87.4746 130.735 89.208 118.201C90.008 112.735 91.0746 106.335 91.608 104.201C92.9413 99.6679 92.408 99.6679 113.608 102.468C127.208 104.201 141.475 103.135 146.141 100.201C147.875 99.0013 150.275 95.8013 151.475 93.1346C152.808 90.4679 154.941 86.8679 156.275 85.2679C159.208 82.0679 158.541 78.6013 154.941 77.2679C153.608 76.7346 150.141 74.7346 147.341 72.6013C137.475 65.5346 126.541 68.6013 106.675 83.9346C101.208 88.2013 96.5413 91.4013 96.2746 91.0013C95.8746 90.7346 97.4746 86.3346 99.608 81.2679C107.608 63.2679 109.741 49.5346 105.475 43.4013C102.541 39.1346 92.1413 28.8679 90.9413 29.0013C90.2746 29.0013 86.408 32.7346 82.008 37.1346Z" fill="black"/>
</svg>
