<svg width="180" height="180" viewBox="0 0 180 180" fill="none" xmlns="http://www.w3.org/2000/svg">
<rect x="0.1" y="0.1" width="179.8" height="179.8" fill="white" stroke="#CBCBCB" stroke-width="0.2"/>
<path d="M79.117 36.2035C75.2503 39.9368 71.6503 44.8702 70.9837 47.0035C69.517 52.6035 71.6503 63.6702 76.9837 77.2702C79.517 83.9368 81.3837 89.8035 81.2503 90.3368C80.9837 90.8702 76.0503 87.8035 70.317 83.4035C49.117 67.2702 39.917 64.7368 30.1837 72.2035C27.6503 74.0702 25.117 75.5368 24.5837 75.5368C23.917 75.5368 22.1837 76.3368 20.8503 77.4035C18.317 79.1368 18.4503 79.2702 20.8503 83.0035C22.317 85.1368 24.5837 89.2702 26.1837 92.0702C30.4503 100.337 33.917 102.203 46.1837 102.47C52.0503 102.603 63.2503 102.203 70.9837 101.67L85.117 100.47L86.0503 106.337C86.5837 109.537 87.917 117.67 88.8503 124.203C92.0503 145.27 96.9837 153.003 108.85 155.27C112.584 156.07 116.85 157.137 118.45 157.537C120.85 158.337 121.517 157.803 122.184 154.737C122.717 152.603 123.917 148.603 124.984 145.803C126.05 143.137 126.85 139.137 126.85 137.003C126.85 131.003 119.117 121.003 106.45 111.003C100.184 105.803 95.2503 101.403 95.517 101.137C95.917 100.737 100.584 101.27 105.917 102.203C111.25 103.137 121.117 103.67 127.784 103.403C138.584 102.87 140.45 102.47 143.517 99.5368C145.517 97.6702 148.184 93.6702 149.517 90.7368C150.85 87.6702 152.584 84.7368 153.384 84.3368C156.45 82.4702 154.584 79.9368 146.45 74.4702C140.984 70.8702 136.45 68.8702 133.784 68.8702C127.384 68.8702 116.717 74.2035 104.45 83.5368C98.4503 88.0702 93.117 91.6702 92.8503 91.2702C92.4503 91.0035 94.317 85.4035 96.9837 78.8702C102.317 65.9368 105.117 52.7368 103.784 47.4035C102.85 43.6702 89.517 28.7368 87.3837 29.0035C86.717 29.1368 82.9837 32.3368 79.117 36.2035Z" fill="black"/>
</svg>
