<svg width="180" height="180" viewBox="0 0 180 180" fill="none" xmlns="http://www.w3.org/2000/svg">
<rect x="0.1" y="0.1" width="179.8" height="179.8" fill="white" stroke="#CBCBCB" stroke-width="0.2"/>
<path d="M88.2667 27.0002C86.2667 29.1335 84.1333 31.0002 83.4667 31.0002C82.9333 31.0002 80.6667 33.4002 78.6667 36.3335C75.3333 41.1335 75.0667 42.3335 75.8667 49.2668C76.6667 55.6668 79.8667 66.7335 84 77.0002C84.5333 78.4668 79.8667 74.6002 73.4667 68.3335C64.6667 59.6668 62 56.2002 62 53.4002C62 46.2002 52.9333 42.8668 48 48.3335C43.2 53.6668 46 61.4002 53.0667 61.9335C55.6 62.2002 59.7333 65.4002 66.9333 72.6002C72.6667 78.3335 76.8 83.0002 76.4 83.0002C75.8667 83.0002 72.2667 81.8002 68.4 80.2002C57.4667 75.9335 45.3333 73.6668 40.2667 75.1335C37.8667 75.8002 33.0667 79.5335 29.0667 83.8002L22 91.2668L30.1333 99.5335L38.1333 107.667L47.7333 107.533C55.6 107.4 60 106.333 71.8667 101.8C79.8667 98.7335 86.6667 96.4668 87.0667 96.8668C87.4667 97.2668 86.1333 101.133 84.1333 105.533C76.8 121.933 73.6 134.733 74.9333 142.067C75.6 145.8 88.6667 160.333 91.3333 160.333C93.7333 160.333 107.2 146.067 108.133 142.467C109.467 137.133 106.533 123.4 101.333 110.467C98.6667 104.067 96.6667 98.2002 96.9333 97.5335C97.2 97.0002 103.2 98.7335 110.267 101.667C124.8 107.533 137.467 110.467 142.667 109.133C146.267 108.2 160.667 95.0002 160.667 92.6002C160.667 90.0668 146.267 76.7335 142.8 76.0668C137.867 75.1335 126 77.2668 116 80.8668C111.2 82.6002 107.333 83.5335 107.333 83.1335C107.333 82.6002 112.133 77.8002 117.867 72.6002C124.933 66.2002 129.6 63.0002 131.733 63.0002C138.4 63.0002 141.867 53.8002 136.933 49.2668C133.867 46.4668 126.933 46.3335 124.8 48.8668C123.867 49.9335 123.067 52.3335 122.8 54.3335C122.4 57.8002 110.667 71.0002 102.933 76.6002L99.2 79.2668L101.333 74.2002C105.6 64.2002 106.267 62.2002 108 53.9335C110.4 42.8668 109.067 38.8668 100.267 30.2002C96.2667 26.2002 92.8 23.0002 92.4 23.0002C92 23.0002 90.1333 24.7335 88.2667 27.0002Z" fill="black"/>
</svg>
    