<svg width="180" height="180" viewBox="0 0 180 180" fill="none" xmlns="http://www.w3.org/2000/svg">
<rect x="0.1" y="0.1" width="179.8" height="179.8" fill="white" stroke="#CBCBCB" stroke-width="0.2"/>
<path d="M78.3333 31.0038L70.4667 39.0038L71.2667 49.2705C71.9333 56.7371 73.6667 63.2705 77.4 72.8705C80.3333 80.2038 82.2 86.3371 81.5333 86.6038C81 86.8705 74.7333 84.6038 67.8 81.6705C53.9333 75.6705 41.9333 73.2705 35.6667 75.0038C33.4 75.6705 28.3333 79.5371 24.3333 83.5371L17 90.8705L21.6667 95.6705C31.1333 105.537 32.7333 107.004 36.0667 107.804C41 109.004 59.5333 104.87 70.7333 100.204C75.8 97.9371 80.3333 96.2038 80.7333 96.2038C82.4667 96.2038 81.2667 101.137 76.8667 111.27C71.8 123.004 68.7333 136.87 70.0667 142.337C70.6 144.204 74.4667 149.27 78.6 153.67L86.3333 161.404L93.6667 154.47C97.8 150.604 101.8 145.67 102.467 143.404C104.867 136.604 102.467 125.537 94.0667 103.937C92.7333 100.47 91.9333 97.4038 92.3333 96.8705C92.8667 96.4705 97.9333 98.2038 103.667 100.604C117.133 106.337 131.4 109.937 136.867 109.004C140.867 108.204 156.2 95.1371 156.2 92.4705C156.2 91.8038 154.6 89.8038 152.6 87.9371C150.467 85.9371 147.4 82.8705 145.533 80.8705C138.2 72.7371 128.867 73.2705 103.933 83.2705C98.2 85.5371 93.1333 87.0038 92.7333 86.4705C92.2 85.9371 92.8667 83.0038 94.2 79.9371C102.6 59.4038 105.4 47.9371 103.667 40.8705C102.733 37.4038 89.5333 22.7372 87.4 23.0038C86.7333 23.0038 82.6 26.7371 78.3333 31.0038Z" fill="black"/>
</svg>
