<svg width="180" height="180" viewBox="0 0 180 180" fill="none" xmlns="http://www.w3.org/2000/svg">
<rect x="0.1" y="0.1" width="179.8" height="179.8" fill="white" stroke="#CBCBCB" stroke-width="0.2"/>
<path d="M78.0377 37.0076C71.9044 43.8076 70.9711 45.541 70.9711 50.4743C70.9711 57.8076 74.0377 70.741 77.5044 77.6743C78.9711 80.6076 80.5711 84.741 81.1044 86.8743C82.1711 91.4076 82.1711 91.4076 68.3044 80.8743C50.3044 67.2743 40.0377 64.4743 30.7044 70.8743C27.9044 72.741 24.1711 74.8743 22.3044 75.541C18.8377 76.8743 17.9044 80.0743 20.4377 81.6743C21.2377 82.0743 22.9711 85.0076 24.3044 88.0743C29.9044 101.141 41.7711 104.741 67.1044 100.741C72.1711 99.941 76.9711 99.541 77.9044 99.8076C78.7044 100.074 75.5044 103.141 70.8377 106.474C60.8377 113.674 52.8377 121.274 49.3711 126.874C46.4377 131.674 46.3044 139.674 48.9711 144.874C50.0377 147.008 50.9711 149.274 50.8377 149.808C50.0377 154.474 51.1044 155.808 54.7044 155.008C56.7044 154.608 61.2377 153.674 64.9711 152.874C76.8377 150.474 81.3711 143.274 84.4377 121.808C85.3711 115.808 86.4377 110.341 86.9711 109.808C87.5044 109.141 88.4377 112.208 88.9711 116.474C92.0377 141.941 96.9711 150.874 109.238 153.141C112.838 153.808 117.238 154.608 119.371 155.141C122.304 155.674 122.971 155.408 122.971 153.141C122.971 151.541 124.171 147.141 125.638 143.408C127.504 139.008 128.171 135.141 127.638 132.608C126.304 126.608 117.104 116.208 106.171 108.074C100.571 103.941 96.4377 100.341 96.8377 99.941C97.2377 99.541 102.571 99.941 108.704 100.874C123.371 103.141 138.038 102.074 142.704 98.6076C144.571 97.141 147.371 93.541 148.971 90.6076C150.438 87.6743 152.438 84.341 153.504 83.141C155.904 80.0743 154.438 77.0076 149.638 75.4076C147.504 74.6076 145.638 73.4076 145.638 72.8743C145.638 71.141 136.838 67.541 132.438 67.541C126.571 67.541 113.504 74.4743 102.704 83.141C97.6377 87.2743 93.2377 90.2076 92.8377 89.8076C92.3044 89.4076 94.1711 84.0743 96.7044 77.941C105.371 57.541 106.304 45.4076 99.5044 39.2743C97.6377 37.541 94.5711 34.6076 92.5711 32.4743C90.7044 30.4743 88.3044 28.8743 87.1044 29.0076C85.9044 29.0076 81.7711 32.6076 78.0377 37.0076Z" fill="black"/>
</svg>
