<svg width="540" height="540" viewBox="0 0 540 540" fill="none" xmlns="http://www.w3.org/2000/svg">
<g clip-path="url(#clip0_105_4145)">
<rect width="540" height="540" fill="white"/>
<rect x="0.1" y="0.1" width="179.8" height="179.8" fill="white" stroke="#CBCBCB" stroke-width="0.2"/>
<rect x="180.1" y="0.1" width="179.8" height="179.8" fill="white" stroke="#CBCBCB" stroke-width="0.2"/>
<rect x="360.1" y="0.1" width="179.8" height="179.8" fill="white" stroke="#CBCBCB" stroke-width="0.2"/>
<rect x="0.1" y="180.1" width="179.8" height="179.8" fill="white" stroke="#CBCBCB" stroke-width="0.2"/>
<rect x="180.1" y="180.1" width="179.8" height="179.8" fill="white" stroke="#CBCBCB" stroke-width="0.2"/>
<rect x="360.1" y="180.1" width="179.8" height="179.8" fill="white" stroke="#CBCBCB" stroke-width="0.2"/>
<rect x="0.1" y="360.1" width="179.8" height="179.8" fill="white" stroke="#CBCBCB" stroke-width="0.2"/>
<rect x="180.1" y="360.1" width="179.8" height="179.8" fill="white" stroke="#CBCBCB" stroke-width="0.2"/>
<rect x="360.1" y="360.1" width="179.8" height="179.8" fill="white" stroke="#CBCBCB" stroke-width="0.2"/>
<rect x="360.1" y="360.1" width="179.8" height="179.8" fill="white" stroke="#CBCBCB" stroke-width="0.2"/>
<path d="M444.909 459.909V459.636C444.939 456.742 445.242 454.439 445.818 452.727C446.394 451.015 447.212 449.629 448.273 448.568C449.333 447.508 450.606 446.53 452.091 445.636C452.985 445.091 453.788 444.447 454.5 443.705C455.212 442.947 455.773 442.076 456.182 441.091C456.606 440.106 456.818 439.015 456.818 437.818C456.818 436.333 456.47 435.045 455.773 433.955C455.076 432.864 454.144 432.023 452.977 431.432C451.811 430.841 450.515 430.545 449.091 430.545C447.848 430.545 446.652 430.803 445.5 431.318C444.348 431.833 443.386 432.644 442.614 433.75C441.841 434.856 441.394 436.303 441.273 438.091H435.545C435.667 435.515 436.333 433.311 437.545 431.477C438.773 429.644 440.386 428.242 442.386 427.273C444.402 426.303 446.636 425.818 449.091 425.818C451.758 425.818 454.076 426.348 456.045 427.409C458.03 428.47 459.561 429.924 460.636 431.773C461.727 433.621 462.273 435.727 462.273 438.091C462.273 439.758 462.015 441.265 461.5 442.614C461 443.962 460.273 445.167 459.318 446.227C458.379 447.288 457.242 448.227 455.909 449.045C454.576 449.879 453.508 450.758 452.705 451.682C451.902 452.591 451.318 453.674 450.955 454.932C450.591 456.189 450.394 457.758 450.364 459.636V459.909H444.909ZM447.818 473.364C446.697 473.364 445.735 472.962 444.932 472.159C444.129 471.356 443.727 470.394 443.727 469.273C443.727 468.152 444.129 467.189 444.932 466.386C445.735 465.583 446.697 465.182 447.818 465.182C448.939 465.182 449.902 465.583 450.705 466.386C451.508 467.189 451.909 468.152 451.909 469.273C451.909 470.015 451.72 470.697 451.341 471.318C450.977 471.939 450.485 472.439 449.864 472.818C449.258 473.182 448.576 473.364 447.818 473.364Z" fill="black"/>
<path d="M82.1441 72.4978C80.8675 73.3048 81.442 75.5241 82.9738 75.8603C85.7184 76.3983 86.1014 80.5006 83.5483 82.8543C82.6547 83.6613 81.6334 85.0063 81.3143 85.8133C80.8037 87.2928 80.4845 87.3601 73.272 87.3601C69.1231 87.3601 65.4211 87.0911 65.0381 86.8221C64.6552 86.5531 64.0169 85.6788 63.5701 84.8046C62.7403 83.1233 61.2723 82.8543 60.5063 84.2666C60.251 84.8046 60.1234 87.4273 60.3149 90.1846C60.5702 94.5558 60.7616 95.0938 61.9106 95.0938C62.7403 95.0938 63.2509 94.5558 63.3786 93.5471C63.5063 92.7401 64.0807 91.7986 64.6552 91.4623C66.0594 90.7226 80.7399 90.5881 80.7399 91.3278C80.7399 91.6641 81.8888 93.1436 83.293 94.6903C84.6972 96.1698 85.8461 97.8511 85.8461 98.3218C85.8461 99.5996 85.0163 100.608 83.6759 100.877C82.1441 101.214 81.059 103.029 81.5696 104.442C81.8888 105.316 82.91 105.518 86.6759 105.518C92.1651 105.518 94.0799 104.576 92.931 102.29C92.5481 101.55 91.5906 100.81 90.8247 100.676C89.6758 100.541 89.2928 99.9358 89.1652 98.2546C88.9737 96.3716 89.3567 95.5646 91.5906 93.3453L94.2076 90.6553L101.931 90.8571C109.654 91.0588 109.718 91.0588 110.101 92.7401C110.356 93.8161 110.994 94.4886 111.888 94.6231C113.228 94.8248 113.292 94.6231 113.292 89.1758C113.292 85.2081 113.037 83.3251 112.526 83.1233C111.186 82.6526 110.101 83.3923 110.101 84.7373C110.101 86.6203 108.058 87.1583 100.782 87.2928L94.3991 87.3601L91.3353 83.9303C89.4843 81.8456 88.4631 80.0971 88.6545 79.4918C88.846 78.9538 89.0375 77.9451 89.0375 77.2726C89.0375 76.3983 89.612 75.9276 90.7609 75.7931C92.7395 75.5913 93.5693 73.4393 92.1013 72.4978C91.6545 72.1616 89.4205 71.8926 87.1227 71.8926C84.8249 71.8926 82.5909 72.1616 82.1441 72.4978Z" fill="black"/>
<path d="M262.968 65.9745C263.16 67.9247 263.415 68.261 265.394 68.53L267.628 68.8662L267.819 72.834C268.011 76.6672 267.947 76.869 265.777 78.752C264.5 79.828 263.16 81.5092 262.713 82.518L261.883 84.2665L250.905 84.5355L239.926 84.8045L239.543 82.8542C238.777 79.3572 238.65 79.2227 236.863 79.4245L235.075 79.6262L234.884 86.7547C234.692 93.8832 234.692 93.9505 236.288 94.2195C238.331 94.623 239.16 94.085 239.799 91.664L240.246 89.7137L250.905 89.1757L261.564 88.705L265.075 92.5382C268.33 96.1025 268.649 96.6405 268.458 99.1287C268.266 101.617 268.075 101.886 265.904 102.424C263.479 103.096 262.522 104.441 263.16 106.392C263.734 107.871 265.521 108.073 272.415 107.602L278.479 107.199V105.181C278.479 103.365 278.223 103.164 276.436 102.962C273.883 102.693 272.926 101.012 273.181 97.582C273.308 95.6317 273.819 94.8247 275.415 93.7487C276.5 93.009 277.904 91.5967 278.479 90.5207L279.5 88.705L290.159 88.8395L300.818 89.0412L301.457 91.2605C301.967 93.2107 302.286 93.4797 304.01 93.278L305.925 93.0762L306.116 85.9477C306.244 79.828 306.116 78.6847 305.223 78.3485C303.691 77.7432 302.286 78.8865 301.521 81.3747L300.818 83.6612L290.606 83.7957C284.989 83.9302 280.138 83.7957 279.755 83.4595C279.436 83.1905 278.67 82.0472 278.159 80.9712C277.585 79.828 276.308 78.5502 275.287 78.0122C272.734 76.7345 272.415 76.1292 272.415 72.0942V68.5972L275.159 68.3955C277.649 68.1937 277.84 68.0592 278.032 65.9745L278.223 63.8225H270.5H262.777L262.968 65.9745Z" fill="black"/>
<path d="M440.814 46.4371C439.793 47.5131 439.856 50.6739 440.878 51.5481C441.325 51.9516 443.239 52.3551 445.154 52.4896L448.665 52.6914L448.856 62.9134L449.048 73.1354L446.239 75.1529C444.516 76.3634 442.856 78.3809 441.899 80.3984L440.303 83.6264L422.623 83.7609L404.943 83.8281V79.8604C404.943 76.2289 404.815 75.8926 403.411 75.4891C402.581 75.2874 401.177 75.2201 400.411 75.3546C398.687 75.5564 398.815 74.4131 399.07 91.0239L399.198 99.4301H401.049C404.56 99.4301 404.943 98.9594 404.943 94.7226C404.943 92.5034 405.198 90.6204 405.453 90.4186C405.708 90.2841 413.751 89.9479 423.325 89.6789L440.622 89.2754L442.218 91.9654C443.112 93.3776 445.027 95.4624 446.558 96.5384L449.303 98.4886L449.495 105.819C449.622 109.921 449.495 114.83 449.303 116.713L448.92 120.278H445.92C441.899 120.278 441.197 120.883 441.452 124.044L441.644 126.666L451.92 126.868C463.537 127.07 464.111 126.868 463.409 122.631L462.962 120.278H459.196H455.367L455.303 114.36C455.239 111.132 455.175 106.357 455.111 103.801C454.984 97.6816 455.111 97.2781 457.473 96.0004C458.622 95.3951 460.281 93.7139 461.239 92.2344L463.026 89.4771L480.387 89.2081C490.664 89.0736 498.132 89.2081 498.642 89.5444C499.089 89.9479 499.408 91.6964 499.408 93.8484V97.4799L502.153 97.2781L504.834 97.0764V85.7111C504.834 75.7581 504.706 74.2786 503.748 73.6061C502.983 73.1354 502.089 73.1354 500.876 73.6061C499.217 74.2114 499.089 74.5476 499.217 77.5066C499.536 83.4919 500.493 83.2229 480.77 83.0884L463.409 82.9539L462.069 80.3311C461.367 78.7844 459.579 76.9014 457.92 75.7581L455.048 73.8079L454.728 63.5859C454.473 57.9369 454.473 52.9604 454.601 52.4896C454.728 52.0189 455.941 51.6826 457.537 51.6826C461.622 51.6826 463.026 51.0774 463.026 49.3289C463.026 45.6301 463.026 45.6301 451.92 45.6301C444.707 45.6301 441.325 45.8991 440.814 46.4371Z" fill="black"/>
<path d="M82.208 249.003C81.7612 249.205 81.3782 250.146 81.3782 251.222C81.3782 252.904 81.6335 253.173 83.9313 253.576L86.4206 254.047L86.6121 257.813C86.8036 261.646 86.8036 261.646 83.4846 265.143L80.2293 268.64L69.3147 268.842C57.6342 269.044 57.7618 269.111 57.7618 265.614C57.7618 264.269 57.4427 264 55.847 264H53.9321V271.734V279.467H55.7831C57.3788 279.467 57.6342 279.198 58.0171 276.777C58.2086 275.298 58.6554 274.087 58.9107 274.087C59.166 274.087 64.2723 273.886 70.2083 273.751L81.0591 273.348L82.3356 275.432C83.0378 276.576 84.442 277.988 85.3994 278.526C87.0589 279.467 87.1866 279.804 86.9951 283.032C86.8036 286.394 86.7398 286.529 84.8888 286.73C82.2718 287.067 81.5059 287.874 81.8888 289.891C82.1442 291.572 82.208 291.572 89.3567 291.572C96.9523 291.572 97.3991 291.371 96.8246 288.412C96.6331 287.134 96.1225 286.865 94.3992 286.865C91.9737 286.865 90.9524 285.453 90.9524 282.225C90.9524 280.678 91.4631 279.938 93.1864 278.795C94.3992 277.988 96.0587 276.441 96.8885 275.298L98.4203 273.28H106.654C121.462 273.348 120.313 273.146 120.313 275.298C120.313 277.45 121.335 278.795 122.93 278.795C125.037 278.795 125.356 277.315 124.909 270.052C124.526 264 124.271 262.991 123.313 262.789C121.654 262.453 120.313 263.865 120.313 266.017V267.833L109.335 268.169L98.2927 268.573L96.0587 266.085C94.846 264.672 93.3141 263.26 92.6758 262.857C91.7822 262.386 91.5269 261.31 91.3992 258.284L91.2716 254.316L93.3779 253.845C96.2502 253.24 96.9523 252.366 96.4417 250.214L95.9949 248.465L89.4844 248.6C85.91 248.667 82.591 248.869 82.208 249.003Z" fill="black"/>
<path d="M258.373 230.416C257.67 231.156 257.862 235.056 258.628 235.863C259.011 236.267 260.479 236.401 262.011 236.267C266.351 235.729 266.543 236.334 266.734 248.035L266.926 258.257L264.053 260.073C262.202 261.216 260.607 262.965 259.713 264.713L258.309 267.538L241.075 267.807C231.373 268.009 223.522 267.874 223.139 267.538C222.82 267.202 222.501 265.453 222.501 263.637C222.501 259.468 221.671 258.526 218.863 259.333C216.757 260.006 216.757 260.006 216.821 263.974C216.884 266.193 216.948 271.237 217.012 275.204L217.076 282.467H219.948H222.82V278.432C222.82 275.742 223.076 274.263 223.65 274.061C224.033 273.927 231.948 273.658 241.139 273.523C259.139 273.187 258.436 273.052 260.16 276.617C260.543 277.424 261.819 278.701 263.032 279.576C267.372 282.467 267.181 281.862 267.181 293.564V304.324L263.351 304.66L259.522 304.996V307.686V310.376L269.096 310.578C281.287 310.847 281.67 310.712 281.415 307.484L281.223 304.996L277.074 304.66L272.989 304.324L272.734 293.16L272.542 281.929L274.968 280.383C277.393 278.836 278.67 277.356 279.947 274.734C280.712 273.254 279.436 273.321 302.925 273.052L316.329 272.918L316.648 276.818L316.967 280.786L319.711 280.988L322.392 281.19L322.265 269.555L322.073 257.921H319.52H316.967L316.648 262.292L316.329 266.664L298.329 266.865L280.266 267L279.883 265.319C279.5 263.772 276.117 260.073 273.564 258.594C272.542 257.921 272.415 256.778 272.351 247.161L272.287 236.401L276.308 236.199L280.329 235.998L280.138 233.173L279.947 230.349L269.351 230.147C263.543 230.08 258.628 230.214 258.373 230.416Z" fill="black"/>
<path d="M437.218 212.569C436.963 212.838 436.771 214.519 436.771 216.335V219.563H442.197H447.622V224.068C447.686 226.624 447.941 233.618 448.26 239.67C448.835 251.843 448.579 255.138 447.047 255.743C444.111 256.886 441.239 259.576 439.899 262.535L438.494 265.763L418.325 266.301C407.219 266.57 397.006 266.839 395.602 266.907L393.049 266.974V262.266C393.049 259.644 392.794 257.155 392.538 256.685C392.219 256.281 390.751 255.878 389.219 255.878C387.56 255.878 386.411 256.214 386.219 256.685C386.092 257.155 386.155 263.746 386.347 271.345L386.666 285.131L390.113 285.333L393.559 285.535L393.24 280.76C392.985 277.129 393.113 275.716 393.815 274.977C394.708 274.035 403.134 273.766 432.495 273.699H439.005L440.09 275.918C441.558 279.146 442.899 280.491 446.09 282.038L448.898 283.45L449.026 297.909C449.09 305.844 449.154 313.982 449.218 315.865V319.429L445.388 319.496C443.282 319.563 441.048 319.631 440.473 319.698C439.516 319.765 439.324 320.37 439.324 323.06C439.324 325.885 439.516 326.356 440.792 326.759C442.707 327.297 460.77 327.163 463.898 326.625C466.387 326.154 466.451 326.087 466.643 322.926L466.834 319.765H462.366C455.409 319.765 455.92 320.774 455.856 306.382C455.792 299.523 455.728 291.587 455.664 288.83L455.6 283.786L458.473 282.24C462.175 280.155 463.451 278.944 464.919 275.985C465.558 274.64 466.451 273.363 466.898 273.228C467.345 273.026 477.685 272.825 489.94 272.757L512.088 272.623V278.003V283.45H515.216C517.195 283.45 518.407 283.114 518.535 282.576C518.663 282.172 518.663 275.582 518.471 267.983L518.152 254.196L515.088 253.995C512.344 253.793 512.024 253.927 511.45 255.609C510.939 256.954 510.939 258.03 511.45 259.307C511.833 260.316 512.088 261.997 511.961 263.006L511.769 264.956L500.28 265.36C493.961 265.629 483.749 265.831 477.557 265.898L466.26 265.965L464.855 263.073C462.941 259.24 461.345 257.559 458.154 255.945L455.473 254.6L455.09 247.337C454.898 243.369 454.771 235.501 454.834 229.986L454.962 219.899L459.43 219.563L463.898 219.226V215.864V212.501L450.749 212.3C443.537 212.232 437.473 212.367 437.218 212.569Z" fill="black"/>
<path d="M88.0375 410.053L78.7824 410.457L78.5909 412.34C78.2718 415.299 79.4845 416.307 82.7397 415.769C87.2077 415.097 87.3992 415.433 87.3992 427.202V437.357L84.6546 439.105C82.9312 440.181 81.4632 441.862 80.7611 443.342C80.1228 444.687 79.0377 446.099 78.2718 446.368C77.5058 446.637 69.3997 446.906 60.2723 446.839L43.6769 446.772L43.4855 442.535L43.294 438.298L40.6132 438.5L37.9324 438.702L37.8048 448.789C37.6133 461.903 37.6133 461.903 40.8047 461.903C43.6131 461.903 44.1237 461.029 43.8684 456.523C43.8046 454.976 44.0599 453.564 44.4429 453.295C44.8258 453.026 52.8682 452.824 62.3148 452.824H79.4207L80.6973 455.514C81.527 457.128 83.1227 458.809 84.8461 459.885L87.7183 461.634L87.9098 472.865C88.0375 481.607 87.9098 484.095 87.2715 484.163C86.8247 484.23 85.0376 484.297 83.2504 484.364L80.059 484.432V487.122V489.812H90.9097H101.761V486.785C101.761 483.826 101.697 483.759 99.8457 483.826C98.8244 483.826 97.484 484.095 96.9734 484.364C96.399 484.566 95.5054 484.432 94.9309 483.961C94.1012 483.221 93.8458 481.204 93.5267 472.192L93.2076 461.23L95.7607 459.818C97.1649 459.078 98.8244 457.532 99.3989 456.456C101.697 452.152 100.292 452.421 119.505 452.084L137.121 451.748L137.44 453.295C137.632 454.169 137.696 456.052 137.632 457.532L137.504 460.222H140.377H143.249L143.057 448.856C142.993 442.535 142.802 437.357 142.738 437.289C142.483 437.02 140.696 436.886 138.845 436.953C137.057 437.02 136.994 437.088 137.313 440.181C138.015 446.301 139.164 445.897 119.122 446.166L101.441 446.435L100.165 443.813C99.0159 441.324 96.6543 439.038 94.3565 438.164C93.5267 437.895 93.2714 436.079 92.8884 427.605C92.5055 420.073 92.6331 417.182 93.1437 416.442C93.6544 415.837 95.1862 415.5 97.4202 415.5H100.867L100.675 412.609C100.42 409.313 101.569 409.515 88.0375 410.053Z" fill="black"/>
<path d="M262.628 393.272L254.968 393.609L254.585 396.433C254.394 398.047 254.458 399.661 254.713 400.065C254.968 400.536 257.011 400.939 259.564 401.006C261.926 401.073 264.415 401.208 265.053 401.275C266.074 401.342 266.138 402.62 266.138 418.424V435.573L263.138 437.321C260.202 439.003 257.202 442.701 257.202 444.652C257.202 445.122 256.819 445.862 256.436 446.198C255.926 446.602 246.607 447.073 233.458 447.274L211.31 447.611L211.118 442.163L210.927 436.649H207.735H204.544L204.416 450.973L204.353 465.297L205.884 466.037C206.969 466.575 208.055 466.575 209.203 466.172C210.863 465.566 210.927 465.297 211.118 460.388C211.31 455.748 211.437 455.277 212.714 454.941C213.48 454.806 221.139 454.605 229.756 454.537C238.373 454.537 247.756 454.268 250.564 454.067C256.309 453.663 256.372 453.663 258.67 458.169C259.692 460.052 261.16 461.464 263.457 462.742L266.776 464.625V468.794C266.776 471.081 266.968 478.815 267.159 485.876C267.479 495.963 267.415 499.057 266.776 499.864C266.138 500.671 264.925 500.873 261.734 500.738L257.521 500.536L257.33 503.495C257.202 505.109 257.394 506.723 257.777 507.127C258.543 507.934 283.436 507.799 284.202 506.992C284.521 506.656 284.648 505.109 284.521 503.495L284.329 500.536L279.223 500.2L274.117 499.864L273.925 482.379L273.734 464.827L277.117 462.54C278.968 461.262 281.074 459.245 281.776 458.102C282.478 456.891 283.372 455.479 283.691 454.941C284.265 453.999 287.138 453.865 306.669 453.663L329.009 453.461L329.328 458.841C329.711 464.759 329.966 465.096 334.179 464.221L336.413 463.818L336.285 449.897C336.285 441.424 335.966 435.64 335.583 435.102C334.753 434.093 330.477 434.026 329.519 435.035C329.137 435.438 329.009 437.523 329.2 440.28C329.328 442.836 329.264 445.055 328.945 445.257C328.626 445.391 318.35 445.795 306.031 445.997L283.691 446.467L282.095 442.903C280.755 440.011 279.797 438.935 276.925 437.119L273.351 434.9L272.968 418.289C272.776 408.471 272.84 401.41 273.223 401.006C273.542 400.67 275.649 400.266 277.946 400.132L282.095 399.863V396.971C282.095 395.425 281.712 393.81 281.265 393.407C280.436 392.667 276.861 392.667 262.628 393.272Z" fill="black"/>
</g>
<defs>
<clipPath id="clip0_105_4145">
<rect width="540" height="540" fill="white"/>
</clipPath>
</defs>
</svg>
