<svg width="180" height="180" viewBox="0 0 180 180" fill="none" xmlns="http://www.w3.org/2000/svg">
<rect x="0.1" y="0.1" width="179.8" height="179.8" fill="white" stroke="#CBCBCB" stroke-width="0.2"/>
<path d="M85.4007 28.1729L71.5979 28.4845V32.0165V35.6524H78.3436H85.0893V54.8705V73.9848L82.0797 75.543C78.655 77.4129 73.6735 82.9186 73.6735 85.1001C73.6735 86.035 72.6357 86.5545 70.8715 86.5545C69.211 86.5545 57.3801 86.8661 44.4076 87.2816L20.7457 87.9049V81.4642V75.0236L17.4247 75.3352L14 75.6469V90.9175V106.292H17.8399H21.6797L21.057 100.579C20.5381 96.1116 20.7457 94.865 21.8873 94.865C22.7175 94.865 34.5485 94.5534 48.2474 94.1378L73.1546 93.5145L74.9189 97.2543C75.9567 99.4358 78.3436 101.929 80.8344 103.383C83.1175 104.63 85.1931 106.5 85.4007 107.331C85.6082 108.162 85.8158 116.992 86.0234 126.757L86.2309 144.728H80.523H74.7113V148.364V152H90.2784H105.845V148.364V144.728H99.6186H93.3918V138.184C93.3918 134.652 93.0804 126.964 92.6653 121.147C92.0426 108.993 92.5615 105.669 95.4674 104.734C98.0619 103.903 102.524 99.3319 103.874 96.1116C104.704 93.8262 105.119 93.8262 122.139 93.7223C131.79 93.6184 143.518 93.5145 148.395 93.4107L157.216 93.3068L157.528 99.228L157.839 105.253H161.368H165V89.6709V74.0886H160.745H156.49L156.905 79.906L157.216 85.8273L131.064 86.2428L104.808 86.7622L103.666 83.7496C102.213 79.6983 99.7223 77.2051 95.7787 75.4391L92.354 74.0886L92.2502 64.4276C92.1464 59.2335 92.0426 50.6113 91.9388 45.5211L91.8351 36.1718L97.3354 35.8601C102.732 35.5485 102.732 35.5485 102.732 32.1204C102.732 27.7574 102.732 27.7574 85.4007 28.1729Z" fill="black"/>
</svg>
