<svg width="180" height="180" viewBox="0 0 180 180" fill="none" xmlns="http://www.w3.org/2000/svg">
<rect x="0.1" y="0.1" width="179.8" height="179.8" fill="white" stroke="#CBCBCB" stroke-width="0.2"/>
<path d="M72.2395 29.9126L72.5561 33.9309H78.5709C85.8521 33.9309 85.5355 32.7677 85.641 56.3489C85.8521 72.9509 85.7466 73.4796 83.5306 74.1141C81.1035 74.96 80.6814 74.5371 59.6822 54.0225C54.3004 48.7352 49.8684 44.0824 49.8684 43.6595C49.8684 43.2365 51.0292 41.756 52.5065 40.3814C53.9839 38.9009 55.1446 36.786 55.1446 35.0941C55.1446 32.8734 54.617 32.3447 52.401 32.3447C49.0242 32.3447 33.0901 48.5237 32.9846 52.1191C32.9846 55.6087 38.1553 55.3972 41.4265 51.9076L43.9591 49.2639L52.401 57.5121C57.1496 61.9534 64.4307 68.9326 68.6517 72.8451L76.2494 79.9301L74.6666 83.1024L73.0837 86.169L48.3911 86.4863C34.884 86.6978 23.0653 86.6978 22.1156 86.4863C20.7438 86.169 20.3217 84.9001 20.3217 80.353V74.6428H15.9952C11.6688 74.6428 11.6688 74.6428 12.3019 77.9209C12.6185 79.7186 12.935 86.9092 12.935 93.7827V106.366H16.6284H20.3217V100.022V93.6769L47.5469 93.8884C67.2799 94.0999 74.6666 94.5229 74.6666 95.4746C74.6666 96.1091 67.0688 104.357 57.8882 113.769L41.1099 130.899L38.2608 128.784C36.6779 127.621 34.2509 126.458 32.8791 126.246C30.7686 126.035 30.3465 126.352 30.3465 128.573C30.3465 131.957 46.2806 147.607 49.7629 147.607C53.0341 147.607 52.7176 142.637 49.2353 139.042L46.3861 136.081L62.6368 119.585C76.9881 104.886 79.0986 103.194 81.5256 103.723C83.0029 104.146 84.4803 104.674 84.7969 105.097C85.219 105.52 85.8521 114.72 86.2742 125.612L87.0129 145.492H81.1035H75.1942V149.299V153L90.8117 152.683L106.324 152.366V148.664V144.963L100.309 145.281C94.9272 145.704 94.1885 145.492 94.1885 143.694C94.1885 142.637 93.8719 133.649 93.5553 123.814L92.9222 105.838L96.4045 104.569C100.414 102.983 97.8818 101.079 121.414 123.814L133.232 135.341L130.067 138.619C125.951 142.954 125.846 146.55 129.856 146.55C133.971 146.55 149.061 131.428 149.061 127.198C149.061 123.391 146.106 123.391 141.674 127.198L138.297 129.948L128.695 120.325C123.313 115.143 116.032 107.953 112.339 104.569C106.429 99.0699 105.691 98.1182 106.324 95.4746L107.062 92.6195H133.338H159.613V98.4355V104.251H163.307H167V88.3897V72.5279H163.307H159.613V78.8726V85.1116L134.182 85.4288C120.147 85.6403 108.434 85.5346 108.118 85.2173C107.696 84.9001 106.535 83.1024 105.374 81.0933L103.369 77.6037L118.248 62.6936L133.127 47.7835L136.187 50.6386C139.986 54.3397 144.84 54.5512 144.84 51.0616C144.84 47.4663 128.273 31.2873 124.474 31.2873C120.464 31.2873 120.675 34.9883 124.896 39.3239L128.062 42.602L112.55 58.1465C103.897 66.7119 96.1934 73.5853 95.0327 73.5853C93.2388 73.5853 93.1332 72.3164 93.0277 57.4063C93.0277 48.6295 92.8167 40.1699 92.7112 38.6894C92.1835 34.1424 93.0277 33.4022 98.515 33.4022H103.686V29.7011V26H87.7515H71.9229L72.2395 29.9126Z" fill="black"/>
</svg>
