<svg width="180" height="180" viewBox="0 0 180 180" fill="none" xmlns="http://www.w3.org/2000/svg">
<rect x="0.1" y="0.1" width="179.8" height="179.8" fill="white" stroke="#CBCBCB" stroke-width="0.2"/>
<path d="M85.6667 53.0667C85.6667 73.4667 85.5333 74.1333 82.7333 75.3333C81.1333 76.1333 78.3333 78.8 76.6 81.3333C73.6667 85.8667 73.1333 86 65.2667 86.1333C60.7333 86.1333 47.5333 86.2667 36.0667 86.4L15 86.6667V90.6667V94.6667H45.4C75.5333 94.6667 75.6667 94.6667 77 97.6C77.8 99.3333 80.2 101.867 82.6 103.333L86.8667 106L87 126.933V148H91H95V126.667V105.333L98.3333 104C100.2 103.333 103 100.533 104.467 98L107.267 93.3333H136.467H165.667V89.3333V85.3333H136.467H107.133L104.867 81.4667C103.667 79.4667 100.867 76.6667 98.8667 75.4667C95.9333 73.7333 95 72.1333 94.8667 68.5333C94.7333 66 94.4667 63.3333 94.3333 62.6667C94.2 61.8667 93.9333 54.6667 93.8 46.6667L93.6667 32H89.6667H85.6667V53.0667Z" fill="black"/>
</svg>
