<svg width="180" height="180" viewBox="0 0 180 180" fill="none" xmlns="http://www.w3.org/2000/svg">
<path d="M83.1451 74C83.1451 75.0667 84.3451 76 85.8117 76C89.6784 76 89.2784 81.2 85.0117 85.2C82.2117 87.8667 80.3451 88.4 73.0117 88.4C66.0784 88.4 64.0784 87.8667 62.4784 85.8667C59.8117 82.2667 57.5451 85.0667 58.0784 91.4667C58.3451 95.0667 59.1451 96.8 60.8784 97.0667C62.2117 97.3333 63.1451 96.6667 63.1451 95.6C63.1451 94.2667 65.6784 93.4667 72.4784 92.8C81.1451 92 81.9451 92.1333 85.1451 95.3333C88.8784 99.0667 89.6784 104 86.4784 104C85.4117 104 84.4784 104.933 84.4784 106C84.4784 107.467 86.0784 108 91.1451 108C98.0784 108 99.6784 106.4 95.1451 104C91.5451 102.133 91.8117 100.267 96.0784 95.7333C99.2784 92.4 100.478 92 108.612 92C116.345 92 117.545 92.4 118.212 94.6667C119.545 99.8667 121.812 97.3333 121.812 90.6667C121.812 85.6 121.278 84 119.812 84C118.745 84 117.812 84.9333 117.812 86C117.812 87.6 115.945 88 108.612 88C100.612 88 98.7451 87.4667 95.9451 84.8C92.0784 81.3333 91.2784 76 94.4784 76C95.5451 76 96.4784 75.0667 96.4784 74C96.4784 72.5333 94.8784 72 89.8117 72C84.7451 72 83.1451 72.5333 83.1451 74Z" fill="black"/>
</svg>