<svg width="180" height="180" viewBox="0 0 180 180" fill="none" xmlns="http://www.w3.org/2000/svg">
<rect x="0.1" y="0.1" width="179.8" height="179.8" fill="white" stroke="#CBCBCB" stroke-width="0.2"/>
<path d="M86.9411 44.7196C76.9411 45.2529 76.5411 45.3862 76.5411 48.4529C76.5411 51.1196 77.2078 51.6529 81.6078 52.0529L86.5411 52.4529L86.9411 63.6529L87.3411 74.8529L82.8078 78.9862C80.2744 81.2529 78.0078 83.7862 77.7411 84.7196C77.3411 85.9196 71.3411 86.4529 56.5411 86.5862L35.8744 86.7196L35.4744 81.7862C35.0744 77.3862 34.6744 76.9862 31.4744 77.3862C29.4744 77.6529 27.8744 78.5862 28.0078 79.3862C28.1411 80.3196 28.2744 86.3196 28.4078 92.5862C28.5411 103.52 28.6744 103.92 31.6078 103.52C34.0078 103.253 34.6744 102.186 34.9411 98.0529L35.3411 93.1196H56.8078C77.2078 93.1196 78.1411 93.2529 78.8078 95.7862C79.2078 97.3862 81.2078 99.3862 83.3411 100.586C87.2078 102.586 87.2078 102.586 87.2078 115.786V128.986L82.9411 128.72C79.0744 128.453 78.5411 128.853 78.5411 131.786C78.5411 134.72 79.2078 135.12 83.2078 135.253C85.7411 135.386 91.6078 135.12 96.2744 134.72C103.741 134.186 104.541 133.786 104.541 130.986C104.541 128.453 103.741 127.92 99.7411 127.52L95.0744 127.12L94.5411 114.72C94.2744 108.053 94.5411 102.453 95.0744 102.453C96.4078 102.453 101.474 97.6529 102.808 95.1196C103.741 93.5196 108.141 92.8529 124.808 92.1862L145.741 91.3862L146.141 96.5862C146.408 100.986 146.941 101.653 149.208 101.386C150.674 101.12 152.141 100.32 152.541 99.7862C152.941 99.2529 153.074 93.2529 152.808 86.4529C152.408 74.8529 152.274 74.3196 149.474 74.7196C147.208 74.9862 146.408 76.1862 146.141 80.0529C145.874 83.7862 145.074 85.1196 143.474 85.1196C142.274 85.1196 132.808 85.5196 122.541 85.9196L103.874 86.7196L101.474 82.4529C100.274 80.0529 98.0078 77.9196 96.5411 77.5196C94.1411 76.8529 93.8744 75.6529 93.8744 64.3196V51.7862H98.5411C102.808 51.7862 103.208 51.5196 103.208 47.7862C103.208 44.4529 102.674 43.7862 100.274 44.0529C98.5411 44.1862 92.5411 44.5862 86.9411 44.7196Z" fill="black"/>
</svg>
