<svg width="540" height="540" viewBox="0 0 540 540" fill="none" xmlns="http://www.w3.org/2000/svg">
<rect x="0.1" y="0.1" width="179.8" height="179.8" fill="white" stroke="#CBCBCB" stroke-width="0.2"/>
<rect x="180.1" y="0.1" width="179.8" height="179.8" fill="white" stroke="#CBCBCB" stroke-width="0.2"/>
<rect x="360.1" y="0.1" width="179.8" height="179.8" fill="white" stroke="#CBCBCB" stroke-width="0.2"/>
<rect x="0.1" y="180.1" width="179.8" height="179.8" fill="white" stroke="#CBCBCB" stroke-width="0.2"/>
<rect x="180.1" y="180.1" width="179.8" height="179.8" fill="white" stroke="#CBCBCB" stroke-width="0.2"/>
<rect x="360.1" y="180.1" width="179.8" height="179.8" fill="white" stroke="#CBCBCB" stroke-width="0.2"/>
<rect x="0.1" y="360.1" width="179.8" height="179.8" fill="white" stroke="#CBCBCB" stroke-width="0.2"/>
<rect x="180.1" y="360.1" width="179.8" height="179.8" fill="white" stroke="#CBCBCB" stroke-width="0.2"/>
<rect x="360.1" y="360.1" width="179.8" height="179.8" fill="white" stroke="#CBCBCB" stroke-width="0.2"/>
<path d="M442.4 34.9334L394 35.3334V57.7334C394 70.0001 394.4 94.8001 394.933 112.933L395.733 145.733L449.867 145.067C479.6 144.667 504.4 144 504.8 143.467C505.333 143.067 505.333 118.267 504.933 88.2667L504.267 34.0001L497.467 34.2667C493.733 34.5334 468.933 34.8001 442.4 34.9334ZM499.067 90.2667L499.333 139.333L459.067 139.467C436.8 139.467 414.933 139.733 410.4 140.267C404 140.8 401.867 140.533 401.467 139.2C400.533 136.133 399.333 42.5334 400.133 41.6001C400.667 41.0667 422.933 40.9334 449.867 41.0667L498.667 41.3334L499.067 90.2667Z" fill="black"/>
<path d="M442.8 67.1997C440.933 71.4663 439.333 75.8663 439.333 76.933C439.333 78.133 435.467 80.3997 429.333 82.6663C417.467 87.1997 416.4 89.8663 425.067 93.0663C428.133 94.2663 432.8 95.733 435.2 96.2663C438.8 97.1997 440.133 98.3997 440.933 101.466C442.533 107.6 448 117.333 449.867 117.333C451.867 117.333 457.867 104.133 458 99.5997C458 97.9997 458.8 96.6663 459.867 96.6663C460.933 96.6663 465.467 95.0663 469.867 93.1997C480.533 88.533 480.667 85.9997 470.4 82.2663C466.133 80.7997 461.467 79.333 460 79.0663C458.4 78.7997 457.2 77.1997 456.667 74.6663C455.333 68.6663 450.133 59.333 448.133 59.333C447.2 59.333 444.8 62.7997 442.8 67.1997ZM451.333 71.333C454.667 77.9997 454.667 79.5997 451.2 81.733C448.8 83.1997 448 83.1997 445.867 81.1997C444.533 79.9997 443.333 78.133 443.333 77.333C443.333 75.1997 447.2 65.9997 448 65.9997C448.267 65.9997 449.867 68.3997 451.333 71.333ZM466.4 84.7997C469.067 85.733 471.333 87.0663 471.333 87.733C471.333 89.0663 462.933 92.6663 459.867 92.6663C458.533 92.6663 456.4 91.5997 455.067 90.3997C452.667 88.2663 452.667 88.133 455.6 85.0663C457.2 83.333 459.2 82.133 460 82.3997C460.667 82.6663 463.6 83.733 466.4 84.7997ZM442.667 85.9997C445.067 88.6663 445.067 88.7997 442.533 91.333C440 93.8663 439.6 93.8663 432.933 91.9997C429.067 90.7997 426 89.4663 426 88.7997C426 87.333 434.133 83.4663 437.467 83.4663C438.933 83.333 441.333 84.533 442.667 85.9997ZM451.467 93.9997C454.267 95.5997 454.667 99.5997 452.533 105.866C450.8 110.933 449.333 111.066 446.8 106.266C444.133 100.933 443.733 97.333 445.867 94.933C448 92.2663 448.133 92.2663 451.467 93.9997Z" fill="black"/>
<path d="M254.217 37.201C209.417 50.401 200.75 110.401 239.95 135.334C249.683 141.601 258.217 144.001 270.083 144.001C301.017 144.001 324.483 120.801 324.75 90.2676C324.883 71.8676 318.083 57.4676 303.817 46.5343C289.817 35.7343 270.883 32.2676 254.217 37.201ZM287.95 44.1343C297.683 47.7343 309.55 58.6676 314.617 68.9343C318.217 75.8676 318.617 78.001 318.617 89.3343C318.617 100.268 318.083 103.068 315.017 109.601C310.483 119.468 300.083 129.868 290.217 134.401C283.683 137.468 280.883 138.001 269.95 138.001C258.617 138.001 256.483 137.601 249.283 134.001C221.15 120.134 212.083 86.001 229.817 61.0676C235.283 53.4676 244.75 46.401 253.683 43.201C261.55 40.401 279.283 40.801 287.95 44.1343Z" fill="black"/>
<path d="M264.483 62.2673C263.683 64.4006 262.35 68.934 261.417 72.4006C259.817 78.534 259.417 79.0673 253.017 81.2006C245.283 83.8673 239.283 87.4673 239.283 89.4673C239.283 91.2006 249.017 95.4673 255.683 96.6673C258.75 97.334 260.617 98.4007 260.617 99.6007C260.617 103.734 267.683 117.334 269.817 117.334C271.95 117.334 277.95 104.401 277.95 99.6007C277.95 98.4007 278.75 97.334 279.683 97.334C280.483 97.334 285.017 95.6006 289.683 93.334C300.75 88.134 300.483 85.734 287.95 81.6006L278.483 78.4006L274.083 68.534C269.283 58.0006 266.75 56.4006 264.483 62.2673ZM272.083 72.6673C274.217 78.4006 274.217 78.8006 271.95 81.334C269.817 83.734 269.417 83.734 266.483 81.734C264.75 80.6673 263.283 78.934 263.283 77.8673C263.283 74.6673 267.55 65.334 268.617 66.0006C269.283 66.4006 270.75 69.334 272.083 72.6673ZM262.35 85.734C263.95 88.2673 264.083 89.2006 262.483 91.2006C261.15 93.2006 259.817 93.4673 255.683 92.6673C252.883 92.134 249.55 91.2006 248.083 90.4006C245.683 89.0673 245.95 88.6673 251.417 85.8673C258.883 82.0006 259.817 82.0006 262.35 85.734ZM286.483 84.6673C289.15 85.734 291.283 87.2006 291.283 87.8673C291.283 88.934 281.15 93.334 278.617 93.334C275.95 93.334 273.817 88.134 275.283 85.334C277.017 82.134 279.95 82.0006 286.483 84.6673ZM273.683 101.734C273.017 104.134 272.083 107.067 271.683 108.267C270.483 112.267 268.617 110.934 265.817 104.401L263.15 98.2673L266.083 95.0673L269.15 92.0006L272.083 94.8006C274.617 97.2006 274.883 98.134 273.683 101.734Z" fill="black"/>
<path d="M84.6667 65.7997C83.6 68.4663 82 72.8663 81.2 75.7997C80.2667 78.5997 78.9333 80.9997 78.1333 80.9997C74.8 80.9997 60 88.9997 60 90.733C60 92.4663 71.6 97.533 77.7333 98.5997C79.2 98.8663 80.9333 101 82 103.666C85.8667 114.6 88.1333 118.333 90.4 118.333C93.2 118.333 96.9333 111.4 98.1333 103.666C98.8 99.933 99.7333 98.333 101.2 98.333C104.533 98.333 120 90.5997 120 88.9997C120 87.2663 109.067 82.333 102.933 81.3997C99.7333 80.8663 98.4 79.7997 97.7333 77.133C96.2667 70.9997 90.6667 60.9997 88.6667 60.9997C87.6 60.9997 85.8667 63.133 84.6667 65.7997ZM92.6667 73.7997C94.9333 79.7997 94.9333 80.0663 92.4 82.5997C90 84.8663 89.3333 84.9997 86.8 83.533C85.3333 82.4663 84 80.733 84 79.533C84 76.4663 87.8667 67.6663 89.2 67.6663C89.7333 67.6663 91.3333 70.4663 92.6667 73.7997ZM105.733 85.7997C109.2 86.9997 112 88.4663 112 89.133C112 90.733 103.733 94.333 100.267 94.333C98.8 94.333 96.9333 93.3997 96 92.333C94.6667 90.733 94.8 89.6663 96.5333 86.9997C99.0667 82.9997 98.1333 83.133 105.733 85.7997ZM83.3333 87.6663C85.7333 90.333 85.7333 90.4663 83.0667 93.2663C80.4 95.933 80.1333 95.933 73.4667 93.6663C69.7333 92.4663 66.6667 90.9997 66.6667 90.5997C66.6667 89.3997 75.8667 85.2663 78.8 85.133C80 84.9997 82 86.1997 83.3333 87.6663ZM94.8 98.8663C95.8667 100.2 92.4 111.266 90.6667 112.333C90.1333 112.733 88.2667 109.8 86.6667 106.066L83.7333 99.133L86.6667 96.733C89.7333 94.333 92 94.8663 94.8 98.8663Z" fill="black"/>
<path d="M400.533 215.934L394 216.467L394.8 260.067C395.333 284.067 395.733 308.6 395.733 314.6V325.667H428.133C445.867 325.667 470.667 325.267 483.067 324.734L505.733 323.934L505.6 313.134C505.6 307.134 505.333 282.734 505.333 258.6L505.067 215L456.133 215.267C429.067 215.4 404.133 215.667 400.533 215.934ZM499.467 269.934L499.733 319H492.133C487.867 319 465.6 319.4 442.8 319.8L401.067 320.6L400.933 275.534C400.8 250.6 400.667 228.467 400.533 226.334L400.4 222.334L427.733 221.667C442.8 221.267 464.933 221 477.067 221H499.067L499.467 269.934Z" fill="black"/>
<path d="M434.667 255.401C427.2 262.868 421.067 269.668 421.067 270.334C421.067 272.468 448.267 299.001 450.4 299.001C452.667 299.001 479.733 272.468 479.733 270.334C479.733 268.201 452.533 241.668 450.4 241.668C449.2 241.668 442.267 247.801 434.667 255.401Z" fill="black"/>
<path d="M255.468 217.401C231.068 225.535 215.868 245.801 216.001 270.335C216.001 292.468 227.334 309.935 247.468 319.135C275.068 331.801 307.868 320.201 320.534 293.401C324.534 284.868 324.801 283.401 324.801 269.668C324.801 255.801 324.534 254.468 320.534 246.201C315.068 235.135 305.734 226.201 293.734 220.601C286.134 217.001 283.068 216.335 272.801 216.068C265.468 215.801 258.801 216.335 255.468 217.401ZM290.134 225.535C301.468 230.735 308.668 237.268 314.401 247.401C319.334 256.068 319.468 256.735 319.468 269.668C319.468 281.535 319.068 283.801 315.868 290.335C311.201 299.801 301.601 309.401 292.134 314.068C285.601 317.268 283.334 317.668 270.801 317.668C258.134 317.668 256.001 317.268 249.201 313.935C222.134 300.735 213.334 267.801 230.001 243.268C243.601 223.268 268.934 215.801 290.134 225.535Z" fill="black"/>
<path d="M255.601 255.534C245.201 265.934 241.468 270.467 242.268 271.8C244.268 275 270.268 299.667 271.601 299.667C273.601 299.667 300.134 272.467 300.134 270.334C300.134 268.2 273.601 241 271.468 241C270.668 241 263.601 247.534 255.601 255.534Z" fill="black"/>
<path d="M74.7333 254.866C67.1333 262.6 61 269.4 61 270.2C61 271.533 88.2 298.6 90.3333 299.4C91.9333 300.066 119.667 271.266 119.667 268.733C119.667 266.066 93.1333 241 90.3333 241C89.2667 241 82.2 247.266 74.7333 254.866Z" fill="black"/>
<path d="M254.409 398.14C233.076 405.874 219.476 421.874 216.542 442.674C212.009 476.007 236.409 503.874 270.409 504.14C284.409 504.274 294.142 501.34 304.009 494.007C312.676 487.74 315.476 484.407 320.942 473.74C325.476 464.94 326.676 457.74 325.609 444.807C323.876 425.474 312.276 409.074 294.009 400.407C283.876 395.607 264.676 394.54 254.409 398.14ZM289.876 405.207C300.676 409.34 310.009 418.14 315.342 428.94C319.342 437.074 319.742 438.807 319.742 450.54C319.742 461.34 319.209 464.274 316.276 470.54C298.676 507.874 244.409 508.007 226.142 470.807C222.809 464.14 222.409 461.74 222.409 450.54C222.409 439.607 222.942 436.807 226.009 430.274C229.876 422.007 240.009 410.807 246.809 407.34C259.609 400.807 276.409 399.874 289.876 405.207Z" fill="black"/>
<path d="M268.142 436.807L267.742 448.273L256.675 448.007C245.742 447.74 245.475 447.74 246.009 450.807C246.409 453.607 247.075 453.873 255.742 454.007C260.942 454.007 265.742 454.14 266.675 454.273C267.742 454.407 268.409 458.273 268.675 465.473C269.075 475.473 269.342 476.54 271.742 476.54C274.142 476.54 274.409 475.607 274.409 465.207V453.873L285.075 453.473C294.942 453.073 298.675 451.74 296.942 448.94C296.542 448.407 291.209 447.873 284.942 447.873H273.742V436.54C273.742 426.14 273.475 425.207 271.075 425.207C268.809 425.207 268.542 426.273 268.142 436.807Z" fill="black"/>
<path d="M87.7973 436V448H75.664C64.864 448 63.664 448.267 64.064 450.267C64.464 452.267 66.3307 452.667 76.1973 453.067L87.7973 453.467V464.667C87.7973 475.067 88.064 476 90.464 476C92.864 476 93.1307 475.067 93.1307 464.667V453.333H104.464C113.664 453.333 116.064 452.933 116.731 451.2C117.931 447.867 115.131 447.067 103.797 447.733L93.1307 448.4V436.133C93.1307 424.933 92.9973 424 90.464 424C87.9307 424 87.7973 424.933 87.7973 436Z" fill="black"/>
<path d="M436.909 459.909V459.636C436.939 456.742 437.242 454.439 437.818 452.727C438.394 451.015 439.212 449.629 440.273 448.568C441.333 447.508 442.606 446.53 444.091 445.636C444.985 445.091 445.788 444.447 446.5 443.705C447.212 442.947 447.773 442.076 448.182 441.091C448.606 440.106 448.818 439.015 448.818 437.818C448.818 436.333 448.47 435.045 447.773 433.955C447.076 432.864 446.144 432.023 444.977 431.432C443.811 430.841 442.515 430.545 441.091 430.545C439.848 430.545 438.652 430.803 437.5 431.318C436.348 431.833 435.386 432.644 434.614 433.75C433.841 434.856 433.394 436.303 433.273 438.091H427.545C427.667 435.515 428.333 433.311 429.545 431.477C430.773 429.644 432.386 428.242 434.386 427.273C436.402 426.303 438.636 425.818 441.091 425.818C443.758 425.818 446.076 426.348 448.045 427.409C450.03 428.47 451.561 429.924 452.636 431.773C453.727 433.621 454.273 435.727 454.273 438.091C454.273 439.758 454.015 441.265 453.5 442.614C453 443.962 452.273 445.167 451.318 446.227C450.379 447.288 449.242 448.227 447.909 449.045C446.576 449.879 445.508 450.758 444.705 451.682C443.902 452.591 443.318 453.674 442.955 454.932C442.591 456.189 442.394 457.758 442.364 459.636V459.909H436.909ZM439.818 473.364C438.697 473.364 437.735 472.962 436.932 472.159C436.129 471.356 435.727 470.394 435.727 469.273C435.727 468.152 436.129 467.189 436.932 466.386C437.735 465.583 438.697 465.182 439.818 465.182C440.939 465.182 441.902 465.583 442.705 466.386C443.508 467.189 443.909 468.152 443.909 469.273C443.909 470.015 443.72 470.697 443.341 471.318C442.977 471.939 442.485 472.439 441.864 472.818C441.258 473.182 440.576 473.364 439.818 473.364Z" fill="black"/>
</svg>
