<svg width="180" height="180" viewBox="0 0 180 180" fill="none" xmlns="http://www.w3.org/2000/svg">
<rect x="0.1" y="0.1" width="179.8" height="179.8" fill="white" stroke="#CBCBCB" stroke-width="0.2"/>
<path d="M74.9333 37.3042C60.6667 40.1042 45.2 52.7709 38.2667 67.4376C34.4 75.7042 34 77.5709 34 89.8376C34 102.104 34.4 103.971 38.2667 112.104C43.7333 123.571 52.8 132.771 64.6667 138.638C73.4667 142.904 74.5333 143.171 88.6667 143.171C102.4 143.171 103.867 142.904 112.267 138.904C123.2 133.838 131.6 126.104 136.533 117.038C160 74.1042 124 27.5709 74.9333 37.3042ZM100.667 43.3042C110.267 45.7042 117.6 49.8376 124.4 56.6376C150.667 83.0376 138.533 125.971 101.867 136.638C78 143.571 50.4 129.571 41.8667 106.371C39.0667 98.7709 38.6667 80.7709 41.2 74.5042C47.8667 58.2376 62.5333 45.8376 78.6667 42.6376C87.7333 40.9042 92 41.0376 100.667 43.3042Z" fill="black"/>
<path d="M86.0001 66.5043C85.4667 67.3043 85.3334 72.2377 85.4667 77.571L85.7334 87.171L74.2667 87.571C63.8667 87.8377 62.6667 88.2377 62.6667 90.5043C62.6667 92.771 63.8667 93.171 74.4001 93.4377L86.0001 93.8377L86.1334 104.504C86.2667 114.238 86.5334 115.171 89.2001 115.571C91.8667 115.971 92.0001 115.438 92.0001 104.638V93.171H103.333C113.733 93.171 114.667 92.9043 114.667 90.5043C114.667 88.1043 113.733 87.8377 103.333 87.8377H92.0001V76.5043C92.0001 66.2377 91.7334 65.171 89.4667 65.171C88.0001 65.171 86.4001 65.8377 86.0001 66.5043Z" fill="black"/>
</svg>
