<svg width="180" height="180" viewBox="0 0 180 180" fill="none" xmlns="http://www.w3.org/2000/svg">
<rect x="0.1" y="0.1" width="179.8" height="179.8" fill="white" stroke="#CBCBCB" stroke-width="0.2"/>
<path d="M86.6667 76.1337V88.4003L80 87.467C70.6667 86.267 64 87.6003 64 90.8003C64 93.067 65.0667 93.3337 75.3333 93.3337H86.5333L86.9333 104.267C87.3333 114.8 87.4667 115.334 90.5333 115.734C93.6 116.267 93.6 116.134 93.2 105.067L92.6667 94.0003L104.4 93.6003C115.733 93.2003 116.133 93.067 115.733 90.267C115.333 87.467 114.667 87.3337 104 87.3337H92.6667L92.2667 75.6003C91.8667 65.067 91.6 64.0003 89.3333 64.0003C86.9333 64.0003 86.6667 64.9337 86.6667 76.1337Z" fill="black"/>
</svg>
