<svg width="180" height="180" viewBox="0 0 180 180" fill="none" xmlns="http://www.w3.org/2000/svg">
<rect x="0.1" y="0.1" width="179.8" height="179.8" fill="white" stroke="#CBCBCB" stroke-width="0.2"/>
<path d="M34.8 63.5996C35.2 79.9996 35.4667 104.666 35.4667 118.533L35.6 143.6L90.6667 142.933C120.8 142.533 145.733 142.133 146 142.133C146.533 142 145.867 54.7996 145.2 43.5996L144.667 33.9996H89.3333H34L34.8 63.5996ZM138.8 40.5329C139.2 41.1996 140 63.0663 140.4 89.1996L141.333 136.666L92.1333 136.933C65.0667 137.2 42.5333 137.066 42.1333 136.666C41.0667 135.866 39.7333 40.9329 40.6667 39.9996C41.8667 38.7996 138.133 39.3329 138.8 40.5329Z" fill="black"/>
<path d="M75.2 73.1993C67.3333 80.7993 60.9333 87.5993 60.9333 88.3993C60.9333 90.1327 89.0667 116.666 90.9334 116.666C93.0667 116.666 119.6 90.7993 119.6 88.666C119.6 86.3993 93.0667 59.3327 90.9334 59.3327C90.1334 59.3327 83.0667 65.5993 75.2 73.1993Z" fill="black"/>
</svg>
