<svg width="180" height="180" viewBox="0 0 180 180" fill="none" xmlns="http://www.w3.org/2000/svg">
<rect x="0.1" y="0.1" width="179.8" height="179.8" fill="white" stroke="#CBCBCB" stroke-width="0.2"/>
<path d="M55.8667 35.1998L34 35.5998L34.8 85.1998C35.3333 112.4 35.7333 137.066 35.7333 139.866V145.066L82.8 144.666C108.667 144.4 130.667 144.8 131.6 145.333C132.533 146 134 145.733 134.8 144.933C135.6 144.133 138.267 143.466 140.667 143.466H145.067V88.7998V33.9998L111.467 34.3998C92.9333 34.6664 67.8667 34.9331 55.8667 35.1998ZM138.8 58.6664C139.333 69.0664 139.733 91.0664 139.733 107.6V137.733L108.8 138.533C91.7333 139.066 69.4667 139.466 59.4667 139.466H41.0667V90.1331V40.7998L78.1333 40.5331C98.4 40.2664 120.267 40.1331 126.533 39.9998L138 39.8664L138.8 58.6664Z" fill="black"/>
<path d="M87.4667 75.0668L87.0667 86.8001L75.3333 87.2001C65.0667 87.4668 63.6 87.8668 64 89.8668C64.4 91.7335 66.4 92.1335 76.1333 92.5335L87.7333 92.9335V104.133C87.7333 114.533 88 115.467 90.4 115.467C92.8 115.467 93.0667 114.533 93.0667 104.133V92.8001H104.4H115.733V89.3335V85.7335L104.4 86.6668L93.2 87.6001L92.8 75.8668C92.4 66.1335 92 64.1335 90.1333 63.7335C88.1333 63.3335 87.7333 64.8001 87.4667 75.0668Z" fill="black"/>
</svg>
