<svg width="180" height="180" viewBox="0 0 180 180" fill="none" xmlns="http://www.w3.org/2000/svg">
<rect x="0.1" y="0.1" width="179.8" height="179.8" fill="white" stroke="#CBCBCB" stroke-width="0.2"/>
<path d="M74.9061 37.443C55.8394 43.5763 44.9061 53.843 38.1061 71.7097C31.5727 89.043 35.5727 110.643 47.9727 124.376C75.1727 154.643 122.506 149.31 140.239 113.976C144.639 105.31 144.906 104.243 144.906 90.243C144.906 76.5097 144.639 75.043 140.639 66.5097C129.039 42.1097 100.106 29.3097 74.9061 37.443ZM108.773 44.243C117.439 47.5763 129.439 57.843 134.106 66.1097C141.173 78.3763 141.839 96.9097 135.706 110.243C131.573 119.31 121.439 129.176 110.906 134.11C103.173 137.843 100.906 138.243 90.2394 138.243C79.5727 138.11 77.3061 137.71 69.4394 133.843C49.3061 124.11 37.1727 101.843 41.3061 82.1097C43.5727 71.043 47.8394 63.1763 55.8394 55.1763C63.4394 47.5763 68.9061 44.643 80.2394 42.243C89.8394 40.1097 99.4394 40.7763 108.773 44.243Z" fill="black"/>
<path d="M75.1728 73.9759C67.7061 81.4425 61.5728 88.5092 61.5728 89.7092C61.5728 90.7759 67.9728 97.8425 75.7061 105.443C86.7728 116.243 90.2394 118.909 91.9728 118.109C95.0394 116.509 120.239 90.3759 120.239 88.7759C120.239 86.9092 92.6394 60.2425 90.6394 60.2425C89.7061 60.2425 82.7728 66.3759 75.1728 73.9759Z" fill="black"/>
</svg>
