<svg width="540" height="540" viewBox="0 0 540 540" fill="none" xmlns="http://www.w3.org/2000/svg">
<rect x="0.1" y="0.1" width="179.8" height="179.8" fill="white" stroke="#CBCBCB" stroke-width="0.2"/>
<rect x="180.1" y="0.1" width="179.8" height="179.8" fill="white" stroke="#CBCBCB" stroke-width="0.2"/>
<rect x="360.1" y="0.1" width="179.8" height="179.8" fill="white" stroke="#CBCBCB" stroke-width="0.2"/>
<rect x="0.1" y="180.1" width="179.8" height="179.8" fill="white" stroke="#CBCBCB" stroke-width="0.2"/>
<rect x="180.1" y="180.1" width="179.8" height="179.8" fill="white" stroke="#CBCBCB" stroke-width="0.2"/>
<rect x="360.1" y="180.1" width="179.8" height="179.8" fill="white" stroke="#CBCBCB" stroke-width="0.2"/>
<rect x="0.1" y="360.1" width="179.8" height="179.8" fill="white" stroke="#CBCBCB" stroke-width="0.2"/>
<rect x="180.1" y="360.1" width="179.8" height="179.8" fill="white" stroke="#CBCBCB" stroke-width="0.2"/>
<rect x="360.1" y="360.1" width="179.8" height="179.8" fill="white" stroke="#CBCBCB" stroke-width="0.2"/>
<path d="M444.909 459.909V459.636C444.939 456.742 445.242 454.439 445.818 452.727C446.394 451.015 447.212 449.629 448.273 448.568C449.333 447.508 450.606 446.53 452.091 445.636C452.985 445.091 453.788 444.447 454.5 443.705C455.212 442.947 455.773 442.076 456.182 441.091C456.606 440.106 456.818 439.015 456.818 437.818C456.818 436.333 456.47 435.045 455.773 433.955C455.076 432.864 454.144 432.023 452.977 431.432C451.811 430.841 450.515 430.545 449.091 430.545C447.848 430.545 446.652 430.803 445.5 431.318C444.348 431.833 443.386 432.644 442.614 433.75C441.841 434.856 441.394 436.303 441.273 438.091H435.545C435.667 435.515 436.333 433.311 437.545 431.477C438.773 429.644 440.386 428.242 442.386 427.273C444.402 426.303 446.636 425.818 449.091 425.818C451.758 425.818 454.076 426.348 456.045 427.409C458.03 428.47 459.561 429.924 460.636 431.773C461.727 433.621 462.273 435.727 462.273 438.091C462.273 439.758 462.015 441.265 461.5 442.614C461 443.962 460.273 445.167 459.318 446.227C458.379 447.288 457.242 448.227 455.909 449.045C454.576 449.879 453.508 450.758 452.705 451.682C451.902 452.591 451.318 453.674 450.955 454.932C450.591 456.189 450.394 457.758 450.364 459.636V459.909H444.909ZM447.818 473.364C446.697 473.364 445.735 472.962 444.932 472.159C444.129 471.356 443.727 470.394 443.727 469.273C443.727 468.152 444.129 467.189 444.932 466.386C445.735 465.583 446.697 465.182 447.818 465.182C448.939 465.182 449.902 465.583 450.705 466.386C451.508 467.189 451.909 468.152 451.909 469.273C451.909 470.015 451.72 470.697 451.341 471.318C450.977 471.939 450.485 472.439 449.864 472.818C449.258 473.182 448.576 473.364 447.818 473.364Z" fill="black"/>
<path d="M208.533 21.9339L200 22.4672L201.067 90.0672C201.467 127.267 202.267 157.934 202.533 158.334C203.333 159.267 337.867 158.201 339.467 157.401C340 157.001 340.267 143.934 339.733 128.467C339.333 113.001 338.933 82.4672 338.933 60.6005V21.0005L278 21.2672C244.4 21.4005 213.2 21.6672 208.533 21.9339ZM262.933 25.2672C262.933 26.2005 206.133 83.8005 205.333 83.6672C204.667 83.6672 204.267 70.4672 204.267 54.3339V25.0005H233.6C249.733 25.0005 262.933 25.1339 262.933 25.2672ZM334.933 54.6005V84.0672L318.667 68.0672C309.6 59.2672 296.4 46.4672 289.333 39.5339C282.133 32.4672 276.267 26.4672 276.267 25.9339C276.267 25.4005 289.467 25.0005 305.6 25.0005H334.933V54.6005ZM301.867 59.0005L333.333 89.6672L302 121.534L270.8 153.401L261.867 144.601C256.933 139.801 242.4 125.667 229.6 113.267L206.267 90.6005L236.933 59.2672C253.867 42.0672 268.267 28.0672 269.067 28.0672C269.867 28.2005 284.667 42.0672 301.867 59.0005ZM336.133 124.867C336.267 140.201 335.867 153.134 335.2 153.534C334.533 153.934 321.2 154.601 305.6 155.134C284.8 155.801 277.333 155.667 277.733 154.601C278.667 151.801 333.867 95.6672 334.933 96.3339C335.467 96.7339 336.133 109.534 336.133 124.867ZM235.467 125.534C251.333 140.734 264.267 153.801 264.267 154.467C264.267 155.134 251.2 155.667 235.067 155.667C209.733 155.667 205.733 155.401 205.067 153.534C203.733 150.067 204.133 96.7339 205.467 97.2672C206.133 97.4005 219.6 110.201 235.467 125.534Z" fill="black"/>
<path d="M214.8 32.0673C211.733 34.334 209.6 39.0007 209.6 43.0007C209.6 47.8007 216.267 54.334 221.2 54.334C231.867 54.334 237.2 40.6007 229.6 33.0007C226.533 29.934 218.267 29.4007 214.8 32.0673Z" fill="black"/>
<path d="M314 30.6018C305.2 32.8684 302.933 42.4684 309.467 49.1351C313.867 53.4018 318.4 54.0684 324.133 51.0018C328.267 48.8684 329.6 46.6018 329.6 41.1351C329.6 33.5351 322.133 28.4684 314 30.6018Z" fill="black"/>
<path d="M280.267 138.335C280.267 139.001 280.933 139.668 281.733 139.668C282.4 139.668 282.667 139.001 282.267 138.335C281.867 137.535 281.2 137.001 280.8 137.001C280.533 137.001 280.267 137.535 280.267 138.335Z" fill="black"/>
<path d="M309.733 129.535C306 133.535 305.6 141.402 308.933 145.002C310.267 146.468 313.333 148.068 315.867 148.468C327.6 150.735 334.8 137.802 326.8 129.135C322.933 125.002 313.733 125.268 309.733 129.535Z" fill="black"/>
<path d="M214.267 129.667C207.733 136.067 210.8 147.534 219.6 149.801C223.733 150.867 230.533 148.201 232.267 144.867C234.533 140.867 233.733 133.534 230.8 129.801C227.067 125.001 218.933 124.867 214.267 129.667Z" fill="black"/>
<path d="M380.3 23.134C379.9 24.334 379.9 41.534 380.3 61.4006C380.833 81.4006 381.233 111.267 381.233 127.934V158.334H449.9H518.433L518.833 123.934C519.1 105.134 519.1 74.2006 518.833 55.2673L518.433 21.0006H449.767C388.3 21.0006 381.1 21.2673 380.3 23.134ZM445.233 25.4006C445.233 25.534 431.5 39.534 414.567 56.334L383.9 87.0006V55.934V25.0006H414.567C431.5 25.0006 445.233 25.134 445.233 25.4006ZM514.967 53.2673C515.367 68.8673 515.233 82.0673 514.7 82.6006C514.3 83.134 500.7 70.4673 484.567 54.334L455.233 25.0006H484.7H514.167L514.967 53.2673ZM482.433 58.8673C510.967 87.534 513.5 90.2006 511.767 92.4673C507.767 97.934 452.7 153.001 451.367 153.001C450.567 152.867 435.767 139.001 418.3 121.934L386.833 91.0006L417.633 59.4006C434.7 41.934 449.233 27.8006 449.9 27.6673C450.7 27.6673 465.233 41.6673 482.433 58.8673ZM414.7 124.601C430.7 140.467 443.9 154.067 443.9 154.601C443.9 155.267 430.567 155.534 414.3 155.401L384.567 155.001L384.167 125.267C384.033 109.001 384.167 95.6673 384.7 95.6673C385.1 95.6673 398.7 108.734 414.7 124.601ZM515.9 126.467V154.334H504.967C498.833 154.467 486.3 154.734 477.1 155.134C467.5 155.534 459.9 155.401 459.5 154.734C458.433 153.134 513.1 96.8673 514.7 97.8006C515.367 98.2006 515.9 111.001 515.9 126.467Z" fill="black"/>
<path d="M439.233 66.8686C433.9 69.1353 427.233 76.8686 425.233 83.002C420.033 98.8686 433.233 117.002 449.9 117.002C461.233 116.869 472.966 107.802 475.9 96.8686C478.833 85.9353 472.966 73.002 462.566 67.6686C456.433 64.602 445.366 64.202 439.233 66.8686ZM461.366 71.1353C473.766 77.402 476.3 95.5353 466.433 105.802C449.366 123.402 420.166 104.469 429.766 81.9353C434.833 69.9353 449.5 65.002 461.366 71.1353Z" fill="black"/>
<path d="M38.6667 29.9594C33.3333 31.2927 30 35.826 30 41.826C30 46.4927 30.6667 48.0927 34.1333 50.8927C36.4 52.7594 39.3333 54.3594 40.6667 54.3594C47.4667 54.3594 54 47.826 54 41.1594C54 37.826 47.7333 30.7594 44 29.9594C42.5333 29.6927 40.1333 29.6927 38.6667 29.9594Z" fill="black"/>
<path d="M128.533 32.8914C124.267 37.2914 123.733 40.6247 126.667 46.2247C128.933 50.6247 131.067 51.6914 137.867 51.6914C148.267 51.6914 153.333 38.8914 145.467 32.2247C140.267 27.6914 133.6 27.9581 128.533 32.8914Z" fill="black"/>
<path d="M77.3333 66.2256C60.9333 73.6923 56.9333 94.2256 69.2 107.559C80.9333 120.226 102 118.092 110.667 103.159C114.533 96.4923 115.2 84.6256 112.133 78.6256C105.333 65.6923 90.1333 60.3589 77.3333 66.2256ZM97.8666 70.0923C105.333 73.8256 110.267 81.0256 110.4 88.6256C110.933 108.626 89.0666 119.559 74 106.759C66.5333 100.492 63.8666 90.6256 67.4666 81.4256C71.8666 69.6923 86.5333 64.2256 97.8666 70.0923Z" fill="black"/>
<path d="M36.8 126.893C32.8 129.159 30.1333 133.959 30 138.759C30 144.093 36.5333 150.359 42 150.359C48 150.359 54 144.093 54 137.826C54 128.893 44.1333 122.626 36.8 126.893Z" fill="black"/>
<path d="M130.267 128.358C124.533 133.158 124.267 140.758 129.467 144.892C137.733 151.425 150 146.358 150 136.625C150 130.225 146.4 126.358 139.867 125.425C135.467 124.892 133.867 125.292 130.267 128.358Z" fill="black"/>
<path d="M415 235.089C395.4 254.822 381 270.289 381 271.756C381 273.089 391.8 284.556 406.733 298.822C444.467 335.222 448.333 338.822 450.467 338.822C452.867 338.822 518.333 273.489 518.333 271.089C518.333 270.156 503.133 254.422 484.733 236.289C466.2 218.022 450.467 202.556 449.933 202.022C449.4 201.356 433.667 216.289 415 235.089ZM493.4 268.289C484.733 268.689 477.267 268.822 476.733 268.556C476.2 268.289 475.133 265.622 474.333 262.689C472.067 254.556 464.867 247.356 457 245.356L450.333 243.622V226.289V208.822L479.667 238.156L509 267.489L493.4 268.289ZM447.133 226.956L447 243.089L440.067 245.756C431.933 248.689 427.267 253.756 424.067 262.822L421.667 269.489H405.4C396.333 269.489 389 269.089 389 268.556C389 266.956 444.2 211.222 445.933 211.089C447 210.822 447.4 215.489 447.133 226.956ZM447 258.822V268.822L437.8 269.222C432.867 269.489 428.067 269.089 427.4 268.422C424.2 265.222 433.4 252.156 441 249.089C446.067 247.089 447 248.556 447 258.822ZM461.933 252.022C467 255.756 472.6 265.489 471 268.156C470.6 268.689 465.933 269.089 460.733 268.956L451 268.822L450.6 258.422C450.2 248.422 450.333 248.156 453.4 248.156C455.133 248.156 459 249.889 461.933 252.022ZM423.133 274.422C427 286.556 433.667 293.622 443 295.356L447.667 296.289V313.756V331.222L444.067 328.022C439.8 324.289 440.333 324.822 411.267 296.289C399 284.289 389 273.889 389 273.356C389 272.689 396.467 272.156 405.667 272.156C420.467 272.156 422.467 272.422 423.133 274.422ZM447.4 282.422C447.8 293.622 446.867 294.289 437.667 289.089C432.333 286.156 425.533 275.889 427.133 273.222C427.533 272.556 432.2 272.156 437.4 272.422L447 272.822L447.4 282.422ZM470.867 273.356C472.467 275.889 465.533 286.156 460.333 289.089C451.267 294.156 450.333 293.622 450.333 283.089C450.333 278.022 450.733 273.489 451.267 273.089C452.467 271.756 470.067 272.022 470.867 273.356ZM510.333 273.089C510.333 274.422 452.6 332.156 451.4 332.156C450.733 332.156 450.333 324.156 450.333 314.289V296.556L456.6 294.689C464.467 292.556 472.333 284.956 474.333 277.622L475.8 272.156H493C502.6 272.156 510.333 272.556 510.333 273.089Z" fill="black"/>
<path d="M201 202.693C201 203.76 208.2 211.76 217 220.293C225.8 228.96 232.867 236.427 232.733 236.96C232.467 237.493 225.267 245.227 216.733 254.027C208.067 262.96 201 270.827 201 271.36C201 272.027 208.333 279.493 217.267 288.027L233.667 303.627L217.267 319.227C201.933 333.893 198.6 338.16 202.733 338.16C203.667 338.16 211.267 331.227 219.667 322.827C228.067 314.427 235.533 307.493 236.333 307.493C237 307.493 244.733 314.427 253.4 322.827C262.067 331.227 269.8 338.16 270.733 338.16C271.667 338.16 279.267 331.227 287.667 322.827C296.067 314.293 303.667 307.627 304.6 307.76C305.4 308.027 312.733 314.56 320.867 322.427C335 336.027 339.667 339.227 339.667 334.96C339.667 333.893 332.733 326.56 324.333 318.56C315.933 310.427 309 303.36 309 302.693C309 302.027 315.667 294.827 323.667 286.827C331.8 278.827 338.333 271.227 338.333 270.16C338.333 268.96 331.133 260.827 322.333 252.16L306.2 236.293L322.6 219.893C335.533 206.96 338.6 203.227 337.267 201.893C335.933 200.56 332.2 203.627 319 216.827L302.467 233.227L286.867 217.76C278.2 209.227 270.333 202.16 269.4 202.16C268.467 202.16 260.733 209.227 252.333 217.76L237.133 233.493L220.733 217.093C205 201.493 201 198.56 201 202.693ZM285.267 221.76L299.667 236.16L285.4 250.427C277.533 258.427 270.467 264.827 269.667 264.827C268.867 264.827 262.067 258.56 254.467 250.96L240.6 236.96L254.333 222.293C261.8 214.16 268.733 207.493 269.533 207.493C270.333 207.493 277.4 213.893 285.267 221.76ZM252.067 254.693C259.933 262.427 266.333 269.093 266.333 269.493C266.333 270.693 237.533 299.493 236.2 299.493C234.733 299.493 207.667 272.427 207.667 270.96C207.667 269.493 235.667 240.827 237 240.827C237.4 240.827 244.067 247.093 252.067 254.693ZM319 255.493L333.667 270.16L319.133 284.693L304.6 299.36L289.8 285.227C281.667 277.493 274.733 270.56 274.467 269.76C273.933 268.293 301 240.827 303 240.827C303.8 240.827 311 247.36 319 255.493ZM286.067 287.893L301 302.827L285.8 318.027L270.6 333.227L255.8 318.827C247.667 310.827 241 303.627 241 302.96C241 301.493 269 272.827 270.333 272.827C270.733 272.827 277.8 279.627 286.067 287.893Z" fill="black"/>
<path d="M21 203.267C21 204.601 31.5333 215.934 44.4667 228.467L68.0667 251.401L65.5333 259.534L63 267.534L42.4667 267.934C27.4 268.201 21.8 268.734 21.2667 269.934C20.8667 271.267 25.5333 271.667 41.9333 271.667H63L66.3333 279.001L69.8 286.201L45.4 310.601C22.6 333.401 18.4667 338.334 22.7333 338.334C23.6667 338.334 35.4 327.267 48.7333 313.934L73.2667 289.401L80.3333 292.201L87.5333 295.001L87.9333 316.201C88.2 331.801 88.7333 337.534 90.0667 338.067C91.2667 338.467 91.6667 333.534 91.6667 316.734V294.867L98.8667 292.467L106.2 289.934L124.6 307.134C134.733 316.601 143.133 324.601 143.4 325.134C143.667 325.667 146.867 328.601 150.467 331.667C155.267 335.667 157.667 336.867 158.6 335.934C159.667 334.867 158.867 333.401 156.067 330.734C153.933 328.734 142.733 317.801 131.133 306.467L110.2 285.934L112.867 280.467C114.333 277.401 115.8 273.934 116.2 272.601C116.867 270.601 119 270.334 137.667 270.334C165.4 270.334 165.267 267.801 137.4 267.401C117.533 267.001 116.333 266.867 115.933 264.334C115.667 262.867 114.6 259.401 113.4 256.601L111.267 251.534L134.867 227.667C156.333 206.201 160.333 201.001 155.267 201.001C154.467 201.001 143.4 211.667 131 224.601L108.2 248.201L102.2 245.267C98.8667 243.667 95.1333 242.334 93.9333 242.334C91.9333 242.334 91.6667 240.201 91.6667 221.667C91.6667 204.201 91.4 201.001 89.6667 201.001C87.9333 201.001 87.6667 204.201 87.6667 221.667C87.6667 237.934 87.2667 242.334 85.9333 242.334C84.8667 242.334 81.2667 243.801 77.8 245.534L71.6667 248.601L47.2667 224.867C33.9333 211.667 22.6 201.001 22.0667 201.001C21.4 201.001 21 202.067 21 203.267ZM87.6667 255.001C87.6667 259.801 87.4 263.667 87 263.667C85.4 263.667 75.6667 253.801 75.6667 252.201C75.6667 250.201 81.8 246.467 85.4 246.334C87.2667 246.334 87.6667 247.667 87.6667 255.001ZM99.6667 248.334C101.933 249.534 103.667 250.867 103.667 251.401C103.667 251.934 101 255.134 97.6667 258.334L91.6667 264.201V255.267C91.6667 245.401 92.4667 244.601 99.6667 248.334ZM78.3333 261.667L84.2 267.667H75.9333C68.6 267.667 67.6667 267.401 67.6667 265.001C67.6667 262.067 70.3333 255.667 71.6667 255.667C72.0667 255.667 75.1333 258.334 78.3333 261.667ZM110.067 259.001C113.4 266.467 112.467 267.667 103.4 267.667H95.1333L101 261.667C104.2 258.334 107.267 255.667 107.667 255.667C108.2 255.667 109.267 257.134 110.067 259.001ZM111.4 273.801C111.667 275.267 110.6 278.067 109.133 279.801L106.467 283.001L101 277.667L95.5333 272.334L99.9333 271.534C107.533 270.067 111 270.734 111.4 273.801ZM79 277.001C76.2 279.934 73.2667 282.334 72.7333 282.334C71.5333 282.334 67.6667 275.134 67.6667 273.001C67.6667 272.201 71 271.667 75.9333 271.667H84.2L79 277.001ZM87.6667 283.134V290.601L83.4 289.801C76.3333 288.334 75.9333 286.867 81.6667 281.001C84.4667 278.067 87 275.667 87.2667 275.667C87.5333 275.667 87.6667 279.001 87.6667 283.134ZM101.533 287.667C100.867 288.334 98.3333 289.401 95.9333 289.801L91.6667 290.601V282.867V275.001L97.2667 280.601C101 284.467 102.467 286.734 101.533 287.667Z" fill="black"/>
<path d="M247.4 381.877L201 382.144L201.267 449.077C201.267 485.877 201.667 516.811 202.067 517.744C202.867 519.744 232.067 520.011 298.867 518.544L339.933 517.744L339.667 451.077C339.667 414.277 339.267 383.477 338.867 382.544C338.333 381.211 333.4 380.811 315.933 381.077C303.8 381.344 272.867 381.611 247.4 381.877ZM330.467 385.877C330.467 388.677 325.133 391.744 321.667 390.944C312.333 388.544 303.4 397.21 306.6 405.611C307.933 409.211 307.133 410.144 289.267 428.011L270.467 446.811L251.8 428.144L233.267 409.611L234.067 404.011C234.733 399.077 234.333 397.877 231.267 394.81C228.333 391.877 226.733 391.344 221.133 391.61C214.6 392.01 208.2 388.677 209.933 386.01C210.867 384.41 330.467 384.41 330.467 385.877ZM210.867 399.744C209.4 409.077 215.267 414.811 225.533 413.877C230.067 413.477 231.267 414.411 248.333 431.344C258.333 441.211 266.467 449.611 266.467 450.011C266.467 450.544 258.067 459.211 247.933 469.344C231.133 486.144 229 487.744 225.667 487.077C216.6 485.344 208.867 492.944 211.667 500.944C212.733 504.011 212.333 505.077 209.667 507.611C207.933 509.211 206.2 510.277 205.933 510.011C205.4 509.611 204.6 394.01 205 389.61C205.133 388.944 206.6 389.744 208.467 391.477C211.267 394.144 211.667 395.344 210.867 399.744ZM335.8 449.477C335.8 483.211 335.4 508.811 334.733 508.811C331.667 508.811 329.133 503.877 329.933 499.611C331.533 491.611 325.133 485.344 316.067 486.411C312.467 486.811 309.933 484.811 293.133 468.944C282.867 459.211 274.467 450.677 274.733 450.144C275 449.477 283.133 440.811 292.867 430.944L310.6 412.811H317.133C322.733 412.811 324.067 412.277 327.133 408.544C330.067 405.077 330.467 403.477 329.8 399.744C329 395.477 331.533 390.144 334.6 390.144C335.133 390.144 335.667 416.811 335.8 449.477ZM289.533 471.611L307.667 488.944L306.867 495.344C306.2 501.211 306.467 501.877 310.6 505.344C314.467 508.677 315.667 508.944 321.133 508.277C326.333 507.611 327.8 507.877 329.8 510.144C331.133 511.611 331.933 513.077 331.667 513.344C330.6 514.411 211.933 515.344 211.267 514.277C209.8 511.877 215.267 508.944 220.867 509.211C224.733 509.344 227.533 508.544 230.067 506.544C233.267 504.144 233.8 502.944 233.8 496.944V490.144L251.8 472.144C261.667 462.277 270.2 454.144 270.6 454.144C271.133 454.144 279.667 462.011 289.533 471.611Z" fill="black"/>
<path d="M21 383.679C21 384.613 23.4 387.679 26.3333 390.613C31.1333 395.279 31.5333 396.213 30.8667 400.613C29.2667 410.479 35.4 416.479 45.4 414.879C49.4 414.079 50.7333 415.013 66.7333 430.479C76.0667 439.413 83.6667 447.279 83.6667 447.679C83.6667 448.213 69.5333 448.613 52.3333 448.613C25.4 448.613 21 448.879 21 450.613C21 452.346 25.4 452.613 52.6 452.613H84.3333L67 469.946C50.8667 486.079 49.2667 487.279 44.6 487.279C41.8 487.279 38.3333 487.946 36.7333 488.746C33.4 490.613 30.2 497.946 31.2667 501.813C31.8 504.079 30.7333 506.213 26.2 510.746C21.9333 515.146 20.8667 517.013 21.9333 518.079C23.1333 519.279 24.8667 518.079 28.7333 513.946C33.8 508.346 34.2 508.213 38.0667 509.813C47.8 513.813 57.5333 504.479 54.2 494.213L52.7333 489.679L69.1333 473.146C78.2 464.079 86.0667 456.613 86.6 456.613C87.2667 456.613 87.6667 470.346 87.6667 487.279C87.6667 513.946 87.9333 517.946 89.6667 517.946C91.5333 517.946 91.8 513.946 91.6667 487.279C91.5333 470.479 91.9333 456.613 92.6 456.613C93.1333 456.746 101.667 464.213 111.4 473.413C128.6 489.813 129 490.346 128.2 494.746C127 501.279 128.333 505.013 133.133 507.813C136.2 509.546 138.6 510.079 142.6 509.413C147.4 508.613 148.2 509.013 152.467 513.279C156.867 517.813 159.667 518.346 159.667 514.746C159.667 513.679 157.533 511.279 155 509.413C150.733 506.079 150.467 505.546 151.133 499.946C151.933 494.879 151.533 493.679 148.467 490.613C145.533 487.679 143.933 487.146 139 487.413C133.267 487.813 133.133 487.679 115 470.746C105.133 461.279 97.2667 453.279 97.6667 452.879C98.4667 452.079 107.667 451.679 136.067 451.413C149.933 451.413 158.333 450.746 158.333 449.946C158.333 449.146 147 448.613 127 448.613C109.8 448.613 95.6667 448.213 95.6667 447.813C95.6667 447.279 103.4 439.279 112.733 429.946L129.933 413.013L136.467 413.546C141.8 414.079 143.667 413.679 146.867 411.146C150.467 408.346 150.6 407.679 149.933 400.746C149.133 393.546 149.267 393.146 153.933 388.346C158.067 384.079 158.467 383.279 156.467 382.479C154.867 381.813 152.6 383.013 149.133 386.479C145.267 390.213 143.133 391.279 139.4 391.279C136.067 391.279 133.133 392.479 130.333 394.879C126.6 397.946 126.067 399.013 126.733 403.413C127.4 408.213 126.867 408.746 109.667 426.479C99.8 436.479 91.6667 444.613 91.2667 444.613C91 444.613 90.8667 430.479 90.8667 413.279C91 386.079 90.7333 381.946 89 382.213C87.2667 382.613 87 386.879 87.5333 413.279L87.9333 443.813L83.5333 439.813C81 437.546 73.1333 430.213 66.0667 423.413L53.1333 411.013L53.9333 405.279C54.6 399.946 54.3333 399.013 50.4667 395.146C46.6 391.413 45.6667 391.013 40.4667 391.679C35.1333 392.479 34.4667 392.213 29.6667 387.279C24.4667 381.946 21 380.479 21 383.679Z" fill="black"/>
</svg>
