<svg width="180" height="180" viewBox="0 0 180 180" fill="none" xmlns="http://www.w3.org/2000/svg">
<rect x="0.1" y="0.1" width="179.8" height="179.8" fill="white" stroke="#CBCBCB" stroke-width="0.2"/>
<path d="M16 22.6845C16 23.6178 18.2667 26.6845 21.0667 29.4845C26 34.1512 26.2667 34.8178 25.6 40.8178C25.0667 46.5512 25.4667 47.4845 28.6667 50.0178C31.2 52.0178 34.2667 52.9512 38.5333 52.9512C44.4 52.9512 45.2 53.3512 54.4 62.6845L64.1333 72.4178L61.4667 78.4178C58 85.8845 58 94.6845 61.4667 102.285L64.1333 108.151L54.4 117.885C46 126.418 44.1333 127.618 40.9333 126.951C31.8667 125.351 24.1333 132.818 25.8667 141.485C26.5333 144.818 25.8667 146.285 21.0667 151.218C16.6667 155.618 15.8667 157.351 17.0667 158.551C18.2667 159.751 19.8667 158.951 24.1333 154.951C28.9333 150.151 30.1333 149.618 36 149.618C46.2667 149.618 51.7333 142.818 48.8 133.618C48.1333 131.618 50.1333 128.685 57.3333 121.218C62.4 116.018 67.2 111.618 68 111.618C68.8 111.618 70.8 112.551 72.6667 113.751C74.4 114.818 78.9333 116.151 82.9333 116.418C88.8 117.085 91.2 116.551 96.6667 113.751L103.333 110.285L113.6 120.551C122.4 129.351 123.6 131.085 122.533 133.351C120.4 137.218 122.267 144.418 126 146.818C128 148.151 128.933 149.751 128.533 150.951C128 152.018 128.4 152.951 129.2 152.951C130 152.951 130.667 152.151 130.667 151.085C130.667 150.018 132.533 148.951 135.733 148.551C140.133 148.018 141.333 148.551 146.267 153.351C150.8 157.618 152.4 158.418 153.6 157.218C154.8 156.018 154 154.418 150 150.285C145.2 145.485 144.8 144.418 145.2 138.418C145.467 132.685 145.067 131.618 141.733 129.085C139.067 126.818 136.667 126.151 132.533 126.551C127.2 126.951 126.4 126.551 116.8 117.218C111.2 111.885 106.667 106.951 106.667 106.418C106.667 105.751 107.6 103.485 108.667 101.485C111.6 95.8845 111.2 84.5512 107.867 78.0178L105.067 72.5512L115.467 62.1512C125.6 51.8845 125.867 51.7512 131.333 52.5512C136 53.0845 137.467 52.6845 141.2 49.4845C145.333 46.0178 145.6 45.3512 144.933 39.4845C144.267 33.7512 144.533 32.9512 148.8 28.8178C151.333 26.4178 153.333 23.6178 153.333 22.6845C153.333 19.6178 150 20.8178 145.333 25.6178C141.333 29.7512 140 30.2845 134.4 30.2845C125.333 30.2845 120.933 34.5512 121.6 42.8178C122 48.4178 121.6 48.9512 112.267 58.9512C104.933 66.4178 101.867 68.9512 100.267 68.1512C87.8667 62.9512 82 62.8178 72.6667 67.2178L67.8667 69.4845L58 59.6178C48.2667 49.8845 48.1333 49.7512 48.9333 44.1512C49.6 38.9512 49.2 38.0178 45.4667 34.1512C41.6 30.2845 40.6667 30.0178 35.2 30.8178C29.6 31.4845 29.0667 31.3512 24.1333 26.2845C18.9333 20.8178 16 19.6178 16 22.6845ZM94 69.4845C96.5333 70.5512 98.6667 72.0178 98.6667 72.5512C98.6667 73.2178 95.7333 76.6845 92 80.2845L85.3333 86.8178L78.6667 80.2845C74.9333 76.6845 72.1333 73.0845 72.4 72.2845C73.8667 67.8845 86.1333 66.2845 94 69.4845ZM75.3333 83.6178L81.8667 90.2845L75.3333 96.9512C71.7333 100.551 68.1333 103.618 67.2 103.618C64.8 103.618 62.6667 97.3512 62.6667 90.2845C62.6667 83.2178 64.8 76.9512 67.2 76.9512C68.1333 76.9512 71.7333 79.8845 75.3333 83.6178ZM105.067 80.5512C107.867 87.8845 108.133 90.2845 106.8 95.2178C104.133 104.818 103.467 104.951 96 97.6178C92.4 94.0178 89.3333 90.4178 89.3333 89.7512C89.3333 87.8845 100.267 76.9512 102.133 76.9512C102.933 76.9512 104.267 78.5512 105.067 80.5512ZM92.5333 100.018C95.8667 103.218 98.6667 106.418 98.6667 107.218C98.6667 109.485 90 112.951 84.4 112.951C81.6 112.818 77.4667 111.751 75.0667 110.551L70.8 108.285L77.0667 101.351C80.5333 97.4845 84 94.4178 84.8 94.2845C85.6 94.2845 89.0667 96.8178 92.5333 100.018Z" fill="black"/>
</svg>
