<svg width="180" height="180" viewBox="0 0 180 180" fill="none" xmlns="http://www.w3.org/2000/svg">
<rect x="0.1" y="0.1" width="179.8" height="179.8" fill="white" stroke="#CBCBCB" stroke-width="0.2"/>
<path d="M49.0667 54.8659C30.8 73.5325 16 89.6659 16 90.7325C16 93.1325 82.1333 157.533 85.2 158.066C86.6667 158.333 98.9333 146.599 120 124.866C138 106.466 152.8 90.7325 153.067 89.7992C153.467 87.7992 86.1333 20.9992 83.7333 20.9992C82.8 21.1325 67.2 36.3325 49.0667 54.8659ZM81.6 47.2659C81.2 62.5992 81.0667 63.6659 78.5333 63.6659C74.2667 63.6659 66.2667 68.4659 62.9333 72.8659C61.3333 75.1325 59.4667 79.1325 58.9333 81.9325L57.8667 86.9992L40.6667 87.3992L23.3333 87.7992L36 74.7325C71.6 38.0659 80.6667 29.1325 81.3333 30.0659C81.7333 30.5992 81.8667 38.3325 81.6 47.2659ZM117.733 59.5325C132.133 73.9325 144 86.0659 144 86.5992C144 87.2659 136.533 87.6659 127.333 87.6659H110.667L110 83.9325C107.733 73.2659 100.133 65.2659 90.9333 63.7992L86 62.9992L85.6 45.7992L85.2 28.4659L88.2667 30.9992C90 32.4659 103.2 45.2659 117.733 59.5325ZM81.8667 77.1325L82 86.9992L71.6 87.3992L61.2 87.7992L62.1333 84.0659C63.8667 77.3992 68.1333 71.9325 73.7333 69.1325C76.8 67.5325 79.8667 66.4659 80.5333 66.7325C81.2 66.9992 81.7333 71.6659 81.8667 77.1325ZM97.2 70.5992C102.133 73.6659 107.867 84.3325 105.6 86.5992C104.933 87.2659 100.267 87.6659 95.2 87.3992L86 86.9992L85.6 76.4659L85.3333 66.0659L88.9333 66.9992C91.0667 67.3992 94.6667 69.1325 97.2 70.5992ZM82.4 99.5325C82.9333 111.533 82.5333 112.199 76.4 109.666C73.7333 108.466 70.2667 106.599 68.8 105.266C66 102.733 61.2 92.9992 62 91.5325C62.4 91.1325 66.9333 90.7325 72.2667 90.8659L82 90.9992L82.4 99.5325ZM106 91.6659C108.533 95.7992 96.4 109.666 89.3333 110.599C86.1333 110.999 86 110.733 85.7333 102.333C85.4667 97.5325 85.6 92.8659 86 91.9325C86.6667 89.9325 104.8 89.6659 106 91.6659ZM145.067 91.5325C144.933 92.1992 131.6 106.066 115.733 122.199L86.6667 151.666L86.5333 141.266C86.5333 135.666 86.4 127.399 86.2667 123.133L86 115.266L92.2667 113.399C99.7333 111.266 105.867 105.533 108 98.7325C108.8 95.9325 109.733 92.8659 110 91.9325C110.4 90.7325 115.2 90.3325 128.133 90.3325C137.867 90.3325 145.333 90.8659 145.067 91.5325ZM58.6667 94.4659C58.6667 101.399 66.8 110.333 76 113.399L82 115.399L82.4 132.866C82.5333 142.466 82.5333 150.333 82.4 150.333C82.1333 150.333 68.5333 137.133 52.1333 120.999L22.4 91.6659L40.5333 91.7992C57.7333 91.7992 58.6667 91.9325 58.6667 94.4659Z" fill="black"/>
</svg>
