<svg width="180" height="180" viewBox="0 0 180 180" fill="none" xmlns="http://www.w3.org/2000/svg">
<rect x="0.1" y="0.1" width="179.8" height="179.8" fill="white" stroke="#CBCBCB" stroke-width="0.2"/>
<path d="M54.5333 21.3331L20 21.5997L20.8 52.6664C21.3333 69.5997 21.7333 100.533 21.7333 121.333V159.066L89.8667 158.933C150.4 158.8 158 158.533 158.667 156.666C159.2 155.466 159.467 148.133 159.467 140.4C159.467 132.666 159.333 102.4 159.2 73.1997L159.067 19.9997L124.133 20.5331C104.8 20.7997 73.4667 21.0664 54.5333 21.3331ZM88 32.3997C88.8 51.0664 88.9333 82.9331 88.2667 82.6664C87.7333 82.3997 74.4 69.7331 58.5333 54.2664L29.4667 26.2664L56.6667 25.5997C71.6 25.1997 84.6667 24.9331 85.7333 25.0664C87.2 25.1997 87.8667 27.0664 88 32.3997ZM151.067 25.0664C151.067 26.1331 94 82.9331 93.0667 82.9331C92 82.9331 92.2667 26.1331 93.3333 25.1997C94.4 23.9997 151.067 23.9997 151.067 25.0664ZM56.4 59.1997L86.1333 88.2664H55.3333H24.4V58.7997C24.4 42.6664 24.9333 29.5997 25.6 29.8664C26.1333 29.9997 40.1333 43.3331 56.4 59.1997ZM154.667 87.8664C154.4 88.1331 141.2 88.1331 125.333 87.9997L96.5333 87.5997L125.467 58.3997L154.4 29.1997L154.8 58.2664C154.933 74.2664 154.933 87.5997 154.667 87.8664ZM155.2 91.1997C156 95.9997 156.4 149.6 155.6 149.6C154.933 149.6 141.6 136.666 125.867 120.933L97.3333 92.3997L104.533 91.9997C115.6 91.3331 155.067 90.7997 155.2 91.1997ZM55.7333 121.6C39.6 137.733 26.4 150.666 26.1333 150.533C25.3333 149.6 24.2667 94.7997 25.0667 93.5997C25.6 92.7997 37.7333 92.2664 55.3333 92.2664H84.8L55.7333 121.6ZM122.4 123.866C138.133 139.866 150.533 153.333 149.867 154C149.333 154.533 136.267 154.8 120.933 154.666L93.0667 154.266L92.6667 124.533C92.5333 108.266 92.6667 94.9331 93.2 94.9331C93.6 94.9331 106.8 108 122.4 123.866ZM89.3333 125.2L89.0667 154.266L59.0667 154.666L29.0667 154.933L58.4 125.6C74.5333 109.466 88.1333 96.2664 88.6667 96.2664C89.2 96.2664 89.6 109.333 89.3333 125.2Z" fill="black"/>
</svg>
