<svg width="180" height="180" viewBox="0 0 180 180" fill="none" xmlns="http://www.w3.org/2000/svg">
<rect x="0.1" y="0.1" width="179.8" height="179.8" fill="white" stroke="#CBCBCB" stroke-width="0.2"/>
<path d="M54.4 22.4004L20 22.6671V76.4004C20 105.867 20.4 136.8 20.9333 145.2L21.7333 160.4L73.8667 159.6C102.533 159.067 133.333 158.667 142.4 158.667H158.8L158.4 90.2671L158 22.0004H123.333C104.267 22.0004 73.2 22.1337 54.4 22.4004ZM82.6667 26.5337C82.5333 26.9337 76.9333 33.3337 70 40.6671C59.2 52.1337 57.2 53.7337 55.0667 52.5337C53.2 51.3337 52.8 49.7337 53.0667 44.9337C53.4667 39.7337 53.0667 38.2671 50 35.2004C46.9333 32.1337 45.6 31.7337 40.6667 32.2671C35.7333 32.9337 34.2667 32.5337 31.8667 29.8671L28.9333 26.6671L54.1333 26.4004C68 26.1337 80.1333 26.0004 81.0667 25.8671C81.8667 25.8671 82.6667 26.1337 82.6667 26.5337ZM148.267 28.2671C145.867 30.6671 143.733 31.3337 137.867 31.3337C131.6 31.3337 130 31.8671 127.733 34.6671C125.6 37.3337 125.2 39.2004 125.733 44.2671C126.267 48.8004 126 50.9337 124.533 52.1337C122.8 53.4671 120.4 51.7337 109.2 40.5337C102 33.3337 96 26.9337 96 26.4004C96 25.7337 108.4 25.3337 123.6 25.3337H151.2L148.267 28.2671ZM28.1333 32.8004C30 34.5337 30.4 36.2671 29.7333 41.2004C29.0667 46.6671 29.4667 47.7337 32.8 51.0671C36.1333 54.4004 37.4667 54.8004 43.0667 54.4004C48.2667 54.1337 50 54.5337 51.2 56.2671C52.4 58.2671 50.6667 60.6671 39.3333 72.0004C32 79.3337 25.6 85.3337 25.0667 85.3337C24.4 85.3337 24 73.0671 24 58.0004C24 42.9337 24.4 30.6671 24.9333 30.6671C25.3333 30.6671 26.8 31.6004 28.1333 32.8004ZM87.7333 48.2671C87.3333 64.8004 87.2 66.0004 84.6667 66.4004C83.2 66.6671 80 67.8671 77.6 69.0671L73.0667 71.0671L66.5333 64.5337L60 58.0004L73.0667 44.4004C80.1333 36.8004 86.5333 30.6671 87.0667 30.6671C87.6 30.6671 87.8667 38.6671 87.7333 48.2671ZM105.867 43.8671C112.933 50.6671 118.667 56.8004 118.667 57.2004C118.667 57.7337 115.867 60.9337 112.4 64.2671C106.267 70.1337 105.867 70.4004 102.667 68.6671C100.8 67.6004 98 66.8004 96.4 66.6671C94.8 66.6671 93.0667 66.0004 92.6667 65.2004C91.0667 62.8004 90.4 30.4004 91.8667 30.8004C92.5333 31.0671 98.9333 36.9337 105.867 43.8671ZM154.667 57.6004V84.5337L141.067 71.2004C133.467 64.0004 127.2 57.6004 126.933 57.2004C126 55.0671 131.467 52.8004 136.8 53.2004C141.6 53.4671 143.2 52.9337 146.133 50.0004C149.2 46.9337 149.6 45.7337 148.933 40.9337C148.133 35.6004 150.4 30.6671 153.6 30.6671C154.133 30.6671 154.667 42.8004 154.667 57.6004ZM63.2 67.7337C66.5333 70.8004 69.3333 73.8671 69.3333 74.4004C69.3333 75.0671 68.1333 78.0004 66.6667 81.0671C65.2 84.0004 64 87.2004 64 88.0004C64 88.8004 57.7333 89.3337 46.4 89.3337H28.8L42.1333 75.4671C49.3333 68.0004 55.7333 61.7337 56.1333 61.8671C56.6667 62.0004 59.8667 64.5337 63.2 67.7337ZM137.6 74.2671C144.8 81.4671 150.667 87.6004 150.667 88.0004C150.667 88.4004 143.067 88.6671 133.733 88.6671H116.8L115.867 85.0671C115.333 83.2004 113.867 79.7337 112.533 77.4671L110.133 73.3337L116 67.3337C119.2 64.0004 122.533 61.3337 123.2 61.3337C124 61.3337 130.533 67.2004 137.6 74.2671ZM88 76.6671C88 80.6671 87.6 84.0004 87.0667 84.0004C85.7333 84.0004 77.3333 75.7337 77.3333 74.4004C77.3333 73.3337 84.6667 69.4671 87.0667 69.3337C87.6 69.3337 88 72.6671 88 76.6671ZM98.5333 70.8004C100.8 71.6004 102.667 72.6671 102.667 73.2004C102.667 74.9337 92.2667 84.2671 91.6 83.0671C90.6667 81.6004 92.1333 69.3337 93.3333 69.3337C93.8667 69.3337 96.1333 70.0004 98.5333 70.8004ZM85.3333 88.9337C85.3333 89.2004 81.4667 89.3337 76.6667 89.3337C66.9333 89.3337 66.4 88.6671 70.8 81.4671L73.4667 76.9337L79.4667 82.8004C82.6667 86.0004 85.3333 88.6671 85.3333 88.9337ZM110 81.3337C113.6 88.4004 112.933 89.3337 104 89.3337C99.6 89.3337 96 88.9337 96 88.4004C96 87.0671 105.6 77.3337 106.933 77.3337C107.467 77.3337 108.8 79.0671 110 81.3337ZM112 94.8004C112 97.0671 110.133 102 108.533 103.867C108.4 104 105.333 102 102 99.2004L95.8667 94.0004L101.6 93.2004C111.733 91.7337 112 91.8671 112 94.8004ZM150.667 93.0671C150.667 93.6004 144.667 100 137.333 107.334L124 120.534L117.6 114.267L111.067 107.867L113.467 102.934C114.933 100.267 116 97.0671 116 96.0004C116 94.8004 116.4 93.3337 116.933 92.9337C118.133 91.6004 150.667 91.7337 150.667 93.0671ZM64.8 96.9337C65.3333 99.0671 66.5333 102.4 67.6 104.534C69.4667 108.267 69.4667 108.534 63.8667 114.134C60.6667 117.467 57.3333 119.867 56.4 119.734C54.9333 119.334 29.3333 94.9337 29.3333 93.8671C29.3333 93.6004 37.0667 93.3337 46.6667 93.3337H64L64.8 96.9337ZM79.2 98.6671C76.4 101.6 73.4667 104 72.5333 104C71.0667 104 68 97.4671 68 94.5337C68 93.8671 71.6 93.3337 76 93.3337H84.1333L79.2 98.6671ZM103.333 109.334C102.4 110.934 93.3333 115.2 92.6667 114.4C91.8667 113.6 91.0667 99.2004 91.7333 97.4671C92.1333 96.2671 94.2667 97.6004 98.2667 101.734C102 105.467 104 108.267 103.333 109.334ZM39.3333 110.667C50.6667 122 52.4 124.4 51.2 126.4C50 128.134 48.2667 128.534 44.1333 128.267C34.5333 127.467 28.1333 134 30.6667 142.4C31.6 145.734 31.2 146.934 28.8 149.2C27.2 150.8 25.4667 152 24.9333 152C24.4 152 24 139.734 24 124.667C24 109.6 24.4 97.3337 25.0667 97.3337C25.6 97.3337 32 103.334 39.3333 110.667ZM87.6 114.267C86.6667 115.067 77.8667 111.2 76.8 109.6C76.2667 108.8 78.5333 105.6 81.6 102.4L87.3333 96.6671L87.7333 105.2C88 109.867 87.8667 113.867 87.6 114.267ZM154.933 126.4C155.2 139.734 154.8 149.334 154.133 149.334C153.467 149.334 151.867 148.4 150.533 147.2C148.667 145.6 148.4 144.267 149.333 141.867C150.933 137.867 147.733 130 143.867 127.867C142.267 127.067 138.8 126.667 136 127.2C132.4 127.734 130.533 127.467 129.333 126C128.4 124.8 127.867 123.734 128.133 123.334C128.4 123.067 134.4 117.067 141.333 110C152.267 98.9337 154 97.6004 154.267 100.267C154.533 102 154.8 113.734 154.933 126.4ZM78 114.667C80.9333 116.134 84.2667 117.334 85.6 117.334C87.7333 117.334 88 118.934 88 134C88 143.2 87.6 150.667 87.2 150.667C86.8 150.667 80.5333 144.8 73.2 137.734L60 124.8L66.2667 118.4C69.7333 114.934 72.6667 112 72.6667 112C72.6667 112 75.0667 113.2 78 114.667ZM114.667 118L120.533 124L112.4 132.4C107.867 136.934 101.467 143.6 98.1333 147.334L92 154V135.867V117.6L96.4 116.8C98.9333 116.4 102 115.067 103.467 114C107.333 111.067 108.267 111.467 114.667 118ZM84 154.934C84 155.6 71.7333 156 56.6667 156H29.2L31.6 152.667C33.7333 149.734 34.6667 149.467 40.1333 150.134C45.2 150.8 46.8 150.4 49.7333 147.867C53.7333 144.267 54.9333 139.6 53.0667 134.667C52.1333 132.134 52.4 131.067 54.1333 129.734C56 128.4 58.2667 129.867 70.1333 141.067C77.7333 148.134 84 154.4 84 154.934ZM126.267 129.467C127.333 130.534 127.333 132.134 126.4 134.8C123.467 143.2 130.133 150.267 139.867 148.934C144.133 148.4 145.6 148.8 147.867 151.2C149.467 152.8 150.667 154.534 150.667 155.067C150.667 155.6 138.667 156 124 156C109.333 156 97.3333 155.6 97.3333 155.067C97.3333 153.867 122.933 128 124 128C124.4 128 125.467 128.667 126.267 129.467Z" fill="black"/>
</svg>
