<svg width="180" height="180" viewBox="0 0 180 180" fill="none" xmlns="http://www.w3.org/2000/svg">
<rect x="0.1" y="0.1" width="179.8" height="179.8" fill="white" stroke="#CBCBCB" stroke-width="0.2"/>
<path d="M20 80.6006C20 113.534 20.4 144.334 20.9333 149.267L21.7333 158.334H90.1333H158.533L158.933 140.601C159.2 131.001 159.2 100.067 158.933 71.934L158.667 21.0006H89.3333H20V80.6006ZM147.2 24.8673L151.067 25.0006L148.267 28.0673C145.733 30.734 144.267 31.134 138.133 30.6006C131.6 30.0673 130.8 30.334 128.133 33.8006C125.733 36.8673 125.2 38.8673 125.733 43.2673L126.267 48.8673L108.4 66.6006C98.5333 76.334 90 84.334 89.4667 84.334C88.8 84.334 79.8667 76.2006 69.7333 66.2006C53.2 50.2006 51.3333 47.934 52.4 45.4006C54.1333 41.534 52.6667 36.334 48.9333 32.8673C46.5333 30.6006 44.8 30.2006 39.7333 30.734C34.4 31.134 32.9333 30.734 30.5333 28.2006L27.6 25.0006L83.4667 24.734C114.133 24.4673 140.267 24.4673 141.333 24.6006C142.4 24.734 145.067 24.8673 147.2 24.8673ZM28.5333 31.8006C29.8667 33.934 30.1333 35.534 29.2 38.2006C26.2667 46.334 34.2667 54.0673 43.8667 52.4673C48.6667 51.8006 49.0667 52.0673 67.3333 70.334L86 89.0006L66.9333 108.067L48 127.001L42.1333 126.601C37.0667 126.201 35.6 126.601 32.5333 129.667C29.4667 132.734 29.0667 134.067 29.6 139.001C30.2667 143.934 29.8667 145.267 27.2 147.801L24 150.734L23.8667 94.2006C23.7333 63.134 23.6 35.6673 23.3333 33.2673C22.9333 28.2006 25.4667 27.534 28.5333 31.8006ZM154.667 71.2673C154.667 94.6006 154.933 121.267 155.2 130.734C155.467 140.067 155.2 148.067 154.667 148.334C152.4 149.667 148.8 143.401 149.2 139.001C149.333 136.467 149.2 133.134 148.667 131.667C147.467 127.801 140.667 124.601 135.733 125.667C131.867 126.601 130.667 125.534 113.2 108.201C102.933 98.0673 94.6667 89.134 94.6667 88.334C94.6667 87.534 102.667 79.0006 112.4 69.4006L130 51.8006L136.533 51.934C142.133 52.0673 143.6 51.534 146.4 48.334C149.067 45.134 149.467 43.534 148.933 39.134C148.133 33.934 150.4 29.0006 153.6 29.0006C154.133 29.0006 154.667 48.0673 154.667 71.2673ZM109.333 111.134C126.533 128.067 127.733 129.534 126.4 132.467C122.667 140.734 132.267 151.001 141.067 147.934C143.867 147.001 145.467 147.267 148.4 149.267C150.4 150.734 152 152.467 152 153.134C152 153.801 127.333 154.334 89.7333 154.334H27.6L30.6667 151.001C33.2 148.201 34.5333 147.934 39.2 148.467C44 149.134 45.4667 148.734 49.2 145.534C53.3333 142.067 53.6 141.401 52.9333 135.801L52.1333 129.667L70.4 111.267C80.4 101.267 89.0667 93.0006 89.7333 93.0006C90.2667 93.0006 99.2 101.134 109.333 111.134Z" fill="black"/>
</svg>
