<svg width="180" height="180" viewBox="0 0 180 180" fill="none" xmlns="http://www.w3.org/2000/svg">
<rect x="0.1" y="0.1" width="179.8" height="179.8" fill="white" stroke="#CBCBCB" stroke-width="0.2"/>
<path d="M52.4 21.8004L18 22.0671V90.7337V159.4H85.7333C122.933 159.4 154.133 158.867 155.067 158.2C156.667 157.267 156.8 145.4 156 89.0004L154.933 21.0004L120.8 21.2671C102 21.2671 71.2 21.5337 52.4 21.8004ZM85.7333 57.0004L86 88.6004L55.0667 89.0004C38 89.2671 23.6 89.1337 23.0667 88.7337C22.5333 88.3337 22 74.2004 21.7333 57.4004L21.3333 26.7337L50 25.9337C65.7333 25.5337 80.1333 25.2671 82 25.2671L85.3333 25.4004L85.7333 57.0004ZM152 56.7337V88.0671L121.067 88.4671L90 88.7337V56.7337V24.7337L121.067 25.0004L152 25.4004V56.7337ZM152 123.4V154.734L121.067 155.134L90 155.4V124.2V92.8671L94.4 92.4671C96.6667 92.2004 110.667 91.9337 125.333 92.0671H152V123.4ZM86.2667 123C86.5333 139.8 86.5333 153.8 86.2667 154.334C86 155 71.4667 155.4 53.8667 155.4H22V124.067V92.7337H54H85.8667L86.2667 123Z" fill="black"/>
</svg>
