<svg width="540" height="540" viewBox="0 0 540 540" fill="none" xmlns="http://www.w3.org/2000/svg">
<rect x="0.1" y="0.1" width="179.8" height="179.8" fill="white" stroke="#CBCBCB" stroke-width="0.2"/>
<rect x="180.1" y="0.1" width="179.8" height="179.8" fill="white" stroke="#CBCBCB" stroke-width="0.2"/>
<rect x="360.1" y="0.1" width="179.8" height="179.8" fill="white" stroke="#CBCBCB" stroke-width="0.2"/>
<rect x="0.1" y="180.1" width="179.8" height="179.8" fill="white" stroke="#CBCBCB" stroke-width="0.2"/>
<rect x="180.1" y="180.1" width="179.8" height="179.8" fill="white" stroke="#CBCBCB" stroke-width="0.2"/>
<rect x="360.1" y="180.1" width="179.8" height="179.8" fill="white" stroke="#CBCBCB" stroke-width="0.2"/>
<rect x="0.1" y="360.1" width="179.8" height="179.8" fill="white" stroke="#CBCBCB" stroke-width="0.2"/>
<rect x="180.1" y="360.1" width="179.8" height="179.8" fill="white" stroke="#CBCBCB" stroke-width="0.2"/>
<rect x="360.1" y="360.1" width="179.8" height="179.8" fill="white" stroke="#CBCBCB" stroke-width="0.2"/>
<path d="M444.909 458.909V458.636C444.939 455.742 445.242 453.439 445.818 451.727C446.394 450.015 447.212 448.629 448.273 447.568C449.333 446.508 450.606 445.53 452.091 444.636C452.985 444.091 453.788 443.447 454.5 442.705C455.212 441.947 455.773 441.076 456.182 440.091C456.606 439.106 456.818 438.015 456.818 436.818C456.818 435.333 456.47 434.045 455.773 432.955C455.076 431.864 454.144 431.023 452.977 430.432C451.811 429.841 450.515 429.545 449.091 429.545C447.848 429.545 446.652 429.803 445.5 430.318C444.348 430.833 443.386 431.644 442.614 432.75C441.841 433.856 441.394 435.303 441.273 437.091H435.545C435.667 434.515 436.333 432.311 437.545 430.477C438.773 428.644 440.386 427.242 442.386 426.273C444.402 425.303 446.636 424.818 449.091 424.818C451.758 424.818 454.076 425.348 456.045 426.409C458.03 427.47 459.561 428.924 460.636 430.773C461.727 432.621 462.273 434.727 462.273 437.091C462.273 438.758 462.015 440.265 461.5 441.614C461 442.962 460.273 444.167 459.318 445.227C458.379 446.288 457.242 447.227 455.909 448.045C454.576 448.879 453.508 449.758 452.705 450.682C451.902 451.591 451.318 452.674 450.955 453.932C450.591 455.189 450.394 456.758 450.364 458.636V458.909H444.909ZM447.818 472.364C446.697 472.364 445.735 471.962 444.932 471.159C444.129 470.356 443.727 469.394 443.727 468.273C443.727 467.152 444.129 466.189 444.932 465.386C445.735 464.583 446.697 464.182 447.818 464.182C448.939 464.182 449.902 464.583 450.705 465.386C451.508 466.189 451.909 467.152 451.909 468.273C451.909 469.015 451.72 469.697 451.341 470.318C450.977 470.939 450.485 471.439 449.864 471.818C449.258 472.182 448.576 472.364 447.818 472.364Z" fill="black"/>
<path d="M435.2 42.4496C432.933 42.7163 426.667 45.2496 421.2 47.9163C413.6 51.7829 410.4 54.3163 406.667 59.5163L402 66.0496L402.133 84.8496C402.133 95.1163 402.267 111.516 402.4 121.25L402.667 138.85L450.4 138.583L498 138.183L497.467 102.85C497.2 83.3829 496.533 66.1829 495.867 64.4496C493.2 57.3829 487.467 52.0496 477.467 47.2496C468 42.7163 466.4 42.3163 453.333 42.0496C445.6 41.9163 437.467 42.0496 435.2 42.4496ZM472.8 50.0496C482 54.3163 488.8 60.3163 491.6 66.8496C493.6 71.2496 493.467 71.6496 490.533 73.7829C473.067 86.4496 450.267 101.65 449.467 101.25C448.8 100.983 438.933 94.5829 427.467 86.8496C412.267 76.5829 406.8 72.1829 406.8 70.1829C406.667 65.3829 415.2 55.5163 422.133 52.1829C434.267 46.4496 438.8 45.5163 452.133 45.9163C462.533 46.3163 466.267 47.1163 472.8 50.0496ZM493.333 104.85C493.333 119.116 493.067 130.85 492.667 130.85C492.267 130.85 488.8 128.583 484.933 125.783C481.067 122.983 472.8 117.25 466.4 112.983C459.867 108.716 454.667 105.116 454.667 104.85C454.667 103.916 490.8 79.1163 492.4 78.9829C492.933 78.8496 493.333 90.5829 493.333 104.85ZM426.4 91.6496C435.733 98.0496 443.867 103.65 444.4 104.183C445.067 104.716 438 110.45 428.8 116.716C419.6 123.116 411.733 128.85 411.333 129.516C410.8 130.316 409.6 130.85 408.533 130.85C406.933 130.85 406.667 126.716 406.667 105.516C406.667 88.1829 407.067 80.1829 408.133 80.1829C408.933 80.1829 417.2 85.3829 426.4 91.6496ZM468.667 120.316C478.667 127.116 486.533 132.716 486.4 132.85C486 133.25 416.533 134.05 414.133 133.65C413.467 133.65 415.333 131.783 418.133 129.783C426.133 124.05 449.6 108.183 450.267 108.183C450.533 108.183 458.8 113.65 468.667 120.316Z" fill="black"/>
<path d="M89.9333 42.2861C72.8667 46.1528 59.1333 56.1528 56.6 66.5528C55.6667 70.6861 54.7333 71.6194 51.1333 72.4194C37.6667 75.2194 29 87.8861 29 104.953C29 122.419 38.6 136.419 51.8 138.419C55.2667 138.953 75 138.953 95.5333 138.553C116.067 138.019 136.867 137.619 141.933 137.619H150.867V101.886V66.1528L146.867 59.8861C144.733 56.5528 140.467 52.1528 137.267 50.1528C124.867 42.2861 104.867 38.9528 89.9333 42.2861ZM120.867 47.8861C130.867 50.9528 139.8 57.2194 143.533 63.6194C145.4 66.6861 146.867 69.8861 146.867 70.8194C146.867 71.6194 142.867 74.9528 137.933 78.2861C132.867 81.6194 123.8 87.8861 117.533 92.2861C111.267 96.6861 105.533 100.686 104.733 100.953C103.8 101.486 63.6667 76.1528 60.4667 72.9528C58.7333 71.3528 62.6 63.2194 67.2667 58.6861C75.4 50.8194 82.6 47.7528 99.5333 45.2194C104.333 44.5528 114.067 45.7528 120.867 47.8861ZM77.9333 90.5528C97.2667 103.619 98.8667 105.086 96.6 106.686C95.2667 107.753 85.5333 114.553 75 121.886C55.8 135.219 55.6667 135.219 50.7333 133.753C39.8 130.419 31.2667 114.686 32.8667 100.819C34.4667 88.6861 45.1333 76.2861 54.2 76.2861C55.5333 76.2861 66.3333 82.6861 77.9333 90.5528ZM146.733 107.486C147 127.086 146.733 131.086 145.267 130.153C141.667 127.886 110.2 106.553 109.133 105.619C108.067 104.686 116.2 98.5528 137.533 84.0194C143.933 79.6194 144.867 79.3528 145.533 81.3528C146.067 82.5528 146.467 94.2861 146.733 107.486ZM122.2 120.286C132.067 126.953 140.2 132.686 140.2 132.953C140.2 133.353 123.933 133.619 104.067 133.619C81 133.619 68.3333 133.086 68.8667 132.286C69.2667 131.619 72.7333 128.953 76.6 126.419C80.4667 123.753 87.8 118.686 92.8667 115.086C98.0667 111.486 102.6 108.419 103.267 108.419C103.8 108.286 112.333 113.753 122.2 120.286Z" fill="black"/>
<path d="M237.067 43.7836C226.4 47.1169 218.267 53.3836 213.733 61.6503L210 68.3169L210.4 102.984L210.667 137.65L260.133 137.917L309.733 138.184L316.8 134.584C327.467 129.117 331.733 121.517 332.4 106.184C332.933 96.0503 332.533 93.6503 330 88.0503C326 79.6503 318.8 73.1169 312.4 72.0503C307.733 71.3836 306.933 70.5836 304.4 64.7169C300.4 55.3836 291.067 47.3836 279.733 43.9169C267.6 40.0503 248.933 40.0503 237.067 43.7836ZM279.333 48.3169C287.467 51.6503 296.133 58.8503 299.333 64.9836C300.8 67.9169 302 70.4503 302 70.8503C302 71.1169 294.933 76.1836 286.267 82.0503C277.733 87.7836 267.867 94.5836 264.533 96.9836L258.267 101.25L236.267 86.3169L214.267 71.5169L215.867 67.2503C218.933 58.7169 229.6 50.4503 242 46.8503C250.267 44.4503 271.6 45.2503 279.333 48.3169ZM316 78.7169C327.733 85.2503 332.267 104.584 325.467 118.984C321.467 127.65 314.8 132.984 308.267 132.984C305.467 132.984 262.267 105.384 262.933 104.05C263.2 103.784 267.333 100.717 272.267 97.3836C308 72.7169 306.533 73.3836 316 78.7169ZM236.667 92.3169C252.667 103.117 254 104.45 251.733 106.05C234.8 118.05 216.8 130.317 216.133 130.317C215.733 130.317 215.333 118.584 215.333 104.317C215.333 82.5836 215.6 78.3169 217.2 79.2503C218.133 79.7836 226.933 85.6503 236.667 92.3169ZM277.467 120.05C286.533 126.05 293.867 131.384 294 131.917C294 132.584 277.733 132.984 257.733 132.984C237.867 132.984 222 132.584 222.4 132.184C226.4 128.184 257.733 107.917 259.2 108.45C260.133 108.717 268.4 113.917 277.467 120.05Z" fill="black"/>
<path d="M402.933 228.933C402.4 229.333 402 244.799 402 263.199C402 293.466 402.267 297.199 404.667 301.999C407.733 308.533 409.333 310.399 415.6 315.199C435.6 330.266 473.867 328.133 490.267 311.066C497.467 303.466 498 300.533 498 262.666V227.999H450.933C424.933 227.999 403.333 228.399 402.933 228.933ZM486 233.866C486 234.133 477.867 239.866 468 246.533L450 258.799L432 246.533C422.133 239.866 414 234.133 414 233.866C414 233.599 430.267 233.333 450 233.333C469.867 233.333 486 233.599 486 233.866ZM423.867 246.666C431.733 252.133 439.733 257.599 441.467 258.666C443.2 259.733 444.667 261.066 444.667 261.599C444.667 262.533 412.267 284.933 409.067 286.266C407.733 286.799 407.333 281.333 407.333 261.333C407.333 247.333 407.733 235.999 408.4 236.266C408.933 236.399 415.867 241.199 423.867 246.666ZM492.667 246.266C492.667 251.999 493.067 263.466 493.6 271.599C494.133 281.866 493.867 286.666 492.933 286.666C491.333 286.666 456.133 263.066 455.733 261.599C455.333 260.666 489.733 236.266 491.733 236.133C492.267 235.999 492.667 240.666 492.667 246.266ZM472.8 279.599C484.4 287.333 494 294.133 494 294.666C494 297.999 489.467 305.599 485.333 309.066C468.4 324.133 438.933 325.599 419.867 312.533C412 307.199 405.733 297.466 408 293.999C409.733 291.333 447.467 265.599 449.867 265.466C450.8 265.333 461.2 271.733 472.8 279.599Z" fill="black"/>
<path d="M248.733 221.688L209 222.088L209.4 257.154C209.8 289.954 209.933 292.354 212.733 297.421C216.867 305.288 221.933 309.421 233.133 314.354C242.333 318.354 244.2 318.621 257.133 318.621C270.067 318.621 271.933 318.354 281.4 314.221C292.467 309.554 301.8 301.021 303.267 294.221C304.6 287.954 305 287.421 308.067 287.421C313 287.421 321.4 281.821 325.267 276.088C338.2 257.288 330.333 227.021 311.133 222.221C307.933 221.421 301.533 220.888 296.867 221.021C292.2 221.288 270.6 221.554 248.733 221.688ZM311.667 227.421C329 236.221 332.867 261.554 319.267 276.488C315.8 280.354 310.2 283.421 306.6 283.421C303.8 283.421 263.667 257.021 263 254.754C262.733 253.954 268.6 249.154 276.067 244.088C283.533 238.888 292.867 232.488 296.867 229.688C300.867 227.021 304.733 224.754 305.4 224.754C306.067 224.754 308.867 225.954 311.667 227.421ZM291.8 227.021C291.8 227.688 285.133 232.621 277 238.088C268.867 243.554 261.667 248.888 260.867 249.688C260.067 250.621 258.733 251.421 257.8 251.421C256.467 251.421 222.6 229.288 219.933 226.621C219.667 226.354 235.667 226.088 255.533 226.088C275.533 226.088 291.8 226.488 291.8 227.021ZM251.267 254.754C251.667 256.088 217.667 280.088 215.267 280.088C213.8 280.088 212.467 233.821 213.667 230.488C214.2 229.154 219.933 232.354 232.733 241.021C242.733 247.821 251.133 253.954 251.267 254.754ZM278.6 272.088C290.2 279.821 300.067 286.754 300.467 287.554C301.667 289.288 295.667 299.154 290.867 303.554C288.867 305.554 283 308.754 277.8 310.888C258.467 318.621 233.933 314.488 221.4 301.154C215.4 294.754 213.267 289.688 215.533 287.021C216.333 286.088 221.4 282.354 226.733 278.754C232.067 275.154 240.867 269.021 246.333 265.154C251.8 261.288 256.467 258.088 256.867 258.088C257.133 258.088 267 264.354 278.6 272.088Z" fill="black"/>
<path d="M79.3105 228.667L47.8438 229.333L42.1105 233.333C30.9105 241.2 25.9772 259.067 30.9105 274C34.1105 283.467 42.1105 292.133 49.9772 294.4C55.0438 295.867 56.1105 296.933 57.5772 301.2C63.3105 317.6 90.5105 329.067 114.377 324.933C127.31 322.667 141.31 315.2 146.777 307.6L150.91 301.733V264.933V228H130.91C119.977 228 96.6438 228.267 79.3105 228.667ZM77.0438 246.4C88.2438 254 97.5772 260.8 97.8438 261.467C98.1105 262.533 85.3105 271.733 61.9772 287.067C55.8438 291.067 54.9105 291.333 50.7772 290C40.7772 286.667 34.2438 276.4 33.3105 262.667C32.7772 253.867 33.0438 252.933 37.1772 246C41.4438 238.933 49.4438 232.8 54.3772 232.667C55.7105 232.667 65.8438 238.933 77.0438 246.4ZM139.044 233.867C138.644 234.533 130.377 240.267 120.91 246.667L103.444 258.4L86.2438 246.8C76.6438 240.4 68.9105 234.667 68.9105 233.867C68.9105 233.2 82.9105 232.667 104.377 232.667C124.644 232.667 139.444 233.2 139.044 233.867ZM146.244 261.333C146.377 275.333 146.11 286.667 145.71 286.667C143.977 286.667 109.044 262.533 108.91 261.333C108.91 260.533 110.777 258.8 113.177 257.467C115.444 256 123.577 250.533 131.31 245.2C139.044 239.733 145.577 235.467 145.71 235.733C145.977 236 146.244 247.467 146.244 261.333ZM125.577 279.2C137.31 287.2 147.044 294.533 147.31 295.6C147.577 296.667 145.71 300.533 143.177 304.133C135.577 315.2 115.71 323.2 99.7105 321.6C81.9772 319.733 65.1772 309.867 62.1105 299.2C61.1772 296.4 60.7772 293.733 61.0438 293.467C62.5105 292 102.91 264.667 103.577 264.667C103.977 264.667 113.844 271.2 125.577 279.2Z" fill="black"/>
<path d="M244.733 416.861L211 417.128V449.794V482.461H261C316.6 482.461 316.6 482.461 324.2 473.794C330.6 466.461 332.6 460.861 332.6 449.261C332.6 437.261 330.467 431.394 323.4 424.061C316.867 417.128 310.733 415.661 292.733 416.061C284.733 416.328 263.133 416.594 244.733 416.861ZM315.267 423.261C323.4 427.394 330.6 442.594 328.867 452.328C327.667 460.061 324.733 466.594 320.6 470.861C316.467 475.128 310.867 478.461 307.533 478.461C304.6 478.461 262.867 450.328 263.8 448.994C264.067 448.328 269.933 444.194 276.733 439.661C283.533 435.128 291.133 429.794 293.667 427.794C303.933 419.794 307 419.128 315.267 423.261ZM292.333 422.994C291.267 424.061 283.133 429.794 274.333 435.794C263.933 442.994 257.8 446.328 256.733 445.528C255.8 444.994 247.933 439.661 239.133 433.794C230.333 427.928 223 422.728 223 422.061C223 421.528 239 421.128 258.6 421.128C289.4 421.128 293.933 421.394 292.333 422.994ZM233.267 435.261C242.6 441.528 251.133 447.528 252.067 448.328C253.4 449.661 250.2 452.461 236.067 462.328C226.333 469.261 217.533 475.128 216.733 475.394C215.4 475.928 215 470.328 215 449.928C215 435.528 215.267 423.794 215.667 423.794C215.933 423.794 223.933 428.994 233.267 435.261ZM276.467 464.728C285.933 470.994 293.533 476.328 293.267 476.461C293.133 476.728 277.133 477.128 257.667 477.661C226.6 478.461 222.6 478.328 224.333 476.594C227.4 473.528 256.867 453.128 258.2 453.128C258.867 453.128 267.133 458.328 276.467 464.728Z" fill="black"/>
<path d="M67.4361 417.466C56.7694 417.866 46.5028 418.933 44.6361 419.733C36.5028 423.333 30.2361 434.266 29.1694 446.666C28.2361 458 31.1694 467.733 37.7028 474.933C45.3028 483.333 47.3028 483.6 102.103 482.8L150.769 482.133L150.503 457.466C150.369 443.866 150.236 429.066 150.236 424.4L150.103 416L118.503 416.4C101.036 416.666 78.1028 417.066 67.4361 417.466ZM75.8361 434.266C86.2361 441.333 95.5694 447.866 96.5028 448.8C98.3694 450.533 97.1694 451.466 66.3694 472.8C56.1028 480 55.4361 480.133 50.2361 478C39.8361 473.6 32.7694 462.4 32.7694 450C32.7694 439.466 38.9028 428 46.6361 424.133C49.5694 422.666 53.1694 421.466 54.5028 421.466C55.7028 421.466 65.3028 427.2 75.8361 434.266ZM136.769 424.133C134.903 425.6 126.636 431.333 118.369 436.8L103.436 447.066L85.4361 435.2C75.5694 428.8 67.4361 423.066 67.4361 422.4C67.4361 421.866 83.8361 421.466 103.836 421.466C139.969 421.466 140.103 421.466 136.769 424.133ZM146.103 449.466C146.103 463.333 145.703 474.8 145.169 474.8C143.569 474.8 109.703 451.466 109.169 450C109.036 449.333 114.636 444.933 121.703 440.133C128.769 435.333 136.636 429.866 139.303 427.866C141.969 425.866 144.503 424.133 145.169 424.133C145.703 424.133 146.103 435.466 146.103 449.466ZM118.369 462.933C125.969 468.133 133.703 473.333 135.703 474.533C137.836 475.866 139.436 477.2 139.436 477.733C139.436 478.133 123.169 478.666 103.303 478.666C80.3694 478.8 67.5694 478.4 68.1028 477.6C68.5028 476.8 75.7028 471.6 84.2361 466C92.6361 460.4 99.8361 455.2 100.236 454.533C101.703 452.266 105.036 453.733 118.369 462.933Z" fill="black"/>
</svg>
