<svg width="180" height="180" viewBox="0 0 180 180" fill="none" xmlns="http://www.w3.org/2000/svg">
<rect x="0.1" y="0.1" width="179.8" height="179.8" fill="white" stroke="#CBCBCB" stroke-width="0.2"/>
<path d="M73.0667 56.7282C46.8 57.1282 40 57.5282 40 58.8615C40 59.9282 49.8667 67.1282 62 75.1282C74.1333 82.9949 84 89.9282 84 90.3282C84 90.7282 74.6667 97.3949 63.3333 104.995C34.1333 124.728 33.4667 124.062 79.7333 123.528C130.667 123.128 136 122.862 136 119.928C136 118.595 128.533 112.995 115.2 104.462C103.867 97.2615 94.2667 90.8615 94 90.4615C93.7333 89.9282 101.333 84.1949 110.933 77.6615C141.6 56.5949 142.133 55.6615 120.267 56.0615C112.4 56.3282 91.2 56.5949 73.0667 56.7282ZM124.533 62.1949C122.133 64.4615 89.4667 86.4615 88.6667 86.4615C88.1333 86.4615 79.7333 81.2615 69.8667 74.7282C54.4 64.7282 52.2667 62.9949 54.9333 62.1949C59.6 60.9949 126 60.9949 124.533 62.1949ZM110.133 106.728C119.2 112.728 126.533 117.662 126.4 117.795C125.2 118.728 52 119.662 52 118.862C52.1333 118.195 60.2667 112.328 70.2667 105.528C85.4667 95.2615 88.9333 93.5282 91.0667 94.5949C92.4 95.3949 101.067 100.862 110.133 106.728Z" fill="black"/>
</svg>
