<svg width="180" height="180" viewBox="0 0 180 180" fill="none" xmlns="http://www.w3.org/2000/svg">
<rect x="0.1" y="0.1" width="179.8" height="179.8" fill="white" stroke="#CBCBCB" stroke-width="0.2"/>
<path d="M70.3333 28.4578C56.7333 33.1244 45.8 43.1244 43.6667 52.7244C43 55.5244 42.0667 56.5911 39.8 56.5911C34.7333 56.5911 24.8667 63.9244 20.7333 70.8578C17.4 76.5911 17 78.4578 17 89.2578C17 99.1244 17.5333 102.324 19.9333 106.724C23.9333 114.191 33 121.791 39.1333 122.724C43.5333 123.524 44.2 124.058 45 128.191C47 138.991 63.4 149.924 81.9333 152.724C94.6 154.724 108.2 152.858 118.467 147.658C129.667 142.058 134.2 137.258 138.867 125.524C139.933 122.858 141.133 121.924 144.067 121.924C148.2 121.924 154.733 117.658 159 112.191C165.267 104.324 167.533 87.9244 164.067 76.4578C161.267 66.7244 150.2 56.5911 142.6 56.5911C140.067 56.5911 139.133 55.5244 137.8 51.2578C134.733 41.1244 124.2 31.9244 111 28.0578C101.267 25.1244 79.2667 25.3911 70.3333 28.4578ZM108.733 31.9244C120.733 35.5244 133.667 47.1244 133.667 54.1911C133.667 56.4578 130.733 56.5911 91 56.5911C50.3333 56.5911 48.3333 56.4578 48.3333 54.1911C48.3333 50.4578 55.4 41.3911 61 37.9244C73.8 30.0578 93.8 27.5244 108.733 31.9244ZM43 89.9244C43 112.458 42.6 119.258 41.4 119.258C40.4667 119.258 37.4 117.791 34.6 116.058C16.2 104.724 15.9333 74.8578 34.0667 64.0578C37.1333 62.1911 40.4667 60.5911 41.4 60.5911C42.6 60.5911 43 67.3911 43 89.9244ZM125.667 61.9244C125.667 62.5911 124.333 63.9244 122.733 64.7244C121.133 65.5244 113.667 70.7244 106.067 76.0578C98.4667 81.5244 91.9333 85.9244 91.6667 85.9244C90.0667 85.9244 56.3333 62.7244 56.3333 61.6578C56.3333 61.1244 71.9333 60.5911 91 60.5911C112.333 60.5911 125.667 61.1244 125.667 61.9244ZM148.2 63.3911C166.867 73.7911 165.8 107.124 146.467 116.591C143.4 118.058 140.467 119.258 139.933 119.258C139.4 119.258 139 106.058 139 89.9244C139 57.1244 138.733 58.0578 148.2 63.3911ZM68.7333 76.8578C78.0667 83.3911 85.6667 89.1244 85.6667 89.6578C85.6667 90.1911 83.1333 92.1911 80.0667 94.1911C76.8667 96.1911 72.8667 98.8578 71 100.191C69.1333 101.524 63.6667 105.391 58.6 108.858C53.6667 112.458 49.4 115.258 49 115.258C48.6 115.258 48.3333 103.524 48.3333 89.1244C48.3333 68.7244 48.7333 63.2578 50.0667 64.0578C50.8667 64.5911 59.2667 70.4578 68.7333 76.8578ZM133.667 89.2578V115.258L116.733 103.791C107.267 97.5244 98.8667 91.5244 97.9333 90.5911C96.4667 89.2578 99.5333 86.5911 114.467 76.0578C124.6 68.9911 133.133 63.2578 133.267 63.2578C133.533 63.2578 133.667 74.9911 133.667 89.2578ZM109.933 104.858L128.2 117.258L109.533 117.658C99.2667 117.791 82.6 117.791 72.6 117.658L54.3333 117.258L72.3333 104.991C82.2 98.3244 90.6 92.7244 91 92.7244C91.4 92.5911 99.8 98.1911 109.933 104.858ZM133 122.858C134.733 123.924 134.733 124.724 132.067 129.658C128.2 136.591 120.867 142.324 111.267 146.058C99.8 150.324 90.7333 150.724 77.8 147.391C62.7333 143.658 52.0667 135.791 49.1333 126.324L48.2 123.258L79.2667 122.991C96.3333 122.724 115 122.458 120.6 122.191C126.333 121.924 131.933 122.324 133 122.858Z" fill="black"/>
</svg>
