<svg width="180" height="180" viewBox="0 0 180 180" fill="none" xmlns="http://www.w3.org/2000/svg">
<rect x="0.1" y="0.1" width="179.8" height="179.8" fill="white" stroke="#CBCBCB" stroke-width="0.2"/>
<path d="M76.3639 26.8841C67.6972 29.1508 57.1639 34.7508 52.2306 39.8175C47.9639 44.2175 46.4972 46.7508 44.2306 53.8175C43.8306 55.1508 41.8306 56.4841 39.8306 57.0175C37.8306 57.4175 33.5639 59.2841 30.4972 61.0175C19.0306 67.5508 13.5639 87.8175 19.2972 103.017C23.5639 114.084 33.4306 122.884 41.8306 122.884C43.6972 122.884 44.8972 124.484 46.0972 128.884C47.2972 133.284 49.5639 136.617 54.2306 140.751C70.0972 155.017 99.5639 157.684 120.764 146.884C127.697 143.284 136.631 133.684 138.231 127.951C139.297 123.684 140.231 122.751 145.031 121.417C152.497 119.417 155.964 116.751 161.031 108.884C165.297 102.484 165.431 101.684 165.431 88.8841C165.431 77.1508 165.031 74.8841 162.231 70.4841C156.631 61.4175 153.431 59.2841 139.831 55.4175C138.897 55.1508 138.097 53.6841 138.097 52.2175C138.097 44.8841 129.031 35.2841 116.897 29.8175C110.897 27.1508 106.764 26.4841 95.4306 26.0841C87.6972 25.8175 79.1639 26.2175 76.3639 26.8841ZM114.231 33.8175C123.564 38.0841 129.564 43.2841 132.897 49.9508C136.097 56.2175 136.897 55.2841 120.097 66.7508C113.564 71.2841 104.764 77.2841 100.764 80.2175C92.7639 85.9508 90.7639 86.4841 87.5639 83.6841C86.3639 82.7508 77.1639 76.3508 67.1639 69.6841C55.0306 61.5508 48.7639 56.6175 48.7639 55.0175C48.7639 53.6841 50.6306 49.8175 52.8972 46.4841C56.2306 41.4175 58.8972 39.2841 66.6306 35.6841C78.4972 29.9508 79.9639 29.6841 94.8972 30.0841C104.364 30.3508 108.497 31.1508 114.231 33.8175ZM66.4972 74.8841C82.0972 85.4175 86.8972 89.2841 85.6972 90.3508C84.7639 91.1508 75.0306 98.2175 63.9639 105.951L43.6972 119.951L38.4972 117.551C28.4972 113.151 20.6306 100.351 20.7639 88.6175C21.0306 75.1508 34.4972 59.1508 44.2306 60.6175C45.1639 60.7508 55.1639 67.1508 66.4972 74.8841ZM147.164 62.0841C152.231 64.7508 157.564 70.7508 159.964 76.4841C164.097 86.3508 161.831 101.417 155.164 109.684C152.764 112.617 143.431 118.884 141.431 118.884C139.697 118.884 98.7639 91.6841 97.4306 89.6841C96.8972 88.6175 115.164 75.1508 134.097 62.6175C138.231 59.8175 142.497 59.6841 147.164 62.0841ZM113.031 106.351C124.631 114.084 134.364 120.884 134.764 121.551C135.964 123.551 132.097 131.284 127.564 135.817C125.297 138.217 119.697 142.084 115.164 144.484C107.164 148.617 106.097 148.884 92.0972 148.751C78.8972 148.751 76.6306 148.351 69.4306 145.151C59.8306 140.751 52.0972 133.417 49.9639 127.017C48.6306 122.884 48.6306 122.217 50.8972 120.617C52.2306 119.684 61.8306 113.017 72.0972 105.684C82.3639 98.3508 91.0306 92.3508 91.2972 92.3508C91.5639 92.2175 101.431 98.6175 113.031 106.351Z" fill="black"/>
</svg>
