<svg width="180" height="180" viewBox="0 0 180 180" fill="none" xmlns="http://www.w3.org/2000/svg">
<rect x="0.1" y="0.1" width="179.8" height="179.8" fill="white" stroke="#CBCBCB" stroke-width="0.2"/>
<path d="M76.0685 26.8492C61.8018 29.9159 48.0685 39.5159 43.9351 49.1159C41.6685 54.3159 41.2685 119.249 43.4018 126.983C47.9351 143.249 71.9351 155.116 96.0685 153.116C113.402 151.649 124.068 146.716 132.335 136.583L137.402 130.449V90.3159V50.0492L133.002 44.1826C127.802 36.9826 119.935 31.5159 110.868 28.7159C102.735 26.1826 83.5351 25.1159 76.0685 26.8492ZM111.402 33.7826C121.802 38.1826 127.135 42.5826 130.868 49.7826L134.068 56.1826H90.0685C48.8685 56.1826 46.2018 56.0492 47.0018 53.7826C48.2018 50.4492 54.2018 42.5826 57.9351 39.5159C69.9351 29.7826 95.2685 27.1159 111.402 33.7826ZM124.335 63.2492C123.002 64.1826 114.735 69.7826 106.068 75.7826L90.2018 86.5826L74.4685 75.9159C65.8018 69.9159 57.5351 64.3159 56.0685 63.3826C53.8018 61.7826 58.7351 61.5159 90.0685 61.6492C118.868 61.6492 126.202 62.0492 124.335 63.2492ZM66.7351 76.4492C76.6018 83.2492 84.7351 89.1159 84.7351 89.6492C84.7351 90.1826 79.8018 94.0492 73.8018 98.0492C67.6685 102.049 59.2685 107.916 55.1351 110.849L47.4018 116.183L47.2685 101.916C47.2685 93.9159 47.0018 82.3159 46.7351 75.7826C46.3351 68.8492 46.7351 64.1826 47.5351 64.1826C48.2018 64.1826 56.8685 69.6492 66.7351 76.4492ZM132.735 89.5159C132.735 103.383 132.468 114.849 132.068 114.849C131.668 114.849 128.202 112.583 124.335 109.783C120.468 106.983 112.468 101.516 106.468 97.5159C100.335 93.6492 95.4018 90.0492 95.4018 89.5159C95.4018 88.9826 100.068 85.5159 105.802 81.7826C111.402 78.0492 119.402 72.5826 123.402 69.6492C127.402 66.7159 131.135 64.1826 131.802 64.1826C132.335 64.1826 132.735 75.5159 132.735 89.5159ZM108.068 104.316C116.868 110.316 124.868 116.049 125.935 116.983C127.535 118.449 121.135 118.716 90.0685 118.849C69.2685 118.849 52.6018 118.583 53.0018 118.183C55.9351 115.249 88.4685 93.6492 90.0685 93.5159C91.1351 93.5159 99.1351 98.4492 108.068 104.316ZM133.268 123.916C134.468 125.916 127.935 135.383 122.335 139.783C107.135 151.383 78.4685 152.183 61.6685 141.516C55.5351 137.649 47.4018 128.049 47.4018 124.583C47.4018 123.116 55.1351 122.849 89.9351 122.849C113.402 122.849 132.868 123.383 133.268 123.916Z" fill="black"/>
</svg>
