<svg width="180" height="180" viewBox="0 0 180 180" fill="none" xmlns="http://www.w3.org/2000/svg">
<rect x="0.1" y="0.1" width="179.8" height="179.8" fill="white" stroke="#CBCBCB" stroke-width="0.2"/>
<path d="M40.2667 89.9333L40.6667 123H88H135.333L135.733 89.9333L136 57H88H40L40.2667 89.9333ZM121.333 61.6667C123.6 62.3333 121.867 64.0667 110.4 72.0667C92.4 84.6 89.7333 86.3333 88 86.3333C87.2 86.3333 82.5333 83.5333 77.6 80.0667C72.6667 76.6 65.0667 71.4 60.6667 68.4667L52.6667 63L72.6667 62.3333C83.7333 61.9333 98.5333 61.4 105.6 61.2667C112.667 61 119.733 61.1333 121.333 61.6667ZM130.4 103.133L130 115.667L115.333 105.533C107.333 99.9333 99.0667 94.3333 97.0667 93.1333C94.9333 91.9333 93.3333 90.6 93.3333 90.2C93.3333 89.6667 99.7333 85 107.733 79.6667C115.6 74.3333 123.867 68.4667 126 66.8667L130 63.8L130.4 77.1333C130.533 84.4667 130.533 96.2 130.4 103.133ZM64.6667 76.7333C74.2667 83.1333 82 89.1333 82 89.9333C82 91.2667 51.0667 113.8 47.0667 115.267C45.7333 115.8 45.3333 110.333 45.3333 90.4667C45.3333 76.4667 45.8667 65 46.4 65C46.9333 65 55.2 70.3333 64.6667 76.7333ZM105.867 104.733C115.467 111.267 123.333 117 123.6 117.8C123.867 118.467 109.867 119 88 119.133C68.1333 119.133 52 118.867 52 118.467C52 117.933 56.9333 114.333 62.8 110.333C68.8 106.333 76.8 100.867 80.5333 98.2C84.2667 95.4 87.6 93.2667 88 93.1333C88.4 93 96.4 98.3333 105.867 104.733Z" fill="black"/>
</svg>
