<svg width="180" height="180" viewBox="0 0 180 180" fill="none" xmlns="http://www.w3.org/2000/svg">
<rect x="0.1" y="0.1" width="179.8" height="179.8" fill="white" stroke="#CBCBCB" stroke-width="0.2"/>
<path d="M29.2667 90.0675L29.6667 123.134L78.3333 123.534C110.2 123.801 128.733 123.401 131.933 122.467C143.533 119.134 151.667 106.734 151.667 92.3341C151.667 77.0008 146.2 66.0675 135.533 60.3341C131.4 58.0675 126.733 57.8008 79.9333 57.4008L29 57.0008L29.2667 90.0675ZM135.933 66.0675C147.267 73.8008 151 91.4008 144.2 105.001C140.467 112.334 132.067 119.801 127.4 119.801C124.467 119.801 82.0667 91.8008 82.6 90.2008C82.8667 89.6675 92.3333 82.8675 103.667 75.1341C126.333 59.6675 126.6 59.6675 135.933 66.0675ZM110.333 64.4675C109.267 65.5341 101.133 71.1341 92.3333 77.0008C77.5333 87.0008 76.2 87.6675 73.6667 85.8008C72.2 84.7341 64.2 79.4008 56.0667 73.8008C47.8 68.3341 41 63.5341 41 63.1341C41 62.7341 57 62.4675 76.6 62.4675C107.8 62.4675 111.933 62.7341 110.333 64.4675ZM53.4 77.2675C63.1333 83.8008 71 89.8008 71 90.4675C71 91.8008 36.3333 115.801 34.3333 115.801C33.5333 115.801 33 106.201 33 90.4675C33 73.6675 33.5333 65.1341 34.4667 65.1341C35.1333 65.1341 43.6667 70.6008 53.4 77.2675ZM95 105.401C104.867 112.067 112.867 117.801 112.6 117.934C111.933 118.601 42.0667 118.734 41.5333 118.067C41.1333 117.801 46.4667 113.934 53.2667 109.401C60.0667 105.001 68.0667 99.5341 71 97.2675C73.9333 95.0008 76.4667 93.1341 76.7333 93.1341C76.8667 93.1341 85.1333 98.6008 95 105.401Z" fill="black"/>
</svg>
