<svg width="540" height="540" viewBox="0 0 540 540" fill="none" xmlns="http://www.w3.org/2000/svg">
<rect x="0.1" y="0.1" width="179.8" height="179.8" fill="white" stroke="#CBCBCB" stroke-width="0.2"/>
<rect x="180.1" y="0.1" width="179.8" height="179.8" fill="white" stroke="#CBCBCB" stroke-width="0.2"/>
<rect x="360.1" y="0.1" width="179.8" height="179.8" fill="white" stroke="#CBCBCB" stroke-width="0.2"/>
<rect x="0.1" y="180.1" width="179.8" height="179.8" fill="white" stroke="#CBCBCB" stroke-width="0.2"/>
<rect x="180.1" y="180.1" width="179.8" height="179.8" fill="white" stroke="#CBCBCB" stroke-width="0.2"/>
<rect x="360.1" y="180.1" width="179.8" height="179.8" fill="white" stroke="#CBCBCB" stroke-width="0.2"/>
<rect x="0.1" y="360.1" width="179.8" height="179.8" fill="white" stroke="#CBCBCB" stroke-width="0.2"/>
<rect x="180.1" y="360.1" width="179.8" height="179.8" fill="white" stroke="#CBCBCB" stroke-width="0.2"/>
<rect x="360.1" y="360.1" width="179.8" height="179.8" fill="white" stroke="#CBCBCB" stroke-width="0.2"/>
<path d="M446.909 460.909V460.636C446.939 457.742 447.242 455.439 447.818 453.727C448.394 452.015 449.212 450.629 450.273 449.568C451.333 448.508 452.606 447.53 454.091 446.636C454.985 446.091 455.788 445.447 456.5 444.705C457.212 443.947 457.773 443.076 458.182 442.091C458.606 441.106 458.818 440.015 458.818 438.818C458.818 437.333 458.47 436.045 457.773 434.955C457.076 433.864 456.144 433.023 454.977 432.432C453.811 431.841 452.515 431.545 451.091 431.545C449.848 431.545 448.652 431.803 447.5 432.318C446.348 432.833 445.386 433.644 444.614 434.75C443.841 435.856 443.394 437.303 443.273 439.091H437.545C437.667 436.515 438.333 434.311 439.545 432.477C440.773 430.644 442.386 429.242 444.386 428.273C446.402 427.303 448.636 426.818 451.091 426.818C453.758 426.818 456.076 427.348 458.045 428.409C460.03 429.47 461.561 430.924 462.636 432.773C463.727 434.621 464.273 436.727 464.273 439.091C464.273 440.758 464.015 442.265 463.5 443.614C463 444.962 462.273 446.167 461.318 447.227C460.379 448.288 459.242 449.227 457.909 450.045C456.576 450.879 455.508 451.758 454.705 452.682C453.902 453.591 453.318 454.674 452.955 455.932C452.591 457.189 452.394 458.758 452.364 460.636V460.909H446.909ZM449.818 474.364C448.697 474.364 447.735 473.962 446.932 473.159C446.129 472.356 445.727 471.394 445.727 470.273C445.727 469.152 446.129 468.189 446.932 467.386C447.735 466.583 448.697 466.182 449.818 466.182C450.939 466.182 451.902 466.583 452.705 467.386C453.508 468.189 453.909 469.152 453.909 470.273C453.909 471.015 453.72 471.697 453.341 472.318C452.977 472.939 452.485 473.439 451.864 473.818C451.258 474.182 450.576 474.364 449.818 474.364Z" fill="black"/>
<path d="M494.067 30.4699C490.6 32.6032 488.467 40.3366 490.467 44.0699C496.067 54.6032 510.333 51.4032 510.333 39.6699C510.333 31.4032 501.267 26.3366 494.067 30.4699Z" fill="black"/>
<path d="M392.333 33.8027C390.2 35.8027 389 38.6027 389 41.1361C389 43.6694 390.2 46.4694 392.333 48.4694C394.333 50.6027 397.133 51.8027 399.667 51.8027C402.2 51.8027 405 50.6027 407 48.4694C409.133 46.4694 410.333 43.6694 410.333 41.1361C410.333 38.6027 409.133 35.8027 407 33.8027C405 31.6694 402.2 30.4694 399.667 30.4694C397.133 30.4694 394.333 31.6694 392.333 33.8027Z" fill="black"/>
<path d="M74.7895 33.0956C60.6562 36.829 47.1895 47.3623 39.5895 60.429C30.3895 76.429 29.4562 97.8956 37.3229 114.296C58.9229 159.229 121.59 160.029 143.99 115.762C148.523 106.696 148.656 106.029 148.656 90.429C148.656 75.0956 148.39 73.8956 144.39 65.3623C131.99 39.0956 102.79 25.4956 74.7895 33.0956ZM106.79 39.629C121.323 44.429 132.39 54.2956 139.19 68.2956C142.923 76.1623 143.323 78.029 143.323 90.2956C143.323 102.429 142.923 104.429 139.19 112.296C121.856 148.962 73.0562 153.762 48.2562 121.362C40.5229 111.096 38.1229 103.362 38.1229 88.9623C38.2562 78.9623 38.7895 75.629 41.7229 69.3623C53.3229 43.629 80.7895 31.0956 106.79 39.629Z" fill="black"/>
<path d="M63.5895 47.8959C61.7229 49.6292 62.7895 50.9626 67.0562 52.6959C69.4562 53.7626 73.1895 56.6959 75.5895 59.3626C79.8562 64.1626 85.3229 76.8292 85.3229 81.7626C85.3229 84.2959 84.7895 84.4292 79.7229 83.6292C70.7895 82.0292 61.0562 77.2292 56.2562 71.7626C53.9895 69.0959 51.9895 66.2959 51.9895 65.6292C51.9895 64.8292 50.6562 64.2959 49.1895 64.2959C46.5229 64.2959 46.3895 64.8292 47.1895 71.2292C47.5895 75.0959 47.9895 86.8292 47.9895 97.2292C47.9895 112.963 48.3895 116.296 49.9895 116.296C51.0562 116.296 52.7895 114.163 53.9895 111.629C56.9229 105.629 66.5229 99.6292 76.9229 97.0959C81.4562 96.1626 85.4562 95.4959 85.7229 95.8959C86.5229 96.6959 84.2562 106.296 81.8562 112.029C79.4562 117.763 72.6562 125.363 68.3895 127.096C66.6562 127.763 65.3229 129.096 65.3229 130.296C65.3229 132.029 68.9229 132.296 91.3229 132.296C116.39 132.296 117.323 132.163 117.323 129.629C117.323 128.029 116.39 126.963 115.056 126.963C110.923 126.963 101.59 115.496 99.4562 108.029C96.1229 96.0292 96.1229 95.6292 100.656 96.0292C112.79 97.2292 123.456 103.229 127.99 111.229C131.056 116.696 133.99 117.363 133.856 112.563C133.856 110.963 133.723 99.0959 133.59 86.2959C133.323 68.0292 132.923 62.9626 131.59 62.9626C130.656 62.9626 128.79 64.9626 127.59 67.4959C124.79 73.4959 118.39 78.1626 108.39 81.4959C96.6562 85.3626 95.5895 85.2292 96.6562 79.8959C99.4562 65.6292 104.523 56.8292 112.123 52.8292C114.256 51.7626 115.99 50.0292 115.99 48.9626C115.99 47.2292 111.99 46.9626 90.2562 46.9626C75.9895 46.9626 63.9895 47.3626 63.5895 47.8959Z" fill="black"/>
<path d="M298.071 58.6181L277.271 80.2181L278.604 74.0848C279.404 70.6181 279.671 64.6181 279.137 60.4848C278.071 52.0848 273.137 41.5515 270.204 41.5515C264.604 41.5515 259.137 63.8181 262.071 74.4848C262.871 77.2848 263.137 79.5515 262.871 79.5515C262.604 79.5515 253.004 70.3515 241.537 59.1515C230.204 48.0848 219.937 38.7515 218.871 38.4848C213.671 37.2848 219.004 43.8181 238.737 62.8848C251.271 75.0181 259.004 83.4181 257.137 82.8848C247.937 80.2181 231.937 82.6181 224.604 87.8181C219.937 91.1515 221.137 92.7515 230.604 96.8848C236.204 99.2848 239.404 99.6848 248.471 99.2848L259.671 98.8848L239.004 119.551C227.671 130.885 218.337 141.018 218.337 141.951C218.337 145.951 223.137 142.085 243.004 122.218C254.604 110.485 264.337 100.885 264.471 100.885C264.737 100.885 264.204 102.751 263.404 104.885C261.271 111.418 262.604 124.751 266.337 132.218C270.337 139.951 271.937 140.751 274.871 136.351C278.737 130.218 280.871 119.151 279.671 110.618C279.137 106.351 278.871 102.618 279.271 102.218C279.537 101.951 288.871 110.751 300.071 121.951C311.271 133.151 321.137 142.218 322.071 142.218C326.337 142.218 322.071 136.885 302.071 117.551C285.671 101.685 281.404 97.0181 284.471 97.8181C286.604 98.3515 292.337 98.7515 297.137 98.6181C307.004 98.4848 318.737 93.8181 319.404 89.9515C320.471 84.2181 296.471 78.4848 286.471 81.9515C284.204 82.7515 282.337 83.0181 282.337 82.6181C282.337 82.2181 291.404 72.6181 302.337 61.4181C320.604 42.6181 325.137 36.6181 320.737 37.0181C319.804 37.1515 309.671 46.8848 298.071 58.6181Z" fill="black"/>
<path d="M440.6 66.2027L426.2 66.6027L426.6 90.2027L427 113.803L451 113.403C464.2 113.136 475 112.869 475.133 112.736C475.133 112.603 474.867 101.803 474.6 88.8694L474.067 65.2694L464.467 65.5361C459.267 65.6694 448.467 65.9361 440.6 66.2027Z" fill="black"/>
<path d="M495.267 129.403C489.533 133.803 489.933 142.736 495.933 147.003C500.067 149.936 504.2 149.669 508.2 146.069C511.533 143.136 512.067 141.536 511.8 136.069C511.4 129.269 501 125.136 495.267 129.403Z" fill="black"/>
<path d="M393.667 132.47C391.533 134.47 390.333 137.27 390.333 139.803C390.333 142.336 391.533 145.136 393.667 147.136C403.267 156.87 417.4 143.403 408.867 132.603C405.133 127.936 398.2 127.803 393.667 132.47Z" fill="black"/>
<path d="M255.133 213.492C228.2 221.092 211 243.092 211 270.159C211 292.825 222.733 312.159 242.2 321.359C258.067 328.959 270.467 330.292 286.333 326.025C301.8 321.759 316.6 309.225 323.4 294.159C329 282.025 329.933 266.425 325.8 252.959C320.467 235.625 305.533 220.292 288.467 214.825C278.333 211.625 264.067 211.092 255.133 213.492ZM283.8 219.492C303.667 225.892 316.467 239.492 321.267 258.959C323.133 266.425 323.267 269.225 321.933 277.759C319.133 295.492 309.533 308.692 293.4 317.092C285.267 321.359 284.467 321.492 269.667 321.492C255.267 321.492 253.8 321.225 246.333 317.492C214.067 301.359 206.6 258.692 231.8 233.625C245.4 220.025 267.133 214.159 283.8 219.492Z" fill="black"/>
<path d="M245.667 270.159V294.159L269.4 293.893L293 293.493L293.4 269.759L293.667 246.159H269.667H245.667V270.159Z" fill="black"/>
<path d="M32.6 214.067C27.8 218.867 27.8 225.801 32.6 229.534C37.5333 233.401 43.1333 233.134 47.4 228.867C50.2 226.067 50.6 224.601 50.0667 220.601C49 214.601 46.8667 212.467 40.8667 211.401C36.8667 210.867 35.4 211.267 32.6 214.067Z" fill="black"/>
<path d="M131.8 213.667C128.067 217.4 128.333 224.467 132.2 228.067C139.667 235.134 151.533 229.134 149.933 219.267C148.867 212.734 146.867 211 140.333 211C136.2 211 133.667 211.8 131.8 213.667Z" fill="black"/>
<path d="M477.467 238.843C464 252.577 456 259.91 456 258.443C456 257.11 456.933 253.11 458.267 249.51C460.533 242.577 470.4 231.51 474 231.51C475.333 231.51 476 230.577 475.733 229.11C475.333 227.377 474 226.843 469.333 226.977C466 227.11 454.133 227.243 443.067 227.377C426.267 227.51 422.667 227.91 422.667 229.377C422.667 230.443 424 231.777 425.733 232.31C433.467 234.71 441.067 244.71 443.333 255.51C444.267 259.643 442.667 258.443 422.8 239.51C403.467 221.11 396 215.377 396 219.243C396 220.31 435.733 258.977 439.2 261.11C442.533 263.377 438.267 263.643 432.133 261.51C423.733 258.71 415.333 252.71 412.667 247.51C411.6 245.377 409.733 243.51 408.667 243.51C406.933 243.51 406.667 247.51 406.667 269.51C406.667 294.043 406.8 295.51 409.2 295.51C410.667 295.51 412.267 293.91 413.333 291.51C414.267 289.243 417.2 285.777 419.867 283.643C424.533 280.043 435.6 275.51 439.867 275.51C441.067 275.51 431.867 285.51 419.6 297.91C407.333 310.177 397.333 320.71 397.333 321.243C397.333 325.243 404.667 319.243 422.933 300.443C440.533 282.31 444 279.377 444 282.177C444 286.71 438.4 298.177 434.533 301.777C432.8 303.377 429.733 305.243 427.733 306.043C425.6 306.843 424 308.31 424 309.51C424 311.243 427.6 311.51 450.667 311.51C475.467 311.51 477.333 311.377 477.333 309.11C477.333 307.643 475.6 306.043 472.667 304.977C466 302.577 458.8 292.443 456.667 282.177C455.733 277.91 457.467 279.243 478.267 299.243C490.8 311.11 501.6 320.843 502.533 320.843C506.667 320.843 502.267 315.51 483.067 297.51C471.467 286.577 461.867 277.243 461.6 276.577C460.667 274.443 466.133 275.643 474.133 279.377C482 283.11 487.067 287.777 488.667 292.977C489.2 294.31 490.4 295.51 491.333 295.51C492.8 295.51 493.333 291.11 493.6 272.443C494.133 244.843 494 243.51 490.533 243.51C489.2 243.51 488 244.443 488 245.51C488 250.843 470.933 262.177 462.8 262.177C461.6 262.177 470.133 252.71 481.733 241.11C493.2 229.643 502.667 219.377 502.667 218.443C502.667 214.31 497.467 218.443 477.467 238.843Z" fill="black"/>
<path d="M83.1334 227.667C79.8001 234.334 79.5334 236.201 80.0667 245.401C80.4667 251.267 81.6667 257.534 83.0001 259.934C84.2001 262.334 85.0001 264.334 84.7334 264.334C84.4667 264.334 81.4001 263.401 77.9334 262.201C69.1334 259.134 54.4667 260.067 46.2 264.201C42.6 265.801 39.8 268.067 39.8 269.134C39.8 270.334 43.1334 272.734 47.4 274.601C57.4 279.267 69.9334 279.534 78.6001 275.267C81.9334 273.667 85.0001 272.334 85.5334 272.334C86.0667 272.334 85.2667 274.867 83.6667 277.934C79.0001 287.134 80.3334 304.734 86.6001 314.867C89.4001 319.267 91.6667 318.201 94.7334 311.267C99.0001 301.801 99.5334 287.801 95.9334 279.667C94.3334 276.201 93.2667 273.001 93.5334 272.867C93.8001 272.601 97.2667 273.667 101.267 275.134C110.333 278.734 120.6 277.934 131 273.267C141.667 268.334 140.867 265.934 126.6 261.001C115.933 257.267 105.8 258.601 92.8667 265.401C92.4667 265.667 93.2667 263.534 94.6001 260.734C98.3334 253.667 97.8001 232.601 93.6667 225.667C89.5334 218.601 87.2667 219.001 83.1334 227.667Z" fill="black"/>
<path d="M133.267 311.801C129.667 316.334 129.667 320.734 133.533 324.867C138.067 330.067 142.6 330.467 147.533 326.334C155.4 319.667 151.267 308.334 141.133 308.334C137.133 308.334 135.4 309.134 133.267 311.801Z" fill="black"/>
<path d="M33.1333 312.334C26.7333 318.734 31.9333 329.667 41.4 329.667C46.8667 329.667 51.8 324.867 51.8 319.667C51.8 318.067 50.6 315.134 49 313.134C45.5333 308.734 37.2667 308.2 33.1333 312.334Z" fill="black"/>
<path d="M311.586 392.717C307.719 396.584 307.986 403.917 312.253 408.05C316.253 412.184 321.053 412.317 325.586 408.317C329.986 404.717 330.519 396.717 326.786 392.584C323.586 389.117 315.186 389.117 311.586 392.717Z" fill="black"/>
<path d="M211.586 394.05C208.252 397.383 208.119 404.716 211.319 408.716C214.519 412.583 222.652 412.983 226.252 409.25C233.319 402.183 229.319 391.383 219.452 391.383C215.986 391.383 213.319 392.316 211.586 394.05Z" fill="black"/>
<path d="M37 398.733C37 399.666 43.6667 407 51.6667 415L66.3333 429.666V450.333V471L52.3333 485C39.1333 498.2 36.2 502.333 40.0667 502.333C41 502.333 48.3333 495.666 56.3333 487.666L71 473H91H111L125.667 487C133.8 494.6 141.133 500.866 142.067 501C146.2 501.133 142.6 496.333 129 483.666L114.333 470.066V449.133V428.333L128.333 414.333C141.533 401.133 144.467 397 140.733 397C139.8 397 132.733 403.266 125 410.866L111 424.733L91 425.533C80.0667 425.933 70.2 425.8 69.2667 425.266C68.3333 424.6 61.4 418.066 53.8 410.6C40.4667 397.533 37 395 37 398.733Z" fill="black"/>
<path d="M242.919 408.716C241.852 410.583 243.319 412.716 245.719 412.716C251.852 412.716 263.052 429.25 263.852 439.516C264.252 443.65 263.986 444.05 260.919 443.65C247.986 441.916 234.386 434.183 232.252 427.25C231.719 425.916 230.252 424.716 228.786 424.716C226.252 424.716 226.119 425.516 226.519 450.316C226.919 472.716 227.186 476.05 229.052 476.45C230.386 476.716 231.852 475.383 232.786 472.983C236.119 464.983 247.186 457.916 259.452 455.916L265.052 454.983L264.252 460.183C263.186 466.45 257.719 478.983 254.519 482.583C253.319 483.916 250.252 485.916 247.852 486.983C238.519 490.85 243.319 492.05 270.652 492.45C296.119 492.716 296.919 492.716 296.919 490.05C296.919 488.316 295.719 487.116 293.586 486.583C286.652 484.85 275.586 467.25 275.586 457.783C275.586 455.25 276.119 455.116 281.319 455.783C293.586 457.516 305.052 464.85 307.986 472.983C308.519 474.316 309.719 475.383 310.919 475.383C312.652 475.383 312.919 471.783 312.919 449.383C312.919 424.316 312.786 423.383 310.252 423.383C308.786 423.383 307.586 424.183 307.586 425.25C307.586 428.183 302.386 433.783 296.519 437.383C290.919 440.583 277.052 444.85 275.452 443.916C274.119 443.116 276.652 432.85 280.252 424.983C282.652 419.783 284.919 417.116 289.452 414.316C299.986 407.916 298.386 407.383 269.719 407.383C253.852 407.383 243.452 407.916 242.919 408.716Z" fill="black"/>
<path d="M215.986 490.05C209.986 492.45 208.519 500.716 213.052 506.583C215.186 509.25 216.919 510.05 220.919 510.05C224.919 510.05 226.652 509.25 228.786 506.583C232.652 501.65 232.252 497.25 227.719 492.583C223.719 488.583 221.052 488.05 215.986 490.05Z" fill="black"/>
<path d="M312.386 491.65C309.586 495.65 309.719 502.45 312.652 506.05C315.852 510.05 324.119 510.05 327.986 506.183C331.586 502.716 331.719 495.116 328.252 491.383C324.786 487.516 315.186 487.65 312.386 491.65Z" fill="black"/>
</svg>
