<svg width="180" height="180" viewBox="0 0 180 180" fill="none" xmlns="http://www.w3.org/2000/svg">
<rect x="0.1" y="0.1" width="179.8" height="179.8" fill="white" stroke="#CBCBCB" stroke-width="0.2"/>
<path d="M75.4191 33.0706C69.1524 34.6706 58.6191 39.6039 53.6858 43.3373L49.1524 46.8039L43.9524 41.7373C39.9524 37.7373 38.3524 37.0706 37.1524 38.2706C35.9524 39.4706 36.6191 41.0706 40.6191 45.0706L45.5524 50.1373L41.5524 56.6706C36.4858 64.4039 32.6191 74.5373 31.4191 82.8039C29.4191 95.7373 34.7524 114.271 43.6858 126.271L47.0191 130.804L42.8858 135.071C35.5524 142.671 38.7524 145.737 46.3524 138.271L50.7524 134.004L56.4858 138.137C65.1524 144.404 77.5524 148.137 90.0858 148.137C103.552 148.271 113.552 145.337 123.552 138.671L131.419 133.337L136.086 138.004C138.752 140.537 141.552 142.537 142.486 142.537C145.419 142.537 144.086 139.071 139.552 134.671L135.019 130.271L140.219 121.737C153.552 100.004 152.086 74.1373 136.619 53.7373L133.419 49.7373L138.086 45.2039C142.752 40.6706 144.086 37.2039 141.152 37.2039C140.219 37.2039 137.419 39.3373 134.752 41.8706L129.952 46.5373L123.552 41.8706C113.952 35.0706 103.019 31.8706 90.2191 32.0039C84.2191 32.1373 77.6858 32.5373 75.4191 33.0706ZM104.619 39.0706C110.886 40.9373 125.419 49.0706 125.419 50.5373C125.419 50.9373 117.686 59.4706 108.219 69.3373L91.0191 87.2039L81.8191 78.5373C60.0858 58.0039 53.5524 51.3373 54.2191 50.2706C55.4191 48.4039 67.2858 42.0039 74.0858 39.6039C82.2191 36.8039 96.2191 36.5373 104.619 39.0706ZM70.7524 73.7373L87.4191 90.5373L69.4191 108.537L51.4191 126.671L48.3524 122.937C34.3524 105.737 33.4191 78.1373 46.3524 59.6039C49.0191 55.7373 50.2191 54.9373 51.9524 55.8706C53.1524 56.5373 61.5524 64.5373 70.7524 73.7373ZM136.752 64.5373C141.686 72.8039 144.486 85.8706 143.419 94.9373C142.352 104.671 138.219 115.737 133.552 121.071L130.086 125.204L112.086 108.004L94.0858 90.8039L99.4191 85.0706C102.352 81.8706 110.086 73.7373 116.619 66.9373C130.086 53.0706 130.086 53.0706 136.752 64.5373ZM109.152 111.337C128.752 130.004 128.486 129.204 117.819 135.471C109.552 140.271 100.752 142.671 90.6191 142.671C79.1524 142.671 71.9524 140.804 62.2191 134.937L54.4858 130.137L72.2191 112.404C82.0858 102.537 90.3524 94.5373 90.7524 94.5373C91.1524 94.5373 99.4191 102.137 109.152 111.337Z" fill="black"/>
</svg>
