<svg width="180" height="180" viewBox="0 0 180 180" fill="none" xmlns="http://www.w3.org/2000/svg">
<rect x="0.1" y="0.1" width="179.8" height="179.8" fill="white" stroke="#CBCBCB" stroke-width="0.2"/>
<path d="M70.3164 41.55C43.383 51.55 27.9164 76.8834 31.5164 105.417C33.2497 119.15 38.983 130.083 49.2497 139.683C68.3164 157.15 93.5164 160.883 116.45 149.55C142.45 136.75 155.116 105.95 145.65 78.35C143.783 73.0167 143.783 71.6834 145.25 70.6167C146.583 69.55 146.583 69.4167 144.983 69.8167C143.916 70.2167 140.85 67.4167 137.516 62.8834C130.85 53.8167 123.65 47.95 113.383 43.2834C102.45 38.35 81.1164 37.55 70.3164 41.55ZM112.183 49.4167C123.783 55.15 132.316 63.8167 138.183 76.2167C142.583 85.2834 142.983 87.2834 142.983 97.6834C142.85 107.817 142.45 109.95 138.05 119.017C118.316 160.217 62.8497 160.883 41.383 119.95C37.9164 113.417 37.6497 111.683 37.6497 98.2167C37.6497 84.2167 37.9164 83.15 42.183 74.2167C47.383 63.6834 54.8497 55.8167 64.7164 50.4834C73.5164 45.6834 80.583 44.2167 93.2497 44.75C101.65 45.0167 105.116 45.8167 112.183 49.4167Z" fill="black"/>
<path d="M83.783 51.4174C77.6497 61.1508 77.383 77.4174 83.1163 88.4841C85.1163 92.3508 85.1163 92.6174 82.8497 91.5508C72.7163 87.2841 69.1163 86.6174 60.583 87.2841C50.983 88.0841 39.6497 93.2841 39.6497 96.8841C39.6497 97.8174 42.4497 100.084 46.0497 101.817C54.983 106.217 72.7163 106.217 80.0497 101.951C85.783 98.4841 85.9163 99.0174 82.183 107.684C79.783 112.884 79.383 115.684 80.0497 123.017C80.8497 131.951 85.5163 144.351 88.4497 145.151C92.7163 146.484 99.1163 126.351 97.783 116.351C97.383 113.017 95.783 108.084 94.3163 105.284C92.8497 102.484 91.6497 99.8174 91.6497 99.5508C91.6497 99.2841 94.4497 100.217 97.783 101.551C108.45 106.217 126.183 104.617 134.85 98.4841L138.716 95.8174L135.116 92.7508C127.25 85.8174 108.583 84.0841 98.7163 89.2841C91.5163 93.0174 91.1163 93.0174 93.6497 88.2174C98.4497 78.8841 97.2497 57.5508 91.5163 50.3508C87.9163 45.8174 87.1163 45.9508 83.783 51.4174Z" fill="black"/>
</svg>
