<svg width="180" height="180" viewBox="0 0 180 180" fill="none" xmlns="http://www.w3.org/2000/svg">
<rect x="0.1" y="0.1" width="179.8" height="179.8" fill="white" stroke="#CBCBCB" stroke-width="0.2"/>
<path d="M130.85 45.3319C112.85 64.5319 96.4495 81.0652 95.7829 80.3985C94.4495 79.0652 99.5162 65.4652 103.25 60.6652C105.25 57.9985 108.85 54.9319 111.25 53.7319C113.516 52.5319 115.516 50.7985 115.516 49.7319C115.516 47.9985 111.383 47.7319 89.5162 47.7319C64.4495 47.7319 63.5162 47.8652 63.5162 50.3985C63.5162 51.8652 64.4495 53.0652 65.5162 53.0652C71.1162 53.0652 81.1162 67.0652 83.1162 77.4652C83.7829 81.1985 81.2495 79.1985 62.0495 59.9985C49.9162 48.1319 39.3829 38.3985 38.4495 38.3985C34.3162 38.3985 38.4495 43.5985 58.3162 63.0652C70.0495 74.5319 79.5162 84.1319 79.2495 84.5319C78.1829 85.4652 66.3162 81.1985 61.2495 77.9985C58.4495 76.2652 54.9829 72.5319 53.5162 69.8652C51.9162 66.9319 49.9162 65.0652 48.3162 65.0652C45.9162 65.0652 45.9162 65.7319 46.7162 75.3319C47.1162 80.9319 47.5162 92.5319 47.5162 101.332C47.5162 116.132 47.6495 117.065 50.1829 117.065C51.6495 117.065 52.8495 116.132 52.8495 115.065C52.8495 111.065 62.3162 102.532 69.6495 99.7319C73.6495 98.2652 77.9162 97.0652 79.2495 97.0652C80.5829 97.0652 72.1829 106.399 58.8495 119.732C40.0495 138.665 36.7162 142.399 38.8495 143.199C40.8495 143.999 45.5162 139.999 62.4495 122.399C84.1829 99.9985 86.7162 98.5319 80.7162 112.665C77.5162 120.132 72.7162 125.599 67.3829 127.732C65.2495 128.665 63.5162 130.265 63.5162 131.199C63.5162 132.665 68.4495 133.065 90.1829 133.065C115.65 133.065 116.85 132.932 116.85 130.532C116.85 128.799 115.65 127.732 112.85 127.065C108.85 126.132 103.516 120.932 100.316 114.532C97.6495 109.599 95.5162 100.799 96.8495 101.332C97.5162 101.599 107.65 110.932 119.383 121.999C131.116 133.199 141.25 142.399 142.05 142.399C145.516 142.399 142.85 138.132 134.583 130.399C129.516 125.732 119.65 116.265 112.45 109.332C99.3829 96.7985 99.3829 96.7985 104.45 97.7319C115.65 99.7319 122.583 104.265 127.65 112.799C129.116 115.199 130.85 116.799 131.516 116.399C132.316 115.865 132.85 105.199 132.85 89.5985C132.85 65.0652 132.716 63.7319 130.316 63.7319C128.85 63.7319 127.516 64.9319 126.983 66.9319C125.383 73.3319 110.85 83.7319 103.383 83.7319C101.383 83.7319 105.65 78.3985 121.116 62.2652C132.316 50.5319 141.65 39.9985 141.916 38.9319C142.85 34.7985 138.183 37.4652 130.85 45.3319Z" fill="black"/>
</svg>
