<svg width="180" height="180" viewBox="0 0 180 180" fill="none" xmlns="http://www.w3.org/2000/svg">
<rect x="0.1" y="0.1" width="179.8" height="179.8" fill="white" stroke="#CBCBCB" stroke-width="0.2"/>
<path d="M119.133 56.665C108.333 67.9984 99 77.3317 98.4667 77.3317C97.9333 77.3317 97.9333 73.9984 98.7333 69.7317C99.6667 64.5317 99.5333 60.1317 98.4667 55.465C96.7333 47.5984 92.4667 39.9984 89.9333 39.9984C87.2667 39.9984 82.0667 51.865 81.4 59.9984C81 63.9984 81.4 69.7317 82.2 72.5317C83 75.465 83.4 77.9984 83.2667 78.1317C83.1333 78.265 73.5333 69.1984 61.9333 57.865C42.7333 39.1984 37 34.7984 37 38.665C37 39.465 46.7333 49.5984 58.7333 61.3317C76.2 78.5317 79.5333 82.3984 75.9333 81.1984C66.3333 77.9984 43.2667 83.1984 41.2667 89.065C40.4667 91.5984 54.7333 97.465 63.6667 98.265C68.0667 98.665 73.4 98.3984 75.9333 97.465C80.4667 95.865 81.2667 95.065 46.0667 130.798C38.8667 137.998 36.4667 142.665 39.6667 142.665C40.3333 142.665 50.4667 133.065 61.9333 121.198L83 99.7317V112.265C83 122.798 83.5333 125.598 86.3333 131.332C88.2 134.932 90.6 137.998 91.6667 137.998C94.4667 137.998 99.9333 123.732 99.9333 116.398C99.9333 113.198 99.5333 107.998 99 104.932L98.0667 99.3317L116.333 117.332C126.467 127.198 136.067 136.665 137.8 138.265C141.4 141.865 143.667 142.132 143.667 139.198C143.667 137.465 115.933 109.465 104.6 99.865L100.867 96.665H113.933C124.867 96.665 128.067 96.1317 133.4 93.465C141.8 89.3317 141.667 86.5317 132.733 82.5317C125 79.1984 111.533 78.665 104.467 81.3317C101.933 82.265 107.133 75.9984 121.267 61.3317C132.467 49.465 141.8 38.9317 142.067 37.865C143.267 32.7984 137.267 37.7317 119.133 56.665Z" fill="black"/>
</svg>
