<svg width="180" height="180" viewBox="0 0 180 180" fill="none" xmlns="http://www.w3.org/2000/svg">
<rect x="0.1" y="0.1" width="179.8" height="179.8" fill="white" stroke="#CBCBCB" stroke-width="0.2"/>
<path d="M84.6347 46.2774C83.0347 49.3441 81.4347 55.2108 80.9014 59.3441L79.968 66.9441L73.7014 67.3441L67.3014 67.7441V74.4108V80.9441H61.7014C55.8347 80.9441 43.168 86.0108 41.3014 88.9441C39.168 92.4108 48.6347 97.2108 61.0347 98.9441L67.3014 99.7441V107.744V115.611H74.6347C81.4347 115.611 81.968 115.877 81.968 118.811C81.968 122.677 85.3014 132.411 88.1014 136.677C89.8347 139.211 90.5014 139.477 92.1014 138.144C94.9014 135.877 97.968 128.144 99.0347 120.944L99.968 114.944L107.968 114.544L115.968 114.144L115.568 106.411L115.035 98.6774L121.435 97.7441C129.568 96.6774 139.301 91.8774 139.301 88.8108C139.301 86.2774 128.101 80.9441 120.368 79.8774C115.568 79.3441 115.435 79.0774 115.035 73.0774L114.635 66.9441L107.168 67.2108L99.7014 67.6108L98.768 60.6774C98.2347 56.8108 96.5014 50.8108 95.0347 47.3441C91.568 39.2108 88.368 38.9441 84.6347 46.2774Z" fill="black"/>
</svg>
