<svg width="180" height="180" viewBox="0 0 180 180" fill="none" xmlns="http://www.w3.org/2000/svg">
<rect x="0.1" y="0.1" width="179.8" height="179.8" fill="white" stroke="#CBCBCB" stroke-width="0.2"/>
<path d="M130.994 33.4628C123.661 42.7962 132.727 54.3962 143.661 49.1962C149.527 46.3962 151.261 39.5962 147.261 34.2628C143.261 28.9295 134.861 28.5295 130.994 33.4628Z" fill="black"/>
<path d="M30.3275 34.2636C22.1941 45.8636 37.2608 58.1303 46.5941 47.7303C50.1941 43.8636 49.9275 38.1303 45.9275 33.7303C42.7275 30.1303 32.9941 30.3969 30.3275 34.2636Z" fill="black"/>
<path d="M62.4608 48.2634C60.5941 49.9967 61.6608 51.3301 65.9274 53.1967C72.1941 55.7301 78.5941 63.9967 80.9941 72.6634C82.1941 76.6634 83.3941 81.1967 83.7941 82.5301C84.4608 84.7967 83.9274 84.9301 79.1274 84.3967C72.3274 83.4634 58.4608 77.1967 55.1274 73.4634C53.6608 71.9967 52.0608 69.3301 51.5274 67.5967C50.9941 65.8634 49.6608 64.6634 48.0608 64.6634C45.5274 64.6634 45.5274 65.5967 45.7941 90.9301C46.1941 119.73 46.9941 121.997 52.5941 111.997C56.4608 105.063 66.1941 98.5301 75.6608 96.6634C79.7941 95.7301 83.3941 95.4634 83.7941 95.7301C85.1274 97.1967 79.9274 113.597 76.4608 118.663C74.4608 121.597 70.4608 125.197 67.7941 126.663C62.3274 129.597 61.6608 133.33 66.5941 133.197C68.1941 133.197 80.0608 133.063 92.8608 132.93C115.261 132.663 116.194 132.53 116.194 129.997C116.194 128.263 115.261 127.33 113.661 127.33C107.127 127.33 97.2608 113.197 95.3941 100.93C94.3274 94.2634 94.4608 94.2634 107.394 97.8634C116.727 100.53 124.061 105.863 127.261 112.663C130.727 119.863 131.527 115.863 131.927 89.5967C132.194 63.9967 132.194 63.3301 129.527 63.3301C127.927 63.3301 126.861 64.2634 126.861 65.5967C126.861 69.7301 115.927 78.5301 106.861 81.7301C96.1941 85.3301 93.1274 85.4634 94.0608 82.2634C94.3274 81.0634 95.6608 76.5301 96.8608 72.2634C99.1274 64.1301 107.127 53.5967 112.327 51.9967C113.661 51.4634 114.861 50.2634 114.861 49.1967C114.861 47.5967 110.594 47.3301 89.1274 47.3301C74.8608 47.3301 62.8608 47.7301 62.4608 48.2634Z" fill="black"/>
<path d="M135.261 128.663C131.661 130.13 129.527 133.996 129.527 139.196C129.527 144.93 133.661 148.663 139.927 148.663C147.927 148.663 152.061 142.396 149.394 134.396C147.394 128.263 141.927 125.996 135.261 128.663Z" fill="black"/>
<path d="M32.9941 131.597C25.3941 138.397 29.5275 149.997 39.5275 149.997C45.9275 149.997 49.5275 146.13 49.5275 139.464C49.5275 130.13 39.7941 125.464 32.9941 131.597Z" fill="black"/>
</svg>
