<svg width="540" height="540" viewBox="0 0 540 540" fill="none" xmlns="http://www.w3.org/2000/svg">
<rect x="0.1" y="0.1" width="179.8" height="179.8" fill="white" stroke="#CBCBCB" stroke-width="0.2"/>
<rect x="180.1" y="0.1" width="179.8" height="179.8" fill="white" stroke="#CBCBCB" stroke-width="0.2"/>
<rect x="360.1" y="0.1" width="179.8" height="179.8" fill="white" stroke="#CBCBCB" stroke-width="0.2"/>
<rect x="0.1" y="180.1" width="179.8" height="179.8" fill="white" stroke="#CBCBCB" stroke-width="0.2"/>
<rect x="180.1" y="180.1" width="179.8" height="179.8" fill="white" stroke="#CBCBCB" stroke-width="0.2"/>
<rect x="360.1" y="180.1" width="179.8" height="179.8" fill="white" stroke="#CBCBCB" stroke-width="0.2"/>
<rect x="0.1" y="360.1" width="179.8" height="179.8" fill="white" stroke="#CBCBCB" stroke-width="0.2"/>
<rect x="180.1" y="360.1" width="179.8" height="179.8" fill="white" stroke="#CBCBCB" stroke-width="0.2"/>
<rect x="360.1" y="360.1" width="179.8" height="179.8" fill="white" stroke="#CBCBCB" stroke-width="0.2"/>
<path d="M442.909 459.909V459.636C442.939 456.742 443.242 454.439 443.818 452.727C444.394 451.015 445.212 449.629 446.273 448.568C447.333 447.508 448.606 446.53 450.091 445.636C450.985 445.091 451.788 444.447 452.5 443.705C453.212 442.947 453.773 442.076 454.182 441.091C454.606 440.106 454.818 439.015 454.818 437.818C454.818 436.333 454.47 435.045 453.773 433.955C453.076 432.864 452.144 432.023 450.977 431.432C449.811 430.841 448.515 430.545 447.091 430.545C445.848 430.545 444.652 430.803 443.5 431.318C442.348 431.833 441.386 432.644 440.614 433.75C439.841 434.856 439.394 436.303 439.273 438.091H433.545C433.667 435.515 434.333 433.311 435.545 431.477C436.773 429.644 438.386 428.242 440.386 427.273C442.402 426.303 444.636 425.818 447.091 425.818C449.758 425.818 452.076 426.348 454.045 427.409C456.03 428.47 457.561 429.924 458.636 431.773C459.727 433.621 460.273 435.727 460.273 438.091C460.273 439.758 460.015 441.265 459.5 442.614C459 443.962 458.273 445.167 457.318 446.227C456.379 447.288 455.242 448.227 453.909 449.045C452.576 449.879 451.508 450.758 450.705 451.682C449.902 452.591 449.318 453.674 448.955 454.932C448.591 456.189 448.394 457.758 448.364 459.636V459.909H442.909ZM445.818 473.364C444.697 473.364 443.735 472.962 442.932 472.159C442.129 471.356 441.727 470.394 441.727 469.273C441.727 468.152 442.129 467.189 442.932 466.386C443.735 465.583 444.697 465.182 445.818 465.182C446.939 465.182 447.902 465.583 448.705 466.386C449.508 467.189 449.909 468.152 449.909 469.273C449.909 470.015 449.72 470.697 449.341 471.318C448.977 471.939 448.485 472.439 447.864 472.818C447.258 473.182 446.576 473.364 445.818 473.364Z" fill="black"/>
<path d="M89.7377 47.8539C89.471 48.7872 88.9377 53.1872 88.8044 57.5872L88.4044 65.5872L78.1377 65.3206C70.4044 65.1872 67.7377 65.5872 67.7377 66.7872C67.7377 68.6539 79.071 70.7872 81.3377 69.4539C82.0044 69.0539 84.0044 69.0539 85.871 69.4539C88.8044 70.2539 89.071 70.9206 89.071 77.7206C89.071 85.7206 89.2044 85.4539 70.5377 117.587C66.8044 124.121 63.871 130.387 64.0044 131.587C64.4044 133.321 68.1377 133.587 90.1377 133.987L115.738 134.254V131.187C115.738 129.454 115.204 127.587 114.538 126.787C114.004 126.121 108.804 116.787 103.204 105.854C93.871 87.8539 93.071 85.5872 93.071 78.2539V70.3872L103.338 69.9872C109.738 69.7206 113.738 69.0539 114.004 67.9872C114.404 66.7872 111.604 66.2539 104.138 65.9872L93.7377 65.5872L93.3377 55.8539C92.9377 47.1872 91.3377 43.4539 89.7377 47.8539ZM94.4044 99.7206C94.4044 100.121 97.7377 106.654 101.738 114.121C105.738 121.721 109.071 128.387 109.071 129.054C109.071 130.521 72.1377 130.654 71.2044 129.187C70.671 128.254 86.0044 99.9872 89.3377 95.8539C90.4044 94.5206 91.071 94.7872 92.5377 96.5206C93.471 97.8539 94.4044 99.3206 94.4044 99.7206Z" fill="black"/>
<path d="M269.267 47.9249C268.733 48.3249 268.333 51.1249 268.333 54.1915V59.5249L263.267 54.5915C258.2 49.6582 253.667 48.1915 253.667 51.3915C253.667 52.3249 256.733 56.0582 260.333 59.6582L267 66.1915L260.333 72.9915C256.733 76.7249 253.667 80.4582 253.667 81.3915C253.667 84.4582 258.333 82.9915 263.267 78.0582L268.333 73.1249V80.0582V86.9915H258.467C250.733 86.9915 248.467 87.3915 247.8 89.1249C247.4 90.3249 247 100.325 247 111.658C247 131.658 247 132.058 250.067 132.858C251.667 133.258 261.8 133.658 272.733 133.658H292.333L292.067 110.725L291.667 87.7915L287 87.5249C284.467 87.5249 280.067 87.2582 277.4 87.1249L272.333 86.9915V79.3915V71.7915L278.733 78.0582C284.867 84.0582 287 84.7249 287 80.8582C287 79.9249 284.2 76.3249 280.733 72.9915L274.467 66.9915L281.4 59.9249C285.133 56.0582 288.333 52.1915 288.333 51.2582C288.333 47.9249 283.667 49.7915 278.067 55.2582L272.333 60.8582V53.9249C272.333 47.5249 271.4 45.6582 269.267 47.9249ZM280.6 92.3249H288.467L288.067 110.592L287.667 128.992L273.667 129.392C265.933 129.658 257.667 129.392 255.133 128.992L250.6 128.192L251.4 109.925C251.933 99.9249 252.333 91.3915 252.333 91.1249C252.333 90.8582 256.867 90.9915 262.6 91.5249C268.2 91.9249 276.2 92.3249 280.6 92.3249Z" fill="black"/>
<path d="M449.267 47.7706C448.733 48.3039 448.333 52.8372 448.333 57.9039V66.9706H437.667C431.4 66.9706 427 67.5039 427 68.3039C427 68.9706 427.8 69.7706 428.733 69.9039C429.533 69.9039 431 70.1706 431.667 70.3039C432.467 70.5706 436.467 70.7039 440.733 70.8372L448.333 70.9706V78.9706V86.9706H437.667H427V109.504V132.037L449.133 132.971C461.267 133.504 471.4 133.637 471.667 133.371C471.933 133.104 472.333 122.704 472.6 110.304L473 87.6372L462.733 87.2372L452.333 86.8372V78.9706V70.9706H463C471.533 70.9706 473.667 70.5706 473.667 68.9706C473.667 67.3706 471.667 66.9706 463.133 66.9706H452.6L452.867 57.5039C453 48.5706 451.8 45.3706 449.267 47.7706ZM468.6 92.5706C469 93.5039 468.867 102.037 468.467 111.637L467.667 128.971L457.667 129.371C452.2 129.637 443.933 129.371 439.4 128.971L431 128.037V110.437C431 100.704 431.4 92.3039 431.933 91.9039C432.333 91.3706 440.733 90.9706 450.467 90.9706C463.267 90.9706 468.2 91.3706 468.6 92.5706Z" fill="black"/>
<path d="M88.6667 221.934C88.6667 223.534 86.5333 226.601 83.3333 229.267C79.6 232.601 78 234.867 78 237.401C78 243.934 79.6 246.867 84.1333 249.801C86.6667 251.267 88.6667 253.667 88.6667 255.001C88.6667 256.334 81.8667 264.201 73.3333 272.467C64.9333 280.734 58 288.067 58 288.734C58 290.867 87.7333 320.334 90 320.334C91.8667 320.334 122 292.067 122 290.201C122 288.867 115.867 281.801 103.867 269.534C91.4667 256.867 90.2667 253.667 96.6667 250.334C101.467 247.801 103.333 244.601 103.333 238.334C103.333 233.267 98.6667 227.001 94.6667 227.001C93.3333 227.001 92.6667 225.667 92.6667 223.001C92.6667 220.334 92 219.001 90.6667 219.001C89.4667 219.001 88.6667 220.201 88.6667 221.934ZM103.867 276.467C110.133 283.001 115.333 288.867 115.333 289.534C115.333 291.134 91.8667 313.667 90.1333 313.667C89.2 313.667 83.0667 308.067 76.5333 301.401L64.6667 289.001L76.9333 276.734C83.7333 269.934 90 264.334 90.8 264.334C91.7333 264.334 97.4667 269.801 103.867 276.467Z" fill="black"/>
<path d="M267.989 226.834C267.989 234.167 257.856 244.834 251.056 244.834C245.722 244.834 247.722 248.167 254.656 250.567C259.456 252.301 262.256 254.301 264.656 257.901C269.056 264.301 268.922 265.634 263.722 266.701C241.056 271.234 238.122 304.567 259.589 313.634C268.656 317.501 281.989 314.834 288.256 307.901C291.722 304.034 294.656 296.167 294.656 290.567C294.522 280.167 286.256 268.834 277.322 266.834C272.789 265.767 272.256 263.634 275.589 258.167C277.856 254.301 286.122 248.834 289.856 248.834C291.056 248.834 291.989 247.901 291.989 246.834C291.989 245.634 290.789 244.834 289.056 244.834C282.389 244.834 274.389 236.567 273.056 228.167C272.522 224.967 267.989 223.634 267.989 226.834ZM278.656 272.167C280.789 273.234 284.256 276.434 286.256 279.101C295.989 291.901 286.122 311.501 269.989 311.501C249.189 311.501 241.456 284.301 259.056 272.967C264.122 269.634 273.189 269.367 278.656 272.167Z" fill="black"/>
<path d="M449.613 227.045C449.079 227.445 448.679 229.178 448.679 230.645C448.679 232.378 447.079 234.378 444.679 235.712C436.546 240.378 436.413 250.112 444.279 256.645C450.013 261.312 449.479 264.112 442.813 265.312C436.679 266.512 430.279 271.978 427.213 278.778C419.079 296.645 434.546 316.378 454.413 313.712C464.679 312.378 475.346 299.845 475.346 289.445C475.346 278.778 467.213 267.845 457.613 265.312C453.613 264.378 451.079 260.645 453.879 259.712C454.679 259.445 457.213 257.712 459.346 255.845C464.679 251.445 465.079 242.378 460.013 237.445C458.279 235.578 456.146 234.112 455.346 234.112C454.679 234.112 454.013 232.245 454.013 230.112C454.013 226.378 451.746 224.778 449.613 227.045ZM460.679 271.045C469.479 276.112 473.079 287.712 468.946 297.045C465.746 304.378 460.146 308.512 452.146 309.578C436.813 311.712 423.879 293.312 431.213 279.712C433.346 275.712 440.146 269.978 444.146 268.778C448.813 267.312 456.146 268.378 460.679 271.045Z" fill="black"/>
<path d="M89.5333 405.266C89.4 408.866 89.2667 412.866 89.1333 414.333C89 416.733 87.9333 416.999 78.7333 417.399C70.7333 417.666 68.3333 418.199 68.3333 419.666C68.3333 421.266 70.4667 421.666 78.3333 421.666H88.3333V430.733V439.799L73.6667 454.333C65.6667 462.199 59 469.399 59 470.199C59 472.066 88.4667 501.666 90.3333 501.666C93 501.666 121.667 473.399 121.667 470.999C121.667 469.533 115.133 461.666 107 453.399L92.3333 438.333L92.7333 430.333L93 422.333L103.4 422.599C111.667 422.866 113.667 422.599 113.667 420.999C113.667 419.933 112.6 418.866 111.4 418.866C110.067 418.733 108.467 418.599 107.667 418.333C107 418.199 103.533 417.933 100.067 417.933L93.6667 417.666V408.333C93.6667 400.866 93.2667 398.999 91.6667 398.999C90.2 398.999 89.6667 400.733 89.5333 405.266ZM97.5333 450.733C100.2 453.666 105.533 459.266 109.533 463.533L116.733 470.999L103.533 483.666L90.3333 496.199L78.0667 483.933C71.2667 477.266 65.6667 471.133 65.6667 470.333C65.6667 468.333 88.7333 445.799 90.8667 445.799C91.9333 445.666 94.8667 447.933 97.5333 450.733Z" fill="black"/>
<path d="M281.6 407.388C282 409.921 281.067 411.788 277.467 415.254L272.667 419.921V412.988C272.667 407.654 272.133 406.054 270.667 406.054C269.2 406.054 268.667 407.654 268.667 412.054C268.667 415.388 268.4 418.054 268 418.054C267.6 418.054 265.467 415.921 263.2 413.388C259.2 408.854 254 407.121 254 410.321C254 411.254 257.067 414.988 260.667 418.721L267.467 425.521L260.667 431.254C256.933 434.454 254 438.054 254 439.521C254 443.388 256.667 442.588 262.267 437.121C265.067 434.454 267.6 432.454 267.867 432.854C269.067 433.921 266.933 446.054 265.6 446.054C264.8 446.054 261.6 447.388 258.4 448.854C242.8 456.321 240.267 479.254 253.733 489.788C259.733 494.588 263.333 495.788 270.933 495.654C283.333 495.388 293.6 485.254 294.8 472.188C295.333 466.321 294.933 464.454 291.467 458.588C287.467 451.654 279.333 446.054 273.467 446.054C271.467 446.054 271.2 445.388 271.867 441.921C272.267 439.654 272.667 436.188 272.667 434.188C272.8 430.854 272.933 430.854 277.733 436.321C282.533 441.921 287.333 443.788 287.333 440.321C287.333 439.388 284.267 435.654 280.667 432.054L274 425.521L280.667 418.721C287.2 412.188 288.933 408.721 285.867 408.721C284.933 408.721 283.6 407.654 282.667 406.454C281.067 404.321 280.933 404.454 281.6 407.388ZM280.667 453.121C293.733 461.788 293.6 479.654 280.533 488.454C276.8 491.121 274.667 491.521 268.267 491.121C261.733 490.588 260 489.921 256 486.054C247.6 477.921 246.667 467.388 253.6 458.188C260 449.921 272.4 447.521 280.667 453.121Z" fill="black"/>
</svg>
