<svg width="180" height="180" viewBox="0 0 180 180" fill="none" xmlns="http://www.w3.org/2000/svg">
<rect x="0.1" y="0.1" width="179.8" height="179.8" fill="white" stroke="#CBCBCB" stroke-width="0.2"/>
<path d="M88.7844 45.9326C88.251 46.3326 87.851 50.5993 87.851 55.266V63.666H77.851C69.851 63.666 67.851 64.066 67.851 65.666C67.851 67.266 69.851 67.666 77.851 67.666H87.9844L87.5844 75.9326C87.1844 84.066 87.1844 84.1993 82.5177 85.3993C68.3844 88.9993 61.1844 104.733 67.051 118.999C73.5844 134.466 93.5844 138.999 106.651 128.066C111.718 123.799 115.718 115.399 115.851 109.133C115.851 98.9993 107.184 87.9326 97.1844 85.3993L92.5177 84.1993V76.1993V68.3326L102.918 67.9326C110.384 67.666 113.184 67.1326 112.784 65.9326C112.518 64.9993 108.784 64.1993 102.784 63.9326L93.1844 63.5326V54.3326C93.1844 47.3993 92.651 44.9993 91.451 44.9993C90.3844 44.9993 89.1844 45.3993 88.7844 45.9326ZM100.518 91.5326C102.651 92.7326 105.851 95.9326 107.584 98.466C110.251 102.199 110.651 104.333 110.251 110.733C109.718 117.399 109.051 119.133 104.918 123.133C91.451 136.599 69.1844 127.533 69.1844 108.599C69.1844 100.866 73.451 94.5993 81.1844 90.5993C87.851 87.266 93.5844 87.5326 100.518 91.5326Z" fill="black"/>
</svg>
