<svg width="180" height="180" viewBox="0 0 180 180" fill="none" xmlns="http://www.w3.org/2000/svg">
<rect x="0.1" y="0.1" width="179.8" height="179.8" fill="white" stroke="#CBCBCB" stroke-width="0.2"/>
<path d="M86.2748 45.9998C83.4748 55.3332 77.2081 62.3998 71.8748 62.3998C70.4081 62.3998 68.1414 63.0665 67.0748 63.7332C64.5414 65.3332 66.2748 66.9332 72.5414 68.9332C78.1414 70.7998 83.8748 76.2665 85.0748 81.1998C85.8748 84.2665 85.4748 84.7998 82.1414 85.5998C75.8748 87.1998 68.5414 92.7998 65.7414 98.3998C61.0748 107.466 62.5414 120.666 68.8081 127.466C83.6081 143.333 110.008 134.533 112.141 113.066C113.341 100.533 106.808 90.2665 95.3414 86.2665C92.4081 85.3332 91.0748 83.9998 91.0748 82.1332C91.0748 78.3998 100.541 69.1998 105.608 68.2665C111.208 67.0665 110.808 64.5332 104.675 62.6665C98.4081 60.7998 92.9414 55.1998 91.4748 49.1998C90.1414 43.9998 87.4748 42.2665 86.2748 45.9998ZM98.9414 92.7998C104.408 96.7998 107.341 101.733 108.008 108C108.941 115.733 106.008 122.4 99.6081 127.2C95.4748 130.4 93.3414 131.066 86.8081 131.066C79.6081 131.066 78.8081 130.8 73.7414 125.733C62.9414 114.933 66.0081 97.0665 79.7414 90.9332C84.8081 88.5332 94.5414 89.5998 98.9414 92.7998Z" fill="black"/>
</svg>
