<svg width="180" height="180" viewBox="0 0 180 180" fill="none" xmlns="http://www.w3.org/2000/svg">
<rect x="0.1" y="0.1" width="179.8" height="179.8" fill="white" stroke="#CBCBCB" stroke-width="0.2"/>
<path d="M88.6667 44.934L88.5333 52.0006L83.2 46.2673C78.1333 40.8006 74 39.0673 74 42.134C74 43.0673 76.6667 46.6673 80 50.134C83.3333 53.6006 86 57.0673 86 57.8673C86 58.534 83.0667 61.6006 79.3333 64.8006C75.7333 67.8673 72.6667 71.334 72.6667 72.2673C72.6667 75.4673 77.2 74.0006 82.2667 69.0673L87.3333 64.134V70.8006V77.6006L72.6667 91.8673C64.6667 99.6006 58 106.801 58 107.734C58 108.534 64.8 116.534 73.0667 125.334L88.2667 141.334L92.8 137.467C101.333 130.401 122.133 109.734 121.733 108.667C121.467 108.134 114.8 100.667 106.667 92.0006C98.6667 83.334 92 75.4673 92.1333 74.534C92.1333 73.4673 92.2667 70.8006 92.4 68.4006L92.6667 64.134L98.4 69.734C101.467 72.8006 104.8 75.334 105.733 75.334C109.333 75.334 106.933 70.0006 100.667 64.134L93.8667 57.8673L100.667 51.734C106.667 46.2673 109.467 40.6673 106 40.6673C105.2 40.6673 101.867 43.2006 98.6667 46.134L92.6667 51.734V44.8006C92.6667 39.6006 92.1333 38.0006 90.6667 38.0006C89.2 38.0006 88.6667 39.734 88.6667 44.934ZM104 96.2673L116 108.801L109.333 115.334C105.6 119.067 99.4667 124.667 95.7333 128.134L88.6667 134.134L77.0667 121.867C70.5333 115.201 65.0667 109.067 64.8 108.267C64.1333 106.534 88.6667 83.2006 90.6667 83.4673C91.4667 83.6006 97.3333 89.334 104 96.2673Z" fill="black"/>
</svg>
