<svg width="180" height="180" viewBox="0 0 180 180" fill="none" xmlns="http://www.w3.org/2000/svg">
<rect x="0.1" y="0.1" width="179.8" height="179.8" fill="white" stroke="#CBCBCB" stroke-width="0.2"/>
<path d="M86.9731 49.8667C86.9731 52.6667 86.1731 54.1334 84.3064 54.6667C80.1731 56.0001 76.3064 61.8667 76.3064 66.9334C76.3064 71.4667 81.1064 78.0001 85.5064 79.4667C88.8397 80.6667 86.0397 84.2667 81.3731 85.2001C78.9731 85.6001 74.7064 87.7334 72.1731 90.0001C54.9731 104.133 63.3731 131.6 85.6397 133.733C93.7731 134.533 102.84 130.4 107.906 123.733C113.106 116.933 113.906 104.4 109.506 96.6667C106.306 91.0667 97.6397 84.6667 93.2397 84.6667C90.0397 84.6667 90.4397 79.7334 93.6397 78.6667C97.7731 77.3334 101.64 71.4667 101.64 66.4001C101.64 60.4001 99.7731 57.2001 94.9731 54.6667C92.1731 53.2001 90.9731 51.6001 90.9731 49.3334C90.9731 47.2001 90.1731 46.0001 88.9731 46.0001C87.6397 46.0001 86.9731 47.3334 86.9731 49.8667ZM98.9731 91.6001C114.706 102.4 108.973 127.067 90.1731 129.6C74.7064 131.6 62.5731 114.8 69.1064 100.533C74.1731 89.2001 88.9731 84.9334 98.9731 91.6001Z" fill="black"/>
</svg>
