<svg width="180" height="180" viewBox="0 0 180 180" fill="none" xmlns="http://www.w3.org/2000/svg">
<rect x="0.1" y="0.1" width="179.8" height="179.8" fill="white" stroke="#CBCBCB" stroke-width="0.2"/>
<path d="M86.0851 45.8247C85.5518 46.3581 85.1518 50.8914 85.1518 55.9581V65.0247H74.4851C65.9518 65.0247 63.8185 65.4247 63.8185 67.0247C63.8185 68.6247 65.9518 69.0247 74.4851 69.0247H85.2851L84.8851 77.2914L84.4851 85.6914L74.3518 86.0914L64.2185 86.4914L63.4185 107.958C62.8851 119.691 62.8851 129.958 63.2851 130.491C63.6851 131.158 74.0851 131.691 86.6185 131.691H109.152V118.625C109.152 111.558 109.552 101.291 110.085 95.9581L110.885 86.3581H99.9518H89.1518V77.6914V69.0247H99.8185C108.352 69.0247 110.485 68.6247 110.485 67.0247C110.485 65.4247 108.352 65.0247 99.6851 65.0247H88.8851L89.4185 55.4247C89.8185 46.6247 88.6185 43.2914 86.0851 45.8247ZM105.418 91.6914C105.685 92.3581 105.685 100.758 105.418 110.358L105.018 127.691H86.3518H67.8185V109.025V90.3581H86.3518C97.2851 90.3581 105.152 90.8914 105.418 91.6914Z" fill="black"/>
</svg>
