<svg width="180" height="180" viewBox="0 0 180 180" fill="none" xmlns="http://www.w3.org/2000/svg">
<rect x="0.1" y="0.1" width="179.8" height="179.8" fill="white" stroke="#CBCBCB" stroke-width="0.2"/>
<path d="M89.6667 49.6673C89.6667 51.2673 87.2667 54.734 84.3333 57.534C78.7333 62.8673 77.6667 66.734 80.4667 72.734C81.2667 74.6007 83.4 76.8673 85.1333 77.8007C88.4667 79.534 89.5333 84.2007 86.7333 84.4673C85.8 84.6007 81.4 84.4673 76.8667 84.334L68.7333 84.0673L67.9333 92.4673C67.4 97.0007 67 107.401 67 115.667V130.601L80.0667 131.401C100.6 132.867 111 132.601 111.667 130.734C111.933 129.801 112.467 119.267 112.867 107.401L113.667 85.8007L103.4 85.4007C94.7333 85.0007 93 84.6007 92.6 82.734C92.3333 81.2673 93.2667 79.934 95.2667 79.134C103.4 76.0673 106.2 64.6007 100.333 58.334C98.6 56.4673 96.4667 55.0007 95.4 55.0007C94.3333 55.0007 93.6667 53.4007 93.6667 51.0007C93.6667 48.334 93 47.0007 91.6667 47.0007C90.6 47.0007 89.6667 48.2007 89.6667 49.6673ZM108.6 90.4673C109.4 91.0007 108.6 123.534 107.667 126.601C107.267 127.934 102.867 128.334 92.0667 128.334C69.1333 128.334 70.7333 129.667 71.5333 110.467C71.9333 101.667 72.3333 93.2673 72.3333 92.0673C72.3333 90.334 73.8 89.6673 78.7333 89.2673C85.2667 88.734 107 89.6673 108.6 90.4673Z" fill="black"/>
</svg>
