<svg width="360" height="360" viewBox="0 0 360 360" fill="none" xmlns="http://www.w3.org/2000/svg">
<g clip-path="url(#clip0_2_2)">
<rect width="360" height="360" fill="white"/>
<rect x="0.1" y="0.1" width="179.8" height="179.8" fill="white" stroke="#8B8B8B" stroke-width="0.2"/>
<rect x="180.1" y="0.1" width="179.8" height="179.8" fill="white" stroke="#8B8B8B" stroke-width="0.2"/>
<rect x="0.1" y="180.1" width="179.8" height="179.8" fill="white" stroke="#8B8B8B" stroke-width="0.2"/>
<rect x="180.1" y="180.1" width="179.8" height="179.8" fill="white" stroke="#8B8B8B" stroke-width="0.2"/>
<path d="M160.391 161.468L162.134 12.3251L11.2398 162.233L160.391 161.468Z" fill="black"/>
<path d="M199.119 161.468L197.376 12.3251L348.27 162.233L199.119 161.468Z" fill="black"/>
<mask id="mask0_2_2" style="mask-type:alpha" maskUnits="userSpaceOnUse" x="6" y="195" width="159" height="158">
<path d="M161.391 198.538L161.38 197.555L160.396 197.55L11.2449 196.785L8.80176 196.772L10.535 198.494L161.429 348.402L163.163 350.124L163.134 347.681L161.391 198.538Z" fill="white" stroke="black" stroke-width="2"/>
</mask>
<g mask="url(#mask0_2_2)">
<line x1="15.0278" y1="203" x2="159.028" y2="204" stroke="black" stroke-width="8"/>
<line x1="15.0278" y1="218" x2="159.028" y2="219" stroke="black" stroke-width="8"/>
<line x1="15.0278" y1="233" x2="159.028" y2="234" stroke="black" stroke-width="8"/>
<line x1="15.0278" y1="248" x2="159.028" y2="249" stroke="black" stroke-width="8"/>
<line x1="16.0278" y1="263" x2="160.028" y2="264" stroke="black" stroke-width="8"/>
<line x1="16.0278" y1="278" x2="160.028" y2="279" stroke="black" stroke-width="8"/>
<line x1="17.0278" y1="293" x2="161.028" y2="294" stroke="black" stroke-width="8"/>
<line x1="17.0278" y1="308" x2="161.028" y2="309" stroke="black" stroke-width="8"/>
<line x1="17.0278" y1="323" x2="161.028" y2="324" stroke="black" stroke-width="8"/>
<line x1="18.0278" y1="338" x2="162.028" y2="339" stroke="black" stroke-width="8"/>
</g>
<path d="M264.909 279.909V279.636C264.939 276.742 265.242 274.439 265.818 272.727C266.394 271.015 267.212 269.629 268.273 268.568C269.333 267.508 270.606 266.53 272.091 265.636C272.985 265.091 273.788 264.447 274.5 263.705C275.212 262.947 275.773 262.076 276.182 261.091C276.606 260.106 276.818 259.015 276.818 257.818C276.818 256.333 276.47 255.045 275.773 253.955C275.076 252.864 274.144 252.023 272.977 251.432C271.811 250.841 270.515 250.545 269.091 250.545C267.848 250.545 266.652 250.803 265.5 251.318C264.348 251.833 263.386 252.644 262.614 253.75C261.841 254.856 261.394 256.303 261.273 258.091H255.545C255.667 255.515 256.333 253.311 257.545 251.477C258.773 249.644 260.386 248.242 262.386 247.273C264.402 246.303 266.636 245.818 269.091 245.818C271.758 245.818 274.076 246.348 276.045 247.409C278.03 248.47 279.561 249.924 280.636 251.773C281.727 253.621 282.273 255.727 282.273 258.091C282.273 259.758 282.015 261.265 281.5 262.614C281 263.962 280.273 265.167 279.318 266.227C278.379 267.288 277.242 268.227 275.909 269.045C274.576 269.879 273.508 270.758 272.705 271.682C271.902 272.591 271.318 273.674 270.955 274.932C270.591 276.189 270.394 277.758 270.364 279.636V279.909H264.909ZM267.818 293.364C266.697 293.364 265.735 292.962 264.932 292.159C264.129 291.356 263.727 290.394 263.727 289.273C263.727 288.152 264.129 287.189 264.932 286.386C265.735 285.583 266.697 285.182 267.818 285.182C268.939 285.182 269.902 285.583 270.705 286.386C271.508 287.189 271.909 288.152 271.909 289.273C271.909 290.015 271.72 290.697 271.341 291.318C270.977 291.939 270.485 292.439 269.864 292.818C269.258 293.182 268.576 293.364 267.818 293.364Z" fill="black"/>
</g>
<defs>
<clipPath id="clip0_2_2">
<rect width="360" height="360" fill="white"/>
</clipPath>
</defs>
</svg>
