<svg width="540" height="540" viewBox="0 0 540 540" fill="none" xmlns="http://www.w3.org/2000/svg">
<rect x="0.1" y="0.1" width="179.8" height="179.8" fill="white" stroke="#CBCBCB" stroke-width="0.2"/>
<rect x="180.1" y="0.1" width="179.8" height="179.8" fill="white" stroke="#CBCBCB" stroke-width="0.2"/>
<rect x="360.1" y="0.1" width="179.8" height="179.8" fill="white" stroke="#CBCBCB" stroke-width="0.2"/>
<rect x="0.1" y="180.1" width="179.8" height="179.8" fill="white" stroke="#CBCBCB" stroke-width="0.2"/>
<rect x="180.1" y="180.1" width="179.8" height="179.8" fill="white" stroke="#CBCBCB" stroke-width="0.2"/>
<rect x="360.1" y="180.1" width="179.8" height="179.8" fill="white" stroke="#CBCBCB" stroke-width="0.2"/>
<rect x="0.1" y="360.1" width="179.8" height="179.8" fill="white" stroke="#CBCBCB" stroke-width="0.2"/>
<rect x="180.1" y="360.1" width="179.8" height="179.8" fill="white" stroke="#CBCBCB" stroke-width="0.2"/>
<rect x="360.1" y="360.1" width="179.8" height="179.8" fill="white" stroke="#CBCBCB" stroke-width="0.2"/>
<path d="M444.909 458.909V458.636C444.939 455.742 445.242 453.439 445.818 451.727C446.394 450.015 447.212 448.629 448.273 447.568C449.333 446.508 450.606 445.53 452.091 444.636C452.985 444.091 453.788 443.447 454.5 442.705C455.212 441.947 455.773 441.076 456.182 440.091C456.606 439.106 456.818 438.015 456.818 436.818C456.818 435.333 456.47 434.045 455.773 432.955C455.076 431.864 454.144 431.023 452.977 430.432C451.811 429.841 450.515 429.545 449.091 429.545C447.848 429.545 446.652 429.803 445.5 430.318C444.348 430.833 443.386 431.644 442.614 432.75C441.841 433.856 441.394 435.303 441.273 437.091H435.545C435.667 434.515 436.333 432.311 437.545 430.477C438.773 428.644 440.386 427.242 442.386 426.273C444.402 425.303 446.636 424.818 449.091 424.818C451.758 424.818 454.076 425.348 456.045 426.409C458.03 427.47 459.561 428.924 460.636 430.773C461.727 432.621 462.273 434.727 462.273 437.091C462.273 438.758 462.015 440.265 461.5 441.614C461 442.962 460.273 444.167 459.318 445.227C458.379 446.288 457.242 447.227 455.909 448.045C454.576 448.879 453.508 449.758 452.705 450.682C451.902 451.591 451.318 452.674 450.955 453.932C450.591 455.189 450.394 456.758 450.364 458.636V458.909H444.909ZM447.818 472.364C446.697 472.364 445.735 471.962 444.932 471.159C444.129 470.356 443.727 469.394 443.727 468.273C443.727 467.152 444.129 466.189 444.932 465.386C445.735 464.583 446.697 464.182 447.818 464.182C448.939 464.182 449.902 464.583 450.705 465.386C451.508 466.189 451.909 467.152 451.909 468.273C451.909 469.015 451.72 469.697 451.341 470.318C450.977 470.939 450.485 471.439 449.864 471.818C449.258 472.182 448.576 472.364 447.818 472.364Z" fill="black"/>
<path d="M239.2 27.9671L204 28.2337L204.8 72.6337C205.333 96.9004 205.733 125.434 205.733 135.834V154.9H244.133C265.2 154.9 294.533 154.5 309.467 153.967L336.533 153.167L336.267 91.7004C336.267 57.9671 335.867 29.5671 335.467 28.5004C334.8 27.0337 329.2 26.7671 304.533 27.1671C288 27.4337 258.533 27.7004 239.2 27.9671ZM268.133 56.7671L268.4 80.5004L265.067 83.7004C263.2 85.4337 261.733 87.3004 261.733 88.1004C261.733 88.9004 251.733 89.4337 235.733 89.5671L209.733 89.7004L209.6 70.6337C209.6 60.1004 209.2 47.7004 208.933 43.0337C208.4 36.9004 208.8 34.1004 210 33.3004C210.933 32.7671 224.4 32.3671 239.733 32.6337L267.733 32.9004L268.133 56.7671ZM331.333 58.9004C331.6 73.5671 331.6 86.2337 331.333 86.9004C331.067 87.7004 320.8 88.2337 304.933 88.2337C283.867 88.2337 279.067 87.8337 279.067 86.3671C279.067 85.4337 277.867 83.7004 276.533 82.7671C274.133 81.0337 273.867 78.9004 273.6 57.5671C273.467 44.7671 273.467 33.8337 273.6 33.1671C273.6 32.6337 286.667 32.2337 302.4 32.2337H330.933L331.333 58.9004ZM265.067 97.0337C268.533 100.5 268.667 100.9 269.333 125.034L270.133 149.567H262.933C258.933 149.567 245.333 149.967 232.8 150.5L209.733 151.3V123.3C209.733 107.967 210.133 94.9004 210.667 94.5004C211.067 93.9671 222.8 93.5671 236.533 93.5671H261.6L265.067 97.0337ZM332.4 121.567V149.567H303.067H273.733V124.767C273.733 91.4337 271.2 93.8337 306.133 93.7004L332.4 93.5671V121.567Z" fill="black"/>
<path d="M447.618 55.0001C448.418 80.0667 448.418 81.0001 445.752 82.6001C444.285 83.5334 443.085 85.0001 443.085 85.9334C443.085 87.2667 436.285 87.6667 414.818 87.9334C393.752 88.2001 386.552 88.7334 386.018 89.9334C385.618 91.2667 391.618 91.6667 413.085 91.6667H440.685L444.552 95.8001L448.418 99.9334V126.6C448.418 147.267 448.818 153.133 450.152 152.6C451.352 152.2 451.752 145.667 451.752 125.667C451.752 99.8001 451.752 99.2667 454.685 98.2001C456.285 97.6667 458.285 95.9334 459.085 94.4667C460.418 91.8001 461.885 91.6667 487.352 91.4001C507.352 91.1334 514.285 90.6001 514.818 89.2667C515.218 88.0667 509.218 87.6667 487.885 87.6667C465.352 87.6667 460.152 87.2667 459.618 85.8001C459.218 84.7334 457.085 83.1334 454.952 82.3334L451.085 80.7334V54.8667C451.085 31.6667 450.818 29.0001 448.818 29.0001C446.818 29.0001 446.685 31.2667 447.618 55.0001Z" fill="black"/>
<path d="M43.2 28.2008L24 28.6008L24.8 70.2008C25.3333 93.1341 25.7333 121.267 25.7333 132.734V153.801H88.9333C123.733 153.801 153.2 153.401 154.4 153.001C156.267 152.201 156.533 147.401 156.267 105.267C156.133 79.5341 155.733 51.4008 155.333 42.7341L154.667 27.0008L108.533 27.4008C83.2 27.6674 53.7333 27.9341 43.2 28.2008ZM151.6 39.2674C152 43.8008 152.4 70.6008 152.4 98.6008V149.801H94.5333C62.6667 149.801 35.8667 150.067 34.8 150.467C33.8667 150.867 32.1333 150.601 31.0667 149.801C29.3333 148.734 29.0667 140.467 28.6667 91.6674C28.4 60.3341 28.5333 33.9341 28.9333 32.8674C29.4667 31.4008 40.8 31.1341 90.1333 31.1341H150.667L151.6 39.2674Z" fill="black"/>
<path d="M83.0667 84.4672C81.6 85.9339 80.4 88.8672 80.4 91.0006C80.4 101.801 95.2 103.267 98.2667 92.7339C99.3334 89.0006 99.0667 87.9339 96.4 85.1339C92.5334 81.0006 86.8 80.7339 83.0667 84.4672Z" fill="black"/>
<path d="M225.6 207.2L204 207.466L204.8 269.866C205.2 304.133 205.867 332.4 206.4 332.8C206.8 333.2 236.133 333.333 271.6 333.066L335.867 332.666V269.333V206L291.6 206.4C267.2 206.666 237.467 206.933 225.6 207.2ZM242.8 216.666C237.333 219.6 231.867 222.933 230.533 224.133C228.133 226.266 227.733 226.133 221.333 220.133C217.6 216.666 214.533 213.2 214.533 212.666C214.533 212 223.067 211.466 233.6 211.466L252.533 211.6L242.8 216.666ZM320.133 218.266C313.467 224.666 312.933 224.933 310.667 222.933C309.333 221.733 304.133 218.666 299.067 216.133L289.867 211.466H308.533H327.2L320.133 218.266ZM267.867 229.733C268 238.4 268.267 248.666 268.667 252.4C269.867 264 267.467 263.2 248.933 245.466C239.867 236.933 232.533 229.2 232.533 228.4C232.533 226.266 245.733 218.533 253.2 216.133C256.533 215.2 261.2 214.266 263.6 214.266L267.867 214.133V229.733ZM289.467 216.533C298.667 219.6 309.2 225.733 309.067 227.866C308.667 230.533 276.267 261.2 274.667 260.266C273.733 259.6 273.2 251.6 273.2 236.666V214.133H277.6C280.133 214.133 285.467 215.2 289.467 216.533ZM223.733 229.2C223.867 229.866 222.4 232.266 220.533 234.666C218.667 237.066 215.333 242.266 213.2 246.266L209.2 253.466V234.266V215.066L216.4 221.6C220.4 225.2 223.6 228.666 223.733 229.2ZM330.533 227.333C330.533 233.866 330.933 241.066 331.333 243.333C332.533 249.333 330.4 248.4 326.267 241.066C324.267 237.6 321.2 233.2 319.6 231.066L316.667 227.466L322.533 221.466C325.867 218.266 328.933 215.6 329.6 215.6C330.133 215.466 330.533 220.8 330.533 227.333ZM320.4 238.4C325.467 246 330.533 258.666 330.533 264.133V267.466H305.333C290.8 267.466 279.733 266.933 279.2 266.266C278.4 264.8 311.733 231.466 314 231.466C314.8 231.466 317.733 234.666 320.4 238.4ZM245.2 248.4C254.4 256.933 262 264.666 262.267 265.6C262.667 267.066 258.267 267.466 238.667 267.466C225.333 267.466 214.133 267.333 213.6 267.066C211.467 266.4 213.067 255.333 216.133 248.533C219.333 241.733 225.867 232.8 227.6 232.8C228.133 232.8 236 239.866 245.2 248.4ZM261.733 272.533C262.4 273.6 253.333 282.933 231.467 303.866C229.333 305.866 226.667 307.333 225.733 306.933C221.467 305.333 211.867 284.533 211.867 276.8V272.933L224.267 272.533C230.933 272.266 242 272 248.8 271.733C255.467 271.6 261.333 271.866 261.733 272.533ZM330.133 278.4C329.333 286.266 324.4 298.133 319.467 304L316.267 308L312.8 305.2C304 298.4 278.667 273.6 279.333 272.666C279.733 272 291.467 271.466 305.467 271.466H330.933L330.133 278.4ZM268.933 303.066L268.533 328.133L263.867 327.6C257.067 326.933 243.467 321.6 236.533 316.8C233.2 314.533 230.533 312.4 230.533 312C230.533 310.133 264.8 278.266 266.933 278.133C269.067 278.133 269.2 280 268.933 303.066ZM283.467 284.4C287.067 288 295.067 295.466 301.2 301.333L312.4 311.733L308.533 315.066C302 320.4 288.533 326.266 280.667 327.066L273.2 327.866V302.933C273.2 282.8 273.6 278.133 275.067 278.133C276 278.133 279.867 280.933 283.467 284.4ZM213.067 294.933C214.533 298.266 217.6 303.333 219.867 306.133L224 311.333L217.733 317.466C214.267 320.8 210.933 323.466 210.267 323.466C209.733 323.466 209.2 315.6 209.2 306.133C209.2 296.533 209.467 288.8 209.867 288.8C210.133 288.8 211.6 291.6 213.067 294.933ZM331.6 314.4L331.2 322.8L325.2 317.2L319.2 311.6L321.6 307.866C322.933 305.866 325.6 301.333 327.6 297.866L331.2 291.6L331.6 298.8C331.867 302.8 331.867 309.866 331.6 314.4ZM232.267 318.666C234.667 320.4 239.2 323.2 242.533 324.933L248.533 328.133L232 328.533C222.933 328.666 215.2 328.533 214.8 328.133C213.867 327.333 225.2 315.466 226.933 315.466C227.467 315.466 230 316.933 232.267 318.666ZM322.533 320.666C325.867 323.6 328.133 326.266 327.733 326.8C326.667 327.866 294.533 329.333 294.533 328.266C294.533 327.866 297.333 326 300.933 324.266C304.4 322.4 308.667 319.733 310.533 318.266C312.4 316.8 314.533 315.466 315.2 315.6C316 315.6 319.2 317.866 322.533 320.666Z" fill="black"/>
<path d="M435.395 211.733C411.128 217.6 392.328 237.466 388.728 261.2C384.594 287.466 398.328 312.666 423.261 325.066C432.595 329.6 434.595 330.133 446.861 330.666C461.528 331.333 471.528 328.933 483.128 322.133C496.195 314.4 508.328 296.8 511.795 280.533C513.928 270.133 511.528 254.666 506.195 243.6C493.928 218.666 463.395 204.933 435.395 211.733ZM447.395 237.2L447.661 260.133L444.328 263.466L440.861 266.933H416.195H391.394L392.328 261.2C395.661 240.666 413.261 221.466 434.328 215.466C437.661 214.533 441.795 213.866 443.661 214L446.995 214.266L447.395 237.2ZM471.661 217.466C489.795 224.266 504.461 241.866 508.061 261.2C509.128 266.666 508.595 266.666 480.728 266.933C459.661 267.066 458.461 266.933 456.995 264.266C456.195 262.8 454.728 261.6 453.661 261.6C452.061 261.6 451.661 259.333 451.661 249.866C451.661 243.466 451.395 233.066 451.128 226.666C450.861 220.266 450.995 214.666 451.528 214.133C452.861 212.8 463.928 214.533 471.661 217.466ZM443.395 275.066L447.661 280V303.466V326.933H443.661C437.795 326.933 424.061 322 417.795 317.6C409.261 311.733 401.528 303.466 398.328 296.533C394.328 288.4 391.661 279.466 391.661 274.8V271.066L402.061 270.666C407.661 270.4 418.328 270.266 425.795 270.266H439.128L443.395 275.066ZM507.928 277.333C507.128 291.866 498.328 306.8 484.995 316.133C476.728 322 463.528 326.933 456.328 326.933H451.661V302.933C451.661 280.266 451.795 278.933 454.328 277.6C455.928 276.8 457.661 274.666 458.328 272.8L459.661 269.6L483.928 269.866L508.328 270.266L507.928 277.333Z" fill="black"/>
<path d="M33.7333 207.982L24 208.382L24.4 261.315C24.5333 290.382 24.9333 318.648 25.2 323.982L25.7333 333.715L77.2 333.315C105.6 333.182 134.933 332.782 142.533 332.515L156.133 332.115V271.582C156.133 238.382 155.733 210.115 155.333 208.915C154.533 206.915 149.333 206.782 98.9333 207.182C68.4 207.448 39.0667 207.715 33.7333 207.982ZM121.733 235.715C96.9333 259.715 95.8667 260.648 90.4 260.782C84.5333 260.915 80.8 258.248 66.8 244.115C64.2667 241.582 55.6 233.448 47.6 226.115L33.0667 212.915L74.2667 212.248C96.9333 211.848 122.667 211.448 131.467 211.315L147.467 210.915L121.733 235.715ZM151.733 297.448L151.467 323.315L141.467 314.115C136 309.048 126.4 300.115 120.133 294.115C113.867 288.115 106.667 281.182 104 278.782C99.8667 274.915 99.0667 273.448 99.3333 269.048C99.6 264.115 100.933 262.515 124.8 239.448L150.133 215.182L151.067 243.315C151.733 258.915 152 283.182 151.733 297.448ZM42 227.448C48.6667 233.715 60.2667 244.648 67.7333 251.848C87.4667 270.782 88 268.115 57.0667 298.915C43.3333 312.515 31.6 323.715 31.0667 323.982C30.4 324.115 29.4667 308.515 29.0667 289.315C27.8667 244.915 27.8667 216.248 28.9333 216.248C29.4667 216.248 35.3333 221.315 42 227.448ZM110.4 291.448C118.267 298.915 129.867 309.715 136.133 315.448C142.4 321.182 147.6 326.248 147.867 326.915C148.267 327.848 34.8 329.582 33.6 328.648C33.2 328.382 44.6667 316.915 58.9333 303.048C84.1333 278.382 84.9333 277.848 90.4 277.848C95.7333 277.848 96.8 278.515 110.4 291.448Z" fill="black"/>
<path d="M321.739 396.634L313.739 405.167L307.739 400.767C295.205 391.834 288.805 389.967 270.272 389.967C254.939 389.967 252.939 390.234 245.872 393.567C241.605 395.567 235.739 399.034 232.939 401.301C230.139 403.434 227.339 405.301 226.805 405.301C226.139 405.301 222.005 401.701 217.472 397.167C212.005 391.701 208.405 389.167 206.805 389.567C204.805 389.967 206.272 391.967 214.139 399.567L224.139 409.034L220.405 413.834C211.472 425.567 207.339 441.701 209.072 457.434C210.005 466.101 216.805 481.567 222.005 487.034L225.472 490.634L215.605 500.634C207.605 508.767 206.005 510.901 207.472 512.234C208.805 513.701 210.405 512.501 216.005 506.634C228.539 493.434 228.005 493.701 233.872 498.234C241.072 503.834 246.272 506.367 255.872 508.634C274.672 513.034 293.339 509.167 308.539 497.834C310.805 496.101 313.205 494.634 313.872 494.634C314.405 494.634 318.939 498.634 323.872 503.567C330.939 510.634 333.205 512.234 334.539 510.901C335.872 509.567 334.139 507.167 326.672 499.567L317.205 489.967L321.739 483.967C336.939 463.434 336.272 433.701 319.872 412.234L316.539 407.967L325.472 399.834C330.272 395.434 334.272 390.901 334.272 389.834C334.272 385.834 329.339 388.501 321.739 396.634ZM283.339 393.967C291.872 395.967 301.739 400.501 307.472 405.167L310.805 407.701L293.605 424.234C277.205 440.101 276.272 440.634 270.539 440.767C264.672 441.034 264.005 440.634 253.739 430.767C247.739 425.034 240.139 417.834 236.672 414.634C233.072 411.567 230.272 408.634 230.272 408.101C230.405 406.901 242.272 399.034 246.939 397.167C260.005 391.967 270.805 391.034 283.339 393.967ZM254.539 437.567C261.339 443.967 262.005 445.167 262.139 450.101C262.139 455.434 261.472 456.101 245.339 471.434C236.139 480.234 228.272 487.434 227.739 487.701C227.205 487.834 224.939 485.434 222.672 482.367C209.072 463.167 209.205 434.901 223.205 416.234L226.539 411.834L236.672 421.167C242.272 426.234 250.405 433.701 254.539 437.567ZM320.405 420.101C329.072 434.101 331.339 451.701 326.272 466.767C323.472 474.767 318.272 484.367 315.605 485.967C313.605 487.167 311.739 485.834 294.672 469.834C278.939 455.034 278.805 454.901 279.339 449.567C279.872 444.767 281.472 442.634 296.272 427.967C305.339 419.034 313.472 411.967 314.272 412.234C315.205 412.501 318.005 416.101 320.405 420.101ZM283.739 465.701C287.739 469.434 295.472 476.634 300.805 481.701C306.005 486.634 310.005 491.301 309.605 491.967C307.739 494.901 296.805 501.301 289.205 503.834C278.805 507.434 264.005 507.567 253.339 504.234C245.872 501.834 231.605 493.701 231.605 491.834C231.605 491.301 239.205 483.567 248.539 474.767C264.539 459.567 265.872 458.634 270.939 458.634C275.605 458.634 277.339 459.567 283.739 465.701Z" fill="black"/>
<path d="M123 414.712L96.4667 440.978L90.2 440.845C82.8667 440.712 84.2 441.778 41.9333 401.645C30.0667 390.445 25 387.112 25 390.712C25 391.512 29 395.912 33.9333 400.445C38.8667 404.978 48.7333 414.178 55.6667 420.845C62.6 427.512 71.1333 435.378 74.4667 438.445C79.2667 442.845 80.8667 445.245 81.4 449.378C82.0667 454.578 81.9333 454.845 68.8667 467.645C61.5333 474.845 49 486.978 40.8667 494.712C27.2667 507.912 24.0667 512.045 28.0667 512.045C28.8667 512.045 41.9333 500.045 57 485.378L84.3333 458.712L90.3333 458.845C97 458.845 94.3333 456.578 132.867 493.112C148.733 508.178 155.667 513.245 155.667 509.778C155.667 508.445 138.867 491.912 115.533 470.445C99.2667 455.378 98.8667 454.712 99 449.512C99.1333 444.312 99.9333 443.378 119.667 424.445C143.667 401.645 154.333 390.712 154.333 389.112C154.333 385.112 146.467 391.512 123 414.712Z" fill="black"/>
</svg>
