<svg width="180" height="180" viewBox="0 0 180 180" fill="none" xmlns="http://www.w3.org/2000/svg">
<rect x="0.1" y="0.1" width="179.8" height="179.8" fill="white" stroke="#CBCBCB" stroke-width="0.2"/>
<path d="M34 30.466L24 30.866L24.2667 51.1327C24.5333 62.3327 24.6667 90.866 24.8 114.466V157.666L89.3333 157.133C124.8 156.999 154.267 156.333 154.8 155.933C155.2 155.399 155.6 146.733 155.6 136.599C155.6 126.333 155.6 98.066 155.6 73.5327L155.467 28.9993L99.8667 29.5327C69.2 29.7993 39.6 30.1993 34 30.466ZM139.733 41.7993C133.333 48.066 132.8 48.466 130.533 46.466C127.333 43.666 113.067 36.1993 110.267 35.7993C109.067 35.666 115.067 35.266 123.467 34.866C131.867 34.3327 140.533 34.3327 142.667 34.5993L146.4 35.1327L139.733 41.7993ZM64.1333 38.866C59.7333 41.1327 54.1333 44.466 51.7333 46.3327L47.2 49.666L40.6667 43.266C37.0667 39.7993 34.1333 36.3327 34.1333 35.7993C34.1333 35.266 42.6667 34.7327 53.2 34.7327H72.1333L64.1333 38.866ZM87.6 56.3327C87.7333 67.5327 88 78.066 88.1333 79.666C88.9333 87.266 85.3333 85.266 68 68.7327L50.8 52.066L54.1333 49.266C60.8 43.666 77.3333 36.7327 85.8667 36.1993C87.0667 36.066 87.4667 40.9993 87.6 56.3327ZM103.867 38.066C112.267 40.1993 126.133 46.7327 128.533 49.7993C129.867 51.266 126.8 54.7327 112.667 68.5993C103.067 77.7993 94.6667 85.1327 94 84.7327C93.3333 84.1993 92.8 73.3993 92.8 59.9327C92.8 41.3993 93.2 36.066 94.5333 36.066C95.4667 36.066 99.7333 36.9993 103.867 38.066ZM37.2 45.5327C40.6667 49.266 43.4667 52.466 43.4667 52.866C43.4667 53.1327 41.4667 56.1993 38.9333 59.7993C36.4 63.266 33.0667 69.1327 31.6 72.7327L28.9333 79.3993V58.9993C28.8 47.9327 29.3333 38.7327 29.8667 38.7327C30.4 38.7327 33.7333 41.7993 37.2 45.5327ZM151.333 55.666C151.333 69.3993 150.933 72.1993 149.733 70.1993C145.333 63.3993 140.667 56.466 138.8 53.9327C136.8 51.266 137.067 50.7327 143.067 44.866C146.667 41.5327 149.867 38.7327 150.533 38.7327C151.067 38.7327 151.467 46.3327 151.333 55.666ZM140.667 62.9993C145.867 70.866 149.6 80.5993 150.4 88.066L150.8 91.3993L125.2 91.7993C101.333 92.066 99.4667 91.9327 99.4667 89.7993C99.4667 87.666 132.133 54.7327 134.4 54.7327C134.8 54.7327 137.733 58.466 140.667 62.9993ZM65.4667 72.866C75.3333 82.3327 82.1333 89.666 81.6 90.5993C80.9333 91.5327 72.6667 92.066 56 92.066H31.4667V88.866C31.4667 79.7993 43.6 54.866 47.3333 56.3327C47.8667 56.5993 56.1333 64.066 65.4667 72.866ZM82.1333 97.1327C82.1333 98.5993 47.4667 132.066 46 132.066C44 132.066 36.6667 120.066 34 112.466C32.6667 108.333 31.4667 102.999 31.4667 100.466V96.066H56.8C70.8 96.066 82.1333 96.5993 82.1333 97.1327ZM150.267 102.066C149.467 111.666 140.533 130.199 136.133 131.666C135.333 131.933 130.533 128.066 125.333 123.133C120.133 118.066 112 110.466 107.067 105.933C102.133 101.399 98.5333 97.3993 99.0667 96.866C99.6 96.466 111.467 96.1993 125.333 96.3327L150.8 96.7327L150.267 102.066ZM88.5333 127.399L88.8 152.466L82.2667 151.666C75.2 150.866 58.2667 143.399 52.8 138.733L49.4667 135.933L67.4667 118.733C77.3333 109.266 86.1333 101.666 86.8 101.799C87.6 102.066 88.2667 112.199 88.5333 127.399ZM116.8 121.399L132.133 136.199L128.8 138.866C120.8 145.666 99.8667 153.533 94.9333 151.666C93.0667 150.866 92.8 147.799 92.8 126.999C92.8 113.933 93.2 102.733 93.6 102.333C94.9333 101.133 99.7333 105.133 116.8 121.399ZM39.3333 130.599L43.3333 135.666L37.0667 141.799C33.6 145.266 30.2667 148.066 29.7333 148.066C29.2 148.066 28.8 139.799 28.9333 129.666V111.399L32.1333 118.466C34 122.466 37.2 127.799 39.3333 130.599ZM151.2 138.599L150.8 146.733L144.533 141.399L138.4 136.066L144.267 127.266C147.467 122.466 150.267 117.799 150.4 116.999C150.933 113.666 151.6 130.999 151.2 138.599ZM64 150.199L68.1333 151.933L64.1333 152.066C62 152.066 54.2667 152.466 47.2 152.733C37.6 153.266 34.1333 152.999 34.1333 151.933C34.1333 150.999 36.9333 147.666 40.4 144.599L46.6667 138.866L53.3333 143.666C56.9333 146.199 61.7333 149.133 64 150.199ZM147.467 150.866C147.467 151.533 139.867 152.066 130.667 152.066H113.733L120.267 148.599C123.867 146.733 128.667 143.799 130.8 142.066L134.8 138.999L141.2 144.333C144.667 147.266 147.467 150.199 147.467 150.866Z" fill="black"/>
</svg>
