<svg width="180" height="180" viewBox="0 0 180 180" fill="none" xmlns="http://www.w3.org/2000/svg">
<rect x="0.1" y="0.1" width="179.8" height="179.8" fill="white" stroke="#CBCBCB" stroke-width="0.2"/>
<path d="M74.0053 30.8136C57.8719 35.2136 44.1386 45.4803 35.7386 59.3469C30.0053 68.6803 28.1386 75.8803 28.0053 88.0136C27.8719 100.414 30.2719 110.147 35.7386 119.48C62.9386 166.014 132.939 158.947 149.072 108.147C154.005 92.6803 152.939 78.6803 146.005 63.6136C141.739 54.5469 128.405 40.9469 119.339 36.2803C105.339 29.2136 87.8719 27.0803 74.0053 30.8136ZM112.805 37.4803C125.605 42.6803 136.139 52.8136 142.539 65.8803C147.472 75.6136 147.605 76.5469 147.605 90.1469C147.605 103.347 147.339 104.68 143.072 113.48C140.272 119.214 135.605 125.614 131.072 130.28C98.5386 162.68 42.9386 146.147 32.2719 100.947C25.8719 73.7469 43.3386 44.8136 72.0053 35.3469C83.3386 31.6136 100.539 32.5469 112.805 37.4803Z" fill="black"/>
<path d="M81.6053 84.8136C78.1386 88.2802 78.2719 91.7469 82.0053 95.2136C87.7386 100.68 97.6053 97.4802 97.6053 90.2802C97.6053 82.8136 87.2053 79.2136 81.6053 84.8136Z" fill="black"/>
</svg>
