<svg width="180" height="180" viewBox="0 0 180 180" fill="none" xmlns="http://www.w3.org/2000/svg">
<rect x="0.1" y="0.1" width="179.8" height="179.8" fill="white" stroke="#CBCBCB" stroke-width="0.2"/>
<path d="M34.4 28.2001L24 28.6001L24.2667 87.0001C24.2667 119.133 24.8 147.4 25.3333 149.933L26.2667 154.467L38.1333 154.2C44.8 154.067 74 153.933 103.2 153.933L156.4 153.8L156 98.0668C155.733 67.5335 155.333 39.0001 155.067 34.7335L154.533 27.0001L99.7333 27.4001C69.4667 27.5335 40.1333 27.9335 34.4 28.2001ZM145.467 32.2001C145.467 32.7335 134.133 44.4668 120.4 58.2001C100.667 77.8001 95.0667 82.8668 93.7333 81.5335C91.4667 79.2668 91.4667 33.0001 93.8667 32.0668C96.5333 30.8668 145.467 31.0001 145.467 32.2001ZM88.1333 57.2668C88.1333 80.8668 88 81.9335 85.6 81.5335C82.9333 81.1335 34.8 35.6668 34.8 33.6668C34.8 33.0001 46.8 32.4668 61.4667 32.4668H88.1333V57.2668ZM51.0667 56.6001C62.2667 67.2668 73.7333 78.0668 76.5333 80.4668C79.2 82.7335 81.4667 85.9335 81.4667 87.2668C81.4667 89.6668 80.1333 89.8001 55.7333 89.8001H29.8667L29.0667 73.5335C27.7333 50.4668 27.8667 36.2001 29.3333 36.7335C30.1333 36.8668 39.8667 45.9335 51.0667 56.6001ZM150.8 62.4668V88.4668L128.133 88.7335C115.733 88.8668 104.133 89.0001 102.533 89.0001C100.933 89.1335 99.4667 88.4668 99.2 87.6668C98.6667 86.2001 147.867 36.4668 149.733 36.4668C150.267 36.4668 150.8 48.2001 150.8 62.4668ZM150.933 105.4C150.933 112.6 151.2 124.067 151.6 130.733C151.867 139 151.6 143.133 150.667 143.133C150 143.133 139.733 133.933 127.867 122.733C116.133 111.667 104.8 101.133 102.667 99.4001C100.533 97.6668 98.8 95.8001 98.8 95.1335C98.8 94.4668 106.4 93.6668 115.867 93.5335C125.2 93.2668 136.8 93.0001 141.867 92.7335L150.8 92.3335L150.933 105.4ZM63.4667 113.533C52.5333 124.333 40.2667 136.2 36.5333 139.667L29.4667 146.2V119.933V93.8001H56.5333H83.4667L63.4667 113.533ZM89.2 124.867L89.6 149.8H61.2H32.8L58.8 124.467C73.0667 110.6 85.7333 99.4001 86.8 99.5335C88.5333 99.8001 88.8 103.8 89.2 124.867ZM109.867 112.067C117.333 119.267 127.333 128.733 132.133 133.267C136.933 137.933 142.4 142.867 144.533 144.467C146.533 146.067 148.133 147.933 148.133 148.6C148.133 149.267 136.667 149.8 120.8 149.8H93.6L93.2 125.8C92.8 100.733 92.9333 99.1335 94.9333 99.1335C95.6 99.1335 102.267 105 109.867 112.067Z" fill="black"/>
</svg>
