<svg width="180" height="180" viewBox="0 0 180 180" fill="none" xmlns="http://www.w3.org/2000/svg">
<rect x="0.1" y="0.1" width="179.8" height="179.8" fill="white" stroke="#CBCBCB" stroke-width="0.2"/>
<path d="M145.667 32.4673C142.733 35.4006 138.733 39.134 136.733 40.4673L133 43.134L127.4 39.134C117.133 31.8006 105.267 28.334 91 28.334C74.2 28.334 63.5333 32.0673 48.3333 43.534C47.2667 44.334 43.9333 41.934 38.2 36.4673C30.6 29.2673 25 26.2006 25 29.534C25 30.0673 29.2667 34.6006 34.4667 39.4006L43.9333 48.0673L39.4 54.2006C25.2667 72.6006 25.6667 106.067 40.3333 124.467L44.8667 130.201L35.4 139.267C29.4 145.134 26.3333 149.001 26.8667 150.334C27.2667 151.401 28.0667 152.334 28.6 152.334C29.2667 152.334 33.8 148.201 38.8667 143.134L48.0667 133.934L54.6 138.334C66.6 146.601 74.6 149.001 91 148.867C104.067 148.867 106.6 148.467 114.333 145.134C119.133 143.134 125.267 139.667 127.933 137.534C130.6 135.401 133.4 133.667 133.933 133.667C134.6 133.667 139 137.534 143.667 142.334C151.933 150.734 155.667 152.867 155.667 149.267C155.667 148.334 151.533 143.534 146.467 138.467L137.267 129.401L142.467 122.067C150.2 111.001 152.333 103.401 152.2 87.6673C152.067 72.334 150.333 66.734 142.333 54.734L137 46.6006L145.667 38.734C153.933 31.134 156.333 27.0006 152.6 27.0006C151.667 27.0006 148.467 29.4006 145.667 32.4673ZM105.4 33.6673C114.333 35.934 130.333 44.0673 130.333 46.4673C130.333 46.8673 122.733 54.6006 113.4 63.4006C97 79.2673 96.4667 79.6673 90.4667 79.8006C84.6 79.8006 83.9333 79.4006 73.6667 69.6673C67.8 64.0673 60.0667 56.734 56.4667 53.534L50.0667 47.6673L54.4667 44.0673C62.7333 37.134 78.7333 31.2673 89.8 31.134C92.7333 31.0006 99.8 32.2006 105.4 33.6673ZM70.6 73.0006C81.1333 82.734 82.0667 84.0673 82.0667 88.6006C82.0667 93.2673 80.8667 94.8673 65.4 109.934C56.3333 119.001 48.3333 126.467 47.8 126.734C46.2 127.267 38.6 114.867 35.5333 106.867C33.6667 102.201 32.8667 96.6006 32.8667 89.6673C32.8667 74.8673 35.6667 65.4006 43.2667 55.2673L46.6 50.8673L52.7333 56.6006C56.2 59.6673 64.2 67.0006 70.6 73.0006ZM139.8 57.934C151.933 76.8673 152.2 98.6006 140.467 118.067C138.2 121.801 135.667 125.001 134.733 125.267C133.8 125.667 125.667 118.734 116.467 110.067C100.6 95.134 99.8 94.0673 99.6667 89.0006C99.6667 83.934 100.467 82.8673 115.933 67.4006C125 58.334 133 51.0006 133.8 51.0006C134.733 51.0006 137.4 54.0673 139.8 57.934ZM113 113.001C122.2 121.801 129.8 129.401 130.067 129.934C130.333 130.467 127.667 133.001 124.067 135.534C105.933 148.734 77 149.001 58.2 136.067C54.6 133.667 51.6667 131.401 51.6667 131.001C51.6667 130.467 59.2667 122.734 68.7333 113.534C91.5333 91.134 90.3333 91.134 113 113.001Z" fill="black"/>
</svg>
