<svg width="180" height="180" viewBox="0 0 180 180" fill="none" xmlns="http://www.w3.org/2000/svg">
<rect x="0.1" y="0.1" width="179.8" height="179.8" fill="white" stroke="#CBCBCB" stroke-width="0.2"/>
<path d="M124.134 53.6695C109.068 68.3362 96.0011 80.2029 95.2011 80.3362C93.8678 80.3362 93.4678 74.3362 93.4678 54.3362C93.4678 28.8695 93.4678 28.3362 90.6678 28.3362C88.0011 28.3362 88.0011 28.8695 88.2678 53.9362C88.5345 72.7362 88.1345 79.6695 86.9345 80.0695C85.3345 80.6029 72.2678 69.2695 45.7345 43.9362C36.8011 35.4029 28.8011 28.3362 28.1345 28.3362C25.2011 28.3362 25.3345 31.6695 28.2678 34.0695C30.0011 35.4029 40.1345 44.8695 50.8011 54.8695C61.4678 65.0029 73.0678 75.8029 76.5345 79.0029C80.0011 82.2029 82.6678 85.4029 82.4011 86.2029C82.1345 87.1362 72.8011 87.9362 55.0678 88.3362C18.6678 89.2695 18.6678 91.5362 55.2011 92.0695C70.4011 92.2029 82.8011 92.8695 82.8011 93.5362C82.8011 94.2029 70.2678 107.003 54.8011 121.936C39.4678 137.003 26.8011 149.936 26.8011 150.736C26.8011 154.736 32.1345 150.47 58.1345 125.003C73.8678 109.536 86.8011 97.9362 87.7345 98.2029C89.0678 98.7362 89.4678 105.136 89.4678 125.67C89.4678 149.67 89.7345 152.47 91.6011 152.07C93.6011 151.67 93.7345 148.603 93.6011 124.603C93.3345 103.27 93.7345 97.6695 95.0678 97.6695C96.0011 97.6695 109.334 109.67 124.801 124.336C140.134 139.003 153.601 151.003 154.401 151.003C157.734 151.003 156.001 147.536 149.868 141.803C146.268 138.603 137.468 130.203 130.134 123.136C122.801 116.07 112.668 106.603 107.601 101.936C102.534 97.4029 98.6678 93.4029 98.9345 93.0029C99.3345 92.7362 111.868 92.3362 126.801 92.0695C151.601 91.6695 154.134 91.4029 154.534 89.2695C154.934 87.1362 152.934 87.0029 127.601 87.0029C112.534 87.0029 100.001 86.4695 99.6011 85.8029C99.2011 85.1362 111.468 72.4695 126.801 57.5362C152.668 32.6029 157.601 26.8695 153.201 27.0029C152.268 27.1362 139.201 39.0029 124.134 53.6695Z" fill="black"/>
</svg>
