<svg width="180" height="180" viewBox="0 0 180 180" fill="none" xmlns="http://www.w3.org/2000/svg">
<rect x="0.1" y="0.1" width="179.8" height="179.8" fill="white" stroke="#CBCBCB" stroke-width="0.2"/>
<path d="M37.7333 29.2003L24 29.6003V50.0003C24 61.2003 24.4 89.3336 24.9333 112.667L25.7333 154.934L83.2 154.667C114.8 154.534 144.267 154.134 148.533 153.734L156.4 153.067L155.6 95.6003C155.067 64.0003 154.667 35.8669 154.667 33.0669V28.0003L103.067 28.4003C74.5333 28.6669 45.2 28.9336 37.7333 29.2003ZM150.933 34.4003C151.2 35.7336 151.733 62.4003 151.867 93.8669L152.267 150.8L90.4 150.534L28.6667 150.134L28.2667 92.8003C28.1333 61.3336 28.2667 34.8003 28.5333 33.8669C29.0667 32.5336 41.8667 32.1336 89.8667 32.1336C146.4 32.1336 150.4 32.2669 150.933 34.4003Z" fill="black"/>
<path d="M82.1332 86.267C74.3999 94.0003 87.7332 104.934 95.7332 97.467C99.1999 94.267 99.4665 91.2003 96.5332 87.067C94.1332 83.467 85.3332 82.9336 82.1332 86.267Z" fill="black"/>
</svg>
