<svg width="540" height="540" viewBox="0 0 540 540" fill="none" xmlns="http://www.w3.org/2000/svg">
<g clip-path="url(#clip0_109_4152)">
<rect width="540" height="540" fill="white"/>
<rect x="0.1" y="0.1" width="179.8" height="179.8" fill="white" stroke="#CBCBCB" stroke-width="0.2"/>
<rect x="180.1" y="0.1" width="179.8" height="179.8" fill="white" stroke="#CBCBCB" stroke-width="0.2"/>
<rect x="360.1" y="0.1" width="179.8" height="179.8" fill="white" stroke="#CBCBCB" stroke-width="0.2"/>
<rect x="0.1" y="180.1" width="179.8" height="179.8" fill="white" stroke="#CBCBCB" stroke-width="0.2"/>
<rect x="180.1" y="180.1" width="179.8" height="179.8" fill="white" stroke="#CBCBCB" stroke-width="0.2"/>
<rect x="360.1" y="180.1" width="179.8" height="179.8" fill="white" stroke="#CBCBCB" stroke-width="0.2"/>
<rect x="0.1" y="360.1" width="179.8" height="179.8" fill="white" stroke="#CBCBCB" stroke-width="0.2"/>
<rect x="180.1" y="360.1" width="179.8" height="179.8" fill="white" stroke="#CBCBCB" stroke-width="0.2"/>
<rect x="360.1" y="360.1" width="179.8" height="179.8" fill="white" stroke="#CBCBCB" stroke-width="0.2"/>
<path d="M444.909 459.909V459.636C444.939 456.742 445.242 454.439 445.818 452.727C446.394 451.015 447.212 449.629 448.273 448.568C449.333 447.508 450.606 446.53 452.091 445.636C452.985 445.091 453.788 444.447 454.5 443.705C455.212 442.947 455.773 442.076 456.182 441.091C456.606 440.106 456.818 439.015 456.818 437.818C456.818 436.333 456.47 435.045 455.773 433.955C455.076 432.864 454.144 432.023 452.977 431.432C451.811 430.841 450.515 430.545 449.091 430.545C447.848 430.545 446.652 430.803 445.5 431.318C444.348 431.833 443.386 432.644 442.614 433.75C441.841 434.856 441.394 436.303 441.273 438.091H435.545C435.667 435.515 436.333 433.311 437.545 431.477C438.773 429.644 440.386 428.242 442.386 427.273C444.402 426.303 446.636 425.818 449.091 425.818C451.758 425.818 454.076 426.348 456.045 427.409C458.03 428.47 459.561 429.924 460.636 431.773C461.727 433.621 462.273 435.727 462.273 438.091C462.273 439.758 462.015 441.265 461.5 442.614C461 443.962 460.273 445.167 459.318 446.227C458.379 447.288 457.242 448.227 455.909 449.045C454.576 449.879 453.508 450.758 452.705 451.682C451.902 452.591 451.318 453.674 450.955 454.932C450.591 456.189 450.394 457.758 450.364 459.636V459.909H444.909ZM447.818 473.364C446.697 473.364 445.735 472.962 444.932 472.159C444.129 471.356 443.727 470.394 443.727 469.273C443.727 468.152 444.129 467.189 444.932 466.386C445.735 465.583 446.697 465.182 447.818 465.182C448.939 465.182 449.902 465.583 450.705 466.386C451.508 467.189 451.909 468.152 451.909 469.273C451.909 470.015 451.72 470.697 451.341 471.318C450.977 471.939 450.485 472.439 449.864 472.818C449.258 473.182 448.576 473.364 447.818 473.364Z" fill="black"/>
<path d="M80.6769 69.2768C73.0956 72.4061 68.1243 80.0417 68 89.0541C68 103.073 80.1798 113.212 93.8509 110.584C113.861 106.703 117.34 79.2906 99.0708 69.6523C95.218 67.6496 85.2754 67.3992 80.6769 69.2768Z" fill="black"/>
<path d="M233.29 70.2048C220.308 76.8903 216.97 93.6669 226.367 104.389C243.552 123.814 272.977 102.623 261.355 79.2869C256.286 69.3218 243.057 65.0331 233.29 70.2048Z" fill="black"/>
<path d="M287.631 70.7253C272.228 77.5119 272.103 102.019 287.38 110.063C296.647 114.838 311.799 110.314 316.057 101.642C321.817 89.8284 318.937 77.889 309.044 72.1078C302.908 68.5888 293.892 67.9604 287.631 70.7253Z" fill="black"/>
<path d="M386.458 70.8251C377.701 74.7405 374 80.8031 374 90.9073C374 104.422 381.648 112 395.093 112C408.292 112 415.076 105.432 415.816 91.9178C416.309 84.8448 415.939 83.3291 413.102 78.7822C407.428 70.0673 395.956 66.5308 386.458 70.8251Z" fill="black"/>
<path d="M438.242 70.2996C423.163 78.5274 425.173 103.211 441.383 109.413C456.965 115.363 472.295 103.844 470.913 87.135C470.285 79.9198 467.772 75.4895 461.991 71.0591C456.965 67.3882 444.399 66.8819 438.242 70.2996Z" fill="black"/>
<path d="M494.273 69.1672C487.903 71.8056 482.533 81.6055 483.032 89.8977C483.282 96.5566 486.405 102.21 492.025 106.482C495.897 109.497 497.77 110 504.14 110C513.508 110 519.253 106.985 523.375 99.8232C529.12 89.8977 524.999 74.5697 515.256 69.921C510.76 67.7852 498.52 67.2826 494.273 69.1672Z" fill="black"/>
<path d="M81.2 222.509C72.6514 226.409 68 233.832 68 243.394C68 261.259 87.4857 271.073 102.446 260.882C107.6 257.485 112 249.181 112 243.142C111.874 236.977 107.851 229.051 102.571 225.151C97.1657 220.873 87.2343 219.741 81.2 222.509Z" fill="black"/>
<path d="M80.9363 277.345C73.0238 280.431 68 288.333 68 297.593C68 307.841 73.1494 314.879 83.0714 318.089C92.6166 321.176 104.925 316.114 109.195 307.471C112.209 301.174 111.33 290.185 107.437 284.876C102.036 277.345 89.7279 273.887 80.9363 277.345Z" fill="black"/>
<path d="M232.776 222.203C223.21 226.596 217.672 239.147 220.945 249.062C224.343 259.103 231.391 264.123 242.341 263.998C261.473 263.872 271.164 240.904 257.823 226.973C251.026 219.819 241.964 218.061 232.776 222.203Z" fill="black"/>
<path d="M287.15 223.045C272.08 230.626 272.327 255.012 287.644 262.594C309.014 273.334 329.397 245.662 313.091 228.099C311.238 226.078 308.273 223.677 306.42 222.666C301.973 220.265 292.215 220.518 287.15 223.045Z" fill="black"/>
<path d="M233.477 276.803C227.446 278.915 225.812 280.282 222.671 286.247C213.498 304.264 229.33 322.654 249.184 316.939C260.492 313.708 267.152 299.791 262.503 288.732C259.864 282.395 257.225 279.661 250.943 276.927C245.163 274.442 240.639 274.318 233.477 276.803Z" fill="black"/>
<path d="M285.739 278.656C273.893 284.534 271.247 303.045 280.824 313.051C288.764 321.305 304.642 320.93 312.455 312.175C316.866 307.422 318 304.296 318 297.041C318 280.657 301.24 271.027 285.739 278.656Z" fill="black"/>
<path d="M385.656 223.479C374.155 229.395 370.322 245.417 377.989 255.401C385.017 264.645 400.095 266.863 409.423 259.961C415.557 255.524 417.985 250.717 417.985 242.459C418.113 236.667 417.474 234.695 414.535 230.504C407.634 221.26 395.751 218.426 385.656 223.479Z" fill="black"/>
<path d="M440.228 221.489C432.286 225.709 428 232.658 428 241.097C428 251.149 434.681 259.587 444.766 262.193C452.33 264.179 458.254 262.566 464.684 256.609C470.23 251.397 470.356 251.025 470.861 242.834C471.239 235.388 470.987 233.651 468.339 229.928C463.549 222.978 458.002 220 449.808 220C445.901 220 441.615 220.745 440.228 221.489Z" fill="black"/>
<path d="M493.846 221.953C483.675 226.816 478.896 241.279 484.165 251.629C491.15 265.594 511.491 266.965 520.804 254.247C524.358 249.384 525.093 237.663 522.275 231.429C517.618 221.703 504.139 217.09 493.846 221.953Z" fill="black"/>
<path d="M386.544 278.982C384.144 279.988 380.607 282.882 378.712 285.398C367.47 299.994 377.575 320.125 396.017 319.999C410.923 319.874 420.017 309.053 417.617 294.332C415.344 280.617 400.312 273.194 386.544 278.982Z" fill="black"/>
<path d="M437.961 278.015C432.791 281.388 428 290.26 428 296.383C428 302.381 431.404 308.503 437.205 313.126C441.492 316.5 443.131 317 449.94 317C456.622 317 458.64 316.375 463.053 313.501C469.862 308.753 472.636 302.88 471.879 294.259C471.249 286.761 468.601 282.388 462.044 277.89C456.118 274.016 444.013 274.016 437.961 278.015Z" fill="black"/>
<path d="M492.895 276.633C478.184 284.322 478.432 307.136 493.266 314.951C498.211 317.598 508.471 317.724 513.292 315.077C524.418 309.279 528.127 296.548 522.193 285.204C516.754 274.742 503.897 270.961 492.895 276.633Z" fill="black"/>
<path d="M77.9416 376.968C71.0202 381.615 68 387.141 68 395.305C68.1258 402.338 69.0067 404.975 73.6629 410.627C81.0877 419.795 99.7125 418.916 107.011 408.994C110.409 404.347 112.045 393.546 110.283 388.146C108.647 383.374 102.733 376.843 98.5799 375.21C92.6652 373.075 82.472 373.829 77.9416 376.968Z" fill="black"/>
<path d="M80.9352 429.56C72.0187 433.578 68 439.857 68 449.652C68 457.438 70.6373 462.838 76.7909 467.484C80.6841 470.498 82.5678 471 89.0982 471C95.2519 471 97.7636 470.372 101.406 467.861C110.071 461.959 113.587 449.024 108.941 439.355C104.671 430.188 90.6052 425.29 80.9352 429.56Z" fill="black"/>
<path d="M77.6677 485.868C68.4272 490.9 64.25 504.36 68.9335 513.543C73.4905 522.6 79.4398 526.123 89.4398 525.997C105.895 525.871 115.895 509.644 108.554 494.674C103.237 483.856 88.8069 479.705 77.6677 485.868Z" fill="black"/>
<path d="M231.402 376.596C221.318 381.975 217.032 395.109 222.2 404.991C223.335 407.368 226.486 410.996 229.133 413.122C233.419 416.5 235.058 417 241.991 417C248.924 417 250.563 416.5 254.849 413.122C263.925 405.867 266.446 395.735 261.53 385.853C256.236 374.97 242.369 370.842 231.402 376.596Z" fill="black"/>
<path d="M286.2 376.386C280.362 380.028 276.884 385.679 276.139 393.214C275.021 404.139 280.735 412.93 290.796 415.944C305.206 420.339 318 410.544 318 395.349C318 381.786 310.547 374 297.504 374C292.411 374 288.809 374.753 286.2 376.386Z" fill="black"/>
<path d="M232.699 428.762C229.808 429.897 223.901 435.697 221.89 439.605C220.885 441.496 220.005 445.405 220.005 448.431C219.754 462.047 228.803 471.125 242.502 470.999C248.158 470.999 250.168 470.242 253.939 467.216C260.474 461.921 262.862 457.13 262.988 448.935C263.365 435.823 254.944 427.754 241.245 428.006C237.6 428.006 233.704 428.384 232.699 428.762Z" fill="black"/>
<path d="M286.648 430.179C284.382 431.312 280.73 434.586 278.842 437.231C271.539 447.305 275.064 463.172 285.893 469.216C300.498 477.401 318 466.572 318 449.32C318 433.705 300.876 423.253 286.648 430.179Z" fill="black"/>
<path d="M233.139 483.487C224.359 486.665 218.212 498.994 220.47 509.035C221.975 515.898 225.237 520.093 231.885 523.524C241.92 528.863 254.715 525.304 260.36 515.39C264.248 508.653 263.746 496.833 259.482 491.24C252.959 482.852 243.174 479.928 233.139 483.487Z" fill="black"/>
<path d="M284.635 485.781C275.637 491.595 272.388 504.612 277.262 514.848C278.761 517.881 280.636 520.283 281.511 520.03C282.51 519.904 282.885 520.283 282.385 521.041C281.886 521.799 283.635 523.189 286.259 524.327C293.007 527.234 303.754 526.223 309.128 522.305C314.001 518.893 317.875 510.931 318 504.485C318 498.419 313.251 489.446 308.003 485.908C302.38 482.116 290.383 481.99 284.635 485.781Z" fill="black"/>
</g>
<defs>
<clipPath id="clip0_109_4152">
<rect width="540" height="540" fill="white"/>
</clipPath>
</defs>
</svg>
