<svg width="180" height="180" viewBox="0 0 180 180" fill="none" xmlns="http://www.w3.org/2000/svg">
<rect x="0.1" y="0.1" width="179.8" height="179.8" fill="white" stroke="#CBCBCB" stroke-width="0.2"/>
<path d="M27.5029 18.2237C17.6115 22.691 12.0476 36.3342 16.6224 45.0272C19.5898 50.8225 22.0626 53.2372 27.6265 56.0142C39.6198 61.9302 55.446 53.9617 57.6715 40.9221C58.7843 34.2816 57.0533 28.3656 52.7259 23.5361C45.8019 15.809 37.147 13.998 27.5029 18.2237Z" fill="black"/>
<path d="M83.6236 15.5604C82.0325 15.9242 78.3607 18.3494 75.4232 21.1385C71.1394 25.2615 70.0379 27.323 69.3035 32.0523C67.1004 46.7253 77.1367 58.1241 91.4568 56.9115C107.858 55.5776 116.425 37.873 107.246 24.1701C102.35 16.773 93.6599 13.6201 83.6236 15.5604Z" fill="black"/>
<path d="M133.283 17.0841C120.403 23.3122 118.05 42.2406 128.824 51.6438C139.599 60.9248 156.442 57.7497 162.635 45.1715C167.588 35.0356 164.616 24.4113 155.08 18.3053C148.887 14.3975 139.847 13.909 133.283 17.0841Z" fill="black"/>
<path d="M27.9123 69.6519C20.4211 72.9651 16.1228 80.328 16 89.6542C16 105.484 33.807 115.179 48.2982 107.08C54.9298 103.275 58 97.6306 58 88.7952C58 80.2052 54.9298 74.315 48.6667 70.7563C43.1404 67.5657 33.6842 67.0749 27.9123 69.6519Z" fill="black"/>
<path d="M82.1494 69.0858C74.4508 72.4128 70 79.806 70 89.2939C70 101.616 78.4204 110.241 90.5698 109.995C97.1858 109.872 102.358 107.407 106.689 102.232C110.538 97.4264 111.5 93.9763 110.779 86.0902C110.177 79.5595 107.651 75.1236 102.238 70.9341C98.509 68.1001 86.8407 66.9911 82.1494 69.0858Z" fill="black"/>
<path d="M134.325 70.5872C131.399 72.1793 127.984 74.8734 126.643 76.5879C121.766 83.3234 121.766 95.4472 126.765 102.06C129.935 106.346 138.471 111 143.226 111C149.811 111 157.493 107.081 161.273 101.815C168.589 91.6509 164.687 75.8531 153.469 70.4648C146.641 67.1583 141.032 67.1583 134.325 70.5872Z" fill="black"/>
<path d="M25.6481 124.691C14.4567 131.907 12.6321 148.172 22.1204 157.467C36.8394 171.897 59.8303 160.769 57.884 140.223C57.1541 133.497 54.478 128.972 48.3957 124.814C42.9217 121.145 31.2437 121.022 25.6481 124.691Z" fill="black"/>
<path d="M79.4399 124.363C61.3125 134.303 68.3028 164 88.7998 164C100.174 164 108.704 156.269 109.889 144.856C110.719 137.739 106.809 129.149 101.003 125.099C95.5531 121.295 85.6008 120.927 79.4399 124.363Z" fill="black"/>
<path d="M133.027 124.57C128.973 126.674 126.762 128.901 124.796 132.984C119.76 142.76 121.603 152.658 129.71 159.835C146.171 174.436 171.968 155.504 163.246 135.088C158.21 123.333 144.82 118.631 133.027 124.57Z" fill="black"/>
</svg>
