<svg width="180" height="180" viewBox="0 0 180 180" fill="none" xmlns="http://www.w3.org/2000/svg">
<rect x="0.1" y="0.1" width="179.8" height="179.8" fill="white" stroke="#CBCBCB" stroke-width="0.2"/>
<path d="M26.6268 17.3171C17.0326 21.7396 12.1125 35.3757 16.7866 44.5893C21.3377 53.5572 26.9958 57.1198 36.713 56.9969C55.1633 56.8741 64.6345 36.3585 52.7033 22.7224C45.8151 14.8602 36.098 12.8946 26.6268 17.3171Z" fill="black"/>
<path d="M134.445 19.1745C122.897 24.4628 119.251 41.0489 127.395 50.5438C131.771 55.8321 136.998 58.1157 144.412 57.9955C162.889 57.8753 171.762 36.7221 158.999 23.0206C153.164 16.7707 143.075 15.2083 134.445 19.1745Z" fill="black"/>
<path d="M26.3302 122.863C20.534 125.442 15.2208 132.441 14.3755 138.704C13.2888 146.072 14.4963 151.106 18.8434 156.141C23.7943 161.912 28.2622 164 35.1452 164C50.6016 163.877 60.745 147.3 53.7412 133.546C48.1866 122.494 36.9565 118.196 26.3302 122.863Z" fill="black"/>
<path d="M133.915 124.69C123.024 129.388 118.073 141.795 122.776 152.756C126.489 161.309 134.163 165.645 144.064 164.922C156.069 163.959 163 156.25 163 144.084C163 137.82 162.505 135.893 159.411 131.797C153.47 123.727 142.826 120.836 133.915 124.69Z" fill="black"/>
</svg>
