<svg width="180" height="180" viewBox="0 0 180 180" fill="none" xmlns="http://www.w3.org/2000/svg">
<rect x="0.1" y="0.1" width="179.8" height="179.8" fill="white" stroke="#CBCBCB" stroke-width="0.2"/>
<path d="M26.3729 69.1849C20.7098 71.2397 18.8631 72.6901 15.5391 77.8876C12.4614 82.8432 12.092 93.359 14.9236 98.7981C17.1396 102.908 23.2951 107.863 27.9733 109.193C36.8373 111.852 47.6711 107.743 52.5955 99.7651C55.6733 94.9303 55.7964 84.6563 52.9648 78.7337C48.9022 70.2727 36.0986 65.6796 26.3729 69.1849Z" fill="black"/>
<path d="M78.555 70.0675C70.9235 73.2334 66.1231 80.6609 66 89.306C66 96.3682 68.3387 101.117 74.1238 106.231C81.7553 112.806 92.3409 112.563 100.834 105.622C111.05 97.0988 110.189 80.0521 99.2339 72.0157C95.2951 69.0934 83.4786 67.9976 78.555 70.0675Z" fill="black"/>
<path d="M132.827 70.8106C124.778 74.3001 120.997 79.4742 120.143 88.7394C119.411 95.2371 121.485 100.772 126.363 105.104C131.364 109.797 134.413 111 140.755 111C147.097 111 150.146 109.797 155.146 105.104C172.343 89.3411 154.292 61.6658 132.827 70.8106Z" fill="black"/>
</svg>
