<svg width="180" height="180" viewBox="0 0 180 180" fill="none" xmlns="http://www.w3.org/2000/svg">
<rect x="0.1" y="0.1" width="179.8" height="179.8" fill="white" stroke="#CBCBCB" stroke-width="0.2"/>
<path d="M26.7117 16.5849C21.1278 19.2928 17.4052 24.2164 15.4198 31.2325C14.0548 36.5253 16.1643 46.0031 19.6388 49.8189C25.3468 56.0964 36.5146 58.8044 44.5803 55.7272C58.1059 50.6805 62.4489 32.2172 52.7701 21.2622C49.1716 17.2003 41.6022 14 35.8942 14C33.7847 14 29.5658 15.1078 26.7117 16.5849Z" fill="black"/>
<path d="M141.011 17.29C131.764 18.6304 126.093 23.7482 123.75 32.7654C121.038 43.123 125.846 53.115 135.463 57.1362C153.586 64.6911 171.462 47.9971 164.435 30.0846C160.86 20.7019 151.737 15.7059 141.011 17.29Z" fill="black"/>
<path d="M82.3195 70.9479C76.6656 72.8981 73.6031 75.8234 71.0117 81.7958C65.5934 93.9843 71.4829 107.026 84.3219 111.048C88.9157 112.389 90.3292 112.389 95.6297 110.561C105.995 106.904 110 101.297 110 90.9372C110 83.2584 107.644 77.6516 102.815 73.9951C98.1033 70.3385 87.9734 68.8759 82.3195 70.9479ZM97.8677 102.151C97.5143 103.004 97.2787 102.394 97.2787 100.688C97.2787 98.9816 97.5143 98.3722 97.8677 99.1035C98.1033 99.9567 98.1033 101.419 97.8677 102.151Z" fill="black"/>
<path d="M27.9834 121.962C20.1331 124.146 14 133.242 14 142.46C14 163.929 43.9294 170.963 53.9877 151.921C54.969 150.102 55.8276 145.614 55.9503 142.096C56.1956 136.76 55.5823 134.577 53.0064 130.574C47.6093 122.569 37.7964 119.173 27.9834 121.962Z" fill="black"/>
<path d="M131.251 125.714C124.097 130.624 122 134.552 122 143.143C122 152.594 126.194 159.959 133.471 162.904C145.189 167.814 156.907 163.886 161.841 153.331C166.898 142.775 162.704 129.642 153.083 125.101C146.669 122.032 136.308 122.4 131.251 125.714Z" fill="black"/>
</svg>
