<svg width="180" height="180" viewBox="0 0 180 180" fill="none" xmlns="http://www.w3.org/2000/svg">
<rect x="0.1" y="0.1" width="179.8" height="179.8" fill="white" stroke="#CBCBCB" stroke-width="0.2"/>
<path d="M81.678 16.7139C68.6884 22.5887 64.8037 40.0906 74.1513 50.2491C81.071 57.715 93.4535 59.1836 101.709 53.676C118.947 42.1713 110.571 14.878 89.933 15.0004C87.3836 15.1228 83.7417 15.8571 81.678 16.7139Z" fill="black"/>
<path d="M80.5271 68.7502C73.2816 71.6062 68.0011 79.6776 68.0011 88.3698C67.8783 102.65 78.4394 111.715 92.9303 109.728C103 108.362 110 99.4213 110 87.9972C110 76.449 101.158 67.7568 89.2461 68.0052C85.4392 68.0052 81.5095 68.3777 80.5271 68.7502Z" fill="black"/>
<path d="M80.5058 122.647C74.6841 125.231 69.2262 132.37 68.3772 138.646C67.2856 146.031 68.4985 151.077 72.8648 156.123C77.7162 161.662 82.2038 164 88.3893 164C101.488 164 111.312 152.923 109.857 139.877C108.401 126.216 92.8769 117.108 80.5058 122.647Z" fill="black"/>
</svg>
