<svg width="540" height="540" viewBox="0 0 540 540" fill="none" xmlns="http://www.w3.org/2000/svg">
<rect x="0.1" y="0.1" width="179.8" height="179.8" fill="white" stroke="#CBCBCB" stroke-width="0.2"/>
<rect x="180.1" y="0.1" width="179.8" height="179.8" fill="white" stroke="#CBCBCB" stroke-width="0.2"/>
<rect x="360.1" y="0.1" width="179.8" height="179.8" fill="white" stroke="#CBCBCB" stroke-width="0.2"/>
<rect x="0.1" y="180.1" width="179.8" height="179.8" fill="white" stroke="#CBCBCB" stroke-width="0.2"/>
<rect x="180.1" y="180.1" width="179.8" height="179.8" fill="white" stroke="#CBCBCB" stroke-width="0.2"/>
<rect x="360.1" y="180.1" width="179.8" height="179.8" fill="white" stroke="#CBCBCB" stroke-width="0.2"/>
<rect x="0.1" y="360.1" width="179.8" height="179.8" fill="white" stroke="#CBCBCB" stroke-width="0.2"/>
<rect x="180.1" y="360.1" width="179.8" height="179.8" fill="white" stroke="#CBCBCB" stroke-width="0.2"/>
<rect x="360.1" y="360.1" width="179.8" height="179.8" fill="white" stroke="#CBCBCB" stroke-width="0.2"/>
<path d="M79.0667 42.866C59.7333 48.9993 45.3333 65.666 42.9333 84.5993L42 91.666L57.2 91.9327C65.6 92.1993 76.1333 92.3327 80.8 92.3327H89.0667V115.933C89.0667 134.999 89.4667 139.666 90.8 139.666C92.6667 139.666 94.4 121.933 94.4 102.066V92.9993H117.733C137.6 92.9993 141.067 92.7327 141.067 90.9993C141.067 89.3993 138.8 88.9993 129.733 88.866C123.467 88.7327 117.867 88.466 117.067 88.3327C116.4 88.1993 110.933 87.9327 105.067 87.7993L94.4 87.666V64.3327V40.9993L89.4667 41.1327C86.6667 41.1327 82 41.9327 79.0667 42.866ZM90.4 54.7327C90.4 57.266 90 65.666 89.4667 73.3993L88.6667 87.666H70.1333C52 87.666 51.7333 87.666 51.7333 84.5993C51.7333 79.7993 59.0667 66.066 64.1333 61.266C70 55.5327 80.4 50.466 86.1333 50.3327C90.1333 50.3327 90.4 50.5993 90.4 54.7327Z" fill="black"/>
<path d="M268.867 47.0003C268.733 50.3336 268.467 53.5336 268.333 54.3336C268.2 55.0003 267.933 62.8669 267.8 71.6669L267.667 87.6669H244.333C225.533 87.6669 221 88.0669 221 89.5336C221 92.0669 228.2 93.0003 249.533 93.0003H268.067L267.133 116.467L266.333 139.934L273.267 139.4C296.333 137.267 316.067 118.467 319.133 95.9336L320.067 89.0003H296.467H273V65.0003C273 44.6003 272.733 41.0003 271 41.0003C269.533 41.0003 269 42.6003 268.867 47.0003ZM310.333 96.0669C310.333 101.134 302.6 115.134 297.267 119.8C292.333 124.067 282.067 129.4 275.4 130.867L271.667 131.667V113.267C271.667 103.134 272.067 94.3336 272.6 93.9336C273 93.4003 281.8 93.0003 291.933 93.0003H310.333V96.0669Z" fill="black"/>
<path d="M431.133 44.1991C413.667 51.3991 402.067 66.3324 399.933 84.4658L399 91.6658H422.733H446.467L445.8 115.132L445.133 138.732L453.4 137.932C475.133 135.932 494.2 117.932 497.4 96.4658C498.2 91.6658 497.933 89.7991 496.6 88.8658C495.533 88.1991 485 87.6658 473.133 87.6658H451.4V64.3324V40.9991H445.133C441.533 40.9991 435.4 42.4658 431.133 44.1991ZM447.4 54.0658C447.4 56.9991 447 65.6658 446.467 73.5324L445.667 87.7991L427.8 87.5324C418.067 87.2658 409.4 86.7324 408.6 86.3324C406.733 85.1324 411.667 72.1991 416.867 65.2658C421.133 59.5324 429.133 53.9324 437.8 50.8658C446.2 47.9324 447.4 48.3324 447.4 54.0658ZM477.533 92.9991H489.8L488.867 97.2658C485.267 112.866 471 126.199 454.467 129.666L450.067 130.599V118.066C450.067 111.266 450.467 102.466 451 98.4658L451.8 91.3991L458.6 92.1991C462.333 92.5991 470.867 92.9991 477.533 92.9991Z" fill="black"/>
<path d="M88.8538 244.466V267.799L65.2538 267.533L41.5204 267.133L41.1204 271.133C40.7204 275.133 40.8538 275.266 49.1204 276.733C67.6538 280.199 83.5204 298.199 83.5204 315.933C83.5204 319.133 84.0538 319.666 87.5204 319.666C89.7871 319.666 91.5204 318.999 91.6538 317.933C91.6538 317.133 91.9204 314.466 92.0538 312.333C92.1871 310.066 92.4538 300.333 92.5871 290.599L92.8538 272.999H116.187C136.054 272.999 139.52 272.733 139.52 270.999C139.52 269.399 137.654 268.999 131.254 268.999C126.587 268.999 116.054 268.599 107.654 268.066L92.4538 267.266L93.3871 244.066C94.3204 221.399 94.3204 220.999 91.6538 220.999C88.9871 220.999 88.8538 221.666 88.8538 244.466ZM88.5871 281.133C88.8538 285.933 88.4538 291.133 87.7871 292.866C86.7204 295.666 86.4538 295.533 82.5871 289.133C80.3204 285.533 75.3871 280.333 71.6538 277.666C67.9204 274.999 64.8538 272.466 64.8538 272.199C64.8538 271.799 70.0538 271.799 76.5871 271.933L88.1871 272.333L88.5871 281.133Z" fill="black"/>
<path d="M268.6 221.933C268.2 222.599 267.667 232.999 267.533 245.266L267 267.666H244.067C225.533 267.666 221 268.066 221 269.533C221 271.399 236.467 272.999 255.933 272.999H266.333V296.333C266.333 314.999 266.733 319.666 268.2 319.666C270.2 319.666 271.667 305.533 271.667 285.266V272.999H295C314.2 272.999 318.333 272.733 318.333 271.133C318.333 270.066 318.733 268.333 319.133 267.266C319.667 265.799 318.333 265.133 313.8 264.466C303.933 262.999 292.2 256.199 286.333 248.733C281 242.066 277 231.666 277 224.733C277 221.533 276.467 220.999 273.133 220.999C270.867 220.999 268.867 221.399 268.6 221.933ZM279.8 254.333C282.467 257.799 287.533 262.466 291.133 264.733L297.4 268.999H284.6H271.667L271.8 255.933C271.8 245.399 272.067 243.399 273.4 245.533C274.333 246.866 277.133 250.866 279.8 254.333Z" fill="black"/>
<path d="M450.733 221.8L447 222.333V235.4C447 242.6 446.6 253.133 446.2 258.733L445.267 269L422.2 268.067L399 267.267V271.933C399 276.333 399.133 276.467 405.267 277.4C423.533 279.8 440.333 297.933 440.333 314.867C440.333 319.267 440.6 319.533 445 319.533H449.667V308.467C449.667 302.333 450.067 291.667 450.6 285L451.4 272.6L474.6 273.533L497.667 274.467V269.667C497.667 265.4 497.267 264.867 494.333 264.867C488.6 264.867 476.733 259.533 470.733 254.333C463.133 247.533 457.667 237.4 456.733 228.2C456.333 224.2 455.533 221 455.133 221C454.733 221.133 452.733 221.533 450.733 221.8ZM454.333 247.533C457.533 253.667 464.333 261 470.867 265.133L476.867 268.867H463.933H451V256.2C451 249.267 451.267 243.533 451.667 243.533C451.933 243.533 453.133 245.267 454.333 247.533ZM445.667 284.867C445.667 291.4 445.4 296.867 445.267 296.867C445 296.867 442.733 293.8 440.2 290.067C437.667 286.333 432.467 281 428.467 278.067L421.267 272.867H433.4H445.667V284.867Z" fill="black"/>
<path d="M78.5109 402.617C74.6442 403.683 69.5776 405.55 67.3109 406.75C61.0442 410.083 48.6442 423.017 45.3109 430.083C42.5109 435.683 39.0442 453.283 40.2442 455.283C40.6442 455.817 43.4442 456.617 46.6442 456.883C63.5776 458.883 79.8442 475.417 81.8442 492.75C82.6442 499.15 82.7776 499.283 87.0442 499.283H91.5776V475.683V452.217L114.911 453.017C137.578 453.817 138.244 453.817 138.244 451.283C138.244 448.75 137.178 448.617 114.778 448.617H91.3109L91.8442 424.883L92.2442 401.283L88.9109 401.017C87.0442 400.883 82.3776 401.55 78.5109 402.617ZM87.5776 429.283V448.617L68.6442 447.683C58.1109 447.283 49.4442 446.75 49.3109 446.617C47.9776 445.683 53.7109 431.683 57.3109 427.017C63.9776 418.217 76.6442 410.483 85.3109 410.083C87.3109 409.95 87.5776 411.683 87.5776 429.283ZM87.4442 463.55C87.3109 469.683 86.9109 475.15 86.5109 475.683C86.2442 476.217 84.3776 474.217 82.3776 471.017C78.7776 465.417 72.9109 459.683 66.2442 455.017C63.0442 452.75 63.1776 452.75 75.3109 452.75L87.7109 452.617L87.4442 463.55Z" fill="black"/>
<path d="M264.43 401.932C263.896 402.332 263.496 412.866 263.496 425.266V447.799L240.03 446.866C217.496 445.932 216.563 446.066 217.096 448.466C217.496 450.866 219.23 450.999 240.163 451.666L262.83 452.332L262.296 475.532L261.763 498.732L269.363 497.932C279.363 496.999 292.43 490.732 299.496 483.666C306.963 476.199 312.696 463.666 313.763 452.732L314.563 444.066L308.296 443.266C290.83 440.866 275.363 424.999 273.23 407.532C272.563 401.532 272.163 400.999 268.83 400.999C266.83 400.999 264.83 401.399 264.43 401.932ZM272.163 428.599C274.963 433.932 278.03 437.266 285.363 442.732L291.763 447.666H279.63H267.496V436.332C267.496 424.466 268.696 422.466 272.163 428.599ZM303.896 452.466C305.496 452.999 305.63 454.066 304.563 458.066C302.163 466.599 298.563 472.466 291.496 478.732C285.763 483.932 273.23 490.332 268.83 490.332C268.03 490.332 267.496 482.466 267.496 470.999V451.666H284.696C294.163 451.666 302.83 452.066 303.896 452.466Z" fill="black"/>
<path d="M442.909 462.909V462.636C442.939 459.742 443.242 457.439 443.818 455.727C444.394 454.015 445.212 452.629 446.273 451.568C447.333 450.508 448.606 449.53 450.091 448.636C450.985 448.091 451.788 447.447 452.5 446.705C453.212 445.947 453.773 445.076 454.182 444.091C454.606 443.106 454.818 442.015 454.818 440.818C454.818 439.333 454.47 438.045 453.773 436.955C453.076 435.864 452.144 435.023 450.977 434.432C449.811 433.841 448.515 433.545 447.091 433.545C445.848 433.545 444.652 433.803 443.5 434.318C442.348 434.833 441.386 435.644 440.614 436.75C439.841 437.856 439.394 439.303 439.273 441.091H433.545C433.667 438.515 434.333 436.311 435.545 434.477C436.773 432.644 438.386 431.242 440.386 430.273C442.402 429.303 444.636 428.818 447.091 428.818C449.758 428.818 452.076 429.348 454.045 430.409C456.03 431.47 457.561 432.924 458.636 434.773C459.727 436.621 460.273 438.727 460.273 441.091C460.273 442.758 460.015 444.265 459.5 445.614C459 446.962 458.273 448.167 457.318 449.227C456.379 450.288 455.242 451.227 453.909 452.045C452.576 452.879 451.508 453.758 450.705 454.682C449.902 455.591 449.318 456.674 448.955 457.932C448.591 459.189 448.394 460.758 448.364 462.636V462.909H442.909ZM445.818 476.364C444.697 476.364 443.735 475.962 442.932 475.159C442.129 474.356 441.727 473.394 441.727 472.273C441.727 471.152 442.129 470.189 442.932 469.386C443.735 468.583 444.697 468.182 445.818 468.182C446.939 468.182 447.902 468.583 448.705 469.386C449.508 470.189 449.909 471.152 449.909 472.273C449.909 473.015 449.72 473.697 449.341 474.318C448.977 474.939 448.485 475.439 447.864 475.818C447.258 476.182 446.576 476.364 445.818 476.364Z" fill="black"/>
</svg>
