<svg width="180" height="180" viewBox="0 0 180 180" fill="none" xmlns="http://www.w3.org/2000/svg">
<rect x="0.1" y="0.1" width="179.8" height="179.8" fill="white" stroke="#CBCBCB" stroke-width="0.2"/>
<path d="M81.9333 45.3331C81.9333 61.0664 64.3333 78.7997 45.9333 81.1997L39 82.1331L39.5333 91.5997C40.7333 109.066 50.6 124.666 65.6667 132.266C71.9333 135.466 84.8667 139.066 90.0667 139.066C93.2667 139.066 93.6667 138.4 94.3333 133.066C96.8667 115.333 114.867 97.7331 130.733 97.7331C133.667 97.7331 136.467 97.4664 136.733 97.0664C137.133 96.7997 137 91.8664 136.467 85.9997C134.333 61.1997 116.067 42.9331 91.2667 40.7997L81.9333 39.9997V45.3331ZM102.467 51.9997C111.933 55.3331 122.067 65.5997 125.667 75.4664C130.333 87.7331 131.267 87.0664 109.133 87.0664C91.9333 87.0664 89.8 86.7997 90.4667 84.9331C90.8667 83.7331 91.2667 75.3331 91.2667 66.2664C91.2667 47.4664 90.8667 47.8664 102.467 51.9997ZM85.5333 86.6664C85.1333 86.9331 79.2667 86.9331 72.4667 86.7997L59.9333 86.3997L65.1333 83.8664C71 80.9331 79.4 72.9331 82.8667 66.9331L85.2667 62.9331L85.6667 74.5331C85.9333 80.7997 85.8 86.2664 85.5333 86.6664ZM85.1333 102.4C84.8667 124.4 84.6 129.733 83.2667 129.733C79.2667 129.733 66.7333 123.6 61.5333 118.933C55.4 113.6 49.5333 103.466 47.9333 95.3331L47 90.9331L66.2 91.3331L85.2667 91.7331L85.1333 102.4ZM111.8 92.3997H115.933L111.133 95.4664C103.267 100.266 98.3333 105.066 93.9333 111.866L89.9333 118.266V105.6C89.9333 98.5331 90.3333 92.3997 91 91.8664C91.5333 91.1997 95.5333 91.1997 99.8 91.5997C104.067 91.9997 109.533 92.3997 111.8 92.3997Z" fill="black"/>
</svg>
