<svg width="180" height="180" viewBox="0 0 180 180" fill="none" xmlns="http://www.w3.org/2000/svg">
<rect x="0.1" y="0.1" width="179.8" height="179.8" fill="white" stroke="#CBCBCB" stroke-width="0.2"/>
<path d="M87.5704 66.5997V90.0664L64.237 89.2664C42.1037 88.4664 40.9037 88.5997 40.9037 90.9997C40.9037 92.333 40.5037 94.333 40.1037 95.3997C39.5704 96.8664 41.037 97.533 45.837 98.333C54.5037 99.533 66.7704 106.333 72.3704 112.866C77.3037 118.6 82.237 130.2 82.237 136.2C82.237 139.4 82.9037 140.066 86.237 140.6C89.9704 141.133 90.237 140.866 90.3704 137.133C90.5037 134.866 90.637 132.333 90.9037 131.666C91.037 130.866 91.3037 122.066 91.3037 111.8L91.5704 93.3997L115.304 93.7997L138.904 94.333L139.304 90.1997C139.704 86.1997 139.437 85.933 133.97 85.133C115.437 82.333 100.637 67.533 97.5704 48.5997C96.7704 43.2664 96.5037 42.9997 92.1037 42.9997H87.5704V66.5997ZM100.237 75.133C102.504 78.1997 107.17 82.733 110.904 85.133L117.57 89.6664H104.504H91.5704V76.5997C91.7037 62.0664 91.037 62.1997 100.237 75.133ZM87.5704 104.733C87.5704 110.866 87.1704 116.333 86.637 116.733C86.237 117.266 83.837 114.6 81.3037 111C77.3037 105.133 72.9037 101.133 64.1037 95.3997C61.9704 94.0664 63.9704 93.7997 74.637 93.7997L87.5704 93.6664V104.733Z" fill="black"/>
</svg>
