<svg width="180" height="180" viewBox="0 0 180 180" fill="none" xmlns="http://www.w3.org/2000/svg">
<rect x="0.1" y="0.1" width="179.8" height="179.8" fill="white" stroke="#CBCBCB" stroke-width="0.2"/>
<path d="M73.1478 40.8702C55.8144 48.2035 45.1478 60.3369 40.6144 77.9369C33.0144 107.67 53.0144 137.004 84.4811 141.937C117.681 147.137 148.214 116.47 143.148 83.1369C141.148 70.7369 136.481 61.1369 128.348 52.8702C117.948 42.4702 109.014 38.6035 93.4144 38.0702C82.4811 37.8035 79.6811 38.2035 73.1478 40.8702ZM85.4144 48.7369C85.4144 52.6035 78.7478 64.4702 73.5478 69.6702C67.8144 75.5369 56.2144 81.8035 51.0144 81.8035C48.3478 81.8035 48.0811 81.2702 48.8811 78.7369C51.1478 71.1369 56.4811 63.0035 62.7478 57.4035C71.2811 49.6702 85.4144 44.3369 85.4144 48.7369ZM109.281 49.8035C121.548 55.4035 132.081 67.9369 134.081 79.4035L135.014 84.4702L129.681 82.6035C121.014 79.5369 117.014 77.0035 111.148 70.8702C105.281 64.8702 100.214 55.2702 100.081 50.0702C100.081 46.4702 101.681 46.4702 109.281 49.8035ZM88.3478 87.4035C87.8144 87.9369 82.3478 88.0702 76.2144 87.5369L65.2811 86.4702L72.3478 81.6702C76.2144 79.1369 81.5478 73.9369 84.0811 70.2035L88.7478 63.5369L89.1478 74.8702C89.4144 81.1369 89.0144 86.7369 88.3478 87.4035ZM97.2811 66.6035C99.9478 72.4702 106.614 79.8035 112.748 83.8035C116.081 85.8035 118.748 87.6702 118.748 87.9369C118.748 88.2035 113.014 88.4702 106.081 88.4702H93.4144V75.8035C93.4144 62.8702 94.4811 60.4702 97.2811 66.6035ZM88.8811 97.4035C88.4811 100.204 88.0811 105.804 88.0811 109.67V117.004L84.3478 111.004C80.6144 105.27 74.8811 99.5369 68.0811 94.8702C64.8811 92.6035 65.0144 92.6035 77.2811 92.6035L89.8144 92.4702L88.8811 97.4035ZM114.748 94.8702C108.081 99.4035 100.881 106.604 97.1478 112.337L93.4144 118.337V105.404V92.4702L105.814 92.6035C117.814 92.6035 117.948 92.6035 114.748 94.8702ZM60.7478 100.87C68.6144 104.737 78.2144 115.404 81.4144 123.937C82.8811 128.07 83.8144 131.804 83.4144 132.47C82.4811 134.07 75.6811 131.937 69.0144 127.937C58.8811 121.937 50.6144 111.004 48.6144 100.737C47.6811 96.4702 47.8144 96.3369 51.5478 97.2702C53.6811 97.8035 57.8144 99.4035 60.7478 100.87ZM134.748 98.4702C134.748 98.7369 133.548 102.337 132.081 106.204C127.414 118.47 114.481 129.804 101.014 133.137C96.2144 134.337 96.3478 132.47 101.414 122.07C106.214 112.737 113.548 105.537 123.281 101.004C129.548 98.0702 134.748 96.8702 134.748 98.4702Z" fill="black"/>
</svg>
