<svg width="180" height="180" viewBox="0 0 180 180" fill="none" xmlns="http://www.w3.org/2000/svg">
<rect x="0.1" y="0.1" width="179.8" height="179.8" fill="white" stroke="#CBCBCB" stroke-width="0.2"/>
<path d="M79.9762 42.9336C79.8429 43.6003 79.7095 44.9336 79.5762 46.0003C79.3095 47.0669 79.1762 57.2003 79.0429 68.5336L78.7762 89.0669L55.1762 88.5336C33.5762 88.0003 31.4429 88.2669 31.0429 90.2669C30.6429 92.4003 32.6429 92.6669 54.3762 92.9336L78.1095 93.3336L77.5762 117.067L77.0429 140.934L83.5762 139.867C109.176 136.267 126.776 118.4 130.243 92.9336L131.043 86.1336L122.776 84.5336C112.51 82.5336 101.443 75.4669 95.9762 67.3336C91.9762 61.3336 88.1095 50.5336 88.1095 45.0669C88.1095 42.5336 87.4429 42.0003 84.1095 42.0003C81.9762 42.0003 80.1095 42.4003 79.9762 42.9336ZM92.2429 76.2669C94.6429 79.2003 98.9095 83.2003 101.576 84.9336C104.376 86.5336 106.776 88.4003 106.776 88.8003C106.776 89.4669 84.2429 88.8003 83.1762 88.1336C83.0429 88.0003 83.3095 82.9336 83.7095 76.8003C84.3762 67.0669 84.7762 66.0003 86.2429 68.1336C87.1762 69.4669 89.8429 73.2003 92.2429 76.2669ZM109.043 94.0003H121.443L120.643 97.6003C119.176 104 114.51 113.067 109.976 118C105.31 123.067 94.3762 129.2 87.1762 130.667L82.7762 131.6V112.934C82.7762 102.8 83.1762 94.0003 83.8429 93.4669C84.3762 92.9336 87.4429 92.8003 90.6429 93.2003C93.8429 93.6003 102.11 94.0003 109.043 94.0003Z" fill="black"/>
</svg>
