<svg width="180" height="180" viewBox="0 0 180 180" fill="none" xmlns="http://www.w3.org/2000/svg">
<rect x="0.1" y="0.1" width="179.8" height="179.8" fill="white" stroke="#CBCBCB" stroke-width="0.2"/>
<path d="M76.7333 42.7488C57.6667 48.7488 43.4 66.0822 41.8 85.6822L41 94.7488L48.0667 96.3488C57.9333 98.6155 63.2667 101.415 69.8 107.815C76.7333 114.749 81 123.149 82.2 132.482L83.1333 139.549L90.8667 138.749C102.6 137.682 108.2 135.815 116.867 130.215C129.8 121.815 137.133 109.949 138.867 94.6155C139.933 84.4822 139.4 83.2822 133.267 83.2822C128.067 83.2822 114.067 75.8155 109.533 70.4822C103.667 63.9488 100.2 56.4822 99 48.3488L98.0667 41.2822L90.7333 41.0155C86.7333 40.8822 80.4667 41.6822 76.7333 42.7488ZM88.8667 54.7488C88.4667 58.2155 88.0667 66.8822 88.0667 74.0822V87.2822H68.7333H49.4L50.2 83.5488C54.4667 65.0155 70.2 50.8822 88.6 48.7488C89.2667 48.6155 89.4 51.4155 88.8667 54.7488ZM105.667 78.7488C108.067 80.8822 111.933 83.9488 114.067 85.6822L118.067 88.7488L105.667 88.2155C98.8667 87.8155 93 87.2822 92.6 86.8822C92.0667 86.4822 92.2 80.6155 92.7333 73.9488L93.6667 61.6822L97.4 68.2155C99.5333 71.8155 103.133 76.6155 105.667 78.7488ZM88.0667 96.4822C88.0667 98.4822 87.6667 103.815 87.2667 108.349L86.3333 116.482L81.2667 108.482C78.4667 104.215 75.6667 100.615 75.1333 100.615C74.4667 100.482 71.9333 98.7488 69.4 96.6155L64.8667 92.6155H76.4667H88.0667V96.4822ZM130.733 94.6155C130.733 99.6822 124.733 111.682 119.667 117.015C113 123.815 101.4 129.949 95 129.949C90.8667 129.949 90.4667 129.682 91.2667 126.882C91.6667 125.282 92.0667 116.882 92.0667 108.215V92.6155H111.4C127.533 92.6155 130.733 92.8822 130.733 94.6155Z" fill="black"/>
</svg>
