<svg width="180" height="180" viewBox="0 0 180 180" fill="none" xmlns="http://www.w3.org/2000/svg">
<rect x="0.1" y="0.1" width="179.8" height="179.8" fill="white" stroke="#CBCBCB" stroke-width="0.2"/>
<path d="M72.5167 45.1991C55.45 52.2658 43.9833 66.5324 41.45 83.8658C40.65 88.6658 40.9167 90.5324 42.25 91.4658C43.3167 92.1324 53.85 92.6658 65.85 92.6658H87.45V116.132V139.732L95.1833 138.932C116.65 137.066 136.517 117.999 139.05 96.9324L139.717 90.3991L131.45 89.5991C126.783 89.0658 116.25 88.6658 107.85 88.6658H92.5167L93.05 65.3324L93.45 41.9991H86.7833C82.9167 41.9991 76.9167 43.3324 72.5167 45.1991ZM83.45 52.9324C83.45 55.7324 75.9833 67.7324 71.9833 71.5991C67.1833 75.9991 52.5167 83.4658 51.05 82.1324C49.5833 80.6658 53.1833 72.9324 58.5167 65.9991C65.1833 57.1991 83.45 47.7324 83.45 52.9324ZM88.25 72.1324C87.85 75.5991 87.45 80.6658 87.45 83.4658V88.6658H76.1167C69.85 88.6658 64.7833 88.2658 64.7833 87.5991C64.7833 87.0658 66.9167 85.4658 69.5833 83.9991C74.3833 81.4658 86.1167 69.4658 86.1167 67.1991C86.1167 66.5324 86.7833 65.9991 87.5833 65.9991C88.65 65.9991 88.9167 67.9991 88.25 72.1324ZM110.783 93.7324L116.117 94.6658L111.85 96.5324C107.717 98.1324 98.9167 106.666 93.7167 113.999C91.3167 117.332 91.3167 117.332 92.1167 108.799C92.5167 104.132 92.7833 98.5324 92.7833 96.5324C92.7833 92.7991 93.05 92.6658 99.1833 92.7991C102.65 92.7991 107.85 93.1991 110.783 93.7324ZM127.583 106.399C123.317 115.332 117.583 121.199 109.05 125.732C100.917 130.132 96.7833 131.066 96.7833 128.666C96.7833 125.199 103.717 113.999 108.65 109.599C116.383 102.666 128.783 96.7991 129.85 99.5991C130.117 100.132 129.05 103.199 127.583 106.399Z" fill="black"/>
</svg>
