<svg width="540" height="540" viewBox="0 0 540 540" fill="none" xmlns="http://www.w3.org/2000/svg">
<rect x="0.1" y="0.1" width="179.8" height="179.8" fill="white" stroke="#CBCBCB" stroke-width="0.2"/>
<rect x="180.1" y="0.1" width="179.8" height="179.8" fill="white" stroke="#CBCBCB" stroke-width="0.2"/>
<rect x="360.1" y="0.1" width="179.8" height="179.8" fill="white" stroke="#CBCBCB" stroke-width="0.2"/>
<rect x="0.1" y="180.1" width="179.8" height="179.8" fill="white" stroke="#CBCBCB" stroke-width="0.2"/>
<rect x="180.1" y="180.1" width="179.8" height="179.8" fill="white" stroke="#CBCBCB" stroke-width="0.2"/>
<rect x="360.1" y="180.1" width="179.8" height="179.8" fill="white" stroke="#CBCBCB" stroke-width="0.2"/>
<rect x="0.1" y="360.1" width="179.8" height="179.8" fill="white" stroke="#CBCBCB" stroke-width="0.2"/>
<rect x="180.1" y="360.1" width="179.8" height="179.8" fill="white" stroke="#CBCBCB" stroke-width="0.2"/>
<rect x="360.1" y="360.1" width="179.8" height="179.8" fill="white" stroke="#CBCBCB" stroke-width="0.2"/>
<path d="M444.909 459.909V459.636C444.939 456.742 445.242 454.439 445.818 452.727C446.394 451.015 447.212 449.629 448.273 448.568C449.333 447.508 450.606 446.53 452.091 445.636C452.985 445.091 453.788 444.447 454.5 443.705C455.212 442.947 455.773 442.076 456.182 441.091C456.606 440.106 456.818 439.015 456.818 437.818C456.818 436.333 456.47 435.045 455.773 433.955C455.076 432.864 454.144 432.023 452.977 431.432C451.811 430.841 450.515 430.545 449.091 430.545C447.848 430.545 446.652 430.803 445.5 431.318C444.348 431.833 443.386 432.644 442.614 433.75C441.841 434.856 441.394 436.303 441.273 438.091H435.545C435.667 435.515 436.333 433.311 437.545 431.477C438.773 429.644 440.386 428.242 442.386 427.273C444.402 426.303 446.636 425.818 449.091 425.818C451.758 425.818 454.076 426.348 456.045 427.409C458.03 428.47 459.561 429.924 460.636 431.773C461.727 433.621 462.273 435.727 462.273 438.091C462.273 439.758 462.015 441.265 461.5 442.614C461 443.962 460.273 445.167 459.318 446.227C458.379 447.288 457.242 448.227 455.909 449.045C454.576 449.879 453.508 450.758 452.705 451.682C451.902 452.591 451.318 453.674 450.955 454.932C450.591 456.189 450.394 457.758 450.364 459.636V459.909H444.909ZM447.818 473.364C446.697 473.364 445.735 472.962 444.932 472.159C444.129 471.356 443.727 470.394 443.727 469.273C443.727 468.152 444.129 467.189 444.932 466.386C445.735 465.583 446.697 465.182 447.818 465.182C448.939 465.182 449.902 465.583 450.705 466.386C451.508 467.189 451.909 468.152 451.909 469.273C451.909 470.015 451.72 470.697 451.341 471.318C450.977 471.939 450.485 472.439 449.864 472.818C449.258 473.182 448.576 473.364 447.818 473.364Z" fill="black"/>
<path d="M258.708 50.3235C241.289 66.416 237.622 70.1607 238.029 71.4765C238.233 72.0837 244.447 76.4358 251.883 80.9903C259.319 85.646 265.431 89.7956 265.431 90.3016C265.533 90.7065 259.421 94.7549 251.985 99.3094C244.549 103.763 238.335 107.912 238.131 108.52C237.622 109.936 269.404 140.401 271.033 139.996C272.969 139.591 302 110.746 302 109.228C302 108.52 295.786 104.167 288.248 99.5118C280.71 94.9573 274.7 90.7065 274.802 90.2004C275.006 89.6944 277.96 87.6702 281.423 85.646C297.62 76.2334 302 73.1971 302 71.5777C302 69.5535 273.071 40 271.237 40C270.524 40 264.922 44.6557 258.708 50.3235ZM283.97 57.0034C290.489 63.4808 295.888 69.2498 295.888 69.6547C295.888 70.0595 284.072 70.3632 269.709 70.3632L243.428 70.262L256.671 57.7118C263.903 50.7283 270.32 45.0605 270.931 45.0605C271.543 45.0605 277.349 50.4247 283.97 57.0034ZM290.591 75.9297C288.554 77.3467 286.619 78.46 286.313 78.46C286.007 78.46 282.544 80.4842 278.673 83.0145C274.802 85.5447 271.033 87.569 270.218 87.4677C269.505 87.4677 266.857 86.0508 264.31 84.4314C261.764 82.9133 257.282 80.0794 254.43 78.3588C251.475 76.6382 248.725 74.8164 248.42 74.3104C248.114 73.8043 257.485 73.3995 271.135 73.3995H294.36L290.591 75.9297ZM277.756 97.2852C281.831 99.9166 287.23 103.358 289.674 104.876L294.156 107.811H270.422C253.105 107.811 246.892 107.507 247.707 106.698C248.623 105.787 269.404 92.8319 270.117 92.6295C270.218 92.6295 273.682 94.7549 277.756 97.2852ZM294.87 111.556C294.87 111.961 289.573 117.628 282.951 124.207L271.135 136.049L258.606 124.207C251.679 117.73 245.975 112.062 245.975 111.556C245.975 111.151 256.976 110.847 270.422 110.847C283.868 110.847 294.87 111.151 294.87 111.556Z" fill="black"/>
<path d="M418.12 69.594C416.592 70.51 418.629 72.2402 428.304 78.2452C432.072 80.5861 437.674 84.0465 440.627 85.8785L446.025 89.2372L431.971 97.7866C417.305 106.54 415.675 107.863 417.712 109.186C418.425 109.593 433.091 110 450.302 110C478.717 110 481.67 109.796 481.365 108.372C481.161 107.456 475.051 102.977 467.616 98.3973C460.181 93.919 454.173 89.8479 454.071 89.4408C454.071 89.1354 458.043 86.3874 463.033 83.4359C478.921 73.8687 482.791 71.1207 481.874 70.2047C480.754 69.0851 419.647 68.4744 418.12 69.594ZM473.319 72.7491C471.995 73.9705 450.506 86.591 449.691 86.591C448.877 86.591 434.618 78.1434 427.591 73.3598C426.573 72.6473 433.702 72.342 449.895 72.342C463.033 72.342 473.523 72.5456 473.319 72.7491ZM457.024 95.9546C467.82 102.774 471.486 105.216 471.995 106.132C472.301 106.54 461.913 106.947 448.877 106.947C434.109 106.947 425.554 106.54 426.165 106.031C427.591 104.504 448.367 91.8835 449.386 91.7817C449.895 91.6799 453.358 93.6137 457.024 95.9546Z" fill="black"/>
<path d="M44.2344 73.715C27.5089 81.095 17.7355 85.195 15.3174 85.9125C14.0076 86.22 13 87.1425 13 87.86C13 89.09 31.7406 98.2125 52.6979 107.028L59.6501 110H90.5822H121.514L130.985 106.003C136.225 103.85 143.882 100.57 148.013 98.8275C152.144 96.9825 157.384 94.83 159.6 93.9075C164.436 91.96 166.351 90.525 165.948 89.295C165.746 88.7825 155.973 84.0675 144.084 78.7375L122.522 69L88.6679 69.1025H54.8138L44.2344 73.715ZM112.547 72.485C112.648 72.69 107.711 75.8675 101.464 79.66L90.0785 86.5275L87.0558 84.785C79.1968 80.275 67.4083 72.485 67.4083 71.87C67.4083 71.255 111.842 71.87 112.547 72.485ZM68.3151 77.405C72.8492 80.3775 78.5923 84.17 81.2119 85.7075L85.9474 88.68L83.5293 90.6275C82.1187 91.6525 76.9802 94.9325 72.1439 97.905C67.3076 100.878 62.2698 103.953 61.0607 104.773C59.1463 106.003 58.1388 105.798 53.3025 103.543C50.2798 102.21 41.917 98.4175 34.6626 95.1375C27.5089 91.96 21.1612 88.9875 20.7582 88.475C20.2544 88.065 22.0681 86.835 24.7885 85.9125C29.2217 84.2725 33.655 82.325 50.7836 74.945C54.1085 73.4075 57.5342 72.1775 58.5418 72.1775C59.4486 72.075 63.8819 74.535 68.3151 77.405ZM131.892 77.2C138.24 80.07 146.804 83.8625 150.734 85.5025C154.764 87.245 158.29 88.9875 158.593 89.3975C158.794 89.8075 156.174 91.345 152.749 92.8825C149.323 94.3175 141.061 97.905 134.411 100.673C127.761 103.543 121.716 105.9 120.91 105.9C119.6 105.9 115.57 103.543 99.8518 93.2925L93.6049 89.09L97.8367 86.425C107.106 80.48 120.305 72.075 120.305 72.075C120.406 72.075 125.645 74.4325 131.892 77.2ZM101.665 98.8275C107.812 102.825 112.749 106.31 112.749 106.515C112.749 106.72 102.169 106.925 89.3732 106.925L65.897 106.823L68.8189 104.67C72.8492 101.595 88.8694 91.6525 89.8769 91.55C90.28 91.55 95.62 94.83 101.665 98.8275Z" fill="black"/>
<path d="M252.365 236.717L237 251.432V270.451V289.57L252.568 304.785C261.059 313.193 268.742 320 269.449 320C270.258 320 277.537 313.393 285.725 305.185L300.585 290.471L301.292 271.752L302 253.033L294.519 245.326C274.706 224.905 271.572 221.902 269.753 222.002C268.641 222.002 261.059 228.509 252.365 236.717ZM293.61 250.03L295.53 252.533L282.894 260.24C275.919 264.445 269.753 267.948 269.045 267.948C268.337 267.948 264.9 266.046 261.261 263.644C257.622 261.342 252.062 257.838 248.928 255.936C245.694 254.034 243.065 252.232 243.065 251.832C243.065 251.432 249.131 245.426 256.409 238.519L269.854 225.906L280.771 236.617C286.837 242.623 292.599 248.529 293.61 250.03ZM257.218 265.446C266.012 270.951 266.114 271.051 264.799 271.652C264.193 271.852 258.532 275.155 252.264 278.959C245.997 282.863 240.639 285.966 240.437 285.966C240.235 285.966 240.033 278.959 240.033 270.451V255.035L244.885 257.838C247.513 259.34 253.073 262.743 257.218 265.446ZM298.664 270.951C298.664 280.961 298.26 285.966 297.552 285.966C296.946 285.966 294.621 284.665 292.295 283.163C289.97 281.562 284.714 278.359 280.771 275.956C276.728 273.654 273.392 271.352 273.392 270.851C273.392 270.351 275.919 268.549 279.053 266.747C282.187 264.945 285.927 262.643 287.342 261.742C291.689 259.039 297.047 256.036 297.956 255.936C298.361 255.936 298.664 262.643 298.664 270.951ZM275.919 277.358C277.638 278.158 281.984 280.761 285.725 283.163C289.465 285.466 293.306 287.968 294.317 288.669C295.935 289.67 294.823 291.171 282.995 302.883L269.753 316.096L256.409 303.383C249.03 296.477 243.065 290.37 243.065 289.87C243.065 289.369 246.502 286.767 250.748 284.164C254.893 281.562 260.756 277.958 263.586 276.256C268.337 273.253 268.944 273.053 270.764 274.455C271.977 275.255 274.302 276.557 275.919 277.358Z" fill="black"/>
<path d="M52.4884 251.665C49.1734 253.1 44.452 255.15 41.9407 256.175C23.7585 263.863 16.3249 267.45 16.0235 268.783C15.8226 269.705 16.9276 270.73 18.6353 271.345C20.2426 271.858 30.288 276.368 41.137 281.185C51.8856 286.003 61.1274 290 61.7301 290C62.2324 290 69.2642 285.9 77.2001 280.878L91.6655 271.755L95.6836 274.01C97.8936 275.343 104.423 279.443 110.249 283.133C116.076 286.925 121.802 290 123.007 290C124.213 290 131.646 287.13 139.582 283.645C147.417 280.263 156.86 276.163 160.477 274.625C169.919 270.628 169.417 269.193 156.961 263.658C130.541 251.768 123.911 249 122.404 249C121.5 249 114.368 253.1 106.533 258.123L92.3686 267.245L78.0037 258.123C69.5655 252.793 62.5338 249 61.0269 249C59.6206 249 55.8033 250.23 52.4884 251.665ZM60.0224 268.988C60.0224 281.698 59.721 284.875 58.6161 284.875C57.9129 284.875 53.292 282.928 48.3697 280.673C43.4475 278.315 35.813 274.933 31.393 273.088C27.0735 271.243 23.2562 269.295 23.1558 268.783C22.9548 268.373 26.1694 266.63 30.0871 265.093C34.1052 263.453 41.9407 260.173 47.4656 257.713C52.9906 255.253 58.1138 253.305 58.817 253.203C59.721 253.1 60.0224 256.893 60.0224 268.988ZM80.0128 263.76C84.5332 266.528 88.1496 269.09 88.1496 269.5C88.1496 269.91 87.4464 270.525 86.6427 270.935C85.8391 271.243 80.4146 274.523 74.6887 278.213C68.9628 281.903 63.8397 284.875 63.3374 284.875C62.9356 284.875 62.6342 277.803 62.8351 269.09L63.1365 253.203L67.5565 255.97C69.9674 257.508 75.5928 260.993 80.0128 263.76ZM141.892 260.685C160.778 269.295 161.682 269.705 160.778 270.525C160.075 271.038 131.244 283.44 126.121 285.49C124.413 286.105 124.313 284.875 124.313 269.5C124.313 256.585 124.614 252.998 125.619 253.408C126.222 253.715 133.655 256.995 141.892 260.685ZM121.299 269.603C121.299 283.543 121.098 285.08 119.692 284.465C116.277 283.133 96.1859 270.013 96.4872 269.295C96.6882 268.475 119.29 254.33 120.596 254.228C120.998 254.125 121.299 261.095 121.299 269.603Z" fill="black"/>
<path d="M417.743 250.7C416.525 251.8 416.931 288.8 418.048 289.5C418.657 289.9 425.763 286.2 433.985 281.4C442.106 276.6 449.212 272.7 449.922 272.7C450.531 272.7 453.577 274.3 456.622 276.2C471.138 285.4 479.158 290 480.477 290C481.797 290 482 286.9 482 270C482 254.7 481.695 250 480.782 250C480.071 250 473.067 253.8 465.251 258.5C457.434 263.2 450.43 267 449.719 267C448.603 267 438.452 261.1 426.473 253.4C421.296 250.1 419.063 249.3 417.743 250.7ZM437.639 264.5C441.903 267.1 445.456 269.7 445.456 270.1C445.456 270.6 443.527 271.9 441.192 273.1C438.756 274.3 433.274 277.5 429.011 280.1C424.646 282.8 420.89 285 420.585 285C420.281 285 420.078 278 420.078 269.5V254.1L424.95 256.9C427.59 258.4 433.274 261.8 437.639 264.5ZM478.549 284.7C477.737 285.5 455.099 271 455.099 269.8C455.099 269.2 460.378 265.6 466.773 261.8L478.447 255L478.752 269.6C478.853 277.7 478.752 284.5 478.549 284.7Z" fill="black"/>
<path d="M256.331 415.27C247.937 423.164 241.041 430.147 241.041 430.856C241.041 431.564 247.137 436.017 254.532 440.673C261.927 445.227 268.023 449.376 268.023 449.68C268.023 450.085 262.227 453.829 255.232 457.979C248.137 462.229 241.841 466.277 241.241 467.087C240.242 468.2 242.141 470.528 250.835 479.131C269.822 497.854 271.321 499.27 272.62 498.967C274.619 498.461 301.901 471.844 302.6 469.617C303.2 467.492 302.001 466.277 294.306 461.723C283.013 455.044 276.018 450.388 276.018 449.68C276.018 449.174 276.718 448.465 277.617 448.162C282.014 446.441 302.9 432.677 303 431.463C303 429.54 275.019 401 273.12 401C272.221 401.101 264.626 407.477 256.331 415.27ZM286.811 418.711C293.007 425.188 297.803 430.856 297.604 431.26C297.304 431.665 291.508 435.511 284.612 439.863L272.221 447.656L259.129 439.357L246.038 431.159L248.337 428.427C249.536 427.01 255.432 421.14 261.528 415.472C269.622 407.983 272.92 405.453 274.019 406.06C274.819 406.566 280.615 412.234 286.811 418.711ZM279.915 456.967C283.513 459.396 289.109 462.938 292.207 464.861C295.405 466.784 298.003 468.504 298.003 468.808C298.003 469.111 292.207 475.184 285.212 482.268L272.42 495.222L259.229 482.369C251.934 475.285 246.138 469.111 246.238 468.605C246.738 467.29 270.222 452.716 271.921 452.615C272.72 452.615 276.318 454.538 279.915 456.967Z" fill="black"/>
<path d="M35.5406 438.9C14.4829 447.7 10.9565 450 16.095 451.5C18.1101 452.1 22.644 454.1 31.5104 458.1C37.5557 460.8 55.0869 468.3 57.5051 469.2C59.7216 470 60.8299 469.8 63.5503 468.2C65.2631 467.1 72.1144 463 78.6635 459.1L90.5525 451.9L96.5977 455.7C113.625 466.3 119.872 470 121.081 470C122.592 470 135.388 464.9 154.229 456.8C167.227 451.2 168.738 449.4 162.29 447.1C160.174 446.3 156.244 444.7 153.423 443.4C140.728 437.7 122.29 430 121.182 430C120.477 430 113.524 433.8 105.766 438.5C97.9076 443.2 91.0563 447 90.351 447C89.6457 447 84.5072 444.1 78.9657 440.7C63.1473 430.8 61.636 430 59.1171 430.1C57.8073 430.1 47.2281 434.1 35.5406 438.9ZM72.9205 441.1C80.3763 445.6 86.4216 449.6 86.4216 449.9C86.4216 450.2 84.0035 451.8 81.0816 453.4C78.2605 455 74.0288 457.5 71.8122 459C69.5956 460.5 65.8677 462.7 63.5503 464L59.3186 466.3L40.0746 458C29.5961 453.5 20.9312 449.4 20.9312 449.1C20.9312 448.7 26.0697 446.4 32.3165 444C38.4625 441.6 47.0266 438.1 51.1575 436.3C55.2885 434.5 58.9156 433 59.1171 433C59.3186 433 65.5654 436.7 72.9205 441.1ZM142.844 442.5C151.408 446.1 158.864 449.5 159.267 449.9C159.67 450.3 155.64 452.5 150.199 454.8C144.758 457 136.496 460.5 131.761 462.4C127.126 464.4 122.492 466 121.585 466C119.57 466 94.3811 450.8 94.7842 449.8C94.8849 449.4 100.93 445.5 108.084 441.2C120.577 433.6 121.283 433.4 124.204 434.6C125.917 435.3 134.28 438.8 142.844 442.5Z" fill="black"/>
</svg>
