<svg width="180" height="180" viewBox="0 0 180 180" fill="none" xmlns="http://www.w3.org/2000/svg">
<rect x="0.1" y="0.1" width="179.8" height="179.8" fill="white" stroke="#CBCBCB" stroke-width="0.2"/>
<path d="M49.7333 66.8004C49.7333 69.6004 49.3333 82.1337 48.8 94.6671L48 117.734L74.5333 117.867C89.0667 117.867 108.533 118 117.733 118.134L134.4 118.4L134.8 90.6671L135.067 63.0671L102.8 62.9337C84.9333 62.8004 65.7333 62.5337 60.1333 62.4004L49.7333 62.0004V66.8004ZM81.3333 72.4004C87.0667 76.0004 92.2667 79.0671 92.9333 79.0671C93.6 79.0671 98.9333 76.0004 104.667 72.4004C115.067 65.7337 118.133 64.8004 121.467 66.8004C122.533 67.6004 119.6 70.1337 112.133 74.9337C106 78.8004 99.4667 83.2004 97.4667 84.5337C95.4667 85.8671 93.2 87.0671 92.5333 87.0671C91.2 87.0671 83.6 82.4004 77.7333 78.0004C75.8667 76.6671 71.6 73.8671 68.1333 71.8671C59.7333 66.9337 59.2 65.7337 65.6 65.7337C69.7333 65.7337 73.3333 67.2004 81.3333 72.4004ZM102.267 66.9337C102.8 67.6004 100.933 69.4671 98.4 71.0671C94.2667 73.6004 93.0667 73.7337 89.7333 72.4004C87.6 71.6004 84.9333 69.7337 83.6 68.2671C81.3333 65.7337 81.6 65.7337 91.4667 65.7337C97.0667 65.7337 101.867 66.2671 102.267 66.9337ZM70.8 79.0671C79.8667 84.9337 86.9333 90.2671 86.5333 90.9337C86.1333 91.6004 80 95.6004 73.0667 99.8671C66 104.267 58.5333 108.8 56.2667 110.267L52.1333 112.8L52.6667 109.067C52.9333 106 54.9333 104.134 63.0667 99.0671C68.5333 95.6004 73.2 91.8671 73.4667 90.6671C73.7333 89.3337 70.2667 86.1337 63.2 81.6004C54.8 76.1337 52.4 73.8671 52.4 71.4671C52.4 69.7337 52.9333 68.4004 53.4667 68.4004C54 68.4004 61.8667 73.2004 70.8 79.0671ZM131.067 72.2671C131.067 75.0671 128.533 77.3337 117.2 84.4004C113.067 86.9337 109.867 89.6004 110.133 90.4004C110.4 91.0671 114.8 94.5337 119.867 98.0004C129.867 104.8 131.867 106.934 130.667 110.134C130 111.867 126.8 110.267 113.733 101.6C104.933 95.7337 98 90.4004 98.4 89.7337C98.8 89.0671 102.8 86.2671 107.467 83.4671C112 80.8004 118.667 76.5337 122.4 74.1337C130.133 69.0671 131.067 68.8004 131.067 72.2671ZM61.2 85.8671C64.4 88.0004 66.8 90.4004 66.4 91.0671C65.7333 92.2671 54.4 99.0671 53.2 99.0671C52.8 99.0671 52.4 95.2004 52.4 90.4004C52.4 85.2004 52.9333 81.7337 53.8667 81.7337C54.6667 81.7337 57.8667 83.6004 61.2 85.8671ZM131.067 90.4004C131.067 95.2004 130.667 99.0671 130.267 99.0671C128.933 99.0671 117.733 90.9337 117.733 90.0004C117.733 88.9337 128.533 81.7337 130.133 81.7337C130.667 81.7337 131.067 85.6004 131.067 90.4004ZM109.867 104.534C123.467 113.467 124.533 114.4 121.067 114.8C117.2 115.334 110 112 102.4 106.267C93.4667 99.6004 92 99.6004 79.8667 107.734C72.2667 112.8 67.7333 115.067 64.6667 115.067C59.0667 115.067 59.2 113.067 65.4667 109.734C72.1333 106.134 87.4667 96.5337 89.0667 94.9337C91.2 92.8004 93.7333 94.0004 109.867 104.534ZM98.5333 109.2C101.733 111.067 104.4 113.2 104.4 113.867C104.4 114.534 98.9333 115.067 92.2667 115.067C85.3333 115.067 80.4 114.534 80.6667 113.867C81.0667 112.4 89.8667 106 91.4667 105.867C92.1333 105.734 95.2 107.334 98.5333 109.2Z" fill="black"/>
</svg>
