<svg width="180" height="180" viewBox="0 0 180 180" fill="none" xmlns="http://www.w3.org/2000/svg">
<rect x="0.1" y="0.1" width="179.8" height="179.8" fill="white" stroke="#CBCBCB" stroke-width="0.2"/>
<path d="M47.9333 75.1327C47.4 81.9327 47 93.7993 47 101.666V115.933L72.0667 116.733C85.8 117.266 104.867 117.666 114.6 117.666H132.2L133 110.599C133.4 106.866 133.667 94.5993 133.4 83.666L133 63.666L90.8667 63.266L48.7333 62.9993L47.9333 75.1327ZM123 67.5327C123 67.9327 115.667 72.466 106.733 77.7993C92.0667 86.466 90.3333 87.1327 87.8 85.5327C86.2 84.5993 79.1333 80.3327 72.0667 75.9327C64.8667 71.666 59 67.9327 59 67.5327C59 67.266 73.4 66.9993 91 66.9993C108.6 66.9993 123 67.266 123 67.5327ZM70.6 80.466C78.8667 85.666 85.6667 90.066 85.6667 90.3327C85.6667 91.1327 53.8 109.666 52.4667 109.666C51.5333 109.666 51 102.999 51 89.5327C51 71.3993 51.2667 69.3993 53.2667 70.1993C54.4667 70.7327 62.2 75.266 70.6 80.466ZM129.667 90.9993C129.667 101.933 129.267 110.999 128.733 110.999C126.867 110.999 97.2667 91.666 96.8667 90.3327C96.4667 88.9993 125 71.3993 128.067 71.1327C129.267 70.9993 129.667 75.7993 129.667 90.9993ZM106.6 103.133C114.867 108.333 121.667 112.866 121.667 113.133C121.667 113.399 107.533 113.666 90.3333 113.666C73.1333 113.666 59 113.266 59 112.599C59.1333 111.533 88.2 93.9327 90.2 93.7993C90.8667 93.666 98.2 97.9327 106.6 103.133Z" fill="black"/>
</svg>
