<svg width="180" height="180" viewBox="0 0 180 180" fill="none" xmlns="http://www.w3.org/2000/svg">
<rect x="0.1" y="0.1" width="179.8" height="179.8" fill="white" stroke="#CBCBCB" stroke-width="0.2"/>
<path d="M82.8667 34.6024C73.6667 41.4024 54.4667 55.4024 22.0667 78.8691C15.9333 83.2691 11 87.4024 11 88.0691C11 88.7358 23.1333 99.4024 37.9333 111.802C86.4667 152.202 88.4667 153.802 90.0667 152.469C91 151.802 109.267 138.469 130.733 123.002C155.133 105.136 169.667 93.8024 169.667 92.4691C169.667 91.2691 166.867 87.9358 163.267 85.1358C159.8 82.3358 154.6 77.8024 151.667 75.1358C148.733 72.4691 142.467 66.8691 137.667 62.8691C127.667 54.3358 125.4 52.3358 108.6 37.6691C101.8 31.8024 95.4 26.8691 94.6 27.0024C93.6667 27.0024 88.4667 30.4691 82.8667 34.6024ZM102.867 39.1358C111.267 46.8691 125.533 59.1358 128.6 61.4024C130.067 62.3358 130.733 63.6691 130.067 64.2024C127.8 66.3358 93 87.2691 91.6667 87.2691C91 87.2691 84.7333 83.6691 78.0667 79.4024C71.2667 75.1358 62.6 69.6691 58.8667 67.4024L52.2 63.2691L66.4667 52.7358C87.5333 37.2691 92.7333 33.6691 94.8667 33.6691C95.9333 33.5358 99.5333 36.0691 102.867 39.1358ZM48.0667 101.536L47.6667 113.669L33.4 101.936C25.5333 95.5358 19.1333 89.5358 19.1333 88.6024C19 87.2691 23 84.0691 35.8 74.8691C37.2667 73.8024 40.6 71.5358 43.1333 69.9358L47.6667 66.8691L48.0667 78.2024C48.2 84.3358 48.2 94.8691 48.0667 101.536ZM149.133 79.1358C156.333 85.2691 162.333 90.8691 162.6 91.6691C163.133 93.1358 136.6 113.536 134.467 113.536C134.067 113.536 133.8 103.269 133.933 90.8691C134.2 78.3358 134.733 68.2024 135.267 68.2024C135.8 68.2024 142.067 73.1358 149.133 79.1358ZM69.8 79.8024C78.6 85.4024 85.6667 90.3358 85.6667 90.7358C85.6667 91.5358 54.4667 110.869 53.1333 110.869C52.7333 110.869 52.3333 101.536 52.3333 90.2024C52.3333 78.8691 52.7333 69.5358 53.1333 69.5358C53.6667 69.5358 61.1333 74.2024 69.8 79.8024ZM130.2 91.0024C129.933 102.202 129.533 111.402 129.4 111.536C128.467 112.336 98.3333 92.3358 98.3333 91.0024C98.3333 89.6691 127.667 70.8691 129.8 70.8691C130.333 70.8691 130.6 79.9358 130.2 91.0024ZM112.733 106.869C121.267 112.336 128.333 117.136 128.333 117.669C128.333 118.202 122.6 122.736 115.533 127.802C108.6 132.736 99.9333 139.136 96.2 141.936C92.6 144.869 88.7333 146.869 87.8 146.469C84.3333 145.136 53.5333 118.469 53.9333 117.269C54.2 116.469 62.7333 110.869 73 104.736C89.6667 94.6024 91.6667 93.6691 94.2 95.2691C95.8 96.2024 104.067 101.536 112.733 106.869Z" fill="black"/>
</svg>
