<svg width="180" height="180" viewBox="0 0 180 180" fill="none" xmlns="http://www.w3.org/2000/svg">
<rect x="0.1" y="0.1" width="179.8" height="179.8" fill="white" stroke="#CBCBCB" stroke-width="0.2"/>
<path d="M50.0414 63.5865C49.5081 64.3865 48.7081 109.053 49.1081 115.32C49.3748 119.053 51.5081 117.987 80.1748 100.12L91.6414 92.9198L110.708 105.053C121.241 111.587 130.841 117.053 132.175 117.053C134.441 117.053 134.575 115.187 134.575 91.1865C134.575 75.0532 134.041 64.9198 133.241 64.3865C131.908 63.5865 112.841 74.2532 100.308 82.6532C97.2414 84.6532 93.7748 86.3865 92.4414 86.3865C91.2414 86.3865 82.3081 81.4532 72.7081 75.3198C54.0414 63.4532 50.9748 61.8532 50.0414 63.5865ZM70.7081 79.5865C77.1081 83.7198 83.3748 87.7198 84.7081 88.5198C86.1748 89.4532 86.9748 90.3865 86.5748 90.6532C85.2414 91.9865 54.0414 110.387 53.3748 110.387C52.9748 110.387 52.7081 101.053 52.9748 89.7198L53.3748 69.0532L56.3081 70.6532C57.9081 71.4532 64.4414 75.4532 70.7081 79.5865ZM130.575 90.5198C130.575 106.387 130.175 110.52 128.841 110.12C126.441 109.587 97.2414 91.3198 97.2414 90.3865C97.2414 89.8532 129.241 70.3865 130.308 70.3865C130.441 70.3865 130.575 79.4532 130.575 90.5198Z" fill="black"/>
</svg>
