<svg width="180" height="180" viewBox="0 0 180 180" fill="none" xmlns="http://www.w3.org/2000/svg">
<rect x="0.1" y="0.1" width="179.8" height="179.8" fill="white" stroke="#CBCBCB" stroke-width="0.2"/>
<path d="M48 64.2085C48 65.9418 50.8 67.9418 67.7333 78.3418C76.2667 83.5418 83.3333 88.6085 83.3333 89.4085C83.3333 91.0085 79.6 93.4085 58.4 106.342C52.6667 109.808 48 113.408 48 114.475C48 115.542 48.6667 116.342 49.3333 116.342C50.9333 116.342 60.6667 110.742 74 102.342C91.2 91.2751 89.3333 91.6751 98.2667 97.4085C118.533 110.742 128.533 116.475 130.133 115.808C133.733 114.475 130.267 111.542 113.2 101.142C103.733 95.4085 96.1333 90.0751 96.4 89.2751C96.6667 88.3418 103.867 83.5418 112.267 78.3418C128.8 68.3418 132 66.0751 132 64.2085C132 61.9418 127.333 63.0085 122.667 66.2085C120.133 67.9418 111.733 73.2751 103.867 78.0751L89.8667 86.7418L71.2 74.8751C54.1333 63.9418 48 61.1418 48 64.2085Z" fill="black"/>
</svg>
