<svg width="180" height="180" viewBox="0 0 180 180" fill="none" xmlns="http://www.w3.org/2000/svg">
<rect x="0.1" y="0.1" width="179.8" height="179.8" fill="white" stroke="#CBCBCB" stroke-width="0.2"/>
<path d="M83.1079 41.8271C62.5678 61.2874 55.169 67.6642 51.9665 68.6537C43.2425 71.5122 6.3588 87.5642 6.02751 88.6637C5.58579 89.983 10.2239 92.1819 37.3897 104.056L54.1751 111.312L70.9605 127.254C80.2367 136.05 88.4085 143.526 89.0711 143.966C89.8441 144.516 96.6908 138.359 106.519 128.684C122.2 113.071 122.973 112.522 131.918 109.003C155.219 100.098 172.777 92.0719 172.998 90.4228C173.109 89.1034 168.47 86.7946 143.292 76.02L123.415 67.5542L107.403 51.8321C98.5681 43.1464 90.838 36 90.2858 36C89.6232 36 86.4208 38.6387 83.1079 41.8271ZM104.421 54.4708C111.488 61.5072 117.341 67.5542 117.341 67.8841C117.341 68.2139 104.973 68.4338 89.7337 68.4338C74.6047 68.4338 62.1261 68.1039 62.1261 67.6642C62.1261 66.5647 89.0711 41.6072 90.2858 41.4973C90.9484 41.4973 97.2429 47.3243 104.421 54.4708ZM113.587 72.5017C114.028 72.9415 92.1631 85.8051 90.1754 86.3548C89.1815 86.5747 67.2059 74.041 64.5556 71.6222C64.3347 71.5122 75.1569 71.5122 88.6294 71.7321C102.102 71.952 113.366 72.2818 113.587 72.5017ZM55.3899 89.3233C55.2794 98.7786 54.8377 106.695 54.396 106.915C54.0647 107.134 52.1874 106.585 50.4205 105.705C48.6536 104.716 40.04 100.977 31.2056 97.3493C22.3712 93.6112 14.7515 90.2029 14.1994 89.7631C13.6472 89.3233 14.8619 88.1139 16.9601 87.2344C26.678 82.8366 52.85 72.3918 54.1751 72.2818C55.2794 72.2818 55.5003 76.02 55.3899 89.3233ZM145.28 80.8576C156.102 85.5852 164.937 89.873 164.937 90.4228C164.937 90.9725 162.066 92.5117 158.532 94.051C154.998 95.4802 147.71 98.5587 142.188 100.868C136.777 103.066 130.372 105.815 128.053 106.805L123.857 108.674L124.409 90.7526C124.961 72.062 124.851 72.2818 125.403 72.2818C125.513 72.2818 134.458 76.1299 145.28 80.8576ZM72.3961 81.2973C78.2489 85.0355 83.5496 88.5537 84.1017 89.2134C84.7643 89.983 80.8992 92.9515 72.2857 98.1189C65.2181 102.297 59.0341 105.925 58.5923 106.145C58.1506 106.365 57.7089 98.9985 57.7089 89.873C57.7089 70.4128 56.1629 71.2923 72.3961 81.2973ZM121.427 89.3233C121.206 98.1189 120.765 105.485 120.433 105.815C120.102 106.145 114.47 102.956 107.955 98.7786C101.439 94.4907 95.476 90.8626 94.8135 90.5327C93.3779 89.873 92.8257 90.3128 108.507 80.6377C114.912 76.7896 120.433 73.4912 120.985 73.4912C121.427 73.3813 121.648 80.5277 121.427 89.3233ZM93.4883 94.1609C93.8196 94.7106 99.1202 98.2289 105.194 101.967C111.268 105.595 116.237 108.894 116.237 109.113C116.237 109.333 104.2 109.553 89.5128 109.663C68.9728 109.663 63.12 109.333 64.1138 108.344C64.7764 107.684 70.5188 103.946 76.7029 100.208C87.5251 93.6112 92.1631 91.962 93.4883 94.1609ZM96.8012 112.852L116.679 112.961L103.537 126.155C96.2491 133.411 89.9545 139.238 89.6232 139.128C88.7398 138.799 65.5494 116.37 63.5617 113.951C62.4574 112.632 63.3408 112.412 69.6354 112.632C73.7213 112.742 85.979 112.852 96.8012 112.852Z" fill="black"/>
</svg>
