<svg width="540" height="540" viewBox="0 0 540 540" fill="none" xmlns="http://www.w3.org/2000/svg">
<rect x="0.1" y="0.1" width="179.8" height="179.8" fill="white" stroke="#CBCBCB" stroke-width="0.2"/>
<rect x="180.1" y="0.1" width="179.8" height="179.8" fill="white" stroke="#CBCBCB" stroke-width="0.2"/>
<rect x="360.1" y="0.1" width="179.8" height="179.8" fill="white" stroke="#CBCBCB" stroke-width="0.2"/>
<rect x="0.1" y="180.1" width="179.8" height="179.8" fill="white" stroke="#CBCBCB" stroke-width="0.2"/>
<rect x="180.1" y="180.1" width="179.8" height="179.8" fill="white" stroke="#CBCBCB" stroke-width="0.2"/>
<rect x="360.1" y="180.1" width="179.8" height="179.8" fill="white" stroke="#CBCBCB" stroke-width="0.2"/>
<rect x="0.1" y="360.1" width="179.8" height="179.8" fill="white" stroke="#CBCBCB" stroke-width="0.2"/>
<rect x="180.1" y="360.1" width="179.8" height="179.8" fill="white" stroke="#CBCBCB" stroke-width="0.2"/>
<rect x="360.1" y="360.1" width="179.8" height="179.8" fill="white" stroke="#CBCBCB" stroke-width="0.2"/>
<path d="M447 58.3335V89.8001H415C383.933 89.8001 383 89.9335 383 92.4668C383 95.0001 383.933 95.1335 408.067 95.4001C421.8 95.5335 434.867 95.5335 437 95.4001C439.267 95.2668 442.333 95.4001 444.067 95.8001L447.133 96.6001L446.733 127.533C446.333 157.667 446.333 158.467 449 158.467C451.533 158.467 451.667 157.4 452.333 127.4L453 96.3335L484.733 96.4668L516.467 96.6001L516.067 93.5335C515.533 89.9335 518.467 90.2001 480.6 89.9335L452.067 89.8001L452.6 58.7335L453 27.8001L450.067 27.4001L447 27.0001V58.3335Z" fill="black"/>
<path d="M47.0801 34.5342C33.4801 39.2008 25.4801 50.6675 25.4801 65.4675C25.4801 73.7342 28.6801 83.8675 31.8801 85.8675C34.0134 87.2008 32.1468 98.8008 28.5468 106.268C17.6134 129.201 33.2134 154.668 58.1468 154.668C66.5468 154.668 77.7468 150.534 81.3468 146.268C84.0135 142.934 85.4801 143.468 85.4801 147.868C85.4801 154.268 94.0134 154.934 95.6134 148.534L96.4134 145.468L100.68 148.534C107.213 153.334 113.213 155.201 122.413 154.934C129.613 154.934 132.147 154.134 138.013 150.534C153.213 141.334 158.947 122.534 151.08 107.068C147.613 100.268 146.813 88.2675 149.613 84.0008C155.347 75.0675 156.413 61.6008 152.28 52.6675C149.213 46.0008 141.08 38.1342 134.547 35.3342C127.347 32.4008 113.347 32.6675 106.813 36.0008C104.013 37.4675 101.347 39.2008 100.813 40.0008C99.4801 42.0008 96.1468 41.6008 96.1468 39.3342C96.1468 37.8675 94.6801 37.3342 90.9468 37.3342C86.1468 37.3342 85.6135 37.7342 85.2135 40.9342L84.8135 44.5342L80.1468 40.4008C74.9468 35.8675 64.9468 32.0008 58.4134 32.0008C56.0134 32.1342 50.9468 33.2008 47.0801 34.5342ZM71.8801 39.4675C75.7468 41.3342 80.0135 44.6675 81.6135 46.8008L84.2801 50.6675L80.8135 58.4008C74.5468 72.1342 61.3468 82.9342 46.2801 86.8008C40.8134 88.1342 39.7468 88.0008 37.2134 85.8675C32.5468 81.6008 29.4801 73.3342 29.4801 64.5342C29.4801 57.3342 30.0134 55.4675 33.8801 49.8675C42.9468 36.8008 58.1468 32.6675 71.8801 39.4675ZM136.813 41.2008C151.48 49.4675 155.48 71.0675 144.68 84.0008C140.413 89.0675 137.08 89.0675 126.413 84.1342C112.013 77.7342 98.8134 61.8675 98.2801 50.4008C98.1468 46.9342 99.0801 45.6008 103.48 42.5342C114.147 35.2008 125.08 34.6675 136.813 41.2008ZM109.613 86.2675C113.88 89.6008 117.213 92.6675 116.947 92.9342C116.68 93.2008 110.947 93.0675 104.28 92.5342L92.1468 91.6008V78.8008V66.0008L96.9468 73.0675C99.4801 76.9342 105.213 82.9342 109.613 86.2675ZM88.1468 80.6675V92.0008H75.8801H63.4801L70.8135 86.8008C74.8135 83.8675 80.1468 78.8008 82.6801 75.4675C85.2135 72.1342 87.4801 69.3342 87.7468 69.3342C88.0135 69.3342 88.1468 74.4008 88.1468 80.6675ZM88.1468 108.268C88.1468 114.934 87.8801 120.134 87.6135 119.868C87.3468 119.601 84.6801 116.134 81.7468 112.134C78.8135 108.268 73.4801 102.934 70.0135 100.534L63.6135 96.0008H75.8801H88.1468V108.268ZM113.48 98.8008C104.813 106.001 101.213 109.601 96.9468 115.334L92.1468 121.601V108.801V96.0008H104.547L116.813 96.1342L113.48 98.8008ZM56.1468 104.401C64.8134 108.534 74.5468 118.134 78.9468 126.934C83.8801 136.668 83.7468 138.934 78.5468 143.468C72.2801 148.668 66.6801 150.668 58.2801 150.668C48.6801 150.668 44.6801 149.068 37.7468 142.268C30.1468 134.934 27.3468 125.601 29.3468 115.868C30.6801 109.601 34.8134 102.001 37.8801 99.8675C39.6134 98.6675 49.2134 100.934 56.1468 104.401ZM147.08 108.001C153.48 120.668 151.48 132.668 141.347 142.801C136.413 147.868 133.747 149.334 127.613 150.801C120.947 152.268 119.08 152.134 112.813 150.134C104.413 147.468 97.4801 142.268 97.4801 138.401C97.4801 134.801 103.88 122.001 107.347 118.801L110.28 116.001L109.747 120.801C109.213 124.534 109.88 126.268 112.947 129.468C120.413 137.201 132.147 132.534 132.147 121.868C132.147 115.201 127.88 110.668 121.88 110.668C115.88 110.668 117.213 108.668 125.88 104.668C140.413 98.1342 142.28 98.4008 147.08 108.001Z" fill="black"/>
<path d="M54.1467 54.5343C49.7467 56.4009 47.88 59.6009 47.6133 65.3343C47.48 71.8676 50.9467 75.7343 57.7467 76.9343C61.7467 77.4676 63.2133 77.0676 66.0133 74.2676C70.1467 70.0009 70.8133 61.8676 67.2133 57.4676C64.5467 54.2676 58.1467 52.8009 54.1467 54.5343Z" fill="black"/>
<path d="M114.413 56.2688C108.947 60.5355 108.947 70.2688 114.547 74.6688C118.813 78.1355 124.147 78.0022 128.68 74.5355C133.347 70.8022 133.613 61.8688 129.08 57.6022C125.613 54.2688 118.013 53.6022 114.413 56.2688Z" fill="black"/>
<path d="M49.6133 114.134C45.6133 119.201 46.0133 124.801 50.68 129.467C57.88 136.534 67.7467 133.201 69.08 123.201C70.0133 115.467 65.88 110.667 58.1467 110.667C53.48 110.667 51.7467 111.334 49.6133 114.134Z" fill="black"/>
<path d="M229.333 30.0166C218.267 33.4833 208.533 44.2833 206.8 55.2166C205.467 63.4833 207.067 74.0166 210.267 78.9499C213.733 84.1499 213.333 94.4166 209.333 102.55C206.667 107.75 206 111.35 206 118.55C206.133 129.75 209.2 136.55 217.333 143.617C228 152.683 245.2 153.75 257.067 146.017C262.8 142.283 263.333 142.15 263.733 144.417C264 146.017 265.467 147.083 267.867 147.483C272.933 148.283 274.667 147.483 274.667 144.417C274.667 143.083 274.933 141.883 275.2 141.883C275.467 141.883 279.2 144.017 283.467 146.55C291.067 151.217 294.8 151.883 306 151.217C317.467 150.55 330.267 139.75 333.467 127.883C335.467 120.417 334.133 108.15 330.667 102.283C327.733 97.2166 326.133 83.6166 328.4 82.2833C331.333 80.4166 334.667 70.1499 334.667 62.5499C334.667 42.5499 319.733 28.9499 298.933 30.1499C291.333 30.5499 288.667 31.3499 283.2 34.9499C276.667 39.0833 276.667 39.0833 276 36.1499C275.333 33.8833 274.133 33.0833 270.267 32.8166C265.733 32.4166 265.333 32.6833 265.333 35.7499C265.333 39.7499 263.733 40.1499 261.2 37.0833C256 30.8166 239.2 27.0833 229.333 30.0166ZM251.333 35.7499C255.067 37.4833 259.333 40.2833 260.933 42.0166L263.733 45.2166L261.067 52.1499C255.867 66.2833 237.6 80.9499 223.2 82.8166C218.267 83.3499 217.867 83.0833 214.4 77.6166C206.8 65.2166 208.267 52.1499 218.533 41.8833C228.267 32.2833 239.467 30.1499 251.333 35.7499ZM314.933 36.6833C329.733 44.0166 334.933 61.3499 326.933 76.6833C324.8 80.6833 322.133 84.0166 320.8 84.2833C315.867 85.3499 300.133 77.7499 292.533 70.8166C285.733 64.6833 277.333 51.3499 277.333 46.8166C277.333 43.6166 285.067 37.6166 292.133 35.2166C300.533 32.2833 307.2 32.8166 314.933 36.6833ZM273.733 64.8166C278.533 72.9499 289.333 83.7499 296.133 87.2166L301.867 90.2833L295.467 93.4833C287.467 97.4833 277.2 107.617 273.467 115.083C271.867 118.017 270.4 120.55 270 120.55C269.6 120.55 268.267 118.283 266.8 115.483C262.933 107.883 252.933 97.4833 246.133 93.7499C242.8 92.0166 240 90.1499 240 89.6166C240 89.0833 242 87.6166 244.4 86.4166C252.133 82.5499 259.733 75.3499 264.933 67.2166C267.733 62.8166 270.133 59.2166 270.267 59.2166C270.267 59.2166 271.867 61.7499 273.733 64.8166ZM234.267 99.8833C247.2 105.75 262.667 124.15 262.667 133.483C262.667 139.883 249.733 147.217 238.667 147.217C226.267 147.217 217.867 141.883 212.533 130.55C207.467 119.883 208.667 109.617 216.133 98.9499C219.467 94.2833 222.4 94.4166 234.267 99.8833ZM326.133 102.683C330.8 110.683 331.867 121.083 328.8 129.083C321.333 148.55 297.067 154.283 281.867 140.283L276.133 135.083L278 129.883C280.4 123.083 285.6 114.95 290.933 110.017C296.933 104.283 312.667 96.5499 318.133 96.5499C322 96.5499 323.067 97.3499 326.133 102.683Z" fill="black"/>
<path d="M406.333 43.5342C401.4 47.6675 401.133 55.2675 405.8 59.8008C413.4 67.1342 425.667 62.4675 425.667 51.9342C425.667 48.4675 424.733 46.6008 421.533 43.9342C416.467 39.6675 411 39.5341 406.333 43.5342Z" fill="black"/>
<path d="M478.067 44.7329C473.4 49.7995 473.534 56.5995 478.467 61.1329C483.134 65.3995 488.334 65.3995 493.534 60.9995C498.6 56.8662 499 50.5995 494.867 45.2662C491.134 40.5995 482.2 40.3329 478.067 44.7329Z" fill="black"/>
<path d="M405.267 125.534C400.333 130.601 400.467 136.201 405.667 141.134C413.533 148.601 424.333 143.934 424.333 133.001C424.333 128.467 423.667 126.734 420.867 124.601C415.8 120.601 409.667 121.001 405.267 125.534Z" fill="black"/>
<path d="M477.667 125.667C472.333 131.001 472.333 136.601 477.533 141.934C479.667 144.067 482.733 145.801 484.333 145.801C489.267 145.801 494.867 141.934 495.8 138.067C496.2 136.067 496.733 133.801 497 133.134C497.533 130.734 493.8 124.734 491 123.801C483.533 121.401 481.533 121.667 477.667 125.667Z" fill="black"/>
<path d="M84.2667 220C82.1333 231.734 77.0667 241.734 69.7333 248.934C61.7333 256.934 52.9333 261.334 41.2 263.2L32 264.534V269.467C32 274.267 32.1333 274.267 38.4 275.067C61.7333 277.867 81.4667 297.067 83.8667 319.6L84.6667 327.334L89.7333 327.734C92.4 328 94.6667 327.734 94.8 327.067C95.7333 313.6 98.4 306 104.667 297.2C113.6 285.2 126.267 277.6 140 276.134L147.333 275.334V270V264.667L139.733 263.734C117.467 260.934 98.2667 241.467 96.4 219.734L95.6 212H90.6667H85.8667L84.2667 220ZM95.2 246.534C100.4 255.067 106.4 260.934 114.667 265.6C117.6 267.334 120 269.067 120 269.467C120 270 117.2 272.267 113.733 274.4C105.867 279.467 97.4667 288.134 92.9333 295.867L89.6 301.734L87.3333 297.2C82.6667 288.134 76 280.534 68.1333 275.334C63.7333 272.4 60 269.734 60 269.334C60 268.934 62.2667 267.467 64.9333 266C71.7333 262.4 84.2667 249.734 87.0667 243.6C88.4 240.934 89.6 238.667 89.8667 238.667C90.1333 238.667 92.5333 242.267 95.2 246.534Z" fill="black"/>
<path d="M266 212.333C265.733 213.133 264.8 217.266 264 221.266C259.6 243.666 241.733 260.333 218.8 263.4L212 264.333V269.266V274.2L219.733 275.133C241.867 277.666 261.733 297.533 263.867 319.266L264.667 327.266L269.333 327.666L274.133 328.066L275.6 319.266C277.733 307 281.867 299.133 291.333 289.933C300 281.4 309.733 276.6 321.733 275C327.867 274.2 328 274.066 328 269.666C328 267.266 327.2 265 326.4 264.733C325.467 264.466 321.2 263.666 316.8 262.866C294.4 258.6 279.333 242.2 276.267 218.733C275.333 211.8 275.2 211.533 270.933 211.133C268.267 210.733 266.4 211.266 266 212.333ZM275.067 246.466C280.4 255 288.533 262.866 296.4 266.866L301.6 269.4L293.867 274.066C285.067 279.4 280.133 284.2 274.533 293C272.4 296.466 270.267 299.133 269.867 299C269.467 298.866 266.8 295.266 264 291C258.8 283.266 252.667 277.4 244.4 272.6C242 271.133 240 269.666 240 269.266C240 268.866 242.267 267.4 244.933 265.933C251.733 262.333 264.267 249.666 267.067 243.533C268.4 240.866 269.6 238.6 269.867 238.6C270.133 238.6 272.4 242.066 275.067 246.466Z" fill="black"/>
<path d="M47.6 220C42.6667 223.867 41.8667 229.6 45.3333 235.333C47.0667 238.133 49.3333 240.133 51.0667 240.267C60.6667 240.933 64.9333 238.133 66.2667 230.267C66.9333 226.133 66.4 224.933 62.9333 221.333C58.1333 216.533 52.6667 216.133 47.6 220Z" fill="black"/>
<path d="M118.533 221.201C115.867 223.867 114.667 226.401 114.667 229.334C114.667 235.067 120.933 241.334 126.667 241.334C136.933 241.334 141.333 227.601 133.2 220.801C127.867 216.267 123.333 216.401 118.533 221.201Z" fill="black"/>
<path d="M406.347 222.067C405.281 223.8 403.947 227 403.547 229.4C402.881 232.867 403.414 234.2 406.747 237.667C412.214 243 417.814 243.134 423.147 237.8C427.414 233.4 427.947 230.067 425.014 224.467C422.747 220.067 420.614 219 413.547 219C409.681 219 407.947 219.8 406.347 222.067Z" fill="black"/>
<path d="M479.014 221.933C468.747 233 482.347 248.2 494.214 238.866C497.014 236.733 497.681 235 497.681 230.333C497.681 225.666 497.014 223.933 494.214 221.8C489.414 218.066 482.614 218.2 479.014 221.933Z" fill="black"/>
<path d="M46.9333 302C40.2667 307.6 41.3333 316.533 49.2 320.533C56.5333 324.4 65.3333 318.933 65.3333 310.533C65.3333 304.267 62 300.133 55.8667 299.2C52.1333 298.533 50.4 299.067 46.9333 302Z" fill="black"/>
<path d="M120.667 300.267C113.6 304.267 112.4 314 118.133 319.333C123.067 323.867 128.533 323.733 133.467 318.8C139.333 312.933 138.133 304.533 130.8 300.667C126.133 298.267 124.267 298.267 120.667 300.267Z" fill="black"/>
<path d="M405.814 303.799C401.681 309.133 402.081 315.399 407.147 319.533C412.347 323.933 417.547 323.933 422.214 319.666C426.881 315.399 427.014 307.399 422.614 303.266C417.947 298.866 409.414 299.266 405.814 303.799Z" fill="black"/>
<path d="M478.347 303.667C476.081 305.8 475.014 308.333 475.014 311.667C475.014 315 476.081 317.533 478.347 319.667C485.414 326.867 497.681 321.8 497.681 311.667C497.681 301.667 485.414 296.6 478.347 303.667Z" fill="black"/>
<path d="M85.6667 393.599V403.199L80.7333 398.399C73.2667 391.333 68.3333 389.333 58.6 389.333C48.4667 389.333 42.7333 391.066 36.2 396.266C27.9333 402.799 25 409.733 25 421.999C25 431.733 25.4 433.333 29.4 439.733C31.6667 443.599 33.6667 446.933 33.6667 447.333C33.6667 447.733 31.2667 447.999 28.3333 447.999C23.9333 447.999 23 448.399 23 450.533C23 452.666 24.0667 453.199 28.6 453.599L34.0667 453.999L30.7333 457.999C26.2 463.466 24.3333 469.599 24.3333 478.799C24.3333 487.999 25.6667 491.999 31.1333 498.933C43 513.866 68.2 515.066 81 501.333L85 497.199L85.6667 506.933C86.2 514.399 86.7333 516.666 88.3333 516.666C89.9333 516.666 90.4667 514.666 90.7333 507.599C91 502.666 91.5333 498.666 92.2 498.666C92.7333 498.666 94.8667 500.399 97 502.666C102.467 508.399 113.933 512.399 122.467 511.599C147.667 509.066 161.533 481.733 148.2 460.799C146.067 457.333 144.333 454.266 144.333 453.999C144.333 453.599 146.733 453.333 149.667 453.333C154.067 453.333 155 452.933 155 450.666C155 448.399 154.067 447.999 148.867 447.999H142.867L146.467 443.333C157.133 429.199 155.667 409.999 143 398.133C136.067 391.599 129.933 389.333 119.267 389.333C110.467 389.333 103.8 392.133 97.4 398.399L92.3333 403.199V393.599C92.3333 384.266 92.2 383.999 89 383.999C85.8 383.999 85.6667 384.266 85.6667 393.599ZM73.5333 397.199C83.9333 403.999 85.6667 408.399 85.6667 429.866V447.999H63.8H41.9333L37.5333 443.733C23.5333 429.599 25.8 406.399 42.0667 396.933C49.4 392.533 51.6667 391.999 60.0667 392.666C65.1333 393.066 69 394.399 73.5333 397.199ZM133.667 395.999C148.867 403.733 154.2 421.999 145.667 436.933C139.4 447.866 139 447.999 114.067 447.999H92.3333V429.066C92.3333 407.866 93.1333 405.333 102.867 398.399C112.467 391.599 123.267 390.666 133.667 395.999ZM85.6667 471.199C85.6667 491.199 84.7333 493.599 74.6 501.866C69.9333 505.599 68.3333 505.999 58.6 506.399C48.0667 506.933 47.4 506.799 41.1333 502.399C25.8 491.999 23.4 470.399 36.2 457.599L40.6 453.333H63.1333H85.6667V471.199ZM140.733 456.933C149.8 466.666 151.933 480.133 146.2 491.866C135.667 512.799 104.333 512.799 93.5333 491.866C91.2667 487.199 91 484.799 91.5333 470.266C91.9333 461.333 92.3333 453.866 92.3333 453.599C92.3333 453.466 102.467 453.333 114.733 453.333H137.133L140.733 456.933Z" fill="black"/>
<path d="M229.093 390.21C221.359 392.743 213.493 399.41 209.759 406.743C204.959 416.21 205.226 429.276 210.559 438.743C212.693 442.61 215.493 446.476 216.826 447.143C220.293 449.01 219.893 450.476 214.693 455.81C206.559 464.21 203.759 478.076 207.893 489.81C210.959 498.343 215.759 503.81 223.759 507.543C238.293 514.476 254.826 510.876 265.359 498.476L270.559 492.343L275.226 498.61C286.426 513.676 308.559 515.943 322.959 503.543C331.359 496.343 334.426 489.676 334.426 478.343C334.426 467.81 332.426 462.61 324.959 454.743L320.293 449.943L323.759 447.676C328.826 444.343 335.226 430.61 335.226 423.01C335.226 409.81 328.159 398.343 316.293 392.21C309.359 388.743 294.293 388.743 287.359 392.343C282.559 394.743 276.293 400.343 272.159 406.21C270.293 408.743 270.159 408.743 268.159 404.743C265.493 399.81 258.826 393.943 252.826 391.41C246.426 388.743 235.359 388.21 229.093 390.21ZM249.493 394.343C257.359 397.676 262.693 402.476 265.893 409.01C267.493 412.343 269.626 415.01 270.693 415.01C271.626 415.01 273.759 412.61 275.093 409.81C278.959 402.343 287.493 395.543 295.359 393.676C303.493 391.676 308.693 392.61 317.359 397.676C330.426 405.143 334.959 421.676 327.893 435.943C326.026 439.676 322.959 443.81 321.226 444.876C316.693 447.943 317.093 452.076 322.426 457.676C327.093 462.476 331.226 472.343 331.226 478.876C331.226 491.41 320.826 504.21 308.293 506.876C300.026 508.743 293.626 507.676 286.426 503.676C281.226 500.61 273.893 491.81 273.893 488.61C273.893 485.676 267.759 486.876 266.293 490.076C261.493 500.476 251.093 506.876 238.959 507.01C229.493 507.01 226.159 505.676 219.359 499.676C206.959 488.343 206.826 467.81 219.226 456.743C224.559 452.076 224.293 449.276 217.893 442.076C210.293 433.41 207.893 422.61 211.493 412.21C216.693 397.01 235.093 388.343 249.493 394.343Z" fill="black"/>
<path d="M444.909 457.909V457.636C444.939 454.742 445.242 452.439 445.818 450.727C446.394 449.015 447.212 447.629 448.273 446.568C449.333 445.508 450.606 444.53 452.091 443.636C452.985 443.091 453.788 442.447 454.5 441.705C455.212 440.947 455.773 440.076 456.182 439.091C456.606 438.106 456.818 437.015 456.818 435.818C456.818 434.333 456.47 433.045 455.773 431.955C455.076 430.864 454.144 430.023 452.977 429.432C451.811 428.841 450.515 428.545 449.091 428.545C447.848 428.545 446.652 428.803 445.5 429.318C444.348 429.833 443.386 430.644 442.614 431.75C441.841 432.856 441.394 434.303 441.273 436.091H435.545C435.667 433.515 436.333 431.311 437.545 429.477C438.773 427.644 440.386 426.242 442.386 425.273C444.402 424.303 446.636 423.818 449.091 423.818C451.758 423.818 454.076 424.348 456.045 425.409C458.03 426.47 459.561 427.924 460.636 429.773C461.727 431.621 462.273 433.727 462.273 436.091C462.273 437.758 462.015 439.265 461.5 440.614C461 441.962 460.273 443.167 459.318 444.227C458.379 445.288 457.242 446.227 455.909 447.045C454.576 447.879 453.508 448.758 452.705 449.682C451.902 450.591 451.318 451.674 450.955 452.932C450.591 454.189 450.394 455.758 450.364 457.636V457.909H444.909ZM447.818 471.364C446.697 471.364 445.735 470.962 444.932 470.159C444.129 469.356 443.727 468.394 443.727 467.273C443.727 466.152 444.129 465.189 444.932 464.386C445.735 463.583 446.697 463.182 447.818 463.182C448.939 463.182 449.902 463.583 450.705 464.386C451.508 465.189 451.909 466.152 451.909 467.273C451.909 468.015 451.72 468.697 451.341 469.318C450.977 469.939 450.485 470.439 449.864 470.818C449.258 471.182 448.576 471.364 447.818 471.364Z" fill="black"/>
</svg>
