<svg width="180" height="180" viewBox="0 0 180 180" fill="none" xmlns="http://www.w3.org/2000/svg">
<rect x="0.1" y="0.1" width="179.8" height="179.8" fill="white" stroke="#CBCBCB" stroke-width="0.2"/>
<path d="M44.2 32.3977C32.8667 37.7311 25 50.2644 25 63.0644C25 69.3311 29.5333 79.8644 34.8667 86.2644L38.6 90.5311L34.4667 94.7977C19 110.664 23.2667 137.864 42.8667 148.264C47 150.398 50.7333 151.064 57.6667 151.198C69.6667 151.198 78.3333 147.064 84.8667 138.264L89.5333 132.131L93.1333 137.198C100.867 147.864 111.133 152.664 123.8 151.464C151.933 148.931 164.2 115.464 144.6 94.7977L140.467 90.5311L144.6 86.1311C157.933 72.3977 157.4 49.4644 143.533 37.3311C127.667 23.7311 104.067 27.7311 92.0667 45.9977L89.9333 49.3311L87.6667 45.5977C78.2 30.2644 60.3333 24.7977 44.2 32.3977ZM66.4667 33.4644C75 36.2644 81.6667 41.9977 85.1333 49.0644C86.8667 52.7977 89 55.8644 89.8 55.8644C90.6 55.8644 93.2667 52.5311 95.8 48.2644C106.2 30.9311 127.8 27.4644 141.533 40.9311C148.2 47.1977 150.333 52.5311 150.333 62.1311C150.333 71.0644 146.467 79.9977 140.867 84.1311C135.667 87.9977 136.067 91.1977 142.2 97.8644C154.867 111.731 152.333 132.531 136.733 143.331C129.4 148.531 115.933 149.464 108.067 145.464C102.2 142.398 93 132.931 93 129.864C93 128.664 91.8 127.864 89.8 127.864C87.4 127.864 85.6667 129.331 83.2667 133.598C78.3333 141.998 70.2 146.931 60.3333 147.598C51.1333 148.264 45.4 146.398 38.4667 140.398C25.9333 129.864 25.8 108.264 38.2 96.6644C40.4667 94.3977 42.3333 91.4644 42.3333 90.1311C42.3333 88.6644 39.9333 84.9311 37.1333 81.8644C28.4667 72.3977 26.7333 60.9311 32.3333 49.7311C36.7333 40.9311 40.7333 37.3311 49.2667 34.3977C57.6667 31.4644 60.4667 31.3311 66.4667 33.4644Z" fill="black"/>
<path d="M51.1335 53.3316C46.4669 57.0649 46.2002 65.9982 50.7335 70.2649C56.8669 76.1316 67.9335 73.0649 69.6669 65.0649C72.2002 53.9982 60.0669 46.2649 51.1335 53.3316Z" fill="black"/>
<path d="M113.8 53.3308C106.333 59.1975 110.867 73.1975 120.6 73.4642C131.8 73.7308 136.867 62.2642 129.133 54.3975C124.467 49.7308 118.867 49.3308 113.8 53.3308Z" fill="black"/>
<path d="M50.0669 110.531C46.6002 114.131 46.0669 115.331 46.7336 119.464C48.2002 127.864 54.4669 131.731 62.6002 128.931C67.0002 127.331 69.0002 124.264 69.0002 118.664C69.0002 112.931 67.8002 110.664 63.5336 108.531C57.9336 105.598 54.6002 106.131 50.0669 110.531Z" fill="black"/>
<path d="M112.334 110.532C109 114.265 109.134 123.332 112.734 126.798C116.6 130.798 125.934 130.665 129.267 126.532C132.6 122.398 132.467 113.998 129 110.532C125.4 106.932 115.667 106.798 112.334 110.532Z" fill="black"/>
</svg>
