<svg width="180" height="180" viewBox="0 0 180 180" fill="none" xmlns="http://www.w3.org/2000/svg">
<rect x="0.1" y="0.1" width="179.8" height="179.8" fill="white" stroke="#CBCBCB" stroke-width="0.2"/>
<path d="M85.8401 33.0047C85.8401 38.2047 85.3068 42.4713 84.7735 42.4713C84.1068 42.4713 81.9735 40.6047 79.7068 38.338C71.9735 29.938 58.3735 27.0047 45.3068 30.6047C33.9735 33.8047 23.1735 49.538 23.1735 63.0047C23.1735 68.4713 28.2401 81.2714 31.0401 83.0047C31.8401 83.538 32.5068 84.8714 32.5068 85.938C32.5068 87.538 31.3068 87.938 27.5735 87.538C23.1735 87.138 22.5068 87.538 22.1068 90.0714C21.7068 92.8714 22.2401 93.138 27.0401 93.138C30.1068 93.138 32.5068 93.538 32.5068 93.938C32.5068 94.338 31.0401 96.6047 29.3068 98.8714C17.3068 115.005 23.4401 139.271 41.4401 147.805C54.1068 153.805 70.6401 150.871 80.2401 141.138L84.5068 136.605V146.205C84.5068 154.871 84.7735 155.805 87.1735 155.805C89.5735 155.805 89.8401 154.871 89.8401 146.338V136.871L95.3068 141.805C102.64 148.471 108.907 150.738 118.773 150.738C147.04 150.871 162.907 116.738 144.107 96.0714L141.44 93.138H147.573C152.907 93.138 153.84 92.738 153.84 90.6047C153.84 88.4714 152.773 87.938 147.573 87.538L141.44 87.138L145.04 82.8714C152.907 73.538 154.773 58.6047 149.307 47.0047C143.973 35.6713 133.04 29.138 119.173 29.138C110.24 29.138 103.707 31.8047 95.9735 38.6047L91.3068 42.6047L90.9068 33.538C90.6401 26.2047 90.1068 24.4713 88.2401 24.0713C86.1068 23.6713 85.8401 24.738 85.8401 33.0047ZM127.973 33.8047C149.307 40.0713 155.44 66.338 139.44 82.738L134.64 87.8047H112.907H91.1735V69.4047C91.1735 51.0047 91.1735 50.8713 95.0401 45.538C97.1735 42.6047 101.04 38.8713 103.573 37.2713C107.573 34.8713 110.64 33.8047 120.64 31.938C121.04 31.8047 124.373 32.738 127.973 33.8047ZM73.9735 37.8047C77.0401 40.0713 81.0401 44.4713 82.7735 47.8047C85.7068 53.4047 85.9735 55.138 85.5735 70.4713L85.1735 87.138L63.0401 87.538L40.7735 87.8047L35.3068 81.6714C26.6401 71.6713 24.9068 61.2713 30.3735 49.8047C36.2401 37.2713 43.5735 33.0047 58.1068 33.4047C66.9068 33.8047 69.0401 34.338 73.9735 37.8047ZM84.5068 110.471C84.5068 129.805 83.8401 132.205 76.1068 139.671C66.9068 148.471 54.5068 150.071 42.2401 144.205C25.1735 136.205 21.8401 109.538 36.1068 96.338C39.4401 93.2714 40.2401 93.138 61.9735 93.138H84.5068V110.471ZM140.24 97.4047C151.707 109.405 151.307 126.471 139.04 138.738C127.573 150.205 111.707 150.871 99.3068 140.338C90.6401 132.871 89.7068 129.271 90.6401 109.938L91.5735 93.138H113.84H135.973L140.24 97.4047Z" fill="black"/>
</svg>
