<svg width="180" height="180" viewBox="0 0 180 180" fill="none" xmlns="http://www.w3.org/2000/svg">
<rect x="0.1" y="0.1" width="179.8" height="179.8" fill="white" stroke="#CBCBCB" stroke-width="0.2"/>
<path d="M47.6885 30.4255C39.4218 32.9588 29.4218 42.8255 27.1551 50.4255C23.4218 63.2255 26.0885 76.0255 34.6218 85.8922L38.7551 90.5588L34.6218 94.4255C25.2885 103.226 22.0885 121.759 27.9551 133.226C31.2885 139.626 38.4885 146.159 45.2885 149.092C52.4885 152.159 65.6885 151.759 72.8885 148.292C78.3551 145.626 88.2218 136.026 88.2218 133.359C88.2218 130.826 90.4885 132.692 92.8885 137.092C95.6885 142.292 103.555 148.292 110.755 150.692C131.688 157.892 154.888 141.226 154.888 119.092C154.888 110.826 151.688 102.559 146.888 98.2922C141.022 92.9588 141.022 91.3588 146.755 84.8255C153.555 77.0922 155.288 71.6255 154.622 60.2922C154.222 53.3588 153.422 50.1588 150.488 45.7588C143.155 34.6922 130.888 28.6922 118.088 30.0255C108.888 30.9588 103.555 33.8922 95.6885 42.1588C91.2885 46.8255 89.0218 48.4255 88.4885 47.0922C87.0218 43.0922 77.9551 34.4255 72.7551 32.1588C65.0218 28.6922 55.4218 28.0255 47.6885 30.4255ZM72.3551 36.6922C79.8218 40.4255 81.2885 41.8922 84.7551 48.6922C86.8885 52.8255 89.4218 56.2922 90.3551 56.2922C91.2885 56.2922 93.2885 53.7588 94.6218 50.5588C104.488 28.2922 137.022 27.8922 148.355 49.8922C153.688 60.2922 150.622 76.4255 141.688 84.8255C136.755 89.4922 136.355 93.8922 140.755 96.6922C145.155 99.6255 150.888 111.626 150.888 118.026C150.888 135.492 138.355 148.292 121.422 148.292C117.422 148.292 111.955 147.226 108.888 145.759C103.155 143.226 95.5551 135.359 93.5551 130.159C91.9551 126.026 87.1551 125.892 85.6885 130.026C83.8218 134.959 77.5551 141.492 72.2218 144.292C52.2218 154.559 28.3551 140.559 28.2218 118.559C28.2218 110.559 30.6218 104.692 36.7551 97.8922C41.6885 92.5588 43.1551 86.5588 39.8218 85.2255C36.6218 84.0255 29.6885 72.1588 28.8885 66.4255C27.0218 54.0255 33.8218 41.7588 45.8218 35.7588C55.2885 30.9588 61.9551 31.2255 72.3551 36.6922Z" fill="black"/>
</svg>
