<svg width="180" height="180" viewBox="0 0 180 180" fill="none" xmlns="http://www.w3.org/2000/svg">
<rect x="0.1" y="0.1" width="179.8" height="179.8" fill="white" stroke="#CBCBCB" stroke-width="0.2"/>
<path d="M51.1729 53.6482C49.0395 55.3816 48.2395 57.5149 48.1062 61.7816C47.9729 68.7149 51.0395 72.3149 57.8395 73.3816C61.5729 74.0482 63.3062 73.5149 66.1062 71.1149C67.9729 69.3816 69.7062 66.9816 69.8395 65.9149C70.9062 56.3149 67.1729 51.2482 59.1729 51.2482C56.2395 51.2482 52.7729 52.3149 51.1729 53.6482Z" fill="black"/>
<path d="M113.84 54.4493C107.173 61.516 111.84 73.916 121.04 73.916C130.106 73.916 135.84 64.716 131.84 56.8493C128.373 50.1827 119.04 48.9827 113.84 54.4493Z" fill="black"/>
<path d="M50.3729 110.583C42.9062 117.916 48.6396 129.916 59.7062 129.916C68.2396 129.916 72.6396 118.049 66.9062 110.716C63.1729 105.916 55.0396 105.783 50.3729 110.583Z" fill="black"/>
<path d="M113.04 110.583C105.84 117.649 110.906 129.916 121.04 129.916C127.573 129.916 132.373 125.116 132.373 118.583C132.373 112.049 127.573 107.249 121.04 107.249C117.706 107.249 115.173 108.316 113.04 110.583Z" fill="black"/>
</svg>
