<svg width="180" height="180" viewBox="0 0 180 180" fill="none" xmlns="http://www.w3.org/2000/svg">
<rect x="0.1" y="0.1" width="179.8" height="179.8" fill="white" stroke="#CBCBCB" stroke-width="0.2"/>
<path d="M44.6449 31.6841C27.3116 39.5508 20.1116 60.3508 29.0449 77.2842C31.9782 83.1508 32.6449 85.8175 32.2449 91.1508C31.9782 94.7508 30.9116 98.7508 29.8449 99.8175C28.9116 101.017 27.1782 105.151 26.2449 109.284C20.5116 131.284 35.1782 150.484 57.9782 150.751C66.9116 150.751 73.3116 148.617 79.4449 143.417C81.8449 141.417 83.9782 139.817 84.3782 139.817C84.7782 139.817 85.3116 141.817 85.5782 144.084C85.9782 147.951 86.5116 148.484 90.3782 148.884C94.2449 149.284 94.7782 148.884 95.4449 145.151C96.3782 141.017 96.3782 141.017 99.1782 143.551C104.912 148.884 111.045 151.017 120.645 151.017C134.912 151.151 145.312 144.751 150.778 132.484C154.245 124.884 154.112 110.751 150.512 103.551C146.912 96.4842 146.245 84.4842 149.312 79.8175C157.445 67.5508 155.845 50.3508 145.578 39.2841C134.512 27.5508 114.512 25.8175 101.578 35.5508L97.1782 38.8841L96.3782 36.0841C95.8449 33.6841 94.6449 33.1508 90.5116 33.1508C85.8449 33.1508 85.3116 33.5508 85.3116 36.4841C85.3116 40.6175 83.8449 40.7508 80.5116 37.0175C73.4449 29.1508 55.9782 26.4841 44.6449 31.6841ZM65.8449 33.2841C72.6449 35.1508 80.5116 40.3508 82.6449 44.4841C84.2449 47.4175 83.9782 48.6175 81.1782 54.8842C74.6449 69.2842 56.5116 82.8842 42.7782 84.0842C38.6449 84.4842 37.8449 83.9508 34.2449 78.0842C29.9782 71.2842 28.3782 62.0842 29.8449 53.6842C31.1782 47.0175 42.7782 35.4175 49.9782 33.5508C57.1782 31.5508 59.7116 31.5508 65.8449 33.2841ZM134.378 35.6841C149.045 43.2841 154.645 59.8175 147.445 75.1508C143.045 84.7508 141.178 85.9508 134.245 83.8175C117.178 78.7508 103.845 66.0842 98.6449 50.0842C97.1782 45.4175 97.3116 44.6175 99.9782 41.8175C107.978 33.4175 124.245 30.4841 134.378 35.6841ZM96.3782 68.2175C99.7116 73.8175 107.978 82.2175 114.645 86.7508C117.845 89.0175 117.578 89.0175 105.045 89.0175L91.9782 89.1508V75.8175C91.9782 68.4842 92.2449 62.4842 92.5116 62.4842C92.7782 62.4842 94.5116 65.0175 96.3782 68.2175ZM88.7782 76.0842L88.1116 88.4842L81.9782 88.8842C78.6449 89.1508 73.1782 89.1508 69.7116 88.8842L63.3116 88.4842L70.3782 83.4175C74.2449 80.7508 79.8449 75.1508 83.0449 71.1508C86.1116 67.1508 88.7782 63.8175 89.0449 63.8175C89.1782 63.8175 89.0449 69.4175 88.7782 76.0842ZM83.5782 92.6175L87.9782 93.4175V105.417V117.417L82.1116 109.417C78.7782 105.017 73.4449 99.5508 70.1116 97.2842C66.7782 94.8842 63.9782 92.8842 63.9782 92.6175C63.9782 91.8175 79.3116 91.8175 83.5782 92.6175ZM111.312 97.5508C107.712 99.9508 101.845 105.684 98.3782 110.217L91.9782 118.617V105.951V93.1508H104.912H117.978L111.312 97.5508ZM55.7116 100.751C67.9782 106.484 82.6449 124.084 82.6449 133.017C82.6449 134.484 80.2449 137.684 77.1782 140.217C59.5782 155.417 30.7782 144.217 29.1782 121.817C28.5116 111.951 29.3116 108.351 33.3116 102.084C37.1782 95.8175 37.3116 95.8175 42.9116 96.6175C46.1116 97.0175 51.8449 98.8842 55.7116 100.751ZM146.378 104.084C150.778 112.884 151.445 119.551 148.645 127.684C143.312 143.817 125.045 152.217 109.578 145.684C103.578 143.284 97.3116 137.417 97.3116 134.484C97.3116 131.151 104.912 116.617 108.112 113.684L110.912 111.151L110.112 115.284C108.378 123.417 113.445 129.684 121.712 129.417C129.445 129.151 134.245 120.617 131.178 112.484C129.978 109.417 122.912 106.084 119.178 107.017C114.645 108.217 115.178 107.151 120.778 103.684C127.578 99.5508 134.645 97.1508 139.312 97.5508C142.645 97.8175 143.845 98.8842 146.378 104.084Z" fill="black"/>
<path d="M50.6449 53.152C46.2449 57.552 46.6449 65.8186 51.4449 70.0853C55.5782 73.952 61.1782 73.952 65.8449 70.352C70.5115 66.752 70.7782 57.2853 66.3782 53.152C62.5115 49.552 54.2449 49.552 50.6449 53.152Z" fill="black"/>
<path d="M113.978 53.5517C107.445 59.1517 109.845 70.085 118.378 73.285C123.178 75.1517 130.245 71.285 131.978 65.685C133.845 60.085 132.912 56.7517 128.378 53.1517C123.845 49.685 118.245 49.8184 113.978 53.5517Z" fill="black"/>
<path d="M50.1115 109.952C46.2448 113.952 45.7115 118.219 48.6448 123.686C51.9782 130.219 60.6448 131.286 65.9782 125.819C69.7115 122.219 70.2448 117.419 67.3115 111.952C63.9782 105.286 55.7115 104.352 50.1115 109.952Z" fill="black"/>
</svg>
