<svg width="180" height="180" viewBox="0 0 180 180" fill="none" xmlns="http://www.w3.org/2000/svg">
<rect x="0.1" y="0.1" width="179.8" height="179.8" fill="white" stroke="#CBCBCB" stroke-width="0.2"/>
<path d="M90.2097 26.2991C87.9431 26.6991 87.8097 29.3657 87.8097 58.0324V89.3658L56.2097 89.0991C24.7431 88.8324 24.4764 88.8324 24.0764 91.7658C23.6764 94.5658 23.6764 94.5658 55.6764 94.5658H87.8097V125.899C87.8097 156.299 87.9431 157.232 90.4764 157.232C93.0097 157.232 93.1431 156.299 93.1431 125.766V94.2991L124.876 94.6991C155.81 95.2324 156.476 95.2324 156.476 92.5658C156.476 90.0324 155.41 89.8991 124.61 89.4991L92.8764 89.2324L93.2764 58.0324C93.5431 40.8324 93.5431 26.5657 93.1431 26.2991C92.7431 25.8991 91.4097 25.8991 90.2097 26.2991Z" fill="black"/>
</svg>
