<svg width="540" height="540" viewBox="0 0 540 540" fill="none" xmlns="http://www.w3.org/2000/svg">
<rect x="0.1" y="0.1" width="179.8" height="179.8" fill="white" stroke="#CBCBCB" stroke-width="0.2"/>
<rect x="180.1" y="0.1" width="179.8" height="179.8" fill="white" stroke="#CBCBCB" stroke-width="0.2"/>
<rect x="360.1" y="0.1" width="179.8" height="179.8" fill="white" stroke="#CBCBCB" stroke-width="0.2"/>
<rect x="0.1" y="180.1" width="179.8" height="179.8" fill="white" stroke="#CBCBCB" stroke-width="0.2"/>
<rect x="180.1" y="180.1" width="179.8" height="179.8" fill="white" stroke="#CBCBCB" stroke-width="0.2"/>
<rect x="360.1" y="180.1" width="179.8" height="179.8" fill="white" stroke="#CBCBCB" stroke-width="0.2"/>
<rect x="0.1" y="360.1" width="179.8" height="179.8" fill="white" stroke="#CBCBCB" stroke-width="0.2"/>
<rect x="180.1" y="360.1" width="179.8" height="179.8" fill="white" stroke="#CBCBCB" stroke-width="0.2"/>
<rect x="360.1" y="360.1" width="179.8" height="179.8" fill="white" stroke="#CBCBCB" stroke-width="0.2"/>
<path d="M101.572 48.4011C64.5001 56.9576 38.1466 87.9123 33.4811 128.556C32.5985 136.358 32.7246 136.483 35.6247 136.483C38.3988 136.483 38.6509 135.854 40.1641 125.158C42.0555 111.317 45.9644 100.747 53.2778 89.1706C68.409 65.64 97.4105 50.666 124.142 52.4277C132.212 53.0568 142.552 56.4543 142.552 58.4676C142.552 58.8451 139.274 60.6067 135.365 62.2426C126.916 65.7659 115.946 75.8324 113.046 83.0048C108.255 94.3297 108.507 114.84 113.55 125.536C116.451 131.828 123.007 139 125.782 139C129.438 139 128.934 135.099 124.773 131.073C118.594 125.033 115.568 115.469 115.442 102.509C115.442 93.323 115.946 90.9322 118.846 85.3956C123.638 76.2099 132.338 69.0375 142.3 66.0175C146.713 64.6334 151.505 63.5009 152.766 63.5009C156.17 63.5009 155.666 61.2359 151.379 57.2093C143.813 50.1627 130.447 45.7586 117.459 46.0102C114.307 46.0102 107.12 47.1427 101.572 48.4011Z" fill="black"/>
<path d="M270.986 41.115C269.856 42.7654 268.977 44.4159 268.977 44.7968C268.977 45.0507 265.084 52.0334 260.437 60.2857C255.665 68.665 250.265 78.1869 248.256 81.7417C246.372 85.1696 242.228 92.6601 239.088 98.2463C235.949 103.832 230.423 113.862 226.781 120.464C223.014 127.066 220 133.795 220 135.318V138.238H260.563C282.791 138.238 307.028 138.492 314.563 138.619L328 139V135.064C328 132.906 327.498 130.621 326.87 129.859C326.242 129.224 322.223 121.861 317.953 113.481C313.558 105.102 309.037 96.8498 307.907 95.0723C306.902 93.2949 304.391 88.9783 302.633 85.5505C300.749 81.9956 296.981 74.8859 294.219 69.6806C291.33 64.4753 286.433 55.2074 283.293 48.9864C277.014 37.0523 274.628 35.5288 270.986 41.115ZM290.702 75.6477C298.74 90.8827 308.786 109.546 312.93 117.163C317.074 124.781 320.465 131.636 320.465 132.271C320.465 133.033 304.265 133.287 274.377 132.779C236.953 132.144 228.288 131.763 228.54 130.367C228.791 129.478 237.33 113.862 247.502 95.7071C257.8 77.5521 267.972 59.397 270.107 55.3343C272.367 51.3986 274.628 48.0977 275.005 48.0977C275.507 48.0977 282.54 60.5396 290.702 75.6477Z" fill="black"/>
<path d="M438.766 62.3864C433.353 74.0506 417.743 91.4843 405.029 100.013C398.86 104.277 387.279 109.67 379.222 112.179C376.578 112.931 376.201 116.569 378.592 117.321C379.348 117.572 413.589 118.074 454.502 118.575C524.244 119.328 529.027 119.202 529.783 117.196C530.664 114.938 528.776 112.931 525.754 112.931C522.355 112.931 503.976 102.647 496.171 96.3757C486.352 88.4741 476.532 76.5591 471.245 66.3999L467.594 59H453.873C440.403 59 440.277 59 438.766 62.3864ZM465.58 66.7762C476.029 85.0877 489.751 99.6367 504.731 108.416L514.802 114.186H454.125C420.639 114.186 393.321 113.684 393.321 113.057C393.321 112.555 397.475 109.921 402.511 107.162C414.093 100.891 432.346 83.081 439.396 71.2913L444.305 62.7627H453.747C463.188 62.7627 463.314 62.7627 465.58 66.7762Z" fill="black"/>
<path d="M451.409 221.713C450.392 223.342 443.531 235.25 436.035 248.411C428.538 261.447 421.296 274.232 419.898 276.614C402.618 306.571 398.425 314.593 399.061 316.097C400.839 320.735 403.253 317.852 415.324 296.669C419.898 288.772 427.014 276.363 431.206 269.093C435.399 261.823 442.261 249.915 446.326 242.52C450.392 235.125 454.204 229.108 454.839 228.983C455.348 228.983 456.491 230.487 457.254 232.367C458.143 234.373 460.049 237.882 461.446 240.264C462.971 242.645 466.656 249.163 469.578 254.678C495.752 303.061 504.52 317.977 506.807 317.977C509.983 317.977 509.729 315.094 505.917 308.577C502.868 303.187 486.985 274.107 467.418 238.384C455.983 217.576 454.966 216.323 451.409 221.713Z" fill="black"/>
<path d="M91.2952 215.932C90.9162 217.191 90.2846 220.968 89.7792 224.242C86.7473 246.653 69.5661 274.983 49.732 290.218C41.6468 296.387 27.6239 303.69 21.181 305.075C16.5067 306.082 14.4854 309.104 17.2647 310.867C18.2754 311.496 53.0167 312 94.5799 312C159.893 312 170 311.748 170 310.111C170 309.104 167.979 307.719 165.326 306.964C158.377 305.075 143.723 297.395 137.154 292.106C125.026 282.286 114.793 269.317 107.718 254.712C102.286 243.758 100.644 238.469 98.1171 225.753C96.4748 217.569 95.3378 214.295 93.9482 214.043C92.8112 213.791 91.5479 214.673 91.2952 215.932ZM97.8645 243.254C106.834 268.813 121.615 288.203 142.333 301.298C145.618 303.312 149.282 305.83 150.671 306.712C152.566 307.971 147.387 308.223 121.362 307.593C104.055 307.215 76.7671 306.964 60.7229 306.964H31.6666L38.9938 302.809C62.6179 289.714 81.5677 266.799 90.0319 241.113C91.9269 235.825 93.4429 231.544 93.6955 231.67C93.8219 231.922 95.7168 237.084 97.8645 243.254Z" fill="black"/>
<path d="M287.724 223.913C273.287 226.957 257.218 235.711 246.547 246.367C235.751 257.151 226.838 271.232 223.197 283.031C220.687 291.404 217.172 312.716 218.176 313.731C218.427 313.985 239.643 314.493 265.127 314.619L311.576 315L311.953 312.336C312.204 310.56 311.451 309.037 309.819 308.149C304.797 305.485 300.529 294.575 299.901 283.031C299.148 270.344 301.031 262.859 306.806 255.248C309.065 252.203 310.948 248.778 310.948 247.509C310.948 241.293 300.278 221.502 297.265 222.01C296.888 222.01 292.62 222.898 287.724 223.913ZM300.905 236.599C305.299 246.494 305.55 248.651 302.286 251.569C300.905 252.837 298.646 256.643 297.265 260.068C291.992 272.501 292.62 290.642 298.897 303.329L301.784 309.418H262.993C218.552 309.418 223.072 311.194 226.21 294.829C231.357 267.807 251.318 243.449 277.053 233.3C283.204 230.89 290.988 228.733 295.507 228.353C296.386 228.226 298.771 232.032 300.905 236.599Z" fill="black"/>
<path d="M266.76 403.542C266.508 404.421 265.126 410.324 263.744 416.604C259.849 434.941 250.174 453.153 236.479 468.475C226.93 479.151 209.088 490.455 196.775 493.846C193.759 494.599 192 495.855 192 497.111C192 502.01 210.219 494.976 225.422 484.301C242.133 472.369 258.216 450.641 264.624 430.797C266.508 425.396 268.267 420.875 268.77 420.875C269.273 420.875 270.278 423.512 271.032 426.778C273.042 434.69 282.34 453.906 287.617 461.191C296.789 473.75 307.469 483.547 320.16 491.208C326.819 495.227 338.881 500 342.399 500C344.786 500 344.409 496.232 341.896 495.479C306.338 484.049 280.581 453.529 272.539 413.464C270.529 403.542 268.267 399.523 266.76 403.542Z" fill="black"/>
<path d="M66.2589 426.758C43.397 466.933 37.7131 477.832 39.2288 479.099C39.734 479.606 64.3643 480.24 93.9206 480.493L147.602 481L147.981 477.832C148.234 475.931 145.96 470.354 142.044 463.257C138.634 456.921 131.561 444.121 126.508 434.743L117.162 417.634L94.5522 417.253L71.8166 417L66.2589 426.758ZM120.067 435.376C123.856 442.347 129.54 452.865 132.698 458.822C135.855 464.778 139.392 470.861 140.402 472.382L142.171 475.297H94.6785C44.4075 475.297 44.9127 475.424 48.9546 469.594C49.8388 468.2 54.8911 459.202 60.1961 449.697C65.5011 440.192 71.185 430.053 73.0796 427.265L76.3637 421.943L94.6785 422.323L113.12 422.703L120.067 435.376Z" fill="black"/>
<path d="M447.909 459.909V459.636C447.939 456.742 448.242 454.439 448.818 452.727C449.394 451.015 450.212 449.629 451.273 448.568C452.333 447.508 453.606 446.53 455.091 445.636C455.985 445.091 456.788 444.447 457.5 443.705C458.212 442.947 458.773 442.076 459.182 441.091C459.606 440.106 459.818 439.015 459.818 437.818C459.818 436.333 459.47 435.045 458.773 433.955C458.076 432.864 457.144 432.023 455.977 431.432C454.811 430.841 453.515 430.545 452.091 430.545C450.848 430.545 449.652 430.803 448.5 431.318C447.348 431.833 446.386 432.644 445.614 433.75C444.841 434.856 444.394 436.303 444.273 438.091H438.545C438.667 435.515 439.333 433.311 440.545 431.477C441.773 429.644 443.386 428.242 445.386 427.273C447.402 426.303 449.636 425.818 452.091 425.818C454.758 425.818 457.076 426.348 459.045 427.409C461.03 428.47 462.561 429.924 463.636 431.773C464.727 433.621 465.273 435.727 465.273 438.091C465.273 439.758 465.015 441.265 464.5 442.614C464 443.962 463.273 445.167 462.318 446.227C461.379 447.288 460.242 448.227 458.909 449.045C457.576 449.879 456.508 450.758 455.705 451.682C454.902 452.591 454.318 453.674 453.955 454.932C453.591 456.189 453.394 457.758 453.364 459.636V459.909H447.909ZM450.818 473.364C449.697 473.364 448.735 472.962 447.932 472.159C447.129 471.356 446.727 470.394 446.727 469.273C446.727 468.152 447.129 467.189 447.932 466.386C448.735 465.583 449.697 465.182 450.818 465.182C451.939 465.182 452.902 465.583 453.705 466.386C454.508 467.189 454.909 468.152 454.909 469.273C454.909 470.015 454.72 470.697 454.341 471.318C453.977 471.939 453.485 472.439 452.864 472.818C452.258 473.182 451.576 473.364 450.818 473.364Z" fill="black"/>
</svg>
