<svg width="180" height="180" viewBox="0 0 180 180" fill="none" xmlns="http://www.w3.org/2000/svg">
<rect x="0.1" y="0.1" width="179.8" height="179.8" fill="white" stroke="#CBCBCB" stroke-width="0.2"/>
<path d="M123.019 40.6701C115.152 42.0034 99.0188 48.1367 91.4188 52.8034C75.1521 62.5367 57.0188 83.6034 51.1521 99.3367C47.9521 108.137 42.8854 134.67 44.2188 136.003C44.6188 136.403 67.1521 137.07 94.3521 137.337C149.552 137.737 148.619 138.003 139.952 128.803C134.085 122.537 131.019 112.537 131.019 99.8701C131.019 89.0701 133.419 81.7367 139.819 73.4701C141.552 71.2034 143.019 68.1367 143.019 66.8034C143.019 63.2034 134.219 42.1367 132.085 40.9367C130.352 39.7367 128.752 39.7367 123.019 40.6701ZM130.085 48.6701C130.485 50.0034 132.219 54.5367 134.085 58.6701L137.552 66.1367L133.552 71.6034C126.752 81.0701 125.019 87.0701 125.152 101.07C125.152 114.137 126.885 121.87 131.285 128.003C132.619 130.003 133.285 131.737 132.752 132.003C132.085 132.27 113.419 132.27 91.2854 132.003L50.7521 131.603L51.6854 123.337C53.1521 110.803 57.4188 98.6701 63.8188 88.6701C77.5521 67.3367 94.7521 54.4034 116.885 48.4034C126.219 45.8701 129.285 46.0034 130.085 48.6701Z" fill="black"/>
</svg>
