<svg width="180" height="180" viewBox="0 0 180 180" fill="none" xmlns="http://www.w3.org/2000/svg">
<rect x="0.1" y="0.1" width="179.8" height="179.8" fill="white" stroke="#CBCBCB" stroke-width="0.2"/>
<path d="M81.0418 59C76.7751 69.2667 63.4418 85.2667 51.4418 94.6C43.0418 101 23.8418 111 19.8418 111C16.6418 111 13.5751 114.333 15.7084 115.667C17.8418 117 24.7751 115.133 35.0418 110.333C53.1751 101.933 68.2418 88.4667 79.8418 70.3333L87.0418 59L97.0418 59.4L107.042 59.6667L110.375 65.9333C122.108 88.0667 143.575 107.4 165.442 115.667C176.242 119.667 177.042 119.667 177.042 116.6C177.042 114.867 175.442 113.533 171.442 112.333C149.442 105.8 127.708 87.1333 115.042 63.9333L110.108 55H96.3751H82.6418L81.0418 59Z" fill="black"/>
</svg>
