<svg width="180" height="180" viewBox="0 0 180 180" fill="none" xmlns="http://www.w3.org/2000/svg">
<rect x="0.1" y="0.1" width="179.8" height="179.8" fill="white" stroke="#CBCBCB" stroke-width="0.2"/>
<path d="M111.686 44.7764C95.9525 50.2431 87.0192 55.9764 74.0859 68.9098C57.1525 85.8431 48.6192 104.643 47.1525 128.243C46.7525 134.11 47.0192 134.91 49.4192 134.91C51.6859 134.91 52.2192 133.443 53.5525 123.576C56.0859 106.243 58.7525 98.6431 66.7525 86.6431C73.0192 77.3098 87.9525 63.3098 97.8192 57.5764C107.819 51.7098 128.219 45.1764 130.219 47.1764C130.753 47.7098 133.019 52.3764 135.153 57.4431L139.153 66.7764L135.953 70.9098C129.286 79.8431 127.019 87.3098 127.019 101.576C126.886 113.443 127.419 115.843 130.753 123.31C134.486 131.576 141.019 138.776 143.953 137.843C147.019 136.776 146.219 132.776 142.219 129.576C136.486 124.643 132.753 113.71 132.753 101.71C132.753 90.5098 134.886 83.4431 140.753 75.0431C142.886 71.7098 144.753 67.9764 144.753 66.5098C144.753 64.2431 137.553 46.5098 135.019 42.5098C133.153 39.8431 123.419 40.7764 111.686 44.7764Z" fill="black"/>
</svg>
