<svg width="180" height="180" viewBox="0 0 180 180" fill="none" xmlns="http://www.w3.org/2000/svg">
<rect x="0.1" y="0.1" width="179.8" height="179.8" fill="white" stroke="#CBCBCB" stroke-width="0.2"/>
<path d="M109.667 41.0523C78.2 45.8523 49.1333 68.519 37.1333 97.5857C33.4 106.386 29 126.119 29 133.719C29 136.919 29.2667 136.919 42.0667 136.919C49.1333 136.919 71.5333 137.319 91.8 137.852C128.067 138.652 128.733 138.652 129.533 135.986C130.2 133.986 129 131.986 125.133 128.119C118.867 121.719 116.6 114.652 116.467 100.919C116.333 88.919 118.2 82.919 124.867 74.519C131.133 66.7857 141.133 61.1857 151.267 59.8523C157.933 58.919 159 58.519 158.6 56.2523C157.933 52.6523 153.933 49.5857 143.933 44.6523C134.333 39.9857 123.4 38.919 109.667 41.0523ZM139.8 49.0523C143.4 50.6523 146.333 52.3857 146.333 52.7857C146.333 53.319 142.867 55.1857 138.733 56.919C124.333 62.919 113.4 76.2523 110.6 91.1857C108.867 100.919 111 116.119 115.4 124.919L119.133 132.252L77.6667 131.719C55 131.586 36.0667 131.052 35.8 130.919C35.5333 130.652 36.3333 124.919 37.4 118.252C42.2 90.2523 63.1333 64.3857 90.4667 52.7857C102.333 47.719 108.067 46.519 122.067 46.3857C130.733 46.2523 134.6 46.919 139.8 49.0523Z" fill="black"/>
</svg>
