<svg width="180" height="180" viewBox="0 0 180 180" fill="none" xmlns="http://www.w3.org/2000/svg">
<rect x="0.1" y="0.1" width="179.8" height="179.8" fill="white" stroke="#CBCBCB" stroke-width="0.2"/>
<path d="M92 39.9326C92 45.7992 86.6667 63.7992 82.1333 73.6659C67.7333 104.999 46.5333 123.533 14.4 133.533C13.0667 133.933 12 135.266 12 136.466C12 139.533 19.3333 137.933 31.6 132.333C59.6 119.399 79.2 97.3992 90.6667 66.3326C92.9333 60.1992 95.0667 54.8659 95.3333 54.5992C95.6 54.3326 96.5333 57.5326 97.3333 61.6659C98.2667 65.7992 102.133 75.6659 106 83.5326C117.467 106.199 134 122.999 155.467 133.666C167.867 139.933 175.333 141.799 175.333 138.599C175.333 137.666 170.533 134.999 164.667 132.599C151.333 127.133 145.733 123.533 134.4 112.999C117.2 97.2659 104.4 73.5326 98.9333 47.2659C97.2 39.1326 96.2667 36.9992 94.4 36.9992C92.8 36.9992 92 38.0659 92 39.9326Z" fill="black"/>
</svg>
