<svg width="180" height="180" viewBox="0 0 180 180" fill="none" xmlns="http://www.w3.org/2000/svg">
<rect x="0.1" y="0.1" width="179.8" height="179.8" fill="white" stroke="#CBCBCB" stroke-width="0.2"/>
<path d="M93.6148 37.9011C92.4148 38.7011 89.3481 43.3678 86.5481 48.1678C83.8815 52.9678 76.2815 66.4344 69.6148 78.1678C63.0815 89.9011 56.1481 102.168 54.2815 105.501C52.4148 108.834 49.4815 113.768 47.7481 116.434C46.1481 119.234 44.6815 121.768 44.6815 122.034C44.6815 122.434 42.5481 126.301 39.8815 130.834C36.2815 136.701 35.3481 139.368 36.4148 140.434C37.2148 141.234 38.6815 141.501 39.6148 141.234C41.3481 140.434 52.5481 121.634 70.0148 90.1678C84.0148 64.9678 94.6815 46.8344 95.3481 46.8344C95.7481 46.8344 101.748 57.5011 108.681 70.4344C115.481 83.5011 123.215 97.7678 125.615 102.168C128.015 106.568 132.681 115.234 136.015 121.501C145.615 140.168 146.948 142.168 149.215 142.568C154.148 143.634 151.081 135.901 135.081 106.834C131.615 100.701 125.615 89.2344 108.815 57.2344C98.1481 37.1011 96.8148 35.3678 93.6148 37.9011Z" fill="black"/>
</svg>
