<svg width="540" height="540" viewBox="0 0 540 540" fill="none" xmlns="http://www.w3.org/2000/svg">
<rect x="0.1" y="0.1" width="179.8" height="179.8" fill="white" stroke="#CBCBCB" stroke-width="0.2"/>
<rect x="180.1" y="0.1" width="179.8" height="179.8" fill="white" stroke="#CBCBCB" stroke-width="0.2"/>
<rect x="360.1" y="0.1" width="179.8" height="179.8" fill="white" stroke="#CBCBCB" stroke-width="0.2"/>
<rect x="0.1" y="180.1" width="179.8" height="179.8" fill="white" stroke="#CBCBCB" stroke-width="0.2"/>
<rect x="180.1" y="180.1" width="179.8" height="179.8" fill="white" stroke="#CBCBCB" stroke-width="0.2"/>
<rect x="360.1" y="180.1" width="179.8" height="179.8" fill="white" stroke="#CBCBCB" stroke-width="0.2"/>
<rect x="0.1" y="360.1" width="179.8" height="179.8" fill="white" stroke="#CBCBCB" stroke-width="0.2"/>
<rect x="180.1" y="360.1" width="179.8" height="179.8" fill="white" stroke="#CBCBCB" stroke-width="0.2"/>
<rect x="360.1" y="360.1" width="179.8" height="179.8" fill="white" stroke="#CBCBCB" stroke-width="0.2"/>
<path d="M442.909 466.909V466.636C442.939 463.742 443.242 461.439 443.818 459.727C444.394 458.015 445.212 456.629 446.273 455.568C447.333 454.508 448.606 453.53 450.091 452.636C450.985 452.091 451.788 451.447 452.5 450.705C453.212 449.947 453.773 449.076 454.182 448.091C454.606 447.106 454.818 446.015 454.818 444.818C454.818 443.333 454.47 442.045 453.773 440.955C453.076 439.864 452.144 439.023 450.977 438.432C449.811 437.841 448.515 437.545 447.091 437.545C445.848 437.545 444.652 437.803 443.5 438.318C442.348 438.833 441.386 439.644 440.614 440.75C439.841 441.856 439.394 443.303 439.273 445.091H433.545C433.667 442.515 434.333 440.311 435.545 438.477C436.773 436.644 438.386 435.242 440.386 434.273C442.402 433.303 444.636 432.818 447.091 432.818C449.758 432.818 452.076 433.348 454.045 434.409C456.03 435.47 457.561 436.924 458.636 438.773C459.727 440.621 460.273 442.727 460.273 445.091C460.273 446.758 460.015 448.265 459.5 449.614C459 450.962 458.273 452.167 457.318 453.227C456.379 454.288 455.242 455.227 453.909 456.045C452.576 456.879 451.508 457.758 450.705 458.682C449.902 459.591 449.318 460.674 448.955 461.932C448.591 463.189 448.394 464.758 448.364 466.636V466.909H442.909ZM445.818 480.364C444.697 480.364 443.735 479.962 442.932 479.159C442.129 478.356 441.727 477.394 441.727 476.273C441.727 475.152 442.129 474.189 442.932 473.386C443.735 472.583 444.697 472.182 445.818 472.182C446.939 472.182 447.902 472.583 448.705 473.386C449.508 474.189 449.909 475.152 449.909 476.273C449.909 477.015 449.72 477.697 449.341 478.318C448.977 478.939 448.485 479.439 447.864 479.818C447.258 480.182 446.576 480.364 445.818 480.364Z" fill="black"/>
<path d="M213.867 32.4449C213.6 33.5115 212.933 59.5115 212.667 90.4449L212 146.578L240.8 147.378C256.8 147.912 282.667 148.312 298.533 148.312H327.333L328.133 124.045C328.667 110.845 329.067 84.7115 329.067 66.0449V32.3115H299.467C283.067 32.3115 257.333 31.9115 242.133 31.3782C219.067 30.7115 214.4 30.8449 213.867 32.4449ZM282 37.6449H323.733V53.2449C323.733 61.9115 323.333 85.6449 322.8 106.178L322 143.245L310.533 142.445C304.267 142.045 280.933 141.645 258.667 141.645H218.267L218.533 96.9782C218.533 72.3115 218.933 48.5782 219.333 44.0449L220.133 35.9115L230.133 36.8449C235.6 37.2449 258.933 37.6449 282 37.6449Z" fill="black"/>
<path d="M259.733 68.3122V78.9788H249.067H238.4V89.6455V100.179L248.8 100.579L259.067 100.979L259.467 111.246L259.867 121.646H270.4H281.067V111.646V101.646L290.133 101.512C295.067 101.379 299.733 101.379 300.533 101.512C302 101.646 304.133 82.1788 302.8 79.9122C302.533 79.3788 297.733 78.9788 292.267 78.9788H282.4V68.3122V57.6455H271.067H259.733V68.3122Z" fill="black"/>
<path d="M37.3333 38.5005C37.3333 39.3005 45.8667 48.6339 56.4 59.1672C74.6667 77.7005 75.2 78.5005 72.6667 80.5005C68 84.1005 59.4667 87.5672 55.0667 87.5672C51.6 87.5672 50.6667 88.1005 50.6667 90.2339C50.6667 91.9672 51.8667 93.1672 54.4 93.7005C62.1333 95.4339 67.4667 97.3005 70.9333 99.8339L74.5333 102.367L55.3333 121.167C44.6667 131.434 36 140.501 36 141.034C36 145.167 42.9333 139.967 58.6667 124.234C68.5333 114.367 77.3333 106.234 78.1333 106.234C80.5333 106.234 85.8667 117.167 86.6667 123.567C87.6 132.234 90.5333 131.434 93.2 121.567C95.3333 113.967 99.3333 106.234 101.2 106.234C101.6 106.234 110.4 114.634 120.667 124.901C138.133 142.501 142.667 145.967 142.667 141.834C142.667 140.901 134.267 131.834 124 121.567C113.733 111.301 105.333 102.501 105.333 101.967C105.333 99.9672 116.933 94.3672 123.067 93.5672C126.533 93.0339 129.333 91.8339 129.333 91.0339C129.333 90.1005 125.867 88.3672 121.733 87.1672C117.467 85.9672 112 83.7005 109.467 82.1005L104.8 79.3005L124.667 60.3672C137.867 47.8339 144.133 40.9005 143.467 39.7005C142.933 38.9005 141.867 38.2339 141.333 38.5005C140.667 38.7672 131.733 47.0339 121.333 56.9005C110.933 66.7672 102 75.0339 101.467 75.3005C99.7333 75.8339 93.4667 63.0339 92.5333 57.1672C91.8667 52.9005 91.0667 51.5672 89.2 51.5672C87.4667 51.5672 86.6667 52.5005 86.6667 54.7672C86.6667 58.7672 80.1333 74.2339 78.5333 74.2339C77.8667 74.2339 69.0667 65.8339 59.2 55.5672C42.4 38.3672 37.3333 34.3672 37.3333 38.5005Z" fill="black"/>
<path d="M432.817 32.8256C424.683 34.9589 412.683 42.1589 405.75 49.0923C377.75 77.0923 386.017 125.226 421.883 142.692C431.617 147.492 439.617 148.959 452.283 148.426C461.617 147.892 464.683 147.092 472.817 142.959C518.417 119.892 518.017 58.6923 472.283 36.6923C464.417 32.8256 462.017 32.4256 450.15 32.0256C442.817 31.8923 435.083 32.2923 432.817 32.8256ZM460.817 39.0923C476.817 43.2256 488.417 53.0923 496.017 68.8256C500.283 77.8923 500.683 80.0256 500.683 90.1589C500.817 100.426 500.283 102.692 496.283 111.359C488.283 128.426 472.817 140.026 455.35 142.159C431.217 144.959 409.883 133.626 399.35 112.292C395.883 104.959 395.483 103.092 395.483 90.2923C395.483 78.0256 395.883 75.3589 398.95 68.9589C410.15 45.2256 436.283 32.5589 460.817 39.0923Z" fill="black"/>
<path d="M421.483 49.6257C421.483 50.6923 422.417 51.6257 423.483 51.6257C426.417 51.6257 434.683 59.4923 437.35 64.8257C440.283 70.559 443.617 83.2257 442.55 84.2923C441.35 85.4923 429.483 82.159 422.55 78.8257C416.683 75.8923 412.283 71.2257 410.417 65.8923C409.883 64.6923 408.417 63.6257 406.95 63.6257C404.417 63.6257 404.283 64.6923 404.15 89.6257C404.15 113.759 404.283 115.626 406.55 115.626C407.883 115.626 409.483 114.026 410.417 111.759C413.083 104.559 429.483 95.6257 439.883 95.6257C442.683 95.6257 442.95 96.0257 442.15 99.8923C439.483 111.492 431.483 123.626 424.55 126.426C422.683 127.092 421.483 128.692 421.483 130.292C421.483 132.826 422.283 132.959 447.483 132.959C472.15 132.959 473.483 132.826 473.483 130.426C473.483 128.826 472.283 127.626 470.283 127.092C463.483 125.359 453.483 108.292 453.483 98.559C453.483 95.4923 453.883 95.359 458.55 96.2923C467.083 97.8923 476.017 102.426 480.817 107.759C483.35 110.692 485.483 113.892 485.483 114.959C485.483 116.026 486.683 116.959 488.15 116.959C490.817 116.959 490.817 116.292 490.55 90.6923C490.15 64.0257 489.083 58.959 485.617 67.4923C483.617 72.0257 479.883 75.759 473.483 79.2257C468.15 82.159 455.083 85.6257 453.883 84.4257C453.483 84.0257 453.75 80.2923 454.683 76.2923C456.817 66.8257 463.483 56.959 469.75 53.8923C472.95 52.2923 474.417 50.8257 473.883 49.4923C472.817 46.559 421.483 46.6923 421.483 49.6257Z" fill="black"/>
<path d="M212.8 220.133C212.4 224.533 212 250.267 212 277.333V326.4L232.4 326.8C243.467 327.067 269.6 327.467 290.4 327.6L328 328V289.6C328 268.4 328.4 242.933 328.933 232.933C329.6 218 329.333 214.533 327.867 214C326.8 213.733 300.667 213.067 269.867 212.667L213.733 212L212.8 220.133ZM322.667 256.267C322.667 277.067 322.267 300.667 321.733 308.533L320.933 322.933L288.133 322.133C270.133 321.6 246.667 321.2 236.133 321.2H216.933L217.733 279.467C218.267 256.667 218.667 233.467 218.667 228.133V218.533H270.667H322.667V256.267Z" fill="black"/>
<path d="M244 229.734C244 230.667 245.867 232.267 248.133 233.201C256.133 236.534 262 246.267 264.533 260.267C265.333 264.801 265.2 265.334 263.067 264.667C261.733 264.401 258 263.334 254.8 262.534C244.8 259.867 233.333 250.934 233.333 245.734C233.333 244.667 232.133 243.867 230.667 243.867C228.133 243.867 228 244.801 228 264.801C228 276.401 227.6 288.134 227.2 290.801C226.4 295.201 226.667 295.867 228.8 295.867C230.4 295.867 232.4 294.001 234 291.067C237.2 285.067 241.333 282.134 251.733 278.667C263.333 274.801 265.6 274.934 264.533 279.467C261.067 293.867 252.667 306.534 246.667 306.534C244.933 306.534 244 307.467 244 309.201C244 311.734 244.933 311.867 261.867 311.867C271.6 311.867 283.333 312.267 287.867 312.667C295.333 313.467 296 313.334 296 310.934C296 309.334 294.267 307.601 291.333 306.134C288.667 304.801 285.067 301.334 282.933 298.001C279.333 292.267 274.933 277.734 276.533 276.267C277.867 274.934 290.267 278.667 297.2 282.667C302.533 285.734 304.8 288.134 306.533 292.001C307.733 295.067 309.467 297.067 310.533 296.934C313.467 296.401 314.4 243.867 311.467 243.867C310.4 243.867 308.4 246.134 307.067 248.801C305.467 251.734 301.867 255.467 298.533 257.467C292.8 260.934 277.467 265.867 276.267 264.534C275.867 264.134 276.667 260.001 277.867 255.334C280.667 245.067 286.267 236.934 292.667 234.001C295.2 232.801 297.333 230.934 297.333 229.867C297.333 228.134 293.067 227.867 270.667 227.867C248.933 227.867 244 228.267 244 229.734Z" fill="black"/>
<path d="M38.3158 219.866C38.3158 220.933 46.7158 230.533 57.1158 241.2L75.9158 260.666H67.1158H58.3158V271.333V282H66.3158C70.7158 282 74.3158 282.533 74.3158 283.066C74.3158 283.6 65.9158 292 55.6491 301.866C38.7158 317.866 34.3158 323.333 38.4491 323.333C39.2491 323.333 48.3158 315.333 58.5824 305.6C68.8491 296 77.7824 287.733 78.5824 287.466C79.3824 287.2 79.6491 290.133 79.5158 294.8L79.1158 302.666L90.0491 303.066L100.982 303.466V294.4V285.333L120.982 305.333C137.116 321.466 140.982 324.8 141.782 322.8C142.449 320.933 138.449 316.266 124.182 301.866L105.649 283.333H114.049H122.316V272V260.666H114.316C109.916 260.666 106.316 260.133 106.316 259.466C106.316 258.8 106.849 258 107.516 257.733C108.316 257.466 116.716 249.6 126.182 240.266C142.182 224.533 146.182 219.333 142.182 219.333C141.382 219.333 132.316 227.6 122.049 237.6C111.916 247.733 102.849 256.266 102.049 256.533C100.982 256.933 100.849 254.4 101.382 248.133L102.182 239.333H90.9824H79.6491V248.266L79.5158 257.333L60.3158 237.6C49.7824 226.8 40.4491 218 39.7824 218C38.9824 218 38.3158 218.8 38.3158 219.866Z" fill="black"/>
<path d="M434.014 214.171C416.814 218.038 401.081 230.571 393.614 246.038C376.814 281.505 399.481 323.371 438.148 328.038C454.414 330.038 464.681 328.171 476.948 320.838C486.814 314.838 491.214 310.705 496.414 302.571C515.881 272.305 502.814 231.638 469.348 217.771C458.014 213.105 444.681 211.771 434.014 214.171ZM463.614 221.505C494.414 232.038 508.681 267.238 493.748 295.771C486.414 309.905 471.081 320.305 454.281 322.705C440.281 324.705 427.481 321.638 415.881 313.638C380.414 288.838 389.614 233.771 431.348 220.838C440.014 218.038 454.548 218.438 463.614 221.505Z" fill="black"/>
<path d="M443.614 237.105C440.814 252.172 427.748 265.505 413.481 267.905C405.348 269.372 405.881 272.172 414.681 274.439C431.348 278.705 444.281 292.305 444.281 305.639C444.281 310.705 447.881 310.839 449.081 305.772C452.948 288.439 464.281 276.705 480.014 274.172C487.748 272.972 487.214 270.172 478.681 267.639C462.948 263.105 451.881 251.772 450.148 238.572C449.481 233.639 448.681 232.172 446.948 232.172C445.214 232.172 444.281 233.639 443.614 237.105Z" fill="black"/>
<path d="M212.8 444.866C212.8 474.466 212.4 500.333 212.133 502.333C211.867 504.2 212 506.2 212.533 506.466C213.2 506.866 239.467 507.266 270.933 507.533L328.267 508.066L328.667 450.333L329.067 392.733H306C293.333 392.733 267.2 392.333 248 391.8L212.933 391L212.8 444.866ZM290.133 398.066H324L322.933 449.666C322.4 478.2 321.867 501.666 321.6 502.066C321.333 502.466 298 502.6 269.733 502.333L218.267 502.066V450.2C218.267 421.8 218.667 398.066 219.333 397.4C219.867 396.866 228.4 396.733 238.267 397.266C248.133 397.666 271.467 398.066 290.133 398.066Z" fill="black"/>
<path d="M269.2 411.666C268.267 412.599 267.6 414.466 267.6 415.933C267.6 420.999 261.467 432.066 255.733 437.133C249.733 442.599 245.867 444.466 237.733 445.799C228.133 447.533 230.4 450.866 243.067 454.066C255.2 456.999 266.267 469.933 268.4 483.266C269.467 490.199 272.533 490.466 273.733 483.666C276.533 468.599 289.6 454.866 303.2 452.999C310.8 451.799 312.933 448.066 306.667 446.599C288.533 442.599 277.733 433.266 274.133 418.466C272.267 410.866 271.333 409.533 269.2 411.666Z" fill="black"/>
<path d="M37.6761 398.334C37.1428 399.134 46.4761 409.4 58.2095 421.4C71.2761 434.6 78.7428 443.134 77.6761 443.4C75.0095 444.067 61.1428 437.534 57.4095 434.067C55.8095 432.6 53.8095 429.667 53.0095 427.534C51.9428 425.267 50.3428 423.667 48.8761 423.667C46.4761 423.667 46.3428 425.134 46.3428 449.667C46.3428 473.534 46.4761 475.667 48.7428 475.667C49.9428 475.667 51.9428 473.667 53.0095 471.267C54.0761 469 57.4095 465.4 60.3428 463.4C65.9428 459.667 79.6761 455 79.6761 456.867C79.6761 457.534 70.0761 467.134 58.3428 478.334C39.0095 496.867 33.6761 503.267 38.8761 502.067C39.9428 501.8 50.3428 492.334 61.9428 481.134C84.0761 459.4 87.2761 457.8 79.9428 472.6C75.6761 480.867 71.4095 485.534 66.7428 487C64.8761 487.534 63.6761 488.867 63.6761 490.467C63.6761 492.867 64.8761 493 89.6761 493C114.343 493 115.676 492.867 115.676 490.467C115.676 489 114.476 487.667 112.476 487.134C110.743 486.734 107.543 484.467 105.143 482.067C101.009 477.8 95.2761 464.867 95.9428 461.267C96.2095 460.2 105.143 468.734 117.409 481.534C136.609 501.534 143.276 507.134 142.076 501.8C141.809 500.734 132.476 490.467 121.276 479C110.076 467.4 101.276 457.667 101.676 457.267C102.743 456.2 114.209 460.6 119.409 464.067C121.809 465.667 124.743 469.267 125.943 471.934C127.409 475.134 129.143 477 130.609 477C132.876 477 133.009 475.134 133.009 451C133.009 425.934 132.876 425 130.343 425C128.876 425 127.676 425.667 127.676 426.467C127.676 430.2 121.276 436.334 113.543 439.934C97.8095 447.267 99.2761 444.2 122.209 422.467C141.809 403.8 146.343 398.334 142.209 398.334C141.409 398.334 130.743 407.934 118.609 419.667C104.609 433.134 96.2095 440.2 95.9428 439C95.4095 436.334 101.809 422.467 105.276 418.734C106.743 417.134 109.676 415.134 111.809 414.334C114.076 413.267 115.676 411.667 115.676 410.2C115.676 407.8 114.209 407.667 89.6761 407.667C68.0761 407.667 63.6761 407.934 63.6761 409.534C63.6761 410.6 65.9428 412.6 68.6095 413.934C71.2761 415.267 74.6095 417.8 75.9428 419.667C79.0095 423.8 85.1428 438.734 84.2095 439.667C83.8095 440.067 73.8095 430.6 62.0761 418.6C50.3428 406.734 40.3428 397 39.6761 397C39.0095 397 38.0761 397.667 37.6761 398.334Z" fill="black"/>
</svg>
