<svg width="180" height="180" viewBox="0 0 180 180" fill="none" xmlns="http://www.w3.org/2000/svg">
<rect x="0.1" y="0.1" width="179.8" height="179.8" fill="white" stroke="#CBCBCB" stroke-width="0.2"/>
<path d="M34.6492 38.3337C34.9158 39.1337 44.9158 49.667 57.0492 61.9337C78.7825 83.8003 79.0492 84.067 73.7158 83.1337C70.7825 82.6003 65.4492 80.467 61.7158 78.467C55.7158 75.1337 53.0492 72.2003 48.2492 64.2003C47.4492 62.867 46.2492 62.3337 45.3158 62.867C44.1158 63.5337 43.7158 71.1337 43.7158 89.8003C43.7158 111.8 43.9825 115.667 45.7158 115.667C46.7825 115.667 48.9158 113.267 50.3825 110.467C52.3825 106.334 54.7825 104.334 61.3158 101.134C65.9825 98.867 71.8492 96.6003 74.3825 96.2003L79.0492 95.4003L71.0492 103C66.6492 107.267 56.2492 117.267 47.9825 125.134C34.3825 138.067 31.4492 142.334 35.9825 142.334C36.7825 142.334 47.0492 132.867 58.7825 121.267C70.5158 109.8 80.3825 101 80.6492 101.934C81.5825 104.467 74.5158 119.134 70.7825 122.2C69.0492 123.8 66.1158 125.667 64.2492 126.334C62.3825 127.134 61.0492 128.734 61.0492 130.2C61.0492 132.734 62.2492 132.734 87.0492 133C112.383 133.134 113.049 133 113.049 130.334C113.049 128.734 112.116 127.667 110.783 127.667C106.649 127.667 97.4492 116.467 95.0492 108.334C93.8492 104.067 93.1825 100.467 93.4492 100.2C93.7158 99.9337 103.716 109.534 115.583 121.667C127.449 133.8 137.849 143.667 138.516 143.667C142.383 143.667 137.583 137.534 119.183 118.734C107.849 107.134 98.1158 97.267 97.5825 96.7337C97.0492 96.067 99.8492 96.6003 103.716 97.8003C115.849 101.4 125.049 108.6 125.049 114.6C125.049 116.067 125.983 117 127.583 117C129.983 117 130.116 115.534 130.649 91.267C131.183 66.2003 130.383 60.3337 127.183 65.5337C121.583 75.0003 109.183 83.667 101.183 83.667C98.3825 83.667 101.716 79.9337 119.449 62.867C139.049 44.067 144.516 37.4003 139.183 38.6003C138.116 38.867 127.983 48.2003 116.516 59.267C105.049 70.467 95.1825 79.667 94.5158 79.667C92.3825 79.667 96.6492 67.5337 100.649 61.8003C102.649 58.867 106.649 55.4003 109.449 53.9337C112.116 52.6003 114.383 50.6003 114.383 49.5337C114.383 47.9337 109.716 47.667 87.7158 47.667C64.9158 47.667 61.0492 47.9337 61.0492 49.667C61.0492 50.7337 61.9825 51.667 63.0492 51.667C65.9825 51.667 74.2492 59.5337 76.9158 64.867C80.1158 71.0003 82.5158 79.667 81.0492 79.667C80.5158 79.667 70.7825 70.067 59.5825 58.3337C47.5825 45.8003 38.1158 37.0003 36.6492 37.0003C35.3158 37.0003 34.3825 37.667 34.6492 38.3337Z" fill="black"/>
</svg>
