<svg width="180" height="180" viewBox="0 0 180 180" fill="none" xmlns="http://www.w3.org/2000/svg">
<rect x="0.1" y="0.1" width="179.8" height="179.8" fill="white" stroke="#CBCBCB" stroke-width="0.2"/>
<path d="M32.6 32.4443C32.2 33.511 31.8 59.6443 31.5333 90.5777L31 146.711L35.8 147.378C38.3333 147.644 64.6 148.044 94.2 148.178L147.8 148.444V106.044C147.933 82.711 148.2 56.5777 148.6 47.911L149.4 32.311H111.533C90.6 32.311 64.4667 31.911 53.4 31.3777C36.7333 30.711 33.1333 30.8443 32.6 32.4443ZM142.467 86.711C142.333 113.644 141.933 137.244 141.533 139.244L140.867 142.978H111.133C94.8667 142.978 71.5333 142.578 59.1333 142.044L36.8667 141.244L37.4 90.4443C37.6667 62.4443 38.3333 38.9777 38.7333 38.311C39.2667 37.511 58.3333 37.111 91 37.3777L142.6 37.6443L142.467 86.711Z" fill="black"/>
<path d="M85.8001 59.6447C81.9334 74.178 68.0668 86.8447 56.2001 86.978C47.5334 86.978 49.5334 91.2447 59.5334 93.6447C67.2668 95.5114 77.9334 102.578 82.3334 108.978C83.9334 111.378 85.9334 116.578 86.7334 120.711C88.4668 128.845 91.2668 130.711 92.6001 124.578C96.4668 107.111 108.2 94.7114 122.6 92.8447C127.533 92.178 129.133 91.378 129.133 89.6447C129.133 88.0447 127.267 86.978 121.8 85.778C107.8 82.578 95.2668 70.0447 93.6668 57.378C93.0001 52.578 92.2001 50.978 90.4668 50.978C88.7334 50.978 87.5334 53.2447 85.8001 59.6447Z" fill="black"/>
</svg>
