<svg width="180" height="180" viewBox="0 0 180 180" fill="none" xmlns="http://www.w3.org/2000/svg">
<rect x="0.1" y="0.1" width="179.8" height="179.8" fill="white" stroke="#CBCBCB" stroke-width="0.2"/>
<path d="M30.9333 65.9331C30.4 84.1997 30 109.666 30 122.6V146.333H54.4C67.7333 146.333 93.0667 146.733 110.8 147.266L142.933 148.066L143.733 138.866C144.267 133.8 144.667 108.333 144.933 82.3331L145.2 34.9997L111.867 34.1997C93.6 33.7997 68.1333 33.2664 55.2 33.1331L31.7333 32.9997L30.9333 65.9331ZM115.2 39.6664H136L114 61.6664C101.867 73.7997 90.9333 84.3331 89.7333 84.9997C87.8667 86.0664 83.4667 82.1997 65.0667 63.5331C52.8 50.9997 42.4 40.1997 42.1333 39.3997C41.7333 38.3331 49.2 38.1997 68 38.7331C82.5333 39.2664 103.733 39.6664 115.2 39.6664ZM61.0667 66.3331C73.3333 78.7331 83.3333 89.5331 83.3333 90.0664C83.3333 91.7997 38.2667 135.666 36.4 135.666C35.3333 135.666 35.2 129.933 35.7333 113.4C36.2667 101.266 36.6667 80.5997 36.6667 67.3997C36.6667 54.3331 37.2 43.6664 37.7333 43.6664C38.4 43.6664 48.9333 53.7997 61.0667 66.3331ZM138.4 122.466L137.333 137.8L114.267 114.2L91.2 90.5997L114.933 67.2664L138.667 43.9331L139.067 75.3997C139.2 92.8664 138.933 113.933 138.4 122.466ZM111.333 117.666C124 130.466 134.267 141.133 133.867 141.4C133.6 141.666 112.133 141.666 86.4 141.266L39.3333 140.733L63.0667 117.533C76 104.866 86.9333 94.4664 87.3333 94.3331C87.7333 94.3331 98.5333 104.866 111.333 117.666Z" fill="black"/>
</svg>
