<svg width="180" height="180" viewBox="0 0 180 180" fill="none" xmlns="http://www.w3.org/2000/svg">
<rect x="0.1" y="0.1" width="179.8" height="179.8" fill="white" stroke="#CBCBCB" stroke-width="0.2"/>
<path d="M72.3036 34.2069C56.0369 39.5402 43.5036 50.4735 36.5702 65.4069C20.0369 100.874 41.9036 141.407 81.1036 147.94C120.037 154.34 155.637 119.407 148.704 81.2735C145.104 61.0069 133.637 45.9402 115.77 37.4069C106.704 33.1402 104.304 32.4735 92.8369 32.0735C82.8369 31.8069 78.1702 32.2069 72.3036 34.2069ZM103.237 39.0069C120.57 43.1402 136.17 57.6735 141.237 74.7402C144.037 83.9402 143.77 97.6735 140.704 106.74C128.837 143.007 82.1702 154.607 54.0369 128.34C36.9702 112.34 32.1702 89.4069 41.6369 68.7402C48.7036 53.6735 60.7036 43.4069 76.5702 39.1402C86.0369 36.6069 92.5703 36.6069 103.237 39.0069Z" fill="black"/>
<path d="M79.2369 68.7398V79.0065L68.5702 78.6065L57.9036 78.0732V89.5398V101.007H68.5702H79.2369V111.673V122.34H89.9036H100.57L100.704 113.673C100.837 108.873 100.97 104.207 101.104 103.273C101.237 102.207 104.704 101.407 111.77 101.007L122.304 100.34L122.837 89.9398L123.37 79.6732H112.57H101.904V69.0065V58.3398H90.5702H79.2369V68.7398Z" fill="black"/>
</svg>
