<svg width="180" height="180" viewBox="0 0 180 180" fill="none" xmlns="http://www.w3.org/2000/svg">
<rect x="0.1" y="0.1" width="179.8" height="179.8" fill="white" stroke="#CBCBCB" stroke-width="0.2"/>
<path d="M71.2667 34.2572C45.5333 43.8572 31 64.5238 31 91.4571C31.1333 126.79 63.9333 153.99 99.2667 147.99C126.333 143.324 146.333 121.19 147.933 93.8571C149.533 68.9238 136.733 47.5905 113.667 36.5238C106.067 32.9238 103.4 32.3905 91.6667 32.1238C81 31.7238 76.8667 32.2572 71.2667 34.2572ZM111.4 42.1238C127 49.5905 136.867 61.4572 141.133 78.2571C144.067 89.8571 142.733 100.79 137.133 112.657C126.733 134.124 105.533 145.324 81.2667 142.124C58.7333 139.19 41.4 121.59 37.2667 97.5905C33.6667 76.6571 45.2667 54.2572 65.4 43.3238C79.1333 35.8572 97.1333 35.3238 111.4 42.1238Z" fill="black"/>
<path d="M87.0001 53.0566C87.0001 57.99 81.6667 69.99 77.0001 75.3233C71.8001 81.4566 60.4667 87.7233 54.7334 87.7233C48.2001 87.7233 50.6001 91.19 58.7334 93.4566C73.4001 97.4566 84.7334 109.457 86.4667 122.657C87.6667 131.457 90.8667 130.923 93.0001 121.59C96.3334 106.657 111 93.0566 123.667 93.0566C127.267 93.0566 128.333 92.5233 128.333 90.6566C128.333 88.9233 126.6 87.7233 121.933 86.5233C107.267 82.79 94.6001 69.8566 92.8667 56.79C92.2001 51.7233 91.5334 50.39 89.5334 50.39C87.9334 50.39 87.0001 51.3233 87.0001 53.0566Z" fill="black"/>
</svg>
