<svg width="180" height="180" viewBox="0 0 180 180" fill="none" xmlns="http://www.w3.org/2000/svg">
<rect x="0.1" y="0.1" width="179.8" height="179.8" fill="white" stroke="#CBCBCB" stroke-width="0.2"/>
<path d="M73.3599 33.9305C43.4933 41.9305 25.7599 68.3305 29.4933 99.2638C32.2933 122.864 51.0933 143.397 74.2933 147.931C102.56 153.397 127.893 141.264 139.893 116.597C146.427 102.997 147.893 91.6638 144.693 78.0638C141.893 66.3305 138.827 60.4638 130.56 51.3972C122.56 42.5972 115.76 38.4638 103.36 34.5972C92.9599 31.3972 83.6266 31.1305 73.3599 33.9305ZM109.627 42.7305C119.493 47.3972 130.96 58.8638 135.627 68.7305C138.827 75.6638 139.227 78.0638 139.227 90.4638C139.227 103.397 138.96 105.13 135.093 113.13C129.627 124.331 120.16 133.797 109.227 138.997C101.493 142.597 99.0933 142.997 87.2266 142.997C75.3599 143.131 72.9599 142.731 66.1599 139.531C55.3599 134.464 43.7599 122.997 39.0933 112.73C35.7599 105.397 35.2266 102.864 35.2266 91.1305C35.2266 78.9972 35.6266 76.9972 39.3599 69.1305C45.8933 55.2638 58.0266 44.7305 73.2266 39.6638C75.0933 38.9972 82.2933 38.7305 89.2266 38.8638C99.6266 39.1305 103.227 39.9305 109.627 42.7305Z" fill="black"/>
<path d="M61.2268 49.6642C61.2268 50.7309 63.3601 52.7309 66.0268 53.9309C71.3601 56.4642 77.8934 65.5309 79.7601 73.1309C82.8268 85.3975 82.8268 85.1309 79.3601 85.1309C74.0268 85.1309 61.3601 79.9309 56.5601 75.6642C54.1601 73.5309 51.4934 69.9309 50.5601 67.7975C49.4934 65.1309 48.0268 63.7975 46.6935 64.0642C44.8268 64.4642 44.5601 67.9309 44.1601 90.8642C43.8935 114.064 44.0268 117.131 45.8935 117.131C47.0934 117.131 48.6934 115.264 49.4934 113.131C50.1601 110.864 53.4934 106.998 56.6934 104.598C62.9601 99.7975 79.0934 94.4642 81.2268 96.5975C82.9601 98.3309 77.2268 114.464 72.9601 119.931C71.0934 122.464 67.8934 125.398 65.7601 126.464C61.3601 128.731 59.7601 130.464 60.6934 132.064C61.0934 132.598 72.6934 133.131 86.5601 133.131C107.627 133.131 111.76 132.864 112.427 131.131C112.96 129.798 111.76 128.598 108.693 127.264C106.293 126.331 103.093 123.798 101.493 121.798C98.2934 117.664 93.6268 105.931 92.9601 100.331C92.5601 96.8642 92.9601 96.4642 95.8934 96.8642C108.56 98.4642 119.893 105.264 123.493 113.264C124.693 116.198 126.427 118.331 127.093 118.064C128.027 117.798 128.693 108.198 128.96 91.3975C129.227 69.5309 128.96 65.1309 127.36 65.1309C126.427 65.1309 124.827 66.9975 123.893 69.1309C122.96 71.3975 120.56 74.5975 118.427 76.3309C114.16 79.9309 102.827 84.5975 96.5601 85.2642C92.8268 85.7975 92.5601 85.5309 92.9601 81.9309C94.1601 70.3309 103.893 55.5309 111.627 53.5309C116.827 52.3309 114.027 49.7975 106.427 48.9975C102.427 48.5975 90.6934 48.0642 80.2934 47.9309C64.1601 47.6642 61.2268 47.9309 61.2268 49.6642Z" fill="black"/>
</svg>
