<svg width="540" height="540" viewBox="0 0 540 540" fill="none" xmlns="http://www.w3.org/2000/svg">
<rect x="0.1" y="0.1" width="179.8" height="179.8" fill="white" stroke="#CBCBCB" stroke-width="0.2"/>
<rect x="180.1" y="0.1" width="179.8" height="179.8" fill="white" stroke="#CBCBCB" stroke-width="0.2"/>
<rect x="360.1" y="0.1" width="179.8" height="179.8" fill="white" stroke="#CBCBCB" stroke-width="0.2"/>
<rect x="0.1" y="180.1" width="179.8" height="179.8" fill="white" stroke="#CBCBCB" stroke-width="0.2"/>
<rect x="180.1" y="180.1" width="179.8" height="179.8" fill="white" stroke="#CBCBCB" stroke-width="0.2"/>
<rect x="360.1" y="180.1" width="179.8" height="179.8" fill="white" stroke="#CBCBCB" stroke-width="0.2"/>
<rect x="0.1" y="360.1" width="179.8" height="179.8" fill="white" stroke="#CBCBCB" stroke-width="0.2"/>
<rect x="180.1" y="360.1" width="179.8" height="179.8" fill="white" stroke="#CBCBCB" stroke-width="0.2"/>
<rect x="360.1" y="360.1" width="179.8" height="179.8" fill="white" stroke="#CBCBCB" stroke-width="0.2"/>
<rect x="360.1" y="360.1" width="179.8" height="179.8" fill="white" stroke="#CBCBCB" stroke-width="0.2"/>
<path d="M444.909 459.909V459.636C444.939 456.742 445.242 454.439 445.818 452.727C446.394 451.015 447.212 449.629 448.273 448.568C449.333 447.508 450.606 446.53 452.091 445.636C452.985 445.091 453.788 444.447 454.5 443.705C455.212 442.947 455.773 442.076 456.182 441.091C456.606 440.106 456.818 439.015 456.818 437.818C456.818 436.333 456.47 435.045 455.773 433.955C455.076 432.864 454.144 432.023 452.977 431.432C451.811 430.841 450.515 430.545 449.091 430.545C447.848 430.545 446.652 430.803 445.5 431.318C444.348 431.833 443.386 432.644 442.614 433.75C441.841 434.856 441.394 436.303 441.273 438.091H435.545C435.667 435.515 436.333 433.311 437.545 431.477C438.773 429.644 440.386 428.242 442.386 427.273C444.402 426.303 446.636 425.818 449.091 425.818C451.758 425.818 454.076 426.348 456.045 427.409C458.03 428.47 459.561 429.924 460.636 431.773C461.727 433.621 462.273 435.727 462.273 438.091C462.273 439.758 462.015 441.265 461.5 442.614C461 443.962 460.273 445.167 459.318 446.227C458.379 447.288 457.242 448.227 455.909 449.045C454.576 449.879 453.508 450.758 452.705 451.682C451.902 452.591 451.318 453.674 450.955 454.932C450.591 456.189 450.394 457.758 450.364 459.636V459.909H444.909ZM447.818 473.364C446.697 473.364 445.735 472.962 444.932 472.159C444.129 471.356 443.727 470.394 443.727 469.273C443.727 468.152 444.129 467.189 444.932 466.386C445.735 465.583 446.697 465.182 447.818 465.182C448.939 465.182 449.902 465.583 450.705 466.386C451.508 467.189 451.909 468.152 451.909 469.273C451.909 470.015 451.72 470.697 451.341 471.318C450.977 471.939 450.485 472.439 449.864 472.818C449.258 473.182 448.576 473.364 447.818 473.364Z" fill="black"/>
<path d="M431.267 40.6131C430.654 41.2263 431.144 81.9455 432.248 118.249L432.984 141.92L451.379 141.552L469.897 141.185L469.651 112.362C469.651 96.5406 469.161 73.7281 468.67 61.7086L467.935 39.9998H449.907C439.974 39.9998 431.635 40.2451 431.267 40.6131Z" fill="black"/>
<path d="M266.517 72.5018L267.375 105.004H251.188H235L235.858 123.646C236.226 133.826 236.717 142.289 236.962 142.411C237.085 142.534 252.537 142.289 271.177 142.043L305.147 141.553L304.533 92.2482C304.165 65.2656 303.675 42.3304 303.43 41.4719C303.062 40.368 298.156 40.0001 284.299 40.0001H265.658L266.517 72.5018Z" fill="black"/>
<path d="M103.015 70.7657L103.628 102.409L87.0724 103.267C77.9975 103.635 63.4041 104.003 54.6971 104.003H39V122.891V141.656L89.0346 141.166C116.505 140.798 139.682 140.43 140.663 140.062C142.135 139.571 142.258 135.033 141.522 112.221C141.154 97.2576 140.786 74.6904 140.663 61.935L140.541 38.9998H121.533H102.402L103.015 70.7657Z" fill="black"/>
<path d="M431 251.699C431 260.407 431.368 275.861 431.858 286.163L432.594 304.806L450.499 304.438L468.403 304.07L468.771 269.974L469.016 236H450.008H431V251.699Z" fill="black"/>
<path d="M282.091 235.65L265.904 236.141L266.149 251.594L266.394 267.048L259.036 267.293C254.989 267.416 247.877 267.539 243.339 267.661L235 267.906L235.245 282.624C235.368 290.596 235.736 298.936 236.104 301.144L236.717 305.069L270.319 304.333C288.959 303.965 304.165 303.474 304.288 303.229C304.411 302.984 304.288 287.53 304.043 268.765C303.552 234.791 303.552 234.791 300.977 235.037C299.505 235.159 291.044 235.527 282.091 235.65Z" fill="black"/>
<path d="M111.354 235.859L103.26 236.349L103.751 251.558L104.241 266.889L83.6387 267.011C72.2337 267.134 62.423 267.257 61.6872 267.502C61.0741 267.624 55.6782 267.87 49.7918 267.87L39 268.115V286.635V305.155L89.6477 304.296C117.363 303.806 140.541 303.192 141.154 302.824C142.258 302.211 142.258 286.512 141.154 257.322L140.418 235L129.872 235.245C124.108 235.368 115.769 235.613 111.354 235.859Z" fill="black"/>
<path d="M267.375 431.613L235 432.227L235.368 450.011C235.491 459.822 236.104 468.04 236.472 468.408C236.962 468.776 252.414 468.898 270.809 468.653L304.288 468.163L303.92 449.643C303.552 434.066 303.307 431 301.713 431C300.732 431 285.28 431.245 267.375 431.613Z" fill="black"/>
<path d="M79.4691 432.227L39 432.84V437.991C39.1226 440.935 39.2453 449.152 39.3679 456.511L39.6132 469.634L89.0346 469.266C116.137 469.021 139.069 468.653 139.928 468.408C141.031 468.04 141.399 463.134 141.399 449.397V431L130.73 431.245C124.721 431.491 101.788 431.859 79.4691 432.227Z" fill="black"/>
</svg>
