<svg width="180" height="180" viewBox="0 0 180 180" fill="none" xmlns="http://www.w3.org/2000/svg">
<rect x="0.1" y="0.1" width="179.8" height="179.8" fill="white" stroke="#CBCBCB" stroke-width="0.2"/>
<path d="M70.8198 62.8497V70.6991L63.2165 71.0671C55.6132 71.435 55.4905 71.5577 55.1226 75.1145C54.8774 77.0768 55 85.5395 55.4905 93.757L56.349 108.72L63.8296 109.088L71.4329 109.456L71.6782 113.749C71.8008 116.079 71.9235 119.636 71.9235 121.475L72.0461 125.032L87.13 124.296C95.3465 123.928 103.563 123.683 105.525 123.56C108.714 123.56 108.836 123.438 108.836 116.202V108.965L116.562 108.597L124.165 108.229V89.8322L124.043 71.435L116.194 70.8218L108.223 70.2085V62.8497V55.4908L89.5827 55.2455L70.8198 55.0002V62.8497Z" fill="black"/>
</svg>
