<svg width="540" height="540" viewBox="0 0 540 540" fill="none" xmlns="http://www.w3.org/2000/svg">
<rect x="0.1" y="0.1" width="179.8" height="179.8" fill="white" stroke="#CBCBCB" stroke-width="0.2"/>
<rect x="180.1" y="0.1" width="179.8" height="179.8" fill="white" stroke="#CBCBCB" stroke-width="0.2"/>
<rect x="360.1" y="0.1" width="179.8" height="179.8" fill="white" stroke="#CBCBCB" stroke-width="0.2"/>
<rect x="0.1" y="180.1" width="179.8" height="179.8" fill="white" stroke="#CBCBCB" stroke-width="0.2"/>
<rect x="180.1" y="180.1" width="179.8" height="179.8" fill="white" stroke="#CBCBCB" stroke-width="0.2"/>
<rect x="360.1" y="180.1" width="179.8" height="179.8" fill="white" stroke="#CBCBCB" stroke-width="0.2"/>
<rect x="0.1" y="360.1" width="179.8" height="179.8" fill="white" stroke="#CBCBCB" stroke-width="0.2"/>
<rect x="180.1" y="360.1" width="179.8" height="179.8" fill="white" stroke="#CBCBCB" stroke-width="0.2"/>
<rect x="360.1" y="360.1" width="179.8" height="179.8" fill="white" stroke="#CBCBCB" stroke-width="0.2"/>
<path d="M395.667 32.4874C391.933 34.6208 391 36.2208 391 41.0208C391 46.2208 395 49.9541 400.6 49.9541C409.133 49.9541 412.867 38.8874 406.2 33.6874C402.2 30.4874 399.533 30.2208 395.667 32.4874Z" fill="black"/>
<path d="M492.2 34.3536C489.8 37.287 490.067 45.1536 492.733 47.8203C495.533 50.7536 502.333 50.6203 505.667 47.5536C509 44.487 509.133 37.4203 505.933 34.487C502.733 31.5536 494.6 31.5536 492.2 34.3536Z" fill="black"/>
<path d="M32.471 33.8225C31.4044 36.6225 32.3377 144.223 33.4044 146.089C34.071 147.156 49.9377 147.556 90.7377 147.423L147.004 147.156V89.8225V32.4892L90.2044 32.0892C40.6044 31.8225 33.1377 32.0892 32.471 33.8225ZM143.404 90.2225L143.671 143.823L90.071 143.556L36.3377 143.156L36.071 91.1559C35.8044 62.4892 35.9377 38.3558 36.3377 37.4225C36.7377 36.0892 48.2044 35.8225 89.9377 36.0892L143.004 36.4892L143.404 90.2225Z" fill="black"/>
<path d="M81.0044 71.1559V81.1559H71.0044H61.0044V89.8226V98.4893H71.0044H81.0044V108.489V118.489H89.6711H98.3377V108.489V98.4893H108.338H118.338V89.8226V81.1559H108.338H98.3377V71.1559V61.1559H89.6711H81.0044V71.1559Z" fill="black"/>
<path d="M215.667 36.6953C214.2 38.962 217.133 42.4286 237.667 62.2953L257.8 82.0286H249H240.333L240.6 90.2953L241 98.6953L248.733 99.362L256.333 100.029L235.667 120.695C224.333 132.029 215 142.029 215 142.962C215 147.229 219.933 143.362 239 124.029C250.333 112.695 260.067 103.362 260.6 103.362C261.133 103.362 261.667 106.962 261.667 111.362V119.362H269.667H277.667V112.162C277.667 108.162 278.2 104.562 278.733 104.162C279.4 103.762 289.133 112.829 300.467 124.162C311.667 135.362 321.667 144.695 322.6 144.695C326.867 144.695 322.867 139.762 303.667 120.829C292.333 109.629 283 100.295 283 100.029C283 99.762 286.333 99.362 290.467 99.0953L298.067 98.6953V90.6953V82.6953L289.8 82.0286L281.667 81.362L303 60.0286C314.733 48.2953 324.333 38.2953 324.333 37.762C324.333 33.762 316.867 39.362 299.667 56.6953C288.733 67.6286 279.133 76.6953 278.6 76.6953C277.933 76.6953 277.667 73.4953 277.8 69.6286L278.2 62.6953H269.667H261L261.4 70.2953C261.667 74.562 261.4 78.0286 261 78.0286C260.467 78.0286 251.267 68.962 240.6 57.8953C220.6 37.362 217.133 34.2953 215.667 36.6953Z" fill="black"/>
<path d="M441.533 62.3544C441.533 63.021 441.267 67.6877 441.267 72.8877L441 82.221H431C419.8 82.221 420.867 80.8877 421.4 94.221L421.667 100.221H431.667H441.667V109.554V118.888H450.333H459V109.554V100.221H468.333H477.667V91.6877C477.667 86.0877 477.133 82.8877 476.067 82.4877C475.133 82.221 470.867 82.221 466.733 82.621L459 83.2877V73.021V62.8877H453.4C450.2 62.8877 446.333 62.4877 444.733 62.0877C443 61.5544 441.667 61.821 441.533 62.3544Z" fill="black"/>
<path d="M393.666 133.554C388.2 139.02 392.333 149.554 399.8 149.554C404.333 149.554 409.666 144.62 409.666 140.354C409.666 132.487 399.133 128.087 393.666 133.554Z" fill="black"/>
<path d="M493 133.554C489.533 137.421 489.8 144.087 493.533 147.154C499.8 152.087 508.333 148.621 508.333 141.021C508.333 132.621 498.333 127.687 493 133.554Z" fill="black"/>
<path d="M393.261 214.368C388.061 219.968 392.461 229.701 400.061 229.701C402.461 229.701 405.527 228.635 406.994 227.301C410.327 224.235 410.461 217.168 407.261 214.235C403.927 211.168 395.927 211.301 393.261 214.368Z" fill="black"/>
<path d="M494.061 213.034C488.594 216.501 490.461 228.368 496.594 229.568C500.327 230.234 505.794 228.634 507.261 226.234C509.127 223.301 508.327 216.368 505.927 214.234C503.394 211.834 496.861 211.301 494.061 213.034Z" fill="black"/>
<path d="M32.2483 216.733C31.5817 218.6 32.3817 327.266 33.1817 327.933C33.715 328.466 94.515 328.866 128.382 328.466L147.315 328.333V271.666V215H90.115C44.915 215 32.7817 215.4 32.2483 216.733ZM143.048 271.933L142.648 325L89.715 325.4L36.6483 325.666L36.515 304.066C36.515 292.066 36.2483 268.466 35.9817 251.666C35.715 234.733 35.8483 220.6 36.2483 219.933C36.515 219.4 60.7817 219 90.115 219H143.315L143.048 271.933Z" fill="black"/>
<path d="M72.9149 255.4C64.7816 263.667 57.9816 271 57.9816 271.667C57.9816 273.8 87.8482 303 89.9816 303C93.0482 303 120.648 274.733 120.648 271.667C120.648 268.6 92.6482 240.333 89.7149 240.333C88.7816 240.333 81.1816 247.133 72.9149 255.4Z" fill="black"/>
<path d="M215 219.668C215 220.602 223.267 229.268 233.4 239.002L251.667 256.468L244.733 263.668C240.867 267.535 237.667 271.135 237.667 271.668C237.667 272.068 240.867 275.535 244.733 279.268L251.667 286.068L233.4 304.335C223.267 314.468 215 323.535 215 324.468C215 328.335 219.4 325.002 236.6 307.802L255 289.402L262.067 296.468C265.933 300.202 269.667 303.402 270.467 303.402C271.133 303.402 274.733 300.468 278.333 296.735L284.867 290.068L303 308.068C313 317.935 321.933 326.068 322.733 326.068C327 326.068 322.733 320.468 306.333 304.468L288.2 287.002L295 280.068C298.6 276.335 301.667 272.468 301.667 271.535C301.667 270.602 298.467 266.868 294.733 263.268L287.667 256.735L306.067 238.868C316.067 229.002 324.333 220.335 324.333 219.535C324.333 215.535 318.867 219.535 302.333 235.668L284.2 253.135L277.933 247.002C274.467 243.535 270.6 240.735 269.4 240.735C268.2 240.735 265 243.402 262.2 246.735C259.533 250.068 256.6 252.735 255.8 252.735C255 252.735 246.467 244.868 237 235.402C221.267 219.668 215 215.135 215 219.668Z" fill="black"/>
<path d="M433.261 254.368L417.527 270.235L432.994 285.435C441.527 293.835 449.394 300.768 450.461 301.035C452.594 301.568 481.661 273.035 481.661 270.368C481.661 268.368 452.327 238.635 450.327 238.635C449.527 238.635 441.927 245.701 433.261 254.368Z" fill="black"/>
<path d="M393.127 313.568C386.594 322.901 398.594 333.568 406.994 325.968C410.327 322.901 410.461 315.835 407.261 312.901C403.527 309.568 395.661 309.968 393.127 313.568Z" fill="black"/>
<path d="M493.261 313.035C490.194 316.502 490.461 323.035 493.661 325.968C497.527 329.435 504.194 329.168 507.261 325.435C510.327 321.435 510.327 318.502 506.861 314.102C503.527 309.835 496.594 309.302 493.261 313.035Z" fill="black"/>
<path d="M32 450.334V507.667H89.3333H146.667V450.334V393H89.3333H32V450.334ZM142 397.4C142.4 398.334 142.8 422.2 143.2 450.6C143.6 486.2 143.333 502.6 142.4 503.134C141.2 503.934 109.067 504.067 48.4 503.8L36 503.667V449.934V396.067L88.8 395.934C127.867 395.934 141.6 396.334 142 397.4Z" fill="black"/>
<path d="M88.5333 404.734C87.8667 405.267 84.6667 411.934 81.4667 419.667C78.2667 427.4 75.0667 434.334 74.2667 435.134C73.3333 435.934 66.9333 438.867 60 441.667C53.0667 444.467 46.4 447.667 45.3333 448.6C42.8 451 44 451.8 61.8667 459L75.0667 464.334L80.6667 477.667C83.7333 485 86.6667 492.067 87.0667 493.267C88.6667 497.534 91.7333 495.8 94.1333 489.267C98 478.334 103.067 467.134 104.667 465.267C105.6 464.334 112.533 461 120.133 457.8C128.267 454.6 134.133 451.4 134.4 450.2C134.667 448.734 131.067 446.6 121.733 442.734C114.533 439.667 107.733 437 106.533 436.6C104.667 436.067 93.3333 411.267 93.3333 407.934C93.3333 405.934 90 403.667 88.5333 404.734Z" fill="black"/>
<path d="M215 396.276C215 396.81 223.4 405.743 233.667 415.876C243.933 426.143 252.333 434.81 252.333 435.21C252.333 435.61 246.067 438.543 238.333 441.743C230.6 444.943 224.333 448.276 224.333 449.21C224.333 450.276 229.8 453.076 236.733 455.743C243.4 458.41 249.933 461.21 251 461.876C252.6 462.943 249.133 466.943 233.667 482.543C218.333 497.876 214.733 502.143 216.067 503.476C217.4 504.81 221.667 501.21 237 485.876C248.733 474.143 256.733 467.076 257.4 467.876C258.067 468.676 260.867 475.076 263.533 482.143C266.333 489.343 269.267 495.21 270.2 495.21C271.133 495.21 274.2 489.343 277 482.143C279.8 475.076 282.6 468.676 283.267 467.876C283.933 467.21 292.067 474.276 303.4 485.61C313.8 496.01 322.867 504.543 323.4 504.543C327.267 504.543 321.8 497.343 306.067 481.476C291.267 466.81 288.067 462.943 289.667 461.876C290.733 461.21 296.467 458.676 302.333 456.41C314.867 451.343 317.267 449.61 314.6 447.476C313.667 446.676 307.133 443.61 300.067 440.81L287.133 435.61L305.8 417.076C315.933 406.943 324.333 397.876 324.333 396.943C324.333 392.81 319.8 396.276 303 413.21C293.133 423.076 284.467 431.076 283.933 430.81C283.4 430.676 280.733 425.076 278.067 418.543C275.533 411.876 272.467 405.61 271.533 404.543C269 402.01 268.6 402.676 262.2 418.81C259.667 425.61 257 431.21 256.6 431.21C256.067 431.21 247.533 423.076 237.667 413.21C222.067 397.61 215 392.276 215 396.276Z" fill="black"/>
<path d="M452.909 459.909V459.636C452.939 456.742 453.242 454.439 453.818 452.727C454.394 451.015 455.212 449.629 456.273 448.568C457.333 447.508 458.606 446.53 460.091 445.636C460.985 445.091 461.788 444.447 462.5 443.705C463.212 442.947 463.773 442.076 464.182 441.091C464.606 440.106 464.818 439.015 464.818 437.818C464.818 436.333 464.47 435.045 463.773 433.955C463.076 432.864 462.144 432.023 460.977 431.432C459.811 430.841 458.515 430.545 457.091 430.545C455.848 430.545 454.652 430.803 453.5 431.318C452.348 431.833 451.386 432.644 450.614 433.75C449.841 434.856 449.394 436.303 449.273 438.091H443.545C443.667 435.515 444.333 433.311 445.545 431.477C446.773 429.644 448.386 428.242 450.386 427.273C452.402 426.303 454.636 425.818 457.091 425.818C459.758 425.818 462.076 426.348 464.045 427.409C466.03 428.47 467.561 429.924 468.636 431.773C469.727 433.621 470.273 435.727 470.273 438.091C470.273 439.758 470.015 441.265 469.5 442.614C469 443.962 468.273 445.167 467.318 446.227C466.379 447.288 465.242 448.227 463.909 449.045C462.576 449.879 461.508 450.758 460.705 451.682C459.902 452.591 459.318 453.674 458.955 454.932C458.591 456.189 458.394 457.758 458.364 459.636V459.909H452.909ZM455.818 473.364C454.697 473.364 453.735 472.962 452.932 472.159C452.129 471.356 451.727 470.394 451.727 469.273C451.727 468.152 452.129 467.189 452.932 466.386C453.735 465.583 454.697 465.182 455.818 465.182C456.939 465.182 457.902 465.583 458.705 466.386C459.508 467.189 459.909 468.152 459.909 469.273C459.909 470.015 459.72 470.697 459.341 471.318C458.977 471.939 458.485 472.439 457.864 472.818C457.258 473.182 456.576 473.364 455.818 473.364Z" fill="black"/>
</svg>
