<svg width="180" height="180" viewBox="0 0 180 180" fill="none" xmlns="http://www.w3.org/2000/svg">
<rect x="0.1" y="0.1" width="179.8" height="179.8" fill="white" stroke="#CBCBCB" stroke-width="0.2"/>
<path d="M34.0593 34.5903C27.1259 43.3903 39.2593 55.1236 47.3926 47.6569C51.2593 44.1903 50.9926 35.7903 47.1259 33.1236C42.4593 29.7903 37.3926 30.4569 34.0593 34.5903Z" fill="black"/>
<path d="M133.393 33.6572C128.059 39.5239 132.059 49.6572 139.659 49.6572C144.593 49.6572 148.726 45.3906 148.726 40.3239C148.726 32.1906 138.593 27.9239 133.393 33.6572Z" fill="black"/>
<path d="M74.3259 74.0569C66.0592 82.4569 59.3926 90.0569 59.3926 91.1236C59.3926 93.2569 88.7259 122.99 90.7259 122.99C92.8592 122.99 122.059 93.1236 122.059 90.9902C122.059 88.7236 92.8592 58.9902 90.5926 58.9902C89.9259 58.9902 82.5926 65.7902 74.3259 74.0569Z" fill="black"/>
<path d="M34.7259 133.657C29.1259 139.791 33.3925 149.657 41.5259 149.657C46.1925 149.657 51.3925 144.724 51.3925 140.324C51.3925 138.991 50.1925 136.457 48.5925 134.457C45.1259 130.057 38.3259 129.657 34.7259 133.657Z" fill="black"/>
<path d="M133.793 133.256C132.726 134.59 131.393 136.723 130.993 138.056C130.059 140.723 132.193 147.123 134.459 148.59C137.393 150.456 144.326 149.656 146.459 147.256C149.526 143.923 149.393 135.923 146.326 133.256C143.126 130.323 136.326 130.323 133.793 133.256Z" fill="black"/>
</svg>
