<svg width="180" height="180" viewBox="0 0 180 180" fill="none" xmlns="http://www.w3.org/2000/svg">
<rect x="0.1" y="0.1" width="179.8" height="179.8" fill="white" stroke="#CBCBCB" stroke-width="0.2"/>
<path d="M35.8247 35.933C35.5581 36.5997 35.1581 60.333 35.0247 88.8663C34.8914 125.933 35.2914 141.266 36.3581 142.466C37.5581 143.933 47.8247 144.333 91.6914 144.333H145.558V89.6663V34.9997H91.0247C60.8914 34.9997 36.0914 35.3997 35.8247 35.933ZM136.091 39.6663C136.758 40.4663 93.0247 83.2663 90.7581 84.0663C89.2914 84.5997 44.2247 40.333 44.2247 38.4663C44.2247 37.2663 134.758 38.333 136.091 39.6663ZM64.2247 66.1997L87.0247 88.733L63.9581 111.933C51.2914 124.6 40.4914 135 39.9581 135C39.2914 135 38.8914 114.2 38.8914 88.8663C38.8914 60.1997 39.4247 42.9997 40.2247 43.2663C40.8914 43.3997 51.6914 53.7997 64.2247 66.1997ZM142.091 87.3997C141.825 111 141.558 131.8 141.558 133.666C141.558 136.333 137.691 133 118.225 113.666C105.425 100.866 95.0247 89.6663 94.8914 88.733C94.8914 86.733 140.358 42.8663 141.691 43.6663C142.225 44.0663 142.491 63.6663 142.091 87.3997ZM126.758 128.6L138.091 140.333H91.1581C65.2914 140.333 44.2247 139.933 44.2247 139.4C44.2247 138.866 54.4914 128.066 67.1581 115.4L90.0914 92.333L102.891 104.733C109.825 111.4 120.625 122.2 126.758 128.6Z" fill="black"/>
</svg>
