<svg width="180" height="180" viewBox="0 0 180 180" fill="none" xmlns="http://www.w3.org/2000/svg">
<rect x="0.1" y="0.1" width="179.8" height="179.8" fill="white" stroke="#CBCBCB" stroke-width="0.2"/>
<path d="M34.1222 33.6334C31.1889 36.8334 30.9222 43.6334 33.5889 46.3001C34.6556 47.3668 37.3222 48.5668 39.7222 49.1001C44.9222 50.1668 49.4556 46.1668 49.4556 40.3001C49.4556 32.1668 39.3222 27.9001 34.1222 33.6334Z" fill="black"/>
<path d="M133.322 33.3671C126.922 38.5671 131.189 49.6338 139.722 49.6338C144.656 49.6338 149.856 43.6338 148.922 39.2338C147.056 31.6338 139.189 28.7005 133.322 33.3671Z" fill="black"/>
<path d="M87.1889 46.5664C86.6556 47.8997 83.8556 54.8331 80.7889 62.0331L75.4556 75.0997L60.1222 81.6331C50.7889 85.4997 44.6556 88.8331 44.3889 90.1664C44.1222 91.3664 44.5222 92.2997 45.3222 92.2997C45.9889 92.2997 53.0556 95.0997 61.0556 98.4331L75.4556 104.566L80.9222 118.033C83.9889 125.5 86.7889 132.7 87.3222 133.9C89.0556 139.366 91.8556 135.766 97.3222 121.633C103.189 106.3 105.322 102.966 109.456 102.966C110.789 102.966 112.256 102.433 112.656 101.766C113.189 101.1 117.856 98.8331 123.189 96.8331C133.589 92.9664 136.389 91.2331 135.856 89.3664C135.456 88.2997 117.322 80.1664 108.789 77.3664C105.056 76.1664 103.989 74.2997 98.2556 60.1664C91.9889 44.6997 89.1889 41.2331 87.1889 46.5664Z" fill="black"/>
<path d="M33.5888 134.433C29.9888 139.1 30.1222 142.3 34.1222 146.3C40.2555 152.433 49.4555 149.233 49.4555 140.833C49.4555 131.633 39.0555 127.367 33.5888 134.433Z" fill="black"/>
<path d="M133.322 133.367C126.922 138.7 131.055 149.634 139.455 149.634C147.722 149.634 151.989 140.034 146.255 134.3C142.255 130.3 137.589 130.034 133.322 133.367Z" fill="black"/>
</svg>
