<svg width="180" height="180" viewBox="0 0 180 180" fill="none" xmlns="http://www.w3.org/2000/svg">
<rect x="0.1" y="0.1" width="179.8" height="179.8" fill="white" stroke="#CBCBCB" stroke-width="0.2"/>
<path d="M32.45 36.733C32.05 37.533 31.9167 63.533 32.05 94.333L32.45 150.333H89.7833H147.117L147.517 92.5997L147.783 34.9997H90.45C45.7833 34.9997 32.85 35.3997 32.45 36.733ZM143.783 92.9997V147L92.3167 147.266C64.05 147.533 39.7833 147.266 38.3167 146.733C35.9167 145.8 35.7833 143.933 35.7833 93.2663C35.7833 64.333 36.1833 40.333 36.7167 39.933C37.1167 39.3997 61.5167 38.9997 90.7167 38.9997H143.783V92.9997Z" fill="black"/>
<path d="M82.05 65.266C81.5167 65.666 81.1167 70.1993 81.1167 75.266V84.3327H71.1167H61.1167V92.9993V101.666H71.1167H81.1167V111.666V121.666H89.7834H98.45V111.666V101.666H108.45H118.45V92.9993V84.3327H108.45H98.45V74.3327V64.3327H90.7167C86.45 64.3327 82.45 64.7327 82.05 65.266Z" fill="black"/>
</svg>
