<svg width="180" height="180" viewBox="0 0 180 180" fill="none" xmlns="http://www.w3.org/2000/svg">
<rect x="0.1" y="0.1" width="179.8" height="179.8" fill="white" stroke="#CBCBCB" stroke-width="0.2"/>
<path d="M126.267 50.8896L109.733 67.0229H101.6H93.3333V55.0229C93.3333 45.2896 92.9333 43.0229 91.3333 43.0229C89.7333 43.0229 89.3333 45.2896 89.3333 55.0229V67.0229H80.2667H71.3333L56 51.6896C42.6667 38.3562 36 33.5562 36 37.4229C36 38.0896 43.2 45.5562 52 54.0896L68 69.6896V79.0229V88.3562H55.8667C46.8 88.3562 43.8667 88.7562 44.2667 89.9562C44.6667 91.1562 48.6667 91.8229 56.4 92.0896L68 92.4896V100.89V109.29L52 125.556C43.2 134.49 36 142.356 36 143.023C36 147.69 40.8 144.356 55.3333 129.156L71.7333 112.356H80.5333H89.3333V125.023C89.3333 135.423 89.7333 137.69 91.3333 137.69C92.9333 137.69 93.3333 135.423 93.3333 125.023V112.356H101.733H110L126.533 128.89C135.733 138.09 143.6 145.29 144.267 144.89C146.8 143.29 144.4 139.956 129.333 125.023L113.333 109.023V100.756V92.4896L125.6 92.0896C133.867 91.8229 138 91.1562 138.4 89.9562C138.8 88.7562 135.733 88.3562 126.133 88.3562H113.333V79.4229V70.3562L129.6 54.0896C142 41.6896 145.6 37.4229 144.4 36.2229C143.2 35.0229 138.8 38.4896 126.267 50.8896Z" fill="black"/>
</svg>
