<svg width="180" height="180" viewBox="0 0 180 180" fill="none" xmlns="http://www.w3.org/2000/svg">
<rect x="0.1" y="0.1" width="179.8" height="179.8" fill="white" stroke="#CBCBCB" stroke-width="0.2"/>
<path d="M35.2534 36.4473C35.2534 37.3807 43.5201 46.4473 53.5201 56.4473L71.9201 74.8473L64.8534 81.914C61.1201 85.7807 57.9201 89.514 57.9201 90.1807C57.9201 90.8473 60.8534 94.4473 64.5868 98.1807L71.2534 104.847L53.2534 122.047C37.1201 137.381 32.0534 144.181 36.5868 144.181C37.3868 144.181 46.1868 136.047 56.1868 126.181L74.4534 108.181L81.2534 114.847C84.9868 118.581 88.8534 121.514 90.0534 121.514C91.1201 121.514 94.7201 118.847 97.9201 115.514C101.12 112.181 104.453 109.514 105.253 109.514C106.053 109.514 114.453 117.247 123.92 126.847C140.187 143.114 144.587 146.447 144.587 142.581C144.587 141.647 136.453 132.714 126.587 122.847L108.587 104.714L115.253 98.1807C118.853 94.5807 121.92 90.9807 121.92 90.314C121.92 89.514 118.72 85.7807 114.987 81.914L107.92 74.8473L126.32 56.4473C136.32 46.4473 144.587 37.3807 144.587 36.4473C144.587 32.5807 140.187 35.914 122.987 53.114L104.587 71.3807L98.1868 65.114C94.7201 61.6473 90.9868 58.8473 89.9201 58.8473C88.8534 58.8473 85.1201 61.6473 81.6534 65.114L75.2534 71.3807L56.8534 53.114C39.6534 35.914 35.2534 32.5807 35.2534 36.4473Z" fill="black"/>
</svg>
