<svg width="540" height="540" viewBox="0 0 540 540" fill="none" xmlns="http://www.w3.org/2000/svg">
<rect x="0.1" y="0.1" width="179.8" height="179.8" fill="white" stroke="#CBCBCB" stroke-width="0.2"/>
<rect x="180.1" y="0.1" width="179.8" height="179.8" fill="white" stroke="#CBCBCB" stroke-width="0.2"/>
<rect x="360.1" y="0.1" width="179.8" height="179.8" fill="white" stroke="#CBCBCB" stroke-width="0.2"/>
<rect x="0.1" y="180.1" width="179.8" height="179.8" fill="white" stroke="#CBCBCB" stroke-width="0.2"/>
<rect x="180.1" y="180.1" width="179.8" height="179.8" fill="white" stroke="#CBCBCB" stroke-width="0.2"/>
<rect x="360.1" y="180.1" width="179.8" height="179.8" fill="white" stroke="#CBCBCB" stroke-width="0.2"/>
<rect x="0.1" y="360.1" width="179.8" height="179.8" fill="white" stroke="#CBCBCB" stroke-width="0.2"/>
<rect x="180.1" y="360.1" width="179.8" height="179.8" fill="white" stroke="#CBCBCB" stroke-width="0.2"/>
<rect x="360.1" y="360.1" width="179.8" height="179.8" fill="white" stroke="#CBCBCB" stroke-width="0.2"/>
<path d="M444.909 462.909V462.636C444.939 459.742 445.242 457.439 445.818 455.727C446.394 454.015 447.212 452.629 448.273 451.568C449.333 450.508 450.606 449.53 452.091 448.636C452.985 448.091 453.788 447.447 454.5 446.705C455.212 445.947 455.773 445.076 456.182 444.091C456.606 443.106 456.818 442.015 456.818 440.818C456.818 439.333 456.47 438.045 455.773 436.955C455.076 435.864 454.144 435.023 452.977 434.432C451.811 433.841 450.515 433.545 449.091 433.545C447.848 433.545 446.652 433.803 445.5 434.318C444.348 434.833 443.386 435.644 442.614 436.75C441.841 437.856 441.394 439.303 441.273 441.091H435.545C435.667 438.515 436.333 436.311 437.545 434.477C438.773 432.644 440.386 431.242 442.386 430.273C444.402 429.303 446.636 428.818 449.091 428.818C451.758 428.818 454.076 429.348 456.045 430.409C458.03 431.47 459.561 432.924 460.636 434.773C461.727 436.621 462.273 438.727 462.273 441.091C462.273 442.758 462.015 444.265 461.5 445.614C461 446.962 460.273 448.167 459.318 449.227C458.379 450.288 457.242 451.227 455.909 452.045C454.576 452.879 453.508 453.758 452.705 454.682C451.902 455.591 451.318 456.674 450.955 457.932C450.591 459.189 450.394 460.758 450.364 462.636V462.909H444.909ZM447.818 476.364C446.697 476.364 445.735 475.962 444.932 475.159C444.129 474.356 443.727 473.394 443.727 472.273C443.727 471.152 444.129 470.189 444.932 469.386C445.735 468.583 446.697 468.182 447.818 468.182C448.939 468.182 449.902 468.583 450.705 469.386C451.508 470.189 451.909 471.152 451.909 472.273C451.909 473.015 451.72 473.697 451.341 474.318C450.977 474.939 450.485 475.439 449.864 475.818C449.258 476.182 448.576 476.364 447.818 476.364Z" fill="black"/>
<path d="M82.458 18.4672C80.858 20.4672 79.658 23.2672 79.5247 24.8672C79.1247 32.2006 80.058 37.4006 82.3247 41.2672L84.858 45.6672L81.258 47.8006C57.1247 62.4672 45.9247 75.0006 41.5247 92.3339C38.858 102.867 39.5247 110.067 44.9914 126.867C47.1247 133.801 48.9914 139.534 48.9914 139.801C48.9914 139.934 47.1247 140.601 44.858 141.001C39.3914 142.201 29.3914 151.534 28.3247 156.334C25.658 168.601 40.058 168.467 48.058 156.067C50.058 153.001 51.658 149.401 51.658 148.201C51.658 143.801 54.3247 144.201 66.7247 149.801C84.7247 158.201 89.9247 158.334 109.258 150.467C117.525 147.134 124.991 144.334 125.658 144.334C126.458 144.334 128.458 147.534 130.325 151.401C137.525 166.334 155.525 169.401 152.325 155.134C150.991 149.001 140.458 140.334 134.458 140.334C131.125 140.334 130.991 139.001 133.791 128.067C135.125 123.134 136.058 113.934 136.191 105.667C136.325 92.0672 136.191 91.4006 131.258 81.1339C124.725 67.4006 113.658 56.3339 100.191 50.0672L90.458 45.6672L92.9914 41.2672C96.7247 35.2672 96.5914 23.2672 92.858 18.4672C91.3914 16.6006 88.9914 15.0006 87.658 15.0006C86.3247 15.0006 83.9247 16.6006 82.458 18.4672ZM90.058 21.9339C93.1247 25.0006 91.1247 41.6672 87.5247 41.6672C84.858 41.6672 82.1914 29.0006 83.9247 24.2006C85.3914 20.0672 87.3914 19.2672 90.058 21.9339ZM98.5914 53.6672C111.391 59.6672 124.058 72.8672 128.991 85.5339C133.391 97.0006 133.791 106.867 130.325 124.601C127.258 139.801 127.258 140.067 123.258 140.867C121.125 141.267 114.591 143.801 108.725 146.467C94.058 153.134 86.5914 153.667 75.5247 149.001C70.858 147.001 63.5247 144.067 59.3914 142.467C54.3247 140.734 51.658 138.867 51.658 137.534C51.658 136.334 49.7914 128.867 47.5247 120.867C42.5914 103.934 42.858 96.7339 48.1914 84.7339C54.7247 70.6006 80.3247 49.1339 89.258 50.3339C91.1247 50.6006 95.3914 52.0672 98.5914 53.6672ZM47.9247 147.801C47.258 151.134 41.5247 158.601 38.1914 160.467C34.9914 162.067 31.658 161.134 31.658 158.601C31.658 154.201 43.5247 143.534 46.9914 144.867C47.7914 145.134 48.058 146.467 47.9247 147.801ZM141.125 147.401C146.458 151.001 149.925 157.267 147.925 159.267C144.591 162.601 135.391 155.001 132.191 146.601C130.991 143.267 135.525 143.667 141.125 147.401Z" fill="black"/>
<path d="M436.798 40.6465C422.798 44.3798 407.331 58.1131 402.531 71.1798C394.798 91.5798 399.998 112.913 415.864 127.313C426.264 136.78 436.398 140.646 450.931 140.646C466.398 140.513 475.064 136.78 486.398 125.58C495.864 116.113 499.998 107.846 501.731 95.0465C502.931 85.8465 499.331 74.2465 493.464 68.3798C490.931 65.8465 488.931 62.6465 488.931 61.3131C488.931 56.3798 484.931 51.0465 478.264 46.9131C465.998 39.4465 450.264 37.0465 436.798 40.6465ZM465.731 45.5798C472.264 47.5798 476.264 49.8465 479.864 53.4465C485.598 59.1798 486.398 62.7798 481.998 62.7798C470.798 62.7798 460.398 70.2465 461.198 77.7131C462.131 87.0465 474.131 87.0465 482.664 77.5798C485.198 74.7798 487.464 71.7131 487.864 70.7798C488.664 68.1131 491.331 70.2465 494.531 76.5131C499.331 85.4465 498.664 98.5131 493.198 109.713C488.131 120.113 479.731 128.246 469.198 133.18C462.798 136.113 459.731 136.78 450.131 136.646C440.264 136.646 437.598 136.113 430.798 132.78C390.931 113.313 395.064 58.1131 437.598 44.6465C445.598 42.1131 455.598 42.5131 465.731 45.5798ZM483.598 68.9131C483.598 72.5131 474.531 80.1131 470.264 80.1131C465.464 80.1131 464.131 78.1131 466.264 74.1131C469.198 68.5131 483.598 64.2465 483.598 68.9131Z" fill="black"/>
<path d="M259.161 39.2803C250.361 42.8803 244.095 47.4136 241.028 52.3469C239.028 55.5469 236.761 57.5469 235.161 57.5469C226.628 57.6803 220.895 68.2136 220.095 85.0136C219.295 102.48 223.561 113.28 233.295 118.214C235.828 119.547 237.161 121.28 237.161 123.28C237.161 127.68 240.228 131.28 246.895 134.614C263.695 143.014 283.961 141.414 294.361 131.014C297.161 128.214 301.028 125.547 302.895 125.014C308.095 123.814 313.961 118.214 317.428 111.147C319.961 105.947 320.495 102.747 320.495 92.2136C320.495 81.4136 319.961 78.6136 317.295 73.5469C315.561 70.3469 312.761 66.2136 311.028 64.6136C309.295 63.0136 307.828 60.2136 307.828 58.3469C307.828 49.2803 289.961 39.1469 272.495 38.0803C266.895 37.8136 261.561 38.2136 259.161 39.2803ZM282.095 43.4136C294.095 46.6136 303.828 53.9469 303.828 59.8136C303.828 62.4803 303.161 62.8803 299.161 62.8803C290.095 62.8803 282.228 67.9469 280.495 75.0136C279.295 79.8136 282.628 82.8803 288.895 82.8803C295.161 82.8803 301.828 78.7469 305.295 72.8803C306.895 70.3469 308.361 68.2136 308.628 68.2136C308.895 68.2136 310.761 70.7469 312.761 73.8136C316.095 79.0136 316.495 80.7469 316.495 91.5469C316.495 102.08 315.961 104.48 312.895 110.48C306.761 122.08 299.828 125.147 299.828 116.214C299.828 109.68 297.161 104.08 292.361 100.347C286.361 95.6803 280.495 97.1469 279.828 103.547C279.028 110.614 280.095 113.014 286.761 119.28C294.895 127.147 294.495 128.747 283.695 133.147C274.761 136.88 266.495 137.014 255.828 133.68C243.028 129.68 236.095 121.547 245.561 121.547C251.161 121.414 260.228 117.28 263.028 113.414C265.961 109.147 265.828 103.28 262.628 101.547C255.828 97.9469 245.828 101.947 241.028 110.214C237.695 115.814 236.095 115.947 231.561 111.147C225.295 104.614 223.295 98.8803 223.295 88.8803C223.295 78.2136 225.295 71.1469 230.095 65.5469C234.361 60.3469 235.828 60.4803 235.828 66.2136C235.828 75.9469 242.895 85.5469 250.095 85.5469C261.561 85.5469 258.228 66.8803 245.695 60.4803L240.895 57.9469L245.161 53.0136C254.361 42.6136 266.895 39.4136 282.095 43.4136ZM247.428 67.0136C254.095 73.4136 254.761 82.6136 248.495 81.2803C244.895 80.6136 241.028 74.6136 240.228 68.4803C239.295 61.5469 241.428 61.1469 247.428 67.0136ZM302.895 66.3469C304.095 67.5469 301.428 72.0803 297.295 75.6803C293.295 79.2803 285.161 80.0803 285.161 77.0136C285.161 72.8803 287.161 70.4803 292.361 68.0803C298.095 65.5469 301.428 65.0136 302.895 66.3469ZM292.761 106.747C295.961 111.414 296.895 120.214 294.361 120.214C293.428 120.214 290.761 118.08 288.361 115.414C285.028 111.947 283.828 109.547 283.828 106.08C283.828 101.947 284.228 101.414 286.761 101.814C288.361 102.08 291.161 104.214 292.761 106.747ZM260.495 105.547C260.895 106.347 260.895 108.214 260.495 109.68C259.028 114.347 242.495 120.214 242.495 116.08C242.495 109.414 257.428 100.614 260.495 105.547Z" fill="black"/>
<path d="M504.508 208.467C501.175 211.801 498.775 215.667 498.241 218.467C497.708 221.401 496.775 222.867 495.841 222.601C463.575 210.201 445.975 213.001 426.775 233.534C421.841 238.734 415.841 246.734 413.575 251.401C407.575 263.401 407.708 263.267 401.308 260.201C398.241 258.867 393.975 257.667 391.708 257.667C387.308 257.667 379.308 261.934 378.241 265.001C376.908 268.201 381.308 273.401 386.241 274.867C391.575 276.201 401.041 274.467 404.641 271.401C406.641 269.667 407.575 270.601 414.908 281.401C431.708 306.467 445.708 316.334 464.375 316.334C469.841 316.334 477.975 315.401 482.375 314.334C486.775 313.267 490.775 312.467 491.441 312.334C491.975 312.334 492.375 314.601 492.375 317.267C492.375 323.534 496.641 333.001 500.108 334.867C501.708 335.667 504.641 336.334 506.908 336.334C517.975 336.334 513.975 318.067 501.441 311.534L497.575 309.534L502.375 303.134C510.508 291.934 514.108 282.334 514.775 270.201C515.441 258.067 514.508 254.467 506.908 238.334L501.841 227.667L506.641 226.467C509.175 225.934 513.575 223.134 516.508 220.334C520.641 216.467 521.708 214.467 521.708 210.867C521.708 205.134 519.708 203.001 514.241 203.001C511.041 203.001 508.641 204.334 504.508 208.467ZM517.708 210.201C517.708 214.734 511.841 221.267 506.908 222.334C501.975 223.401 501.308 223.001 502.508 218.467C504.641 209.801 517.708 202.734 517.708 210.201ZM475.841 220.334C496.241 225.667 497.041 226.201 502.108 236.867C509.841 253.134 511.441 259.534 510.775 270.867C510.108 281.801 506.241 291.401 497.841 303.001L493.575 309.001L478.641 311.401C460.375 314.334 453.308 313.134 441.975 305.667C432.508 299.267 429.041 295.534 418.508 279.534L410.241 266.734L415.575 256.067C421.308 244.734 433.308 230.467 441.175 225.534C445.975 222.601 459.308 217.934 463.175 217.801C464.241 217.667 469.975 218.867 475.841 220.334ZM400.641 263.801L404.908 266.067L401.841 268.467C397.308 272.201 386.641 272.467 383.175 269.001C381.441 267.267 381.575 266.734 383.708 264.334C386.775 261.001 394.775 260.734 400.641 263.801ZM502.775 317.001C507.175 320.734 510.375 327.267 509.175 330.334C508.108 333.134 503.575 332.867 500.508 329.801C495.975 325.267 494.108 313.667 497.708 313.667C498.375 313.667 500.641 315.134 502.775 317.001Z" fill="black"/>
<path d="M273.606 220.297C269.739 221.364 263.872 223.897 260.539 225.764C252.406 230.564 240.272 244.297 234.672 255.231C228.006 268.164 228.272 267.897 224.672 265.497C216.272 260.031 200.939 262.564 199.206 269.764C197.072 278.031 212.006 282.697 222.539 277.231C228.672 274.031 228.539 273.897 236.406 286.964C250.539 310.697 268.272 322.031 288.806 320.697C330.672 318.031 350.406 267.497 321.872 235.764C310.006 222.564 289.472 216.031 273.606 220.297ZM301.606 226.297C311.872 230.164 320.806 238.697 326.406 250.031C330.672 258.697 331.206 261.231 331.206 269.497C331.206 280.564 329.206 287.097 323.206 296.564C314.539 310.164 299.872 317.631 283.606 316.697C271.472 316.031 263.872 312.431 254.006 302.431C245.206 293.364 243.206 290.697 236.272 279.364L230.806 270.564L235.606 261.364C253.072 228.564 275.606 216.431 301.606 226.297ZM220.539 267.631C225.072 269.231 224.939 272.297 220.406 274.031C213.072 276.964 204.939 276.031 203.606 272.297C201.606 267.364 212.272 264.431 220.539 267.631Z" fill="black"/>
<path d="M83.2125 219.334C64.8125 223.067 45.0792 240.267 38.4125 258C34.9458 267.467 34.5458 267.734 28.9458 264.934C16.9458 258.8 1.07918 265.334 5.87918 274.4C8.94585 280.134 20.5458 281.467 29.2125 277.067C32.0125 275.6 34.4125 274.534 34.5458 274.8C34.6792 274.934 37.0792 279.734 39.7458 285.467C45.7458 298.134 56.9458 309.867 69.0792 316.134C76.6792 320.134 78.1458 320.4 90.5458 320.4C102.013 320.4 104.679 320 109.746 317.334C122.013 310.8 136.146 294 141.346 280.134C144.413 271.6 145.079 271.067 149.213 273.867C151.746 275.467 155.479 276.267 160.813 276.4C167.879 276.4 169.079 276 171.879 272.8C175.613 268.534 174.946 264.534 170.413 261.467C166.013 258.667 152.413 259.6 148.546 263.067C145.346 266 145.346 266 139.746 255.067C132.013 239.867 119.479 227.2 107.613 222.534C100.679 219.867 88.6792 218.267 83.2125 219.334ZM108.146 227.2C117.346 231.6 130.813 246.267 137.213 258.8L142.146 268.534L136.013 281.6C131.213 292.134 128.279 296.267 120.946 303.6C109.079 315.467 97.7458 319.467 83.7458 316.934C65.4792 313.467 49.2125 298.8 39.6125 276.934L36.8125 270.667L42.5458 258.934C56.8125 228.934 84.1458 215.734 108.146 227.2ZM169.079 266.8C172.413 272.267 160.546 275.2 152.279 270.934L148.013 268.667L151.213 266.134C155.346 262.8 166.813 263.2 169.079 266.8ZM29.2125 269.067C32.5458 271.867 28.8125 274.667 20.5458 275.467C15.3458 276 13.2125 275.6 11.2125 273.734C8.67918 271.467 8.67918 271.2 10.8125 268.667C12.8125 266.667 14.5458 266.267 20.1458 266.667C23.8792 267.067 28.0125 268.134 29.2125 269.067Z" fill="black"/>
<path d="M126.233 374.33C122.233 376.33 119.033 382.596 118.1 390.196L117.3 396.863H100.5C87.6998 396.863 81.4331 397.53 74.3665 399.53C69.2998 400.996 64.6331 402.196 64.0998 402.196C63.4331 402.196 63.0331 400.196 63.0331 397.663C63.0331 391.53 60.8998 386.33 56.6331 381.796C49.6998 374.596 40.6331 378.996 42.4998 388.73C43.4331 392.996 50.4998 401.396 55.4331 404.196C57.6998 405.396 57.4331 406.33 51.8331 414.73C45.9665 423.53 43.9665 430.063 41.0331 447.796L40.2331 452.73L33.8331 451.93C21.9665 450.596 12.3665 456.463 14.2331 464.063C16.0998 471.796 29.1665 471.53 38.3665 463.396L42.8998 459.396L45.5665 464.463C49.4331 472.063 59.6998 482.996 70.7665 491.13C75.9665 495.13 80.3665 498.596 80.3665 499.13C80.3665 499.53 79.1665 500.863 77.6998 502.196C76.2331 503.396 74.0998 506.596 73.0331 509.263C68.7665 519.396 71.8331 528.063 79.4331 527.263C83.0331 526.996 84.2331 525.796 86.7665 520.863C89.0331 516.463 89.6998 513.53 89.0331 510.196C87.4331 499.796 86.6331 500.73 100.366 497.263C115.566 493.53 124.633 489.263 132.766 482.196C136.1 479.263 139.166 476.863 139.566 476.863C139.966 476.863 141.166 478.596 142.366 480.863C144.766 485.396 154.366 491.53 159.3 491.53C161.166 491.53 163.566 490.463 164.766 489.13C171.166 482.063 162.366 471.93 149.166 470.863L143.7 470.463L144.233 454.463C144.766 434.596 143.033 427.93 133.433 413.663C129.566 407.93 125.833 402.33 125.033 401.263C124.1 399.796 124.233 398.996 125.433 398.596C129.7 396.996 136.5 389.53 137.833 384.863C140.633 375.796 134.5 370.33 126.233 374.33ZM134.366 379.53C135.433 382.73 132.1 389.13 127.566 392.73C122.9 396.33 121.7 396.196 121.7 392.33C121.7 381.93 131.833 371.663 134.366 379.53ZM55.9665 387.396C58.7665 391.396 60.2331 400.863 58.2331 400.863C56.0998 400.863 49.4331 394.863 47.5665 391.396C42.8998 382.33 50.2331 378.863 55.9665 387.396ZM127.033 411.263C138.5 427.663 140.366 432.73 140.233 448.196C140.1 469.263 139.433 471.663 131.7 478.196C122.233 486.063 114.633 489.663 98.6331 493.663L84.6331 497.13L76.8998 491.13C62.0998 479.663 55.9665 473.53 50.0998 464.463C44.6331 456.063 44.3665 454.863 45.0331 449.13C47.1665 433.396 48.8998 427.663 55.2998 416.463C61.0331 406.463 62.4998 404.863 65.5665 404.863C67.4331 404.863 71.1665 404.196 73.6998 403.396C79.6998 401.53 102.766 400.063 112.633 400.863L120.233 401.53L127.033 411.263ZM36.8998 456.996C40.6331 460.463 25.6998 467.796 20.4998 464.996C17.2998 463.13 17.0331 462.196 19.4331 458.996C22.4998 454.863 33.2998 453.663 36.8998 456.996ZM155.7 476.063C162.366 478.863 165.3 485.263 160.366 486.863C155.7 488.33 144.5 480.73 144.366 475.796C144.366 473.663 150.1 473.796 155.7 476.063ZM85.1665 506.863C86.8998 513.796 82.7665 523.53 78.2331 523.53C75.9665 523.53 74.4998 517.93 75.5665 513.796C76.4998 510.196 81.2998 503.53 83.1665 503.53C83.8331 503.53 84.6331 504.996 85.1665 506.863Z" fill="black"/>
<path d="M261.64 400.741C247.507 403.541 232.173 415.675 232.173 423.941C232.173 425.808 230.973 427.808 229.507 428.608C225.507 430.741 220.173 441.008 219.24 448.341C216.307 473.541 240.84 503.275 261.907 500.075C269.64 498.875 273.24 498.875 279.64 499.941C295.907 502.875 318.307 479.275 320.973 456.475C322.173 446.075 318.707 434.741 312.707 429.008C309.907 426.341 308.173 423.541 308.173 421.408C308.173 415.408 300.04 407.941 289.107 404.075C277.64 400.075 269.64 399.141 261.64 400.741ZM279.373 405.275C289.773 407.541 298.84 412.341 302.573 417.675C305.907 422.341 304.973 424.608 299.773 424.608C293.107 424.741 284.573 429.141 282.173 433.941C278.307 441.408 282.973 447.008 291.64 445.275C296.707 444.341 306.84 435.541 306.84 432.208C306.84 425.675 313.64 434.741 316.307 444.741C319.373 456.341 314.173 472.475 303.373 484.475C296.573 492.075 288.173 496.608 281.107 496.608C275.107 496.608 274.173 495.141 276.973 489.808C282.173 479.541 278.707 465.941 270.84 465.941C262.44 465.941 259.24 479.008 264.84 489.941C267.773 495.675 266.307 497.008 258.173 496.208C249.507 495.275 245.107 493.141 237.64 485.675C224.04 472.208 219.507 452.208 226.84 437.941C230.04 431.541 232.173 431.275 235.24 436.608C241.907 447.808 260.173 450.341 260.173 439.941C260.173 433.008 250.44 425.941 240.84 425.941C237.24 425.941 236.173 425.408 236.173 423.541C236.173 420.475 244.173 412.075 249.907 409.008C253.24 407.275 264.173 404.075 269.507 403.408C269.907 403.408 274.307 404.208 279.373 405.275ZM302.84 428.608C305.507 428.608 301.907 434.608 297.107 438.075C291.24 442.341 287.907 442.875 285.64 440.075C284.44 438.608 284.44 437.541 285.773 435.408C287.773 432.075 297.373 427.141 299.907 427.941C300.973 428.341 302.173 428.608 302.84 428.608ZM250.973 433.008C256.307 436.475 257.64 441.275 253.773 442.475C249.107 443.941 240.707 439.008 237.64 432.875C236.173 430.075 236.307 429.941 241.24 429.941C244.44 429.941 248.173 431.141 250.973 433.008ZM275.64 475.808C276.44 480.608 274.307 489.275 271.907 490.741C267.64 493.408 263.773 477.408 267.373 471.941C269.24 469.141 270.04 468.875 272.173 469.941C273.507 470.741 275.107 473.408 275.64 475.808Z" fill="black"/>
</svg>
