<svg width="180" height="180" viewBox="0 0 180 180" fill="none" xmlns="http://www.w3.org/2000/svg">
<rect x="0.1" y="0.1" width="179.8" height="179.8" fill="white" stroke="#CBCBCB" stroke-width="0.2"/>
<path d="M71.6732 43.0877C53.0065 50.0211 41.1399 66.5544 40.0732 87.4877C39.0065 108.554 49.6732 127.754 67.1399 136.021C73.0065 138.954 83.8065 139.488 86.0732 137.221C87.2732 136.021 88.7399 136.021 91.8065 137.354C97.1399 139.488 107.673 138.288 115.273 134.554C123.54 130.554 132.073 121.888 136.607 112.688C140.073 105.354 140.473 103.488 140.473 90.6877C140.473 78.1544 140.073 75.8877 136.74 69.2211C131.673 58.6877 123.673 50.1544 115.007 45.8877C107.807 42.2877 106.473 42.1544 88.4732 42.8211C86.3399 42.8211 82.7399 42.5544 80.4732 42.1544C78.3399 41.7544 74.3399 42.1544 71.6732 43.0877ZM83.1399 46.6877C83.5399 47.3544 83.0065 49.7544 81.8065 51.8877C80.7399 54.1544 79.8065 58.8211 79.8065 62.4211C79.8065 73.7544 87.8065 79.8877 93.9399 73.2211C97.2732 69.4877 97.4065 56.6877 94.0732 51.4877C91.1399 47.0877 92.0732 45.3544 97.2732 45.3544C110.74 45.3544 124.473 54.4211 131.807 68.1544C135.673 75.4877 136.473 78.2877 136.873 88.0211C137.273 97.3544 136.873 100.688 134.34 107.221C128.073 124.021 106.74 139.088 95.4065 134.821L91.9399 133.488L94.4732 127.754C97.6732 120.821 97.8065 114.554 95.1399 109.354C91.5399 102.421 86.2065 101.888 81.5399 107.888C79.2732 110.821 79.5399 123.888 81.8065 128.021C84.6065 132.821 84.2065 134.554 80.4732 135.488C75.8065 136.688 63.6732 130.554 57.0065 123.488C53.9399 120.554 49.9399 114.954 48.0732 111.354C44.8732 105.354 44.4732 103.221 44.4732 90.6877C44.4732 78.4211 44.8732 75.8877 47.8065 70.0211C53.9399 57.4877 69.0065 45.4877 78.7399 45.3544C80.7399 45.3544 82.7399 45.8877 83.1399 46.6877ZM91.4065 54.8211C95.2732 62.4211 92.0732 74.2877 86.8732 71.2211C82.2065 68.4211 83.5399 49.4877 88.2065 51.0877C89.1399 51.3544 90.6065 52.9544 91.4065 54.8211ZM91.8065 110.554C94.6065 115.888 92.3399 127.621 88.3399 128.954C85.1399 130.021 82.3399 116.154 84.6065 110.154C85.6732 107.221 90.0732 107.488 91.8065 110.554Z" fill="black"/>
</svg>
