<svg width="180" height="180" viewBox="0 0 180 180" fill="none" xmlns="http://www.w3.org/2000/svg">
<rect x="0.1" y="0.1" width="179.8" height="179.8" fill="white" stroke="#CBCBCB" stroke-width="0.2"/>
<path d="M57.3473 42.3036C38.5473 48.9703 25.7473 64.9703 26.014 81.1036C26.2806 92.437 26.2806 96.037 26.014 102.704C25.8806 107.237 26.6806 110.437 29.3473 114.837C33.7473 122.437 44.2806 132.037 52.414 135.77C64.5473 141.504 84.6806 141.504 96.1473 135.77C109.214 129.37 117.481 119.904 124.281 103.504C127.081 96.7036 128.681 94.5703 130.147 95.1036C131.347 95.5036 135.081 96.7036 138.547 98.037C145.747 100.57 149.881 99.9036 155.081 95.5036C158.014 92.9703 158.547 91.637 157.747 88.7036C155.881 81.3703 142.281 79.3703 132.681 84.9703C130.681 86.1703 128.814 86.837 128.547 86.437C128.281 86.1703 125.614 80.7036 122.414 74.3036C115.747 60.437 105.881 49.1036 96.414 44.1703C87.214 39.5036 67.8806 38.5703 57.3473 42.3036ZM88.414 45.3703C100.947 49.237 109.881 58.3036 119.347 76.837L126.281 90.5703L123.747 95.5036C122.281 98.3036 119.614 104.17 117.481 108.437C113.081 118.17 102.814 128.437 92.9473 132.97C86.814 135.77 83.7473 136.304 74.2806 136.304C61.3473 136.17 55.8806 134.304 45.4806 126.57C34.5473 118.437 26.414 102.97 30.014 97.5036C30.9473 96.037 32.1473 96.3036 35.7473 98.437C43.7473 103.37 56.1473 101.637 59.614 95.237C64.414 86.1703 48.5473 80.3036 36.2806 86.5703C33.4806 88.037 30.814 88.837 30.414 88.437C28.6806 86.837 30.1473 74.5703 32.6806 69.1036C36.2806 60.9703 45.4806 52.1703 54.9473 47.9036C68.014 41.9036 75.214 41.3703 88.414 45.3703ZM151.747 87.7703C154.814 90.3036 154.814 90.5703 152.681 92.7036C148.681 96.837 131.881 94.5703 133.347 90.1703C133.881 88.3036 141.481 85.3703 145.747 85.3703C147.347 85.237 150.014 86.437 151.747 87.7703ZM54.014 89.5036C60.814 95.1036 47.214 99.9036 38.014 95.1036C33.3473 92.7036 34.1473 91.237 41.7473 88.5703C46.9473 86.7036 50.814 87.1036 54.014 89.5036Z" fill="black"/>
</svg>
