<svg width="180" height="180" viewBox="0 0 180 180" fill="none" xmlns="http://www.w3.org/2000/svg">
<rect x="0.1" y="0.1" width="179.8" height="179.8" fill="white" stroke="#CBCBCB" stroke-width="0.2"/>
<path d="M83.9256 16.0665C78.9922 19.2665 78.1922 27.9332 81.9256 35.3998C83.3922 38.3332 83.9256 40.7332 83.1256 41.1332C82.4589 41.5332 77.7922 43.9332 72.8589 46.4665C59.7922 52.9998 52.3256 60.0665 46.7256 71.2665C44.1922 76.4665 42.0589 81.5332 42.0589 82.5998C42.0589 85.5332 38.9922 85.9332 33.6589 83.6665C26.5922 80.7332 21.5256 81.1332 16.8589 85.1332C11.9256 89.2665 11.7922 90.1998 16.0589 94.3332C18.5922 96.9998 20.5922 97.6665 26.3256 97.6665C30.5922 97.6665 34.5922 96.8665 36.4589 95.5332C39.5256 93.3998 42.0589 93.9332 42.0589 96.7332C42.0589 97.6665 43.7922 102.066 45.9256 106.6C51.7922 118.733 58.8589 125.666 72.4589 132.466C78.8589 135.666 84.3256 138.466 84.7256 138.733C84.9922 138.866 84.5922 140.333 83.6589 141.666C81.1256 145.8 80.1922 154.6 81.9256 158.733C84.8589 165.933 90.4589 166.866 95.3922 161C97.6589 158.333 97.2589 148.066 94.7256 143.133C93.6589 140.866 92.7256 138.866 92.7256 138.6C92.7256 138.333 95.2589 137.266 98.4589 136.333C113.259 131.933 128.192 120.066 132.992 109C134.192 106.066 136.459 100.866 137.926 97.3998L140.459 91.1332L145.526 93.7998C151.659 96.8665 156.859 96.9998 161.926 94.3332C167.926 91.2665 168.859 87.1332 164.726 82.9998C161.526 79.7998 149.926 79.3998 144.726 82.3332C142.859 83.3998 140.992 84.1998 140.592 84.3332C140.192 84.3332 137.926 80.5998 135.659 75.9332C129.392 63.2665 119.926 53.5332 108.459 47.9332C103.126 45.2665 96.9922 42.5998 94.9922 41.7998C91.1256 40.3332 91.1256 40.1998 93.5256 36.7332C96.4589 32.0665 96.4589 22.8665 93.5256 18.4665C91.3922 15.1332 86.9922 13.9332 83.9256 16.0665ZM91.2589 22.4665C92.3256 24.9998 92.3256 27.2665 91.3922 30.9998C89.5256 37.9332 87.9256 38.5998 85.3922 33.7998C82.9922 29.1332 82.8589 25.1332 84.7256 21.5332C86.7256 18.0665 89.3922 18.3332 91.2589 22.4665ZM115.126 56.7332C122.326 62.1998 130.059 72.3332 134.992 82.3332C137.526 87.6665 137.526 87.7998 134.726 94.9998C126.192 116.733 116.859 126.2 97.3922 132.333C94.4589 133.266 91.3922 134.466 90.5922 135.133C88.3256 137 67.7922 126.2 60.4589 119.266C55.5256 114.733 52.1922 109.933 48.4589 101.8C42.5922 89.2665 42.7256 88.4665 50.3256 73.2665C55.5256 62.8665 63.1256 55.7998 76.5922 49.1332L87.7922 43.3998L97.9256 47.2665C103.526 49.3998 111.259 53.6665 115.126 56.7332ZM160.459 85.1332C163.392 87.1332 163.392 87.3998 161.259 89.7998C158.726 92.5998 153.526 92.9998 148.192 90.9998C143.926 89.3998 143.659 85.9332 147.792 85.1332C149.392 84.7332 151.926 84.1998 153.392 83.9332C154.859 83.5332 156.326 83.2665 156.726 83.1332C157.126 83.1332 158.859 83.9332 160.459 85.1332ZM32.5922 87.3998C37.1256 89.6665 36.7256 91.3998 31.1256 93.2665C22.5922 96.0665 13.7922 90.9998 20.4589 87.1332C23.5256 85.2665 28.7256 85.3998 32.5922 87.3998ZM93.1256 150.2C94.5922 158.333 89.2589 163.666 85.9256 157.533C84.1922 154.333 85.1256 146.466 87.5256 143.533C88.8589 141.933 89.3922 141.933 90.7256 143.933C91.6589 145.266 92.7256 148.066 93.1256 150.2Z" fill="black"/>
</svg>
