<svg width="180" height="180" viewBox="0 0 180 180" fill="none" xmlns="http://www.w3.org/2000/svg">
<rect x="0.1" y="0.1" width="179.8" height="179.8" fill="white" stroke="#CBCBCB" stroke-width="0.2"/>
<path d="M82.2 20.8929C79.9333 25.1596 80.2 35.2929 82.8667 40.2262C85.1333 44.7596 84.3333 46.0929 78.3333 47.9596C67.1333 51.2929 51.1333 63.2929 46.8667 71.5596C44.6 75.9596 44.4667 84.8929 46.6 87.0262C47.8 88.2262 47.8 89.0262 46.6 90.2262C45.6667 91.1596 45 94.3596 45 97.4262C45 113.026 56.3333 125.96 75 131.56C80.2 133.026 84.7333 134.626 85.2667 135.16C85.8 135.693 85.4 138.76 84.4667 142.093C81.8 150.893 83.1333 159.56 87.6667 161.96C95.5333 166.093 101.133 152.626 96.3333 141.026C95.2667 138.493 94.3333 135.826 94.3333 135.426C94.3333 134.893 97.8 133.426 102.067 132.093C106.2 130.76 111.8 128.626 114.333 127.293C120.333 124.226 129.533 115.426 132.333 109.826C135.133 104.493 136.467 91.9596 134.6 89.5596C133.667 88.4929 133.667 87.1596 134.333 85.9596C136.867 82.0929 135.8 74.6262 131.933 68.4929C124.467 56.8929 112.333 49.1596 97.4 46.6262C94.2 46.0929 91.6667 45.4262 91.6667 45.0262C91.6667 44.6262 92.6 41.5596 93.9333 38.0929C96.3333 31.1596 95.6667 23.4262 92.2 19.9596C89.1333 17.0262 84.0667 17.4262 82.2 20.8929ZM90.8667 26.3596C92.4667 30.8929 90.3333 39.9596 87.6667 39.9596C86.4667 39.9596 85.2667 37.9596 84.4667 34.2262C82.3333 24.3596 87.8 17.6929 90.8667 26.3596ZM98.4667 50.7596C102.867 51.8262 109.267 54.0929 112.867 55.9596C124.2 61.5596 133.8 75.6929 131.267 82.6262C130.6 84.3596 129.933 84.3596 125.8 82.6262C118.2 79.4262 109.533 79.9596 105.667 83.9596C101.533 88.0929 101.533 89.1596 105.8 92.4929C110.067 95.8262 118.867 96.2262 125.933 93.2929C128.467 92.2262 130.867 91.2929 131.133 91.2929C132.467 91.2929 131.533 101.16 129.8 105.16C127.533 110.626 118.733 120.626 116.2 120.626C115.133 120.626 114.333 121.16 114.333 121.826C114.333 122.493 109 125.026 102.467 127.56L90.6 132.226L79 128.493C72.6 126.36 65.9333 123.826 64.2 122.626C55.6667 117.026 49 106.36 49 98.2262C49 91.5596 49.8 90.8929 54.7333 93.5596C57 94.6262 61.6667 95.6929 65.2667 95.6929C70.6 95.8262 72.3333 95.1596 75.4 92.2262C79.4 88.2262 78.7333 85.4262 72.8667 82.2262C69 80.0929 57.9333 81.0262 53.6667 83.8262C49.9333 86.2262 49 85.4262 49 80.0929C49 75.5596 51.1333 71.8262 57.5333 64.7596C61.6667 60.2262 87.2667 46.8929 89.4 48.2262C90.0667 48.6262 94.0667 49.6929 98.4667 50.7596ZM70.8667 85.4262C76.8667 87.6929 69.5333 93.4262 62.6 91.8262C55.6667 90.3596 54.3333 89.8262 54.3333 88.4929C54.3333 85.6929 65.8 83.5596 70.8667 85.4262ZM125.933 86.3596C128.6 89.1596 117.533 92.3596 111.133 90.7596C107.533 89.8262 106.467 86.7596 109.4 85.4262C111.533 84.4929 124.733 85.2929 125.933 86.3596ZM92.8667 143.426C95 149.426 94.7333 154.626 92.2 156.76C90.3333 158.226 89.8 158.093 88.2 155.96C87.1333 154.626 86.3333 152.093 86.3333 150.626C86.3333 146.76 89 139.293 90.3333 139.293C90.8667 139.293 92.0667 141.16 92.8667 143.426Z" fill="black"/>
</svg>
