<svg width="180" height="180" viewBox="0 0 180 180" fill="none" xmlns="http://www.w3.org/2000/svg">
<rect x="0.1" y="0.1" width="179.8" height="179.8" fill="white" stroke="#CBCBCB" stroke-width="0.2"/>
<path d="M84.4502 17.4376C79.6502 22.2376 78.9835 26.9043 82.1835 34.371C84.1835 39.171 84.4502 41.171 83.2502 41.971C81.2502 43.7043 60.0502 54.2376 58.8502 54.2376C58.1835 54.2376 56.7168 51.571 55.3835 48.2376C49.5168 33.971 31.1168 32.771 35.7835 46.9043C37.6502 52.5043 42.4502 56.5043 48.5835 57.7043C51.1168 58.1043 53.1168 59.171 53.1168 60.1043C53.1168 60.9043 50.9835 65.4376 48.4502 70.2376C45.7835 75.0376 42.8502 80.9043 41.6502 83.3043C39.7835 87.571 39.7835 87.571 35.6502 85.4376C21.7835 78.371 4.71682 89.0376 17.5168 96.9043C22.1835 99.8376 29.2502 99.571 35.9168 96.1043C39.3835 94.371 39.3835 94.5043 46.8502 106.904C54.9835 120.504 55.6502 122.238 52.3168 122.238C48.3168 122.238 40.0502 127.838 37.6502 132.238C36.1835 135.038 35.6502 137.704 36.3168 139.971C37.1168 143.171 37.7835 143.571 42.7168 143.571C47.2502 143.571 48.8502 142.771 52.5835 138.771C55.1168 136.238 57.1168 133.038 57.1168 131.838C57.2502 125.838 58.9835 125.704 71.9168 131.571C78.8502 134.638 84.9835 137.571 85.5168 138.238C86.1835 138.771 85.7835 141.038 84.5835 143.304C80.0502 152.104 83.1168 164.904 89.6502 164.904C97.1168 164.904 100.317 152.238 95.3835 142.771L93.2501 138.638L106.717 131.704C119.383 125.038 120.45 124.771 122.05 127.038C122.983 128.371 123.783 130.238 123.783 131.171C123.783 134.104 131.783 141.971 135.783 142.904C148.45 145.704 148.183 129.838 135.383 123.704C132.183 122.104 128.983 120.904 128.05 120.904C126.983 120.904 127.117 119.438 128.317 115.838C130.317 110.638 138.317 92.6376 139.117 91.8376C139.383 91.571 141.383 92.371 143.65 93.4376C145.783 94.6376 150.583 95.571 154.317 95.571C159.917 95.571 161.383 95.0376 163.65 92.1043C167.117 87.7043 167.117 87.3043 163.917 83.4376C161.917 80.9043 160.183 80.371 154.183 80.371C149.383 80.371 145.65 81.171 143.25 82.771C141.25 84.1043 139.383 84.9043 139.117 84.6376C137.517 82.9043 126.45 60.371 126.45 58.9043C126.45 57.971 128.183 56.771 130.317 56.2376C135.783 55.0376 143.783 47.3043 143.783 43.171C143.783 37.0376 142.45 35.571 136.983 35.571C130.583 35.571 125.65 39.571 123.117 46.9043C120.85 53.7043 118.983 53.571 103.383 46.2376L91.7835 40.771L93.7835 36.9043C96.5835 31.4376 96.4501 20.5043 93.5168 17.971C88.9835 14.1043 87.7835 14.1043 84.4502 17.4376ZM92.0501 22.9043C93.1168 25.4376 93.1168 27.571 91.9168 31.571C90.0502 37.7043 86.8502 38.6376 85.6502 33.171C85.2502 31.171 84.7168 28.771 84.3168 27.8376C83.5168 25.171 86.1835 19.571 88.4502 19.571C89.5168 19.571 91.2501 21.0376 92.0501 22.9043ZM139.783 42.1043C139.783 45.3043 131.25 52.9043 127.65 52.9043C125.517 52.9043 125.117 52.371 125.783 49.8376C128.183 42.2376 139.783 35.7043 139.783 42.1043ZM45.7835 41.971C48.7168 43.971 53.1168 50.771 53.1168 53.171C53.1168 56.771 48.4502 55.171 42.8502 49.8376C37.6502 44.9043 36.9835 40.9043 41.5168 40.9043C43.1168 40.9043 45.1168 41.4376 45.7835 41.971ZM93.7835 46.2376C97.5168 47.571 104.05 50.6376 108.317 52.9043C112.583 55.0376 117.25 56.9043 118.717 56.9043C120.183 56.9043 121.783 58.371 122.583 60.5043C123.25 62.6376 126.717 69.7043 130.05 76.371L136.183 88.5043L129.917 101.971C126.583 109.438 123.783 116.638 123.783 118.104C123.783 119.971 122.583 121.171 120.183 121.704C118.05 122.238 110.583 125.571 103.383 129.304L90.3168 135.971L77.3835 129.971C70.3168 126.638 62.8502 123.304 60.8502 122.504C58.7168 121.571 57.1168 119.971 57.1168 118.771C57.1168 117.438 53.7835 110.771 49.6502 103.704L42.1835 90.9043L49.6502 76.6376C53.7835 68.771 57.1168 61.4376 57.1168 60.2376C57.1168 59.171 57.9168 58.2376 58.8502 58.2376C61.9168 58.2376 87.1168 45.171 87.1168 43.571C87.1168 43.571 90.1835 44.771 93.7835 46.2376ZM159.517 85.7043C163.917 88.771 161.117 91.571 153.517 91.571C143.517 91.571 139.783 87.8376 146.983 84.9043C151.383 83.0376 156.317 83.4376 159.517 85.7043ZM32.4502 87.8376C36.5835 89.7043 36.1835 91.571 31.2502 93.971C26.7168 96.2376 18.7168 95.0376 17.5168 91.971C15.6502 87.3043 25.2502 84.5043 32.4502 87.8376ZM136.183 129.038C143.783 135.304 142.45 141.704 134.45 137.571C130.85 135.704 126.45 129.571 126.45 126.238C126.45 123.571 131.25 124.904 136.183 129.038ZM54.4502 128.104C54.4502 129.038 53.1168 131.838 51.3835 134.371C49.1168 137.704 47.3835 138.904 44.4502 138.904C38.9835 138.904 38.8502 136.238 44.1835 130.904C48.8502 126.238 54.4502 124.638 54.4502 128.104ZM94.4501 151.838C94.4501 160.238 89.5168 163.838 86.7168 157.438C85.1168 154.104 85.6502 149.171 88.1835 144.371C89.3835 141.838 89.5168 141.838 91.9168 144.771C93.3835 146.504 94.4501 149.704 94.4501 151.838Z" fill="black"/>
</svg>
