<svg width="180" height="180" viewBox="0 0 180 180" fill="none" xmlns="http://www.w3.org/2000/svg">
<rect x="0.1" y="0.1" width="179.8" height="179.8" fill="white" stroke="#CBCBCB" stroke-width="0.2"/>
<path d="M76.0301 41.5422C59.2301 47.4088 44.1635 62.7422 37.3635 80.3422C34.8301 87.2755 34.1635 87.6755 29.6301 84.8755C22.0301 80.0755 9.23013 81.4089 6.03013 87.4089C3.8968 91.5422 4.96346 94.0755 10.2968 97.4089C15.3635 100.609 24.1635 100.209 29.7635 96.6089C33.7635 93.9422 36.1635 94.8755 37.2301 99.6755C40.2968 112.076 56.2968 129.542 70.4301 136.209C78.9635 140.209 81.2301 140.742 91.3635 140.742C101.63 140.742 103.763 140.342 111.763 136.342C122.43 131.142 132.43 119.676 139.63 104.742C146.03 91.2755 145.63 91.8089 149.363 94.2089C151.23 95.4089 155.897 96.3422 160.697 96.4755C168.163 96.7422 169.23 96.4755 172.163 93.0089C176.163 88.3422 176.163 87.4089 172.03 83.4089C169.497 80.7422 167.497 80.0755 161.897 80.0755C158.163 80.0755 152.963 81.1422 150.43 82.3422C144.963 84.8755 145.763 85.5422 138.03 71.8089C122.963 45.1422 98.9635 33.4088 76.0301 41.5422ZM101.497 44.6088C115.23 48.2088 127.63 60.2088 137.363 79.1422L142.563 89.0089L136.03 102.209C127.63 119.542 116.03 131.676 104.163 135.276C81.4968 142.342 55.8968 128.742 42.9635 102.609C40.2968 97.1422 38.0301 91.6755 38.0301 90.6089C38.0301 85.9422 48.8301 67.0089 55.0968 60.4755C69.8968 45.2755 84.8301 40.2088 101.497 44.6088ZM169.23 87.1422C172.563 92.6089 160.697 95.5422 152.563 91.2755C149.23 89.6755 148.83 88.8755 150.163 87.2755C153.897 82.7422 166.43 82.6089 169.23 87.1422ZM26.0301 87.1422C30.8301 89.5422 30.1635 92.4755 24.1635 94.4755C18.1635 96.3422 12.4301 95.5422 9.89679 92.4755C8.43013 90.7422 8.56346 90.0755 11.2301 87.9422C14.8301 85.0089 21.2301 84.7422 26.0301 87.1422Z" fill="black"/>
</svg>
