<svg width="180" height="180" viewBox="0 0 180 180" fill="none" xmlns="http://www.w3.org/2000/svg">
<rect x="0.1" y="0.1" width="179.8" height="179.8" fill="white" stroke="#CBCBCB" stroke-width="0.2"/>
<path d="M30.5718 48.2379L34.8087 52.5002L26.2399 61.0179L22.003 56.7556L30.5718 48.2379Z" fill="black"/>
<rect x="27.3086" y="26.5002" width="127" height="127" stroke="black" stroke-width="3"/>
<path d="M41.1404 23.6704L45.3773 27.9327L36.8085 36.4504L32.5716 32.188L41.1404 23.6704Z" fill="black"/>
<path d="M56.8774 22.0002L61.1144 26.2625L52.5456 34.7802L48.3087 30.5179L56.8774 22.0002Z" fill="black"/>
<path d="M69.8774 23.0004L74.1144 27.2628L65.5456 35.7805L61.3087 31.5181L69.8774 23.0004Z" fill="black"/>
<path d="M84.5717 22.238L88.8086 26.5004L80.2398 35.0181L76.0029 30.7557L84.5717 22.238Z" fill="black"/>
<path d="M98.1405 22.7202L102.377 26.9826L93.8086 35.5002L89.5717 31.2379L98.1405 22.7202Z" fill="black"/>
<mask id="mask0_0_1" style="mask-type:alpha" maskUnits="userSpaceOnUse" x="25" y="89" width="66" height="66">
<rect x="90.8086" y="89.0002" width="65" height="65" transform="rotate(90 90.8086 89.0002)" fill="white"/>
</mask>
<g mask="url(#mask0_0_1)">
<line x1="105.93" y1="131.122" x2="66.9299" y2="170.122" stroke="black" stroke-width="6"/>
<line x1="99.9299" y1="123.122" x2="59.9299" y2="163.122" stroke="black" stroke-width="6"/>
<line x1="93.9299" y1="115.122" x2="44.9299" y2="164.122" stroke="black" stroke-width="6"/>
<line x1="93.9299" y1="101.122" x2="29.9299" y2="165.122" stroke="black" stroke-width="6"/>
<line x1="94.9299" y1="86.1216" x2="21.9299" y2="159.122" stroke="black" stroke-width="6"/>
<line x1="82.9299" y1="84.1216" x2="18.9299" y2="148.122" stroke="black" stroke-width="6"/>
<line x1="65.9299" y1="87.1216" x2="19.9299" y2="133.122" stroke="black" stroke-width="6"/>
<line x1="59.9299" y1="79.1216" x2="19.9299" y2="119.122" stroke="black" stroke-width="6"/>
<line x1="52.9299" y1="72.1216" x2="13.9299" y2="111.122" stroke="black" stroke-width="6"/>
</g>
<mask id="mask1_0_1" style="mask-type:alpha" maskUnits="userSpaceOnUse" x="29" y="29" width="66" height="66">
<rect x="94.8086" y="29.0002" width="65" height="65" transform="rotate(90 94.8086 29.0002)" fill="white"/>
</mask>
<g mask="url(#mask1_0_1)">
<line x1="109.93" y1="71.1216" x2="70.9299" y2="110.122" stroke="black" stroke-width="6"/>
<line x1="103.93" y1="63.1216" x2="63.9299" y2="103.122" stroke="black" stroke-width="6"/>
<line x1="97.9299" y1="55.1216" x2="48.9299" y2="104.122" stroke="black" stroke-width="6"/>
<line x1="97.9299" y1="41.1216" x2="33.9299" y2="105.122" stroke="black" stroke-width="6"/>
<line x1="98.9299" y1="26.1216" x2="25.9299" y2="99.1216" stroke="black" stroke-width="6"/>
<line x1="86.9299" y1="24.1216" x2="22.9299" y2="88.1216" stroke="black" stroke-width="6"/>
<line x1="69.9299" y1="27.1216" x2="23.9299" y2="73.1216" stroke="black" stroke-width="6"/>
<line x1="63.9299" y1="19.1216" x2="23.9299" y2="59.1216" stroke="black" stroke-width="6"/>
<line x1="56.9299" y1="12.1216" x2="17.9299" y2="51.1216" stroke="black" stroke-width="6"/>
</g>
<rect x="90" y="28" width="35" height="69" fill="white"/>
<rect x="32.3494" y="74.4734" width="6.00992" height="12.082" transform="rotate(45.1714 32.3494 74.4734)" fill="black"/>
<path d="M30.573 62.2379L34.8099 66.5002L26.2411 75.0179L22.0042 70.7556L30.573 62.2379Z" fill="black"/>
<path d="M30.5718 48.2379L34.8087 52.5002L26.2399 61.0179L22.003 56.7556L30.5718 48.2379Z" fill="black"/>
<path d="M31.5718 33.2378L35.8087 37.5001L27.2399 46.0178L23.003 41.7555L31.5718 33.2378Z" fill="black"/>
<path d="M30.5718 48.2379L34.8087 52.5002L26.2399 61.0179L22.003 56.7556L30.5718 48.2379Z" fill="black"/>
<rect x="27" y="12" width="75" height="13" fill="white"/>
<rect x="27" y="12" width="75" height="13" fill="white"/>
<mask id="mask2_0_1" style="mask-type:alpha" maskUnits="userSpaceOnUse" x="90" y="28" width="65" height="65">
<rect x="90" y="28" width="65" height="65" fill="white"/>
</mask>
<g mask="url(#mask2_0_1)">
<line x1="135.707" y1="12.2929" x2="172.707" y2="49.2929" stroke="black" stroke-width="2"/>
<line x1="130.707" y1="14.2929" x2="169.707" y2="53.2929" stroke="black" stroke-width="2"/>
<line x1="126.707" y1="17.2929" x2="166.707" y2="57.2929" stroke="black" stroke-width="2"/>
<line x1="122.707" y1="20.2929" x2="162.707" y2="60.2929" stroke="black" stroke-width="2"/>
<line x1="119.707" y1="24.2929" x2="156.707" y2="61.2929" stroke="black" stroke-width="2"/>
<line x1="114.707" y1="26.2929" x2="163.707" y2="75.2929" stroke="black" stroke-width="2"/>
<line x1="106.707" y1="25.2929" x2="162.707" y2="81.2929" stroke="black" stroke-width="2"/>
<line x1="100.707" y1="26.2929" x2="164.707" y2="90.2929" stroke="black" stroke-width="2"/>
<line x1="93.7071" y1="26.2929" x2="161.707" y2="94.2929" stroke="black" stroke-width="2"/>
<line x1="85.7071" y1="25.2929" x2="158.707" y2="98.2929" stroke="black" stroke-width="2"/>
<line x1="87.7071" y1="34.2929" x2="152.707" y2="99.2929" stroke="black" stroke-width="2"/>
<line x1="83.7071" y1="37.2929" x2="147.707" y2="101.293" stroke="black" stroke-width="2"/>
<line x1="85.7071" y1="46.2929" x2="141.707" y2="102.293" stroke="black" stroke-width="2"/>
<line x1="86.7071" y1="54.2929" x2="132.707" y2="100.293" stroke="black" stroke-width="2"/>
<line x1="82.7071" y1="57.2929" x2="122.707" y2="97.2929" stroke="black" stroke-width="2"/>
<line x1="78.7071" y1="60.2929" x2="118.707" y2="100.293" stroke="black" stroke-width="2"/>
<line x1="76.7071" y1="65.2929" x2="113.707" y2="102.293" stroke="black" stroke-width="2"/>
<line x1="71.7071" y1="67.2929" x2="110.707" y2="106.293" stroke="black" stroke-width="2"/>
<line x1="67.7071" y1="70.2929" x2="107.707" y2="110.293" stroke="black" stroke-width="2"/>
</g>
<mask id="mask3_0_1" style="mask-type:alpha" maskUnits="userSpaceOnUse" x="90" y="91" width="65" height="65">
<rect x="90" y="91" width="65" height="65" fill="white"/>
</mask>
<g mask="url(#mask3_0_1)">
<line x1="135.707" y1="75.2929" x2="172.707" y2="112.293" stroke="black" stroke-width="2"/>
<line x1="130.707" y1="77.2929" x2="169.707" y2="116.293" stroke="black" stroke-width="2"/>
<line x1="126.707" y1="80.2929" x2="166.707" y2="120.293" stroke="black" stroke-width="2"/>
<line x1="122.707" y1="83.2929" x2="162.707" y2="123.293" stroke="black" stroke-width="2"/>
<line x1="119.707" y1="87.2929" x2="156.707" y2="124.293" stroke="black" stroke-width="2"/>
<line x1="114.707" y1="89.2929" x2="163.707" y2="138.293" stroke="black" stroke-width="2"/>
<line x1="106.707" y1="88.2929" x2="162.707" y2="144.293" stroke="black" stroke-width="2"/>
<line x1="100.707" y1="89.2929" x2="164.707" y2="153.293" stroke="black" stroke-width="2"/>
<line x1="93.7071" y1="89.2929" x2="161.707" y2="157.293" stroke="black" stroke-width="2"/>
<line x1="85.7071" y1="88.2929" x2="158.707" y2="161.293" stroke="black" stroke-width="2"/>
<line x1="87.7071" y1="97.2929" x2="152.707" y2="162.293" stroke="black" stroke-width="2"/>
<line x1="83.7071" y1="100.293" x2="147.707" y2="164.293" stroke="black" stroke-width="2"/>
<line x1="85.7071" y1="109.293" x2="141.707" y2="165.293" stroke="black" stroke-width="2"/>
<line x1="86.7071" y1="117.293" x2="132.707" y2="163.293" stroke="black" stroke-width="2"/>
<line x1="82.7071" y1="120.293" x2="122.707" y2="160.293" stroke="black" stroke-width="2"/>
<line x1="78.7071" y1="123.293" x2="118.707" y2="163.293" stroke="black" stroke-width="2"/>
<line x1="76.7071" y1="128.293" x2="113.707" y2="165.293" stroke="black" stroke-width="2"/>
<line x1="71.7071" y1="130.293" x2="110.707" y2="169.293" stroke="black" stroke-width="2"/>
<line x1="67.7071" y1="133.293" x2="107.707" y2="173.293" stroke="black" stroke-width="2"/>
</g>
<rect x="14" y="36" width="12" height="55" fill="white"/>
<rect x="14" y="36" width="12" height="55" fill="white"/>
<rect x="14" y="36" width="12" height="55" fill="white"/>
<rect x="85" y="155" width="72" height="12" fill="white"/>
</svg>
