<svg width="540" height="540" viewBox="0 0 540 540" fill="none" xmlns="http://www.w3.org/2000/svg">
<rect x="0.1" y="0.1" width="179.8" height="179.8" fill="white" stroke="#CBCBCB" stroke-width="0.2"/>
<rect x="180.1" y="0.1" width="179.8" height="179.8" fill="white" stroke="#CBCBCB" stroke-width="0.2"/>
<rect x="360.1" y="0.1" width="179.8" height="179.8" fill="white" stroke="#CBCBCB" stroke-width="0.2"/>
<rect x="0.1" y="180.1" width="179.8" height="179.8" fill="white" stroke="#CBCBCB" stroke-width="0.2"/>
<rect x="180.1" y="180.1" width="179.8" height="179.8" fill="white" stroke="#CBCBCB" stroke-width="0.2"/>
<rect x="360.1" y="180.1" width="179.8" height="179.8" fill="white" stroke="#CBCBCB" stroke-width="0.2"/>
<rect x="0.1" y="360.1" width="179.8" height="179.8" fill="white" stroke="#CBCBCB" stroke-width="0.2"/>
<rect x="180.1" y="360.1" width="179.8" height="179.8" fill="white" stroke="#CBCBCB" stroke-width="0.2"/>
<rect x="360.1" y="360.1" width="179.8" height="179.8" fill="white" stroke="#CBCBCB" stroke-width="0.2"/>
<path d="M442.909 457.909V457.636C442.939 454.742 443.242 452.439 443.818 450.727C444.394 449.015 445.212 447.629 446.273 446.568C447.333 445.508 448.606 444.53 450.091 443.636C450.985 443.091 451.788 442.447 452.5 441.705C453.212 440.947 453.773 440.076 454.182 439.091C454.606 438.106 454.818 437.015 454.818 435.818C454.818 434.333 454.47 433.045 453.773 431.955C453.076 430.864 452.144 430.023 450.977 429.432C449.811 428.841 448.515 428.545 447.091 428.545C445.848 428.545 444.652 428.803 443.5 429.318C442.348 429.833 441.386 430.644 440.614 431.75C439.841 432.856 439.394 434.303 439.273 436.091H433.545C433.667 433.515 434.333 431.311 435.545 429.477C436.773 427.644 438.386 426.242 440.386 425.273C442.402 424.303 444.636 423.818 447.091 423.818C449.758 423.818 452.076 424.348 454.045 425.409C456.03 426.47 457.561 427.924 458.636 429.773C459.727 431.621 460.273 433.727 460.273 436.091C460.273 437.758 460.015 439.265 459.5 440.614C459 441.962 458.273 443.167 457.318 444.227C456.379 445.288 455.242 446.227 453.909 447.045C452.576 447.879 451.508 448.758 450.705 449.682C449.902 450.591 449.318 451.674 448.955 452.932C448.591 454.189 448.394 455.758 448.364 457.636V457.909H442.909ZM445.818 471.364C444.697 471.364 443.735 470.962 442.932 470.159C442.129 469.356 441.727 468.394 441.727 467.273C441.727 466.152 442.129 465.189 442.932 464.386C443.735 463.583 444.697 463.182 445.818 463.182C446.939 463.182 447.902 463.583 448.705 464.386C449.508 465.189 449.909 466.152 449.909 467.273C449.909 468.015 449.72 468.697 449.341 469.318C448.977 469.939 448.485 470.439 447.864 470.818C447.258 471.182 446.576 471.364 445.818 471.364Z" fill="black"/>
<path d="M445.639 47.5301C444.973 48.3301 443.106 51.6634 441.373 54.9967C438.706 60.0634 438.306 62.9967 438.173 74.3301C438.173 85.5301 438.706 88.5967 441.239 93.5301C442.839 96.8634 444.173 99.6634 444.173 99.9301C444.173 100.197 441.773 100.33 438.839 100.33C431.906 100.33 420.573 105.53 413.506 111.797C407.239 117.53 400.039 129.13 401.106 131.797C402.173 134.597 413.639 134.063 422.439 130.997C432.973 127.263 439.373 122.73 444.973 114.997L449.773 108.33L453.506 113.263C458.839 120.73 462.706 123.797 470.839 127.53C478.573 130.997 491.373 133.13 495.906 131.797C502.306 129.663 499.639 122.463 488.706 112.33C480.439 104.73 470.573 100.33 461.906 100.33C458.039 100.33 454.839 100.063 454.839 99.7967C454.839 99.5301 456.173 96.4634 457.773 92.8634C459.906 87.9301 460.573 83.7967 460.573 76.0634C460.573 67.1301 459.906 64.4634 455.906 55.9301C451.373 46.3301 448.439 44.0634 445.639 47.5301ZM452.439 59.9301C456.173 68.1967 456.439 82.4634 452.973 91.3967C450.306 98.5967 448.973 98.3301 445.373 90.3301C441.373 81.3967 441.906 63.6634 446.306 56.5967C447.373 54.9967 448.573 53.6634 448.973 53.6634C449.373 53.6634 450.973 56.4634 452.439 59.9301ZM444.706 105.397C444.973 105.93 443.373 109.13 440.973 112.33C434.973 120.597 423.373 127.263 413.906 128.063L406.573 128.73L410.173 123.13C412.306 120.063 416.839 115.397 420.573 112.73C428.706 106.73 442.839 102.463 444.706 105.397ZM474.173 108.997C480.439 111.797 493.506 123.13 493.506 125.797C493.506 127.663 483.773 127.263 477.773 125.13C467.239 121.397 453.373 109.13 455.639 105.53C456.839 103.53 466.039 105.263 474.173 108.997Z" fill="black"/>
<path d="M266.333 73.3337V88.667L244.733 88.9337C224.067 89.3337 223 89.467 223 92.0003C223 94.5337 223.933 94.667 245 94.667H267L267.667 108.667C268.2 119.867 268.733 122.667 270.333 122.667C271.933 122.667 272.467 120 272.733 108.267L273.133 94.0003L280.733 93.7337C284.867 93.7337 289 93.467 289.667 93.3337C290.467 93.067 296.867 92.9337 304.067 92.8003C316.6 92.667 317.133 92.5337 316.733 89.867C316.333 87.067 315.667 87.067 296.467 87.2003C285.533 87.3337 275.933 87.6003 275.267 87.7337C273.133 88.1337 272.067 81.6003 271.8 68.9337C271.667 58.9337 271.4 58.0003 269 58.0003C266.467 58.0003 266.333 58.9337 266.333 73.3337Z" fill="black"/>
<path d="M76.2652 75.1998C70.5319 80.9332 68.7985 86.9332 70.7985 93.8665C73.4652 103.066 78.3985 107.466 88.3985 109.333C91.8652 110 94.5319 109.466 98.5319 107.466C106.265 103.6 109.465 98.3998 109.465 89.9998C109.465 76.7998 102.532 69.9998 89.1985 69.9998C81.9985 69.9998 81.0652 70.3998 76.2652 75.1998Z" fill="black"/>
<path d="M262.848 233.475C259.915 239.608 258.982 243.741 258.448 252.808C257.915 262.941 258.182 265.075 261.248 271.608L264.582 278.941L258.315 279.741C245.115 281.475 229.248 292.675 222.848 304.808C220.582 309.341 220.448 310.141 222.182 311.875C223.915 313.475 225.648 313.608 232.848 312.541C248.048 310.141 259.515 303.208 267.782 291.208C270.315 287.475 269.915 287.208 276.315 295.875C282.182 303.741 299.382 311.208 311.382 311.208C317.382 311.208 318.182 310.808 318.982 307.875C319.915 304.141 315.515 297.741 306.448 289.608C300.315 284.008 288.315 279.208 280.848 279.208C277.915 279.208 275.515 278.941 275.515 278.675C275.515 278.408 276.715 275.341 278.315 271.875C282.582 262.275 281.648 245.341 276.182 234.541C270.582 223.475 267.782 223.208 262.848 233.475ZM276.048 255.341C276.048 264.008 272.582 276.541 270.048 276.541C268.182 276.541 264.848 269.208 263.515 262.008C262.048 254.141 263.915 240.141 267.115 235.208L269.382 231.875L272.715 239.208C275.115 244.675 276.048 248.808 276.048 255.341ZM264.848 286.008C264.848 289.875 254.982 299.341 247.115 303.075C238.448 307.341 227.515 309.875 227.515 307.608C227.515 305.741 235.515 295.875 239.782 292.675C248.048 286.141 264.848 281.741 264.848 286.008ZM295.382 288.008C297.915 289.341 303.382 293.741 307.382 297.741L314.848 305.208L308.982 305.608C300.182 306.275 290.582 302.275 282.582 294.408C278.715 290.808 275.515 286.941 275.515 286.008C275.515 283.475 289.382 284.941 295.382 288.008Z" fill="black"/>
<path d="M86.3333 252.667L87.4 267.333L71.8 267.467C63.2667 267.6 55.8 267.867 55 268C54.3333 268.133 51.2667 268.4 48.3333 268.533C43.8 268.667 43 269.067 43 271.467C43 274.267 43.4 274.267 65 273.867L86.8667 273.333L87.2667 287.333C87.6667 300.933 87.8 301.333 90.8667 301.733L94.0667 302.267L93.4 288C93 278.4 93.2667 273.6 94.2 273.2C95 272.933 105 272.533 116.333 272.4C136.6 272 137 272 137.4 269.067L137.8 266L115.133 266.933L92.3333 267.733V252.933V238H88.8667H85.4L86.3333 252.667Z" fill="black"/>
<path d="M440.854 251.464C439.254 252.13 436.32 254.664 434.454 257.197C418.987 277.464 447.387 301.73 464.987 283.464C469.787 278.397 471.254 266.397 467.787 259.864C463.654 251.73 450.454 247.597 440.854 251.464Z" fill="black"/>
<path d="M85.0575 409.6C80.1241 416.933 77.8575 425.066 77.8575 435.6C77.8575 445.2 78.7908 448.666 84.5241 459.6C84.7908 460.266 82.9241 460.666 80.3908 460.666C67.9908 460.666 53.7241 469.466 45.0575 482.133C38.6575 491.733 39.4575 493.466 50.1241 492.933C54.9241 492.8 60.9241 492 63.4575 491.066C71.8575 488.4 81.9908 480.933 85.8575 474.666C89.7241 468.133 90.9241 467.466 91.9908 471.066C93.4575 475.466 102.391 483.333 110.657 487.333C117.324 490.666 120.657 491.466 128.657 491.6C135.591 491.733 138.657 491.2 139.457 489.866C142.257 485.466 129.057 470.266 117.457 464.4C114.524 462.8 108.391 461.333 103.857 460.933C99.1908 460.666 95.4575 459.866 95.4575 459.333C95.4575 458.8 96.5241 456.4 97.8575 453.866C99.5908 450.4 100.124 446.133 100.124 436C100.124 423.6 99.8575 422.133 95.7241 414.266C93.3241 409.733 90.5241 406 89.5908 406C88.5241 406 86.5241 407.6 85.0575 409.6ZM93.0575 420.266C97.0575 429.333 97.0575 444.533 92.9241 452.533L89.8575 458.4L87.3241 454C83.8575 448.4 81.8575 437.466 82.9241 430C83.9908 422.666 87.3241 414 88.9241 414C89.7241 414 91.4575 416.8 93.0575 420.266ZM83.8575 468.8C79.9908 475.466 73.5908 481.333 66.7908 484.533C59.7241 487.866 47.4575 489.866 47.4575 487.733C47.4575 485.466 57.8575 474.4 62.9241 471.2C68.5241 467.733 77.3241 464.933 82.5241 464.8L86.2575 464.666L83.8575 468.8ZM117.057 470.266C123.724 473.866 134.124 483.866 134.124 486.8C134.124 488.8 118.791 486 111.991 482.666C104.791 479.2 95.4575 469.866 95.4575 466.266C95.4575 463.2 108.124 465.466 117.057 470.266Z" fill="black"/>
<path d="M262.287 431.404C258.287 433.004 251.487 441.271 250.42 445.804C247.354 459.938 261.62 473.804 275.354 469.938C281.087 468.471 288.02 462.071 289.22 457.271C290.82 451.004 288.954 440.871 285.62 437.271C279.487 430.604 270.02 428.204 262.287 431.404Z" fill="black"/>
</svg>
