<svg width="180" height="180" viewBox="0 0 180 180" fill="none" xmlns="http://www.w3.org/2000/svg">
<rect x="0.1" y="0.1" width="179.8" height="179.8" fill="white" stroke="#CBCBCB" stroke-width="0.2"/>
<path d="M87.7675 64.909C87.2341 65.4423 86.8341 68.509 86.8341 71.709C86.8341 76.509 86.4341 77.4423 84.3008 77.4423C80.4341 77.4423 72.3008 85.709 71.3675 90.6423L70.5675 94.7756H56.5675C42.8341 94.7756 42.7008 94.7756 43.1008 97.709C43.5008 100.642 43.9008 100.776 56.9675 100.509L70.5675 100.376L72.8341 105.576C75.3675 111.042 78.9675 114.109 84.7008 115.576C87.9008 116.376 88.1675 117.042 88.1675 123.042C88.1675 129.176 88.4341 129.576 91.2341 129.176C93.7675 128.776 94.1675 127.842 94.5675 122.509C94.8341 117.442 95.5008 116.109 97.9008 115.309C101.901 114.109 107.634 108.642 109.501 104.109C110.967 100.509 111.367 100.376 124.301 99.4423C136.167 98.6423 137.501 98.2423 137.501 95.9756C137.501 93.709 136.434 93.4423 124.434 93.4423H111.501L108.167 87.1756C105.767 82.6423 103.501 80.3756 99.2341 78.509C94.0341 76.2423 93.6341 75.5756 93.2341 70.3756C92.8341 65.0423 90.3008 62.509 87.7675 64.909Z" fill="black"/>
</svg>
