<svg width="180" height="180" viewBox="0 0 180 180" fill="none" xmlns="http://www.w3.org/2000/svg">
<rect x="0.1" y="0.1" width="179.8" height="179.8" fill="white" stroke="#CBCBCB" stroke-width="0.2"/>
<path d="M86.558 33.3626C78.958 44.0293 77.358 66.1626 83.358 76.8293C84.958 79.6293 86.2913 82.0293 86.2913 82.296C86.2913 82.5626 83.2247 83.096 79.4913 83.6293C72.0247 84.696 59.758 90.4293 54.0247 95.6293C48.558 100.563 42.158 111.763 43.0913 114.429C43.8913 116.429 45.358 116.696 53.4913 116.029C65.2247 115.096 74.158 111.229 82.558 103.363L88.958 97.3626V104.029C88.958 110.296 88.8247 110.696 83.8913 112.829C73.8913 117.229 69.8913 131.496 76.0247 140.429C80.8247 147.629 85.0913 150.029 92.958 150.029C114.025 150.029 120.691 120.696 101.358 112.829C95.758 110.429 95.6247 110.296 95.6247 104.029V97.496L101.758 102.963C109.225 109.496 120.025 113.763 131.225 114.696C140.958 115.629 142.691 113.763 139.358 106.563C133.891 95.096 119.358 85.2293 105.891 83.6293C101.758 83.096 98.2913 82.1626 98.2913 81.6293C98.2913 80.9626 99.2247 78.0293 100.425 75.096C102.025 71.2293 102.425 66.696 102.025 58.1626C101.625 48.4293 100.958 45.096 97.6247 38.4293C95.358 34.0293 92.558 30.296 91.358 30.0293C90.158 29.7626 88.0247 31.3626 86.558 33.3626ZM94.6913 43.6293C98.558 50.9626 99.2247 64.696 96.0247 73.096C94.6913 76.8293 92.6913 79.7626 91.6247 79.7626C88.558 79.7626 84.6913 67.496 84.6913 57.7626C84.6913 48.696 88.158 37.2293 90.6913 38.1626C91.4913 38.4293 93.2247 40.8293 94.6913 43.6293ZM116.558 92.1626C123.491 95.496 131.891 102.696 134.558 107.629C135.891 110.029 135.491 110.163 128.291 109.363C124.025 108.963 117.491 106.963 113.491 105.096C106.425 101.629 95.0913 90.4293 96.4247 88.296C97.6247 86.296 109.358 88.5626 116.558 92.1626ZM85.358 92.5626C82.158 98.1626 70.0247 107.629 63.758 109.629C60.958 110.429 56.4247 111.096 53.6247 111.096H48.6913L50.958 107.363C57.6247 96.9626 71.4913 88.5626 82.0247 88.4293H87.758L85.358 92.5626Z" fill="black"/>
</svg>
