<svg width="180" height="180" viewBox="0 0 180 180" fill="none" xmlns="http://www.w3.org/2000/svg">
<rect x="0.1" y="0.1" width="179.8" height="179.8" fill="white" stroke="#CBCBCB" stroke-width="0.2"/>
<path d="M85.5656 35.5332C78.099 43.7999 75.5656 65.2665 80.6323 78.0665L83.299 84.5999L74.3656 81.9332C66.3656 79.5332 64.499 79.3999 54.899 80.7332C42.099 82.5999 32.3656 87.6665 33.0323 92.0665C33.299 94.0665 35.699 96.1999 40.6323 98.5999C47.0323 101.933 49.4323 102.333 60.3656 102.333C70.2323 102.333 73.9656 101.8 78.099 99.6665C83.9656 96.5999 84.3656 97.1332 81.4323 104.067C77.1656 114.2 79.699 134.733 86.3656 143.933C90.3656 149.667 93.5656 148.733 97.699 140.6C102.766 130.733 103.699 113.533 99.5656 104.333C98.099 100.867 96.7656 97.7999 96.7656 97.3999C96.7656 97.1332 98.7656 97.9332 101.166 99.2665C104.232 100.867 108.766 101.533 117.432 101.533C128.232 101.667 130.366 101.267 138.499 97.3999C146.232 93.6665 147.566 92.5999 147.166 90.0665C146.632 85.9332 138.099 81.3999 127.032 79.6665C118.232 78.0665 107.432 79.3999 99.1656 82.9999C96.899 83.9332 96.899 83.5332 98.7656 78.3332C101.032 71.9332 101.432 57.2665 99.4323 50.3332C97.9656 44.8665 90.7656 32.9999 89.0323 32.9999C88.3656 32.9999 86.7656 34.0665 85.5656 35.5332ZM92.6323 47.5332C96.499 56.4665 96.499 71.2665 92.6323 79.6665L89.8323 85.6665L86.3656 78.9999C81.9656 70.3332 81.4323 55.2665 85.299 46.5999C86.6323 43.5332 88.2323 40.9999 88.7656 40.9999C89.299 40.9999 91.0323 43.9332 92.6323 47.5332ZM135.832 86.8665C138.499 88.1999 140.766 89.7999 140.766 90.3332C140.766 90.9999 137.299 92.7332 133.166 94.3332C123.966 97.7999 109.966 97.5332 101.566 93.9332C96.7656 91.7999 96.499 91.3999 98.3656 89.5332C104.366 83.3999 125.432 81.9332 135.832 86.8665ZM75.8323 87.1332C79.299 88.3332 82.3656 89.7999 82.7656 90.4665C84.3656 92.8665 72.2323 97.3999 62.7656 97.7999C53.1656 98.1999 40.7656 95.1332 39.8323 92.1999C39.4323 90.9999 44.7656 88.0665 51.4323 85.7999C55.9656 84.4665 69.9656 85.1332 75.8323 87.1332ZM94.2323 103.8C97.9656 111.133 98.2323 127.133 94.899 135.4C93.5656 138.467 91.9656 141 91.299 141C88.499 141 84.3656 128.333 84.2323 119.667C84.099 111 87.699 98.3332 90.2323 98.3332C90.899 98.3332 92.6323 100.867 94.2323 103.8Z" fill="black"/>
</svg>
