<svg width="180" height="180" viewBox="0 0 180 180" fill="none" xmlns="http://www.w3.org/2000/svg">
<rect x="0.1" y="0.1" width="179.8" height="179.8" fill="white" stroke="#CBCBCB" stroke-width="0.2"/>
<path d="M114.667 70.4694C103.733 77.4027 93.7333 83.536 92.6667 84.2027C91.2 85.136 84.4 81.936 68 72.8694C46.1333 60.736 38 57.936 38 62.2027C38 65.0027 42.2667 67.936 63.2 79.0027C73.4667 84.4694 82 89.4027 82 89.936C82 90.336 72.8 96.336 61.7333 103.136C41.3333 115.403 39.3333 116.869 39.3333 119.936C39.3333 124.336 47.6 121.003 68 108.336C80 101.003 90.4 95.0027 91.2 95.0027C92.1333 95.0027 96.9333 97.2694 101.733 100.203C125.467 113.803 137.733 120.336 139.867 120.336C141.6 120.336 142.133 119.403 141.733 116.736C141.333 113.669 138.533 111.669 120.4 101.803C108.8 95.536 99.3333 90.0694 99.3333 89.6694C99.3333 89.0027 131.867 68.736 137.733 65.8027C139.6 64.8694 140.667 63.0027 140.667 61.0027C140.667 55.4027 136 57.136 114.667 70.4694Z" fill="black"/>
</svg>
