<svg width="180" height="180" viewBox="0 0 180 180" fill="none" xmlns="http://www.w3.org/2000/svg">
<rect x="0.1" y="0.1" width="179.8" height="179.8" fill="white" stroke="#CBCBCB" stroke-width="0.2"/>
<path d="M88.0667 53.6666C87.8 54.0666 87.6667 60.5999 88.0667 68.3333L88.7333 82.3333L77.1333 82.4666C70.8667 82.5999 65.1333 82.8666 64.3333 82.9999C63.6667 83.1333 58.4667 83.3999 53 83.5333C43.9333 83.6666 43 83.9333 43 86.3333C43 88.8666 43.9333 88.9999 65.6667 88.9999H88.3333L88.4667 99.9333C88.7333 116.467 88.6 116.333 92.0667 116.733L95.2667 117.267L94.7333 102.733L94.3333 88.3333L116.067 87.6666C127.933 87.2666 137.667 86.5999 137.667 85.9333C137.667 85.3999 137.667 84.0666 137.667 82.8666C137.667 80.9999 135.267 80.8666 115.667 81.6666L93.6667 82.7333V67.7999C93.6667 54.3333 93.4 52.9999 91.2667 52.9999C89.9333 52.9999 88.4667 53.2666 88.0667 53.6666Z" fill="black"/>
</svg>
