<svg width="540" height="540" viewBox="0 0 540 540" fill="none" xmlns="http://www.w3.org/2000/svg">
<rect x="0.1" y="0.1" width="179.8" height="179.8" fill="white" stroke="#CBCBCB" stroke-width="0.2"/>
<rect x="180.1" y="0.1" width="179.8" height="179.8" fill="white" stroke="#CBCBCB" stroke-width="0.2"/>
<rect x="360.1" y="0.1" width="179.8" height="179.8" fill="white" stroke="#CBCBCB" stroke-width="0.2"/>
<rect x="0.1" y="180.1" width="179.8" height="179.8" fill="white" stroke="#CBCBCB" stroke-width="0.2"/>
<rect x="180.1" y="180.1" width="179.8" height="179.8" fill="white" stroke="#CBCBCB" stroke-width="0.2"/>
<rect x="360.1" y="180.1" width="179.8" height="179.8" fill="white" stroke="#CBCBCB" stroke-width="0.2"/>
<rect x="0.1" y="360.1" width="179.8" height="179.8" fill="white" stroke="#CBCBCB" stroke-width="0.2"/>
<rect x="180.1" y="360.1" width="179.8" height="179.8" fill="white" stroke="#CBCBCB" stroke-width="0.2"/>
<rect x="360.1" y="360.1" width="179.8" height="179.8" fill="white" stroke="#CBCBCB" stroke-width="0.2"/>
<path d="M442.909 462.909V462.636C442.939 459.742 443.242 457.439 443.818 455.727C444.394 454.015 445.212 452.629 446.273 451.568C447.333 450.508 448.606 449.53 450.091 448.636C450.985 448.091 451.788 447.447 452.5 446.705C453.212 445.947 453.773 445.076 454.182 444.091C454.606 443.106 454.818 442.015 454.818 440.818C454.818 439.333 454.47 438.045 453.773 436.955C453.076 435.864 452.144 435.023 450.977 434.432C449.811 433.841 448.515 433.545 447.091 433.545C445.848 433.545 444.652 433.803 443.5 434.318C442.348 434.833 441.386 435.644 440.614 436.75C439.841 437.856 439.394 439.303 439.273 441.091H433.545C433.667 438.515 434.333 436.311 435.545 434.477C436.773 432.644 438.386 431.242 440.386 430.273C442.402 429.303 444.636 428.818 447.091 428.818C449.758 428.818 452.076 429.348 454.045 430.409C456.03 431.47 457.561 432.924 458.636 434.773C459.727 436.621 460.273 438.727 460.273 441.091C460.273 442.758 460.015 444.265 459.5 445.614C459 446.962 458.273 448.167 457.318 449.227C456.379 450.288 455.242 451.227 453.909 452.045C452.576 452.879 451.508 453.758 450.705 454.682C449.902 455.591 449.318 456.674 448.955 457.932C448.591 459.189 448.394 460.758 448.364 462.636V462.909H442.909ZM445.818 476.364C444.697 476.364 443.735 475.962 442.932 475.159C442.129 474.356 441.727 473.394 441.727 472.273C441.727 471.152 442.129 470.189 442.932 469.386C443.735 468.583 444.697 468.182 445.818 468.182C446.939 468.182 447.902 468.583 448.705 469.386C449.508 470.189 449.909 471.152 449.909 472.273C449.909 473.015 449.72 473.697 449.341 474.318C448.977 474.939 448.485 475.439 447.864 475.818C447.258 476.182 446.576 476.364 445.818 476.364Z" fill="black"/>
<path d="M19.5 41.5303C19.375 44.5468 19.125 68.6791 18.625 94.948L18 142.961L28.375 143.59C34.125 143.841 66.5 144.092 100.125 143.967L161.375 143.841L161.75 90.6746L162 37.634H115.375C89.625 37.634 57.625 37.2569 44.125 36.7541L19.5 36V41.5303ZM79.375 90.0461L78.875 140.07H50.75H22.625L22.25 90.0461L22 40.1477H50.875H79.75L79.375 90.0461ZM132.75 41.4046H158.25V90.9259C158.25 118.2 157.875 140.824 157.375 141.076C156.75 141.327 144.125 141.201 129.125 140.824L101.875 140.07L102 91.1773C102 64.2799 102.375 41.7817 102.75 41.1532C103.125 40.5248 104.375 40.2734 105.375 40.6505C106.375 41.0275 118.75 41.4046 132.75 41.4046Z" fill="black"/>
<path d="M198.395 88.4338C197.892 117.159 197.892 141.118 198.269 141.495C198.646 141.871 231.215 142.373 270.575 142.624L342 143L341.749 89.939L341.497 36.8781L270.323 36.5018L199.149 36L198.395 88.4338ZM216.377 39.8886C217.257 40.0141 203.425 53.8124 202.293 53.8124C201.79 53.8124 201.287 52.0563 201.287 49.9238C201.287 47.2896 202.544 44.9062 205.059 42.3974C208.58 38.7597 209.209 38.6342 216.377 39.8886ZM217.509 54.5651C209.586 62.4678 202.796 68.8652 202.293 68.8652C201.664 68.8652 201.287 67.2345 201.287 65.3529C201.287 60.5862 219.898 40.3904 224.928 39.7632C232.347 38.7597 231.592 40.5158 217.509 54.5651ZM229.58 58.83C211.598 76.6424 210.467 77.5205 205.688 77.646H200.658L219.52 58.83C237.503 40.7667 238.509 40.0141 243.413 40.0141H248.443L229.58 58.83ZM244.67 58.83C226.814 76.6424 225.556 77.646 220.904 77.646H215.874L235.365 58.83C252.718 42.0211 255.233 40.1395 259.131 40.0141C263.533 40.0141 263.407 40.1395 244.67 58.83ZM277.994 40.8921C277.994 42.8992 239.766 78.9003 237.628 78.9003C230.712 78.9003 231.844 77.2696 250.706 58.7046C267.431 42.272 270.197 40.0141 273.844 40.0141C276.108 40.0141 277.994 40.3904 277.994 40.8921ZM293.084 40.8921C293.084 41.5193 284.533 50.1747 273.97 60.3353C258.754 74.8863 253.976 78.9003 251.335 78.9003C249.323 78.9003 247.814 78.3986 247.814 77.7714C247.814 77.1442 256.365 68.4889 266.928 58.3283C282.269 43.5264 286.545 40.0141 289.563 40.0141C291.449 40.0141 293.084 40.3904 293.084 40.8921ZM309.431 40.7667C309.431 41.143 300.754 49.9238 290.317 60.2098C273.593 76.2661 270.575 78.7749 267.054 78.9003C264.79 78.9003 262.904 78.3986 262.904 77.8968C262.904 77.2696 271.329 68.4889 281.766 58.4537C298.742 41.7702 301.006 40.0141 305.03 40.0141C307.419 40.0141 309.431 40.3904 309.431 40.7667ZM324.521 41.0176C324.521 41.6448 316.096 50.4256 305.784 60.4607C289.814 76.1407 286.419 78.9003 283.149 78.9003C281.012 78.9003 279.251 78.524 279.251 78.0223C279.251 77.5205 287.551 68.7397 297.736 58.5791C314.084 42.272 316.85 40.0141 320.371 40.0141C322.635 40.0141 324.521 40.5158 324.521 41.0176ZM338.102 42.0211C337.85 43.0246 329.802 51.8054 320.12 61.3388C304.778 76.6424 302.012 78.9003 298.491 78.9003C296.227 78.9003 294.341 78.524 294.341 78.1477C294.341 77.646 303.018 68.8652 313.581 58.7046C327.036 45.5334 333.575 40.0141 335.587 40.0141C337.599 40.0141 338.353 40.6413 338.102 42.0211ZM338.353 54.6905C338.353 58.9554 337.347 60.3353 328.042 69.1161C319.114 77.3951 316.976 78.9003 313.203 78.9003H308.802L323.263 64.4748C331.186 56.5721 337.85 50.0492 337.976 50.0492C338.228 50.0492 338.353 52.1817 338.353 54.6905ZM338.353 70.3705C338.353 75.6389 335.21 78.9003 329.928 78.9003C327.665 78.9003 325.778 78.524 325.778 78.0223C325.778 76.7679 336.09 66.3564 337.347 66.3564C337.85 66.3564 338.353 68.1125 338.353 70.3705ZM215.622 101.605C216 101.981 212.982 105.619 208.832 109.633L201.287 117.034V111.891C201.287 107.626 202.041 106.121 205.185 103.487C208.706 100.476 213.736 99.5979 215.622 101.605ZM231.467 101.856C231.467 101.981 224.676 108.88 216.377 117.159L201.287 132.212V127.571C201.287 123.306 202.419 121.801 212.227 112.142C221.532 103.11 223.922 101.479 227.317 101.479C229.58 101.479 231.467 101.605 231.467 101.856ZM229.58 120.295C213.107 136.603 210.215 138.986 206.694 139.111C204.179 139.111 202.544 138.484 202.544 137.481C202.544 136.728 210.592 128.198 220.401 118.665C237.377 102.358 238.634 101.479 243.413 101.479H248.443L229.58 120.295ZM244.67 120.295C228.071 136.853 225.305 139.111 221.784 139.111C219.52 139.111 217.634 138.735 217.634 138.233C217.634 137.606 225.934 129.202 236.119 119.417C252.844 103.11 254.982 101.479 259.006 101.479H263.533L244.67 120.295ZM277.994 102.358C277.994 102.985 269.694 111.389 259.509 121.174C242.784 137.355 240.521 139.111 236.497 139.111C232.095 139.111 232.221 139.111 250.958 120.295C267.557 103.737 270.323 101.479 273.844 101.479C276.108 101.479 277.994 101.856 277.994 102.358ZM293.084 102.483C293.084 102.985 285.036 111.515 275.102 121.299C257.622 138.61 256.868 139.237 252.341 138.86L247.688 138.484L266.425 119.919C282.646 103.988 285.664 101.479 289.06 101.479C291.323 101.479 293.084 101.856 293.084 102.483ZM309.431 101.981C309.431 102.358 300.88 110.887 290.443 121.174C276.108 135.348 270.575 139.864 267.808 140.115C265.419 140.366 264.161 139.989 264.161 138.86C264.161 137.982 272.461 129.202 282.772 119.417C298.617 104.114 301.886 101.605 305.407 101.605C307.545 101.479 309.431 101.73 309.431 101.981ZM324.521 102.483C324.521 103.11 315.97 111.891 305.659 121.926C289.814 137.355 286.167 140.366 283.024 140.366C280.886 140.366 279.251 139.989 279.251 139.488C279.251 138.986 287.551 130.205 297.736 120.045C314.084 103.737 316.85 101.479 320.371 101.479C322.635 101.479 324.521 101.981 324.521 102.483ZM338.353 103.11C338.353 103.988 330.18 112.769 320.245 122.553C304.778 137.732 301.509 140.366 298.239 140.366C296.102 140.366 294.341 139.989 294.341 139.362C294.341 138.86 302.892 130.205 313.455 119.919C326.659 107.25 333.575 101.479 335.461 101.479C337.096 101.479 338.353 102.232 338.353 103.11ZM338.353 115.905C338.353 119.794 337.096 121.55 328.042 130.331C319.365 138.61 316.85 140.24 313.581 140.366C311.317 140.366 309.431 139.864 309.431 139.237C309.431 138.233 336.97 111.515 337.976 111.515C338.228 111.515 338.353 113.522 338.353 115.905ZM338.353 131.71C338.353 136.352 334.204 140.24 329.299 140.366C327.287 140.366 325.778 139.989 325.778 139.488C325.778 138.233 336.09 127.822 337.347 127.822C337.85 127.822 338.353 129.578 338.353 131.71Z" fill="black"/>
<path d="M377 88.6827V141.491L390.617 141.868C398.057 142.12 430.587 142.497 463.117 142.623L522 143V90.3173V37.6345L500.313 36.8801C488.335 36.3772 455.678 36 427.813 36H377V88.6827ZM391.374 41.658C392.004 43.4183 389.104 47.3161 387.213 47.3161C386.583 47.3161 385.448 46.436 384.565 45.4301C383.304 43.7955 383.304 43.0411 385.196 41.0294C387.465 38.5147 390.239 38.7662 391.374 41.658ZM407.135 41.4066C408.143 42.7897 407.891 43.6698 406 45.4301C403.604 47.5676 403.352 47.5676 400.957 45.4301C399.065 43.6698 398.813 42.7897 399.822 41.4066C400.578 40.5264 402.217 39.772 403.478 39.772C404.739 39.772 406.378 40.5264 407.135 41.4066ZM422.391 41.7838C423.778 43.2926 423.652 44.047 421.635 46.1845C419.113 48.6992 419.113 48.6992 416.717 46.1845C414.952 44.047 414.826 43.2926 416.087 41.658C418.104 39.2691 420.374 39.2691 422.391 41.7838ZM437.522 41.658C438.783 43.1669 438.783 43.9213 437.522 45.4301C436.639 46.436 435.252 47.3161 434.37 47.3161C433.487 47.3161 432.1 46.436 431.217 45.4301C429.957 43.9213 429.957 43.1669 431.217 41.658C432.1 40.6522 433.487 39.772 434.37 39.772C435.252 39.772 436.639 40.6522 437.522 41.658ZM468.287 42.6639C470.304 45.8073 466.27 49.7051 463.496 47.3161C461.1 45.4301 460.974 43.2926 462.991 41.2808C464.883 39.3948 466.522 39.8978 468.287 42.6639ZM484.678 42.5382C485.687 44.2985 485.561 45.3043 483.796 46.9389C481.778 48.9506 481.526 48.9506 478.878 46.436C476.609 44.047 476.483 43.4183 477.87 41.658C479.887 39.2691 482.787 39.6463 484.678 42.5382ZM499.43 46.5617C497.287 48.5734 496.53 48.6992 495.017 47.3161C492.37 45.3043 492.496 43.5441 495.27 41.5323C497.035 40.275 497.791 40.275 499.683 42.0352C501.826 43.9213 501.826 44.1727 499.43 46.5617ZM515.696 46.5617C513.678 49.0764 511.409 49.0764 509.391 46.6874C508.13 45.0529 508.257 44.2985 510.022 42.161C512.417 39.6463 512.417 39.6463 514.939 42.161C516.957 44.2985 517.083 45.0529 515.696 46.5617ZM397.804 53.6028L395.409 56.2432L392.887 53.7286C390.491 51.2139 390.491 51.0881 392.761 48.5734L395.157 45.933L397.678 48.4477C400.074 50.9624 400.074 51.0881 397.804 53.6028ZM414.07 48.9506C416.213 50.4595 416.213 50.7109 413.943 53.4771L411.674 56.369L409.278 53.7286C407.387 51.5911 407.261 50.8367 408.522 49.2021C410.413 46.9389 411.17 46.8132 414.07 48.9506ZM429.957 49.3278C431.343 50.8367 431.217 51.5911 429.2 53.7286C426.678 56.2432 426.678 56.2432 424.283 53.7286C422.517 51.5911 422.391 50.8367 423.652 49.2021C425.67 46.8132 427.939 46.8132 429.957 49.3278ZM475.726 49.5793C477.491 51.5911 477.617 52.2197 476.104 54.2315C474.213 56.7462 470.683 56.1175 469.548 52.9741C468.791 51.0881 470.935 47.3161 472.826 47.3161C473.33 47.3161 474.591 48.322 475.726 49.5793ZM384.061 49.9565C384.439 50.7109 383.935 52.2197 382.8 53.3513C380.909 55.2374 380.783 55.1116 380.783 51.9683C380.783 48.5734 382.422 47.4418 384.061 49.9565ZM490.983 49.3278C493.504 50.3337 493.504 52.8484 491.109 54.8602C488.461 57.1234 483.417 52.8484 485.561 50.208C487.2 48.322 488.083 48.1962 490.983 49.3278ZM508.13 50.4595C509.391 51.9683 509.391 52.7227 508.13 54.2315C507.248 55.2374 505.861 56.1175 504.978 56.1175C504.096 56.1175 502.709 55.2374 501.826 54.2315C500.565 52.7227 500.565 51.9683 501.826 50.4595C502.709 49.4536 504.096 48.5734 504.978 48.5734C505.861 48.5734 507.248 49.4536 508.13 50.4595ZM518.848 53.6028C518.217 54.6087 517.461 54.6087 516.704 53.8543C515.948 53.0999 515.822 51.8425 516.326 51.0881C516.957 50.0823 517.713 50.0823 518.47 50.8367C519.226 51.5911 519.352 52.8484 518.848 53.6028ZM390.365 56.6204C392.761 58.5065 392.761 58.5065 390.113 61.1469L387.591 63.7873L385.196 61.2726C383.43 59.1351 383.304 58.3807 384.565 56.7462C386.457 54.3572 387.213 54.3572 390.365 56.6204ZM405.874 56.6204C407.009 58.0035 407.135 59.1351 406 61.0211C404.361 64.1645 403.73 64.2902 400.704 61.5241C398.561 59.6381 398.561 59.3866 400.452 57.1234C403.1 54.3572 403.983 54.3572 405.874 56.6204ZM422.391 56.7462C423.652 58.255 423.652 59.0094 422.391 60.5182C421.509 61.5241 420.122 62.4042 419.239 62.4042C418.357 62.4042 416.97 61.5241 416.087 60.5182C414.826 59.0094 414.826 58.255 416.087 56.7462C416.97 55.7403 418.357 54.8602 419.239 54.8602C420.122 54.8602 421.509 55.7403 422.391 56.7462ZM438.026 57.6263C439.035 59.3866 438.909 60.3925 437.143 62.027C435.126 64.0388 434.874 64.0388 432.226 61.5241C429.957 59.1351 429.83 58.5065 431.217 56.7462C433.235 54.3572 436.135 54.7344 438.026 57.6263ZM468.287 57.1234C470.178 59.3866 470.178 59.6381 467.783 61.7756C465.765 63.5358 465.009 63.6616 463.37 62.4042C461.1 60.5182 460.974 58.3807 462.991 56.369C465.009 54.3572 465.765 54.483 468.287 57.1234ZM484.174 58.0035C485.435 59.5123 485.435 60.2667 484.174 61.7756C483.291 62.7814 481.904 63.6616 481.022 63.6616C480.139 63.6616 478.752 62.7814 477.87 61.7756C476.609 60.2667 476.609 59.5123 477.87 58.0035C478.752 56.9976 480.139 56.1175 481.022 56.1175C481.904 56.1175 483.291 56.9976 484.174 58.0035ZM498.548 56.8719C501.07 57.8778 501.07 60.3925 498.548 62.4042C497.035 63.7873 496.278 63.6616 494.639 62.027C493 60.3925 492.874 59.6381 494.261 58.1293C496.026 55.866 495.9 55.866 498.548 56.8719ZM515.696 58.1293C517.083 59.6381 516.957 60.3925 514.939 62.53C512.417 65.0447 512.417 65.0447 510.022 62.53C508.257 60.3925 508.13 59.6381 509.391 58.0035C511.409 55.6146 513.678 55.6146 515.696 58.1293ZM397.552 68.9424C395.535 71.2056 395.409 71.2056 392.887 68.6909C390.365 66.1763 390.365 66.1763 392.761 64.416C395.03 62.7814 395.535 62.7814 397.552 64.5417C399.57 66.4277 399.57 66.6792 397.552 68.9424ZM413.565 64.2902C414.826 65.9248 414.7 66.6792 412.935 68.6909C410.791 71.0799 410.539 71.0799 408.27 69.0682C406.126 67.1821 406.126 66.9307 408.017 64.6674C410.665 61.9013 411.548 61.9013 413.565 64.2902ZM429.957 64.416C431.343 65.9248 431.217 66.6792 429.2 68.8167C426.678 71.3314 426.678 71.3314 424.283 68.8167C422.517 66.6792 422.391 65.9248 423.652 64.2902C425.67 61.9013 427.939 61.9013 429.957 64.416ZM476.609 69.1939C474.591 71.7086 472.322 71.7086 470.304 69.3196C469.043 67.6851 469.17 66.9307 470.935 64.7932C473.33 62.2785 473.33 62.2785 475.852 64.7932C477.87 66.9307 477.996 67.6851 476.609 69.1939ZM383.178 65.4219C384.313 66.6792 384.187 67.4336 382.674 68.6909C381.035 70.074 380.783 69.6968 380.783 66.9307C380.783 63.1586 381.161 62.9072 383.178 65.4219ZM491.739 65.6733C493.126 67.1821 493 67.9365 491.361 69.5711C490.352 70.7027 488.461 71.2056 487.452 70.8284C485.057 69.8226 484.804 65.4219 487.074 64.5417C489.596 63.4101 490.1 63.5358 491.739 65.6733ZM508.13 65.6733C509.517 67.1821 509.391 67.9365 507.374 70.074C504.852 72.5887 504.852 72.5887 502.457 70.074C500.691 67.9365 500.565 67.1821 501.826 65.5476C503.843 63.1586 506.113 63.1586 508.13 65.6733ZM519.478 68.0623C519.478 69.0682 518.974 69.9483 518.343 69.9483C516.704 69.9483 515.57 67.9365 516.578 66.9307C517.965 65.5476 519.478 66.1763 519.478 68.0623ZM389.987 72.2115C391.626 73.9718 391.752 74.8519 390.617 75.9835C386.835 79.7556 381.287 75.8578 384.565 71.8343C386.583 69.4454 387.465 69.4454 389.987 72.2115ZM405.874 75.8578C404.109 77.8696 401.965 77.9953 399.948 75.9835C398.813 74.8519 398.939 73.9718 400.578 72.2115C402.47 70.074 402.722 70.074 404.991 71.96C406.757 73.5946 406.883 74.4747 405.874 75.8578ZM422.013 72.3372C423.274 74.349 423.022 75.1034 421.004 76.9894C418.735 79.0012 418.483 79.0012 416.087 76.8637C413.691 74.7262 413.691 74.4747 415.583 72.2115C418.357 69.3196 420.122 69.3196 422.013 72.3372ZM437.522 71.8343C438.783 73.4689 438.657 74.2233 436.891 76.235C434.748 78.624 434.496 78.624 432.226 76.6122C430.083 74.7262 430.083 74.4747 431.974 72.2115C434.622 69.4454 435.504 69.4454 437.522 71.8343ZM468.917 73.4689C471.187 77.7438 465.891 80.6357 462.739 76.8637C461.478 75.3549 461.478 74.6005 462.739 73.0917C464.883 70.577 467.404 70.7027 468.917 73.4689ZM484.174 73.0917C485.435 74.6005 485.435 75.3549 484.174 76.8637C483.291 77.8696 481.904 78.7497 481.022 78.7497C480.139 78.7497 478.752 77.8696 477.87 76.8637C476.609 75.3549 476.609 74.6005 477.87 73.0917C478.752 72.0858 480.139 71.2056 481.022 71.2056C481.904 71.2056 483.291 72.0858 484.174 73.0917ZM499.683 73.4689C501.322 75.2291 501.448 76.1093 500.313 77.2409C496.53 81.0129 490.983 77.1152 494.261 73.0917C496.278 70.7027 497.161 70.7027 499.683 73.4689ZM515.191 73.3431C518.217 77.6181 512.67 80.7615 509.265 76.738C507.878 74.9777 508.004 74.4747 510.022 72.9659C513.048 70.7027 513.174 70.7027 515.191 73.3431ZM390.87 103.394C392.257 104.902 392.13 105.657 390.113 107.794C387.591 110.309 387.591 110.309 385.322 107.794C384.061 106.411 383.304 104.4 383.683 103.268C384.691 100.753 388.852 100.879 390.87 103.394ZM406 103.394C407.387 104.902 407.261 105.657 405.243 107.794C402.722 110.309 402.722 110.309 400.326 107.794C398.561 105.657 398.435 104.902 399.696 103.268C401.713 100.879 403.983 100.879 406 103.394ZM421.635 103.645C423.526 105.908 423.526 106.16 421.13 108.297C418.609 110.561 418.483 110.561 415.835 107.92C413.565 105.783 413.439 105.028 414.826 103.394C416.97 100.753 418.987 100.879 421.635 103.645ZM437.396 103.771C438.404 105.531 438.152 106.663 436.261 108.297C434.874 109.555 433.613 110.309 433.361 110.058C433.235 109.806 432.226 108.549 431.343 107.291C429.957 105.531 429.957 104.777 431.217 103.268C433.361 100.753 435.883 100.879 437.396 103.771ZM468.287 103.645C470.178 105.908 470.178 106.16 467.783 108.297C465.765 110.058 465.009 110.183 463.37 108.926C461.1 107.04 460.974 104.902 462.991 102.891C465.009 100.879 465.765 101.005 468.287 103.645ZM484.678 104.274C485.687 105.908 485.561 106.914 483.922 108.549C481.904 110.561 481.526 110.561 479.13 108.297C476.735 106.16 476.735 105.908 478.752 103.645C481.148 101.005 482.787 101.13 484.678 104.274ZM500.565 105.657C500.565 106.663 499.683 108.046 498.674 108.926C495.143 111.818 491.109 106.286 494.513 102.891C496.278 101.13 500.565 103.142 500.565 105.657ZM515.696 104.651C517.083 106.16 516.957 106.914 514.939 109.052C512.417 111.566 512.417 111.566 510.022 109.052C508.257 106.914 508.13 106.16 509.391 104.525C511.409 102.136 513.678 102.136 515.696 104.651ZM396.417 109.68C398.939 110.561 399.065 114.458 396.796 116.344C394.148 118.482 389.861 113.452 392.13 110.812C393.896 108.674 393.77 108.674 396.417 109.68ZM414.07 111.692C415.078 113.452 414.952 114.458 413.187 116.093C411.17 118.105 410.917 118.105 408.27 115.59C406 113.201 405.874 112.572 407.261 110.812C409.278 108.423 412.178 108.8 414.07 111.692ZM429.2 111.189C431.091 113.452 431.091 113.704 428.696 115.841C426.678 117.602 425.922 117.727 424.283 116.47C422.013 114.584 421.887 112.447 423.904 110.435C425.922 108.423 426.678 108.549 429.2 111.189ZM475.474 115.716C473.33 117.727 472.574 117.853 471.061 116.47C468.413 114.333 468.539 111.818 471.187 110.309C472.826 109.429 474.087 109.68 475.726 111.189C477.87 113.075 477.87 113.327 475.474 115.716ZM492.748 113.578C492.496 114.71 491.361 116.219 490.226 116.973C488.461 117.979 487.578 117.727 486.191 115.841C484.552 113.578 484.552 113.075 486.317 111.189C487.83 109.555 488.839 109.303 490.73 110.309C492.117 111.063 493 112.447 492.748 113.578ZM383.304 113.452C383.304 114.458 382.8 115.213 382.043 115.213C381.413 115.213 380.783 114.081 380.783 112.572C380.783 111.189 381.413 110.435 382.043 110.812C382.8 111.189 383.304 112.447 383.304 113.452ZM506.617 111.315C509.265 112.949 507.878 117.099 504.6 117.476C501.196 117.979 499.557 114.71 501.826 112.069C503.591 109.932 504.348 109.806 506.617 111.315ZM518.217 114.207C518.217 116.219 517.839 116.596 516.83 115.59C516.074 114.835 515.822 113.578 516.2 112.824C517.587 110.686 518.217 111.189 518.217 114.207ZM390.113 119.362C391.122 120.996 390.996 121.877 389.609 122.757C385.196 125.523 381.413 122.128 384.565 118.356C386.457 116.093 388.222 116.47 390.113 119.362ZM405.117 118.23C407.891 120.368 407.891 121.751 404.991 123.511C403.226 124.643 402.217 124.643 400.578 123.385C398.057 121.625 397.93 119.991 399.948 117.979C401.839 116.093 402.343 116.093 405.117 118.23ZM421.635 119.362C422.643 120.996 422.517 122.002 420.878 123.637C418.861 125.649 418.483 125.649 416.087 123.385C413.691 121.248 413.691 120.996 415.709 118.733C418.104 116.093 419.743 116.219 421.635 119.362ZM436.765 119.362C438.783 122.505 434.748 126.403 431.974 124.014C429.578 122.128 429.452 119.991 431.47 117.979C433.361 116.093 435 116.596 436.765 119.362ZM468.287 119.362C470.304 122.505 466.27 126.403 463.496 124.014C461.1 122.128 460.974 119.991 462.991 117.979C464.883 116.093 466.522 116.596 468.287 119.362ZM484.174 123.26C482.157 125.774 479.887 125.774 477.87 123.385C476.609 121.751 476.735 120.996 478.5 118.859C480.896 116.344 480.896 116.344 483.417 118.859C485.435 120.996 485.561 121.751 484.174 123.26ZM499.304 119.739C500.691 121.248 500.565 122.002 498.926 123.763C497.035 125.649 496.53 125.649 494.891 123.888C492.748 121.751 493.504 117.727 496.152 117.727C497.035 117.727 498.422 118.608 499.304 119.739ZM514.939 120.494C516.83 123.511 513.678 126.906 510.526 125.146C507.752 123.763 507.5 121.374 509.643 119.236C511.535 117.35 513.174 117.853 514.939 120.494ZM397.678 126.277C399.57 128.541 399.57 128.792 397.174 130.929C395.157 132.69 394.4 132.816 392.761 131.558C390.491 129.672 390.365 127.535 392.383 125.523C394.4 123.511 395.157 123.637 397.678 126.277ZM413.313 126.655C414.574 128.666 414.574 129.672 413.439 131.055C411.674 133.193 411.043 133.193 408.017 130.929C405.622 129.169 405.622 129.043 407.891 126.529C410.791 123.385 411.296 123.385 413.313 126.655ZM429.2 126.277C431.091 128.541 431.091 128.792 428.696 130.929C426.678 132.69 425.922 132.816 424.283 131.558C422.013 129.672 421.887 127.535 423.904 125.523C425.922 123.511 426.678 123.637 429.2 126.277ZM475.474 126.026C478.248 128.541 476.609 132.816 472.952 132.816C469.926 132.816 468.665 129.546 470.304 126.403C471.943 123.511 472.574 123.385 475.474 126.026ZM491.739 130.804C489.722 133.318 487.452 133.318 485.435 130.929C484.174 129.295 484.3 128.541 486.065 126.403C488.461 123.888 488.461 123.888 490.983 126.403C493 128.541 493.126 129.295 491.739 130.804ZM382.674 127.786C382.674 128.666 381.917 129.672 381.161 129.924C380.152 130.301 379.522 129.421 379.522 127.786C379.522 126.152 380.152 125.271 381.161 125.523C381.917 125.9 382.674 126.906 382.674 127.786ZM506.87 127.157C508.761 129.421 507.626 132.816 505.23 132.816C504.222 132.816 502.709 131.935 501.826 130.929C500.565 129.421 500.565 128.666 501.826 127.157C503.843 124.769 504.852 124.769 506.87 127.157ZM518.217 129.295C518.217 131.307 517.839 131.684 516.83 130.678C516.074 129.924 515.822 128.666 516.2 127.912C517.587 125.774 518.217 126.277 518.217 129.295ZM389.987 133.821C392.383 136.336 390.87 139.102 387.087 139.102C383.304 139.102 381.791 136.336 384.187 133.821C385.322 132.564 386.583 131.558 387.087 131.558C387.591 131.558 388.852 132.564 389.987 133.821ZM406.757 137.719C405.622 139.479 400.074 139.479 399.065 137.719C398.561 137.09 399.191 135.33 400.452 133.947C402.722 131.558 402.722 131.558 405.117 133.947C406.504 135.204 407.135 136.965 406.757 137.719ZM422.139 136.588C421.635 138.851 416.339 139.857 414.448 137.971C413.565 137.09 413.817 135.959 415.33 134.199C417.222 132.187 417.978 131.935 419.996 133.193C421.383 134.073 422.265 135.582 422.139 136.588ZM437.143 137.09C436.261 139.354 431.848 139.857 430.587 137.719C430.083 137.09 430.713 135.33 431.974 133.947C433.865 131.81 434.37 131.684 436.009 133.318C437.017 134.324 437.522 136.085 437.143 137.09ZM485.435 136.713C485.435 138.474 480.77 140.36 478.626 139.605C475.978 138.599 476.104 136.713 478.752 133.821C480.643 131.684 480.896 131.684 483.165 133.57C484.426 134.827 485.435 136.21 485.435 136.713ZM467.909 134.827C469.296 136.588 469.17 137.09 467.278 138.474C464.504 140.611 461.478 139.605 461.478 136.713C461.478 132.438 465.009 131.432 467.909 134.827ZM499.052 134.324C502.583 137.845 498.8 141.491 494.009 138.976C491.613 137.719 491.613 137.593 493.757 135.204C496.278 132.438 497.035 132.313 499.052 134.324ZM514.939 135.707C516.704 138.474 514.309 140.863 510.778 139.731C507.878 138.851 507.374 136.588 509.643 134.324C511.535 132.438 513.174 132.941 514.939 135.707Z" fill="black"/>
<path d="M18.4991 262.959C18.4991 288.825 18.3743 312.43 18.2496 315.569L18 321.219L29.2304 321.973C35.4695 322.475 67.164 322.852 99.8569 322.977C147.773 323.103 159.503 322.726 160.002 321.47C160.376 320.592 160.75 296.861 160.75 268.735L161 217.632H143.78C134.297 217.632 102.228 217.256 72.6544 216.753L18.6239 216L18.4991 262.959ZM34.596 220.143C35.8438 220.143 34.2216 222.655 29.8543 227.049C26.1108 230.816 22.6169 233.955 21.993 233.955C21.3691 233.955 21.1195 231.821 21.4939 229.184C22.3674 224.036 27.733 218.26 30.7277 219.39C31.726 219.767 33.4729 220.143 34.596 220.143ZM51.0672 220.646C51.0672 221.399 23.4904 248.394 22.3674 248.771C21.6187 249.022 21.1195 247.516 21.1195 245.381C21.1195 242.242 23.1161 239.605 31.726 230.816C41.0846 221.525 42.9564 220.143 46.6998 220.143C49.0707 220.143 51.0672 220.395 51.0672 220.646ZM48.5716 238.977C33.2234 253.794 28.4817 257.811 25.8613 257.811C23.8647 257.811 22.3674 257.435 22.3674 256.933C22.3674 256.43 30.3534 247.892 40.0864 238.099C57.1815 220.897 58.055 220.143 62.9215 220.143L67.9127 220.269L48.5716 238.977ZM78.5192 222.278C78.5192 223.534 70.9075 231.946 61.4241 241.112C46.0759 256.054 43.7051 257.811 39.8368 257.811C35.4695 257.811 35.5942 257.686 54.4363 238.977C72.7792 220.646 78.5192 216.753 78.5192 222.278ZM112.21 221.022C112.21 222.278 103.226 231.444 101.978 231.444C100.356 231.444 100.855 223.282 102.477 221.65C104.099 220.018 112.21 219.516 112.21 221.022ZM128.432 221.022C128.432 221.399 122.442 227.552 115.08 234.583L101.604 247.516L101.229 242.995C100.855 238.726 101.479 237.722 110.089 229.309C118.2 221.274 119.947 220.143 123.94 220.143C126.435 220.143 128.432 220.52 128.432 221.022ZM143.406 221.022C143.406 223.157 106.47 259.067 104.349 259.067C103.101 259.067 101.853 258.188 101.354 257.058C100.855 255.677 105.722 249.901 117.95 237.596C133.174 222.278 135.794 220.143 139.288 220.143C141.534 220.143 143.406 220.52 143.406 221.022ZM157.631 221.274C158.005 221.901 149.894 230.565 139.662 240.735C124.065 255.928 120.196 259.067 117.202 259.067C115.08 259.067 113.458 258.69 113.458 258.063C113.333 257.56 121.943 248.897 132.425 238.726C150.518 221.148 155.51 217.758 157.631 221.274ZM158.38 234.332C158.38 236.09 154.511 240.986 147.524 248.018C138.165 257.435 136.044 259.067 132.55 259.067C130.304 259.067 128.432 258.565 128.432 258.063C128.432 256.054 155.884 230.063 157.132 230.816C157.756 231.193 158.38 232.825 158.38 234.332ZM78.5192 236.215C78.5192 240.484 77.6457 241.74 69.2853 249.399C61.1745 256.681 59.3028 257.811 55.185 257.811H50.4433L63.5454 244.628C70.7827 237.345 77.0218 231.444 77.5209 231.444C78.1449 231.444 78.5192 233.578 78.5192 236.215ZM154.387 256.556C152.764 257.937 149.52 258.942 147.149 259.067H142.907L149.645 252.161L156.508 245.13L156.882 249.65C157.257 253.166 156.633 254.672 154.387 256.556ZM76.5227 256.681C74.4014 259.067 69.7845 259.82 68.0375 258.188C67.6632 257.686 69.6597 254.924 72.5297 251.91L77.8953 246.386L78.2696 250.278C78.5192 252.789 77.8953 255.175 76.5227 256.681ZM30.4782 287.946C26.3604 292.089 22.6169 295.479 22.1178 295.479C21.6187 295.479 21.1195 293.722 21.1195 291.462C21.1195 285.435 26.4852 280.412 32.849 280.412H37.8403L30.4782 287.946ZM51.0672 281.417C51.0672 282.045 44.4538 288.95 36.4677 296.735L21.7435 311.049L21.3691 306.78C20.9948 303.013 21.993 301.632 31.9756 291.462C41.2094 282.045 43.4555 280.412 46.9494 280.412C49.1955 280.412 51.0672 280.915 51.0672 281.417ZM67.2888 281.417C67.2888 282.045 58.8037 290.708 48.4468 300.627C34.4712 313.937 28.4817 318.834 25.986 319.085C23.6152 319.336 22.3674 318.959 22.3674 317.829C22.3674 316.95 30.3534 308.161 40.0864 298.367C56.6824 281.668 58.1798 280.412 62.5471 280.412C65.1675 280.412 67.2888 280.915 67.2888 281.417ZM78.2696 283.426C78.644 285.058 73.7775 290.708 62.1728 302.511C46.3255 318.457 45.2024 319.336 40.4607 319.336H35.4695L54.8106 299.874C65.5419 289.076 75.0253 280.538 76.0236 280.663C77.0218 280.915 78.0201 282.17 78.2696 283.426ZM110.962 281.668C112.46 282.798 111.836 283.802 107.219 287.82L101.604 292.843L101.229 288.197C100.606 281.793 105.846 278.278 110.962 281.668ZM115.954 294.852C108.716 302.134 102.477 308.036 101.978 308.036C101.354 308.036 100.98 306.152 100.98 304.018C100.98 300.627 102.602 298.367 109.964 290.834C118.2 282.547 119.448 281.668 124.065 281.668H129.056L115.954 294.852ZM125.936 300.502C112.959 313.183 105.722 319.21 103.85 319.336C98.1099 319.336 101.229 314.816 117.451 298.367C133.922 281.793 134.047 281.668 139.662 281.668L145.277 281.793L125.936 300.502ZM157.132 283.3C157.132 284.179 149.146 292.843 139.413 302.636C121.444 320.466 121.444 320.466 114.082 319.461C113.458 319.461 121.319 310.798 131.551 300.502C146.65 285.309 150.893 281.668 153.638 281.668C155.634 281.668 157.132 282.296 157.132 283.3ZM147.524 309.542C137.791 319.461 134.047 321.596 130.054 319.964C128.182 319.336 130.553 316.448 142.158 305.399L156.508 291.587L156.882 295.605C157.257 299.121 156.134 300.753 147.524 309.542ZM69.5349 310.17C61.1745 318.583 60.0515 319.336 55.4346 319.336L50.4433 319.21L64.1693 305.901L77.8953 292.592L78.2696 296.735C78.644 300.376 77.6457 301.883 69.5349 310.17ZM154.012 317.704C151.017 320.34 144.654 321.722 144.654 319.713C144.654 319.21 147.274 316.071 150.643 312.681L156.508 306.654L156.882 310.798C157.257 313.937 156.633 315.569 154.012 317.704ZM78.5192 312.179C78.5192 317.578 76.6475 319.336 70.5332 319.336H65.5419L71.0323 313.686C74.027 310.547 77.0218 308.036 77.5209 308.036C78.0201 308.036 78.5192 309.919 78.5192 312.179Z" fill="black"/>
<path d="M199.385 251.676C199.385 271.272 199.133 295.014 198.755 304.436L198 321.645L232.488 322.399C251.368 322.901 283.842 323.153 304.61 322.901L342.371 322.525L342.748 270.016L343 217.633H306.247C285.982 217.633 253.634 217.256 234.502 216.754L199.51 216L199.385 251.676ZM211.342 220.899C213.859 221.904 213.859 224.416 211.342 226.426C209.832 227.808 209.076 227.683 207.44 226.049C206.307 225.045 205.804 223.16 206.181 222.155C207.062 220.02 208.195 219.769 211.342 220.899ZM228.46 222.03C229.719 223.537 229.719 224.291 228.46 225.798C227.579 226.803 226.194 227.683 225.313 227.683C224.432 227.683 223.048 226.803 222.167 225.798C220.908 224.291 220.908 223.537 222.167 222.03C223.048 221.025 224.432 220.145 225.313 220.145C226.194 220.145 227.579 221.025 228.46 222.03ZM243.564 222.155C244.949 223.663 244.823 224.416 242.809 226.552C240.292 229.064 240.292 229.064 237.9 226.552C236.138 224.416 236.012 223.663 237.271 222.03C239.285 219.643 241.55 219.643 243.564 222.155ZM258.668 222.03C259.927 223.663 259.801 224.416 258.039 226.426C255.899 228.813 255.648 228.813 253.382 226.803C251.242 224.919 251.242 224.668 253.13 222.407C255.773 219.643 256.655 219.643 258.668 222.03ZM289.38 222.407C291.268 224.668 291.268 224.919 288.877 227.054C286.863 228.813 286.108 228.939 284.471 227.683C282.206 225.798 282.08 223.663 284.094 221.653C286.108 219.643 286.863 219.769 289.38 222.407ZM306.498 224.416C306.498 225.421 305.617 226.803 304.61 227.683C302.974 228.939 302.219 228.813 300.205 227.054C297.813 224.919 297.813 224.542 299.701 222.532C301.338 220.774 302.345 220.522 304.107 221.527C305.491 222.155 306.498 223.537 306.498 224.416ZM320.47 226.929C318.33 228.939 317.575 229.064 316.064 227.683C313.421 225.673 313.547 223.914 316.316 221.904C318.078 220.648 318.833 220.648 320.721 222.407C322.861 224.291 322.861 224.542 320.47 226.929ZM336.329 226.552C334.567 229.441 332.553 229.567 330.413 227.054C329.155 225.421 329.28 224.668 331.043 222.658C333.182 220.271 333.56 220.271 335.574 222.155C337.462 223.788 337.588 224.668 336.329 226.552ZM220.153 229.818C220.656 230.949 220.153 232.707 219.02 233.838C217.384 235.597 216.88 235.597 214.992 233.712C213.356 231.954 213.23 231.2 214.615 229.692C216.628 227.054 219.146 227.18 220.153 229.818ZM236.012 229.692C237.397 231.2 237.271 231.954 235.257 234.089C232.74 236.601 232.74 236.601 230.348 234.089C228.586 231.954 228.46 231.2 229.719 229.567C231.733 227.18 233.998 227.18 236.012 229.692ZM251.116 229.692C252.501 231.2 252.375 231.954 250.361 234.089C247.844 236.476 247.718 236.476 245.578 234.215C243.564 231.954 243.564 231.577 245.452 229.692C247.97 227.18 249.102 227.18 251.116 229.692ZM297.687 234.466C295.799 236.853 295.17 236.853 292.149 234.592C289.758 232.833 289.758 232.707 292.023 230.195C294.415 227.557 294.415 227.557 296.932 230.069C298.946 232.205 299.072 232.959 297.687 234.466ZM312.918 234.466C310.778 236.476 310.023 236.601 308.512 235.22C305.869 233.21 305.995 231.451 308.764 229.441C310.526 228.185 311.281 228.185 313.169 229.944C315.309 231.828 315.309 232.079 312.918 234.466ZM327.896 234.466C325.504 236.853 325.253 236.853 323.239 234.843C321.225 232.959 321.225 232.582 323.49 230.195C325.63 227.808 325.882 227.808 328.148 229.818C330.413 231.828 330.413 231.954 327.896 234.466ZM205.174 231.451C205.174 232.33 204.419 233.335 203.664 233.587C202.657 233.963 202.028 233.084 202.028 231.451C202.028 229.818 202.657 228.939 203.664 229.19C204.419 229.567 205.174 230.572 205.174 231.451ZM339.224 232.205C339.224 233.21 338.595 233.712 337.965 233.335C337.21 232.833 336.958 231.954 337.336 231.325C338.469 229.567 339.224 229.944 339.224 232.205ZM212.097 237.104C213.356 238.611 213.356 239.365 212.097 240.872C210.083 243.259 207.188 243.259 206.307 240.872C205.552 238.988 207.692 235.22 209.58 235.22C210.083 235.22 211.216 236.099 212.097 237.104ZM227.705 238.109C228.712 239.616 228.586 240.747 227.076 242.129C225.313 243.887 224.936 243.887 222.796 241.501C220.908 239.491 220.782 238.737 222.167 237.104C224.055 234.843 225.817 235.094 227.705 238.109ZM243.564 237.23C244.949 238.737 244.823 239.491 242.809 241.626C240.292 244.139 240.292 244.139 237.9 241.626C236.138 239.491 236.012 238.737 237.271 237.104C239.285 234.717 241.55 234.717 243.564 237.23ZM259.172 238.109C260.179 239.742 260.053 240.747 258.417 242.38C256.403 244.39 256.025 244.39 253.634 242.129C251.242 239.993 251.242 239.742 253.256 237.481C255.648 234.843 257.284 234.968 259.172 238.109ZM289.884 242.254C287.492 244.641 284.22 243.887 282.961 240.747C282.457 239.365 283.087 237.983 284.471 236.853C286.611 235.471 287.24 235.471 289.38 237.732C291.772 239.993 291.772 240.37 289.884 242.254ZM321.602 239.616C321.602 240.496 320.721 241.877 319.589 242.757C318.078 244.139 317.323 244.013 315.687 242.38C313.799 240.496 313.799 240.119 315.938 237.732C317.701 235.848 318.582 235.597 319.966 236.601C320.847 237.355 321.602 238.737 321.602 239.616ZM336.707 242.003C334.693 244.515 332.427 244.515 330.413 242.129C329.155 240.496 329.28 239.742 331.043 237.606C333.434 235.094 333.434 235.094 335.951 237.606C337.965 239.742 338.091 240.496 336.707 242.003ZM305.995 238.36C306.876 240.621 304.484 244.013 301.967 244.013C300.079 244.013 298.443 239.616 299.576 237.732C300.708 235.848 305.24 236.225 305.995 238.36ZM220.153 245.772C221.286 247.405 221.034 248.284 219.146 249.791C217.006 251.299 216.377 251.299 214.363 249.415C212.223 247.53 212.223 247.279 214.237 245.018C216.628 242.38 218.265 242.506 220.153 245.772ZM235.257 245.018C237.145 247.279 237.145 247.53 234.753 249.666C232.74 251.424 231.984 251.55 230.348 250.294C228.082 248.41 227.957 246.274 229.97 244.264C231.984 242.254 232.74 242.38 235.257 245.018ZM252.375 247.907C252.375 248.535 251.242 249.54 249.732 250.294C247.592 251.424 246.837 251.299 245.452 249.415C244.068 247.53 244.068 246.777 245.704 244.892C247.592 242.882 247.844 242.882 250.109 244.767C251.368 246.023 252.375 247.405 252.375 247.907ZM297.687 249.54C295.674 252.053 293.408 252.053 291.394 249.666C290.135 248.033 290.261 247.279 292.023 245.144C294.415 242.631 294.415 242.631 296.932 245.144C298.946 247.279 299.072 248.033 297.687 249.54ZM205.174 246.525C205.174 247.405 204.419 248.41 203.664 248.661C202.657 249.038 202.028 248.158 202.028 246.525C202.028 244.892 202.657 244.013 203.664 244.264C204.419 244.641 205.174 245.646 205.174 246.525ZM312.036 244.767C314.554 245.772 314.554 248.284 312.036 250.294C310.526 251.676 309.771 251.55 308.135 249.917C306.498 248.284 306.372 247.53 307.757 246.023C309.519 243.762 309.393 243.762 312.036 244.767ZM328.903 245.646C329.784 246.651 329.784 247.782 328.651 249.415C326.637 252.053 324.875 252.178 322.861 249.666C321.602 248.158 321.602 247.405 322.861 245.897C324.749 243.636 327.141 243.51 328.903 245.646ZM339.224 248.033C339.224 250.043 338.846 250.42 337.839 249.415C337.084 248.661 336.832 247.405 337.21 246.651C338.595 244.515 339.224 245.018 339.224 248.033ZM212.601 253.183C213.608 254.816 213.482 255.821 211.845 257.454C209.832 259.464 209.454 259.464 207.062 257.203C204.671 255.067 204.671 254.816 206.685 252.555C209.076 249.917 210.713 250.043 212.601 253.183ZM227.705 253.183C228.712 254.816 228.586 255.821 226.95 257.454C224.936 259.464 224.558 259.464 222.167 257.203C219.775 255.067 219.775 254.816 221.789 252.555C224.181 249.917 225.817 250.043 227.705 253.183ZM242.431 257.077C240.292 259.087 239.536 259.213 238.026 257.831C235.383 255.695 235.509 253.183 238.152 251.676C239.788 250.796 241.047 251.048 242.683 252.555C244.823 254.439 244.823 254.691 242.431 257.077ZM258.668 257.077C256.655 259.59 254.389 259.59 252.375 257.203C251.116 255.57 251.242 254.816 253.004 252.681C255.396 250.168 255.396 250.168 257.913 252.681C259.927 254.816 260.053 255.57 258.668 257.077ZM289.506 257.831L287.115 260.469L284.597 257.957C282.206 255.444 282.206 255.319 284.471 252.806L286.863 250.168L289.38 252.681C291.772 255.193 291.772 255.319 289.506 257.831ZM336.077 257.831L333.686 260.469L331.168 257.957C328.777 255.444 328.777 255.319 331.043 252.806L333.434 250.168L335.951 252.681C338.343 255.193 338.343 255.319 336.077 257.831ZM305.24 253.434C306.498 254.942 306.498 255.695 305.24 257.203C302.093 261.097 296.681 258.082 299.324 253.937C301.086 251.048 303.1 250.922 305.24 253.434ZM321.099 253.434C321.98 255.695 319.589 259.087 317.071 259.087C315.183 259.087 313.547 254.691 314.68 252.806C315.812 250.922 320.344 251.299 321.099 253.434ZM220.153 260.092C222.041 262.353 222.041 262.605 219.649 264.74C217.258 266.876 217.006 266.876 214.615 264.74C212.223 262.605 212.223 262.353 214.111 260.092C215.37 258.836 216.628 257.831 217.132 257.831C217.635 257.831 218.894 258.836 220.153 260.092ZM235.257 260.092C237.145 262.353 237.145 262.605 234.753 264.74C232.74 266.499 231.984 266.624 230.348 265.368C228.082 263.484 227.957 261.348 229.97 259.338C231.984 257.329 232.74 257.454 235.257 260.092ZM251.116 264.614C249.102 267.127 246.837 267.127 244.823 264.74C243.564 263.107 243.69 262.353 245.452 260.218C247.844 257.705 247.844 257.705 250.361 260.218C252.375 262.353 252.501 263.107 251.116 264.614ZM205.804 262.228C205.804 263.107 204.923 264.112 203.916 264.614C202.531 265.117 202.028 264.489 202.028 262.228C202.028 259.967 202.531 259.338 203.916 259.841C204.923 260.343 205.804 261.348 205.804 262.228ZM297.687 260.971C298.946 262.479 298.946 263.233 297.687 264.74C296.806 265.745 295.422 266.624 294.541 266.624C293.66 266.624 292.275 265.745 291.394 264.74C290.135 263.233 290.135 262.479 291.394 260.971C292.275 259.967 293.66 259.087 294.541 259.087C295.422 259.087 296.806 259.967 297.687 260.971ZM312.792 260.971C314.05 262.479 314.05 263.233 312.792 264.74C311.911 265.745 310.526 266.624 309.645 266.624C308.764 266.624 307.379 265.745 306.498 264.74C305.24 263.233 305.24 262.479 306.498 260.971C307.379 259.967 308.764 259.087 309.645 259.087C310.526 259.087 311.911 259.967 312.792 260.971ZM327.896 260.971C331.168 264.991 325.63 268.885 321.854 265.117C320.721 263.986 320.847 263.107 322.484 261.348C325.001 258.585 325.882 258.585 327.896 260.971ZM339.224 263.107C339.224 265.117 338.846 265.494 337.839 264.489C337.084 263.735 336.832 262.479 337.21 261.725C338.595 259.59 339.224 260.092 339.224 263.107ZM213.356 269.639C213.356 270.644 212.475 272.026 211.468 272.905C209.832 274.161 209.076 274.036 207.062 272.277C204.671 270.142 204.671 269.765 206.559 267.755C208.195 265.996 209.202 265.745 210.964 266.75C212.349 267.378 213.356 268.76 213.356 269.639ZM227.705 268.257C228.712 269.89 228.586 270.895 226.95 272.528C224.936 274.538 224.558 274.538 222.167 272.277C219.775 270.142 219.775 269.89 221.789 267.629C224.181 264.991 225.817 265.117 227.705 268.257ZM243.564 268.509C244.823 270.016 244.823 270.77 243.564 272.277C242.683 273.282 241.299 274.161 240.418 274.161C239.536 274.161 238.152 273.282 237.271 272.277C236.012 270.77 236.012 270.016 237.271 268.509C238.152 267.504 239.536 266.624 240.418 266.624C241.299 266.624 242.683 267.504 243.564 268.509ZM258.668 268.634C260.053 270.142 259.927 270.895 257.913 273.031C255.396 275.543 255.396 275.543 253.004 273.031C251.242 270.895 251.116 270.142 252.375 268.509C254.389 266.122 256.655 266.122 258.668 268.634ZM290.135 268.509C292.527 271.398 288.247 275.92 284.975 274.036C282.206 272.654 281.954 270.267 284.094 268.132C286.108 266.122 288.247 266.247 290.135 268.509ZM305.24 268.634C306.624 270.142 306.498 270.895 304.484 273.031C301.967 275.543 301.967 275.543 299.576 273.031C297.813 270.895 297.687 270.142 298.946 268.509C300.96 266.122 303.226 266.122 305.24 268.634ZM320.847 269.514C321.854 271.147 321.602 272.026 319.714 273.408C317.449 275.041 316.945 275.041 314.68 272.78C312.162 270.267 312.162 270.267 314.68 268.383C317.449 266.247 318.959 266.624 320.847 269.514ZM335.951 268.885C337.839 271.147 337.839 271.398 335.448 273.533C333.434 275.292 332.679 275.418 331.043 274.161C328.777 272.277 328.651 270.142 330.665 268.132C332.679 266.122 333.434 266.247 335.951 268.885ZM219.649 279.689C217.761 282.201 217.006 282.201 213.985 279.94C211.594 278.181 211.594 278.181 213.985 275.543C216.377 272.78 216.377 272.78 218.894 275.292C220.908 277.428 221.034 278.181 219.649 279.689ZM205.804 277.93C205.804 278.432 204.923 279.186 203.916 279.689C202.531 280.191 202.028 279.437 202.028 277.051C202.028 274.413 202.28 274.036 203.916 275.418C204.923 276.297 205.804 277.428 205.804 277.93ZM235.76 275.669C236.641 276.548 236.767 277.804 235.886 279.437C234.376 282.201 231.859 282.327 229.719 279.814C226.824 276.297 232.362 272.277 235.76 275.669ZM251.116 276.171C252.501 277.679 252.375 278.432 250.361 280.568C247.844 283.08 247.844 283.08 245.452 280.568C243.69 278.432 243.564 277.679 244.823 276.046C246.837 273.659 249.102 273.659 251.116 276.171ZM297.31 276.046C299.072 277.804 299.072 278.307 297.058 280.442C294.163 283.583 293.66 283.583 291.646 280.317C290.387 278.307 290.387 277.302 291.52 275.92C293.408 273.659 294.918 273.659 297.31 276.046ZM312.792 276.046C314.05 277.679 313.924 278.432 312.162 280.568L309.771 283.08L307.253 280.442C304.736 277.93 304.736 277.93 307.128 276.046C310.274 273.785 310.904 273.785 312.792 276.046ZM328.399 277.051C329.406 278.684 329.28 279.689 327.644 281.322C325.63 283.332 325.253 283.332 322.861 281.07C320.47 278.935 320.47 278.684 322.484 276.423C324.875 273.785 326.511 273.91 328.399 277.051ZM339.224 278.558C339.224 279.563 338.72 280.442 337.965 280.442C337.336 280.442 336.707 279.563 336.707 278.558C336.707 277.553 337.336 276.674 337.965 276.674C338.72 276.674 339.224 277.553 339.224 278.558ZM212.097 283.583C213.356 285.09 213.356 285.844 212.097 287.351C211.216 288.356 209.832 289.236 208.951 289.236C208.069 289.236 206.685 288.356 205.804 287.351C204.545 285.844 204.545 285.09 205.804 283.583C206.685 282.578 208.069 281.699 208.951 281.699C209.832 281.699 211.216 282.578 212.097 283.583ZM227.201 283.583C228.46 285.09 228.46 285.844 227.201 287.351C226.32 288.356 224.936 289.236 224.055 289.236C223.174 289.236 221.789 288.356 220.908 287.351C219.649 285.844 219.649 285.09 220.908 283.583C221.789 282.578 223.174 281.699 224.055 281.699C224.936 281.699 226.32 282.578 227.201 283.583ZM243.187 284.085C244.445 285.97 244.319 286.849 242.431 288.482C240.418 290.366 240.04 290.366 237.9 287.979C236.138 285.97 236.012 285.216 237.271 283.583C239.411 281.07 241.424 281.196 243.187 284.085ZM258.291 284.085C259.424 285.97 259.424 286.975 258.039 288.733C256.403 290.994 256.277 290.994 253.76 288.733C251.242 286.472 251.242 286.221 253.13 283.96C255.773 281.07 256.403 281.07 258.291 284.085ZM289.38 283.96C291.268 286.221 291.268 286.472 288.877 288.608C286.863 290.366 286.108 290.492 284.471 289.236C282.206 287.351 282.08 285.216 284.094 283.206C286.108 281.196 286.863 281.322 289.38 283.96ZM304.484 283.583C306.876 285.341 306.876 285.467 304.61 287.979C301.715 291.12 300.582 291.12 298.946 287.854C297.813 285.97 297.939 284.839 299.072 283.457C300.834 281.322 301.464 281.322 304.484 283.583ZM320.847 284.588C321.854 286.221 321.728 287.226 320.092 288.859C318.078 290.869 317.701 290.869 315.309 288.608C312.918 286.472 312.918 286.221 314.931 283.96C317.323 281.322 318.959 281.447 320.847 284.588ZM335.951 283.96C337.839 286.221 337.839 286.472 335.448 288.608C333.434 290.366 332.679 290.492 331.043 289.236C328.777 287.351 328.651 285.216 330.665 283.206C332.679 281.196 333.434 281.322 335.951 283.96ZM219.649 291.12C220.908 292.627 220.908 293.381 219.649 294.888C218.768 295.893 217.384 296.773 216.503 296.773C215.622 296.773 214.237 295.893 213.356 294.888C212.097 293.381 212.097 292.627 213.356 291.12C214.237 290.115 215.622 289.236 216.503 289.236C217.384 289.236 218.768 290.115 219.649 291.12ZM235.257 291.497C237.145 293.758 237.145 294.009 234.753 296.145C232.74 297.903 231.984 298.029 230.348 296.773C228.082 294.888 227.957 292.753 229.97 290.743C231.984 288.733 232.74 288.859 235.257 291.497ZM250.235 295.768C248.347 297.903 248.095 297.903 245.83 295.893C243.69 294.009 243.69 293.758 245.704 291.497C247.592 289.361 247.844 289.361 250.109 291.371C252.249 293.255 252.249 293.507 250.235 295.768ZM296.932 291.497C298.82 293.758 298.82 294.009 296.429 296.145C294.415 297.903 293.66 298.029 292.023 296.773C289.758 294.888 289.632 292.753 291.646 290.743C293.66 288.733 294.415 288.859 296.932 291.497ZM312.288 296.145C310.274 298.155 310.023 298.155 307.631 296.145C305.365 294.009 305.365 293.758 307.379 291.497C309.393 289.236 309.519 289.236 311.911 291.622C314.302 293.884 314.302 294.26 312.288 296.145ZM328.399 292.125C329.406 293.758 329.28 294.763 327.644 296.396C325.63 298.406 325.253 298.406 322.861 296.145C320.47 294.009 320.47 293.758 322.484 291.497C324.875 288.859 326.511 288.984 328.399 292.125ZM205.174 293.004C205.174 293.884 204.419 294.888 203.664 295.14C202.657 295.517 202.028 294.637 202.028 293.004C202.028 291.371 202.657 290.492 203.664 290.743C204.419 291.12 205.174 292.125 205.174 293.004ZM338.72 295.14C337.462 296.396 336.329 294.512 337.462 292.879C338.217 291.497 338.469 291.497 338.972 292.879C339.224 293.758 339.098 294.763 338.72 295.14ZM212.097 298.657C214.489 301.546 210.209 306.069 206.937 304.184C204.168 302.802 203.916 300.416 206.056 298.28C208.069 296.27 210.209 296.396 212.097 298.657ZM227.705 299.536C228.712 301.295 228.586 302.3 226.824 303.933C224.81 305.943 224.558 305.943 221.915 303.431C219.649 301.044 219.523 300.416 220.908 298.657C222.922 296.27 225.817 296.647 227.705 299.536ZM242.809 299.034C244.697 301.295 244.697 301.546 242.306 303.682C239.914 305.817 239.536 305.817 237.774 304.059C236.138 302.551 236.012 301.546 237.145 299.411C238.907 296.145 240.04 296.145 242.809 299.034ZM258.668 301.169C258.668 302.049 257.787 303.431 256.655 304.31C255.144 305.692 254.389 305.566 252.753 303.933C250.865 302.049 250.865 301.672 253.004 299.285C254.766 297.401 255.648 297.15 257.032 298.155C257.913 298.908 258.668 300.29 258.668 301.169ZM289.38 299.034C291.268 301.295 291.268 301.546 288.877 303.682C285.982 306.194 282.583 305.44 282.583 302.049C282.583 299.788 284.849 296.773 286.359 296.773C286.863 296.773 288.122 297.778 289.38 299.034ZM304.107 303.556C301.967 305.566 301.212 305.692 299.701 304.31C297.184 302.3 297.184 301.169 299.701 298.657C301.589 296.773 301.967 296.773 304.233 298.783C306.498 300.918 306.498 301.044 304.107 303.556ZM320.344 303.556C318.33 306.069 316.064 306.069 314.05 303.682C312.792 302.049 312.918 301.295 314.68 299.16C317.071 296.647 317.071 296.647 319.589 299.16C321.602 301.295 321.728 302.049 320.344 303.556ZM335.826 299.034C337.714 301.169 337.714 301.546 335.951 304.184L333.937 306.948L330.917 304.184C328.148 301.546 328.022 301.169 330.036 299.034C332.553 296.27 333.308 296.145 335.826 299.034ZM220.153 307.073C221.16 308.832 221.034 309.711 219.398 311.345C215.622 315.113 209.957 310.214 213.356 306.069C215.37 303.807 218.265 304.184 220.153 307.073ZM235.257 306.571C237.145 308.832 237.145 309.083 234.753 311.219C232.74 312.978 231.984 313.103 230.348 311.847C228.082 309.963 227.957 307.827 229.97 305.817C231.984 303.807 232.74 303.933 235.257 306.571ZM249.858 311.093C247.466 313.48 247.214 313.48 245.201 311.47C243.187 309.586 243.187 309.209 245.452 306.822C247.592 304.436 247.844 304.436 250.109 306.445C252.375 308.455 252.375 308.581 249.858 311.093ZM296.681 306.445C298.82 308.33 298.82 308.581 296.932 310.842C294.289 313.731 291.898 313.731 290.261 310.968C289.38 309.335 289.632 308.078 291.016 306.571C293.534 303.807 293.786 303.807 296.681 306.445ZM312.792 311.093C310.778 313.606 308.512 313.606 306.498 311.219C305.24 309.586 305.365 308.832 307.128 306.697C309.519 304.184 309.519 304.184 312.036 306.697C314.05 308.832 314.176 309.586 312.792 311.093ZM328.903 309.711C328.399 313.103 323.994 313.983 321.602 311.219C320.218 309.586 320.344 308.832 322.232 306.822C325.127 303.682 329.532 305.566 328.903 309.711ZM204.419 307.325C205.552 308.581 205.426 309.335 203.916 310.591C202.28 311.973 202.028 311.596 202.028 308.832C202.028 305.064 202.405 304.812 204.419 307.325ZM339.224 309.586C339.224 311.596 338.846 311.973 337.839 310.968C337.084 310.214 336.832 308.958 337.21 308.204C338.595 306.069 339.224 306.571 339.224 309.586ZM211.216 314.108C212.852 315.867 212.978 316.746 211.845 317.877C209.832 319.887 207.692 319.761 205.804 317.5C204.545 315.992 204.545 315.239 205.804 313.731C207.818 311.345 208.699 311.345 211.216 314.108ZM227.201 313.731C229.467 316.369 227.831 319.384 224.181 319.384C220.027 319.384 218.894 317.249 221.663 314.234C224.306 311.345 225.187 311.219 227.201 313.731ZM242.935 316.244C242.935 317.877 241.928 318.882 240.04 319.133C236.767 319.635 234.753 315.992 237.397 314.234C240.166 312.475 242.935 313.48 242.935 316.244ZM258.417 316.495C258.794 318.882 258.291 319.384 255.648 319.384C252.123 319.384 250.487 317.625 251.62 314.862C252.753 311.847 257.913 313.229 258.417 316.495ZM288.625 314.611C290.765 316.746 290.513 317.877 287.744 319.258C286.108 320.138 284.723 320.012 283.087 318.882C281.199 317.374 281.073 316.872 282.457 315.113C284.471 312.726 286.611 312.601 288.625 314.611ZM305.24 314.987C307.002 317.123 305.869 319.007 302.722 319.384C298.946 319.887 297.687 319.384 297.687 316.997C297.687 313.103 302.596 311.847 305.24 314.987ZM320.344 314.987C321.602 316.495 321.602 317.249 320.344 318.756C319.463 319.761 318.078 320.64 317.197 320.64C316.316 320.64 314.931 319.761 314.05 318.756C312.792 317.249 312.792 316.495 314.05 314.987C314.931 313.983 316.316 313.103 317.197 313.103C318.078 313.103 319.463 313.983 320.344 314.987ZM335.951 315.239C337.084 317.877 333.937 321.017 331.294 319.887C328.777 319.007 328.525 316.746 330.665 314.611C332.805 312.475 335.07 312.726 335.951 315.239Z" fill="black"/>
<path d="M376.877 226.659C376.376 232.053 376 255.762 376 279.346V322.373L416.445 322.624C438.609 322.749 470.915 322.875 488.07 323H519.374L519.75 270.69L520 218.38L501.593 218.004C491.325 217.627 459.395 217.376 430.344 217.251L377.628 217L376.877 226.659ZM515.993 221.391C517.746 222.018 517.997 232.555 516.619 249.364L515.868 259.776L509.482 259.149C505.976 258.773 475.297 258.522 441.489 258.396H379.757V239.831C379.757 229.544 380.007 220.889 380.383 220.638C381.009 219.885 513.739 220.763 515.993 221.391ZM505.35 281.98L516.243 282.482V301.173C516.243 315.222 515.868 319.864 514.741 319.989C504.974 320.366 381.635 319.488 380.132 318.986C378.504 318.359 378.254 316.226 379.005 304.309C379.381 296.657 379.757 288.252 379.757 285.618V280.851L437.106 281.102C468.536 281.353 499.214 281.604 505.35 281.98Z" fill="black"/>
<path d="M15 449.686V502.373L59.2798 502.498C83.4895 502.624 115.602 502.749 130.404 502.875L157.373 503L157.749 449.937L158 397H86.5H15V449.686ZM27.5439 401.391C29.5509 403.774 28.2965 407.036 25.1605 407.036C22.2754 407.036 20.7702 403.523 22.6518 401.265C24.5333 399.007 25.6623 399.007 27.5439 401.391ZM43.0982 401.767C44.9798 404.025 44.9798 404.276 42.5965 406.408C40.2132 408.541 39.9623 408.541 37.5789 406.408C35.1956 404.276 35.1956 404.025 37.0772 401.767C38.3316 400.512 39.586 399.509 40.0877 399.509C40.5895 399.509 41.8439 400.512 43.0982 401.767ZM58.6526 406.534C56.2693 408.917 53.0079 408.164 51.7535 405.028C51.2518 403.649 51.8789 402.269 53.2588 401.14C55.3912 399.76 56.0184 399.76 58.1509 402.018C60.5342 404.276 60.5342 404.652 58.6526 406.534ZM89.5105 401.892C91.5175 404.025 91.5175 404.401 89.636 406.283C87.1272 408.792 86.6254 408.792 83.7404 406.157C81.6079 404.276 81.6079 404.025 83.4895 401.767C86.1237 398.882 86.8763 398.882 89.5105 401.892ZM74.8342 402.77C75.2105 403.774 74.7088 405.656 73.5798 406.785C71.6982 408.541 71.3219 408.541 68.9386 406.408C67.057 404.652 66.8061 403.774 67.8097 402.394C69.8167 400.136 73.8307 400.262 74.8342 402.77ZM105.441 402.77C106.821 404.527 106.696 405.028 104.689 406.534C101.678 408.792 100.925 408.792 99.0439 406.408C97.7895 404.903 97.7895 404.15 99.0439 402.645C101.051 400.262 103.309 400.262 105.441 402.77ZM120.118 402.269C122.375 404.527 121.874 406.785 118.989 407.663C115.225 408.917 111.839 405.405 114.096 402.77C115.978 400.387 118.111 400.262 120.118 402.269ZM136.675 402.645C137.93 404.15 137.93 404.903 136.675 406.408C135.797 407.412 134.418 408.29 133.539 408.29C132.661 408.29 131.282 407.412 130.404 406.408C129.149 404.903 129.149 404.15 130.404 402.645C131.282 401.641 132.661 400.763 133.539 400.763C134.418 400.763 135.797 401.641 136.675 402.645ZM151.728 402.645C152.982 404.15 152.982 404.903 151.728 406.408C148.592 410.172 143.324 407.286 145.582 403.021C147.087 400.262 149.596 400.136 151.728 402.645ZM36.3246 411.301C36.3246 412.304 35.4465 413.684 34.443 414.562C32.8123 415.817 32.0596 415.691 30.0526 413.935C27.6693 411.802 27.6693 411.426 29.5509 409.419C31.1816 407.663 32.1851 407.412 33.9412 408.415C35.3211 409.043 36.3246 410.422 36.3246 411.301ZM50.75 409.544C52.8825 411.928 52.8825 412.304 51.1263 414.186C47.3632 417.824 41.8439 412.931 45.1053 408.917C47.1123 406.408 47.9904 406.534 50.75 409.544ZM67.6842 412.179C67.6842 412.806 66.4298 413.809 65.05 414.688C62.9175 415.817 61.914 415.691 60.4088 414.06C58.6526 412.304 58.6526 411.928 60.7851 409.544C62.9175 407.161 63.1684 407.161 65.4263 409.043C66.6807 410.297 67.6842 411.677 67.6842 412.179ZM81.6079 409.67C82.7368 411.802 82.6114 412.806 80.9807 414.311C79.2246 416.067 78.8482 416.067 76.4649 413.935C74.0816 411.802 74.0816 411.551 75.9632 409.293C78.7228 406.408 79.8518 406.408 81.6079 409.67ZM99.0439 411.928C99.0439 412.304 97.7895 413.433 96.4097 414.311C94.1518 415.817 93.3991 415.691 91.7684 414.06C90.0123 412.304 90.0123 411.928 92.1447 409.544C94.2772 407.161 94.5281 407.161 96.786 409.043C98.0404 410.297 99.0439 411.551 99.0439 411.928ZM144.202 413.809C142.195 416.318 139.937 416.318 137.93 413.935C136.675 412.304 136.801 411.551 138.557 409.419C140.94 406.91 140.94 406.91 143.449 409.419C145.456 411.551 145.582 412.304 144.202 413.809ZM21.1465 412.931C19.3904 415.064 17.2579 412.806 18.3868 409.921C18.8886 408.666 19.5158 408.541 20.7702 409.67C22.15 410.799 22.2754 411.551 21.1465 412.931ZM112.842 410.172C114.096 411.677 114.096 412.43 112.842 413.935C110.961 416.318 110.208 416.318 107.197 414.06C105.19 412.555 105.065 412.053 106.445 410.297C108.577 407.788 110.835 407.788 112.842 410.172ZM129.024 410.548C131.282 414.813 126.013 417.698 122.877 413.935C121.623 412.43 121.623 411.677 122.877 410.172C125.01 407.663 127.518 407.788 129.024 410.548ZM155.491 412.053C155.491 413.433 154.989 414.562 154.362 414.562C152.606 414.562 151.477 412.304 152.355 410.799C153.61 408.666 155.491 409.419 155.491 412.053ZM28.0456 417.447C30.0526 420.583 26.0386 424.472 23.2789 422.089C20.8956 420.207 20.7702 418.075 22.7772 416.067C24.6588 414.186 26.2895 414.688 28.0456 417.447ZM43.2237 417.071C45.3561 419.454 45.3561 419.831 43.6 421.712C39.8368 425.35 34.3175 420.458 37.5789 416.444C39.586 413.935 40.464 414.06 43.2237 417.071ZM73.9561 421.336C71.9491 423.845 69.6912 423.845 67.6842 421.462C66.4298 419.831 66.5553 419.078 68.3114 416.946C70.6947 414.437 70.6947 414.437 73.2035 416.946C75.2105 419.078 75.336 419.831 73.9561 421.336ZM58.9035 417.698C60.1579 419.204 60.1579 419.956 58.9035 421.462C58.0254 422.465 56.6456 423.343 55.7675 423.343C54.8895 423.343 53.5097 422.465 52.6316 421.462C51.3772 419.956 51.3772 419.204 52.6316 417.698C53.5097 416.695 54.8895 415.817 55.7675 415.817C56.6456 415.817 58.0254 416.695 58.9035 417.698ZM89.5105 417.949C90.6395 420.583 87.5035 423.72 84.8693 422.591C82.3605 421.712 82.1097 419.454 84.2421 417.322C86.3746 415.189 88.6325 415.44 89.5105 417.949ZM105.316 417.824C106.696 419.329 106.57 420.082 104.563 422.214C102.054 424.723 102.054 424.723 99.6711 422.214C97.9149 420.082 97.7895 419.329 99.0439 417.698C101.051 415.315 103.309 415.315 105.316 417.824ZM120.745 418.075C122.375 419.831 122.501 420.709 121.372 421.838C117.609 425.601 112.089 421.712 115.351 417.698C117.358 415.315 118.236 415.315 120.745 418.075ZM136.801 417.824C138.181 419.58 138.055 420.082 136.048 421.587C133.038 423.845 132.285 423.845 130.404 421.462C129.149 419.956 129.149 419.204 130.404 417.698C132.411 415.315 134.668 415.315 136.801 417.824ZM151.728 417.824C153.108 419.329 152.982 420.082 150.975 422.214C148.467 424.723 148.467 424.723 146.083 422.214C144.327 420.082 144.202 419.329 145.456 417.698C147.463 415.315 149.721 415.315 151.728 417.824ZM35.5719 424.347C37.4535 426.605 37.4535 426.856 35.0702 428.988C33.0632 430.744 32.3105 430.87 30.6798 429.615C28.4219 427.734 28.2965 425.601 30.3035 423.594C32.3105 421.587 33.0632 421.712 35.5719 424.347ZM20.8956 427.608C20.3939 428.737 19.5158 429.615 18.7632 429.615C17.3833 429.615 17.007 425.476 18.3868 424.221C19.7667 422.841 21.6482 425.476 20.8956 427.608ZM51.1263 424.974C52.0044 425.978 52.0044 427.107 50.8754 428.737C48.8684 431.372 47.1123 431.497 45.1053 428.988C43.8509 427.483 43.8509 426.73 45.1053 425.225C46.9868 422.967 49.3702 422.841 51.1263 424.974ZM66.4298 425.35C67.8097 426.856 67.6842 427.608 65.6772 429.741C63.1684 432.25 63.1684 432.25 60.7851 429.741C59.0289 427.608 58.9035 426.856 60.1579 425.225C62.1649 422.841 64.4228 422.841 66.4298 425.35ZM81.4825 425.225C82.7368 426.856 82.6114 427.608 80.8553 429.615C78.7228 431.999 78.4719 431.999 76.214 429.992C74.0816 428.11 74.0816 427.859 75.9632 425.601C78.5974 422.841 79.4754 422.841 81.4825 425.225ZM96.786 425.476C98.9184 427.357 98.9184 427.734 97.0368 429.741C95.4061 431.497 94.4026 431.748 92.6465 430.744C89.8868 429.364 89.636 426.981 91.7684 424.849C93.65 422.967 94.0263 422.967 96.786 425.476ZM113.344 426.103C114.347 427.859 114.096 428.737 112.215 430.117C109.957 431.748 109.455 431.748 107.574 429.992C105.818 428.486 105.692 427.608 106.946 425.727C108.703 422.841 111.337 423.092 113.344 426.103ZM127.895 425.225C130.153 427.859 125.888 432.877 123.254 430.744C121.246 428.988 121.121 426.856 123.128 424.849C125.135 422.841 126.013 422.967 127.895 425.225ZM144.202 425.35C145.582 426.856 145.456 427.608 143.449 429.741C140.94 432.25 140.94 432.25 138.557 429.741C136.801 427.608 136.675 426.856 137.93 425.225C139.937 422.841 142.195 422.841 144.202 425.35ZM155.491 427.859C155.491 429.866 153.484 430.243 152.355 428.361C151.352 426.73 152.857 424.347 154.362 425.225C154.989 425.727 155.491 426.856 155.491 427.859ZM28.7982 434.006C28.7982 434.884 27.9202 436.264 26.9167 437.142C25.4114 438.396 24.6588 438.396 23.1535 437.142C20.7702 435.135 20.7702 434.006 23.2789 431.497C24.7842 429.992 25.6623 429.866 27.0421 430.995C28.0456 431.748 28.7982 433.128 28.7982 434.006ZM42.5965 436.389C40.2132 438.773 39.9623 438.773 37.9553 436.766C35.9482 434.884 35.9482 434.508 38.2061 432.124C40.3386 429.741 40.5895 429.741 42.8474 431.748C45.1053 433.755 45.1053 433.88 42.5965 436.389ZM58.2763 432.626C60.2833 434.131 60.4088 434.633 59.0289 436.389C56.8965 438.898 54.6386 438.898 52.6316 436.515C51.3772 435.009 51.3772 434.257 52.6316 432.751C54.5132 430.368 55.2658 430.368 58.2763 432.626ZM73.9561 432.751C76.9667 436.389 71.3219 440.278 67.9351 436.891C66.8061 435.762 66.9316 434.884 68.5623 433.128C71.0711 430.368 71.9491 430.368 73.9561 432.751ZM89.3851 433.128C91.0158 434.884 91.1412 435.762 90.0123 436.891C86.5 440.404 80.6044 437.267 82.8623 433.128C84.3675 430.243 86.7509 430.243 89.3851 433.128ZM105.19 436.766C103.183 439.024 99.4202 438.773 98.5421 436.264C97.9149 434.884 98.4167 433.504 99.7965 432.501C102.807 430.368 107.448 434.006 105.19 436.766ZM120.368 432.751C123.379 436.389 117.734 440.278 114.347 436.891C113.218 435.762 113.344 434.884 114.975 433.128C117.483 430.368 118.361 430.368 120.368 432.751ZM135.421 432.751C138.682 436.766 133.163 440.654 129.4 436.891C128.271 435.762 128.396 434.884 130.027 433.128C132.536 430.368 133.414 430.368 135.421 432.751ZM150.975 432.751C152.982 434.257 153.108 434.884 151.728 436.515C149.721 438.898 147.463 438.898 145.456 436.515C144.202 435.009 144.202 434.257 145.456 432.751C147.338 430.493 147.965 430.493 150.975 432.751ZM28.0456 463.736C29.0491 465.492 28.9237 466.496 27.1675 468.127C25.1605 470.134 24.9096 470.134 22.2754 467.625C20.0175 465.241 19.8921 464.614 21.2719 462.858C23.2789 460.475 26.164 460.851 28.0456 463.736ZM43.0982 463.234C44.9798 465.492 44.9798 465.743 42.5965 467.876C40.2132 470.008 39.9623 470.008 37.5789 467.876C35.1956 465.743 35.1956 465.492 37.0772 463.234C38.3316 461.98 39.586 460.976 40.0877 460.976C40.5895 460.976 41.8439 461.98 43.0982 463.234ZM58.2763 463.485C60.4088 465.869 60.4088 466.245 58.6526 468.127C54.8895 471.764 49.3702 466.872 52.6316 462.858C54.6386 460.349 55.5167 460.475 58.2763 463.485ZM75.2105 465.116C75.2105 466.872 72.7018 469.757 71.3219 469.757C70.8202 469.757 69.4404 468.879 68.3114 467.75C66.4298 465.869 66.4298 465.492 68.4368 463.36C70.0675 461.604 71.0711 461.353 72.8272 462.356C74.207 462.983 75.2105 464.238 75.2105 465.116ZM89.636 464.489C90.0123 465.492 89.5105 467.249 88.507 468.378C86.7509 470.008 86.2491 470.008 83.9912 467.876C81.6079 465.743 81.6079 465.367 83.4895 463.36C85.7474 460.851 88.3816 461.353 89.636 464.489ZM136.675 466.621C136.675 467.499 135.797 468.879 134.668 469.757C133.038 471.137 132.285 471.012 130.153 468.754C127.518 466.12 127.518 465.994 129.776 463.485C131.909 461.102 132.16 461.102 134.418 462.983C135.672 464.238 136.675 465.869 136.675 466.621ZM105.065 463.736C107.197 465.869 106.946 466.998 103.936 468.503C100.549 470.385 95.657 466.621 97.9149 463.862C99.6711 461.854 103.058 461.729 105.065 463.736ZM120.368 464.112C121.623 465.618 121.623 466.37 120.368 467.876C119.49 468.879 118.111 469.757 117.232 469.757C116.354 469.757 114.975 468.879 114.096 467.876C112.842 466.37 112.842 465.618 114.096 464.112C114.975 463.109 116.354 462.231 117.232 462.231C118.111 462.231 119.49 463.109 120.368 464.112ZM151.728 464.238C153.108 465.869 152.982 466.621 150.725 468.754C148.592 471.012 147.839 471.137 146.209 469.757C143.825 467.876 143.7 465.743 145.707 463.736C147.714 461.729 149.846 461.854 151.728 464.238ZM35.5719 471.388C36.5754 473.019 36.45 474.022 34.8193 475.653C32.8123 477.66 32.436 477.66 30.0526 475.402C27.6693 473.27 27.6693 473.019 29.6763 470.761C32.0596 468.127 33.6904 468.252 35.5719 471.388ZM50.75 471.012C52.6316 473.019 52.6316 473.772 51.3772 475.402C49.3702 477.786 47.7395 477.786 44.8544 475.151C42.7219 473.27 42.7219 473.019 44.6035 470.761C47.2377 467.876 47.9904 467.876 50.75 471.012ZM66.4298 471.639C67.6842 473.144 67.6842 473.897 66.4298 475.402C65.5518 476.406 64.1719 477.284 63.2939 477.284C62.4158 477.284 61.036 476.406 60.1579 475.402C58.9035 473.897 58.9035 473.144 60.1579 471.639C61.036 470.636 62.4158 469.757 63.2939 469.757C64.1719 469.757 65.5518 470.636 66.4298 471.639ZM82.1097 472.768C82.1097 474.022 81.1061 475.779 79.8518 476.531C76.8412 478.413 73.2035 474.148 75.4614 471.388C77.4684 468.879 82.1097 469.883 82.1097 472.768ZM97.0368 472.517C98.0404 474.273 97.7895 475.151 95.9079 476.531C93.65 478.288 93.1482 478.162 91.1412 475.779C89.5105 473.772 89.2597 472.768 90.3886 471.388C92.2702 469.256 95.1553 469.757 97.0368 472.517ZM112.842 471.639C114.096 473.27 114.096 474.022 112.215 476.03C108.703 479.918 103.309 475.528 106.696 471.514C108.577 469.256 110.835 469.256 112.842 471.639ZM128.396 472.517C129.4 474.273 129.275 475.277 127.518 476.908C125.511 478.915 125.261 478.915 122.626 476.406C120.368 474.022 120.243 473.395 121.623 471.639C123.63 469.256 126.515 469.632 128.396 472.517ZM143.449 472.015C145.331 474.273 145.331 474.524 142.947 476.657C140.564 478.789 140.313 478.789 137.93 476.657C135.546 474.524 135.546 474.273 137.428 472.015C138.682 470.761 139.937 469.757 140.439 469.757C140.94 469.757 142.195 470.761 143.449 472.015ZM21.0211 473.144C20.3939 476.28 17.5088 476.657 17.5088 473.646C17.5088 472.141 18.2614 471.012 19.5158 471.012C20.6447 471.012 21.2719 471.89 21.0211 473.144ZM154.613 475.653C154.111 476.908 153.484 477.033 152.606 476.155C151.979 475.528 151.728 473.897 152.23 472.643C152.982 470.886 153.359 470.761 154.237 472.141C154.739 473.144 154.989 474.775 154.613 475.653ZM28.7982 479.667C28.7982 480.169 27.6693 481.675 26.2895 482.929C23.9061 485.062 23.5298 485.187 21.6482 483.18C19.6412 481.298 19.7667 480.922 21.7737 478.664C23.5298 476.657 24.6588 476.406 26.4149 477.409C27.7947 478.037 28.7982 479.04 28.7982 479.667ZM43.0982 478.288C44.9798 480.546 44.9798 480.796 42.5965 482.929C40.2132 485.062 39.9623 485.062 37.5789 482.929C35.1956 480.796 35.1956 480.546 37.0772 478.288C38.3316 477.033 39.586 476.03 40.0877 476.03C40.5895 476.03 41.8439 477.033 43.0982 478.288ZM89.0088 482.804C87.0018 485.312 84.7439 485.312 82.7368 482.929C81.4825 481.298 81.6079 480.546 83.364 478.413C85.7474 475.904 85.7474 475.904 88.2561 478.413C90.2632 480.546 90.3886 481.298 89.0088 482.804ZM58.9035 479.166C60.2833 480.796 60.1579 481.424 58.1509 482.929C55.1404 485.187 54.5132 485.187 52.6316 482.929C51.3772 481.424 51.3772 480.671 52.6316 479.166C54.6386 476.782 56.8965 476.782 58.9035 479.166ZM73.9561 479.166C75.2105 480.671 75.2105 481.424 73.9561 482.929C73.0781 483.933 71.6982 484.811 70.8202 484.811C69.9421 484.811 68.5623 483.933 67.6842 482.929C66.4298 481.424 66.4298 480.671 67.6842 479.166C68.5623 478.162 69.9421 477.284 70.8202 477.284C71.6982 477.284 73.0781 478.162 73.9561 479.166ZM104.061 479.291C105.441 480.796 105.441 481.549 103.811 483.054C101.804 485.062 97.7895 484.183 97.7895 481.8C97.7895 480.169 100.298 477.284 101.678 477.284C102.18 477.284 103.183 478.162 104.061 479.291ZM119.867 479.04C122.25 480.922 122.25 480.922 119.616 483.556L117.107 486.191L114.724 483.682C112.968 481.549 112.842 480.796 114.096 479.166C115.978 476.782 116.731 476.782 119.867 479.04ZM135.421 479.166C136.675 480.796 136.55 481.549 134.794 483.556C132.661 485.94 132.411 485.94 130.153 483.933C128.02 482.051 128.02 481.8 129.902 479.542C132.536 476.782 133.414 476.782 135.421 479.166ZM150.975 479.542C152.857 481.8 152.857 482.051 150.474 484.183C148.467 485.94 147.714 486.065 146.083 484.811C143.825 482.929 143.7 480.796 145.707 478.789C147.714 476.782 148.467 476.908 150.975 479.542ZM35.5719 486.316C36.5754 488.072 36.3246 489.076 34.3175 491.083C31.8088 493.592 31.8088 493.592 29.5509 491.208C27.6693 489.201 27.6693 488.449 29.0491 486.191C30.9307 483.054 33.5649 483.18 35.5719 486.316ZM52.6316 488.699C52.6316 489.327 51.5026 490.33 49.9974 491.083C48.1158 492.212 46.9868 492.086 45.607 490.957C43.3491 489.076 43.3491 487.947 45.8579 485.438C47.7395 483.556 48.1158 483.556 50.2482 485.563C51.6281 486.692 52.6316 488.198 52.6316 488.699ZM66.4298 488.699C66.4298 489.076 65.5518 490.205 64.4228 491.083C62.9175 492.463 62.1649 492.337 60.5342 490.707C58.6526 488.825 58.6526 488.449 60.7851 486.065C63.043 483.556 63.2939 483.556 64.7991 485.563C65.6772 486.818 66.4298 488.198 66.4298 488.699ZM80.8553 491.083L78.4719 493.717L75.9632 491.208C73.5798 488.699 73.5798 488.574 75.8377 486.065L78.2211 483.431L80.7298 485.94C83.1132 488.449 83.1132 488.574 80.8553 491.083ZM96.5351 486.692C97.7895 488.323 97.664 489.076 95.9079 491.083C93.7754 493.466 93.3991 493.466 91.3921 491.585C89.636 489.954 89.3851 488.95 90.3886 487.194C91.8939 484.309 94.4026 484.183 96.5351 486.692ZM112.089 487.069C113.971 489.327 113.971 489.578 111.588 491.71C109.581 493.466 108.828 493.592 107.197 492.337C104.939 490.456 104.814 488.323 106.821 486.316C108.828 484.309 109.581 484.434 112.089 487.069ZM127.769 486.943C128.647 488.574 128.396 489.828 127.017 491.459C125.135 493.466 124.884 493.466 122.626 491.459C120.494 489.578 120.494 489.327 122.375 487.069C125.01 484.183 126.139 484.183 127.769 486.943ZM143.449 487.696C144.453 489.327 144.327 490.33 142.696 491.961C140.689 493.968 140.313 493.968 137.93 491.71C135.546 489.578 135.546 489.327 137.554 487.069C139.937 484.434 141.568 484.56 143.449 487.696ZM20.2684 487.947C20.2684 488.574 19.6412 489.327 18.8886 489.578C18.136 489.828 17.5088 489.076 17.5088 487.947C17.5088 486.818 18.136 486.065 18.8886 486.316C19.6412 486.567 20.2684 487.32 20.2684 487.947ZM154.237 490.079C154.237 492.086 153.861 492.463 152.857 491.459C152.104 490.707 151.854 489.452 152.23 488.699C153.61 486.567 154.237 487.069 154.237 490.079ZM28.7982 496.226C28.7982 498.609 24.157 499.738 21.7737 498.108C19.5158 496.351 19.5158 496.226 21.7737 493.717C24.0316 491.208 24.2825 491.208 26.5404 493.09C27.7947 494.344 28.7982 495.724 28.7982 496.226ZM43.0982 494.47C44.3526 497.731 40.9658 500.491 37.7044 498.735C35.5719 497.48 35.3211 496.853 36.3246 494.846C37.9553 491.836 42.0947 491.585 43.0982 494.47ZM57.6491 494.344C59.0289 495.85 59.0289 496.602 57.3982 498.108C55.3912 500.115 51.3772 499.237 51.3772 496.853C51.3772 495.222 53.886 492.337 55.2658 492.337C55.7675 492.337 56.7711 493.215 57.6491 494.344ZM73.4544 494.47C76.3395 498.609 70.9456 501.871 67.6842 497.982C66.4298 496.477 66.4298 495.724 67.6842 494.219C69.6912 491.71 71.4474 491.836 73.4544 494.47ZM89.0088 494.219C90.2632 495.724 90.2632 496.477 89.0088 497.982C88.1307 498.986 86.7509 499.864 85.8728 499.864C84.9947 499.864 83.6149 498.986 82.7368 497.982C81.4825 496.477 81.4825 495.724 82.7368 494.219C83.6149 493.215 84.9947 492.337 85.8728 492.337C86.7509 492.337 88.1307 493.215 89.0088 494.219ZM104.438 494.595C106.821 497.104 105.316 499.864 101.553 499.864C97.7895 499.864 96.2842 497.104 98.6675 494.595C99.7965 493.341 101.051 492.337 101.553 492.337C102.054 492.337 103.309 493.341 104.438 494.595ZM120.243 498.233C118.487 500.24 114.598 500.366 113.469 498.484C112.968 497.857 113.595 496.101 114.849 494.721C116.856 492.463 117.107 492.463 119.365 494.344C121.121 495.975 121.246 496.853 120.243 498.233ZM135.17 493.843C136.048 494.721 136.675 496.101 136.675 496.853C136.675 499.237 131.783 500.366 129.651 498.484C128.02 497.23 128.146 496.728 129.902 494.721C132.411 491.961 133.163 491.836 135.17 493.843ZM150.474 494.219C153.735 498.233 148.216 502.122 144.453 498.359C143.324 497.23 143.449 496.351 145.08 494.595C147.589 491.836 148.467 491.836 150.474 494.219Z" fill="black"/>
<path d="M197.878 397.143C197.628 397.767 197.127 421.61 196.751 449.822L196 501.377H222.671C237.197 501.377 269.628 501.752 294.671 502.126L340 503V449.697V396.518L274.01 396.394C237.572 396.269 205.767 396.019 203.012 396.019C200.383 395.894 198.003 396.394 197.878 397.143ZM257.106 418.739L257.482 437.963L228.932 437.338L200.383 436.839L200.007 420.736C199.882 411.873 200.007 403.384 200.383 401.761L201.134 398.89L228.932 399.265L256.73 399.639L257.106 418.739ZM336.995 413.62C336.619 420.861 336.243 429.349 336.243 432.345V437.713H308.195H280.021L280.647 419.363C281.023 409.251 281.523 400.763 281.774 400.388C282.024 400.014 294.671 399.764 310.073 400.014L337.871 400.388L336.995 413.62ZM257.357 479.532V499.005L230.184 498.756C215.158 498.631 202.261 498.256 201.384 498.007C200.132 497.507 199.757 492.764 199.757 478.783V460.183H228.557H257.357V479.532ZM335.993 479.781L336.369 498.881H308.07H279.896V480.405C279.896 470.169 280.271 461.431 280.772 460.932C281.273 460.557 293.795 460.308 308.57 460.432L335.617 460.807L335.993 479.781Z" fill="black"/>
</svg>
