<svg width="180" height="180" viewBox="0 0 180 180" fill="none" xmlns="http://www.w3.org/2000/svg">
<rect x="0.1" y="0.1" width="179.8" height="179.8" fill="white" stroke="#CBCBCB" stroke-width="0.2"/>
<path d="M14.9333 33.4997C14.4 34.033 14 59.4997 14 90.1664V145.766L26.4 146.7C33.0667 147.1 67.4667 147.366 102.667 147.1L166.667 146.7L167.067 90.2997L167.333 34.033L97.0667 33.8997C58.2667 33.8997 24.2667 33.4997 21.2 33.233C18.2667 32.833 15.4667 32.9664 14.9333 33.4997ZM79.4667 38.9664C80 39.4997 80.1333 48.9664 79.7333 59.8997L78.9333 79.7664L53.4667 78.9664C39.4667 78.433 25.7333 78.033 23.0667 78.033H18V58.2997C18 47.3664 18.2667 38.1664 18.6667 37.8997C19.7333 36.833 78.4 37.8997 79.4667 38.9664ZM144.8 38.033H164.667V51.633C164.667 59.233 164.267 68.5664 163.867 72.433L162.933 79.3664H133.2L103.333 79.233V58.6997V38.1664L108.4 37.633C111.067 37.233 116 37.233 119.2 37.4997C122.4 37.7664 134 38.033 144.8 38.033ZM75.7333 103.366H79.3333V123.366V143.366H48.6667H18V122.7V102.033L45.0667 102.7C59.8667 103.1 73.6 103.366 75.7333 103.366ZM146.4 103.233L163.333 103.366V123.366V143.366H133.333H103.333V123.633C103.333 112.7 103.6 103.5 104 103.1C104.4 102.833 110.267 102.566 117.067 102.833C123.733 102.966 136.933 103.1 146.4 103.233Z" fill="black"/>
</svg>
