<svg width="180" height="180" viewBox="0 0 180 180" fill="none" xmlns="http://www.w3.org/2000/svg">
<rect x="0.1" y="0.1" width="179.8" height="179.8" fill="white" stroke="#CBCBCB" stroke-width="0.2"/>
<path d="M14.6667 33.3317C14.2667 33.5984 14 58.9317 14 89.4651V145.065L89.4667 145.998C131.067 146.398 165.2 146.665 165.333 146.532C165.467 146.265 166 121.065 166.4 90.3984C166.8 49.5984 166.667 34.3984 165.467 34.1317C163.2 33.3317 15.3333 32.5317 14.6667 33.3317ZM27.8667 43.065C25.0667 46.1317 24.4 46.1317 22.4 42.7984C21.0667 40.7984 21.0667 39.865 22.8 38.1317C24.8 36.1317 25.2 36.1317 27.4667 38.265C29.8667 40.3984 29.8667 40.665 27.8667 43.065ZM45.2 39.1984C46.2667 40.9317 46.1333 41.9984 44.4 43.7317C42.2667 45.8651 41.8667 45.8651 39.3333 43.465C36.8 41.1984 36.8 40.9317 38.9333 38.5317C41.4667 35.7317 43.2 35.865 45.2 39.1984ZM61.2 38.5317C63.2 40.9317 63.2 41.1984 60.6667 43.465C58.5333 45.3317 57.7333 45.4651 56 44.1317C53.6 42.1317 53.4667 39.865 55.6 37.7317C57.7333 35.5984 58.5333 35.7317 61.2 38.5317ZM76.6667 43.3317C74.1333 45.8651 73.8667 45.8651 71.7333 43.7317C69.6 41.7317 69.6 41.3317 72 38.7984C74.2667 36.265 74.5333 36.265 76.9333 38.3984C79.3333 40.5317 79.3333 40.665 76.6667 43.3317ZM110 39.465C112.4 42.265 107.867 47.5984 105.067 45.3317C102.933 43.465 102.8 41.1984 104.933 39.065C107.067 36.9317 108 37.065 110 39.465ZM127.333 39.465C128.667 41.065 128.667 41.865 127.333 43.465C126.4 44.5317 124.933 45.4651 124 45.4651C123.067 45.4651 121.6 44.5317 120.667 43.465C119.333 41.865 119.333 41.065 120.667 39.465C121.6 38.3984 123.067 37.465 124 37.465C124.933 37.465 126.4 38.3984 127.333 39.465ZM143.333 39.5984C144.8 41.1984 144.667 41.9984 142.533 44.2651C139.867 46.9317 139.867 46.9317 137.333 44.2651C135.467 41.9984 135.333 41.1984 136.667 39.465C138.8 36.9317 141.2 36.9317 143.333 39.5984ZM159.867 40.5317C160.933 42.265 160.8 43.3317 159.067 45.0651C156.933 47.1984 156.533 47.1984 154 44.7984C151.467 42.5317 151.467 42.265 153.6 39.865C156.133 37.065 157.867 37.1984 159.867 40.5317ZM38 49.3317C38 49.7317 36.6667 50.9317 35.2 51.8651C32.8 53.4651 32 53.3317 30.2667 51.5984C28.4 49.7317 28.4 49.3317 30.6667 46.7984C32.9333 44.2651 33.2 44.2651 35.6 46.2651C36.9333 47.5984 38 48.9317 38 49.3317ZM53.2 47.1984C54.2667 48.9317 54.1333 49.9984 52.4 51.7317C50.2667 53.8651 49.8667 53.8651 47.3333 51.4651C44.8 49.1984 44.8 48.9317 46.9333 46.5317C49.4667 43.7317 51.2 43.865 53.2 47.1984ZM20.5333 47.3317C21.7333 48.6651 21.6 49.4651 20 50.7984C18.2667 52.2651 18 51.8651 18 48.9317C18 44.9317 18.4 44.6651 20.5333 47.3317ZM69.8667 47.1984C70.9333 48.6651 70.6667 49.5984 68.6667 51.4651C66.1333 53.7317 65.7333 53.7317 63.7333 51.7317C62 49.9984 61.8667 49.1984 63.3333 47.5984C65.3333 44.9317 67.8667 44.9317 69.8667 47.1984ZM118.533 48.5317C120.667 51.8651 116.4 55.9984 113.467 53.4651C110.933 51.4651 110.8 49.1984 112.933 47.0651C114.933 45.0651 116.667 45.5984 118.533 48.5317ZM135.333 47.5984C136.8 49.1984 136.667 49.9984 134.533 52.2651C131.867 54.9317 131.867 54.9317 129.333 52.2651C127.467 49.9984 127.333 49.1984 128.667 47.4651C130.8 44.9317 133.2 44.9317 135.333 47.5984ZM151.867 48.5317C152.933 50.2651 152.8 51.3317 151.067 53.0651C148.933 55.1984 148.533 55.1984 146 52.7984C143.467 50.5317 143.467 50.2651 145.6 47.8651C148.133 45.0651 149.867 45.1984 151.867 48.5317ZM163.333 51.0651C163.333 53.1984 162.933 53.5984 161.867 52.5317C161.067 51.7317 160.8 50.3984 161.2 49.5984C162.667 47.3317 163.333 47.8651 163.333 51.0651ZM28.2667 59.3317C25.6 61.9984 24.1333 61.9984 22 59.4651C20.6667 57.7317 20.8 56.9317 22.6667 54.6651C25.2 51.9984 25.2 51.9984 27.7333 54.6651C30.1333 57.0651 30.2667 57.4651 28.2667 59.3317ZM44 60.1317L41.4667 62.9317L38.8 60.2651C36.2667 57.5984 36.2667 57.4651 38.6667 54.7984L41.2 51.9984L43.8667 54.6651C46.4 57.3317 46.4 57.4651 44 60.1317ZM60.6667 55.4651C62 57.0651 62 57.8651 60.6667 59.4651C58.5333 61.9984 55.4667 61.9984 54.5333 59.4651C53.7333 57.4651 56 53.4651 58 53.4651C58.5333 53.4651 59.7333 54.3984 60.6667 55.4651ZM77.6 55.5984C78.4 57.8651 76.8 61.5984 74.5333 62.3984C73.8667 62.6651 72.5333 61.5984 71.6 59.9984C70.2667 57.8651 70.2667 56.7984 71.4667 55.3317C73.4667 52.7984 76.5333 52.9317 77.6 55.5984ZM110.533 56.3984C111.467 57.9984 111.2 59.1984 109.467 60.7984C107.333 62.9317 107.067 62.9317 104.533 60.7984C102.133 58.5317 102.133 58.2651 104.267 55.8651C106.667 53.0651 108.533 53.1984 110.533 56.3984ZM126.533 55.8651C128.533 58.2651 128.533 58.5317 126 60.7984C123.867 62.6651 123.067 62.7984 121.333 61.4651C118.933 59.4651 118.8 57.1984 120.933 55.0651C123.067 52.9317 123.867 53.0651 126.533 55.8651ZM143.333 60.6651C141.067 63.4651 138.4 63.3317 136.8 60.5317C135.867 58.7984 136.133 57.4651 137.733 55.7317C139.733 53.4651 140 53.4651 142.533 55.9984C144.667 58.2651 144.8 59.0651 143.333 60.6651ZM160.133 56.7984C160.933 58.7984 158.533 62.7984 156.533 62.7984C156 62.7984 154.533 61.8651 153.333 60.6651C151.733 59.0651 151.6 58.1317 152.8 56.6651C154.8 54.1317 159.2 54.2651 160.133 56.7984ZM36.6667 63.4651C38 65.0651 38 65.8651 36.6667 67.4651C35.7333 68.5317 34.2667 69.4651 33.3333 69.4651C32.4 69.4651 30.9333 68.5317 30 67.4651C28.6667 65.8651 28.6667 65.0651 30 63.4651C30.9333 62.3984 32.4 61.4651 33.3333 61.4651C34.2667 61.4651 35.7333 62.3984 36.6667 63.4651ZM52.6667 63.4651C55.8667 67.3317 49.8667 71.4651 46.2667 67.8651C45.0667 66.6651 45.2 65.7317 46.9333 63.8651C49.6 60.9317 50.5333 60.9317 52.6667 63.4651ZM69.2 63.8651C71.2 66.2651 71.2 66.5317 68.9333 68.5317C66.6667 70.5317 66.2667 70.5317 63.4667 68.6651C60.6667 66.6651 60.6667 66.3984 62.8 63.9984C65.6 60.7984 66.4 60.7984 69.2 63.8651ZM118.533 64.5317C119.6 66.2651 119.467 67.3317 117.733 69.0651C115.6 71.1984 115.2 71.1984 112.667 68.7984C110.133 66.5317 110.133 66.2651 112.267 63.8651C114.8 61.0651 116.533 61.1984 118.533 64.5317ZM136.667 66.9317C136.667 67.5984 135.467 68.6651 133.867 69.4651C131.867 70.6651 130.667 70.5317 129.2 69.3317C126.8 67.3317 126.8 66.1317 129.467 63.4651C131.467 61.4651 131.867 61.4651 134.133 63.5984C135.6 64.7984 136.667 66.3984 136.667 66.9317ZM20.6667 64.6651C20.6667 65.7317 20.1333 67.0651 19.3333 67.4651C18.6667 67.8651 18 67.0651 18 65.5984C18 63.9984 18.6667 62.7984 19.3333 62.7984C20.1333 62.7984 20.6667 63.5984 20.6667 64.6651ZM151.333 64.7984C152.667 66.3984 152.667 67.1984 151.333 68.7984C150.4 69.8651 148.933 70.7984 148 70.7984C147.067 70.7984 145.6 69.8651 144.667 68.7984C143.333 67.1984 143.333 66.3984 144.667 64.7984C145.6 63.7317 147.067 62.7984 148 62.7984C148.933 62.7984 150.4 63.7317 151.333 64.7984ZM163.333 66.7984C163.333 69.3317 161.867 70.2651 160.267 68.6651C159.2 67.5984 160.667 64.1317 162.133 64.1317C162.8 64.1317 163.333 65.3317 163.333 66.7984ZM28.5333 71.8651C30.9333 76.3984 25.3333 79.4651 22 75.4651C20.6667 73.8651 20.6667 73.0651 22 71.4651C24.2667 68.7984 26.9333 68.9317 28.5333 71.8651ZM44.6667 71.4651C47.8667 75.3317 41.8667 79.4651 38.2667 75.8651C37.0667 74.6651 37.2 73.7317 38.9333 71.8651C41.6 68.9317 42.5333 68.9317 44.6667 71.4651ZM60.6667 71.4651C62.8 73.9984 61.4667 77.4651 58.2667 77.4651C54.4 77.4651 51.8667 73.9984 54 71.4651C56.1333 68.9317 58.5333 68.9317 60.6667 71.4651ZM76.6667 71.4651C78.9333 74.1317 77.3333 77.4651 74 77.4651C72.5333 77.4651 70.9333 76.5317 70.5333 75.4651C69.7333 73.4651 72 69.4651 74 69.4651C74.5333 69.4651 75.7333 70.3984 76.6667 71.4651ZM109.733 71.0651C113.733 75.0651 108.533 80.2651 103.867 76.9317C101.467 75.0651 101.467 74.9317 103.867 72.2651C106.8 69.0651 107.6 68.9317 109.733 71.0651ZM126.8 72.2651C129.2 74.9317 129.2 75.0651 126.667 76.9317C123.733 79.0651 122.133 78.7984 120.133 75.8651C119.2 74.2651 119.333 73.0651 120.533 71.5984C122.933 68.7984 123.733 68.9317 126.8 72.2651ZM143.333 72.7984C144.667 74.3984 144.667 75.1984 143.333 76.7984C142.4 77.8651 140.933 78.7984 140 78.7984C139.067 78.7984 137.6 77.8651 136.667 76.7984C135.333 75.1984 135.333 74.3984 136.667 72.7984C137.6 71.7317 139.067 70.7984 140 70.7984C140.933 70.7984 142.4 71.7317 143.333 72.7984ZM159.333 72.7984C160.667 74.3984 160.667 75.1984 159.333 76.7984C158.4 77.8651 156.933 78.7984 156 78.7984C155.067 78.7984 153.6 77.8651 152.667 76.7984C151.333 75.1984 151.333 74.3984 152.667 72.7984C153.6 71.7317 155.067 70.7984 156 70.7984C156.933 70.7984 158.4 71.7317 159.333 72.7984ZM27.8667 104.532C30 107.865 25.7333 111.998 22.8 109.465C20.2667 107.465 20.1333 105.198 22.2667 103.065C24.2667 101.065 26 101.598 27.8667 104.532ZM43.3333 108.665C40.8 111.198 40.5333 111.198 38.4 109.065C36.2667 107.065 36.2667 106.665 38.6667 104.132C40.9333 101.598 41.2 101.598 43.6 103.732C46 105.865 46 105.998 43.3333 108.665ZM59.3333 108.665C56.8 111.198 56.5333 111.198 54.4 109.065C52.2667 107.065 52.2667 106.665 54.6667 104.132C56.9333 101.598 57.2 101.598 59.6 103.732C62 105.865 62 105.998 59.3333 108.665ZM76.4 108.932C75.2 110.132 73.2 110.798 72.1333 110.398C69.6 109.465 69.3333 105.332 71.6 103.065C72.9333 101.732 73.8667 101.998 75.8667 104.132C78.4 106.532 78.4 106.932 76.4 108.932ZM110 104.798C111.333 106.532 111.2 107.332 109.333 109.598L106.8 112.265L104.133 109.465C101.333 106.665 101.333 106.665 103.867 104.665C107.2 102.265 108 102.265 110 104.798ZM126.533 105.865C128.667 109.198 124.4 113.332 121.467 110.798C118.933 108.798 118.8 106.532 120.933 104.398C122.933 102.398 124.667 102.932 126.533 105.865ZM142.533 105.198C144.533 107.598 144.533 107.865 142 110.132C139.867 111.998 139.067 112.132 137.333 110.798C134.933 108.798 134.8 106.532 136.933 104.398C139.067 102.265 139.867 102.398 142.533 105.198ZM158 109.998C155.333 112.665 155.333 112.665 153.467 110.132C151.733 107.732 151.733 107.198 153.6 105.065C155.6 102.932 155.867 102.932 158.267 105.065C160.667 107.198 160.667 107.332 158 109.998ZM51.3333 116.665C48.8 119.198 48.5333 119.198 46.4 117.065C44.2667 115.065 44.2667 114.665 46.6667 112.132C48.9333 109.598 49.2 109.598 51.6 111.732C54 113.865 54 113.998 51.3333 116.665ZM68.6667 116.665C66.5333 119.332 64.1333 119.332 62 116.798C60.6667 115.065 60.8 114.265 62.6667 111.998C65.2 109.332 65.2 109.332 67.8667 111.998C70 114.265 70.1333 115.065 68.6667 116.665ZM36.2667 112.932C36.6667 113.998 36 115.998 34.8 117.198C32.8 119.198 32.5333 119.198 30.4 117.198C28.6667 115.332 28.5333 114.532 30 112.932C32.1333 110.265 35.2 110.265 36.2667 112.932ZM118.533 113.865C119.6 115.598 119.467 116.665 117.733 118.398C115.6 120.532 115.2 120.532 112.667 118.132C110.133 115.865 110.133 115.598 112.267 113.198C114.8 110.398 116.533 110.532 118.533 113.865ZM134.533 113.865C136.667 117.198 132.4 121.332 129.467 118.798C126.933 116.798 126.8 114.532 128.933 112.398C130.933 110.398 132.667 110.932 134.533 113.865ZM151.333 115.465C151.333 116.398 150.4 117.865 149.2 118.798C147.6 120.265 146.8 120.132 145.067 118.398C143.067 116.398 143.067 115.998 145.333 113.465C147.2 111.465 148.133 111.198 149.6 112.265C150.533 113.065 151.333 114.532 151.333 115.465ZM20 114.532C20 116.932 17.3333 116.532 16.9333 113.998C16.5333 112.665 17.0667 111.998 18.2667 112.398C19.2 112.798 20 113.732 20 114.532ZM163.333 114.398C163.2 116.798 160.933 119.065 160.133 117.598C159.6 116.798 159.6 115.465 160 114.798C160.933 113.198 163.333 113.065 163.333 114.398ZM60.6667 124.665C58.5333 127.332 56.1333 127.332 54 124.798C52.6667 123.065 52.8 122.265 54.6667 119.998C57.2 117.332 57.2 117.332 59.8667 119.998C62 122.265 62.1333 123.065 60.6667 124.665ZM27.3333 120.798C28.6667 122.398 28.6667 123.198 27.3333 124.798C25.2 127.332 22.1333 127.332 21.2 124.798C20.4 122.798 22.6667 118.798 24.6667 118.798C25.2 118.798 26.4 119.732 27.3333 120.798ZM44.1333 120.798C44.9333 122.798 42.5333 126.798 40.5333 126.798C40 126.798 38.5333 125.732 37.3333 124.532C35.2 122.398 35.2 122.265 37.4667 120.532C40.6667 118.265 43.2 118.398 44.1333 120.798ZM77.2 121.865C78.4 123.865 78.1333 124.665 76 126.265C73.7333 127.998 73.2 127.865 70.8 125.598C68.6667 123.332 68.5333 122.665 70 120.798C72.1333 118.265 75.2 118.665 77.2 121.865ZM108.8 125.998C106.533 128.132 105.733 128.265 104.133 126.798C101.333 124.532 101.467 121.865 104.267 120.265C106 119.332 107.333 119.598 109.067 121.198C111.333 123.198 111.333 123.465 108.8 125.998ZM127.333 123.332C127.333 124.398 126.4 125.865 125.333 126.798C123.6 128.132 122.8 127.998 120.667 126.132C118.133 123.865 118.133 123.465 120.133 121.332C121.867 119.465 122.933 119.198 124.8 120.265C126.267 120.932 127.333 122.398 127.333 123.332ZM158.533 125.198C156.667 128.132 154 128.132 152.133 125.065C150.933 123.065 151.2 122.265 153.333 120.665C155.6 119.065 156.133 119.065 157.867 120.798C159.467 122.398 159.6 123.332 158.533 125.198ZM142.933 122.265C143.333 123.332 142.8 125.332 141.6 126.398C139.867 128.132 139.067 128.265 137.467 126.798C133.733 123.865 135.2 120.532 140.4 120.265C141.333 120.132 142.4 121.065 142.933 122.265ZM35.3333 128.798C36.6667 130.398 36.6667 131.198 35.3333 132.798C34.4 133.865 32.9333 134.798 32 134.798C31.0667 134.798 29.6 133.865 28.6667 132.798C27.3333 131.198 27.3333 130.398 28.6667 128.798C29.6 127.732 31.0667 126.798 32 126.798C32.9333 126.798 34.4 127.732 35.3333 128.798ZM52 129.465C53.3333 133.598 50.5333 136.398 47.2 134.398C44.2667 132.532 44 130.665 46.2667 128.398C48.6667 125.998 51.0667 126.532 52 129.465ZM69.2 129.732C70.2667 131.598 70 132.532 68 133.998C65.6 135.732 65.0667 135.732 62.8 133.465C60.6667 131.332 60.5333 130.665 62 128.798C64.1333 126.265 67.2 126.665 69.2 129.732ZM118 133.998C115.867 136.665 113.467 136.665 111.333 134.132C110 132.398 110.133 131.598 112 129.332C114.533 126.665 114.533 126.665 117.2 129.332C119.333 131.598 119.467 132.398 118 133.998ZM20 130.798C20 131.732 19.2 132.798 18.4 133.065C17.3333 133.465 16.6667 132.532 16.6667 130.798C16.6667 129.065 17.3333 128.132 18.4 128.398C19.2 128.798 20 129.865 20 130.798ZM134.533 130.398C135.067 131.598 134.533 133.465 133.467 134.665C131.6 136.398 131.067 136.398 128.667 134.132C126.667 132.265 126.4 131.332 127.467 129.865C129.6 127.465 133.6 127.732 134.533 130.398ZM150.933 130.265C151.333 131.332 150.8 133.332 149.6 134.532C147.6 136.398 147.2 136.398 144.667 134.132C142.667 132.265 142.4 131.332 143.467 129.865C145.6 127.465 149.867 127.598 150.933 130.265ZM162 132.398C162 134.532 161.6 134.932 160.533 133.865C159.733 133.065 159.467 131.732 159.867 130.932C161.333 128.665 162 129.198 162 132.398ZM27.3333 136.798C29.4667 139.332 27.8667 141.465 24 141.465C20.1333 141.465 18.5333 139.332 20.6667 136.798C22.8 134.265 25.2 134.265 27.3333 136.798ZM43.4667 136.932C44.9333 138.798 44.8 139.332 42.8 140.798C38.4 143.998 34.5333 140.132 38.2667 136.398C40.4 134.265 41.3333 134.398 43.4667 136.932ZM60 136.932C61.6 138.532 61.7333 139.465 60.5333 140.932C58.5333 143.332 56.1333 143.332 54 140.798C52.6667 139.198 52.6667 138.398 54 136.798C56.1333 134.265 57.3333 134.265 60 136.932ZM76.6667 136.798C79.8667 140.665 73.8667 144.798 70.2667 141.198C69.0667 139.998 69.2 139.065 70.9333 137.198C73.6 134.265 74.5333 134.265 76.6667 136.798ZM109.867 141.065C107.733 143.465 103.467 143.198 102.4 140.665C101.867 139.332 102.533 137.732 104 136.665C106.133 135.065 106.8 135.198 108.933 137.065C110.8 138.665 110.933 139.598 109.867 141.065ZM126.133 138.265C127.467 139.998 127.467 140.532 125.867 141.598C121.333 144.398 116.267 141.732 119.333 138.132C121.467 135.598 123.867 135.598 126.133 138.265ZM141.867 137.332C144.4 138.932 142.667 142.798 139.6 142.798C136 142.798 133.6 139.732 135.6 137.732C137.467 135.865 139.333 135.732 141.867 137.332ZM158.533 138.265C159.6 141.065 158.4 142.798 155.333 142.798C152.4 142.798 150.8 140.798 151.867 138.132C152.8 135.465 157.467 135.598 158.533 138.265Z" fill="black"/>
</svg>
