<svg width="180" height="180" viewBox="0 0 180 180" fill="none" xmlns="http://www.w3.org/2000/svg">
<rect x="0.1" y="0.1" width="179.8" height="179.8" fill="white" stroke="#CBCBCB" stroke-width="0.2"/>
<path d="M14.45 35.0688C13.3833 38.4021 12.45 145.069 13.3833 145.602C13.9167 146.002 48.5833 146.402 90.45 146.669L166.45 147.202L166.85 91.7355L167.25 36.1355L122.85 35.3355C25.25 33.6021 14.85 33.6021 14.45 35.0688ZM32.45 38.4021C32.45 40.4021 19.1167 52.0021 17.7833 51.2021C15.3833 49.7355 16.3167 45.4688 19.9167 41.3355C22.45 38.1355 24.45 37.2021 27.9167 37.2021C30.45 37.2021 32.45 37.7355 32.45 38.4021ZM48.45 38.2688C48.45 40.1355 18.3167 69.3355 17.3833 68.4021C16.85 67.8688 16.45 65.8688 16.45 64.0021C16.45 61.6021 19.65 57.6021 28.45 48.9355C38.1833 39.4688 41.1167 37.2021 44.45 37.2021C46.5833 37.2021 48.45 37.6021 48.45 38.2688ZM65.7833 38.4021C65.7833 39.0688 56.5833 48.4021 45.5167 59.0688C29.3833 74.4021 24.3167 78.5355 21.5167 78.5355C19.3833 78.5355 17.7833 77.8688 17.7833 77.0688C17.7833 76.1355 26.5833 66.9355 37.5167 56.4021C54.45 40.0021 57.65 37.3355 61.5167 37.2021C63.7833 37.2021 65.7833 37.7355 65.7833 38.4021ZM78.3167 39.3355C79.5167 42.2688 79.1167 42.6688 59.65 61.6021C43.25 77.4688 41.9167 78.5355 36.9833 78.5355L31.7833 78.4021L53.1167 57.8688C64.85 46.5355 75.1167 37.2021 75.9167 37.2021C76.85 37.2021 77.9167 38.1355 78.3167 39.3355ZM115.117 39.6021C115.117 40.1355 112.45 43.3355 109.117 46.5355L103.117 52.4021V47.0688C103.117 44.1355 103.783 41.0688 104.717 40.1355C106.45 38.4021 115.117 37.8688 115.117 39.6021ZM132.183 39.4688C132.05 40.1355 125.383 46.8021 117.517 54.4021L103.117 68.2688V62.9355C103.117 58.0021 103.917 56.8021 113.117 48.0021C121.65 39.8688 123.783 38.5355 127.917 38.5355C130.45 38.5355 132.45 38.9355 132.183 39.4688ZM148.45 39.7355C148.45 42.0021 107.917 79.8688 105.517 79.8688C99.65 79.8688 103.65 74.0021 121.517 56.5355C137.25 41.0688 140.317 38.6688 144.183 38.5355C146.45 38.5355 148.45 39.0688 148.45 39.7355ZM163.783 39.8688C164.183 40.5355 155.65 49.8688 144.85 60.4021C126.05 78.9355 124.85 79.7355 119.783 79.7355H114.45L135.65 59.2021C156.183 39.2021 161.25 35.7355 163.783 39.8688ZM163.783 54.9355C163.25 58.0021 159.783 62.1355 152.05 69.4688C142.85 78.2688 140.45 79.8688 136.583 79.8688C134.05 79.8688 132.45 79.4688 132.85 78.8021C141.117 69.7355 162.583 49.6021 163.517 50.1355C164.05 50.5355 164.183 52.6688 163.783 54.9355ZM78.3167 55.4688C78.05 59.8688 76.85 61.7355 68.45 69.4688C60.1833 77.2021 58.05 78.5355 53.9167 78.5355H49.1167L63.1167 64.5355C70.85 56.8021 77.3833 50.5355 77.7833 50.5355C78.1833 50.5355 78.45 52.8021 78.3167 55.4688ZM75.9167 77.8688C74.85 78.8021 72.05 79.2021 69.7833 78.8021L65.5167 78.1355L71.3833 72.2688L77.1167 66.4021L77.5167 71.4688C77.7833 74.8021 77.25 76.9355 75.9167 77.8688ZM163.117 70.9355C163.117 75.8688 160.45 79.0688 155.383 80.2688C148.317 82.0021 148.05 79.7355 154.583 73.0688C158.183 69.4688 161.517 66.5355 162.05 66.5355C162.583 66.5355 163.117 68.5355 163.117 70.9355ZM32.1833 103.602C31.5167 105.069 18.3167 117.202 17.25 117.202C15.3833 117.202 16.5833 110.002 19.25 106.402C21.5167 103.202 22.9833 102.535 27.3833 102.535C30.3167 102.535 32.45 102.935 32.1833 103.602ZM48.45 103.602C48.45 104.535 44.5833 108.402 24.1833 127.869L16.45 135.069V130.269C16.45 125.869 17.65 124.135 28.1833 114.002C37.9167 104.402 40.45 102.535 44.1833 102.535C46.45 102.535 48.45 103.069 48.45 103.602ZM65.5167 103.469C65.3833 104.135 56.3167 113.069 45.65 123.469C27.25 141.602 26.05 142.535 20.9833 142.535L15.7833 142.402L36.3167 122.535C54.7167 104.669 57.3833 102.535 61.3833 102.535C63.9167 102.535 65.7833 102.935 65.5167 103.469ZM77.5167 106.135C77.7833 108.135 72.9833 113.469 59.65 126.402C44.9833 140.535 40.7167 143.869 37.65 143.869C33.5167 143.869 32.7167 142.002 35.5167 139.469C36.45 138.535 45.3833 129.869 55.3833 120.135C65.5167 110.269 74.45 102.535 75.3833 102.802C76.3167 103.202 77.25 104.669 77.5167 106.135ZM114.85 104.935C114.317 106.402 103.65 115.869 102.583 115.869C101.25 115.869 101.65 109.202 103.117 106.402C104.183 104.535 105.917 103.869 109.917 103.869C112.85 103.869 115.117 104.402 114.85 104.935ZM117.783 118.802L102.45 133.735L102.05 129.202C101.65 125.202 102.583 123.735 112.05 114.269C121.65 104.669 122.85 103.869 127.783 103.869L133.117 104.002L117.783 118.802ZM147.517 104.802C148.05 105.335 139.65 114.269 128.85 124.669C113.383 139.602 108.317 143.735 105.517 143.869C103.117 143.869 101.783 143.202 101.783 142.002C101.783 140.935 110.317 132.002 120.85 122.002C135.117 108.402 140.583 103.869 143.25 103.869C145.117 103.869 147.117 104.269 147.517 104.802ZM162.583 105.469C163.25 106.535 156.45 114.002 143.783 126.135C127.517 141.869 123.25 145.202 120.45 144.935C118.583 144.669 117.117 143.869 117.117 143.202C117.117 142.402 125.917 133.335 136.717 122.802C155.517 104.535 160.183 101.469 162.583 105.469ZM151.783 134.135C142.717 142.802 139.383 145.202 136.317 145.202C134.183 145.202 132.45 144.669 132.45 144.002C132.45 143.335 139.25 136.402 147.517 128.535L162.45 114.402L162.85 118.802C163.25 122.802 162.317 124.135 151.783 134.135ZM77.7833 120.402C77.7833 124.135 76.3167 126.269 68.1833 134.402C60.1833 142.135 57.65 143.869 54.1833 143.869C51.7833 143.869 49.7833 143.335 49.7833 142.669C49.7833 141.602 76.1833 115.869 77.3833 115.869C77.5167 115.869 77.7833 117.869 77.7833 120.402ZM160.317 142.002C157.383 145.202 148.45 146.669 148.45 144.002C148.45 143.469 151.65 140.002 155.517 136.535L162.45 130.269L162.85 134.535C163.117 137.602 162.45 139.735 160.317 142.002ZM76.3167 142.002C75.5167 143.069 72.5833 143.869 70.05 143.869H65.25L71.1167 137.735L77.1167 131.735L77.5167 135.869C77.7833 138.135 77.25 140.935 76.3167 142.002Z" fill="black"/>
</svg>
