<svg width="180" height="180" viewBox="0 0 180 180" fill="none" xmlns="http://www.w3.org/2000/svg">
<rect x="0.1" y="0.1" width="179.8" height="179.8" fill="white" stroke="#CBCBCB" stroke-width="0.2"/>
<path d="M14.4 78.8667C14.2667 104.067 14.1333 129.533 14.1333 135.4L14 146.067L90.4 146.467L166.667 146.733L166.933 97.1334C167.067 52.2001 166.933 35.9334 166.133 35.1334C166 35.0001 131.867 34.4667 90.2667 33.9334L14.6667 33.0001L14.4 78.8667ZM162.4 38.0667C163.6 38.4667 164 43.9334 164 58.7334V78.8667L91.7333 78.4667L19.3333 78.0667L18.9333 58.7334C18.8 48.2001 18.8 38.8667 19.0667 38.0667C19.6 36.7334 158.533 36.7334 162.4 38.0667ZM162.933 104.867C163.2 106.067 163.067 115.267 162.667 125.267L162 143.4L90.6667 142.867C51.4667 142.6 18.9333 142.2 18.4 141.8C17.0667 141.133 16.9333 104.867 18.2667 103.667C18.6667 103.133 51.3333 102.733 90.8 102.733C155.867 102.733 162.533 103 162.933 104.867Z" fill="black"/>
</svg>
