<svg width="180" height="180" viewBox="0 0 180 180" fill="none" xmlns="http://www.w3.org/2000/svg">
<rect x="0.1" y="0.1" width="179.8" height="179.8" fill="white" stroke="#CBCBCB" stroke-width="0.2"/>
<path d="M14.6 52.5335C14.6 63.8668 14.2 89.4668 13.8 109.333L13 145.733H28.7333C37.5333 145.733 71.8 146.133 105 146.667L165.267 147.467V125.6C165.267 113.6 165.667 88.0001 166.2 68.6668L167 33.7335H114.467C85.5333 33.7335 51.2667 33.3335 38.3333 32.8001L14.6 32.0001V52.5335ZM26.6 43.7335C22.6 47.7335 18.8667 51.0668 18.3333 51.0668C17.8 51.0668 17.2667 49.2001 17.2667 47.0668C17.2667 41.2001 22.4667 36.4001 28.8667 36.4001H33.8L26.6 43.7335ZM49.2667 37.3335C49.2667 38.5335 19.2667 67.0668 18.0667 67.0668C17.6667 67.0668 17.2667 65.4668 17.2667 63.4668C17.2667 60.6668 19.9333 57.0668 28.8667 48.1335C38.8667 38.1335 41.1333 36.4001 44.8667 36.4001C47.2667 36.4001 49.2667 36.8001 49.2667 37.3335ZM65.2667 37.4668C65.2667 38.1335 56.3333 47.3335 45.4 58.1335C30.3333 72.9335 24.7333 77.7335 22.0667 77.7335C20.3333 77.7335 18.4667 77.2001 18.0667 76.6668C17.6667 76.0001 26.2 66.6668 37.1333 56.0001C54.2 39.0668 57.4 36.4001 61 36.4001C63.4 36.4001 65.2667 36.9335 65.2667 37.4668ZM82.6 36.9335C82.6 37.3335 73.4 46.5335 62.3333 57.6001C44.4667 75.0668 41.4 77.7335 37.6667 77.7335C35.2667 77.7335 33.2667 77.3335 33.2667 76.6668C33.2667 76.1335 42.3333 66.9335 53.5333 56.1335C71.1333 39.0668 74.4667 36.5335 78.3333 36.4001C80.6 36.4001 82.6 36.6668 82.6 36.9335ZM98.6 37.4668C98.6 38.0001 89.6667 47.3335 78.7333 58.1335C59.6667 77.2001 58.7333 77.8668 54.0667 77.4668L49.1333 77.0668L69.6667 56.6668C87.4 39.0668 90.7333 36.4001 94.3333 36.4001C96.7333 36.4001 98.6 36.9335 98.6 37.4668ZM112.6 37.2001C114.333 37.8668 110.467 42.5335 95.1333 57.8668C77.6667 75.3335 74.7333 77.7335 71 77.7335C68.6 77.7335 66.6 77.2001 66.6 76.5335C66.6 74.8001 107 36.4001 108.867 36.4001C109.667 36.4001 111.4 36.8001 112.6 37.2001ZM131.133 37.3335C131.533 37.8668 122.867 47.0668 111.667 58.0001C93.2667 75.8668 91 77.7335 86.7333 77.7335H81.9333L102.6 57.0668C118.6 41.0668 124.067 36.4001 126.733 36.4001C128.6 36.4001 130.6 36.8001 131.133 37.3335ZM128.467 57.8668C109.533 76.9335 108.467 77.7335 103.267 77.7335H97.9333L118.6 57.2001C138.333 37.6001 139.4 36.6668 143.8 37.3335L148.2 38.1335L128.467 57.8668ZM162.6 38.6668C162.6 39.2001 154.067 48.2668 143.667 58.6668C125.4 76.9335 124.467 77.7335 119.267 77.7335L113.933 77.6001L134.467 57.7335C151.267 41.3335 155.667 37.7335 158.733 37.7335C160.867 37.7335 162.6 38.1335 162.6 38.6668ZM162.6 51.7335C162.6 55.8668 161.267 57.7335 151.8 66.9335C144.2 74.4001 139.8 77.6001 136.733 78.1335C134.467 78.4001 132.333 78.5335 131.933 78.1335C131.533 77.7335 161.267 47.0668 162.2 47.0668C162.467 47.0668 162.6 49.2001 162.6 51.7335ZM162.6 68.9335C162.6 72.2668 161.667 74.2668 159.133 76.2668C155.8 78.9335 147.933 80.1335 147.933 78.1335C147.933 76.8001 160.2 64.4001 161.533 64.4001C162.067 64.4001 162.6 66.4001 162.6 68.9335ZM25.9333 109.733L17.9333 117.867L17.5333 112.933C16.8667 106.133 21.1333 101.733 28.4667 101.733H33.8L25.9333 109.733ZM49.2667 102.4C49.2667 102.8 42.2 110.133 33.6667 118.533L17.9333 134L17.5333 129.6C17.1333 125.733 18.3333 124.133 28.8667 113.467C38.7333 103.467 41.1333 101.733 44.8667 101.733C47.2667 101.733 49.2667 102 49.2667 102.4ZM65.2667 102.667C65.2667 103.2 56.4667 112.533 45.6667 123.333C30.3333 138.667 25.1333 143.067 22.4667 143.067C20.6 143.067 18.6 142.667 18.0667 142.133C17.5333 141.6 26.0667 132.267 36.8667 121.467C54.2 104.133 57.1333 101.733 60.8667 101.733C63.2667 101.733 65.2667 102.133 65.2667 102.667ZM82.6 102.667C82.6 103.2 73.4 112.533 62.3333 123.333C44.7333 140.267 41.4 142.933 37.6667 143.067C35.2667 143.067 33.2667 142.667 33.2667 142C33.2667 141.467 42.4667 132.267 53.5333 121.467C71.1333 104.4 74.4667 101.867 78.3333 101.733C80.6 101.733 82.6 102.133 82.6 102.667ZM98.6 102.8C98.6 103.333 89.6667 112.667 78.8667 123.467C60.2 142 58.8667 143.067 53.8 143.067H48.6L68.6 123.067C84.0667 107.6 89.4 103.067 92.4667 102.667C94.7333 102.4 97 102 97.6667 102C98.2 101.867 98.6 102.267 98.6 102.8ZM95.2667 123.067C76.0667 142.267 75.1333 143.067 69.9333 143.067L64.6 142.933L85.1333 123.067C103.8 104.8 106.067 103.067 110.467 103.067H115.267L95.2667 123.067ZM112.6 123.067C93.5333 142.133 92.3333 143.067 87.2667 143.067H81.9333L101.933 123.067C121 104 122.2 103.067 127.267 103.067H132.6L112.6 123.067ZM128.6 123.067C109.533 142.133 108.333 143.067 103.267 143.067H97.9333L117.933 123.067C137 104 138.2 103.067 143.267 103.067H148.6L128.6 123.067ZM162.333 104.533C162.067 105.333 153.533 114.267 143.267 124.533C125.533 142.133 124.333 143.067 119.267 143.067H113.933L134.333 123.067C151.533 106.133 155.4 103.067 158.733 103.067C161.133 103.067 162.6 103.733 162.333 104.533ZM162.6 118.133C162.6 122 161.133 124 151.933 132.8C142.467 141.867 140.6 143.067 136.333 143.067H131.267L145.933 128.4C153.933 120.267 161 113.733 161.533 113.733C162.2 113.733 162.6 115.733 162.6 118.133ZM162.6 133.467C162.6 139.067 156.067 144.8 151.4 143.6L147.667 142.667L154.067 136.267C157.667 132.667 161 129.733 161.533 129.733C162.067 129.733 162.6 131.467 162.6 133.467Z" fill="black"/>
</svg>
