<svg width="180" height="180" viewBox="0 0 180 180" fill="none" xmlns="http://www.w3.org/2000/svg">
<rect x="0.1" y="0.1" width="179.8" height="179.8" fill="white" stroke="#CBCBCB" stroke-width="0.2"/>
<path d="M13.3333 40.8663C13.0667 45.133 12.6667 70.733 12.4 97.533L12 146.333L88.2667 147.266C130.267 147.8 164.667 148.066 164.933 147.8C165.067 147.533 165.733 122.066 166.133 90.9997L167.067 34.733H137.333C120.933 34.733 86.5333 34.333 60.8 33.7997L13.8667 32.9997L13.3333 40.8663ZM25.6 44.733C21.6 48.733 17.8667 52.0663 17.3333 52.0663C16.8 52.0663 16.2667 50.1997 16.2667 47.7997C16.2667 41.533 20.8 37.3997 27.4667 37.3997H32.8L25.6 44.733ZM48 38.4663C47.3333 40.0663 18.1333 68.0663 17.0667 68.0663C16.6667 68.0663 16.2667 66.0663 16.2667 63.533C16.2667 59.533 17.7333 57.6663 28 48.1997C37.6 39.2663 40.4 37.3997 44 37.3997C46.5333 37.3997 48.2667 37.933 48 38.4663ZM41.6 61.3997L16.9333 85.133L16.5333 80.5997C16.1333 76.333 17.2 74.8663 35.8667 56.733C54.6667 38.4663 55.8667 37.533 60.9333 37.533H66.2667L41.6 61.3997ZM77.6 40.5997C77.6 42.5997 75.6 45.533 72 48.733C68.8 51.533 55.3333 64.4663 42.1333 77.533C28.8 90.733 17.6 101.4 17.0667 101.4C16.6667 101.4 16.2667 99.3997 16.2667 96.8663C16.2667 92.733 18.6667 90.0663 44.5333 64.8663C60.1333 49.7997 73.8667 37.3997 75.2 37.3997C76.8 37.3997 77.6 38.4663 77.6 40.5997ZM114.933 38.333C114.933 39.6663 104 50.733 102.667 50.733C100.667 50.733 101.6 42.333 103.867 39.7997C105.867 37.533 114.933 36.333 114.933 38.333ZM130.933 38.4663C130.933 39.6663 103.867 66.733 102.533 66.733C102 66.733 101.6 64.733 101.6 62.1997C101.6 58.1997 103.067 56.333 112.4 47.533C120.667 39.6663 124 37.3997 127.067 37.3997C129.2 37.3997 130.933 37.7997 130.933 38.4663ZM148 39.3997C148.4 39.7997 104.267 81.933 102.8 82.4663C102.133 82.733 101.6 80.9997 101.6 78.4663C101.6 74.4663 103.6 72.1997 120.533 55.933C138 39.133 139.867 37.6663 143.6 38.333C145.867 38.733 147.733 39.2663 148 39.3997ZM162.933 39.933C162.933 40.5997 149.333 54.4663 132.667 70.733L102.267 100.333L101.867 95.533C101.467 90.9997 102.4 89.933 127.867 64.8663C151.067 41.933 154.8 38.8663 158.667 38.733C160.933 38.733 162.933 39.2663 162.933 39.933ZM162.933 52.4663C162.933 56.5997 160.133 59.7997 133.6 86.1997C117.333 102.2 103.6 115.533 102.933 115.8C102.133 116.066 101.6 114.2 101.6 111.666C101.6 107.266 103.867 104.866 131.867 77.533C148.4 61.2663 162.267 48.0663 162.533 48.0663C162.8 48.0663 162.933 50.0663 162.933 52.4663ZM77.6 54.8663C77.6 58.5997 74.1333 62.4663 48 87.933C31.8667 103.8 17.8667 116.733 17.0667 116.733C16.2667 116.733 15.7333 115 16 112.733C16.2667 109.533 21.8667 103.4 46 79.7997C62.2667 63.7997 76 50.733 76.6667 50.733C77.2 50.733 77.6 52.5997 77.6 54.8663ZM162.933 69.6663C162.933 73.533 159.733 77.133 132.667 103.533L102.267 133.133L101.867 128.466C101.467 124.066 102.533 122.733 131.2 94.733C147.6 78.5997 161.333 65.533 162 65.3997C162.533 65.3997 162.933 67.2663 162.933 69.6663ZM77.6 71.2663C77.6 75.3997 75.0667 78.1997 48.1333 104.2C32 119.933 17.8667 132.866 16.8 133.133C15.6 133.4 14.9333 132.333 14.9333 129.933C14.9333 127 20.4 121 45.3333 96.5997C62 80.1997 76 66.8663 76.6667 66.733C77.2 66.733 77.6 68.733 77.6 71.2663ZM162.933 85.933C162.933 90.0663 160.533 92.733 135.467 117.266C115.333 136.866 107.067 144.066 104.8 144.066C102.8 144.066 101.6 143.266 101.6 142.066C101.6 140.2 159.867 81.533 162 81.3997C162.533 81.3997 162.933 83.3997 162.933 85.933ZM77.6 87.2663C77.6 91.3997 75.3333 94.0663 51.4667 117.266C27.8667 140.2 24.9333 142.733 20.8 142.733C18.2667 142.733 16.2667 142.466 16.2667 142.2C16.2667 141.933 27.8667 130.333 41.8667 116.6C56 102.733 69.3333 89.533 71.6 87.133C76.6667 81.6663 77.6 81.6663 77.6 87.2663ZM162.933 102.6C162.933 105.8 159.6 109.666 144 125.266C125.867 143.133 124.667 144.066 119.6 143.933H114.267L137.333 121.4C150 108.866 160.933 98.733 161.6 98.733C162.4 98.733 162.933 100.466 162.933 102.6ZM77.6 104.333C77.6 107.933 75.3333 110.733 60.1333 125.266C50.4 134.466 41.6 142.466 40.4 142.866C39.2 143.266 36.8 143.266 35.0667 142.866C32.2667 142.066 34 140.066 53.7333 121C65.7333 109.533 76 100.066 76.6667 100.066C77.2 100.066 77.6 101.933 77.6 104.333ZM162.933 119C162.933 122.6 161.333 124.733 153.333 132.466C140.667 144.466 138.4 145.933 134.133 144.866C130.667 143.933 131.2 143.4 145.733 129.4C154.133 121.4 161.333 114.866 162 114.733C162.533 114.733 162.933 116.6 162.933 119ZM77.6 120.6C77.6 124.466 76.2667 126.333 67.3333 134.6C61.7333 139.8 56 144.066 54.8 144.066C48.2667 144.066 49.0667 142.333 62.1333 129.4C69.6 122.066 76 116.066 76.6667 116.066C77.2 116.066 77.6 118.066 77.6 120.6ZM162.933 135.533C162.933 140.2 157.333 145.4 152.267 145.4C150.133 145.4 148.267 145 148.267 144.466C148.267 142.733 160.667 130.866 161.867 131.533C162.4 131.933 162.933 133.666 162.933 135.533ZM77.6 136.466C77.6 138.866 76.9333 141.533 76 142.466C74.2667 144.2 65.6 144.733 65.6 143.133C65.6 141.8 75.2 132.066 76.5333 132.066C77.0667 132.066 77.6 134.066 77.6 136.466Z" fill="black"/>
</svg>
