<svg width="360" height="360" viewBox="0 0 360 360" fill="none" xmlns="http://www.w3.org/2000/svg">
<g clip-path="url(#clip0_18_678)">
<rect width="360" height="360" fill="white"/>
<rect x="0.1" y="0.1" width="179.8" height="179.8" fill="white" stroke="#8B8B8B" stroke-width="0.2"/>
<rect x="180.1" y="0.1" width="179.8" height="179.8" fill="white" stroke="#8B8B8B" stroke-width="0.2"/>
<rect x="0.1" y="180.1" width="179.8" height="179.8" fill="white" stroke="#8B8B8B" stroke-width="0.2"/>
<rect x="180.1" y="180.1" width="179.8" height="179.8" fill="white" stroke="#8B8B8B" stroke-width="0.2"/>
<path d="M264.909 279.909V279.636C264.939 276.742 265.242 274.439 265.818 272.727C266.394 271.015 267.212 269.629 268.273 268.568C269.333 267.508 270.606 266.53 272.091 265.636C272.985 265.091 273.788 264.447 274.5 263.705C275.212 262.947 275.773 262.076 276.182 261.091C276.606 260.106 276.818 259.015 276.818 257.818C276.818 256.333 276.47 255.045 275.773 253.955C275.076 252.864 274.144 252.023 272.977 251.432C271.811 250.841 270.515 250.545 269.091 250.545C267.848 250.545 266.652 250.803 265.5 251.318C264.348 251.833 263.386 252.644 262.614 253.75C261.841 254.856 261.394 256.303 261.273 258.091H255.545C255.667 255.515 256.333 253.311 257.545 251.477C258.773 249.644 260.386 248.242 262.386 247.273C264.402 246.303 266.636 245.818 269.091 245.818C271.758 245.818 274.076 246.348 276.045 247.409C278.03 248.47 279.561 249.924 280.636 251.773C281.727 253.621 282.273 255.727 282.273 258.091C282.273 259.758 282.015 261.265 281.5 262.614C281 263.962 280.273 265.167 279.318 266.227C278.379 267.288 277.242 268.227 275.909 269.045C274.576 269.879 273.508 270.758 272.705 271.682C271.902 272.591 271.318 273.674 270.955 274.932C270.591 276.189 270.394 277.758 270.364 279.636V279.909H264.909ZM267.818 293.364C266.697 293.364 265.735 292.962 264.932 292.159C264.129 291.356 263.727 290.394 263.727 289.273C263.727 288.152 264.129 287.189 264.932 286.386C265.735 285.583 266.697 285.182 267.818 285.182C268.939 285.182 269.902 285.583 270.705 286.386C271.508 287.189 271.909 288.152 271.909 289.273C271.909 290.015 271.72 290.697 271.341 291.318C270.977 291.939 270.485 292.439 269.864 292.818C269.258 293.182 268.576 293.364 267.818 293.364Z" fill="black"/>
<mask id="path-6-inside-1_18_678" fill="white">
<path fill-rule="evenodd" clip-rule="evenodd" d="M141.832 89.5L90.4162 42L39 89.5L90.4162 137L141.832 89.5Z"/>
</mask>
<path fill-rule="evenodd" clip-rule="evenodd" d="M141.832 89.5L90.4162 42L39 89.5L90.4162 137L141.832 89.5Z" fill="white"/>
<path d="M90.4162 42L93.1305 39.0619L90.4162 36.5543L87.7019 39.0619L90.4162 42ZM141.832 89.5L144.547 92.4381L147.727 89.5L144.547 86.5619L141.832 89.5ZM39 89.5L36.2857 86.5619L33.1053 89.5L36.2857 92.4381L39 89.5ZM90.4162 137L87.7019 139.938L90.4162 142.446L93.1305 139.938L90.4162 137ZM87.7019 44.9381L139.118 92.4381L144.547 86.5619L93.1305 39.0619L87.7019 44.9381ZM41.7143 92.4381L93.1305 44.9381L87.7019 39.0619L36.2857 86.5619L41.7143 92.4381ZM36.2857 92.4381L87.7019 139.938L93.1305 134.062L41.7143 86.5619L36.2857 92.4381ZM93.1305 139.938L144.547 92.4381L139.118 86.5619L87.7019 134.062L93.1305 139.938Z" fill="black" mask="url(#path-6-inside-1_18_678)"/>
<path d="M90.4162 42L93.1305 39.0619L90.4162 36.5543L87.7019 39.0619L90.4162 42ZM141.832 89.5L144.547 92.4381L147.727 89.5L144.547 86.5619L141.832 89.5ZM39 89.5L36.2857 86.5619L33.1053 89.5L36.2857 92.4381L39 89.5ZM90.4162 137L87.7019 139.938L90.4162 142.446L93.1305 139.938L90.4162 137ZM87.7019 44.9381L139.118 92.4381L144.547 86.5619L93.1305 39.0619L87.7019 44.9381ZM41.7143 92.4381L93.1305 44.9381L87.7019 39.0619L36.2857 86.5619L41.7143 92.4381ZM36.2857 92.4381L87.7019 139.938L93.1305 134.062L41.7143 86.5619L36.2857 92.4381ZM93.1305 139.938L144.547 92.4381L139.118 86.5619L87.7019 134.062L93.1305 139.938Z" fill="#030303" mask="url(#path-6-inside-1_18_678)"/>
<mask id="path-8-inside-2_18_678" fill="white">
<path fill-rule="evenodd" clip-rule="evenodd" d="M321.832 89.5L270.416 42L219 89.5L270.416 137L321.832 89.5Z"/>
</mask>
<path fill-rule="evenodd" clip-rule="evenodd" d="M321.832 89.5L270.416 42L219 89.5L270.416 137L321.832 89.5Z" fill="white"/>
<path d="M270.416 42L273.131 39.0619L270.416 36.5543L267.702 39.0619L270.416 42ZM321.832 89.5L324.547 92.4381L327.727 89.5L324.547 86.5619L321.832 89.5ZM219 89.5L216.286 86.5619L213.105 89.5L216.286 92.4381L219 89.5ZM270.416 137L267.702 139.938L270.416 142.446L273.131 139.938L270.416 137ZM267.702 44.9381L319.118 92.4381L324.547 86.5619L273.131 39.0619L267.702 44.9381ZM221.714 92.4381L273.131 44.9381L267.702 39.0619L216.286 86.5619L221.714 92.4381ZM216.286 92.4381L267.702 139.938L273.131 134.062L221.714 86.5619L216.286 92.4381ZM273.131 139.938L324.547 92.4381L319.118 86.5619L267.702 134.062L273.131 139.938Z" fill="black" mask="url(#path-8-inside-2_18_678)"/>
<rect x="44" y="224" width="91" height="91" fill="white" stroke="black" stroke-width="4"/>
<line x1="90.0115" y1="47.0003" x2="90" y2="134" stroke="#030303" stroke-width="4"/>
<line x1="90.0115" y1="47.0003" x2="90" y2="134" stroke="#030303" stroke-width="4"/>
<line x1="90.0115" y1="47.0003" x2="90" y2="134" stroke="#030303" stroke-width="4"/>
<line x1="138" y1="90" x2="45" y2="90" stroke="#030303" stroke-width="4"/>
<line x1="138" y1="90" x2="45" y2="90" stroke="#030303" stroke-width="4"/>
<line x1="138" y1="90" x2="45" y2="90" stroke="#030303" stroke-width="4"/>
<line x1="89" y1="224" x2="89" y2="315" stroke="#030303" stroke-width="4"/>
<line x1="89" y1="224" x2="89" y2="315" stroke="#030303" stroke-width="4"/>
<line x1="89" y1="224" x2="89" y2="315" stroke="#030303" stroke-width="4"/>
<line x1="133" y1="272" x2="42" y2="272" stroke="#030303" stroke-width="4"/>
<line x1="133" y1="272" x2="42" y2="272" stroke="#030303" stroke-width="4"/>
<line x1="133" y1="272" x2="42" y2="272" stroke="#030303" stroke-width="4"/>
</g>
<defs>
<clipPath id="clip0_18_678">
<rect width="360" height="360" fill="white"/>
</clipPath>
</defs>
</svg>
