<svg width="180" height="180" viewBox="0 0 180 180" fill="none" xmlns="http://www.w3.org/2000/svg">
<rect x="0.1" y="0.1" width="179.8" height="179.8" fill="white" stroke="#CBCBCB" stroke-width="0.2"/>
<mask id="path-2-inside-1_0_1" fill="white">
<path fill-rule="evenodd" clip-rule="evenodd" d="M141.832 89.5L90.4162 42L39 89.5L90.4162 137L141.832 89.5Z"/>
</mask>
<path fill-rule="evenodd" clip-rule="evenodd" d="M141.832 89.5L90.4162 42L39 89.5L90.4162 137L141.832 89.5Z" fill="white"/>
<path d="M90.4162 42L93.1305 39.0619L90.4162 36.5543L87.7019 39.0619L90.4162 42ZM141.832 89.5L144.547 92.4381L147.727 89.5L144.547 86.5619L141.832 89.5ZM39 89.5L36.2857 86.5619L33.1053 89.5L36.2857 92.4381L39 89.5ZM90.4162 137L87.7019 139.938L90.4162 142.446L93.1305 139.938L90.4162 137ZM87.7019 44.9381L139.118 92.4381L144.547 86.5619L93.1305 39.0619L87.7019 44.9381ZM41.7143 92.4381L93.1305 44.9381L87.7019 39.0619L36.2857 86.5619L41.7143 92.4381ZM36.2857 92.4381L87.7019 139.938L93.1305 134.062L41.7143 86.5619L36.2857 92.4381ZM93.1305 139.938L144.547 92.4381L139.118 86.5619L87.7019 134.062L93.1305 139.938Z" fill="black" mask="url(#path-2-inside-1_0_1)"/>
</svg>
