<svg width="540" height="540" viewBox="0 0 540 540" fill="none" xmlns="http://www.w3.org/2000/svg">
<rect x="0.1" y="0.1" width="179.8" height="179.8" fill="white" stroke="#CBCBCB" stroke-width="0.2"/>
<rect x="180.1" y="0.1" width="179.8" height="179.8" fill="white" stroke="#CBCBCB" stroke-width="0.2"/>
<rect x="360.1" y="0.1" width="179.8" height="179.8" fill="white" stroke="#CBCBCB" stroke-width="0.2"/>
<rect x="0.1" y="180.1" width="179.8" height="179.8" fill="white" stroke="#CBCBCB" stroke-width="0.2"/>
<rect x="180.1" y="180.1" width="179.8" height="179.8" fill="white" stroke="#CBCBCB" stroke-width="0.2"/>
<rect x="360.1" y="180.1" width="179.8" height="179.8" fill="white" stroke="#CBCBCB" stroke-width="0.2"/>
<rect x="0.1" y="360.1" width="179.8" height="179.8" fill="white" stroke="#CBCBCB" stroke-width="0.2"/>
<rect x="180.1" y="360.1" width="179.8" height="179.8" fill="white" stroke="#CBCBCB" stroke-width="0.2"/>
<rect x="360.1" y="360.1" width="179.8" height="179.8" fill="white" stroke="#CBCBCB" stroke-width="0.2"/>
<path d="M435.919 35.4669C435.919 38.8003 436.053 38.9336 443.653 38.1336C447.786 37.7336 453.786 37.4669 456.986 37.4669C461.653 37.3336 462.586 36.9336 462.586 34.6669C462.586 32.1336 461.653 32.0003 449.253 32.0003H435.919V35.4669Z" fill="black"/>
<path d="M477.252 34.667C477.252 37.067 478.186 37.3337 487.919 37.3337H498.586V48.0003C498.586 58.5337 498.586 58.667 501.919 58.667C504.986 58.667 505.252 58.267 505.252 52.267C505.252 48.8003 504.852 42.8003 504.452 38.9337L503.519 32.0003H490.452C478.186 32.0003 477.252 32.1337 477.252 34.667Z" fill="black"/>
<path d="M394.186 34.2673C393.919 34.934 393.919 41.2007 394.319 48.4007C394.853 59.6007 395.253 61.4673 397.119 61.0673C398.853 60.6673 399.386 58.4007 399.919 50.0007L400.586 39.334L410.986 38.934C420.186 38.534 421.253 38.2673 421.253 36.0007C421.253 33.4673 420.319 33.334 408.053 33.334C400.719 33.334 394.453 33.734 394.186 34.2673Z" fill="black"/>
<path d="M308.4 33.6745C297.733 34.0745 296.667 34.4745 296.667 36.7412C296.667 39.1412 297.6 39.4079 307.333 39.4079H318V50.0745C318 60.7412 318 60.7412 321.467 60.7412H325.067L324.267 51.6745C323.733 46.7412 323.333 40.4745 323.333 37.6745C323.333 34.4745 322.8 32.8745 321.733 33.0079C320.8 33.1412 314.8 33.5412 308.4 33.6745Z" fill="black"/>
<path d="M220.4 35.1419L214 35.5419V48.8752C214 61.1419 214.133 62.0752 216.667 62.0752C219.067 62.0752 219.333 61.1419 219.333 51.4085V40.7419H230C240.533 40.7419 240.667 40.7419 240.667 37.4085C240.667 33.6752 241.867 33.8085 220.4 35.1419Z" fill="black"/>
<path d="M255.6 37.0083C255.867 39.1416 256.933 40.075 259.067 39.9416C260.667 39.9416 266.533 39.8083 272 39.675C281.067 39.4083 282 39.1416 282 36.7416C282 34.2083 281.067 34.075 268.533 34.075C255.467 34.075 255.2 34.075 255.6 37.0083Z" fill="black"/>
<path d="M117.2 36.9996C115.6 40.9996 118.133 42.0663 127.467 41.133C132.4 40.733 136.8 40.8663 137.2 41.533C137.6 42.1996 138.133 46.733 138.267 51.533C138.533 61.3996 139.467 63.7996 142.533 62.5996C144.933 61.6663 145.2 58.1996 143.733 43.933L142.933 34.9996H130.4C120.667 34.9996 117.733 35.3996 117.2 36.9996Z" fill="black"/>
<path d="M34 50.333C34 63.3997 34.1333 64.333 36.6667 64.333C39.0667 64.333 39.3333 63.3997 39.3333 52.9997V41.6663H50C59.7333 41.6663 60.6667 41.3997 60.6667 38.9997C60.6667 36.4663 59.7333 36.333 47.3333 36.333H34V50.333Z" fill="black"/>
<path d="M75.3333 38.9993C75.3333 41.5327 76.2666 41.666 88.6666 41.666C101.067 41.666 102 41.5327 102 38.9993C102 36.466 101.067 36.3327 88.6666 36.3327C76.2666 36.3327 75.3333 36.466 75.3333 38.9993Z" fill="black"/>
<path d="M264.667 66.3413C261.067 72.208 260.533 84.7413 263.467 90.3413C264.533 92.208 264.133 92.8747 261.067 93.5413C251.2 95.808 240.667 105.008 240.667 111.408C240.667 114.075 241.067 114.208 247.067 113.275C254.933 112.208 260.267 109.541 265.067 104.341L268.8 100.341L273.067 104.341C275.467 106.475 278.8 109.275 280.667 110.475C284.8 113.275 296.4 113.541 297.467 110.875C299.467 105.808 285.067 94.0747 276.933 94.0747C272.8 94.0747 272.4 93.808 273.333 91.008C275.733 83.808 275.6 74.3413 272.8 68.208C271.333 64.8747 269.467 62.0747 268.667 62.0747C268 62.0747 266.133 64.0747 264.667 66.3413ZM270.533 71.6747C271.6 75.6747 271.6 85.2747 270.533 87.9413C267.867 94.8747 263.6 81.6747 265.867 73.808C267.6 68.0747 269.333 67.2747 270.533 71.6747ZM264.667 98.208C264.667 102.208 248.667 111.941 246.267 109.408C244.8 107.941 250.267 102.208 255.6 99.5413C262 96.4747 264.667 96.0747 264.667 98.208ZM283.333 99.5413C284.4 100.075 287.067 102.341 289.2 104.608L293.2 108.741H289.2C283.067 108.741 271.733 100.741 273.467 97.808C274.133 96.7413 279.867 97.6747 283.333 99.5413Z" fill="black"/>
<path d="M447.253 65.6001C446.853 66.5335 446.453 71.2001 446.319 76.0001L445.919 84.6668L436.319 85.0668C427.653 85.4668 426.586 85.7335 426.586 88.0001C426.586 90.4001 427.519 90.6668 436.586 90.6668H446.586L446.719 96.2668C446.853 99.4668 446.853 103.2 446.719 104.667C446.453 108.667 448.586 111.2 451.253 110.133C453.253 109.467 453.519 107.867 452.986 100C452.453 89.3335 452.186 89.6001 464.453 89.4668C473.253 89.3335 473.919 89.0668 472.853 86.0001C472.186 84.4001 469.786 84.0001 461.919 84.0001H451.786L452.053 80.2668C452.853 70.6668 451.919 64.0001 449.919 64.0001C448.719 64.0001 447.519 64.8001 447.253 65.6001Z" fill="black"/>
<path d="M498.986 82.2676C499.519 87.3343 499.919 93.3343 499.919 95.601C499.919 99.0676 500.453 100.001 502.586 100.001C505.119 100.001 505.253 99.0676 505.253 86.6676V73.3343H501.786H498.186L498.986 82.2676Z" fill="black"/>
<path d="M394.586 88.1341C394.586 100.801 394.719 101.467 397.253 101.067C398.853 100.801 400.053 100.267 399.919 99.6007C399.919 99.0674 399.919 93.2007 399.919 86.6674C399.919 75.6007 399.786 74.6674 397.253 74.6674C394.719 74.6674 394.586 75.6007 394.586 88.1341Z" fill="black"/>
<path d="M319.067 77.0085C318.8 77.9419 318.8 83.9419 319.067 90.3419C319.467 100.875 319.733 102.075 322.133 102.075C324.4 102.075 324.667 101.009 324.667 88.7419C324.667 76.6085 324.4 75.4085 322.133 75.4085C320.8 75.4085 319.333 76.2085 319.067 77.0085Z" fill="black"/>
<path d="M214 89.4076C214 99.8076 214.4 102.341 216.133 103.008C219.867 104.341 220.533 101.674 219.733 89.0076C219.067 78.2076 218.667 76.741 216.533 76.741C214.267 76.741 214 77.941 214 89.4076Z" fill="black"/>
<path d="M79.7333 80.9991C75.3333 85.3991 75.0666 86.1991 75.7333 91.9324C77.4666 107.799 97.3333 110.999 103.333 96.4657C107.333 86.8657 100.133 76.3324 89.7333 76.3324C85.4666 76.3324 83.4666 77.2657 79.7333 80.9991Z" fill="black"/>
<path d="M139.333 89.3997C139.333 103.133 139.733 104.6 142.8 103.4C144.267 102.866 144.667 99.6664 144.667 89.5331C144.667 77.2664 144.533 76.3331 142 76.3331C139.467 76.3331 139.333 77.2664 139.333 89.3997Z" fill="black"/>
<path d="M34.5333 79.399C34.1333 80.4657 34 86.599 34.2667 93.1324C34.6667 103.932 34.9333 104.999 37.3333 104.999C39.7333 104.999 40 104.199 39.8667 96.999C39.6 79.1324 39.4667 77.6657 37.3333 77.6657C36.1333 77.6657 34.9333 78.4657 34.5333 79.399Z" fill="black"/>
<path d="M499.919 125.333V136H489.119C478.719 136 478.453 136.133 478.853 138.933C479.253 141.733 479.919 142 488.586 142.133C493.786 142.267 499.919 142 502.319 141.733C506.586 141.067 506.586 140.933 506.053 134.8C505.653 131.467 505.386 125.467 505.386 121.6C505.253 115.6 504.853 114.667 502.586 114.667C500.186 114.667 499.919 115.6 499.919 125.333Z" fill="black"/>
<path d="M395.119 117.868C394.719 118.934 394.719 122.534 395.119 125.601C395.519 128.801 395.786 134.134 395.786 137.601L395.919 144.001H405.119C418.186 144.001 422.586 142.934 422.586 139.734C422.586 137.201 421.786 137.068 412.319 137.468L401.919 138.001L401.253 127.334C400.719 118.534 400.186 116.668 398.186 116.268C396.986 116.001 395.519 116.668 395.119 117.868Z" fill="black"/>
<path d="M319.333 127.408V137.942L309.067 138.342C299.733 138.742 298.667 139.008 298.667 141.408C298.667 143.808 299.6 144.075 307.733 144.075C312.667 144.208 318.8 143.942 321.467 143.675L326.133 143.142L325.467 134.875C325.067 130.475 324.8 124.475 324.8 121.675C324.667 117.675 324.133 116.742 322 116.742C319.6 116.742 319.333 117.675 319.333 127.408Z" fill="black"/>
<path d="M215.333 131.942V146.075H226.8C239.067 146.075 243.733 144.609 242.4 141.275C241.733 139.542 239.733 139.275 231.467 139.675L221.333 140.075L220.667 129.409C220.133 120.609 219.6 118.742 217.733 118.342C215.6 117.942 215.333 119.275 215.333 131.942Z" fill="black"/>
<path d="M139.467 129.266L140 139.666L129.6 140.333C124 140.733 119.333 141.399 119.333 141.933C119.333 142.599 119.333 143.533 119.333 144.333C119.333 145.133 124.667 145.666 132.667 145.666H146V141.266C146 138.999 145.6 132.999 145.067 127.933C144.4 120.199 143.867 118.999 141.733 118.999C139.2 118.999 139.067 119.799 139.467 129.266Z" fill="black"/>
<path d="M34.5333 124.466C34.9333 126.732 35.3333 132.732 35.3333 137.799V146.999H48.3999C55.5999 146.999 61.8666 146.599 62.2666 146.199C62.6666 145.799 62.7999 144.466 62.3999 143.266C61.9999 141.399 60.1333 140.999 51.5999 140.999H41.3333L40.9333 130.599C40.5333 120.599 40.5333 120.332 37.0666 120.332C33.9999 120.332 33.7333 120.732 34.5333 124.466Z" fill="black"/>
<path d="M447.652 136.934C438.319 137.334 437.252 137.734 437.252 140C437.252 142.534 438.186 142.667 450.586 142.667H463.919V139.334C463.919 136.667 463.252 136 460.986 136.267C459.252 136.4 453.252 136.8 447.652 136.934Z" fill="black"/>
<path d="M269.733 139.008C257.733 139.408 256.667 139.675 256.667 142.075C256.667 144.608 257.6 144.741 270 144.741H283.333V141.408C283.333 139.541 283.2 138.208 283.067 138.341C282.8 138.475 276.8 138.875 269.733 139.008Z" fill="black"/>
<path d="M77.6 141.133C77.0666 141.666 76.6666 143.266 76.6666 144.599C76.6666 146.866 77.7333 146.999 90.4 146.733C102.933 146.333 104 146.199 104 143.666C104 141.266 102.933 140.999 91.3333 140.599C84.2666 140.466 78.1333 140.599 77.6 141.133Z" fill="black"/>
<path d="M450.2 215.302C427.133 215.702 405.667 216.235 402.6 216.369L397 216.502L397.667 269.435C398.067 298.635 398.733 323.302 399 324.369C399.533 325.835 403 326.102 419.267 325.302C430.067 324.902 452.067 324.369 468.2 324.369C484.333 324.235 500.2 323.835 503.4 323.435L509.267 322.902L508.467 271.969C507.933 244.102 507.533 219.569 507.533 217.435C507.533 213.835 507.4 213.835 499.933 214.102C495.667 214.235 473.267 214.769 450.2 215.302ZM502.2 241.435C502.2 253.035 502.6 274.902 503.133 290.102L503.933 317.835L500.733 317.969C432.733 319.702 405.4 320.102 404.6 319.302C404.067 318.902 403.533 296.902 403.4 270.502L403.267 222.502L421 221.835C430.867 221.435 453.133 220.902 470.6 220.769L502.2 220.502V241.435Z" fill="black"/>
<path d="M443.8 258.502C434.733 266.102 438.2 280.502 450.067 283.568C461.8 286.502 471.533 274.635 466.733 263.302C463.133 254.768 451.267 252.235 443.8 258.502Z" fill="black"/>
<path d="M317 214.566C316.733 214.7 299.533 214.966 278.733 215.233C257.8 215.366 234.467 215.766 226.867 216.3L213 216.966L213.4 262.3C213.533 287.233 213.8 309.1 214.067 310.966C214.333 312.833 214.6 316.833 214.6 319.9L214.733 325.366L263.8 324.833C290.733 324.433 315.267 323.9 318.467 323.5L324.2 322.833L323.8 282.566C323.667 260.433 323.267 235.9 323 228.033C322.6 214.833 322.333 213.766 319.933 214.033C318.467 214.166 317.133 214.3 317 214.566ZM317.4 241.233C317.4 252.833 317.8 274.7 318.333 289.766L319.133 317.366L291.933 318.166C277 318.566 254.733 319.1 242.467 319.366L220.2 319.633L219.8 308.966C219.4 303.1 219.133 281.1 219 260.033L218.6 221.766L230.333 221.366C236.867 221.1 259 220.833 279.8 220.566L317.4 220.166V241.233Z" fill="black"/>
<path d="M265.4 256.966V266.833L255.8 267.233C247.133 267.633 246.067 267.9 246.067 270.3C246.067 272.7 246.867 272.966 255.8 272.566L265.4 272.033V282.166C265.4 292.166 265.4 292.3 268.867 292.3C272.2 292.3 272.2 292.033 272.067 283.9C271.933 279.366 271.933 274.833 271.933 273.9C272.067 272.833 275 272.3 282.067 272.3C291.133 272.3 292.067 272.033 292.067 269.633C292.067 267.366 291 267.1 281.8 266.7L271.4 266.3L271 256.566C270.6 248.033 270.333 246.966 268.067 246.966C265.667 246.966 265.4 247.9 265.4 256.966Z" fill="black"/>
<path d="M77.4667 215.934L34 216.334L34.5333 269.4C34.9333 298.467 35.3333 323.134 35.7333 324.2C36.2667 325.8 44.5333 325.934 90.5333 325.134C120.4 324.6 145.067 324.067 145.333 323.8C146 323 145.733 272.334 144.8 242.6L143.867 215L132.4 215.267C126.133 215.534 101.333 215.8 77.4667 215.934ZM139.467 269.4C140 296.067 140.4 318.067 140.133 318.2C139.867 318.467 117.467 318.867 90.2667 319.134L40.9333 319.667L40.5333 270.734L40.2667 221.667L85.2 221.267C110 221.134 132.133 220.867 134.267 221H138.267L139.467 269.4Z" fill="black"/>
<path d="M84.2667 249.934C81.2 256.734 80.9333 264.067 83.4667 270.334L85.4667 275H81.7333C77.3333 275 66.4 282.067 62.5333 287.267C54.1333 298.467 75.2 296.867 85.6 285.534L89.4667 281.134L92.4 284.734C97.4667 291.4 113.067 296.867 117.2 293.534C121.6 289.8 108.533 277 98.6667 275.534C94.1333 274.734 93.6 274.334 94.5333 271.8C96.2667 267 95.4667 253.134 93.0667 248.6C90.1333 242.867 87.3333 243.267 84.2667 249.934ZM92.1333 261.667C92.2667 267.134 91.0667 272.334 89.6 272.334C88 272.334 85.6 265.667 85.6 261C85.6 258.6 86.2667 254.867 87.0667 252.734L88.5333 249L90.4 253C91.3333 255.134 92.1333 259.134 92.1333 261.667ZM84.2667 281.534C81.4667 286.867 64.2667 294.334 65.8667 289.534C67.0667 286.067 77.6 279 81.7333 279C85.2 279 85.4667 279.267 84.2667 281.534ZM107.6 283.667C112.933 287.667 113.467 289.667 109.6 289.667C105.2 289.667 98.5333 286.334 94.9333 282.334L91.6 278.6L97.3333 279.4C100.533 279.8 105.067 281.667 107.6 283.667Z" fill="black"/>
<path d="M244.867 396.667L215 397.334L215.267 430C215.267 448 215.8 472 216.2 483.467L217.133 504.134L261.267 503.734C285.533 503.467 309.133 503.067 313.8 502.934L322.2 502.667L322.067 453.334C321.933 426.134 321.667 402.134 321.533 400L321.267 396H297.933C285.267 396 261.267 396.267 244.867 396.667ZM309.4 449.867V490.267L269.267 490.934L229.133 491.734L228.333 469.334C227.8 456.934 227.4 438.667 227.4 428.534V410.134L234.467 409.734C238.2 409.467 256.733 409.2 275.4 409.334H309.4V449.867Z" fill="black"/>
<path d="M233.267 415.467C232.867 416.267 232.867 432.534 233.4 451.6L234.333 486.4L267.267 485.6C285.267 485.067 301.133 484.667 302.467 484.667C304.6 484.667 304.733 482.534 304.733 457.467C304.733 442.667 304.333 426.667 303.933 422.134L303 414H268.6C245.267 414 233.933 414.4 233.267 415.467ZM298.6 424.267C299 427.067 299.4 440.534 299.4 454.267V479.334H276.467C263.8 479.334 250.333 479.734 246.6 480.134L239.8 480.934L238.733 451.6C238.2 435.467 238.2 421.6 238.733 420.8C239.267 419.867 249.4 419.334 268.6 419.334H297.667L298.6 424.267Z" fill="black"/>
<path d="M260.333 438.001C256.333 441.067 254.067 447.867 255 453.201C255.4 455.067 257.8 458.401 260.333 460.667C266.467 466.134 272.333 466.001 278.733 460.534C282.867 456.801 283.4 455.734 283.4 449.734C283.4 444.267 282.733 442.534 279.533 439.201C274.6 434.267 265.667 433.734 260.333 438.001Z" fill="black"/>
<path d="M50.1899 397.933C34.5899 398.467 34.4565 398.467 35.2565 401.4C35.6565 403.133 36.0565 421 36.3232 441.133C36.4565 461.267 36.8565 483.8 37.1232 491.267L37.5232 505H62.5899C76.3232 505 100.457 504.6 116.057 504.067L144.457 503.267L143.657 462.467C143.123 440.067 142.723 416.067 142.723 409.267V397L104.457 397.267C83.2565 397.4 58.9899 397.8 50.1899 397.933ZM130.723 431.933C130.723 444.6 131.123 463.133 131.657 473.133L132.457 491.267L91.2565 491.933C68.5899 492.333 49.9232 492.467 49.6565 492.2C49.3899 492.067 48.8565 473.533 48.4565 451.133L47.6565 410.333L80.8565 409.933C99.1232 409.8 117.79 409.533 122.457 409.267L130.723 409V431.933Z" fill="black"/>
<path d="M82.1899 415.266L52.9899 415.666L53.7899 450.733C54.3232 469.933 54.7232 485.799 54.7232 486.066C54.7232 486.199 70.4565 486.199 89.7899 486.066L124.723 485.666V450.333V414.999H118.057C114.457 414.866 98.1899 415.133 82.1899 415.266ZM118.99 425.933C119.39 429.533 119.79 443.266 119.923 456.599L120.19 480.999H90.1899H60.3232L59.7899 471.266C59.5232 466.066 59.1232 452.466 58.9899 441.399L58.5899 420.999L81.6565 420.599C94.3232 420.466 107.79 420.066 111.523 419.933L118.457 419.666L118.99 425.933Z" fill="black"/>
<path d="M86.7231 437.666V447.666H76.5898C66.9898 447.666 66.5898 447.799 66.9898 450.599C67.3898 453.799 66.9898 453.666 83.6565 454.199C86.3231 454.333 86.5898 455.133 86.9898 463.933C87.2565 471.799 87.7898 473.666 89.6565 474.066C91.6565 474.466 92.0565 473.133 92.3231 464.066L92.7231 453.666L102.456 453.266C110.99 452.866 112.056 452.599 112.056 450.333C112.056 447.933 111.123 447.666 102.056 447.666H92.0565V437.666C92.0565 428.599 91.7898 427.666 89.3898 427.666C86.9898 427.666 86.7231 428.599 86.7231 437.666Z" fill="black"/>
<path d="M443.909 463.909V463.636C443.939 460.742 444.242 458.439 444.818 456.727C445.394 455.015 446.212 453.629 447.273 452.568C448.333 451.508 449.606 450.53 451.091 449.636C451.985 449.091 452.788 448.447 453.5 447.705C454.212 446.947 454.773 446.076 455.182 445.091C455.606 444.106 455.818 443.015 455.818 441.818C455.818 440.333 455.47 439.045 454.773 437.955C454.076 436.864 453.144 436.023 451.977 435.432C450.811 434.841 449.515 434.545 448.091 434.545C446.848 434.545 445.652 434.803 444.5 435.318C443.348 435.833 442.386 436.644 441.614 437.75C440.841 438.856 440.394 440.303 440.273 442.091H434.545C434.667 439.515 435.333 437.311 436.545 435.477C437.773 433.644 439.386 432.242 441.386 431.273C443.402 430.303 445.636 429.818 448.091 429.818C450.758 429.818 453.076 430.348 455.045 431.409C457.03 432.47 458.561 433.924 459.636 435.773C460.727 437.621 461.273 439.727 461.273 442.091C461.273 443.758 461.015 445.265 460.5 446.614C460 447.962 459.273 449.167 458.318 450.227C457.379 451.288 456.242 452.227 454.909 453.045C453.576 453.879 452.508 454.758 451.705 455.682C450.902 456.591 450.318 457.674 449.955 458.932C449.591 460.189 449.394 461.758 449.364 463.636V463.909H443.909ZM446.818 477.364C445.697 477.364 444.735 476.962 443.932 476.159C443.129 475.356 442.727 474.394 442.727 473.273C442.727 472.152 443.129 471.189 443.932 470.386C444.735 469.583 445.697 469.182 446.818 469.182C447.939 469.182 448.902 469.583 449.705 470.386C450.508 471.189 450.909 472.152 450.909 473.273C450.909 474.015 450.72 474.697 450.341 475.318C449.977 475.939 449.485 476.439 448.864 476.818C448.258 477.182 447.576 477.364 446.818 477.364Z" fill="black"/>
</svg>
