<svg width="180" height="180" viewBox="0 0 180 180" fill="none" xmlns="http://www.w3.org/2000/svg">
<rect x="0.1" y="0.1" width="179.8" height="179.8" fill="white" stroke="#CBCBCB" stroke-width="0.2"/>
<path d="M84.0054 36.3335C58.0054 36.7335 36.4054 37.2669 36.1387 37.4002C35.8721 37.4002 36.0054 59.5335 36.4054 86.4669C36.9387 113.534 37.3387 137.534 37.3387 139.8V144.2H52.4054C60.8054 144.2 84.8054 143.8 106.005 143.267L144.405 142.467L143.605 95.0002C143.072 68.8669 142.672 44.7335 142.672 41.2669V35.0002L137.072 35.2669C133.872 35.4002 110.005 35.9335 84.0054 36.3335ZM130.939 79.1335C131.072 96.2002 131.205 114.734 131.205 120.2L131.339 130.2L91.3387 130.867C69.3387 131.267 50.9387 131.267 50.4054 130.867C49.8721 130.467 49.0721 112.067 48.5387 89.9335L47.6054 49.5335L70.8054 49.2669C83.6054 49.0002 102.272 48.7335 112.405 48.4669L130.672 48.0669L130.939 79.1335Z" fill="black"/>
<path d="M61.6054 54.6003L53.072 55.0003L53.872 69.267C54.272 77.1337 54.5387 93.0003 54.5387 104.6L54.672 125.667L89.072 125.534C108.005 125.4 124.005 125 124.672 124.467C125.472 123.934 126.005 120.467 125.872 116.867C125.739 113.134 125.605 97.4003 125.472 81.8003L125.339 53.4003L97.7387 53.8003C82.4054 54.067 66.1387 54.3337 61.6054 54.6003ZM119.739 89.8003L120.005 120.2H90.0054H60.0054L59.872 97.1337C59.872 84.6003 59.6054 71.1337 59.2054 67.267L58.5387 60.3337L74.272 59.8003C82.9387 59.5337 96.672 59.4003 104.672 59.4003L119.339 59.5337L119.739 89.8003Z" fill="black"/>
<path d="M82.8054 76.7333C73.6054 81.7999 73.8721 98.3333 83.3387 102.6C89.4721 105.4 95.6054 104.6 100.272 100.333C104.139 96.8666 104.672 95.6666 104.672 89.5333C104.672 83.3999 104.139 82.1999 100.272 78.7333C95.4721 74.4666 88.4054 73.6666 82.8054 76.7333Z" fill="black"/>
</svg>
