<svg width="180" height="180" viewBox="0 0 180 180" fill="none" xmlns="http://www.w3.org/2000/svg">
<rect x="0.1" y="0.1" width="179.8" height="179.8" fill="white" stroke="#CBCBCB" stroke-width="0.2"/>
<path d="M100.933 34.7995C80 35.3328 56.4 35.8662 48.4 35.9995L34 36.1328L34.9333 90.3995C35.4667 120.4 36.2667 145.066 36.8 145.466C37.7333 146.4 144.667 144.8 145.6 144C145.867 143.6 145.733 118.8 145.2 88.7995C144.267 35.3328 144.267 34.1328 141.6 33.9995C140.133 33.9995 121.867 34.3995 100.933 34.7995ZM138.533 49.7328C138.933 55.0662 139.2 77.1995 139.467 98.9328L139.733 138.4L116.667 139.2C104 139.733 81.7333 140.133 67.3333 140.133H40.9333V111.733C40.9333 96.2662 40.5333 73.9995 40 62.5328L39.2 41.4662L61.7333 41.0662C74.1333 40.9328 96.4 40.5328 111.2 40.3995L138 40.1328L138.533 49.7328Z" fill="black"/>
<path d="M87.3331 64.6674C82.5331 69.3341 81.0664 82.2674 84.2664 91.6008C85.0664 94.1341 84.5331 94.5341 79.5998 95.3341C72.7998 96.4008 60.9331 106.667 60.9331 111.601C60.9331 114.401 61.5998 114.801 65.9998 114.801C72.6664 114.667 80.9331 110.801 85.4664 105.467L89.1998 101.067L91.9998 104.401C96.1331 109.201 100.533 111.734 107.866 113.334C119.333 116.001 121.6 111.734 113.333 103.467C107.866 98.1341 101.466 94.8008 96.5331 94.8008H93.3331L95.3331 88.6674C96.9331 83.7341 97.0664 81.3341 95.7331 75.7341C94.9331 71.8674 93.0664 67.3341 91.7331 65.7341C89.5998 62.8008 89.1998 62.6674 87.3331 64.6674ZM92.7998 81.4674C92.7998 84.0008 91.9998 87.6008 90.9331 89.4674L89.1998 92.8008L87.4664 88.8008C85.3331 83.6008 85.4664 76.1341 87.5998 72.0008L89.3331 68.8008L91.0664 72.8008C91.9998 74.9341 92.7998 78.9341 92.7998 81.4674ZM84.9331 100.001C84.9331 104.001 67.9998 113.067 65.4664 110.401C64.5331 109.601 69.7331 104.534 74.9331 101.334C79.1998 98.6674 84.9331 98.0008 84.9331 100.001ZM107.066 103.067C112.533 106.934 114.8 110.801 111.466 110.801C108 110.801 96.7998 104.934 94.9331 102.001C92.9331 98.8008 92.9331 98.8008 97.0664 98.8008C99.5998 98.8008 103.466 100.401 107.066 103.067Z" fill="black"/>
</svg>
