<svg width="180" height="180" viewBox="0 0 180 180" fill="none" xmlns="http://www.w3.org/2000/svg">
<rect x="0.1" y="0.1" width="179.8" height="179.8" fill="white" stroke="#CBCBCB" stroke-width="0.2"/>
<path d="M87.0667 35.0659C76.8001 35.3326 75.3334 35.7326 75.7334 37.7326C76.1334 39.5992 78.1334 39.9992 89.2001 40.3992C101.2 40.7992 102.133 40.5326 102.133 38.1326C102.133 34.7992 100.933 34.5326 87.0667 35.0659Z" fill="black"/>
<path d="M118.4 36.9333C118.8 39.8667 119.467 40 128.8 40H138.8L139.2 50.9333C139.6 60.9333 139.867 62 142.133 62C144.667 62 144.8 61.0667 144.8 48V34H131.333C118.267 34 118 34 118.4 36.9333Z" fill="black"/>
<path d="M34.4 48.9327C34.6667 60.1327 35.2 62.666 36.8 62.666C38.4 62.666 38.9333 60.3993 39.2 51.5993L39.6 40.666H50.1333C59.8667 40.666 60.8 40.3993 60.8 37.9993C60.8 35.466 59.8667 35.3327 47.4667 35.3327H34L34.4 48.9327Z" fill="black"/>
<path d="M85.2 66.9333C82.5333 70.9333 81.8666 85.0667 84 91.6C85.0666 95.2 84.8 95.3333 80.9333 95.3333C75.3333 95.3333 70.1333 98.1333 64.9333 104C59.2 110.533 59.3333 114 65.4666 114C72 114 79.2 110.667 84.9333 105.2L89.7333 100.533L92 103.867C95.0666 108.533 104 112.933 111.333 113.2C119.067 113.333 119.867 110.8 114 104C109.067 98.4 104.8 96 97.7333 94.6667C93.4666 93.8667 93.0666 93.3333 94.1333 91.3333C96.5333 86.8 95.7333 72.4 92.8 67.6C89.6 62.4 88.2666 62.2667 85.2 66.9333ZM92 75.7333C93.3333 81.2 91.7333 90.1333 89.3333 90.9333C87.7333 91.4667 84.6666 81.6 85.4666 78.8C85.7333 78 86.2666 75.6 86.8 73.6C87.8666 68.5333 90.5333 69.7333 92 75.7333ZM83.6 101.867C80.8 105.733 72.2666 110 67.2 110C64.4 110 64.4 110 67.6 106.533C72.2666 101.467 78.2666 98 82.5333 98H86.2666L83.6 101.867ZM103.2 99.8667C107.6 102.133 113.6 108.4 112.4 109.467C110 111.867 96.6666 105.467 94.1333 100.8C92.9333 98.2667 93.0666 98 96.1333 98C98 98 101.2 98.8 103.2 99.8667Z" fill="black"/>
<path d="M139.733 88.9333C140.133 102.133 140.267 102.667 143.2 103.067C146.267 103.467 146.267 103.467 145.867 89.7333C145.467 76.5333 145.333 76 142.4 75.6C139.333 75.2 139.333 75.2 139.733 88.9333Z" fill="black"/>
<path d="M35.0667 77.5994C34.8 78.1327 34.8 84.5327 35.2 91.5993C35.7334 103.333 36 104.666 38.4 104.666C40.6667 104.666 40.8 103.733 40.5334 91.066C40.1334 79.5994 39.7334 77.3327 37.8667 76.9327C36.6667 76.666 35.4667 77.066 35.0667 77.5994Z" fill="black"/>
<path d="M140.533 127.599L140.133 138.666L130.133 138.799C120.933 138.799 120.133 139.066 119.733 141.733C119.333 144.533 119.6 144.666 132.8 144.666H146.267L145.867 131.066C145.467 119.333 145.067 117.333 143.2 116.933C141.2 116.533 140.8 117.999 140.533 127.599Z" fill="black"/>
<path d="M35.7334 131.6L36.1334 145.333L46.1334 145.733C58.6667 146.266 62.1334 145.466 62.1334 142C62.1334 139.6 61.2 139.333 51.4667 139.333H40.8V128.666C40.8 118.8 40.5334 118 38.1334 118C35.4667 118 35.3334 118.666 35.7334 131.6Z" fill="black"/>
<path d="M78.1334 141.999C78.1334 144.533 79.0668 144.666 91.4668 144.666C103.867 144.666 104.8 144.533 104.8 141.999C104.8 139.466 103.867 139.333 91.4668 139.333C79.0668 139.333 78.1334 139.466 78.1334 141.999Z" fill="black"/>
</svg>
