<svg width="180" height="180" viewBox="0 0 180 180" fill="none" xmlns="http://www.w3.org/2000/svg">
<rect x="0.1" y="0.1" width="179.8" height="179.8" fill="white" stroke="#CBCBCB" stroke-width="0.2"/>
<path d="M41.0667 37.4005L36 37.9338L36.9333 90.2005C37.4667 119 38.2667 142.867 38.6667 143.267C39.2 143.8 63.2 143.8 92.1333 143.534L144.533 142.734L144 89.9338L143.467 37.1338L94.9333 37.0005C68.1333 37.0005 44 37.1338 41.0667 37.4005ZM131.6 78.0672C132 94.4672 132.267 112.867 132 119.134L131.6 130.467L90.6667 130.867L49.6 131.134V116.2C49.6 107.934 49.2 89.5338 48.6667 75.5338L47.8667 49.8005L77.7333 49.4005C94.1333 49.2672 112.8 49.0005 119.067 48.7338L130.667 48.4671L131.6 78.0672Z" fill="black"/>
<path d="M54.6666 56.0674C54.3999 56.7341 54.3999 72.6008 54.6666 91.4008L55.1999 125.801H90.2666C112.933 125.801 125.733 125.267 126.267 124.467C126.8 123.667 126.667 107.801 126.133 89.1341L125.2 55.1341H90.1332C70.9332 55.1341 54.9332 55.5341 54.6666 56.0674ZM120.267 68.0674C120.267 72.3341 120.667 85.8008 121.067 98.0674L121.867 120.467H91.1999H60.5332L59.9999 91.4008C59.5999 75.5341 59.5999 62.0674 59.8666 61.4008C60.1332 60.8674 73.8666 60.4674 90.3999 60.4674H120.267V68.0674Z" fill="black"/>
<path d="M87.8666 67.9341C87.3333 68.4675 86.9333 73.2675 86.9333 78.4675V88.2008H77.4666C67.2 88.3341 66.2666 88.6008 67.3333 91.8008C68 93.4008 70.4 93.8008 78.4 93.8008H88.5333L88.2666 101.401C87.8666 113.001 88 113.801 90.9333 113.801C93.3333 113.801 93.6 112.867 93.6 103.801V93.8008H100.667C110.133 93.8008 113.6 92.6008 113.6 89.6674C113.6 87.4008 112.533 87.1341 103.6 87.1341H93.7333L93.3333 77.5341C93.0666 70.0675 92.4 67.8008 90.9333 67.4008C89.7333 67.2675 88.4 67.4008 87.8666 67.9341Z" fill="black"/>
</svg>
