<svg width="180" height="180" viewBox="0 0 180 180" fill="none" xmlns="http://www.w3.org/2000/svg">
<rect x="0.1" y="0.1" width="179.8" height="179.8" fill="white" stroke="#CBCBCB" stroke-width="0.2"/>
<path d="M68.6667 37.4665L36 38.1332V51.0665C36 58.2665 36.1333 82.2665 36.4 104.4L36.6667 144.533L90.2667 143.6C119.733 143.067 144 142.533 144 142.4C144 142.267 143.867 118.267 143.6 89.0665L143.067 35.9999L122.267 36.3999C110.8 36.6665 86.6667 37.0665 68.6667 37.4665ZM130.533 53.5999C130.933 55.8665 131.333 74.1332 131.333 94.1332V130.4L91.0667 131.333C62 132 50.6667 131.867 50 130.8C49.4667 130 48.9333 111.6 48.8 90.1332L48.5333 50.9332L56.2667 50.3999C60.5333 50.1332 78.8 49.8665 96.8 49.7332L129.733 49.4665L130.533 53.5999Z" fill="black"/>
<path d="M68.2667 55.8666L53.8667 56.2666L54.2667 91.1999L54.6667 126.133L79.3334 126.533C92.9334 126.8 108.933 126.533 115.067 126.133L126 125.2V97.0666C126 81.4666 125.6 65.5999 125.067 61.7333L124.267 54.6666L103.467 55.0666C92 55.3333 76.1334 55.5999 68.2667 55.8666ZM119.6 67.7333C119.867 71.9999 120.267 85.4666 120.533 97.5999L120.8 119.733L91.2 120.667C68.1334 121.333 61.3334 121.2 60.5334 120C60 119.067 59.4667 105.467 59.3334 89.8666L59.2 61.4666L82.9334 61.0666C96 60.9333 109.467 60.5333 112.933 60.3999L119.067 60.1333L119.6 67.7333Z" fill="black"/>
<path d="M85.3333 70.2665C83.0667 75.1998 82.9333 88.3998 85.3333 93.7331C86.1333 95.7331 85.6 96.1331 81.7333 96.1331C74.2667 96.1331 62 106.266 62 112.4C62 118.8 81.7333 113.333 87.4667 105.333L90.1333 101.466L93.4667 105.466C98 110.8 105.067 114 112.533 114C120.533 114.133 121.067 111.466 114.4 104.4C110.8 100.533 107.2 98.3998 101.733 96.7998C94.9333 94.7998 94.1333 94.2665 95.3333 92.1331C97.4667 88.2665 96.9333 75.0665 94.5333 69.9998C91.7333 63.9998 88.2667 64.1331 85.3333 70.2665ZM91.8667 72.9331C93.0667 76.1331 92.8 89.8665 91.4667 91.9998C89.7333 94.6665 87.0667 89.0665 86.9333 82.9331C86.6667 73.7331 89.7333 67.4665 91.8667 72.9331ZM86 100.133C86 104.266 68.8 114.133 66.2667 111.466C65.2 110.4 74.5333 101.866 78.6667 100.133C82.4 98.5331 86 98.5331 86 100.133ZM103.067 100.8C108.133 102.933 114 107.733 114 109.733C114 113.066 102.8 109.066 97.0667 103.733C91.3333 98.6665 94.2667 97.1998 103.067 100.8Z" fill="black"/>
</svg>
