<svg width="180" height="180" viewBox="0 0 180 180" fill="none" xmlns="http://www.w3.org/2000/svg">
<rect x="0.1" y="0.1" width="179.8" height="179.8" fill="white" stroke="#CBCBCB" stroke-width="0.2"/>
<path d="M80.0054 34.0911C54.0054 34.4911 32.4054 35.0244 32.1387 35.0244C31.8721 35.1577 32.0054 56.0911 32.4054 81.5577C32.9387 107.158 33.3387 131.824 33.3387 136.491V145.024L69.0721 144.224C88.6721 143.691 113.472 143.291 124.405 143.291H144.005L143.205 89.5577C142.805 60.0911 142.272 35.2911 142.005 34.3577C141.605 33.2911 138.939 32.8911 134.405 33.0244C130.539 33.1577 106.005 33.6911 80.0054 34.0911ZM136.539 40.3577C136.939 41.0244 137.339 63.0244 137.472 89.4244C137.739 135.424 137.605 137.291 135.205 137.558C133.739 137.691 111.472 138.091 85.7387 138.224L38.6721 138.758V111.824C38.6721 97.1577 38.2721 75.0244 37.7387 62.8911L36.9387 40.7577L51.4721 40.2244C84.2721 39.2911 135.872 39.4244 136.539 40.3577Z" fill="black"/>
<path d="M80.1389 75.824C72.4055 80.0907 71.0722 91.2907 77.2055 98.224C80.6722 102.091 81.8722 102.624 88.0055 102.624C93.8722 102.624 95.3389 102.091 98.1389 98.8907C102.406 93.9574 103.339 89.424 101.472 83.1574C99.0722 75.024 88.2722 71.2907 80.1389 75.824Z" fill="black"/>
</svg>
