<svg width="540" height="540" viewBox="0 0 540 540" fill="none" xmlns="http://www.w3.org/2000/svg">
<rect x="0.1" y="0.1" width="179.8" height="179.8" fill="white" stroke="#CBCBCB" stroke-width="0.2"/>
<rect x="180.1" y="0.1" width="179.8" height="179.8" fill="white" stroke="#CBCBCB" stroke-width="0.2"/>
<rect x="360.1" y="0.1" width="179.8" height="179.8" fill="white" stroke="#CBCBCB" stroke-width="0.2"/>
<rect x="0.1" y="180.1" width="179.8" height="179.8" fill="white" stroke="#CBCBCB" stroke-width="0.2"/>
<rect x="180.1" y="180.1" width="179.8" height="179.8" fill="white" stroke="#CBCBCB" stroke-width="0.2"/>
<rect x="360.1" y="180.1" width="179.8" height="179.8" fill="white" stroke="#CBCBCB" stroke-width="0.2"/>
<rect x="0.1" y="360.1" width="179.8" height="179.8" fill="white" stroke="#CBCBCB" stroke-width="0.2"/>
<rect x="180.1" y="360.1" width="179.8" height="179.8" fill="white" stroke="#CBCBCB" stroke-width="0.2"/>
<rect x="360.1" y="360.1" width="179.8" height="179.8" fill="white" stroke="#CBCBCB" stroke-width="0.2"/>
<path d="M32.5333 81.2673C32 107.934 31.8667 133.267 32.1333 137.667L32.5333 145.667L89.4667 146.067L146.533 146.334L146.8 92.734C147.067 63.134 147.067 37.6673 146.8 35.934L146.4 33.0006H89.8667H33.4667L32.5333 81.2673ZM143.6 39.4006C144 40.734 136.933 41.0006 109.067 40.734C82.2667 40.4673 74 39.934 73.4667 38.6006C73.0667 37.2673 80.1333 37.0006 108 37.2673C134.8 37.534 143.067 38.0673 143.6 39.4006ZM142.267 44.8673C143.067 45.0006 143.867 45.534 143.867 46.334C143.867 47.934 75.0667 48.2006 74 46.4673C73.6 45.934 73.7333 45.0006 74.2667 44.4673C74.9333 43.6673 121.6 44.0673 142.267 44.8673ZM143.467 53.2673C143.067 54.6006 138.8 55.0006 127.067 54.734C118.4 54.6006 102.667 54.4673 92.2667 54.4673C80.5333 54.334 73.2 53.8006 73.2 53.0006C73.2 52.2006 85.8667 51.6673 108.667 51.6673C136.4 51.6673 144 52.0673 143.467 53.2673ZM142.533 60.334C141.467 62.4673 74.2667 62.0673 73.4667 59.934C73.0667 58.6006 80.2667 58.334 108.133 58.6006C130.933 58.8673 142.933 59.4006 142.533 60.334ZM143.2 67.6673C143.2 69.4006 138.533 69.6673 108.8 69.6673C89.7333 69.6673 74 69.2673 73.6 68.6006C71.6 65.4006 76.5333 65.0006 108.933 65.2673C138.4 65.6673 143.2 65.934 143.2 67.6673ZM40.9333 107.267C40.5333 138.734 40.4 141.667 38.2667 142.067C36 142.467 35.8667 140.201 35.8667 107.801C35.8667 73.8006 35.8667 73.0006 38.5333 73.0006C41.2 73.0006 41.2 73.6673 40.9333 107.267ZM47.8667 107.667C47.8667 137.534 47.6 142.334 45.8667 142.334C44.1333 142.334 43.8667 137.534 43.8667 107.667C43.8667 77.8006 44.1333 73.0006 45.8667 73.0006C47.6 73.0006 47.8667 77.8006 47.8667 107.667ZM54.5333 107.667C54.5333 137.534 54.2667 142.334 52.5333 142.334C50.8 142.334 50.5333 137.534 50.5333 107.667C50.5333 77.8006 50.8 73.0006 52.5333 73.0006C54.2667 73.0006 54.5333 77.8006 54.5333 107.667ZM62.1333 107.267C61.8667 136.867 61.6 141.667 59.8667 141.667C58.1333 141.667 57.8667 137.934 58.1333 114.334C58.4 99.2673 58.5333 83.8006 58.5333 79.934C58.5333 74.734 59.0667 73.0006 60.4 73.0006C62.1333 73.0006 62.4 78.2006 62.1333 107.267ZM70.2667 107.667C70 139.801 69.7333 142.334 67.6 142.334C65.3333 142.334 65.2 139.934 65.2 107.667C65.2 73.8006 65.2 73.0006 67.8667 73.0006C70.5333 73.0006 70.5333 73.6673 70.2667 107.667ZM143.6 107.267C144 147.667 146 144.467 122 143.267C113.067 142.734 98.5333 142.334 89.6 142.334H73.2V108.601C73.2 89.934 73.6 74.334 74.1333 73.934C74.6667 73.4006 90.4 73.134 109.067 73.2673L143.2 73.6673L143.6 107.267Z" fill="black"/>
<path d="M411.933 64.8667C411.4 82.4667 411 108.067 411 121.933V147L450.067 146.733L489 146.333L489.4 89.9333L489.667 33.6667L474.733 33.5333C466.467 33.4 449.133 33.2667 436.2 33.1333L412.733 33L411.933 64.8667ZM484.333 37.6667C489.267 40.7333 482.733 41.4 451.4 40.7333C433.133 40.4667 417.533 39.9333 416.6 39.5333C415.667 39.2667 415.267 38.3333 415.667 37.6667C416.733 35.9333 481.667 35.9333 484.333 37.6667ZM485.667 46.3333C485.667 48.0667 481.267 48.3333 450.733 48.0667C424.333 47.8 415.8 47.2667 415.267 45.9333C414.867 44.7333 422.467 44.3333 450.2 44.3333C481 44.3333 485.667 44.6 485.667 46.3333ZM482.733 51.8C491.533 54.2 482.6 55 450.733 54.7333C424.333 54.4667 415.8 53.9333 415.267 52.6C414.867 51.4 421.8 51 447.267 51C465.133 51 481 51.4 482.733 51.8ZM483 58.6C491.267 60.7333 481.933 61.6667 451.133 61.6667C419.533 61.6667 413.4 61.1333 415.933 58.4667C417 57.4 479.133 57.5333 483 58.6ZM485.667 67.8C485.667 69.5333 481.8 69.8 452.733 69.6667C419 69.4 415 69.1333 415 66.8667C415 66.2 429.4 65.6667 450.333 65.6667C481.533 65.6667 485.667 65.9333 485.667 67.8ZM485 108.333V143.667L454.333 144.067C437.533 144.333 421.667 144.067 419.4 143.667L415 142.867V108.467C415 89.5333 415.4 73.6667 415.933 73.2667C416.467 72.7333 432.2 72.4667 450.867 72.6L485 73V108.333Z" fill="black"/>
<path d="M250.133 90.266L250.267 146.666H270.267H290.267L290.667 90.266L290.933 33.9993H270.533H250L250.133 90.266ZM257.733 107.333C257.6 126.799 257.2 142.933 256.933 143.199C256.667 143.333 255.867 143.199 255.067 142.666C254.133 142.133 253.6 130.133 253.6 106.533C253.6 73.7327 253.733 71.1993 255.867 71.5993C258 71.9993 258.133 74.7993 257.733 107.333ZM265.333 106.933C265.067 133.866 264.533 142.533 263.333 143.066C262 143.466 261.6 135.733 261.6 107.466C261.6 75.9993 261.867 71.3327 263.6 71.3327C265.333 71.3327 265.6 75.866 265.333 106.933ZM272.267 107.333C272.267 138.399 272 143.333 270.267 143.333C268.533 143.333 268.267 138.399 268.267 107.333C268.267 76.266 268.533 71.3327 270.267 71.3327C272 71.3327 272.267 76.266 272.267 107.333ZM278.933 107.333C278.933 138.399 278.667 143.333 276.933 143.333C275.2 143.333 274.933 138.399 274.933 107.333C274.933 76.266 275.2 71.3327 276.933 71.3327C278.667 71.3327 278.933 76.266 278.933 107.333ZM286.933 107.466C286.933 141.066 286.8 143.466 284.667 143.066C282.4 142.666 282.267 139.866 282.267 108.666C282.267 89.9993 282.533 73.866 282.8 72.9327C283.067 72.1327 284 71.3327 285.067 71.3327C286.667 71.3327 286.933 77.466 286.933 107.466Z" fill="black"/>
<path d="M247.319 249.599C247.052 250.533 246.919 260.666 247.052 271.999L247.319 292.666H268.652H289.986L290.386 270.266L290.652 247.999H269.319C253.319 247.999 247.719 248.399 247.319 249.599Z" fill="black"/>
<path d="M33 268.866V288.733L69.4 289.666C89.2667 290.066 115 290.333 126.333 290.066L147 289.666L147.4 269.266L147.8 249H90.3333H33V268.866ZM143.667 255C143.667 256.733 138.733 257 107.667 257C76.6 257 71.6667 256.733 71.6667 255C71.6667 253.266 76.6 253 107.667 253C138.733 253 143.667 253.266 143.667 255ZM143.267 262.6C142.6 265 72.7333 264.866 71.9333 262.466C71.5333 261.4 81 261 107.667 261C136.067 261 143.8 261.4 143.267 262.6ZM143.667 269.666C143.667 271.4 138.733 271.666 107.667 271.666C76.6 271.666 71.6667 271.4 71.6667 269.666C71.6667 267.933 76.6 267.666 107.667 267.666C138.733 267.666 143.667 267.933 143.667 269.666ZM143.667 276.466C143.667 278.066 138.067 278.333 107.667 278.333C76.2 278.333 71.6667 278.066 71.6667 276.333C71.6667 274.466 76.2 274.333 107.667 274.333C138.067 274.466 143.667 274.733 143.667 276.466ZM111.4 282.2C139.133 282.333 143.667 282.6 143.667 284.333C143.667 286.066 138.733 286.333 107.667 286.333C72.3333 286.333 71.6667 286.333 71.6667 283.666C71.6667 281.4 72.3333 281 75.4 281.533C77.4 281.8 93.5333 282.2 111.4 282.2Z" fill="black"/>
<path d="M411.267 252.114C411.133 253.448 411.133 262.248 411 271.848V289.181L449.8 289.581L488.733 289.848V270.514V251.181H469.8C459.267 251.048 441.933 250.781 431.133 250.381C412.6 249.714 411.4 249.714 411.267 252.114ZM484.067 256.514C484.067 258.248 479.533 258.514 449.4 257.981C430.333 257.714 414.467 257.314 414.2 257.181C414.067 256.914 414.2 255.981 414.733 255.181C415.267 254.248 426.333 253.981 449.8 254.114C479.267 254.514 484.067 254.781 484.067 256.514ZM484.733 263.848C484.733 265.581 480.333 265.848 449.8 265.581C423.4 265.314 414.867 264.781 414.333 263.448C413.933 262.248 421.533 261.848 449.267 261.848C480.067 261.848 484.733 262.114 484.733 263.848ZM484.467 270.914C484.867 272.248 477.8 272.514 449.933 272.248C423.133 271.981 414.867 271.448 414.333 270.114C413.933 268.781 421 268.514 448.867 268.781C475.667 269.048 483.933 269.581 484.467 270.914ZM484.467 277.448C484.867 278.781 477.267 279.181 449.533 279.181C430.067 279.181 414.067 278.648 414.067 278.114C414.067 277.448 414.467 276.514 415 275.981C415.533 275.448 431.267 275.181 449.933 275.448C475.533 275.714 483.933 276.248 484.467 277.448ZM484.733 285.181C484.733 286.914 480.333 287.181 449.8 286.914C423.4 286.648 414.867 286.114 414.333 284.781C413.933 283.581 421.533 283.181 449.267 283.181C480.067 283.181 484.733 283.448 484.733 285.181Z" fill="black"/>
<path d="M32 450V488L89.7333 487.733L147.333 487.333L147.733 449.6L148 412H90H32V450ZM39.7333 449.733C40 479.6 39.7333 484 38 484C36.2667 484 36 479.467 36 449.2C36 422 36.4 414.533 37.7333 414.933C38.9333 415.467 39.4667 423.867 39.7333 449.733ZM46.6667 450.133C46.6667 477.867 46.2667 485.467 45.0667 485.067C43.7333 484.533 43.2 476 42.9333 449.6C42.6667 419.067 42.9333 414.667 44.6667 414.667C46.4 414.667 46.6667 419.333 46.6667 450.133ZM53.6 416.267C54.4 419.067 53.8667 483.867 52.9333 484.8C52.5333 485.2 51.6 485.2 50.8 484.667C49.2 483.733 48.6667 417.067 50.2667 415.6C51.6 414.133 52.9333 414.533 53.6 416.267ZM60.6667 450C60.6667 476.4 60.2667 484.533 59.0667 484.933C57.7333 485.467 57.3333 477.867 57.3333 450C57.3333 422.133 57.7333 414.533 59.0667 414.933C60.2667 415.467 60.6667 423.6 60.6667 450ZM68 450.133C68 477.867 67.6 485.467 66.4 485.067C65.0667 484.533 64.5333 476.4 64.2667 451.2C64.1333 432.933 64.2667 417.333 64.6667 416.4C64.9333 415.467 65.8667 414.667 66.6667 414.667C67.6 414.667 68 426.667 68 450.133ZM133.067 415.733L144 416.267L143.733 450.533L143.333 484.667H108H72.6667L72.2667 451.333C72.1333 433.067 72.2667 417.2 72.6667 416.267C73.2 414.933 78.5333 414.667 97.6 414.8C111.067 415.067 126.933 415.333 133.067 415.733Z" fill="black"/>
<path d="M249.4 412.405C249.133 412.938 249 430.138 249 450.671V488.005L268.733 488.405L288.333 488.805L288.067 450.805L287.667 412.805L268.733 412.138C258.2 411.871 249.533 412.005 249.4 412.405ZM256.333 450.005C256.333 479.871 256.067 484.671 254.333 484.671C252.6 484.671 252.333 479.871 252.333 450.005C252.333 420.138 252.6 415.338 254.333 415.338C256.067 415.338 256.333 420.138 256.333 450.005ZM263.933 450.405C264.2 479.471 263.933 484.671 262.2 484.671C260.6 484.671 260.333 479.338 260.333 449.871C260.333 422.671 260.733 415.205 262.067 415.738C263.267 416.138 263.667 424.405 263.933 450.405ZM271 450.005C271 479.871 270.733 484.671 269 484.671C267.267 484.671 267 479.871 267 450.005C267 420.138 267.267 415.338 269 415.338C270.733 415.338 271 420.138 271 450.005ZM277.667 450.005C277.667 479.871 277.4 484.671 275.667 484.671C273.933 484.671 273.667 480.005 273.667 450.938C273.667 432.271 274.067 416.671 274.6 416.271C277.267 413.605 277.667 418.405 277.667 450.005ZM285 449.205C285 467.338 284.6 482.938 284.2 483.605C283.667 484.405 282.6 484.538 281.8 484.138C280.867 483.471 280.467 473.605 280.467 452.271C280.733 419.471 281.133 414.938 283.533 415.738C284.6 416.138 285 425.871 285 449.205Z" fill="black"/>
<path d="M444.909 462.909V462.636C444.939 459.742 445.242 457.439 445.818 455.727C446.394 454.015 447.212 452.629 448.273 451.568C449.333 450.508 450.606 449.53 452.091 448.636C452.985 448.091 453.788 447.447 454.5 446.705C455.212 445.947 455.773 445.076 456.182 444.091C456.606 443.106 456.818 442.015 456.818 440.818C456.818 439.333 456.47 438.045 455.773 436.955C455.076 435.864 454.144 435.023 452.977 434.432C451.811 433.841 450.515 433.545 449.091 433.545C447.848 433.545 446.652 433.803 445.5 434.318C444.348 434.833 443.386 435.644 442.614 436.75C441.841 437.856 441.394 439.303 441.273 441.091H435.545C435.667 438.515 436.333 436.311 437.545 434.477C438.773 432.644 440.386 431.242 442.386 430.273C444.402 429.303 446.636 428.818 449.091 428.818C451.758 428.818 454.076 429.348 456.045 430.409C458.03 431.47 459.561 432.924 460.636 434.773C461.727 436.621 462.273 438.727 462.273 441.091C462.273 442.758 462.015 444.265 461.5 445.614C461 446.962 460.273 448.167 459.318 449.227C458.379 450.288 457.242 451.227 455.909 452.045C454.576 452.879 453.508 453.758 452.705 454.682C451.902 455.591 451.318 456.674 450.955 457.932C450.591 459.189 450.394 460.758 450.364 462.636V462.909H444.909ZM447.818 476.364C446.697 476.364 445.735 475.962 444.932 475.159C444.129 474.356 443.727 473.394 443.727 472.273C443.727 471.152 444.129 470.189 444.932 469.386C445.735 468.583 446.697 468.182 447.818 468.182C448.939 468.182 449.902 468.583 450.705 469.386C451.508 470.189 451.909 471.152 451.909 472.273C451.909 473.015 451.72 473.697 451.341 474.318C450.977 474.939 450.485 475.439 449.864 475.818C449.258 476.182 448.576 476.364 447.818 476.364Z" fill="black"/>
</svg>
