<svg width="180" height="180" viewBox="0 0 180 180" fill="none" xmlns="http://www.w3.org/2000/svg">
<rect x="0.1" y="0.1" width="179.8" height="179.8" fill="white" stroke="#CBCBCB" stroke-width="0.2"/>
<path d="M89.5333 69.8007L89.1333 88.6007L70.4667 88.7341L51.8 89.0007L51.4 108.601L51 128.201L89.2667 128.601C110.2 128.867 127.667 128.734 127.933 128.467C128.2 128.201 128.467 110.601 128.467 89.4007V51.0007H109.133H89.9333L89.5333 69.8007ZM96.2 71.9341C95.6667 94.3341 93.2667 94.0674 92.7333 71.6674C92.4667 57.2674 92.7333 55.0007 94.4667 55.0007C96.2 55.0007 96.4667 57.2674 96.2 71.9341ZM103.133 72.4674C103.133 85.8007 102.733 89.8007 101.533 89.2674C100.333 89.0007 99.9333 86.2007 100.067 80.8674C100.067 76.6007 100.2 69.0007 100.333 63.9341C100.467 59.0007 101 55.0007 101.8 55.0007C102.6 55.0007 103.133 61.6674 103.133 72.4674ZM110.867 71.9341C110.6 83.9341 109.933 89.0007 108.867 89.4007C107.533 89.8007 107.133 85.8007 107.133 72.4674C107.133 57.6674 107.4 55.0007 109.133 55.0007C110.867 55.0007 111.133 57.4007 110.867 71.9341ZM117.8 72.3341C117.8 86.8674 117.533 89.6674 115.8 89.6674C114.067 89.6674 113.8 86.8674 113.8 72.3341C113.8 57.8007 114.067 55.0007 115.8 55.0007C117.533 55.0007 117.8 57.8007 117.8 72.3341ZM125.4 71.1341C125.667 86.2007 124.867 90.8674 121.933 89.1341C120.333 88.0674 119.8 57.4007 121.4 55.8007C124.067 53.1341 125.133 57.0007 125.4 71.1341ZM89.8 94.3341C89.8 96.0674 87 96.3341 72.4667 96.3341C57.9333 96.3341 55.1333 96.0674 55.1333 94.3341C55.1333 92.6007 57.9333 92.3341 72.4667 92.3341C87 92.3341 89.8 92.6007 89.8 94.3341ZM96.4667 94.3341C96.4667 95.4007 95.5333 96.3341 94.4667 96.3341C93.4 96.3341 92.4667 95.4007 92.4667 94.3341C92.4667 93.2674 93.4 92.3341 94.4667 92.3341C95.5333 92.3341 96.4667 93.2674 96.4667 94.3341ZM102.867 94.6007C102.333 97.5341 99.9333 97.2674 99.4 94.4674C99.1333 93.1341 99.8 92.3341 101.133 92.3341C102.467 92.3341 103.133 93.2674 102.867 94.6007ZM111.133 94.3341C111.133 95.4007 110.2 96.3341 109.133 96.3341C108.067 96.3341 107.133 95.4007 107.133 94.3341C107.133 93.2674 108.067 92.3341 109.133 92.3341C110.2 92.3341 111.133 93.2674 111.133 94.3341ZM117.533 94.6007C117 97.5341 114.6 97.2674 114.067 94.4674C113.8 93.1341 114.467 92.3341 115.8 92.3341C117.133 92.3341 117.8 93.2674 117.533 94.6007ZM124.867 93.2674C126.067 94.4674 123.133 97.8007 121.667 96.8674C119.8 95.8007 120.2 92.3341 122.2 92.3341C123.267 92.3341 124.467 92.7341 124.867 93.2674ZM89.5333 101.934C89.1333 102.867 88.2 103.667 87.4 103.534C86.4667 103.401 78.8667 103.267 70.4667 103.134C61.2667 103.134 55.1333 102.467 55.1333 101.667C55.1333 100.867 61.8 100.334 72.6 100.334C85.9333 100.334 89.9333 100.734 89.5333 101.934ZM96.4667 102.467C96.4667 104.734 93.5333 104.334 92.7333 101.934C92.4667 101.001 93.1333 100.334 94.3333 100.334C95.5333 100.334 96.4667 101.267 96.4667 102.467ZM103.133 102.467C103.133 103.667 102.467 104.334 101.533 104.067C99.1333 103.267 98.7333 100.334 101 100.334C102.2 100.334 103.133 101.267 103.133 102.467ZM111.133 101.534C111.133 103.401 108.733 104.601 107.133 103.667C106.333 103.134 106.067 102.201 106.467 101.534C107.533 99.9341 111.133 99.9341 111.133 101.534ZM117.8 102.334C117.8 103.401 116.867 104.334 115.8 104.334C114.733 104.334 113.8 103.401 113.8 102.334C113.8 101.267 114.733 100.334 115.8 100.334C116.867 100.334 117.8 101.267 117.8 102.334ZM124.467 102.334C124.467 103.401 123.533 104.334 122.467 104.334C121.4 104.334 120.467 103.401 120.467 102.334C120.467 101.267 121.4 100.334 122.467 100.334C123.533 100.334 124.467 101.267 124.467 102.334ZM88.4667 109.001C88.4667 111.134 56.2 110.734 55.4 108.601C55 107.267 58.4667 107.001 71.6667 107.267C81.8 107.534 88.4667 108.201 88.4667 109.001ZM96.4667 109.001C96.4667 110.067 95.5333 111.001 94.4667 111.001C93.4 111.001 92.4667 110.067 92.4667 109.001C92.4667 107.934 93.4 107.001 94.4667 107.001C95.5333 107.001 96.4667 107.934 96.4667 109.001ZM103.133 109.001C103.133 110.067 102.2 111.001 101.133 111.001C100.067 111.001 99.1333 110.067 99.1333 109.001C99.1333 107.934 100.067 107.001 101.133 107.001C102.2 107.001 103.133 107.934 103.133 109.001ZM110.067 109.001C110.067 109.667 109.4 110.467 108.6 110.734C107.8 111.001 107.133 110.201 107.133 109.001C107.133 107.801 107.8 107.001 108.6 107.267C109.4 107.534 110.067 108.334 110.067 109.001ZM117.8 109.001C117.8 110.067 116.867 111.001 115.8 111.001C114.733 111.001 113.8 110.067 113.8 109.001C113.8 107.934 114.733 107.001 115.8 107.001C116.867 107.001 117.8 107.934 117.8 109.001ZM124.467 109.001C124.467 110.067 123.533 111.001 122.467 111.001C121.4 111.001 120.467 110.067 120.467 109.001C120.467 107.934 121.4 107.001 122.467 107.001C123.533 107.001 124.467 107.934 124.467 109.001ZM88.8667 115.667C89 116.467 82.6 117.134 72.2 117.401C57.4 117.667 55.1333 117.401 55.1333 115.667C55.1333 113.934 57.4 113.667 71.8 113.934C81.5333 114.201 88.6 114.867 88.8667 115.667ZM96.4667 116.467C96.4667 117.134 95.5333 117.667 94.4667 117.667C92.4667 117.667 91.8 116.067 93.2667 114.601C94.3333 113.534 96.4667 114.734 96.4667 116.467ZM103.133 115.667C103.133 116.734 102.2 117.667 101.133 117.667C99 117.667 98.4667 116.067 100.067 114.601C101.533 113.001 103.133 113.534 103.133 115.667ZM110.867 116.067C111.133 117.001 110.467 117.667 109.267 117.667C108.067 117.667 107.133 116.734 107.133 115.534C107.133 113.267 110.067 113.667 110.867 116.067ZM117.533 116.067C117.8 117.001 117.133 117.667 115.933 117.667C114.733 117.667 113.8 116.734 113.8 115.534C113.8 113.267 116.733 113.667 117.533 116.067ZM124.467 115.667C124.467 116.734 123.533 117.667 122.467 117.667C120.333 117.667 119.8 116.067 121.4 114.601C122.867 113.001 124.467 113.534 124.467 115.667ZM89.1333 123.134C89.1333 124.601 85.9333 125.134 73.2667 125.401C63.1333 125.667 56.8667 125.267 55.9333 124.334C53.2667 121.667 57.1333 121.001 73.4 121.134C86.0667 121.134 89.1333 121.534 89.1333 123.134ZM95.8 123.001C95.8 123.934 95 125.001 94.2 125.267C93.1333 125.667 92.4667 124.734 92.4667 123.001C92.4667 121.267 93.1333 120.334 94.2 120.601C95 121.001 95.8 122.067 95.8 123.001ZM103.133 123.001C103.133 124.467 102.6 125.667 101.933 125.667C100.067 125.667 98.8667 123.267 99.8 121.667C101.133 119.401 103.133 120.201 103.133 123.001ZM110.867 123.267C110.067 125.667 107.133 126.067 107.133 123.801C107.133 122.601 108.067 121.667 109.267 121.667C110.467 121.667 111.133 122.334 110.867 123.267ZM117.8 123.667C117.8 124.734 116.867 125.667 115.8 125.667C114.733 125.667 113.8 124.734 113.8 123.667C113.8 122.601 114.733 121.667 115.8 121.667C116.867 121.667 117.8 122.601 117.8 123.667ZM124.467 123.801C124.467 126.067 121.533 125.667 120.733 123.267C120.467 122.334 121.133 121.667 122.333 121.667C123.533 121.667 124.467 122.601 124.467 123.801Z" fill="black"/>
</svg>
