<svg width="180" height="180" viewBox="0 0 180 180" fill="none" xmlns="http://www.w3.org/2000/svg">
<rect x="0.1" y="0.1" width="179.8" height="179.8" fill="white" stroke="#CBCBCB" stroke-width="0.2"/>
<path d="M33.4 57.934C33.2667 71.8006 33.1333 97.134 33.1333 114.334L33 145.667L90.0667 146.067L147 146.334V89.6673V33.0006H90.3333H33.6667L33.4 57.934ZM105.667 71.6673V106.334L71.4 106.067L37 105.667L36.7333 73.6673C36.6 56.0673 36.7333 40.6006 37.1333 39.2673C37.8 37.134 40.6 37.0006 71.8 37.0006H105.667V71.6673ZM114.467 67.0006C114.733 100.201 114.2 106.334 111.533 106.334C109.933 106.334 109.667 100.334 109.667 71.534C109.667 39.134 109.8 36.8673 112.067 37.2673C114.067 37.6673 114.333 40.2006 114.467 67.0006ZM121.667 71.6673C121.667 101.534 121.4 106.334 119.667 106.334C117.933 106.334 117.667 101.534 117.667 71.6673C117.667 41.8006 117.933 37.0006 119.667 37.0006C121.4 37.0006 121.667 41.8006 121.667 71.6673ZM128.333 71.6673C128.333 101.534 128.067 106.334 126.333 106.334C124.6 106.334 124.333 101.667 124.333 72.6006C124.333 53.934 124.733 38.334 125.267 37.934C127.933 35.2673 128.333 40.0673 128.333 71.6673ZM135 71.6673C135 101.934 134.733 106.334 133 106.334C131.133 106.334 131 102.201 131.133 73.4006C131.133 55.2673 131.533 39.6673 131.933 38.734C134.2 32.734 135 40.734 135 71.6673ZM143.4 60.334C143 108.734 143.133 106.334 141 106.334C139.267 106.334 139 101.534 139 71.534C139 39.134 139.133 36.8673 141.4 37.2673C143.4 37.6673 143.667 39.8006 143.4 60.334ZM107 112.334C107 114.067 102.6 114.334 72.0667 114.067C45.6667 113.801 37.1333 113.267 36.6 111.934C36.2 110.734 43.8 110.334 71.5333 110.334C102.333 110.334 107 110.601 107 112.334ZM106.733 119.267C107.133 120.601 99.5333 121.001 71.8 121.001C52.3333 121.001 36.3333 120.467 36.3333 119.934C36.3333 119.267 36.7333 118.334 37.2667 117.934C37.8 117.401 53.4 117.134 72.2 117.267C97.9333 117.534 106.2 118.067 106.733 119.267ZM106.6 126.601C106.2 127.934 101.933 128.334 90.2 128.067C81.5333 127.934 65.8 127.801 55.4 127.801C43.6667 127.667 36.3333 127.134 36.3333 126.334C36.3333 125.534 49 125.001 71.8 125.001C99.5333 125.001 107.133 125.401 106.6 126.601ZM106.6 133.267C105.667 136.467 36.3333 135.934 36.3333 132.867C36.3333 132.201 52.3333 131.667 71.8 131.667C99.5333 131.667 107.133 132.067 106.6 133.267ZM106.733 140.601C106.333 142.867 103.533 143.001 71.6667 143.001C39.8 143.001 37 142.867 36.6 140.601C36.2 138.467 38.6 138.334 71.6667 138.334C104.733 138.334 107.133 138.467 106.733 140.601Z" fill="black"/>
</svg>
