<svg width="180" height="180" viewBox="0 0 180 180" fill="none" xmlns="http://www.w3.org/2000/svg">
<rect x="0.1" y="0.1" width="179.8" height="179.8" fill="white" stroke="#CBCBCB" stroke-width="0.2"/>
<path d="M68.2667 89.2668L68.6667 127.667L88.4 128.067L108 128.467V89.6668V51.0001H88H68L68.2667 89.2668ZM76 89.0001C76 119.533 75.7333 124.333 74 124.333C72.2667 124.333 72 119.667 72 89.9335C72 71.0001 72.4 55.0001 72.9333 54.6001C75.6 51.9335 76 56.7335 76 89.0001ZM82.9333 55.0001C83.2 55.6668 83.2 71.6668 82.9333 90.4668C82.6667 116.467 82.1333 124.333 80.9333 123.933C79.7333 123.533 79.4667 118.467 79.6 104.867C79.7333 94.7335 79.8667 79.0001 80 69.9335C80 61.0001 80.5333 53.6668 81.2 53.6668C81.8667 53.6668 82.6667 54.2001 82.9333 55.0001ZM90.6667 89.6668C90.6667 119.533 90.4 124.333 88.6667 124.333C86.9333 124.333 86.6667 119.533 86.6667 89.6668C86.6667 59.8001 86.9333 55.0001 88.6667 55.0001C90.4 55.0001 90.6667 59.8001 90.6667 89.6668ZM97.3333 89.6668C97.3333 119.533 97.0667 124.333 95.3333 124.333C93.6 124.333 93.3333 119.533 93.3333 89.6668C93.3333 59.8001 93.6 55.0001 95.3333 55.0001C97.0667 55.0001 97.3333 59.8001 97.3333 89.6668ZM105.067 89.2668C104.667 120.2 104.4 123.667 102.4 124.067C100.4 124.467 100.267 122.6 100.667 104.067C100.933 92.8668 101.2 77.2668 101.2 69.2668C101.333 57.4001 101.733 55.0001 103.333 55.0001C105.067 55.0001 105.333 59.4001 105.067 89.2668Z" fill="black"/>
</svg>
