<svg width="180" height="180" viewBox="0 0 180 180" fill="none" xmlns="http://www.w3.org/2000/svg">
<rect x="0.1" y="0.1" width="179.8" height="179.8" fill="white" stroke="#CBCBCB" stroke-width="0.2"/>
<path d="M105.667 47.934C105.667 56.2006 105.4 65.134 105.133 67.6673C105 70.2006 104.733 79.934 104.6 89.4006L104.467 106.467L68.2 106.067L31.8 105.667L31.4 125.934L31 146.334H87.5333H144.067L144.867 117.401C145.4 101.401 145.8 75.934 145.8 60.6006V33.0006H125.8H105.8L105.667 47.934ZM112.467 71.6673C112.467 101.534 112.2 106.334 110.467 106.334C108.733 106.334 108.467 101.667 108.467 72.6006C108.467 53.934 108.867 38.334 109.4 37.934C112.067 35.2673 112.467 40.0673 112.467 71.6673ZM120.2 71.2673C119.933 97.134 119.4 105.534 118.2 106.067C116.867 106.467 116.467 99.0006 116.467 71.8006C116.467 41.534 116.733 37.0006 118.467 37.0006C120.2 37.0006 120.467 41.4006 120.2 71.2673ZM126.867 71.2673C126.6 97.134 126.067 105.534 124.867 106.067C123.533 106.467 123.133 99.0006 123.133 71.8006C123.133 41.0006 123.4 37.0006 125.267 37.0006C127.133 37.0006 127.267 40.8673 126.867 71.2673ZM133.8 71.6673C133.8 101.534 133.533 106.334 131.8 106.334C130.067 106.334 129.8 101.534 129.8 71.6673C129.8 41.8006 130.067 37.0006 131.8 37.0006C133.533 37.0006 133.8 41.8006 133.8 71.6673ZM141.533 71.2673C141.133 100.867 140.867 105.667 139.133 105.667C137.4 105.667 137.133 101.134 137 73.6673C137 56.0673 137.133 40.6006 137.533 39.2673C137.8 38.0673 139 37.0006 139.933 37.0006C141.533 37.0006 141.8 42.6006 141.533 71.2673ZM105.133 111.667C105.133 113.401 100.333 113.667 70.4667 113.667C38.4667 113.667 35.8 113.534 35.4 111.267C35 109.134 37.1333 109.001 70.0667 109.267C100.2 109.667 105.133 109.934 105.133 111.667ZM104.867 119.001C104.2 121.134 36.2 120.734 35.4 118.601C35 117.267 42.2 117.001 70.0667 117.267C92.6 117.534 105 118.201 104.867 119.001ZM104.467 125.934C104.467 127.267 97.1333 127.667 69.8 127.667C39.8 127.667 35.1333 127.401 35.1333 125.667C35.1333 123.934 39.6667 123.667 69.8 123.934C97 124.201 104.467 124.601 104.467 125.934ZM84.2 131.534C101.8 131.667 104.467 131.934 104.467 133.801C104.467 135.667 101 135.801 70.2 135.001C51.2667 134.467 35.2667 133.667 34.4667 133.267C32.0667 131.801 39.2667 131.001 51.6667 131.134C58.3333 131.267 73 131.401 84.2 131.534ZM105 139.401C105.267 139.934 105.133 141.267 104.6 142.201C103.667 143.534 98.8667 143.801 82.3333 143.134C70.6 142.734 55.2667 142.467 48.2 142.334C37.5333 142.334 35.1333 141.934 35.1333 140.334C35.1333 138.601 39.8 138.334 69.6667 138.334C88.7333 138.334 104.6 138.867 105 139.401Z" fill="black"/>
</svg>
