<svg width="180" height="180" viewBox="0 0 180 180" fill="none" xmlns="http://www.w3.org/2000/svg">
<rect x="0.1" y="0.1" width="179.8" height="179.8" fill="white" stroke="#CBCBCB" stroke-width="0.2"/>
<path d="M52.7333 69.3758C51.4 69.9091 51 75.2424 51 89.3758V108.576H74.0667C86.6 108.709 104.067 108.976 112.733 109.376L128.333 110.176V90.0424V69.9091H117.4C111.267 69.9091 94.6 69.5091 80.3333 69.2424C66.0667 68.8424 53.5333 68.9758 52.7333 69.3758ZM125.4 74.5758C125.667 74.8424 125.533 75.7758 124.867 76.7091C124.2 77.9091 116.733 78.1758 93.8 77.5091C77.2667 76.9758 61.6667 76.5758 59.4 76.5758C56.2 76.5758 55 75.9091 55 74.4424C55 72.3091 58.0667 72.3091 89.9333 73.1091C109.133 73.6424 125.133 74.1758 125.4 74.5758ZM125.4 82.9758C125.8 84.3091 118.867 84.5758 91.6667 84.4424C72.7333 84.4424 56.4667 84.0424 55.5333 83.6424C49.4 81.3758 58.8667 80.5758 89.9333 80.8424C116.733 81.1091 124.867 81.6424 125.4 82.9758ZM125.4 88.5758C125.533 88.5758 125.667 89.1091 125.667 89.9091C125.667 91.5091 55.5333 91.7758 54.4667 90.0424C54.0667 89.5091 54.2 88.4424 54.7333 87.9091C55.2667 87.3758 71.2667 87.2424 90.3333 87.7758C109.4 88.1758 125.133 88.5758 125.4 88.5758ZM124.733 95.2424C125.267 95.2424 125.667 95.7758 125.667 96.5758C125.667 98.1758 55.5333 98.4424 54.4667 96.7091C54.0667 96.1758 54.2 95.1091 54.7333 94.5758C55.2667 94.0424 71 93.9091 89.6667 94.4424C108.333 94.8424 124.067 95.2424 124.733 95.2424ZM125 103.909C125 104.709 112.2 105.376 90.0667 105.642C59.2667 105.909 55 105.642 55 103.909C55 102.176 59.2667 101.909 90.0667 102.176C112.2 102.442 125 103.109 125 103.909Z" fill="black"/>
</svg>
