<svg width="540" height="540" viewBox="0 0 540 540" fill="none" xmlns="http://www.w3.org/2000/svg">
<rect x="0.1" y="0.1" width="179.8" height="179.8" fill="white" stroke="#CBCBCB" stroke-width="0.2"/>
<rect x="180.1" y="0.1" width="179.8" height="179.8" fill="white" stroke="#CBCBCB" stroke-width="0.2"/>
<rect x="360.1" y="0.1" width="179.8" height="179.8" fill="white" stroke="#CBCBCB" stroke-width="0.2"/>
<rect x="0.1" y="180.1" width="179.8" height="179.8" fill="white" stroke="#CBCBCB" stroke-width="0.2"/>
<rect x="180.1" y="180.1" width="179.8" height="179.8" fill="white" stroke="#CBCBCB" stroke-width="0.2"/>
<rect x="360.1" y="180.1" width="179.8" height="179.8" fill="white" stroke="#CBCBCB" stroke-width="0.2"/>
<rect x="0.1" y="360.1" width="179.8" height="179.8" fill="white" stroke="#CBCBCB" stroke-width="0.2"/>
<rect x="180.1" y="360.1" width="179.8" height="179.8" fill="white" stroke="#CBCBCB" stroke-width="0.2"/>
<rect x="360.1" y="360.1" width="179.8" height="179.8" fill="white" stroke="#CBCBCB" stroke-width="0.2"/>
<path d="M444.909 459.909V459.636C444.939 456.742 445.242 454.439 445.818 452.727C446.394 451.015 447.212 449.629 448.273 448.568C449.333 447.508 450.606 446.53 452.091 445.636C452.985 445.091 453.788 444.447 454.5 443.705C455.212 442.947 455.773 442.076 456.182 441.091C456.606 440.106 456.818 439.015 456.818 437.818C456.818 436.333 456.47 435.045 455.773 433.955C455.076 432.864 454.144 432.023 452.977 431.432C451.811 430.841 450.515 430.545 449.091 430.545C447.848 430.545 446.652 430.803 445.5 431.318C444.348 431.833 443.386 432.644 442.614 433.75C441.841 434.856 441.394 436.303 441.273 438.091H435.545C435.667 435.515 436.333 433.311 437.545 431.477C438.773 429.644 440.386 428.242 442.386 427.273C444.402 426.303 446.636 425.818 449.091 425.818C451.758 425.818 454.076 426.348 456.045 427.409C458.03 428.47 459.561 429.924 460.636 431.773C461.727 433.621 462.273 435.727 462.273 438.091C462.273 439.758 462.015 441.265 461.5 442.614C461 443.962 460.273 445.167 459.318 446.227C458.379 447.288 457.242 448.227 455.909 449.045C454.576 449.879 453.508 450.758 452.705 451.682C451.902 452.591 451.318 453.674 450.955 454.932C450.591 456.189 450.394 457.758 450.364 459.636V459.909H444.909ZM447.818 473.364C446.697 473.364 445.735 472.962 444.932 472.159C444.129 471.356 443.727 470.394 443.727 469.273C443.727 468.152 444.129 467.189 444.932 466.386C445.735 465.583 446.697 465.182 447.818 465.182C448.939 465.182 449.902 465.583 450.705 466.386C451.508 467.189 451.909 468.152 451.909 469.273C451.909 470.015 451.72 470.697 451.341 471.318C450.977 471.939 450.485 472.439 449.864 472.818C449.258 473.182 448.576 473.364 447.818 473.364Z" fill="black"/>
<path d="M73.0915 26.1226C50.4248 32.3892 33.0915 50.6559 26.8248 74.9226C18.9582 105.589 37.2248 139.189 68.1582 151.323C78.1582 155.189 94.6915 156.256 104.825 153.723C122.558 149.189 138.825 137.056 147.092 122.256C161.092 97.5892 157.358 65.0559 138.292 44.5226C122.425 27.4559 95.8915 19.9892 73.0915 26.1226ZM114.425 35.1892C140.558 47.4559 154.825 75.9892 148.158 102.923C135.358 155.456 67.6248 165.723 39.7582 119.456C24.1582 93.5892 31.7582 57.7226 56.5582 40.6559C68.0248 32.7892 77.0915 30.2559 92.1582 30.6559C103.892 30.9226 106.558 31.4559 114.425 35.1892Z" fill="black"/>
<path d="M78.8248 56.6566C61.8914 62.2566 52.1581 82.1233 57.4914 100.39C63.3581 120.523 87.0914 130.79 105.891 121.457C134.158 107.323 131.625 66.5233 101.758 56.3899C93.8914 53.7233 87.3581 53.7233 78.8248 56.6566ZM101.225 62.6566C112.425 67.4566 119.491 77.8566 119.358 89.5899C119.225 104.523 110.425 115.323 96.1581 118.257C78.4248 121.99 62.0248 108.123 62.0248 89.7233C62.0248 69.7233 83.2248 55.1899 101.225 62.6566Z" fill="black"/>
<path d="M83.6248 77.4565C71.8915 83.9898 76.5582 103.457 89.8915 103.59C98.9582 103.59 104.825 97.7232 104.825 88.7898C104.825 82.7898 97.3582 75.5898 91.3582 75.5898C88.8248 75.7232 85.3582 76.5232 83.6248 77.4565Z" fill="black"/>
<path d="M259.134 56.8043C243.268 62.4043 235.001 74.0043 235.001 90.5377C234.868 109.471 248.468 123.738 267.934 125.338C278.734 126.138 287.934 122.271 295.668 113.604C302.201 106.404 304.601 99.871 304.601 89.471C304.601 66.671 280.201 49.2043 259.134 56.8043ZM281.668 64.1377C293.534 70.271 300.468 82.5377 298.601 94.271C297.534 102.271 290.468 112.138 283.268 115.871C271.001 122.404 254.868 118.671 246.468 107.338C232.334 88.671 246.068 61.6043 269.534 61.6043C273.934 61.6043 278.601 62.5377 281.668 64.1377Z" fill="black"/>
<path d="M260.468 80.0046C257.134 82.9379 256.201 84.9379 256.068 89.0712C255.934 98.9379 262.868 105.205 272.601 103.738C279.268 102.671 283.268 97.6046 283.268 90.1379C283.268 77.6046 269.801 71.6046 260.468 80.0046Z" fill="black"/>
<path d="M439.2 79.4666C436.667 82.1333 436 84.2666 436 89.6C436 95.2 436.533 96.6666 439.733 99.4666C448.667 107.067 463.333 100.8 463.333 89.3333C463.333 85.6 462.4 83.2 459.467 80.1333C456.133 76.5333 454.667 76 449.067 76C443.733 76 441.867 76.6666 439.2 79.4666Z" fill="black"/>
<path d="M429.81 207.401C391.677 220.068 373.277 262.335 390.477 298.201C395.277 308.468 406.343 319.935 416.877 325.668C437.277 336.735 464.743 336.601 483.543 325.268C527.677 298.601 525.01 234.468 478.61 211.401C468.61 206.468 468.21 206.335 451.81 206.068C440.877 205.801 433.277 206.335 429.81 207.401ZM467.81 213.801C495.277 222.335 511.143 246.735 508.61 276.335C507.143 292.735 499.143 306.735 485.41 316.735C475.943 323.801 466.21 327.001 452.477 327.935C442.343 328.468 439.143 328.201 431.81 325.668C414.477 319.801 402.743 309.535 394.877 293.001C390.61 283.935 390.21 282.201 390.343 270.735C390.343 257.535 392.077 250.601 397.943 240.601C412.21 216.335 440.877 205.268 467.81 213.801Z" fill="black"/>
<path d="M438.076 236.868C413.143 246.202 406.743 276.868 426.076 295.268C439.01 307.668 459.81 307.802 474.343 295.535C488.21 283.802 488.61 258.602 475.01 245.135C466.21 236.468 449.41 232.602 438.076 236.868ZM460.076 243.002C465.81 244.602 473.943 252.468 476.743 259.002C479.143 264.468 479.41 274.202 477.276 280.602C475.41 286.202 467.41 294.202 460.876 297.002C447.143 302.602 429.676 295.802 423.143 282.202C420.076 275.802 420.343 264.468 423.543 258.202C426.876 251.802 433.81 245.135 439.143 243.268C444.343 241.402 453.943 241.402 460.076 243.002Z" fill="black"/>
<path d="M442.343 258.335C434.877 262.335 434.077 274.201 440.61 280.468C443.143 282.868 445.543 283.668 450.077 283.668C455.143 283.668 456.61 283.001 459.943 279.268C465.277 273.268 465.277 266.201 459.943 260.468C456.877 257.135 455.01 256.335 450.877 256.335C448.077 256.468 444.21 257.268 442.343 258.335Z" fill="black"/>
<path d="M77.1799 237.606C70.3799 240.139 63.4466 245.606 59.7133 251.473C56.7799 256.006 56.1133 258.006 54.2466 267.473C53.0466 273.739 56.3799 285.606 60.9133 291.873C70.5133 305.206 90.1133 309.339 105.447 301.473C129.847 289.073 130.113 254.406 106.113 240.273C98.7799 235.873 85.0466 234.673 77.1799 237.606ZM100.38 244.273C117.847 251.606 123.313 276.273 110.38 290.273C96.5133 305.206 72.1133 301.739 62.9133 283.606C59.3133 276.806 59.3133 265.339 62.9133 258.539C65.8466 252.673 75.1799 244.139 79.4466 243.339C85.8466 242.006 96.2466 242.539 100.38 244.273Z" fill="black"/>
<path d="M81.4464 259.073C73.9798 263.073 73.1798 274.94 79.7131 281.206C82.2464 283.606 84.6464 284.406 89.1798 284.406C94.2464 284.406 95.7131 283.74 99.0464 280.006C109.846 268.006 95.8464 251.206 81.4464 259.073Z" fill="black"/>
<path d="M260.103 260.6C254.769 266.333 254.636 274.867 259.703 280.067C268.503 288.733 283.036 283.533 283.036 271.667C283.036 261.667 278.903 257.133 269.569 257C264.636 257 262.903 257.667 260.103 260.6Z" fill="black"/>
<path d="M255.667 386.343C245.133 388.343 231 396.476 222.867 405.143C210.467 418.609 205 432.343 205 450.343C205 489.943 239.8 519.543 280.067 513.943C332.6 506.743 354.2 441.543 316.467 404.209C300.467 388.476 278.467 381.943 255.667 386.343ZM287.667 393.676C297.667 396.609 304.467 400.876 312.6 409.143C323.933 420.743 331.4 439.543 329.667 452.609C326.6 477.276 315.267 493.809 294.333 503.943C282.467 509.676 265.533 510.609 252.6 506.343C213.8 493.409 198.733 450.476 221.267 416.876C229.933 403.809 245.267 394.209 262.333 391.143C267.8 390.076 279.933 391.276 287.667 393.676Z" fill="black"/>
<path d="M258.067 417.409C227.933 428.209 228.2 472.209 258.333 482.876C281.533 491.009 305 474.609 305 450.343C305 435.143 297.133 423.276 283.133 417.543C277.4 415.143 264.733 415.009 258.067 417.409ZM279.933 423.009C295.933 429.276 303.667 446.076 297.133 461.143C290.6 476.343 274.467 483.276 260.2 477.009C248.867 471.943 243.4 465.143 241.667 454.076C239.8 441.409 246.467 429.809 259 424.076C266.867 420.343 272.2 420.076 279.933 423.009Z" fill="black"/>
<path d="M260.467 441.01C252.6 450.343 258.467 463.543 270.6 463.543C279 463.543 283.667 458.61 283.667 449.676C283.667 440.876 279.667 436.876 270.467 436.876C264.733 436.876 263.4 437.41 260.467 441.01Z" fill="black"/>
<path d="M80.3333 438.052C76.4667 440.186 75 443.386 75 450.052C75 456.186 77.4 459.919 82.7333 462.186C96.7333 468.052 108.733 450.719 98.0667 439.919C93.5333 435.519 86.4667 434.719 80.3333 438.052Z" fill="black"/>
</svg>
