<svg width="180" height="180" viewBox="0 0 180 180" fill="none" xmlns="http://www.w3.org/2000/svg">
<rect x="0.1" y="0.1" width="179.8" height="179.8" fill="white" stroke="#CBCBCB" stroke-width="0.2"/>
<path d="M67.4001 23.2122C19.1334 38.8122 3.00011 100.412 37.2668 137.612C41.2668 141.879 47.8001 147.612 51.8001 150.279C73.5335 164.679 106.467 164.546 127.8 150.012C134.6 145.479 144.333 135.879 149 129.212C158.6 115.346 162.733 90.0122 158.2 72.9456C151.933 48.9456 132.733 28.8122 109.667 22.1456C98.6001 18.9456 79.1335 19.3456 67.4001 23.2122ZM103.133 26.8122C121.933 30.6789 138.733 44.0122 147.8 62.2789C152.6 72.0122 152.867 73.3456 153.4 87.4789C153.667 99.0789 153.267 104.146 151.533 109.612C142.733 136.679 118.333 154.812 90.3335 154.946C72.7335 155.079 58.4668 149.746 46.0668 138.412C32.2001 125.612 25.4001 109.746 25.4001 90.0122C25.2668 65.2122 38.7334 43.4789 60.7334 32.6789C74.8668 25.6122 88.4668 23.7456 103.133 26.8122Z" fill="black"/>
<path d="M73.1333 38.6792C47.8 46.6792 33 70.8125 36.3333 98.5459C37.6666 109.746 42.8666 120.146 51.4 128.813C60.0666 137.479 70.3333 142.546 81.9333 144.013C109.933 147.479 133.267 132.279 141.667 105.213C146.2 90.9459 144.067 75.2125 135.8 61.4792C123.4 40.6792 96.8666 31.0792 73.1333 38.6792ZM108.867 45.8792C118.6 50.2792 128.6 60.0125 133.133 69.2125C136.467 75.8792 136.867 78.1459 136.867 90.0125C136.867 102.413 136.6 104.013 132.467 112.279C127.667 122.013 121 128.813 110.2 134.413C104.333 137.613 102.067 138.013 90.2 138.013C77.5333 138.013 76.2 137.746 67.6666 133.346C56.8666 127.879 48.4666 118.546 44.2 106.946C38.4666 91.7459 42.3333 70.9459 53.5333 58.2792C59.4 51.4792 64.4666 48.0125 74.0666 44.4125C84.7333 40.4125 98.0667 40.9459 108.867 45.8792Z" fill="black"/>
<path d="M78.4668 53.8792C75.6668 54.9458 71.1334 57.2125 68.2001 59.2125C46.7334 73.3458 46.7334 107.079 68.2001 121.612C88.4668 135.346 117 126.546 125 104.146C127.267 98.0125 127.4 83.8792 125.267 76.8125C122.733 68.2792 110.733 56.8125 101.667 54.1458C92.8668 51.6125 85.2668 51.4792 78.4668 53.8792ZM100.2 60.0125C111.4 63.0792 119.933 74.6792 121.133 88.2792C121.8 95.0792 121.4 97.0792 117.8 104.412C113.4 113.346 108.6 117.746 99.9334 120.812C75.4001 129.479 50.6001 104.412 59.4001 79.8792C65.1334 63.6125 82.6001 55.0792 100.2 60.0125Z" fill="black"/>
<path d="M80.7335 70.5454C77.0001 72.1454 69.8001 80.6788 68.7335 84.8121C65.5335 97.6121 74.6001 110.412 87.9335 111.745C100.733 112.945 110.867 103.745 110.867 90.8121C110.867 83.0788 108.867 78.2788 103.667 73.3454C100.867 70.8121 98.4668 70.0121 91.8001 69.7454C87.2668 69.4788 82.3335 69.8788 80.7335 70.5454ZM98.0668 77.2121C106.6 82.9454 108.067 93.0788 101.4 100.545C96.4668 106.279 90.6001 107.745 83.8001 104.945C76.7335 101.879 74.2001 97.0788 74.7335 86.8121C74.8668 85.2121 76.8668 81.7454 79.4001 79.2121C84.7335 73.8788 91.8001 73.0788 98.0668 77.2121Z" fill="black"/>
<path d="M82.8668 84.0117C79.0001 87.8784 79.4001 93.8784 83.6668 97.2117C85.6668 98.8117 88.2001 100.012 89.5334 100.012C90.8668 100.012 93.4001 98.8117 95.4001 97.2117C99.6668 93.8784 100.2 86.9451 96.4668 83.6117C93.1334 80.5451 86.0668 80.8117 82.8668 84.0117Z" fill="black"/>
</svg>
