<svg width="180" height="180" viewBox="0 0 180 180" fill="none" xmlns="http://www.w3.org/2000/svg">
<rect x="0.1" y="0.1" width="179.8" height="179.8" fill="white" stroke="#CBCBCB" stroke-width="0.2"/>
<path d="M72.5514 27.0897C57.0847 31.223 40.6847 44.5563 32.818 59.3563C19.218 84.9563 23.618 115.49 44.018 136.29C51.618 143.89 65.7514 151.756 76.5514 154.156C91.0847 157.49 107.885 154.956 122.285 147.356C155.751 129.49 166.151 85.623 144.818 53.223C140.285 46.2897 128.951 35.8897 122.018 32.2897C108.018 25.0897 87.8847 22.9563 72.5514 27.0897ZM102.018 31.623C119.485 34.823 136.818 48.6897 144.818 65.7563C150.551 78.023 151.618 95.0897 147.351 107.89C141.885 124.29 132.018 135.756 116.285 143.89C108.151 148.156 107.485 148.29 91.2181 148.29C75.2181 148.29 74.1514 148.156 65.618 144.023C44.418 134.023 31.218 113.356 31.218 90.423C31.218 73.8897 36.1514 61.8897 47.7514 49.3563C61.8847 34.1563 81.3514 27.7563 102.018 31.623Z" fill="black"/>
<path d="M82.2846 55.6237C76.1513 56.957 66.418 63.0903 63.218 67.4903C52.418 82.6903 54.1513 104.557 66.9513 115.757C78.6846 126.024 92.9513 127.89 106.951 120.824C120.685 114.024 126.818 102.824 125.485 86.957C124.151 68.957 110.951 55.8903 93.218 54.957C89.618 54.8237 84.6846 55.0903 82.2846 55.6237ZM102.418 62.8237C119.618 70.0237 125.618 92.157 114.285 107.357C103.218 122.157 83.218 123.357 70.018 110.024C56.018 96.157 60.418 71.8903 78.5513 63.4903C84.9513 60.557 96.1513 60.157 102.418 62.8237Z" fill="black"/>
<path d="M84.9513 76.9571C80.6846 78.6904 77.4846 84.2904 77.4846 90.4238C77.4846 94.6904 78.418 96.6904 81.4846 99.8904C90.418 108.824 104.551 102.424 104.551 89.6238C104.551 79.3571 94.6846 73.0904 84.9513 76.9571Z" fill="black"/>
</svg>
