<svg width="180" height="180" viewBox="0 0 180 180" fill="none" xmlns="http://www.w3.org/2000/svg">
<rect x="0.1" y="0.1" width="179.8" height="179.8" fill="white" stroke="#CBCBCB" stroke-width="0.2"/>
<path d="M105.733 34.2271C102.933 34.8938 98.2667 37.0271 95.2 39.0271C90.8 41.9605 89.3333 42.3605 87.6 41.0271C73.8667 31.0271 53.3333 31.9605 41.6 43.1605C34.8 49.5605 32.1333 56.3605 32.1333 67.4271C32 75.9605 32.5333 78.3605 35.7333 83.9605L39.3333 90.4938L35.7333 95.8271C32.4 100.627 32 102.36 32 112.627C32 122.76 32.4 124.76 35.4667 129.427C41.8667 139.027 48.9333 144.094 58.8 145.96C67.2 147.56 77.0667 145.694 83.7333 141.294L88.9333 137.827L96.6667 141.96C102.933 145.294 105.867 146.094 112.8 146.094C139.333 146.094 155.467 119.96 143.6 96.3605C140.267 89.8271 140.133 88.7605 141.733 86.4938C147.333 79.2938 149.2 66.3605 146.133 55.6938C143.733 47.1605 133.867 37.5605 124.8 34.8938C116.8 32.4938 113.2 32.4938 105.733 34.2271ZM80.8 44.0938L86 47.4271L83.2 52.8938C80.1333 59.0271 79.4667 72.2271 81.8667 78.6271C82.8 80.7605 83.2 82.6271 82.9333 83.0271C82.6667 83.2938 80.2667 82.4938 77.6 81.4271C70 78.2271 58.2667 78.8938 50.6667 82.7605C45.7333 85.1605 43.8667 85.5605 42.9333 84.3605C34.8 72.7605 37.3333 53.2938 47.8667 45.6938C58 38.4938 71.4667 37.8271 80.8 44.0938ZM129.6 44.2271C136.533 49.8271 140.4 55.8271 141.467 62.8938C142.533 69.9605 140.133 79.6938 136.533 82.8938C134.267 85.0271 133.867 85.0271 130.4 82.7605C125.067 79.2938 108.4 78.3605 101.467 81.2938C98.6667 82.4938 96.1333 83.4271 95.8667 83.4271C95.6 83.4271 96.4 81.1605 97.6 78.4938C100.133 72.2271 99.3333 57.0271 96.1333 52.2271C94.9333 50.3605 94 48.2271 94 47.5605C94 46.8938 97.2 44.7605 101.067 42.7605C106.8 39.8271 109.333 39.2938 116.267 39.6938C123.067 40.0938 125.467 40.8938 129.6 44.2271ZM92.6667 60.2271C94 65.0271 94 67.6938 92.8 73.5605C90.9333 81.5605 89.8667 82.3605 87.6 77.4271C84.8 71.2938 86.5333 54.0938 90 54.0938C90.5333 54.0938 91.7333 56.8938 92.6667 60.2271ZM75.2 86.6271C77.7333 87.5605 80.1333 89.0271 80.4 89.8271C81.0667 92.0938 72.5333 95.4271 66.1333 95.4271C60.2667 95.4271 50 91.9605 50 89.9605C50 89.2938 50.1333 88.7605 50.4 88.7605C50.5333 88.7605 53.0667 87.8271 56 86.7605C62.5333 84.4938 69.0667 84.3605 75.2 86.6271ZM124 86.6271C130 89.1605 129.867 90.7605 123.733 92.8938C117.467 95.0271 107.2 94.8938 102 92.7605C96.8 90.6271 96.9333 89.4271 103.067 87.0271C109.333 84.3605 118.133 84.2271 124 86.6271ZM138.267 99.0271C144.4 109.294 142.4 123.16 133.6 131.96C123.467 142.094 107.467 143.56 96.6667 135.427L93.4667 133.027L95.8667 127.827C99.3333 120.76 100 109.427 97.6 102.36C95.7333 97.0271 95.7333 96.6271 97.7333 97.4271C108.133 101.694 121.733 101.56 128.933 97.0271C134.4 93.6938 135.333 93.9605 138.267 99.0271ZM52.1333 98.2271C57.4667 100.627 60.1333 101.027 68.1333 100.36C73.4667 99.9605 79.0667 98.8938 80.8 98.0938C83.4667 96.6271 83.6 96.7605 82.8 98.8938C79.4667 107.56 79.7333 121.96 83.3333 128.76C85.6 132.894 84.1333 135.16 77.7333 138.094C65.4667 143.694 50.8 140.094 43.3333 129.96C39.0667 123.96 38.2667 121.827 37.4667 114.094C36.8 107.294 41.3333 95.4271 44.6667 95.4271C45.2 95.4271 48.5333 96.7605 52.1333 98.2271ZM92.1333 104.094C93.0667 109.56 92.2667 124.227 90.9333 125.694C88.8 127.694 86.8 123.027 86.2667 115.027C85.4667 102.227 90.1333 93.5605 92.1333 104.094Z" fill="black"/>
</svg>
