<svg width="180" height="180" viewBox="0 0 180 180" fill="none" xmlns="http://www.w3.org/2000/svg">
<rect x="0.1" y="0.1" width="179.8" height="179.8" fill="white" stroke="#CBCBCB" stroke-width="0.2"/>
<path d="M74.1903 59.7246C65.1236 64.3913 60.0569 69.9913 56.9903 79.0579C54.1903 87.3246 54.3236 94.2579 57.5236 102.925C65.6569 124.658 95.6569 132.125 113.124 116.791C121.257 109.591 124.59 103.058 125.257 92.5246C125.79 84.6579 125.257 82.1246 122.724 76.6579C116.59 63.4579 106.59 56.9246 91.5236 56.1246C83.2569 55.7246 81.2569 56.1246 74.1903 59.7246ZM99.5236 62.6579C106.857 64.6579 116.457 74.7913 118.724 82.9246C124.057 101.591 107.657 120.925 88.3236 119.058C72.1903 117.458 61.5236 105.725 61.5236 89.5913C61.5236 70.2579 79.7903 57.3246 99.5236 62.6579Z" fill="black"/>
</svg>
