<svg width="180" height="180" viewBox="0 0 180 180" fill="none" xmlns="http://www.w3.org/2000/svg">
<rect x="0.1" y="0.1" width="179.8" height="179.8" fill="white" stroke="#CBCBCB" stroke-width="0.2"/>
<path d="M75.0924 25.884C51.6258 31.884 33.8924 49.2173 27.4924 72.5507C12.2924 127.351 69.4924 172.551 120.959 146.417C130.826 141.351 143.226 128.417 148.559 117.484C164.426 84.8173 150.292 45.6173 117.226 30.284C107.892 26.0173 105.492 25.484 93.4924 25.084C86.0258 24.8173 77.7591 25.2173 75.0924 25.884ZM100.826 31.2173C118.692 34.5507 135.359 47.3507 143.492 64.0173C151.226 79.6173 150.426 102.284 141.626 117.884C129.359 139.484 104.559 151.617 80.6924 147.484C51.2258 142.417 31.3591 118.951 31.3591 89.084C31.3591 66.5507 43.3591 46.8173 63.3591 36.8173C76.2924 30.284 87.3591 28.684 100.826 31.2173Z" fill="black"/>
<path d="M82.4257 77.8837C74.6924 82.5504 73.8924 94.017 80.959 99.8837C90.0257 107.484 103.359 101.484 103.359 89.617C103.226 77.7504 92.559 71.7504 82.4257 77.8837Z" fill="black"/>
</svg>
