<svg width="180" height="180" viewBox="0 0 180 180" fill="none" xmlns="http://www.w3.org/2000/svg">
<rect x="0.1" y="0.1" width="179.8" height="179.8" fill="white" stroke="#CBCBCB" stroke-width="0.2"/>
<path d="M79.6676 56.2908C64.7342 61.2242 55.1342 74.1575 55.0009 89.7575C54.8676 109.891 69.8009 125.091 89.6676 125.091C119.134 125.091 135.001 90.9575 116.868 66.8242C110.068 57.6242 91.5342 52.4241 79.6676 56.2908ZM102.734 63.6242C112.334 68.0242 119.268 79.2242 119.268 90.5575C119.268 93.0908 117.801 98.1575 116.068 101.891C108.334 118.424 89.1342 124.424 74.3342 114.824C59.0009 104.957 56.2009 82.8242 68.8676 70.1575C71.8009 67.2242 76.0676 64.0242 78.3342 63.0908C84.4676 60.4242 96.2009 60.6908 102.734 63.6242Z" fill="black"/>
<path d="M83.9343 77.3573C73.401 83.0906 74.4677 99.624 85.5343 103.357C94.4677 106.424 103.268 99.624 103.268 89.8906C103.134 79.3573 92.601 72.5573 83.9343 77.3573Z" fill="black"/>
</svg>
