<svg width="540" height="540" viewBox="0 0 540 540" fill="none" xmlns="http://www.w3.org/2000/svg">
<rect x="0.1" y="0.1" width="179.8" height="179.8" fill="white" stroke="#CBCBCB" stroke-width="0.2"/>
<rect x="180.1" y="0.1" width="179.8" height="179.8" fill="white" stroke="#CBCBCB" stroke-width="0.2"/>
<rect x="360.1" y="0.1" width="179.8" height="179.8" fill="white" stroke="#CBCBCB" stroke-width="0.2"/>
<rect x="0.1" y="180.1" width="179.8" height="179.8" fill="white" stroke="#CBCBCB" stroke-width="0.2"/>
<rect x="180.1" y="180.1" width="179.8" height="179.8" fill="white" stroke="#CBCBCB" stroke-width="0.2"/>
<rect x="360.1" y="180.1" width="179.8" height="179.8" fill="white" stroke="#CBCBCB" stroke-width="0.2"/>
<rect x="0.1" y="360.1" width="179.8" height="179.8" fill="white" stroke="#CBCBCB" stroke-width="0.2"/>
<rect x="180.1" y="360.1" width="179.8" height="179.8" fill="white" stroke="#CBCBCB" stroke-width="0.2"/>
<rect x="360.1" y="360.1" width="179.8" height="179.8" fill="white" stroke="#CBCBCB" stroke-width="0.2"/>
<path d="M444.909 459.909V459.636C444.939 456.742 445.242 454.439 445.818 452.727C446.394 451.015 447.212 449.629 448.273 448.568C449.333 447.508 450.606 446.53 452.091 445.636C452.985 445.091 453.788 444.447 454.5 443.705C455.212 442.947 455.773 442.076 456.182 441.091C456.606 440.106 456.818 439.015 456.818 437.818C456.818 436.333 456.47 435.045 455.773 433.955C455.076 432.864 454.144 432.023 452.977 431.432C451.811 430.841 450.515 430.545 449.091 430.545C447.848 430.545 446.652 430.803 445.5 431.318C444.348 431.833 443.386 432.644 442.614 433.75C441.841 434.856 441.394 436.303 441.273 438.091H435.545C435.667 435.515 436.333 433.311 437.545 431.477C438.773 429.644 440.386 428.242 442.386 427.273C444.402 426.303 446.636 425.818 449.091 425.818C451.758 425.818 454.076 426.348 456.045 427.409C458.03 428.47 459.561 429.924 460.636 431.773C461.727 433.621 462.273 435.727 462.273 438.091C462.273 439.758 462.015 441.265 461.5 442.614C461 443.962 460.273 445.167 459.318 446.227C458.379 447.288 457.242 448.227 455.909 449.045C454.576 449.879 453.508 450.758 452.705 451.682C451.902 452.591 451.318 453.674 450.955 454.932C450.591 456.189 450.394 457.758 450.364 459.636V459.909H444.909ZM447.818 473.364C446.697 473.364 445.735 472.962 444.932 472.159C444.129 471.356 443.727 470.394 443.727 469.273C443.727 468.152 444.129 467.189 444.932 466.386C445.735 465.583 446.697 465.182 447.818 465.182C448.939 465.182 449.902 465.583 450.705 466.386C451.508 467.189 451.909 468.152 451.909 469.273C451.909 470.015 451.72 470.697 451.341 471.318C450.977 471.939 450.485 472.439 449.864 472.818C449.258 473.182 448.576 473.364 447.818 473.364Z" fill="black"/>
<path d="M34.7333 74.7335C34.7333 91.1335 34.3333 110.6 33.8 117.933L33 131.533L44.2 132.333C50.3333 132.733 75.6667 133.4 100.467 133.8L145.4 134.467V131.133V127.8H117C101.267 127.8 77.5333 127.4 64.2 126.867L39.8 126.067L40.2 85.9335L40.6 45.8001L37.6667 45.4001L34.7333 45.0001V74.7335Z" fill="black"/>
<path d="M214.6 47.1958C214.333 47.9958 213.933 67.4624 213.533 90.2624L213 131.996H216.2C219.267 131.996 219.267 131.996 219.267 113.596C219.267 103.329 219.667 86.1291 220.2 75.0624L221 55.0624L227.267 59.8624C249.933 77.3291 261.8 87.5958 261.933 89.5958C261.933 93.0624 266.733 97.3291 270.733 97.3291C273 97.3291 278.867 101.062 288.333 108.662C296.2 114.929 306.733 123.196 311.8 127.196C316.867 131.196 321.8 134.129 322.733 133.729C324.867 132.929 325.267 128.396 323.267 127.729C322.6 127.462 312.067 119.462 300.067 109.996C283.533 96.9291 278.067 91.8624 278.067 89.5958C277.933 85.1958 273.4 81.3291 269.4 82.1291C266.6 82.5291 262.733 80.1291 249 69.1958C239.533 61.7291 231 54.6624 229.933 53.5958C228.2 51.9958 234.067 51.8624 277 52.6624L326.2 53.5958L325.667 50.3958C325.133 46.7958 331.667 47.1958 259.533 46.2624C226.733 45.7291 215 45.9958 214.6 47.1958Z" fill="black"/>
<path d="M395.492 48.6708C395.625 50.5375 397.758 53.2042 401.758 56.2708C405.225 58.8042 412.825 64.6708 418.692 69.3375C424.692 74.0042 432.292 80.0042 435.758 82.6708C439.225 85.3375 442.025 88.5375 442.158 89.7375C442.158 93.6042 446.692 97.7375 451.092 98.1375C454.292 98.2708 460.292 102.271 474.025 113.071C484.292 121.071 492.692 128.004 492.692 128.537C492.825 129.071 487.225 129.204 480.558 128.937C473.758 128.537 451.492 128.004 431.092 127.604C398.425 127.071 394.025 127.204 393.225 129.071C392.825 130.137 392.958 131.604 393.625 132.137C394.292 132.804 419.625 133.604 449.892 134.137L504.825 134.938V132.004C504.692 130.004 502.692 127.471 499.092 124.671C496.025 122.271 486.958 115.204 478.958 108.937C470.958 102.537 462.958 96.4042 461.225 95.3375C459.492 94.1375 458.158 92.0042 458.158 90.2708C458.158 86.0042 454.692 82.9375 450.025 82.9375C447.225 82.9375 442.292 79.8708 431.358 71.2042C423.092 64.8042 414.558 58.0042 412.292 56.0042L408.158 52.4042L457.892 53.2042C507.225 54.0042 507.492 54.0042 507.492 51.3375C507.492 48.6708 506.558 48.5375 466.558 47.7375C443.892 47.3375 418.692 46.6708 410.558 46.2708C395.758 45.7375 395.492 45.7375 395.492 48.6708Z" fill="black"/>
<path d="M85.4002 83.7992C80.2002 88.9992 83.2669 96.1992 90.7335 96.1992C95.4002 96.1992 98.7335 93.1326 98.7335 88.8659C98.7335 85.6659 94.0669 81.1326 90.7335 81.1326C89.2669 81.1326 86.8669 82.3326 85.4002 83.7992Z" fill="black"/>
<path d="M127.667 236.108C95.2667 260.508 94.3333 261.175 89.6667 261.175C85 261.175 81 264.775 81 269.175C80.8667 270.908 70.2 279.175 41.4 299.842C35.8 303.842 33 306.775 33 308.642C33 311.442 33.4 311.442 87.8 312.375C118.067 312.908 143.133 312.908 143.667 312.242C144.2 311.708 144.867 292.242 145.133 269.175C145.8 219.175 147 221.575 127.667 236.108ZM139.133 271.442C138.733 291.042 138.067 307.042 137.933 307.175C137.8 307.308 116.733 307.042 91 306.642L44.3333 305.842L52.3333 299.975C56.7333 296.642 65.8 289.842 72.4667 284.908C80.7333 278.775 85.8 275.842 88.3333 275.842C92.7333 275.842 97 272.508 97 269.175C97 267.042 103 262.242 131.667 241.308C135.667 238.375 139.267 235.975 139.533 235.842C139.8 235.842 139.667 251.842 139.133 271.442Z" fill="black"/>
<path d="M214.933 244.267C214.4 254.267 214 273.334 214 286.801V311.201L218.4 311.867C220.667 312.267 245.6 312.801 273.733 313.201C323.467 313.867 324.667 313.867 324.667 311.334C324.667 309.601 317.2 302.801 301.333 290.401C288.533 280.267 278.133 271.067 278 269.867C278 268.534 284.267 263.067 293.067 256.534C323.333 234.134 326 232.001 326 229.734C326 226.001 321.6 226.934 315.2 232.001C312 234.534 301.6 242.401 292.133 249.334C278.4 259.467 274.133 262.001 270.4 262.001C266.667 262.001 262.4 259.201 243.467 244.001C231.067 234.134 219.733 226.001 218.4 226.001C216 226.001 215.733 227.334 214.933 244.267ZM242.533 251.334C255.867 261.867 261.867 267.467 261.867 269.334C261.867 271.201 257.867 274.934 249.067 281.334C242 286.401 232.8 293.201 228.533 296.267C224.4 299.467 220.533 302.001 220.133 302.001C219.6 302.001 219.467 295.867 219.867 288.267C220.267 280.801 220.533 265.734 220.533 254.934C220.667 243.334 221.2 235.334 221.867 235.601C222.533 235.734 231.867 242.934 242.533 251.334ZM291.067 290.134C300.4 297.601 309.067 304.401 310.4 305.201C311.6 306.001 312.667 306.934 312.667 307.334C312.667 308.401 229.467 307.201 228.267 306.134C227.6 305.467 231.867 301.734 237.6 297.601C243.333 293.601 251.867 287.201 256.667 283.467C269.333 273.467 270.4 273.734 291.067 290.134Z" fill="black"/>
<path d="M393.8 232.934C393.4 236.801 393 256.401 393 276.267C393 310.934 393.133 312.667 395.533 312.667C397.8 312.667 398.067 310.534 399 274.001C399.533 252.667 400.2 235.334 400.6 235.334C400.867 235.334 406.733 239.734 413.4 245.067C420.2 250.401 429.4 257.734 434.067 261.334C439.933 265.867 442.333 268.534 442.333 270.801C442.333 274.401 447.267 278.267 451.267 277.734C453.933 277.334 464.467 285.067 490.867 306.267C499.933 313.734 502.867 315.201 504.067 312.934C504.467 312.401 505.133 292.934 505.533 269.601C506.467 227.467 506.467 227.334 503.8 227.334C502.067 227.334 500.867 228.267 500.867 229.601C500.733 230.934 500.467 233.467 500.2 235.334C500.067 237.201 499.8 253.201 499.667 270.801C499.533 288.534 499.133 303.334 498.867 303.734C498.467 304.134 489 297.201 477.933 288.267C463.133 276.267 457.533 270.934 456.867 268.134C455.533 263.467 453.667 262.001 448.467 262.001C444.6 262.001 444.067 261.601 414.333 237.601C406.333 231.201 398.733 226.001 397.267 226.001C395.133 226.001 394.6 227.201 393.8 232.934Z" fill="black"/>
<path d="M34.9747 411.267C34.7081 414.867 34.3081 433.401 34.1747 452.601C34.0414 471.934 33.6414 488.601 33.2414 489.667C31.5081 494.067 39.3747 491.667 48.3081 485.001C80.9747 460.601 86.1747 457.134 90.0414 457.267C94.8414 457.401 98.0414 455.001 98.0414 451.001C98.0414 448.734 102.708 444.601 117.508 433.534C128.308 425.534 138.041 418.467 139.108 417.801C140.975 416.734 141.108 420.867 140.308 455.534L139.508 494.334H142.708H146.041V471.267C146.175 458.734 146.441 439.134 146.841 427.934L147.641 407.667H144.575C142.975 407.667 138.575 409.934 134.841 412.734C98.4414 440.201 95.1081 442.334 90.8414 442.334C86.0414 442.334 84.4414 443.667 82.5747 449.134C81.7747 451.534 74.8414 457.667 62.0414 467.267C51.3747 475.267 42.0414 482.201 41.1081 482.734C39.7747 483.534 39.6414 475.134 40.3081 444.334C41.1081 405.267 41.1081 405.001 38.4414 405.001C36.0414 405.001 35.5081 406.067 34.9747 411.267Z" fill="black"/>
<path d="M210.349 407.799C210.349 409.932 211.149 410.732 213.415 410.866C215.015 410.866 218.215 411.132 220.349 411.399C222.615 411.532 239.015 411.932 257.015 412.199C275.015 412.466 293.815 412.999 298.882 413.399L308.082 414.066L288.882 428.332C273.815 439.666 268.749 442.732 265.415 442.732C261.015 442.732 257.015 446.466 257.015 450.732C256.882 452.599 248.749 458.999 220.082 480.066C210.082 487.266 207.149 490.866 210.082 492.466C210.615 492.866 235.415 493.533 265.415 494.066C314.749 494.866 319.815 494.733 320.482 492.733C321.015 491.533 320.882 490.199 320.482 489.666C319.949 489.266 297.815 488.599 271.282 488.333C244.749 488.066 222.749 487.533 222.349 487.133C221.949 486.733 223.149 485.399 225.015 484.199C226.749 482.999 235.682 476.466 244.749 469.666C253.949 462.866 262.349 457.399 263.549 457.666C267.949 458.199 271.815 455.932 272.615 452.066C273.149 448.999 277.549 444.999 293.549 432.999C304.615 424.599 315.282 416.732 317.415 415.399C319.682 413.932 321.015 411.932 321.015 409.932V406.732H296.749C283.282 406.732 258.349 406.332 241.415 405.799L210.349 404.999V407.799Z" fill="black"/>
</svg>
