<svg width="180" height="180" viewBox="0 0 180 180" fill="none" xmlns="http://www.w3.org/2000/svg">
<rect x="0.1" y="0.1" width="179.8" height="179.8" fill="white" stroke="#CBCBCB" stroke-width="0.2"/>
<path d="M34.1583 72.5996C34.1583 87.9329 33.7583 107.266 33.225 115.8C32.825 124.466 32.9583 131.533 33.625 131.933C34.2917 132.333 59.7583 133.133 90.2917 133.666L145.758 134.6L146.558 108.333C147.092 93.7996 147.492 73.9329 147.492 64.3329V46.7329L110.558 45.9329C90.1583 45.3996 64.6917 44.9996 53.8917 44.9996H34.1583V72.5996ZM133.092 52.8663C133.758 53.3996 125.492 60.1996 114.825 68.0663C100.425 78.7329 94.425 82.3329 91.4917 82.3329C88.425 82.3329 83.0917 78.8663 68.1583 66.9996C57.4917 58.4663 48.825 51.2663 48.825 50.9996C48.825 49.9329 132.025 51.9329 133.092 52.8663ZM56.5583 65.9329C79.3583 84.3329 83.4917 87.9329 83.4917 89.5329C83.4917 90.8663 43.8917 120.866 40.425 122.2C39.4917 122.466 39.3583 115.133 39.8917 99.5329C40.425 86.7329 40.825 71.3996 40.825 65.2663C40.825 59.2663 41.0917 54.3329 41.4917 54.3329C41.8917 54.3329 48.6917 59.5329 56.5583 65.9329ZM141.492 67.2663C141.092 72.9996 140.825 88.0663 140.825 100.6C140.825 115.933 140.292 123.666 139.358 123.666C138.692 123.666 134.025 120.2 129.092 115.933C124.158 111.8 115.225 104.466 109.092 99.7996C102.958 95.1329 98.1583 90.4663 98.425 89.5329C98.825 87.7996 139.225 56.9996 141.092 56.9996C141.625 56.9996 141.758 61.6663 141.492 67.2663ZM114.692 112.466C125.492 121 134.025 128.2 133.892 128.333C132.825 129.266 47.4917 127.133 47.7583 126.2C48.025 125.666 56.5583 118.866 66.825 111.133C91.7583 92.5996 89.4917 92.4663 114.692 112.466Z" fill="black"/>
</svg>
