<svg width="180" height="180" viewBox="0 0 180 180" fill="none" xmlns="http://www.w3.org/2000/svg">
<rect x="0.1" y="0.1" width="179.8" height="179.8" fill="white" stroke="#CBCBCB" stroke-width="0.2"/>
<path d="M33.3936 65.2667C33.3936 75.4 32.9936 94.8667 32.4603 108.733C31.6603 133.4 31.6603 133.667 34.4603 133.667C35.9269 133.667 37.5269 133.133 37.9269 132.6C38.3269 131.933 38.7269 120.067 38.9936 106.2C39.1269 92.3333 39.6603 76.6 40.0603 71.2667L40.7269 61.4L51.5269 78.6C57.3936 87.9333 67.6603 104.2 74.1936 114.6C83.3936 129.267 86.7269 133.533 88.8603 133.667C91.9269 133.667 92.8603 132.333 124.594 85C132.594 73.2667 139.26 63.4 139.66 63C139.927 62.6 139.794 78.7333 139.26 98.7333L138.327 135H141.26C142.86 135 144.46 134.2 144.727 133.4C144.994 132.467 145.394 113.267 145.66 90.6L146.06 49.6667H143.127C141.127 49.6667 139.127 51.6667 136.327 55.9333C134.06 59.5333 127.394 69.5333 121.394 78.3333C115.26 87.1333 105.527 101.4 99.7936 110.2L89.1269 126.067L86.3269 121.533C84.8603 119 81.6603 113.933 79.3936 110.333C77.1269 106.6 67.1269 90.8667 57.2603 75.4C42.7269 52.2 38.8603 47 36.4603 47C33.3936 47 33.3936 47.2667 33.3936 65.2667Z" fill="black"/>
<path d="M83.5267 85.1346C78.86 89.8013 82.7267 97.668 89.66 97.668C91.5267 97.668 93.9267 96.6013 95.1267 95.268C99.7933 90.068 96.46 83.0013 89.3933 83.0013C87.26 83.0013 84.5933 83.9346 83.5267 85.1346Z" fill="black"/>
</svg>
