<svg width="180" height="180" viewBox="0 0 180 180" fill="none" xmlns="http://www.w3.org/2000/svg">
<rect x="0.1" y="0.1" width="179.8" height="179.8" fill="white" stroke="#CBCBCB" stroke-width="0.2"/>
<path d="M140.533 56.356C140.4 62.356 140.133 67.6893 140 68.4893C139.867 69.156 139.6 82.756 139.467 98.6227L139.333 127.289L86.6667 126.889L34 126.489V129.423V132.489H81.2C107.067 132.489 131.867 132.889 136.267 133.289L144.267 134.223L145.2 107.689C145.6 93.0227 146.133 73.2893 146.133 63.8227C146.267 47.156 146.267 46.4893 143.467 46.0893C140.8 45.6893 140.667 46.2227 140.533 56.356Z" fill="black"/>
<path d="M84.8002 83.9559C82.0002 87.4226 82.2668 90.0892 85.7335 94.0892C88.4002 97.2892 92.0002 97.1559 95.3335 93.8226C98.9335 90.2226 98.8002 85.1559 95.0668 82.6226C90.8002 79.5559 87.8668 79.9559 84.8002 83.9559Z" fill="black"/>
</svg>
