<svg width="180" height="180" viewBox="0 0 180 180" fill="none" xmlns="http://www.w3.org/2000/svg">
<rect x="0.1" y="0.1" width="179.8" height="179.8" fill="white" stroke="#CBCBCB" stroke-width="0.2"/>
<path d="M34.3847 93.9339C33.8514 117.667 33.8514 137.401 34.5181 137.934C35.0514 138.601 60.2514 139.401 90.3847 139.934L145.185 140.867L145.985 110.467C147.185 71.0005 147.185 54.2005 145.985 53.5338C145.318 53.1338 120.251 52.4672 90.1181 51.9338L35.3181 51.0005L34.3847 93.9339ZM108.251 58.0672C118.918 58.2005 130.518 58.6005 133.985 59.1338L140.518 59.9338L140.251 88.6005C140.118 104.334 139.851 118.734 139.585 120.601C139.451 122.467 139.185 126.334 139.051 129.401L138.918 134.867L89.9847 134.201C62.9181 133.934 40.7847 133.401 40.5181 133.267C39.8514 132.734 40.2514 73.8005 40.9181 70.6005C41.1847 69.1339 41.4514 65.2672 41.4514 62.0672L41.5847 56.2005L65.3181 57.1338C78.2514 57.5338 97.5847 58.0672 108.251 58.0672Z" fill="black"/>
<path d="M85.5849 89.934C78.7849 96.734 86.5182 106.467 95.0516 101.934C98.1182 100.201 98.5182 92.4673 95.7182 90.0673C92.3849 87.2673 88.2516 87.2673 85.5849 89.934Z" fill="black"/>
</svg>
