<svg width="180" height="180" viewBox="0 0 180 180" fill="none" xmlns="http://www.w3.org/2000/svg">
<rect x="0.1" y="0.1" width="179.8" height="179.8" fill="white" stroke="#CBCBCB" stroke-width="0.2"/>
<path d="M36.1793 44.7733C35.7793 45.44 35.1126 64.7733 34.5793 87.9733C33.6459 128.507 33.6459 130.24 36.0459 130.907C37.5126 131.307 62.3126 131.84 91.2459 132.107C143.113 132.507 143.913 132.507 144.313 129.84C144.579 127.84 139.113 122.773 121.246 108.507C103.913 94.64 97.9126 89.04 97.9126 86.9067C97.9126 82.7733 94.4459 79.84 89.5126 79.84C86.1793 79.84 82.3126 77.44 71.9126 69.04C42.7126 45.44 37.7793 42.1067 36.1793 44.7733ZM57.5126 65.84C65.3793 72.1067 74.4459 79.1733 77.5126 81.5733C80.5793 83.84 83.1126 86.7733 83.2459 87.9733C83.2459 91.44 86.4459 94.64 90.3126 94.9067C92.8459 95.04 100.446 100.24 113.379 110.507L132.579 125.84L111.646 126.24C100.046 126.373 79.2459 126.107 65.3793 125.573L40.3126 124.507L40.4459 94.5067C40.5793 77.9733 40.9793 63.3067 41.2459 61.84C41.5126 60.3733 41.7793 58.1067 41.7793 56.7733C41.9126 55.5733 42.1793 54.5067 42.4459 54.5067C42.8459 54.5067 49.5126 59.5733 57.5126 65.84Z" fill="black"/>
</svg>
