<svg width="180" height="180" viewBox="0 0 180 180" fill="none" xmlns="http://www.w3.org/2000/svg">
<rect x="0.1" y="0.1" width="179.8" height="179.8" fill="white" stroke="#CBCBCB" stroke-width="0.2"/>
<path d="M36.4339 46.0922C33.3672 47.1588 34.5672 49.8255 39.7672 53.8255C45.3672 58.2255 55.2339 66.2255 62.5672 72.4922C65.2339 74.7589 70.8339 79.1589 75.1006 82.3589C79.2339 85.5589 82.7006 89.0255 82.7006 89.9589C82.7006 91.0255 71.7672 99.9589 58.4339 109.959C35.5006 126.892 30.5672 131.826 36.0339 132.759C37.1006 133.026 48.8339 125.026 62.0339 115.159C82.7006 99.6922 86.5672 97.2922 90.3006 97.6922C94.9672 98.0922 93.7672 97.2922 120.567 118.759C131.234 127.426 140.967 134.492 142.034 134.492C143.101 134.492 144.034 133.426 144.034 132.092C144.034 130.492 135.501 122.892 120.701 111.026C107.901 100.892 97.5006 91.8255 97.5006 91.1589C97.3672 88.7589 98.9672 87.4255 120.701 71.1589C144.434 53.2922 147.101 50.8922 146.034 49.1588C144.167 46.0922 139.767 48.7588 117.901 65.1589C88.3006 87.4255 91.1006 87.2922 67.6339 68.2255C57.9006 60.3589 48.9672 53.0255 47.7672 51.8255C44.0339 48.4922 38.1672 45.4255 36.4339 46.0922Z" fill="black"/>
</svg>
