<svg width="540" height="540" viewBox="0 0 540 540" fill="none" xmlns="http://www.w3.org/2000/svg">
<rect x="0.1" y="0.1" width="179.8" height="179.8" fill="white" stroke="#CBCBCB" stroke-width="0.2"/>
<rect x="180.1" y="0.1" width="179.8" height="179.8" fill="white" stroke="#CBCBCB" stroke-width="0.2"/>
<rect x="360.1" y="0.1" width="179.8" height="179.8" fill="white" stroke="#CBCBCB" stroke-width="0.2"/>
<rect x="0.1" y="180.1" width="179.8" height="179.8" fill="white" stroke="#CBCBCB" stroke-width="0.2"/>
<rect x="180.1" y="180.1" width="179.8" height="179.8" fill="white" stroke="#CBCBCB" stroke-width="0.2"/>
<rect x="360.1" y="180.1" width="179.8" height="179.8" fill="white" stroke="#CBCBCB" stroke-width="0.2"/>
<rect x="0.1" y="360.1" width="179.8" height="179.8" fill="white" stroke="#CBCBCB" stroke-width="0.2"/>
<rect x="180.1" y="360.1" width="179.8" height="179.8" fill="white" stroke="#CBCBCB" stroke-width="0.2"/>
<rect x="360.1" y="360.1" width="179.8" height="179.8" fill="white" stroke="#CBCBCB" stroke-width="0.2"/>
<path d="M246.4 67.2669C234.133 79.5336 224 90.0669 224 90.6003C224 92.2003 268 135 270.133 135.4C272.267 135.934 316 93.5336 316 91.0003C316 89.2669 271.733 45.0003 270.133 45.0003C269.333 45.0003 258.8 55.0003 246.4 67.2669Z" fill="black"/>
<path d="M426.4 67.0003C414 79.1337 404 89.5337 404 90.067C404 91.4003 449.067 135.667 450.4 135.667C450.933 135.667 461.467 125.534 473.867 113.134L496.4 90.467L491.333 84.7337C480.4 72.3337 452.267 45.0003 450.533 45.0003C449.467 45.0003 438.667 54.867 426.4 67.0003Z" fill="black"/>
<path d="M67.3433 65.0664C55.7433 76.5331 45.7433 86.9331 45.0766 87.9997C44.2766 89.4664 49.6099 95.4664 67.3433 112.533L90.5433 135.066L112.943 113.2C125.343 101.2 135.477 90.3997 135.61 89.3331C135.743 86.7997 93.0766 43.9997 90.4099 43.9997C89.3433 43.9997 78.9433 53.4664 67.3433 65.0664Z" fill="black"/>
<path d="M266.6 227.933C266.067 228.333 265.667 237.4 265.667 247.933V267H246.333C227.133 267 227 267 227 269.933C227 273 227.267 273 244.067 272.867C253.4 272.867 262.067 273.133 263.267 273.4C265.267 273.933 265.667 276.333 265.933 293.533C266.333 311.933 266.467 313 269 313C271.533 313 271.667 311.933 272.333 293L273 273L292.733 272.6C311.267 272.333 312.333 272.067 312.333 269.667C312.333 267.133 311.4 267 292.333 267H272.333V247C272.333 228.467 272.2 227 269.933 227C268.6 227 267 227.4 266.6 227.933Z" fill="black"/>
<path d="M446.552 246.733V266.333L427.352 266.066C410.952 265.8 408.018 266.066 407.352 267.8C406.952 269 406.818 270.466 407.352 271.133C407.752 271.8 416.685 272.333 427.352 272.333H446.552V290.6C446.552 309.533 447.352 313.266 451.085 311.933C452.952 311.266 453.218 308.2 453.218 291.666C453.218 277.133 453.618 272.333 454.952 272.333C455.752 272.2 464.685 272.066 474.552 271.933C491.618 271.666 492.552 271.533 492.552 269C492.552 266.466 491.618 266.333 473.218 266.066L453.885 265.8L453.485 246.466L453.085 227H449.885H446.552V246.733Z" fill="black"/>
<path d="M84.7333 246.6L84.3333 266.333L64.7333 266.733C46.2 267 45 267.266 45 269.666C45 272.066 46.2 272.333 64.7333 272.6L84.3333 273L84.7333 292.6C85 311.266 85.2667 312.333 87.6667 312.333C90.2 312.333 90.3333 311.4 90.3333 292.333V272.333H110.333C129.4 272.333 130.333 272.2 130.333 269.666C130.333 267.133 129.4 267 110.333 267H90.3333V247C90.3333 227.933 90.2 227 87.6667 227C85.2667 227 85 228.066 84.7333 246.6Z" fill="black"/>
<path d="M258.184 405.488C238.85 410.555 226.85 423.355 222.717 442.955C218.85 461.621 230.984 483.221 250.45 492.155C259.384 496.288 275.25 496.821 285.384 493.488C293.65 490.688 303.384 483.488 308.45 476.421C317.65 463.755 319.117 442.421 311.784 428.821C301.517 410.021 278.584 400.021 258.184 405.488ZM285.117 412.955C294.317 416.421 303.517 425.088 307.517 433.755C311.784 442.955 311.65 457.755 307.117 466.688C302.584 475.888 293.917 483.888 284.717 487.355C274.317 491.355 260.05 490.555 250.184 485.621C242.317 481.621 234.317 472.688 230.85 464.288C228.05 457.221 227.784 444.288 230.584 436.288C234.317 425.488 245.65 414.955 257.784 411.221C264.584 409.221 277.384 410.021 285.117 412.955Z" fill="black"/>
<path d="M71.5541 406.506C59.2875 411.039 51.0208 418.506 44.4875 431.172C40.2208 439.306 39.8208 455.572 43.5541 465.439C49.2875 480.639 65.2875 493.172 81.6875 495.306C90.2208 496.372 103.154 494.106 110.621 490.239C118.354 486.372 127.287 476.639 131.287 468.106C136.487 456.906 136.354 442.372 131.021 430.906C126.487 420.906 118.354 413.039 107.821 408.106C97.5541 403.306 82.0875 402.639 71.5541 406.506ZM106.087 413.706C120.487 421.039 127.687 431.972 128.621 448.106C129.154 457.439 128.887 459.172 125.554 465.972C109.821 498.239 63.8208 497.306 49.5541 464.506C46.2208 457.039 46.4875 442.372 49.9541 434.372C59.4208 412.639 85.2875 403.172 106.087 413.706Z" fill="black"/>
<path d="M444.909 459.909V459.636C444.939 456.742 445.242 454.439 445.818 452.727C446.394 451.015 447.212 449.629 448.273 448.568C449.333 447.508 450.606 446.53 452.091 445.636C452.985 445.091 453.788 444.447 454.5 443.705C455.212 442.947 455.773 442.076 456.182 441.091C456.606 440.106 456.818 439.015 456.818 437.818C456.818 436.333 456.47 435.045 455.773 433.955C455.076 432.864 454.144 432.023 452.977 431.432C451.811 430.841 450.515 430.545 449.091 430.545C447.848 430.545 446.652 430.803 445.5 431.318C444.348 431.833 443.386 432.644 442.614 433.75C441.841 434.856 441.394 436.303 441.273 438.091H435.545C435.667 435.515 436.333 433.311 437.545 431.477C438.773 429.644 440.386 428.242 442.386 427.273C444.402 426.303 446.636 425.818 449.091 425.818C451.758 425.818 454.076 426.348 456.045 427.409C458.03 428.47 459.561 429.924 460.636 431.773C461.727 433.621 462.273 435.727 462.273 438.091C462.273 439.758 462.015 441.265 461.5 442.614C461 443.962 460.273 445.167 459.318 446.227C458.379 447.288 457.242 448.227 455.909 449.045C454.576 449.879 453.508 450.758 452.705 451.682C451.902 452.591 451.318 453.674 450.955 454.932C450.591 456.189 450.394 457.758 450.364 459.636V459.909H444.909ZM447.818 473.364C446.697 473.364 445.735 472.962 444.932 472.159C444.129 471.356 443.727 470.394 443.727 469.273C443.727 468.152 444.129 467.189 444.932 466.386C445.735 465.583 446.697 465.182 447.818 465.182C448.939 465.182 449.902 465.583 450.705 466.386C451.508 467.189 451.909 468.152 451.909 469.273C451.909 470.015 451.72 470.697 451.341 471.318C450.977 471.939 450.485 472.439 449.864 472.818C449.258 473.182 448.576 473.364 447.818 473.364Z" fill="black"/>
</svg>
