<svg width="180" height="180" viewBox="0 0 180 180" fill="none" xmlns="http://www.w3.org/2000/svg">
<rect x="0.1" y="0.1" width="179.8" height="179.8" fill="white" stroke="#CBCBCB" stroke-width="0.2"/>
<path d="M42.9333 45.7006C42.4 46.1006 42 68.1006 42 94.3673V142.101H89.3333H136.667L136.4 93.7006L136 45.4339L89.8667 45.0339C64.5333 44.9006 43.4667 45.1672 42.9333 45.7006ZM86.6667 69.9672V89.3006L67.3333 89.1672H48L47.6 70.7672C47.3333 59.1672 47.7333 51.9672 48.6667 51.4339C49.3333 51.0339 58.2667 50.6339 68.2667 50.6339L86.6667 50.7672V69.9672ZM127.733 51.4339H131.467L131.067 70.3672L130.667 89.4339L111.733 89.7006L92.6667 90.1006V69.9672V49.9672L108.4 50.6339C116.933 51.0339 125.6 51.3006 127.733 51.4339ZM86.5333 115.701L86.4 136.101H67.2H48L47.6 115.701L47.2 95.4339H66.9333H86.6667L86.5333 115.701ZM131.333 116.101V136.767H112H92.6667V116.101V95.4339H112H131.333V116.101Z" fill="black"/>
</svg>
