<svg width="180" height="180" viewBox="0 0 180 180" fill="none" xmlns="http://www.w3.org/2000/svg">
<rect x="0.1" y="0.1" width="179.8" height="179.8" fill="white" stroke="#CBCBCB" stroke-width="0.2"/>
<path d="M73.0346 46.7468C64.3679 49.9468 60.9012 52.0801 54.2346 58.7468C44.5012 68.4801 40.5012 81.2801 42.5012 96.4801C46.7679 129.28 86.7679 146.613 115.435 128.08C125.035 121.813 130.635 115.147 133.435 106.347C137.435 94.2134 137.568 86.6134 134.101 75.8134C131.568 67.6801 129.835 64.8801 123.701 58.6134C110.101 45.1468 90.5012 40.4801 73.0346 46.7468ZM80.9012 51.8134C80.9012 52.3468 73.4346 59.8134 64.3679 68.4801C48.3679 83.4134 47.8346 83.8134 49.1679 79.0134C50.9012 72.3468 57.3012 62.6134 62.2346 58.8801C69.7012 53.4134 80.9012 49.1468 80.9012 51.8134ZM106.101 53.5468C115.301 57.6801 122.635 64.3468 126.635 72.2134C133.435 85.8134 131.035 85.1468 113.568 68.4801C104.368 59.8134 96.9012 52.3468 96.9012 51.6801C96.9012 50.0801 99.9679 50.6134 106.101 53.5468ZM105.701 73.6801L122.235 89.9468L106.635 105.68C97.9679 114.347 90.3679 121.413 89.7012 121.413C89.1679 121.413 81.1679 114.347 72.2346 105.68L55.8346 90.0801L72.1012 73.8134C80.9012 64.7468 88.5012 57.4134 88.7679 57.4134C89.0346 57.4134 96.6346 64.7468 105.701 73.6801ZM66.2346 112.88C80.1012 126.88 82.2346 129.547 79.0346 128.747C67.8346 126.213 57.3012 118.08 52.3679 108.213C48.5012 100.48 47.0346 96.0801 48.5012 96.0801C49.1679 96.0801 57.0346 103.68 66.2346 112.88ZM128.235 104.88C124.235 115.28 111.435 126.213 100.235 128.747C96.9012 129.547 98.7679 127.147 112.901 112.88C122.101 103.68 129.835 96.7468 130.101 97.5468C130.368 98.3468 129.435 101.68 128.235 104.88Z" fill="black"/>
</svg>
