<svg width="180" height="180" viewBox="0 0 180 180" fill="none" xmlns="http://www.w3.org/2000/svg">
<rect x="0.1" y="0.1" width="179.8" height="179.8" fill="white" stroke="#CBCBCB" stroke-width="0.2"/>
<path d="M79.6883 44.9477C60.355 49.8811 44.6216 67.7477 43.155 86.681C41.8216 102.948 49.155 118.414 62.755 127.881C86.355 144.281 118.622 136.548 132.088 111.348C138.222 99.881 139.155 85.6144 134.622 73.6144C130.622 63.081 121.155 53.0811 110.755 48.4144C101.822 44.4144 88.0883 42.8144 79.6883 44.9477ZM103.155 51.6144C113.288 54.6811 123.155 63.2144 128.222 72.9477C132.622 81.6144 132.622 97.6144 128.222 106.814C124.088 115.081 116.488 122.548 107.422 126.948C97.555 131.881 82.755 131.881 72.8883 127.081C58.355 120.014 50.755 108.814 49.6883 93.481C48.8883 81.081 51.6883 72.4144 59.2883 64.0144C66.4883 56.1477 74.755 51.7477 85.6883 50.4144C90.355 49.7477 94.2216 49.2144 94.2216 49.0811C94.355 49.0811 98.355 50.1477 103.155 51.6144Z" fill="black"/>
</svg>
