<svg width="180" height="180" viewBox="0 0 180 180" fill="none" xmlns="http://www.w3.org/2000/svg">
<rect x="0.1" y="0.1" width="179.8" height="179.8" fill="white" stroke="#CBCBCB" stroke-width="0.2"/>
<path d="M64.6 64.733C49.9333 79.3997 43 87.2663 43 89.2663C43 93.6663 85.8 136.333 90.0667 136.333C92.6 136.333 98.6 130.866 114.467 114.2C126.2 102.066 135.933 90.8663 136.067 89.3997C136.733 85.3997 94.3333 42.9997 89.6667 42.9997C87.1333 42.9997 81.1333 48.1997 64.6 64.733ZM114.067 75.533C121.133 82.8663 126.867 89.2663 126.733 89.7997C126.467 90.333 118.2 99.133 108.2 109.4L90.0667 128.066L70.8667 108.866L51.8 89.7997L65.1333 76.0663C72.4667 68.4663 80.7333 59.7997 83.5333 56.733L88.7333 50.9997L94.8667 56.5997C98.2 59.6663 106.867 68.1997 114.067 75.533Z" fill="black"/>
</svg>
