<svg width="180" height="180" viewBox="0 0 180 180" fill="none" xmlns="http://www.w3.org/2000/svg">
<rect x="0.1" y="0.1" width="179.8" height="179.8" fill="white" stroke="#CBCBCB" stroke-width="0.2"/>
<path d="M73.4 46.7649C61 51.1649 52.6 59.0316 46.7333 71.4316C43.6667 78.0983 43 81.1649 43 90.0983C43 99.5649 43.5333 101.965 47.4 109.832C59.1333 133.565 88.8667 142.898 113.4 130.498C121 126.765 130.067 117.032 133.933 108.632C136.733 102.632 137.267 99.2983 137.133 90.7649C137 78.8983 134.867 71.9649 129 63.2983C117.533 46.8983 93.2667 39.5649 73.4 46.7649ZM87.4 68.2316L87 86.8983H68.4667C58.3333 86.8983 49.6667 86.4983 49.2667 86.0983C47.6667 84.4983 51.9333 72.6316 56.6 66.3649C62.0667 58.8983 69.6667 53.5649 78.3333 51.2983C88.4667 48.4983 87.8 47.4316 87.4 68.2316ZM110.733 55.1649C119.267 59.5649 126.333 67.9649 129.667 77.4316C133.4 87.8316 134.067 87.4316 112.733 87.1649L93.6667 87.0316L93.2667 68.0983L92.8667 49.2983L97.9333 50.2316C100.733 50.6316 106.467 52.8983 110.733 55.1649ZM87.4 111.698L87 130.098L83 129.698C75.1333 129.032 62.3333 121.298 57 114.098C52.0667 107.432 49 100.498 49 95.9649C49 93.5649 50.4667 93.4316 68.3333 93.4316H87.8L87.4 111.698ZM131.667 95.4316C131.667 99.2983 126.6 110.765 122.6 115.832C118.067 121.565 105.8 128.765 98.0667 130.098L93 131.032V112.232V93.4316H112.333C128.6 93.4316 131.667 93.6983 131.667 95.4316Z" fill="black"/>
</svg>
