<svg width="540" height="540" viewBox="0 0 540 540" fill="none" xmlns="http://www.w3.org/2000/svg">
<rect x="0.1" y="0.1" width="179.8" height="179.8" fill="white" stroke="#CBCBCB" stroke-width="0.2"/>
<rect x="180.1" y="0.1" width="179.8" height="179.8" fill="white" stroke="#CBCBCB" stroke-width="0.2"/>
<rect x="360.1" y="0.1" width="179.8" height="179.8" fill="white" stroke="#CBCBCB" stroke-width="0.2"/>
<rect x="0.1" y="180.1" width="179.8" height="179.8" fill="white" stroke="#CBCBCB" stroke-width="0.2"/>
<rect x="180.1" y="180.1" width="179.8" height="179.8" fill="white" stroke="#CBCBCB" stroke-width="0.2"/>
<rect x="360.1" y="180.1" width="179.8" height="179.8" fill="white" stroke="#CBCBCB" stroke-width="0.2"/>
<rect x="0.1" y="360.1" width="179.8" height="179.8" fill="white" stroke="#CBCBCB" stroke-width="0.2"/>
<rect x="180.1" y="360.1" width="179.8" height="179.8" fill="white" stroke="#CBCBCB" stroke-width="0.2"/>
<rect x="360.1" y="360.1" width="179.8" height="179.8" fill="white" stroke="#CBCBCB" stroke-width="0.2"/>
<path d="M422.267 64.4C408.933 77.7333 398 89.3333 398 90C398 91.6 448 140 449.6 140C450.133 140 462.133 128.533 476 114.533L501.333 89.2L476 64.6667C462.133 51.0667 449.733 40 448.667 40C447.6 40 435.733 50.9333 422.267 64.4Z" fill="black"/>
<path d="M249.2 48.5333C238.933 53.3333 232.133 60.2667 227.067 70.5333C224.533 75.6 224 78.9333 224 89.3333C224 100.133 224.533 102.933 227.2 108C232.8 118.8 238.933 124.933 248.4 129.6C256.533 133.6 258.267 134 270 134C280.8 133.867 283.733 133.333 290 130.4C299.6 125.867 308.133 117.6 312.4 108.267C315.467 101.733 316 98.8 316 88.6667C316 77.6 315.6 76 311.467 68.4C306.4 59.0667 298.933 52.2667 288.4 47.3333C282.667 44.6667 279.2 44 270 44C259.733 44 257.6 44.5333 249.2 48.5333ZM279.2 48.8C279.6 49.2 276.4 52.6667 272 56.4C267.733 60.2667 256.267 70.4 246.667 78.9333C237.2 87.6 228.933 94.6667 228.4 94.6667C227.733 94.6667 227.333 92.4 227.333 89.6C227.333 84.8 228.133 83.8667 239.6 73.8667C246.4 68.1333 256.133 59.6 261.333 54.9333C269.467 47.6 271.2 46.5333 274.533 47.2C276.667 47.7333 278.8 48.4 279.2 48.8ZM260.533 48.9333C260.533 50.1333 232 75.0667 229.867 75.8667C227.733 76.5333 233.467 66 238.133 60.8C240.267 58.2667 245.867 54.2667 250.267 52C258.667 47.8667 260.667 47.3333 260.533 48.9333ZM290.8 52.6667C293.2 54.6667 293.2 54.6667 290.8 56.5333C289.467 57.6 286.133 60.5333 283.467 62.9333C280.8 65.3333 268.267 76.6667 255.467 87.8667C234 106.8 232.133 108.133 230.4 105.867C229.467 104.533 228.667 103.067 228.667 102.533C228.667 102 237.2 93.7333 247.733 84.4C279.333 55.8667 285.333 50.6667 286.8 50.6667C287.467 50.6667 289.333 51.6 290.8 52.6667ZM300.933 59.6C302 60.9333 303.333 62.6667 303.733 63.4667C304.267 64.4 298.933 70 290.933 76.9333C283.467 83.4667 269.467 95.8667 259.733 104.4C249.067 113.867 241.333 119.733 240.267 119.2C239.2 118.8 237.6 117.067 236.667 115.2C235.067 112.4 235.2 111.6 236.8 110.133C239.867 107.2 281.867 70.5333 289.867 63.6C293.867 60.1333 297.6 57.3333 298.133 57.3333C298.533 57.3333 299.867 58.4 300.933 59.6ZM309.733 73.3333C311.067 77.2 310.8 77.4667 295.6 90.9333C287.067 98.4 274.133 110 266.933 116.533C253.867 128.4 253.733 128.533 250.267 126.533C248.267 125.467 246.667 124 246.667 123.333C246.8 122 306 69.4667 307.6 69.3333C308 69.3333 309.067 71.0667 309.733 73.3333ZM312.667 89.2C312.667 94.2667 312 94.9333 294.4 110.267C284.267 119.067 275.2 127.2 274.133 128.4C272.133 130.933 260.667 131.6 260.667 129.333C260.667 128 310 84 311.733 84C312.267 84 312.667 86.4 312.667 89.2ZM308.267 108.133C305.6 114.4 295.867 123.333 288.267 126.667C284.667 128.267 281.467 129.333 281.2 128.933C280.8 128.667 286.4 123.333 293.467 117.2C300.533 111.067 307.067 105.333 307.867 104.533C310.133 102 310.267 103.333 308.267 108.133Z" fill="black"/>
<path d="M45.4737 47.3333C44.6737 48.6667 44.9404 99.2 45.8737 121.6L46.407 134H90.2737H134.14V96.9333C134.14 76.6667 133.74 56.8 133.34 52.9333L132.407 46H89.3404C62.007 46 46.007 46.5333 45.4737 47.3333ZM129.874 90.2667L130.14 130L127.207 130.667C125.474 131.067 107.34 131.2 86.807 131.067L49.4737 130.667L49.0737 90.2667L48.807 50L89.0737 50.2667L129.474 50.6667L129.874 90.2667Z" fill="black"/>
<path d="M433.329 227.125C418.529 233.125 408.796 243.525 404.529 257.925C399.863 274.192 406.129 293.392 419.863 304.192C429.063 311.392 437.463 314.325 449.196 314.458C466.796 314.592 481.729 306.992 490.529 293.258C501.596 275.792 499.196 252.992 484.663 238.458C475.196 228.992 466.929 225.658 452.129 225.125C442.129 224.725 438.129 225.258 433.329 227.125ZM469.596 232.592C490.263 242.458 499.196 266.725 489.596 286.725C485.063 296.192 479.463 301.792 469.463 306.992C463.063 310.325 460.663 310.725 450.129 310.725C439.596 310.725 437.196 310.192 431.063 306.992C422.129 302.325 413.996 294.192 410.396 286.192C406.396 277.658 406.396 261.258 410.263 252.725C413.463 245.792 422.663 236.458 429.463 233.125C441.729 227.258 457.863 226.992 469.596 232.592Z" fill="black"/>
<path d="M63.4 244.002C49.9333 257.468 39 269.068 39 269.868C39 271.602 87.9333 318.935 90.2 319.468C92.3333 320.002 140.333 272.402 140.333 269.735C140.333 267.068 93.1333 220.535 89.8 220.002C88.4667 219.868 78.0667 229.202 63.4 244.002ZM94.2 228.135C95.4 230.135 92.3333 233.735 72.7333 253.335C50.0667 276.002 49.8 276.268 47 273.735C45.5333 272.402 44.3333 270.668 44.3333 269.868C44.3333 268.935 54.2 258.535 66.2 246.535C88.3333 224.668 90.8667 222.935 94.2 228.135ZM103.667 237.068C106.2 239.868 105.933 240.135 83.4 262.668L60.6 285.468L57.1333 283.202C55.2667 282.002 53.6667 280.535 53.6667 279.868C53.6667 278.268 98.0667 234.402 99.8 234.402C100.6 234.402 102.333 235.602 103.667 237.068ZM113.667 247.068L116.867 250.535L94.3333 273.068C81.8 285.602 71.2667 295.735 70.8667 295.735C69.5333 295.735 64.3333 290.802 64.3333 289.468C64.3333 288.135 108.467 243.735 109.8 243.735C110.2 243.735 111.933 245.202 113.667 247.068ZM124.333 257.735L127.533 261.202L104.467 283.868L81.4 306.535L78.2 303.602C76.4667 302.002 75 300.135 75 299.468C75 298.268 119.133 254.402 120.467 254.402C120.867 254.402 122.6 255.868 124.333 257.735ZM134.067 267.468C136.067 269.602 134.733 271.202 114.2 292.135C100.867 305.735 91.2667 314.402 90.0667 314.135C88.8667 313.868 87.2667 312.668 86.4667 311.335C85.1333 309.202 87.9333 306.002 107.667 287.068C120.2 274.935 130.733 265.202 131.133 265.068C131.533 265.068 132.867 266.135 134.067 267.468Z" fill="black"/>
<path d="M246.4 226.4L226 226.8L226.267 270L226.4 313.333H270.267H314.133L313.867 269.6L313.467 226H290.133C277.333 226 257.6 226.133 246.4 226.4Z" fill="black"/>
<path d="M242.736 424.135C229.936 437.335 219.269 448.935 219.002 449.735C218.602 451.602 267.269 499.868 269.669 499.868C271.136 499.868 300.069 471.201 314.736 455.335L320.602 449.068L295.936 424.402C279.802 408.268 270.469 399.868 268.736 400.002C267.136 400.002 257.136 409.202 242.736 424.135ZM292.736 426.535L315.269 449.202L294.736 470.135C283.402 481.735 273.002 492.001 271.669 492.935C269.002 494.935 269.269 495.201 237.136 463.868L222.736 449.868L245.536 426.802C258.069 414.268 268.736 403.868 269.269 403.868C269.669 403.868 280.336 414.002 292.736 426.535Z" fill="black"/>
<path d="M73.0672 406.299C56.6672 412.299 45.2005 426.032 42.5338 442.965C39.4672 462.032 49.8672 482.032 67.2005 490.699C75.7338 494.965 79.7338 495.899 91.0672 495.765C109.867 495.632 124.934 486.165 133.2 469.232C137.067 461.365 137.6 459.099 137.6 449.632C137.467 440.832 136.8 437.632 133.867 431.499C129.467 422.432 118.134 411.365 109.334 407.365C100.134 403.365 82.6672 402.832 73.0672 406.299Z" fill="black"/>
<path d="M446.909 462.909V462.636C446.939 459.742 447.242 457.439 447.818 455.727C448.394 454.015 449.212 452.629 450.273 451.568C451.333 450.508 452.606 449.53 454.091 448.636C454.985 448.091 455.788 447.447 456.5 446.705C457.212 445.947 457.773 445.076 458.182 444.091C458.606 443.106 458.818 442.015 458.818 440.818C458.818 439.333 458.47 438.045 457.773 436.955C457.076 435.864 456.144 435.023 454.977 434.432C453.811 433.841 452.515 433.545 451.091 433.545C449.848 433.545 448.652 433.803 447.5 434.318C446.348 434.833 445.386 435.644 444.614 436.75C443.841 437.856 443.394 439.303 443.273 441.091H437.545C437.667 438.515 438.333 436.311 439.545 434.477C440.773 432.644 442.386 431.242 444.386 430.273C446.402 429.303 448.636 428.818 451.091 428.818C453.758 428.818 456.076 429.348 458.045 430.409C460.03 431.47 461.561 432.924 462.636 434.773C463.727 436.621 464.273 438.727 464.273 441.091C464.273 442.758 464.015 444.265 463.5 445.614C463 446.962 462.273 448.167 461.318 449.227C460.379 450.288 459.242 451.227 457.909 452.045C456.576 452.879 455.508 453.758 454.705 454.682C453.902 455.591 453.318 456.674 452.955 457.932C452.591 459.189 452.394 460.758 452.364 462.636V462.909H446.909ZM449.818 476.364C448.697 476.364 447.735 475.962 446.932 475.159C446.129 474.356 445.727 473.394 445.727 472.273C445.727 471.152 446.129 470.189 446.932 469.386C447.735 468.583 448.697 468.182 449.818 468.182C450.939 468.182 451.902 468.583 452.705 469.386C453.508 470.189 453.909 471.152 453.909 472.273C453.909 473.015 453.72 473.697 453.341 474.318C452.977 474.939 452.485 475.439 451.864 475.818C451.258 476.182 450.576 476.364 449.818 476.364Z" fill="black"/>
</svg>
