<svg width="180" height="180" viewBox="0 0 180 180" fill="none" xmlns="http://www.w3.org/2000/svg">
<rect x="0.1" y="0.1" width="179.8" height="179.8" fill="white" stroke="#CBCBCB" stroke-width="0.2"/>
<path d="M64.3497 61.535C51.283 74.0684 39.9497 85.6684 39.283 87.135C37.9497 89.4017 40.6164 92.6017 62.883 114.868C76.7497 128.735 88.6164 140.068 89.4164 140.068C90.7497 140.068 140.75 90.6017 140.75 89.2684C140.75 87.935 91.4164 39.4017 89.683 39.0017C88.7497 38.8684 77.283 49.0017 64.3497 61.535ZM93.1497 46.4684C95.1497 48.735 93.9497 50.2017 72.083 72.0684C49.0164 95.135 48.883 95.2684 46.083 92.735C44.6164 91.4017 43.5497 89.6684 43.8164 89.0017C44.483 86.8684 88.083 44.0684 89.5497 44.0684C90.3497 44.0684 91.9497 45.135 93.1497 46.4684ZM102.75 56.0684C105.283 58.8684 105.016 59.135 82.083 82.0684L58.7497 105.402L55.4164 102.068L52.083 98.735L74.7497 76.0684C87.1497 63.535 98.083 53.4017 98.883 53.4017C99.683 53.4017 101.416 54.6017 102.75 56.0684ZM93.1497 93.0017L69.5497 115.935L66.483 113.135C64.7497 111.535 63.4164 109.668 63.4164 108.735C63.4164 107.935 73.683 97.135 86.083 84.735L108.75 62.2017L112.883 66.2017L116.883 70.0684L93.1497 93.0017ZM104.483 103.002C91.8164 115.268 80.883 125.402 80.2164 125.402C79.4164 125.402 77.4164 124.068 75.683 122.335L72.483 119.402L96.3497 96.4684L120.083 73.6684L123.816 77.135L127.683 80.735L104.483 103.002ZM113.416 112.068C100.883 124.602 89.9497 134.602 88.883 134.468C87.8164 134.202 86.3497 133.002 85.5497 131.668C84.2164 129.535 87.1497 126.335 107.416 106.735C130.616 84.4684 130.75 84.335 133.416 86.8684C135.95 89.4017 135.95 89.535 113.416 112.068Z" fill="black"/>
</svg>
