<svg width="180" height="180" viewBox="0 0 180 180" fill="none" xmlns="http://www.w3.org/2000/svg">
<rect x="0.1" y="0.1" width="179.8" height="179.8" fill="white" stroke="#CBCBCB" stroke-width="0.2"/>
<path d="M63.2667 62.3997C49.9333 75.733 39 87.5997 39 88.533C39 90.3997 87.5333 139.333 89.4 139.333C91 139.333 140.333 89.4663 140.333 87.8663C140.333 85.733 91.6667 37.9997 89.5333 37.9997C88.4667 37.9997 76.7333 48.933 63.2667 62.3997ZM112.867 64.7997C125 76.6663 135 87.0663 135 87.8663C135 89.5997 90.0667 134.8 89.1333 134C88.7333 133.6 78.2 123.2 65.6667 110.666L43 87.9997L65.9333 65.0663C78.4667 52.533 89.2667 42.3997 89.8 42.7997C90.3333 43.0663 100.733 53.0663 112.867 64.7997Z" fill="black"/>
</svg>
