<svg width="180" height="180" viewBox="0 0 180 180" fill="none" xmlns="http://www.w3.org/2000/svg">
<rect x="0.1" y="0.1" width="179.8" height="179.8" fill="white" stroke="#CBCBCB" stroke-width="0.2"/>
<path d="M48.2 46.9333C47.9333 47.6 47.9333 67.3333 48.2 90.9333L48.6 134H92.6H136.467V90V46H92.6C68.3333 46 48.4667 46.4 48.2 46.9333ZM92.2 52.6667C87.2667 59.4667 52.6 97.6 51.9333 96.9333C51.5333 96.5333 51.1333 93.8667 51.1333 90.9333C51.1333 86.1333 52.3333 84.2667 66.6 68.5333C75.1333 59.0667 83 50.8 84.0667 50.2667C85.1333 49.6 87.8 49.4667 89.9333 49.7333C93.5333 50.2667 93.6667 50.5333 92.2 52.6667ZM58.3333 51.6C56.6 54.6667 53.4 58 52.2 58C51.6667 58 51.1333 56.1333 51.1333 54C51.1333 50.4 51.5333 50 55.2667 50C58.0667 50 59 50.5333 58.3333 51.6ZM70.0667 57.6C66.3333 61.8667 60.6 68.2667 57.2667 72L51.2667 78.6667L51.1333 72.6667C51.1333 67.2 51.8 65.8667 58.6 58.2667C65.4 50.6667 66.4667 50 71.4 50H76.7333L70.0667 57.6ZM109.667 53.6C107.933 55.7333 105.933 57.8667 105.133 58.6667C104.333 59.3333 102.067 62.1333 99.9333 64.6667C97.8 67.2 92.6 73.2 88.3333 78C77.4 90.2667 74.8667 93.2 63.5333 106.267C57.9333 112.8 53 118 52.3333 118C51.6667 118 51.1333 115.333 51.1333 112.133C51.1333 106.4 51.8 105.467 68.0667 87.0667C88.3333 64.2667 89.4 62.9333 95.8 55.6C100.333 50.5333 101.4 50 106.867 50H112.867L109.667 53.6ZM120.867 61.8667C115.133 68.2667 104.2 80.8 96.6 89.4667C88.8667 98.2667 79.5333 108.667 75.9333 112.8C56.7333 133.867 57.8 132.933 53.1333 129.467C50.7333 127.733 50.7333 127.467 54.3333 123.2C56.4667 120.667 60.3333 116.267 63 113.333C65.8 110.4 77.5333 97.2 89.1333 84C121.8 46.8 118.333 50 125.267 50H131.267L120.867 61.8667ZM132.467 63.0667C132.467 68.4 131.8 70.1333 128.2 74C125.8 76.5333 113.8 90 101.4 104C89.1333 117.867 77.9333 129.867 76.4667 130.533C75.1333 131.2 72.3333 131.333 70.4667 130.8L67 129.867L70.6 125.6C72.6 123.2 77.9333 117.067 82.4667 112C87 106.8 94.0667 99.0667 97.9333 94.6667C101.8 90.2667 106.2 85.4667 107.533 84C108.867 82.5333 114.867 75.7333 120.867 68.9333C126.867 62.2667 131.933 56.6667 132.067 56.6667C132.333 56.6667 132.467 59.4667 132.467 63.0667ZM130.867 92.5333C128.867 95.3333 105.4 122.133 100.467 127.333C97.6667 130.267 96.2 130.667 90.7333 130.267L84.4667 129.733L88.6 124.8C91 122.133 97.8 114.533 103.8 108C109.8 101.333 118.6 91.6 123.267 86.2667L131.8 76.5333L132.2 83.3333C132.467 87.3333 131.933 91.0667 130.867 92.5333ZM132.867 106.667C132.867 112.933 132.467 113.467 121.933 124.933C117.933 129.333 116.467 130 111.533 130C108.333 130 105.8 129.6 105.8 129.2C105.8 128.533 117.4 114.933 127.267 104.133C129.667 101.467 131.8 99.6 132.2 100C132.6 100.267 132.867 103.333 132.867 106.667ZM133.4 127.867C132.867 129.2 130.867 130 128.467 130C123.933 130 124.067 129.067 129.133 123.867C131.667 121.2 131.8 121.2 133 123.467C133.667 124.8 133.8 126.8 133.4 127.867Z" fill="black"/>
</svg>
