<svg width="180" height="180" viewBox="0 0 180 180" fill="none" xmlns="http://www.w3.org/2000/svg">
<rect x="0.1" y="0.1" width="179.8" height="179.8" fill="white" stroke="#CBCBCB" stroke-width="0.2"/>
<rect x="26.5" y="26.5" width="127" height="127" stroke="black" stroke-width="3"/>
<mask id="mask0_0_1" style="mask-type:alpha" maskUnits="userSpaceOnUse" x="90" y="27" width="65" height="65">
<rect x="90" y="27" width="65" height="65" fill="white"/>
</mask>
<g mask="url(#mask0_0_1)">
<line x1="135.707" y1="11.2929" x2="172.707" y2="48.2929" stroke="black" stroke-width="2"/>
<line x1="130.707" y1="13.2929" x2="169.707" y2="52.2929" stroke="black" stroke-width="2"/>
<line x1="126.707" y1="16.2929" x2="166.707" y2="56.2929" stroke="black" stroke-width="2"/>
<line x1="122.707" y1="19.2929" x2="162.707" y2="59.2929" stroke="black" stroke-width="2"/>
<line x1="119.707" y1="23.2929" x2="156.707" y2="60.2929" stroke="black" stroke-width="2"/>
<line x1="114.707" y1="25.2929" x2="163.707" y2="74.2929" stroke="black" stroke-width="2"/>
<line x1="106.707" y1="24.2929" x2="162.707" y2="80.2929" stroke="black" stroke-width="2"/>
<line x1="100.707" y1="25.2929" x2="164.707" y2="89.2929" stroke="black" stroke-width="2"/>
<line x1="93.7071" y1="25.2929" x2="161.707" y2="93.2929" stroke="black" stroke-width="2"/>
<line x1="85.7071" y1="24.2929" x2="158.707" y2="97.2929" stroke="black" stroke-width="2"/>
<line x1="87.7071" y1="33.2929" x2="152.707" y2="98.2929" stroke="black" stroke-width="2"/>
<line x1="83.7071" y1="36.2929" x2="147.707" y2="100.293" stroke="black" stroke-width="2"/>
<line x1="85.7071" y1="45.2929" x2="141.707" y2="101.293" stroke="black" stroke-width="2"/>
<line x1="86.7071" y1="53.2929" x2="132.707" y2="99.2929" stroke="black" stroke-width="2"/>
<line x1="82.7071" y1="56.2929" x2="122.707" y2="96.2929" stroke="black" stroke-width="2"/>
<line x1="78.7071" y1="59.2929" x2="118.707" y2="99.2929" stroke="black" stroke-width="2"/>
<line x1="76.7071" y1="64.2929" x2="113.707" y2="101.293" stroke="black" stroke-width="2"/>
<line x1="71.7071" y1="66.2929" x2="110.707" y2="105.293" stroke="black" stroke-width="2"/>
<line x1="67.7071" y1="69.2929" x2="107.707" y2="109.293" stroke="black" stroke-width="2"/>
</g>
<mask id="mask1_0_1" style="mask-type:alpha" maskUnits="userSpaceOnUse" x="25" y="90" width="65" height="65">
<rect x="25" y="90" width="65" height="65" fill="white"/>
</mask>
<g mask="url(#mask1_0_1)">
<line x1="70.7071" y1="74.2929" x2="107.707" y2="111.293" stroke="black" stroke-width="2"/>
<line x1="65.7071" y1="76.2929" x2="104.707" y2="115.293" stroke="black" stroke-width="2"/>
<line x1="61.7071" y1="79.2929" x2="101.707" y2="119.293" stroke="black" stroke-width="2"/>
<line x1="57.7071" y1="82.2929" x2="97.7071" y2="122.293" stroke="black" stroke-width="2"/>
<line x1="54.7071" y1="86.2929" x2="91.7071" y2="123.293" stroke="black" stroke-width="2"/>
<line x1="49.7071" y1="88.2929" x2="98.7071" y2="137.293" stroke="black" stroke-width="2"/>
<line x1="41.7071" y1="87.2929" x2="97.7071" y2="143.293" stroke="black" stroke-width="2"/>
<line x1="35.7071" y1="88.2929" x2="99.7071" y2="152.293" stroke="black" stroke-width="2"/>
<line x1="28.7071" y1="88.2929" x2="96.7071" y2="156.293" stroke="black" stroke-width="2"/>
<line x1="20.7071" y1="87.2929" x2="93.7071" y2="160.293" stroke="black" stroke-width="2"/>
<line x1="22.7071" y1="96.2929" x2="87.7071" y2="161.293" stroke="black" stroke-width="2"/>
<line x1="18.7071" y1="99.2929" x2="82.7071" y2="163.293" stroke="black" stroke-width="2"/>
<line x1="20.7071" y1="108.293" x2="76.7071" y2="164.293" stroke="black" stroke-width="2"/>
<line x1="21.7071" y1="116.293" x2="67.7071" y2="162.293" stroke="black" stroke-width="2"/>
<line x1="17.7071" y1="119.293" x2="57.7071" y2="159.293" stroke="black" stroke-width="2"/>
<line x1="13.7071" y1="122.293" x2="53.7071" y2="162.293" stroke="black" stroke-width="2"/>
<line x1="11.7071" y1="127.293" x2="48.7071" y2="164.293" stroke="black" stroke-width="2"/>
<line x1="6.70711" y1="129.293" x2="45.7071" y2="168.293" stroke="black" stroke-width="2"/>
<line x1="2.70711" y1="132.293" x2="42.7071" y2="172.293" stroke="black" stroke-width="2"/>
</g>
<mask id="mask2_0_1" style="mask-type:alpha" maskUnits="userSpaceOnUse" x="89" y="92" width="63" height="63">
<rect x="152" y="92" width="63" height="63" transform="rotate(90 152 92)" fill="white"/>
</mask>
<g mask="url(#mask2_0_1)">
<line x1="166.721" y1="132.891" x2="128.921" y2="170.691" stroke="black" stroke-width="6"/>
<line x1="160.906" y1="125.137" x2="122.137" y2="163.906" stroke="black" stroke-width="6"/>
<line x1="155.091" y1="117.383" x2="107.598" y2="164.875" stroke="black" stroke-width="6"/>
<line x1="155.091" y1="103.814" x2="93.0598" y2="165.844" stroke="black" stroke-width="6"/>
<line x1="156.06" y1="89.2751" x2="85.306" y2="160.029" stroke="black" stroke-width="6"/>
<line x1="144.429" y1="87.3367" x2="82.3983" y2="149.367" stroke="black" stroke-width="6"/>
<line x1="127.952" y1="90.2444" x2="83.3675" y2="134.829" stroke="black" stroke-width="6"/>
<line x1="122.137" y1="82.4905" x2="83.3675" y2="121.26" stroke="black" stroke-width="6"/>
<line x1="115.352" y1="75.706" x2="77.552" y2="113.506" stroke="black" stroke-width="6"/>
</g>
<mask id="mask3_0_1" style="mask-type:alpha" maskUnits="userSpaceOnUse" x="25" y="27" width="65" height="65">
<rect x="90" y="27" width="65" height="65" transform="rotate(90 90 27)" fill="white"/>
</mask>
<g mask="url(#mask3_0_1)">
<line x1="105.121" y1="69.1213" x2="66.1213" y2="108.121" stroke="black" stroke-width="6"/>
<line x1="99.1213" y1="61.1213" x2="59.1213" y2="101.121" stroke="black" stroke-width="6"/>
<line x1="93.1213" y1="53.1213" x2="44.1213" y2="102.121" stroke="black" stroke-width="6"/>
<line x1="93.1213" y1="39.1213" x2="29.1213" y2="103.121" stroke="black" stroke-width="6"/>
<line x1="94.1213" y1="24.1213" x2="21.1213" y2="97.1213" stroke="black" stroke-width="6"/>
<line x1="82.1213" y1="22.1213" x2="18.1213" y2="86.1213" stroke="black" stroke-width="6"/>
<line x1="65.1213" y1="25.1213" x2="19.1213" y2="71.1213" stroke="black" stroke-width="6"/>
<line x1="59.1213" y1="17.1213" x2="19.1213" y2="57.1213" stroke="black" stroke-width="6"/>
<line x1="52.1213" y1="10.1213" x2="13.1213" y2="49.1213" stroke="black" stroke-width="6"/>
</g>
</svg>
