<svg width="540" height="540" viewBox="0 0 540 540" fill="none" xmlns="http://www.w3.org/2000/svg">
<rect x="0.1" y="0.1" width="179.8" height="179.8" fill="white" stroke="#CBCBCB" stroke-width="0.2"/>
<rect x="180.1" y="0.1" width="179.8" height="179.8" fill="white" stroke="#CBCBCB" stroke-width="0.2"/>
<rect x="360.1" y="0.1" width="179.8" height="179.8" fill="white" stroke="#CBCBCB" stroke-width="0.2"/>
<rect x="0.1" y="180.1" width="179.8" height="179.8" fill="white" stroke="#CBCBCB" stroke-width="0.2"/>
<rect x="180.1" y="180.1" width="179.8" height="179.8" fill="white" stroke="#CBCBCB" stroke-width="0.2"/>
<rect x="360.1" y="180.1" width="179.8" height="179.8" fill="white" stroke="#CBCBCB" stroke-width="0.2"/>
<rect x="0.1" y="360.1" width="179.8" height="179.8" fill="white" stroke="#CBCBCB" stroke-width="0.2"/>
<rect x="180.1" y="360.1" width="179.8" height="179.8" fill="white" stroke="#CBCBCB" stroke-width="0.2"/>
<rect x="360.1" y="360.1" width="179.8" height="179.8" fill="white" stroke="#CBCBCB" stroke-width="0.2"/>
<path d="M432.272 29.4665C406.139 29.8665 384.539 30.5331 384.139 30.7998C383.872 31.1998 384.005 58.7998 384.405 92.1331L385.205 152.8H422.539C443.072 152.8 472.672 152.533 488.272 152.133L516.672 151.466V108.8C516.539 85.3331 516.139 57.5998 515.605 47.0665L514.805 27.9998L497.339 28.3998C487.739 28.6665 458.405 29.0665 432.272 29.4665ZM422.939 33.3331C422.139 35.5998 390.005 68.1331 388.672 68.1331C387.872 68.1331 387.205 66.7998 387.205 65.1998C387.205 62.2665 408.939 39.4665 416.405 34.5331C420.139 31.9998 423.739 31.3331 422.939 33.3331ZM437.072 33.1998C438.005 34.6665 388.939 83.5998 387.739 82.3998C385.472 80.1331 390.272 73.8665 409.072 54.5331C428.805 34.3998 434.805 29.7331 437.072 33.1998ZM451.205 34.5331C451.205 35.8665 389.472 97.4665 388.272 97.4665C387.605 97.4665 387.205 95.8665 387.205 93.8665C387.205 91.0665 392.805 84.6665 414.939 62.3998C430.139 47.0665 443.739 34.1331 445.205 33.4665C447.872 32.3998 451.205 33.0665 451.205 34.5331ZM465.605 33.3331C464.539 36.5331 388.672 111.733 388.139 110.266C386.539 106.266 393.072 98.6665 425.472 66.3998C450.405 41.5998 460.805 32.1331 463.072 32.1331C464.672 32.1331 465.872 32.6665 465.605 33.3331ZM479.339 34.3998C478.672 35.7331 457.872 56.9331 433.205 81.4665C392.539 121.866 388.405 125.733 388.805 121.733C389.205 118.133 395.339 111.333 431.872 74.7998C463.339 43.1998 475.205 32.1331 477.472 32.1331C480.139 32.1331 480.405 32.5331 479.339 34.3998ZM455.739 72.3998C433.739 94.6665 409.605 119.066 402.139 126.8C388.805 140.666 388.539 140.8 388.539 136.4C388.539 132.4 393.072 127.6 438.005 82.1331C481.872 37.8665 488.139 32.1331 491.739 32.1331C495.472 32.1331 492.805 35.1998 455.739 72.3998ZM472.405 69.1998C452.405 89.4665 426.005 116.133 413.872 128.533C401.872 140.8 391.205 150.8 390.272 150.8C389.339 150.8 388.539 149.866 388.539 148.666C388.539 147.466 407.872 127.066 431.605 103.2C455.205 79.4665 480.539 53.7331 487.872 46.1331C498.805 34.6665 501.872 32.1331 505.072 32.1331C508.672 32.1331 505.605 35.7331 472.405 69.1998ZM393.205 37.4665C388.539 42.2665 387.205 42.5331 387.205 38.3998C387.205 34.2665 388.139 33.4665 393.072 33.4665H397.072L393.205 37.4665ZM399.872 44.1331C394.005 49.9998 388.805 54.7998 388.272 54.7998C387.605 54.7998 387.205 53.3331 387.205 51.5998C387.205 47.1998 402.272 33.4665 407.072 33.4665C410.139 33.4665 409.339 34.5331 399.872 44.1331ZM512.539 40.3998C512.405 42.5331 496.939 59.1998 459.472 97.1998C414.405 142.8 406.005 150.8 402.805 150.8C400.672 150.8 399.205 150.266 399.472 149.466C400.139 147.6 510.272 37.4665 511.472 37.4665C512.005 37.4665 512.539 38.7998 512.539 40.3998ZM512.539 54.3998C512.539 57.3331 504.539 65.9998 468.405 102.266C444.005 126.666 423.739 147.2 423.205 148.133C422.672 148.933 420.405 149.466 418.139 149.2C414.005 148.8 415.739 146.933 462.805 99.7331C489.605 72.7998 511.872 50.7998 512.139 50.7998C512.272 50.7998 512.539 52.3998 512.539 54.3998ZM512.539 68.3998C512.405 70.5331 501.072 83.1998 474.139 110.666C440.272 145.333 435.472 149.733 432.272 149.333C428.939 148.8 431.872 145.466 469.339 107.066C491.739 84.2665 510.672 65.4665 511.339 65.4665C512.005 65.4665 512.539 66.7998 512.539 68.3998ZM481.072 117.2C457.472 141.466 448.805 149.466 446.405 149.466C444.672 149.466 443.205 149.066 443.205 148.533C443.205 147.866 458.672 132 477.605 113.066C506.272 84.3998 511.872 79.1998 512.272 81.7331C512.539 84.2665 506.005 91.5998 481.072 117.2ZM488.939 123.333C475.872 136.533 464.672 147.866 463.872 148.4C462.139 149.733 456.539 149.733 456.539 148.533C456.539 148 468.939 135.066 484.272 119.733C509.472 94.5331 511.872 92.3998 512.272 95.5998C512.672 98.6665 509.339 102.666 488.939 123.333ZM513.605 110.133C513.339 112.266 506.939 119.733 495.339 131.466C480.139 146.8 476.805 149.466 473.339 149.466C469.339 149.466 469.605 149.066 481.472 137.066C488.272 130.4 497.472 120.8 502.139 115.866C511.072 106.266 514.272 104.666 513.605 110.133ZM513.872 124.266C513.872 128.533 492.939 149.466 488.805 149.466C487.072 149.466 485.872 148.933 486.139 148.133C486.805 146.266 511.472 121.466 512.805 121.466C513.339 121.466 513.872 122.8 513.872 124.266ZM513.872 137.733C513.872 141.2 506.272 149.466 503.205 149.466C498.672 149.466 499.339 147.466 505.472 141.2C512.539 134 513.872 133.466 513.872 137.733Z" fill="black"/>
<path d="M240 28.3334L204 29.0001L204.4 90.3334C204.667 124.067 205.067 151.8 205.333 152.067C205.467 152.333 234.8 152.067 270.533 151.533L335.333 150.6V117C335.333 98.6001 334.933 70.7334 334.4 55.2668L333.6 27.0001L304.8 27.2668C288.933 27.4001 259.867 27.9334 240 28.3334ZM267.867 32.6001C268.267 33.5334 268.8 59.9334 269.333 91.1334L270.133 147.933L240.533 149C216.533 149.8 210.667 149.667 209.333 148.2C208 146.733 207.467 133.933 207.067 89.6668L206.667 33.0001L222.667 32.3334C260.533 30.7334 267.333 30.7334 267.867 32.6001ZM285.733 32.2001C284.933 34.3334 274 45.6668 272.667 45.6668C269.867 45.6668 271.6 39.5334 275.6 35.4001C279.467 31.4001 286.933 29.1334 285.733 32.2001ZM298.533 33.9334C290.533 43.6668 273.2 60.0668 272.267 59.1334C270.133 57.0001 272.533 53.1334 283.067 41.9334C291.333 33.1334 294.133 31.0001 297.2 31.0001C301.067 31.0001 301.067 31.0001 298.533 33.9334ZM314 32.0668C314 32.6001 304.667 42.3334 293.333 53.6668C274.133 72.8668 272.667 74.0668 272.667 70.3334C272.667 67.0001 275.6 63.4001 290.267 48.7334C302.533 36.3334 308.933 31.0001 310.933 31.0001C312.667 31.0001 314 31.4001 314 32.0668ZM316.533 43.9334C309.467 51.1334 296.667 64.2001 288.133 73.0001C272.933 88.7334 272.667 88.8668 272.667 84.6001C272.667 80.6001 275.2 77.5334 296.933 55.5334C317.733 34.4668 321.867 31.0001 325.2 31.0001C329.2 31.0001 328.8 31.5334 316.533 43.9334ZM302.4 72.6001C275.867 99.2668 273.333 101.4 272.933 98.2001C272.533 95.0001 276.267 90.7334 301.6 65.4001C328.133 38.7334 330.667 36.6001 331.067 39.8001C331.467 43.0001 327.733 47.2668 302.4 72.6001ZM331.067 54.2001C330.8 56.4668 321.067 67.2668 302.267 86.2001C286.533 102.067 273.467 115 273.2 115C272.8 115 272.667 113.533 272.933 111.667C273.2 109.533 282.933 98.6001 301.067 79.6668C316.4 63.9334 329.467 51.0001 330.267 51.0001C330.933 51.0001 331.333 52.4668 331.067 54.2001ZM331.333 67.9334C331.2 71.0001 325.733 77.2668 302.667 100.6C287.067 116.6 273.867 129.667 273.467 129.667C273.067 129.667 272.667 128.067 272.667 126.2C272.667 123.667 276.133 119.133 286.267 108.467C314 79.6668 329.2 64.3334 330.267 64.3334C330.8 64.3334 331.333 65.9334 331.333 67.9334ZM331.333 81.9334C331.2 85.5334 274.933 144.333 273.2 142.6C272.667 142.067 272.667 140.2 273.467 138.467C274.667 135.133 328.4 79.0001 330.267 79.0001C330.933 79.0001 331.333 80.3334 331.333 81.9334ZM331.333 92.8668C331.333 93.1334 331.733 94.4668 332.133 95.5334C332.8 97.1334 326.667 104.067 311.2 119.933C299.2 132.2 288 143.533 286.4 145.267C283.6 148.2 276 149.667 276.933 147.133C277.6 145.4 329.2 92.6001 330.4 92.4668C330.933 92.3334 331.333 92.6001 331.333 92.8668ZM332.667 109.933C332.667 114.2 298.533 148.333 294.267 148.333C292.533 148.333 291.333 147.8 291.6 147C292.533 144.2 330.267 105.667 331.467 106.467C332.133 106.867 332.667 108.467 332.667 109.933ZM332.667 123.533C332.667 125.8 329.467 129.933 321.733 137.533C311.467 147.533 307.867 149.8 305.467 147.4C304.533 146.467 329.733 120.333 331.6 120.333C332.267 120.333 332.667 121.8 332.667 123.533ZM332.667 137.533C332.667 143 324.533 149.4 320.667 147C319.467 146.333 320.8 144.333 324.8 140.467C331.333 134.333 332.667 133.8 332.667 137.533Z" fill="black"/>
<path d="M106.067 151L156.067 150.333L155.667 105C155.533 80.0667 155 52.3333 154.6 43.4L153.8 27H118.733C99.5333 27 70.2 27.4 53.4 27.9333L23 28.7333L24.0666 89.5333C24.6 123 25.2666 150.733 25.6666 151.4C25.9333 151.933 33 152.2 41.1333 152.067C49.4 151.8 78.6 151.4 106.067 151ZM28.0666 146.733C27.8 145.8 27.2666 119.667 26.8666 88.7333L26.2 32.4667L31.8 31.8C43 30.4667 149.933 29.6667 150.733 31C151.133 31.6667 151.8 58.0667 152.333 89.5333L153.133 146.867L140.6 147.4C133.667 147.533 105.667 147.933 78.3333 148.067C39.5333 148.333 28.6 147.933 28.0666 146.733Z" fill="black"/>
<path d="M401 208.333L383 209L383.4 237.667C383.667 267.667 385.133 333 385.533 333C387.133 333.667 514.6 331 515.8 330.333C516.867 329.667 517.133 326.733 516.467 321.133C516.067 316.733 515.667 292.867 515.4 268.333C515.267 243.8 514.867 219.933 514.6 215.267L514.067 207L466.6 207.267C440.333 207.4 410.867 207.933 401 208.333ZM477.933 210.733C479 211.4 469.8 221.667 450.867 241.4C429 263.8 421.267 271 418.867 271C417.133 271 415.667 270.6 415.667 269.933C415.8 268.333 473.533 209.667 475 209.667C475.8 209.667 477 210.2 477.933 210.733ZM492.733 211.533C492.467 212.6 479.533 226.467 463.933 242.2C442.467 263.933 434.733 271 432.2 271C427.933 271 428.2 269.533 433.4 264.733C435.667 262.6 448.867 249.267 462.733 235.267C479.133 218.467 488.733 209.667 490.467 209.667C492.2 209.667 493 210.333 492.733 211.533ZM507.4 210.867C507.267 211.4 494.067 225.267 478.2 241.533C457.667 262.6 448.6 271 446.467 271C444.733 271 443.667 270.467 443.933 269.8C444.2 269.133 457.133 255.4 472.867 239.133C494.733 216.467 502.067 209.667 504.6 209.667C506.467 209.667 507.667 210.2 507.4 210.867ZM394.867 212.2C395.267 212.867 393.533 215 391 216.867L386.333 220.467V216.467C386.333 213.133 387 212.467 390.067 211.933C392.067 211.667 393.8 211.267 393.933 211.133C394.067 211.133 394.467 211.533 394.867 212.2ZM409 211.933C409 213.267 388.733 233.667 387.4 233.667C386.733 233.667 386.333 232.2 386.333 230.6C386.333 226.6 402.2 211 406.2 211C407.8 211 409 211.4 409 211.933ZM422.067 212.2C421.933 212.867 413.933 221.4 404.333 231.267C389.8 246.2 386.867 248.467 386.6 246.067C385.933 241.8 387 240.333 402.333 224.867C412.2 215 417.133 211 419.4 211C421.133 211 422.333 211.533 422.067 212.2ZM426.333 222.6C396.067 253.933 388.333 261.667 387.4 261.667C386.733 261.667 386.333 260.467 386.333 258.867C386.333 257.133 394.333 247.8 407.8 233.533C426.6 213.667 429.8 211 433.4 211C437.533 211 437.533 211.133 426.333 222.6ZM451.533 211.533C451.267 211.933 444.733 218.6 437.133 226.6C392.467 272.867 390.6 274.6 388.333 271C387.133 269.133 392.467 263.267 420.733 234.6C440.6 214.6 444.733 211 448.2 211C450.333 211 451.8 211.267 451.533 211.533ZM464.733 212.2C464.6 212.867 451.533 226.467 435.933 242.333C411.267 267.267 407 271.133 403.933 270.733C400.6 270.333 402.467 268.067 425.667 244.467C439.667 230.333 452.733 217 454.733 214.867C458.2 211.267 465.8 209.267 464.733 212.2ZM511.4 218.867C510.867 224.467 465.133 271 460.2 271C458.467 271 457 270.6 457 270.2C457 268.867 509.267 215 510.6 215C511.267 215 511.667 216.733 511.4 218.867ZM511.667 233.267C511.667 235.933 507.933 240.6 494.733 253.933C479.4 269.4 474.333 273 472.467 269.933C471.933 269 509.4 229.667 511 229.667C511.4 229.667 511.667 231.267 511.667 233.267ZM511.667 247.4C511.667 249.267 508.333 253.933 502.467 260.067C494.733 268.333 492.733 269.667 488.867 269.667H484.333L497 257C503.933 250.067 510.067 244.333 510.6 244.333C511.267 244.333 511.667 245.667 511.667 247.4ZM509.533 267.133C508.2 268.6 505.533 269.667 503.133 269.667H499.133L505 263.533C511 257.533 511 257.533 511.4 261C511.667 263 510.867 265.667 509.533 267.133ZM501.267 275.267C500.467 276.067 499.133 276.2 498.333 275.667C497.133 274.867 497.133 274.467 498.467 273.533C500.733 272.2 503 273.533 501.267 275.267ZM403.4 275.267C403 276.2 401.933 277 401 277C400.067 277 399 276.2 398.733 275.267C398.333 274.333 399.267 273.667 401 273.667C402.733 273.667 403.667 274.333 403.4 275.267ZM416.733 275.267C416.333 276.2 415.267 277 414.333 277C413.4 277 412.333 276.2 412.067 275.267C411.667 274.333 412.6 273.667 414.333 273.667C416.067 273.667 417 274.333 416.733 275.267ZM431.667 274.867C431.667 277.4 428.733 277.933 426.6 275.8C424.6 273.8 424.733 273.667 428.067 273.667C430.067 273.667 431.667 274.2 431.667 274.867ZM445 275C445 275.667 444.2 276.333 443.133 276.333C442.067 276.333 440.733 275.667 440.333 275C439.933 274.2 440.733 273.667 442.2 273.667C443.8 273.667 445 274.2 445 275ZM459.667 274.733C459.667 276.6 458.2 277.533 456.2 276.733C453.4 275.667 453.933 273.667 457 273.667C458.467 273.667 459.667 274.2 459.667 274.733ZM473 275.667C471.667 277.267 470.867 277.4 469.533 276.2C466.867 274.067 467.133 273.667 471.133 273.667C474.067 273.667 474.467 273.933 473 275.667ZM488.333 275C487.933 275.667 486.733 276.333 485.667 276.333C484.6 276.333 483.4 275.667 483 275C482.467 274.2 483.667 273.667 485.667 273.667C487.667 273.667 488.867 274.2 488.333 275ZM452.333 282.867C450.6 284.733 450.067 284.733 448.067 282.733C446.2 280.867 446.2 280.067 447.667 278.333C449.267 276.467 449.667 276.467 451.933 278.6C454.2 280.6 454.2 281 452.333 282.867ZM480.6 282.6C478.467 284.733 478.2 284.733 476.067 282.6C473.8 280.333 473.8 280.067 476.333 278.2C478.6 276.6 479.133 276.6 480.867 278.333C482.733 280.067 482.6 280.6 480.6 282.6ZM495.133 281.533C493.933 283.4 490.733 283.4 489.667 281.667C489.133 280.867 489.533 279.267 490.467 278.2C491.933 276.467 492.333 276.467 494.067 278.2C495.133 279.267 495.533 280.733 495.133 281.533ZM509 278.333C510.733 280.467 509.8 283 507.133 283C504.2 283 502.2 279.667 503.933 277.933C506.067 275.8 507 275.933 509 278.333ZM395.8 283.533C393.933 285.667 390.333 285 390.333 282.467C390.333 281.533 391 280.2 391.933 279.267C394.467 276.733 398.067 280.733 395.8 283.533ZM410.2 279.533C411.4 280.867 411.267 281.667 409.667 283C406.867 285.267 402.867 282.2 405.133 279.533C405.933 278.467 407.133 277.667 407.667 277.667C408.2 277.667 409.4 278.467 410.2 279.533ZM424.733 280.733C425.267 283.4 421.4 285.267 419.4 283.267C417.4 281.267 419.267 277.4 421.933 277.933C423.267 278.2 424.467 279.4 424.733 280.733ZM438.2 279.533C439.4 280.867 439.267 281.667 437.667 283C434.867 285.267 430.867 282.2 433.133 279.533C433.933 278.467 435.133 277.667 435.667 277.667C436.2 277.667 437.4 278.467 438.2 279.533ZM467.267 279.8C468.333 282.733 464.867 284.733 462.467 282.467C461.533 281.4 461.133 279.933 461.533 279.133C462.867 277 466.333 277.4 467.267 279.8ZM502.333 288.333C500.6 291.533 499.267 291.667 497 289C494.467 286.067 497.667 282.6 501.133 284.467C503.133 285.533 503.4 286.333 502.333 288.333ZM403.667 286.467C405.133 288.067 405 288.867 403.267 290.733C401.133 292.733 400.867 292.733 398.733 290.733C397 288.867 396.867 288.067 398.333 286.467C399.267 285.267 400.467 284.333 401 284.333C401.533 284.333 402.733 285.267 403.667 286.467ZM417.8 289.533C416.6 291.4 413.4 291.4 412.333 289.667C411.8 288.867 412.2 287.267 413.133 286.2C414.6 284.467 415 284.467 416.733 286.2C417.8 287.267 418.2 288.733 417.8 289.533ZM431.533 286.067C432.6 287.4 432.467 288.333 431.4 289.4C427.933 292.867 423.4 289.933 426.333 286.333C428.333 283.933 429.533 283.8 431.533 286.067ZM444.867 285.533C447.133 287 445.8 291 443.133 291C440.6 291 439.267 288.733 440.2 286.333C441 284.067 442.2 283.933 444.867 285.533ZM459.667 286.333C461.4 288.467 460.467 291 457.8 291C454.867 291 452.867 287.667 454.6 285.933C456.733 283.8 457.667 283.933 459.667 286.333ZM474.2 286.2C475.4 287.533 475.267 288.333 473.667 289.667C471.933 291.133 471.133 291 469.267 289.133C467.267 287.133 467.267 286.733 469 285.667C471.667 283.933 472.467 284.067 474.2 286.2ZM488.467 285.8C489.8 288.067 485.4 291.933 483.533 290.067C482.6 289.133 482.333 287.533 482.733 286.467C483.667 284.067 487.133 283.667 488.467 285.8ZM513 287C513 287.667 512.467 288.333 511.667 288.333C511 288.333 510.333 287.667 510.333 287C510.333 286.2 511 285.667 511.667 285.667C512.467 285.667 513 286.2 513 287ZM389.667 288.2C390.067 288.867 389.8 289.8 389 290.333C388.333 290.733 387.667 290.2 387.667 289.133C387.667 286.733 388.467 286.333 389.667 288.2ZM410.333 296.867C409.4 298.067 408.2 299 407.667 299C405.667 299 405 294.733 406.467 292.733C407.933 291.133 408.333 291.133 410.067 292.867C411.8 294.467 411.8 295.267 410.333 296.867ZM438.333 297C437 298.6 436.2 298.733 434.867 297.533C433.8 296.733 433 295.267 433 294.333C433 291.8 436.067 291 438.2 293.133C439.8 294.6 439.8 295.267 438.333 297ZM453 296.333C451.267 299.533 451.133 299.533 448.333 296.867C445.4 293.933 448.067 290.467 451.8 292.467C453.8 293.533 454.067 294.333 453 296.333ZM467.667 294.467C467.667 297 463.933 298.467 462.067 296.6C461 295.533 461 294.6 462.2 293.133C464.067 290.867 467.667 291.8 467.667 294.467ZM480.867 292.867C483.133 295.533 479.133 298.6 476.333 296.333C474.733 295 474.6 294.2 475.8 292.867C476.6 291.8 477.8 291 478.333 291C478.867 291 480.067 291.8 480.867 292.867ZM495.267 293.133C495.667 294.2 495.4 295.8 494.467 296.733C492.6 298.6 488.2 294.733 489.533 292.467C490.867 290.333 494.333 290.733 495.267 293.133ZM510.067 294.067C510.6 296.733 506.733 298.6 504.733 296.6C502.733 294.6 504.6 290.733 507.267 291.267C508.6 291.533 509.8 292.733 510.067 294.067ZM396.333 295.8C396.333 297.133 395.267 298.467 393.933 298.733C391 299.267 389.267 295.133 391.8 293.533C394.467 291.933 396.333 292.867 396.333 295.8ZM424.733 294.6C425.4 296.867 421.267 298.467 419.4 296.6C418.6 295.8 418.467 294.6 419 293.667C420.2 291.8 423.933 292.467 424.733 294.6ZM431.533 303.933C430.2 305.4 429.533 305.4 427.533 303.533C425.533 301.8 425.4 300.867 426.467 299.4C427.8 297.933 428.467 297.933 430.467 299.8C432.467 301.533 432.6 302.467 431.533 303.933ZM474.067 300.733C474.6 303.533 470.733 305.267 468.733 303.267C467.667 302.2 467.667 301.133 469 299.667C471.133 297.133 473.533 297.667 474.067 300.733ZM487.667 299.667C489.4 301.8 488.467 304.333 485.667 304.333C483.267 304.333 481.933 302.067 482.867 299.667C483.8 297.133 485.533 297.133 487.667 299.667ZM502.333 299.667C504.067 301.8 503.133 304.333 500.467 304.333C497.533 304.333 495.533 301 497.267 299.267C499.4 297.133 500.333 297.267 502.333 299.667ZM403.533 300.733C404.6 302.067 404.467 303 403.4 304.067C399.933 307.533 395.4 304.6 398.333 301C400.333 298.6 401.533 298.467 403.533 300.733ZM417.667 300.333C418.2 301.133 417.8 302.733 416.867 303.8C415.4 305.533 415 305.533 413.267 303.8C412.2 302.733 411.8 301.267 412.2 300.467C413.4 298.6 416.6 298.6 417.667 300.333ZM445.933 301.133C446.333 302.2 446.067 303.8 445.133 304.733C443.267 306.6 438.867 302.733 440.2 300.467C441.533 298.333 445 298.733 445.933 301.133ZM460.333 300.333C460.867 301.133 460.467 302.733 459.533 303.8C458.067 305.533 457.667 305.533 455.933 303.8C454.867 302.733 454.467 301.267 454.867 300.467C456.067 298.6 459.267 298.6 460.333 300.333ZM390.333 303.133C390.333 303.8 389.8 304.333 389 304.333C388.333 304.333 387.667 303.4 387.667 302.2C387.667 301.133 388.333 300.6 389 301C389.8 301.4 390.333 302.333 390.333 303.133ZM481 306.467C482.467 308.067 482.467 308.867 480.867 310.467C479.133 312.067 478.467 312.067 476.333 310.467C474.2 308.867 474.067 308.333 475.533 306.467C477.8 303.8 478.867 303.8 481 306.467ZM496.6 308.733C495.933 310.867 491.667 311.533 489.933 309.8C487.533 307.4 491.4 304.067 494.6 305.8C495.933 306.6 496.867 307.933 496.6 308.733ZM510.333 307.667C510.333 308.6 509.533 310.067 508.467 310.867C505.8 313.133 502.6 309.133 505 306.467C506.733 304.2 510.333 305.133 510.333 307.667ZM397 310.467C397 312.6 392.2 313 391 311C390.467 310.2 390.867 308.733 391.667 307.533C393.533 305.4 397 307.267 397 310.467ZM411.133 307.133C412.467 309.4 408.067 313.267 406.2 311.4C405.267 310.467 405 308.867 405.4 307.8C406.333 305.4 409.8 305 411.133 307.133ZM424.867 307.533C426.067 308.867 425.933 309.667 424.333 311C422.6 312.467 421.8 312.467 420.067 310.733C417.933 308.467 418.733 305.667 421.533 305.667C422.6 305.667 424.067 306.467 424.867 307.533ZM439.267 307.8C439.667 308.867 439.4 310.467 438.467 311.4C436.6 313.267 432.2 309.4 433.533 307.133C434.867 305 438.333 305.4 439.267 307.8ZM453 307C454.733 308.067 454.733 308.467 452.733 310.467C450.867 312.333 450.067 312.467 448.333 311C446.733 309.667 446.6 308.867 447.8 307.533C449.533 305.4 450.333 305.267 453 307ZM467 307C467.533 307.8 467.133 309.4 466.2 310.467C464.733 312.2 464.333 312.2 462.6 310.467C461.533 309.4 461.133 307.933 461.533 307.133C462.733 305.267 465.933 305.267 467 307ZM487.533 317.133C485.667 319 485.267 319 483.667 317.133C482.333 315.4 482.333 314.6 483.667 312.867C485.267 311 485.667 311 487.533 312.867C489.4 314.867 489.4 315.133 487.533 317.133ZM417.533 317.8C415.4 320.067 415 320.2 413.267 318.467C410.333 315.533 413.533 311.8 417.267 313.8C419.8 315.133 419.8 315.267 417.533 317.8ZM432.467 314.333C433 315.4 432.467 317.267 431.533 318.467C430.067 320.2 429.667 320.2 427.933 318.467C425.667 316.2 426.733 312.333 429.667 312.333C430.867 312.333 432.067 313.267 432.467 314.333ZM446.2 314.2C447.4 315.533 447.267 316.333 445.667 317.667C442.867 319.933 438.867 316.867 441.133 314.2C441.933 313.133 443.133 312.333 443.667 312.333C444.2 312.333 445.4 313.133 446.2 314.2ZM459.667 313.667C461.4 314.733 461.4 315.133 459.4 317.267C456.6 319.933 453.4 317.933 454.733 314.467C455.667 312.067 456.867 311.8 459.667 313.667ZM474.2 314.2C475.4 315.533 475.267 316.333 473.667 317.667C471.933 319.133 471.133 319.133 469.4 317.4C467.267 315.133 468.067 312.333 470.867 312.333C471.933 312.333 473.4 313.133 474.2 314.2ZM503 313.667C503.533 314.467 503.133 316.067 502.2 317.133C500.733 318.867 500.333 318.867 498.6 317.133C497.533 316.067 497.133 314.6 497.533 313.8C498.733 311.933 501.933 311.933 503 313.667ZM403.267 315.8C404.333 318.6 401.533 321.4 399.533 319.4C397.8 317.667 398.867 313.667 401 313.667C401.8 313.667 402.733 314.6 403.267 315.8ZM390.333 316.2C390.333 317 389.8 317.933 389 318.333C388.333 318.733 387.667 318.2 387.667 317.133C387.667 315.933 388.333 315 389 315C389.8 315 390.333 315.533 390.333 316.2ZM424.733 325.267C422.867 327.133 422.067 327.133 420.333 325.667C418.467 324.067 418.467 323.667 420.6 321.4C422.6 319.133 423 319.133 424.867 321C426.733 322.733 426.733 323.267 424.733 325.267ZM453.8 324.2C452.6 326.067 449.4 326.067 448.333 324.333C447.8 323.533 448.2 321.933 449.133 320.867C450.6 319.133 451 319.133 452.733 320.867C453.8 321.933 454.2 323.4 453.8 324.2ZM467.4 322.067C467.933 324.867 464.067 326.6 462.067 324.6C461 323.533 461 322.467 462.333 321C464.467 318.467 466.867 319 467.4 322.067ZM481.533 320.2C482.733 322.067 481 325.667 479 325.667C476.6 325.667 475.267 323.4 476.2 321C477 318.733 480.467 318.333 481.533 320.2ZM495.533 320.867C496.733 322.2 496.6 323 495 324.333C492.467 326.333 488.733 323.933 489.933 320.867C490.867 318.467 493.533 318.467 495.533 320.867ZM509.933 321.133C511.267 324.6 508.067 326.6 505.267 323.933C503.267 321.8 503.267 321.4 505 320.333C507.8 318.467 509 318.733 509.933 321.133ZM396.6 322.467C397.8 325.533 394.867 327.8 392.333 325.667C390.733 324.333 390.6 323.533 391.8 322.2C393.8 319.8 395.533 319.8 396.6 322.467ZM411 321.667C411.533 322.467 411.133 324.067 410.2 325.133C408.733 326.867 408.333 326.867 406.6 325.133C405.533 324.067 405.133 322.6 405.533 321.8C406.733 319.933 409.933 319.933 411 321.667ZM439.4 322.6C440.067 324.867 435.933 326.467 434.067 324.6C433.267 323.8 433.133 322.6 433.667 321.667C434.867 319.8 438.6 320.467 439.4 322.6ZM431.667 328.467C431.667 329.133 430.733 329.667 429.667 329.667C427.667 329.667 427 328.067 428.467 326.6C429.533 325.533 431.667 326.733 431.667 328.467ZM458.2 328.467C456.067 329.8 455.133 329 456.333 327.133C456.733 326.333 457.8 326.067 458.6 326.467C459.4 327 459.267 327.667 458.2 328.467ZM473.667 327C474.067 327.667 473.267 328.333 471.667 328.333C470.067 328.333 469.267 327.667 469.667 327C470.067 326.2 471 325.667 471.667 325.667C472.333 325.667 473.267 326.2 473.667 327ZM488.333 327C488.733 327.667 487.933 328.333 486.333 328.333C484.733 328.333 483.933 327.667 484.333 327C484.733 326.2 485.667 325.667 486.333 325.667C487 325.667 487.933 326.2 488.333 327ZM501.667 327C502.067 327.667 501.267 328.333 499.667 328.333C498.067 328.333 497.267 327.667 497.667 327C498.067 326.2 499 325.667 499.667 325.667C500.333 325.667 501.267 326.2 501.667 327ZM403 328.333C403.4 329 402.6 329.667 401 329.667C399.4 329.667 398.6 329 399 328.333C399.4 327.533 400.333 327 401 327C401.667 327 402.6 327.533 403 328.333ZM417 328.333C417 329 416.067 329.667 414.867 329.667C413.8 329.667 413.267 329 413.667 328.333C414.067 327.533 415 327 415.8 327C416.467 327 417 327.533 417 328.333ZM445 328.333C445 329 444.467 329.667 443.667 329.667C443 329.667 442.333 329 442.333 328.333C442.333 327.533 443 327 443.667 327C444.467 327 445 327.533 445 328.333Z" fill="black"/>
<path d="M325.998 207.525C325.865 207.659 298.798 208.059 265.865 208.592C232.932 208.992 205.732 209.659 205.465 209.925C204.665 210.725 204.932 280.592 205.998 308.592L206.798 333.792L264.265 332.992C295.865 332.459 325.332 332.059 329.598 332.059H337.465L336.532 270.459C335.998 236.459 335.198 208.325 334.798 207.792C334.398 206.859 327.065 206.725 325.998 207.525ZM269.198 213.659C269.598 214.325 270.132 227.259 270.265 242.592L270.532 270.325L252.265 271.125C242.265 271.659 228.398 272.059 221.732 272.059H209.465L208.532 265.925C208.132 262.459 207.732 248.992 207.732 235.925V212.059L235.465 211.792C263.998 211.392 267.865 211.525 269.198 213.659ZM287.732 211.525C287.732 212.859 275.465 226.725 274.265 226.725C273.598 226.725 273.065 224.992 273.065 222.859C273.065 220.059 274.398 217.792 277.732 214.859C281.865 211.259 287.732 209.259 287.732 211.525ZM301.065 212.192C301.065 213.792 275.865 240.059 274.132 240.059C273.598 240.059 273.065 238.725 273.065 236.992C273.065 233.125 294.532 210.725 298.398 210.725C299.865 210.725 301.065 211.392 301.065 212.192ZM315.732 211.525C315.732 212.725 275.332 254.725 274.132 254.725C273.598 254.725 273.065 253.125 273.065 251.259C273.065 246.592 307.998 210.725 312.665 210.725C314.398 210.725 315.732 211.125 315.732 211.525ZM323.598 218.325C302.132 241.525 274.398 269.125 273.732 268.059C271.865 265.125 277.865 257.525 299.732 234.859C319.465 214.325 323.598 210.725 326.932 210.725H330.798L323.598 218.325ZM331.732 220.992C331.598 223.925 326.932 229.525 309.198 247.792C289.732 268.059 286.398 270.859 283.198 270.459C279.865 270.059 281.465 268.192 305.065 243.659C319.198 229.259 330.932 217.392 331.198 217.392C331.465 217.392 331.732 218.992 331.732 220.992ZM332.132 235.525C331.998 236.859 324.798 245.392 316.132 254.459C304.665 266.325 299.598 270.725 297.332 270.725C295.598 270.725 294.398 270.192 294.665 269.525C295.465 266.992 329.732 232.459 331.065 232.725C331.865 232.859 332.265 234.192 332.132 235.525ZM333.065 248.592C333.065 253.525 316.265 270.725 311.465 270.725C309.465 270.725 307.732 270.325 307.732 269.792C307.732 268.459 330.798 245.392 331.998 245.392C332.665 245.392 333.065 246.859 333.065 248.592ZM333.065 262.992C333.065 266.859 329.332 270.725 325.465 270.725C321.332 270.725 321.598 269.659 326.665 264.459C331.598 259.259 333.065 258.992 333.065 262.992ZM309.465 274.325C309.998 274.725 309.732 275.925 308.932 276.992C307.732 278.325 306.932 278.325 305.598 277.259C304.532 276.459 303.732 275.259 303.732 274.592C303.732 273.259 308.265 272.992 309.465 274.325ZM323.465 274.992C323.065 275.925 321.998 276.725 321.065 276.725C320.132 276.725 319.065 275.925 318.798 274.992C318.398 274.059 319.332 273.392 321.065 273.392C322.798 273.392 323.732 274.059 323.465 274.992ZM248.932 297.259C268.265 315.792 271.732 319.659 271.732 322.992C271.732 326.592 269.732 324.992 245.732 301.925C231.465 288.192 219.732 276.459 219.732 275.792C219.732 275.125 221.198 274.725 222.932 274.992C224.798 275.259 234.932 283.792 248.932 297.259ZM254.932 288.992C263.065 296.992 270.132 303.925 270.665 304.725C272.132 306.592 271.998 312.325 270.532 311.792C268.932 311.259 233.065 276.592 233.065 275.525C233.065 275.125 234.665 274.725 236.532 274.725C239.332 274.725 243.732 278.192 254.932 288.992ZM262.798 282.859C269.065 288.592 271.732 291.925 271.732 294.192C271.732 295.925 271.198 297.392 270.398 297.392C269.732 297.392 263.865 292.325 257.465 286.059C246.132 275.259 245.865 274.725 249.732 274.725C252.798 274.725 255.998 276.725 262.798 282.859ZM269.865 276.592C270.265 277.659 270.398 279.792 270.132 281.392C269.732 284.059 269.465 283.925 265.198 279.525L260.532 274.725H264.798C267.332 274.725 269.465 275.525 269.865 276.592ZM280.798 276.859C279.598 278.059 277.998 278.592 277.198 278.192C274.532 276.459 275.732 274.725 279.332 274.725C282.665 274.725 282.798 274.859 280.798 276.859ZM294.398 276.725C293.065 278.325 292.265 278.459 290.932 277.259C288.265 275.125 288.532 274.725 292.532 274.725C295.465 274.725 295.865 274.992 294.398 276.725ZM233.598 295.659C258.398 319.792 266.398 327.792 266.398 328.725C266.398 329.125 264.932 329.392 263.065 329.392C260.532 329.392 255.065 324.992 241.332 311.659C231.332 301.792 219.865 290.992 216.132 287.392C209.198 281.125 207.065 276.059 211.198 276.059C212.398 276.059 222.398 284.859 233.598 295.659ZM330.398 279.392C332.132 281.525 331.198 284.059 328.532 284.059C325.598 284.059 323.598 280.725 325.332 278.992C327.465 276.859 328.398 276.992 330.398 279.392ZM288.398 280.059C288.932 280.859 288.532 282.325 287.732 283.525C286.398 284.992 285.598 285.125 284.265 283.925C282.798 282.725 282.798 281.925 283.865 280.592C285.732 278.325 287.198 278.192 288.398 280.059ZM302.265 280.592C303.465 281.925 303.332 282.725 301.732 284.059C299.998 285.525 299.198 285.525 297.465 283.792C295.332 281.525 296.132 278.725 298.932 278.725C299.998 278.725 301.465 279.525 302.265 280.592ZM316.398 280.059C316.932 280.859 316.532 282.459 315.598 283.525C314.132 285.259 313.732 285.259 311.998 283.525C310.932 282.459 310.532 280.992 310.932 280.192C312.132 278.325 315.332 278.325 316.398 280.059ZM280.532 290.592C277.598 293.392 274.398 290.592 277.065 287.392C278.398 285.792 279.198 285.659 280.665 286.992C282.265 288.325 282.265 288.725 280.532 290.592ZM295.598 287.259C296.798 288.592 296.665 289.392 295.065 290.725C292.265 292.992 288.265 289.925 290.532 287.259C291.332 286.192 292.532 285.392 293.065 285.392C293.598 285.392 294.798 286.192 295.598 287.259ZM309.865 286.859C311.198 289.125 306.798 292.992 304.932 291.125C303.998 290.192 303.732 288.592 304.132 287.525C305.065 285.125 308.532 284.725 309.865 286.859ZM323.465 288.459C323.732 289.925 323.065 290.725 321.198 290.725C318.132 290.725 316.532 288.725 317.732 286.592C319.065 284.592 322.932 285.792 323.465 288.459ZM232.532 308.592C247.065 322.592 252.798 328.859 251.865 329.792C249.065 332.592 243.732 328.725 226.398 311.525C213.732 298.859 209.065 293.392 209.065 291.125C209.065 289.259 209.732 288.059 210.398 288.325C211.198 288.592 221.065 297.659 232.532 308.592ZM288.665 293.525C290.798 295.659 289.332 298.725 286.398 298.725C283.065 298.725 281.732 296.325 283.732 294.059C285.732 291.659 286.665 291.525 288.665 293.525ZM301.865 297.259C298.932 300.059 295.732 297.259 298.398 294.059C299.732 292.459 300.532 292.325 301.998 293.659C303.598 294.992 303.598 295.392 301.865 297.259ZM316.665 294.192C317.065 295.259 316.798 296.859 315.865 297.792C313.998 299.659 309.598 295.792 310.932 293.525C312.265 291.392 315.732 291.792 316.665 294.192ZM330.932 294.192C331.865 296.725 330.798 298.725 328.398 298.725C325.998 298.725 324.665 296.459 325.598 294.059C326.532 291.392 329.865 291.525 330.932 294.192ZM282.398 303.525C282.398 306.325 279.598 307.125 277.332 304.992C275.598 303.259 275.598 302.459 277.065 300.725C278.398 299.125 279.198 298.992 280.532 300.192C281.598 300.992 282.398 302.459 282.398 303.525ZM308.932 304.859C307.065 306.725 306.665 306.725 305.065 304.859C303.732 303.125 303.732 302.325 305.065 300.592C306.665 298.725 307.065 298.725 308.932 300.592C310.798 302.592 310.798 302.859 308.932 304.859ZM323.732 300.725C325.465 302.859 324.532 305.392 321.865 305.392C318.932 305.392 316.932 302.059 318.665 300.325C320.798 298.192 321.732 298.325 323.732 300.725ZM295.732 302.592C295.732 304.059 295.198 305.525 294.532 305.925C292.932 306.992 289.998 303.125 291.065 301.392C292.532 299.125 295.732 299.925 295.732 302.592ZM228.798 319.392C233.998 324.459 238.398 329.125 238.398 329.659C238.398 330.325 237.065 330.725 235.465 330.725C233.465 330.592 228.132 326.592 220.798 319.392C211.598 310.592 209.065 307.392 209.065 304.459V300.859L214.132 305.392C216.798 307.925 223.465 314.192 228.798 319.392ZM288.932 308.592C290.132 309.925 289.998 310.725 288.398 312.059C285.598 314.325 281.598 311.259 283.865 308.592C284.665 307.525 285.865 306.725 286.398 306.725C286.932 306.725 288.132 307.525 288.932 308.592ZM303.065 308.059C303.598 308.859 303.198 310.459 302.265 311.525C300.798 313.259 300.398 313.259 298.665 311.525C297.598 310.459 297.198 308.992 297.598 308.192C298.798 306.325 301.998 306.325 303.065 308.059ZM316.398 308.059C316.932 308.859 316.532 310.459 315.598 311.525C314.132 313.259 313.732 313.259 311.998 311.525C310.932 310.459 310.532 308.992 310.932 308.192C312.132 306.325 315.332 306.325 316.398 308.059ZM331.332 308.859C332.398 311.792 328.932 313.792 326.532 311.525C325.598 310.459 325.198 308.992 325.598 308.192C326.932 306.059 330.398 306.459 331.332 308.859ZM323.865 317.925C321.998 320.059 318.398 319.392 318.398 316.859C318.398 315.925 319.065 314.592 319.998 313.659C322.532 311.125 326.132 315.125 323.865 317.925ZM282.132 316.459C282.665 319.259 278.798 320.992 276.798 318.992C275.732 317.925 275.732 316.859 277.065 315.392C279.198 312.859 281.598 313.392 282.132 316.459ZM295.598 315.259C296.798 316.592 296.665 317.392 295.065 318.725C292.532 320.859 289.598 318.592 290.798 315.525C291.865 312.859 293.598 312.859 295.598 315.259ZM309.998 315.525C310.398 316.592 310.132 318.192 309.198 319.125C307.332 320.992 302.932 317.125 304.265 314.859C305.598 312.725 309.065 313.125 309.998 315.525ZM218.132 322.459C221.998 325.925 225.065 329.125 225.065 329.792C225.065 332.459 217.465 330.325 213.465 326.459C209.465 322.592 207.465 316.059 210.132 316.059C210.798 316.059 214.398 318.859 218.132 322.459ZM289.065 322.059C291.065 324.459 289.732 326.725 286.398 326.725C285.065 326.725 283.465 326.059 283.065 325.392C282.132 323.925 284.665 320.059 286.398 320.059C286.932 320.059 288.132 320.992 289.065 322.059ZM302.398 322.059C304.132 324.192 303.198 326.725 300.398 326.725C297.998 326.725 296.665 324.459 297.598 322.059C298.532 319.525 300.265 319.525 302.398 322.059ZM316.932 321.925C319.198 324.592 315.198 327.659 312.398 325.392C310.798 324.059 310.665 323.259 311.865 321.925C312.665 320.859 313.865 320.059 314.398 320.059C314.932 320.059 316.132 320.859 316.932 321.925ZM331.465 323.125C331.998 325.792 328.132 327.659 326.132 325.659C324.132 323.659 325.998 319.792 328.665 320.325C329.998 320.592 331.198 321.792 331.465 323.125ZM280.398 328.059C280.798 328.725 280.532 329.392 279.865 329.392C279.065 329.392 278.398 328.725 278.398 328.059C278.398 327.259 278.665 326.725 278.932 326.725C279.332 326.725 279.998 327.259 280.398 328.059ZM308.398 328.059C308.798 328.725 308.532 329.392 307.865 329.392C307.065 329.392 306.398 328.725 306.398 328.059C306.398 327.259 306.665 326.725 306.932 326.725C307.332 326.725 307.998 327.259 308.398 328.059Z" fill="black"/>
<path d="M64.8667 207.698L23 208.098L23.9333 269.831C24.4667 303.698 25.1333 331.831 25.5333 332.364C26.0667 333.431 112.467 332.498 140.2 331.298L156.467 330.498L155.8 270.364C155.4 237.164 154.867 209.298 154.467 208.364C154.2 207.164 148.333 206.898 130.333 207.031C117.267 207.298 87.8 207.564 64.8667 207.698ZM150.333 210.364C150.733 211.031 151.133 224.364 151.4 240.098L151.933 268.764L131.267 269.564C107.133 270.631 28.7333 271.298 28.0667 270.631C27.8 270.364 27.2667 257.298 26.8667 241.698C26.3333 215.964 26.4667 213.298 28.4667 212.098C29.8 211.431 52.6 210.898 79.2667 210.764C105.933 210.764 128.067 210.364 128.467 210.098C129.4 209.031 149.667 209.298 150.333 210.364ZM86.4667 300.631C104.333 317.964 113.533 327.698 112.6 328.631C110.2 331.031 105.4 327.164 78.7333 301.298C56.7333 279.964 52.7333 275.431 54.7333 274.631C56.2 274.098 57.6667 273.698 58.0667 273.831C58.4667 273.964 71.2667 286.098 86.4667 300.631ZM93 293.164C104.2 303.964 116.867 316.231 121.267 320.364L129.267 328.098H125C121.133 328.098 117.667 325.298 96.3333 304.498C82.8667 291.431 70.6 279.698 69 278.231C65 274.764 65.1333 273.431 69.2667 273.431C71.8 273.431 77.6667 278.231 93 293.164ZM95.1333 281.698C99.9333 286.231 112.6 298.364 123 308.631C140.467 325.698 141.8 327.431 138.733 327.831C135.8 328.231 131 324.098 107.933 301.831C92.8667 287.298 80.6 275.031 80.6 274.498C80.6 273.831 81.9333 273.431 83.5333 273.431C85.1333 273.431 89.9333 276.764 95.1333 281.698ZM127.133 298.498C150.6 321.031 156.333 328.231 151 328.098C150.067 328.098 136.733 315.698 121.267 300.764C95.8 275.964 93.6667 273.431 97.5333 273.698C101 274.098 106.2 278.364 127.133 298.498ZM134.6 291.964C147.4 304.764 152.6 310.764 152.6 313.031C152.6 314.764 152.333 316.098 151.933 316.098C151 316.098 109.4 275.964 108.733 274.498C108.467 273.831 110.2 273.431 112.467 273.698C115.667 273.964 120.333 277.831 134.6 291.964ZM141.4 284.498C150.867 293.564 152.733 296.098 152.333 299.031C151.933 302.231 151 301.564 136.6 287.964C121.533 273.831 121.4 273.564 125.667 273.431C129.4 273.431 131.8 275.164 141.4 284.498ZM148.2 277.698C152.2 281.564 154.333 288.098 151.533 288.098C151 288.098 147.267 284.764 143.267 280.764L136.067 273.431H139.933C142.467 273.431 145.267 274.898 148.2 277.698ZM59.1333 301.298C73.9333 315.564 85.9333 327.698 85.9333 328.364C85.9333 329.031 84.4667 329.431 82.6 329.164C78.8667 328.631 27.2667 279.698 27.2667 276.631C27.2667 271.698 34.0667 277.031 59.1333 301.298ZM72.3333 300.898C87.1333 315.298 99.2667 327.564 99.2667 328.364C99.2667 329.031 97.8 329.431 96.0667 329.164C94.2 328.898 82.6 318.764 65.2667 301.698C40.3333 277.431 37.9333 274.764 41.5333 274.764C44.7333 274.764 49.8 279.164 72.3333 300.898ZM50.0667 306.364C61.4 317.164 71.1333 326.764 71.6667 327.698C72.4667 328.898 71.6667 329.431 69 329.431C63.8 329.431 27.2667 294.898 27.2667 289.964C27.2667 288.231 27.8 286.764 28.4667 286.764C29.1333 286.764 38.8667 295.564 50.0667 306.364ZM44.6 315.431C57.8 328.631 58.3333 329.431 54.6 329.431C51.4 329.431 48.3333 327.164 39 317.831C28.2 307.031 24.7333 301.431 29 301.431C29.9333 301.431 36.8667 307.698 44.6 315.431ZM37.9333 322.098L45.1333 329.431H41C35.4 329.431 28.6 323.431 28.6 318.498C28.6 316.364 29.1333 314.764 29.6667 314.764C30.2 314.764 33.9333 318.098 37.9333 322.098Z" fill="black"/>
<path d="M330.933 387.582C330.533 387.982 311.067 388.382 287.733 388.649C264.267 388.782 235.867 389.182 224.533 389.449L204 389.849L204.8 427.449C205.333 448.115 205.733 475.982 205.733 489.315V513.582L266.8 512.915C300.267 512.515 329.733 511.982 332.133 511.582L336.533 510.915L336.267 464.649C335.867 397.982 334.8 383.715 330.933 387.582ZM287.2 394.115C285.6 395.715 281.2 394.249 282.267 392.515C282.667 391.849 284.267 391.582 285.867 391.982C287.6 392.515 288.133 393.182 287.2 394.115ZM300.133 392.649C299.867 393.315 299.067 393.849 298.4 393.849C297.733 393.849 296.933 393.315 296.667 392.649C296.533 391.982 297.2 391.449 298.4 391.449C299.6 391.449 300.267 391.982 300.133 392.649ZM315.067 392.249C315.067 394.649 312.667 395.049 311.067 393.049C309.733 391.315 309.867 391.049 312.267 391.049C313.733 391.049 315.067 391.582 315.067 392.249ZM329.467 392.649C329.067 393.582 328 394.382 327.067 394.382C326.133 394.382 325.067 393.582 324.8 392.649C324.4 391.715 325.333 391.049 327.067 391.049C328.8 391.049 329.733 391.715 329.467 392.649ZM231.6 405.315C238.933 412.515 250.933 424.115 258 430.915C267.067 439.715 271.067 444.515 271.067 446.649C271.067 448.382 270.667 449.715 270.267 449.715C268.933 449.715 213.067 395.849 212.667 394.115C212.4 393.049 213.467 392.382 215.2 392.382C217.067 392.382 222.8 396.915 231.6 405.315ZM250.8 409.982C260.8 419.582 269.467 428.782 269.867 430.249C271.867 437.582 268.533 435.715 253.867 421.315C245.333 412.915 235.6 403.582 232.133 400.382C224.8 393.982 224.267 392.382 229.2 392.382C231.733 392.382 237.067 396.782 250.8 409.982ZM258.133 403.449C268.133 412.782 269.867 414.915 269.467 417.982C269.067 421.449 268.4 421.049 254.8 408.249C246.8 400.782 240.4 394.249 240.4 393.582C240.4 392.915 241.733 392.382 243.467 392.382C245.333 392.515 250.8 396.649 258.133 403.449ZM265.6 396.915C268.8 400.115 269.867 402.382 269.467 404.915C269.067 408.382 268.8 408.249 261.067 400.382L253.2 392.382H257.2C260 392.382 262.533 393.715 265.6 396.915ZM294.533 400.249C293.333 402.115 290.133 402.115 289.067 400.382C288.533 399.582 288.933 397.982 289.867 396.915C291.333 395.182 291.733 395.182 293.467 396.915C294.533 397.982 294.933 399.449 294.533 400.249ZM308.4 397.049C310.133 399.182 309.2 401.715 306.533 401.715C303.6 401.715 301.6 398.382 303.333 396.649C305.467 394.515 306.4 394.649 308.4 397.049ZM322.667 397.182C323.867 400.249 320.933 402.515 318.4 400.382C316.8 399.049 316.667 398.249 317.867 396.915C319.867 394.515 321.6 394.515 322.667 397.182ZM281.067 397.715C281.6 398.515 281.2 400.115 280.267 401.182C278.8 402.915 278.4 402.915 276.667 401.182C275.6 400.115 275.2 398.649 275.6 397.849C276.8 395.982 280 395.982 281.067 397.715ZM254.267 440.649C269.467 455.315 271.333 457.449 270.933 460.915C270.4 464.649 269.6 463.982 248.4 443.582C236.267 431.849 222.533 418.782 218 414.382C208.533 405.449 206.667 402.915 207.867 399.849C208.667 397.582 213.733 401.982 254.267 440.649ZM301.733 403.849C303.2 405.449 303.067 406.249 301.333 408.115C299.2 410.115 298.933 410.115 296.8 408.115C295.067 406.249 294.933 405.449 296.4 403.849C297.333 402.649 298.533 401.715 299.067 401.715C299.6 401.715 300.8 402.649 301.733 403.849ZM314.933 407.849C313.067 409.715 312.667 409.715 311.067 407.849C309.733 406.115 309.733 405.315 311.067 403.582C312.667 401.715 313.067 401.715 314.933 403.582C316.8 405.582 316.8 405.849 314.933 407.849ZM329.333 403.182C331.2 405.049 330.133 408.382 327.733 408.382C325.333 408.382 324 406.115 324.933 403.715C325.733 401.315 327.333 401.182 329.333 403.182ZM287.733 404.382C288.267 405.182 287.867 406.782 286.933 407.849C285.467 409.582 285.067 409.582 283.333 407.849C282.267 406.782 281.867 405.315 282.267 404.515C283.467 402.649 286.667 402.649 287.733 404.382ZM323.067 413.715C321.333 416.915 320 417.049 317.733 414.382C315.2 411.449 318.4 407.982 321.867 409.849C323.867 410.915 324.133 411.715 323.067 413.715ZM280.267 411.582C281.467 412.915 281.333 413.715 279.733 415.049C277.2 417.182 274.267 414.915 275.467 411.849C276.533 409.182 278.267 409.182 280.267 411.582ZM294.933 411.582C296.133 412.915 296 413.715 294.4 415.049C292.667 416.515 291.867 416.515 290.133 414.782C288 412.515 288.8 409.715 291.6 409.715C292.667 409.715 294.133 410.515 294.933 411.582ZM309.067 411.049C309.6 411.849 309.2 413.449 308.267 414.515C306.8 416.249 306.4 416.249 304.667 414.515C303.6 413.449 303.2 411.982 303.6 411.182C304.8 409.315 308 409.315 309.067 411.049ZM252.133 452.782C266.267 466.515 271.067 472.115 271.067 474.515C271.067 476.249 270.667 477.715 270.267 477.715C269.867 477.715 255.733 464.382 238.933 448.115C212.533 422.515 208.4 417.982 208.4 414.515C208.4 410.115 206 408.115 252.133 452.782ZM287.067 418.382C288.8 420.515 287.867 423.049 285.067 423.049C282.667 423.049 281.333 420.782 282.267 418.382C283.2 415.849 284.933 415.849 287.067 418.382ZM301.6 418.249C302.8 419.582 302.667 420.382 301.067 421.715C298.533 423.849 295.6 421.582 296.8 418.515C297.867 415.849 299.6 415.849 301.6 418.249ZM316 418.515C317.2 421.582 314.267 423.849 311.733 421.715C310.133 420.382 310 419.582 311.2 418.249C313.2 415.849 314.933 415.849 316 418.515ZM330.4 419.049C330.4 420.115 329.067 421.182 327.467 421.449C324.533 421.849 323.2 419.315 325.333 417.182C326.933 415.715 330.4 416.915 330.4 419.049ZM280.4 425.049C282.133 427.182 281.2 429.715 278.4 429.715C276 429.715 274.667 427.449 275.6 425.049C276.533 422.515 278.267 422.515 280.4 425.049ZM294.933 424.782C296.533 426.782 294.533 429.715 291.6 429.715C289.333 429.715 288.4 426.249 290.133 424.515C292 422.649 293.067 422.649 294.933 424.782ZM309.2 428.249C308 430.115 304.8 430.115 303.733 428.382C303.2 427.582 303.6 425.982 304.533 424.915C306 423.182 306.4 423.182 308.133 424.915C309.2 425.982 309.6 427.449 309.2 428.249ZM322.933 424.915C324.133 426.249 324 427.049 322.4 428.382C319.6 430.649 315.6 427.582 317.867 424.915C318.667 423.849 319.867 423.049 320.4 423.049C320.933 423.049 322.133 423.849 322.933 424.915ZM242.267 457.182C267.333 481.315 271.2 485.715 270.8 488.649C270.4 491.849 267.733 489.582 239.733 462.782C215.067 439.049 208.933 432.515 208.667 429.315C208.267 425.715 208.4 425.582 210.8 427.182C212.133 428.249 226.4 441.715 242.267 457.182ZM288.4 433.715C288.4 437.315 285.867 438.382 283.333 435.982C281.733 434.249 281.6 433.449 282.933 431.849C285.067 429.315 288.4 430.515 288.4 433.715ZM301.733 435.715C300.4 437.315 299.6 437.449 298.267 436.249C297.2 435.449 296.4 433.982 296.4 433.049C296.4 430.515 299.467 429.715 301.6 431.849C303.2 433.315 303.2 433.982 301.733 435.715ZM316.133 432.782C316.667 435.582 312.8 437.315 310.8 435.315C309.733 434.249 309.733 433.182 311.067 431.715C313.2 429.182 315.6 429.715 316.133 432.782ZM330.8 432.782C331.333 435.449 327.467 437.315 325.467 435.315C323.467 433.315 325.333 429.449 328 429.982C329.333 430.249 330.533 431.449 330.8 432.782ZM323.067 438.382C324.4 439.982 324.4 440.782 323.067 442.382C321.467 444.249 321.067 444.249 318.933 442.249C317.067 440.515 316.8 439.582 317.867 438.115C319.867 435.849 321.067 435.849 323.067 438.382ZM281.333 439.849C281.733 440.915 281.467 442.515 280.667 443.315C278.667 445.315 274.933 442.249 276 439.582C276.933 437.049 280.267 437.182 281.333 439.849ZM294.933 439.582C296.133 440.915 296 441.715 294.4 443.049C291.6 445.315 287.6 442.249 289.867 439.582C290.667 438.515 291.867 437.715 292.4 437.715C292.933 437.715 294.133 438.515 294.933 439.582ZM309.467 439.982C310.133 442.249 306 443.849 304.133 441.982C303.333 441.182 303.2 439.982 303.733 439.049C304.933 437.182 308.667 437.849 309.467 439.982ZM241.067 469.849C251.333 479.849 262.267 490.249 265.467 493.049C269.6 496.782 271.067 499.049 271.067 501.849C271.067 503.982 270.8 505.715 270.4 505.715C270 505.715 261.467 497.715 251.333 487.982C241.333 478.249 227.467 464.915 220.8 458.382C210.4 448.649 208.4 445.982 208.4 442.515V438.515L215.333 445.049C219.2 448.782 230.8 459.849 241.067 469.849ZM315.733 449.582C314 451.449 313.467 451.449 311.467 449.449C309.6 447.582 309.6 446.782 311.067 445.049C312.667 443.182 313.067 443.182 315.333 445.315C317.6 447.315 317.6 447.715 315.733 449.582ZM329.6 449.182C327.733 451.049 327.333 451.049 325.733 449.182C324.4 447.449 324.4 446.649 325.733 444.915C327.333 443.049 327.733 443.049 329.6 444.915C331.467 446.915 331.467 447.182 329.6 449.182ZM288.267 446.249C289.467 447.582 289.333 448.382 287.733 449.715C284.933 451.982 280.933 448.915 283.2 446.249C284 445.182 285.2 444.382 285.733 444.382C286.267 444.382 287.467 445.182 288.267 446.249ZM302.533 445.849C303.867 448.115 299.467 451.982 297.6 450.115C296.667 449.182 296.4 447.582 296.8 446.515C297.733 444.115 301.2 443.715 302.533 445.849ZM281.733 456.382C280 459.582 278.667 459.715 276.4 457.049C273.867 454.115 277.067 450.649 280.533 452.515C282.533 453.582 282.8 454.382 281.733 456.382ZM294.667 452.515C296.8 454.649 295.333 457.715 292.267 457.715C290.667 457.715 289.733 456.782 289.733 455.315C289.733 451.182 292 449.849 294.667 452.515ZM309.6 452.915C310.8 454.249 310.667 455.049 309.067 456.382C306.8 458.249 303.067 457.315 303.067 454.649C303.067 450.782 307.067 449.715 309.6 452.915ZM323.6 452.249C324.8 454.115 323.067 457.715 321.067 457.715C318.667 457.715 317.333 455.449 318.267 453.049C319.067 450.782 322.533 450.382 323.6 452.249ZM333.067 453.715C333.467 454.382 333.2 455.049 332.533 455.049C331.733 455.049 331.067 454.382 331.067 453.715C331.067 452.915 331.333 452.382 331.6 452.382C332 452.382 332.667 452.915 333.067 453.715ZM238.667 481.315C261.467 503.315 266.8 509.182 264.533 509.449C263.067 509.715 260.933 509.449 260 508.782C258.933 508.249 246.933 496.915 233.2 483.849C215.067 466.249 208.4 459.049 208.4 456.782C208.4 455.049 208.8 453.715 209.2 453.715C209.6 453.715 222.933 466.115 238.667 481.315ZM303.067 462.382C303.067 464.782 299.733 465.849 297.867 463.982C295.867 461.982 296 459.449 298.133 458.649C300.133 457.982 303.067 460.115 303.067 462.382ZM316.8 462.515C316.4 463.582 315.2 464.382 314.267 464.382C311.6 464.382 310.267 460.382 312.533 459.049C314.8 457.582 317.867 459.982 316.8 462.515ZM330.8 460.782C331.333 463.449 327.467 465.315 325.467 463.315C323.467 461.315 325.333 457.449 328 457.982C329.333 458.249 330.533 459.449 330.8 460.782ZM288.4 461.449C288.4 465.049 287.067 465.849 284.133 464.249C282.133 463.182 281.867 462.515 283.2 460.915C285.333 458.249 288.4 458.649 288.4 461.449ZM296.4 469.315C296.4 471.982 292.8 473.049 290.4 471.049C288.533 469.582 288.533 469.049 290.533 466.915C292.267 465.049 293.2 464.782 294.667 465.849C295.6 466.649 296.4 468.249 296.4 469.315ZM323.067 470.382C321.733 471.982 320.933 472.115 319.6 470.915C318.533 470.115 317.733 468.649 317.733 467.715C317.733 465.182 320.8 464.382 322.933 466.515C324.533 467.982 324.533 468.649 323.067 470.382ZM281.333 467.849C282.533 470.915 279.6 473.182 277.067 471.049C275.467 469.715 275.333 468.915 276.533 467.582C278.533 465.182 280.267 465.182 281.333 467.849ZM309.333 467.849C310.4 470.515 307.067 472.649 304.8 470.782C303.467 469.715 303.467 468.915 304.533 467.582C306.533 465.182 308.267 465.182 309.333 467.849ZM231.2 487.315C242.8 498.382 252.4 507.982 252.4 508.649C252.4 509.182 250.933 509.715 249.067 509.715C246.533 509.715 240.8 505.049 227.067 492.115C211.733 477.582 208.4 473.849 208.4 470.782C208.4 468.782 208.8 467.049 209.2 467.049C209.6 467.049 219.467 476.115 231.2 487.315ZM331.067 475.849C331.067 478.649 328.267 479.449 326 477.315C324.267 475.582 324.267 474.782 325.733 473.049C327.067 471.449 327.867 471.315 329.2 472.515C330.267 473.315 331.067 474.782 331.067 475.849ZM288.4 474.382C290.133 476.515 289.2 479.049 286.533 479.049C283.6 479.049 281.6 475.715 283.333 473.982C285.467 471.849 286.4 471.982 288.4 474.382ZM302.8 475.449C303.333 478.249 299.467 479.982 297.467 477.982C296.4 476.915 296.4 475.849 297.733 474.382C299.867 471.849 302.267 472.382 302.8 475.449ZM316.8 474.249C318 477.315 314.267 479.715 311.733 477.715C310.133 476.382 310 475.582 311.2 474.249C313.2 471.849 315.867 471.849 316.8 474.249ZM281.733 481.182C283.2 482.782 283.067 483.582 281.333 485.449C279.2 487.449 278.933 487.449 276.8 485.449C275.067 483.582 274.933 482.782 276.4 481.182C277.333 479.982 278.533 479.049 279.067 479.049C279.6 479.049 280.8 479.982 281.733 481.182ZM294.933 485.182C293.067 487.049 292.667 487.049 291.067 485.182C289.733 483.449 289.733 482.649 291.067 480.915C292.667 479.049 293.067 479.049 294.933 480.915C296.8 482.915 296.8 483.182 294.933 485.182ZM309.6 480.915C311.867 483.582 307.867 486.649 305.067 484.382C303.467 483.049 303.333 482.249 304.533 480.915C305.333 479.849 306.533 479.049 307.067 479.049C307.6 479.049 308.8 479.849 309.6 480.915ZM324.133 482.115C324.667 484.782 320.8 486.649 318.8 484.649C316.8 482.649 318.667 478.782 321.333 479.315C322.667 479.582 323.867 480.782 324.133 482.115ZM333.733 481.715C333.733 482.382 333.067 483.049 332.267 483.049C331.6 483.049 331.333 482.382 331.733 481.715C332.133 480.915 332.8 480.382 333.2 480.382C333.467 480.382 333.733 480.915 333.733 481.715ZM237.733 508.649C237.733 509.182 236.4 509.715 234.8 509.715C232.8 509.715 227.467 505.582 220.133 498.515C209.333 488.249 207.067 484.915 209.2 482.649C210.133 481.715 237.733 506.915 237.733 508.649ZM303.067 489.049C303.067 489.982 302.267 491.449 301.2 492.249C298.533 494.515 295.333 490.515 297.733 487.849C299.467 485.582 303.067 486.515 303.067 489.049ZM316.4 487.715C318.133 489.849 317.2 492.382 314.4 492.382C312 492.382 310.667 490.115 311.6 487.715C312.533 485.182 314.267 485.182 316.4 487.715ZM330.667 487.849C331.867 490.915 328.933 493.182 326.4 491.049C324.8 489.715 324.667 488.915 325.867 487.582C327.867 485.182 329.6 485.182 330.667 487.849ZM289.067 488.382C289.6 489.182 289.2 490.782 288.267 491.849C286.8 493.582 286.4 493.582 284.667 491.849C283.6 490.782 283.2 489.315 283.6 488.515C284.8 486.649 288 486.649 289.067 488.382ZM295.2 498.249C293.333 500.382 289.733 499.715 289.733 497.182C289.733 496.249 290.4 494.915 291.333 493.982C293.867 491.449 297.467 495.449 295.2 498.249ZM309.067 494.515C312 497.449 309.333 500.915 305.6 498.915C303.467 497.849 303.333 497.182 304.8 495.049C306.667 491.849 306.4 491.849 309.067 494.515ZM324 494.515C324.4 495.582 323.867 497.449 322.8 498.515C321.067 500.249 320.667 500.249 319.067 498.515C317.733 496.782 317.733 495.982 319.067 494.382C321.2 491.849 322.933 491.849 324 494.515ZM281.6 495.582C282.8 496.915 282.667 497.715 281.067 499.049C278.533 501.182 275.6 498.915 276.8 495.849C277.867 493.182 279.6 493.182 281.6 495.582ZM224.267 508.649C224.4 509.315 222.667 509.715 220.667 509.715C215.733 509.715 209.733 503.582 209.733 498.382V494.649L216.933 501.182C220.933 504.782 224.133 508.115 224.267 508.649ZM288.933 502.515C289.867 505.049 288.8 507.049 286.4 507.049C284 507.049 282.667 504.782 283.6 502.382C284.533 499.715 287.867 499.849 288.933 502.515ZM302.933 502.249C305.2 504.915 301.2 507.982 298.4 505.715C296.8 504.382 296.667 503.582 297.867 502.249C298.667 501.182 299.867 500.382 300.4 500.382C300.933 500.382 302.133 501.182 302.933 502.249ZM317.2 501.849C318.533 504.115 314.133 507.982 312.267 506.115C311.333 505.182 311.067 503.582 311.467 502.515C312.4 500.115 315.867 499.715 317.2 501.849ZM331.867 501.849C332.267 502.649 331.733 504.249 330.667 505.449C328.933 507.049 328.133 507.182 326.533 505.849C325.467 504.915 324.933 503.315 325.333 502.249C326.133 499.982 330.533 499.715 331.867 501.849ZM280.4 508.382C280.4 509.049 280.133 509.715 279.867 509.715C279.467 509.715 278.8 509.049 278.4 508.382C278 507.582 278.267 507.049 278.933 507.049C279.733 507.049 280.4 507.582 280.4 508.382Z" fill="black"/>
<path d="M68.2 388.067L23 388.333L23.8 426.067C24.3333 446.733 24.7333 474.6 24.7333 487.933V512.333L65.8 512.2C88.3333 512.067 117.8 511.667 131.4 511.133L156.067 510.333V497C155.8 455.4 155 397.533 154.467 392.6L153.8 387L133.533 387.267C122.467 387.533 93 387.8 68.2 388.067ZM85.6667 397.933C89.9333 401.667 106.733 417.667 123.133 433.4C145.533 455 152.733 462.733 152.733 465.133C152.733 466.867 152.467 468.333 152.067 468.333C150.333 468.333 72.8667 393.133 73.5333 392.2C75 389.667 78.3333 391.267 85.6667 397.933ZM112.333 409.267C123 419.4 136.333 432.2 142.2 437.667C149.267 444.333 152.733 448.733 152.733 450.733C152.733 452.333 152.067 453.667 151.4 453.667C149.667 453.667 87.4 393.667 87.4 392.067C87.4 391.533 88.7333 391 90.2 391C92.0667 391 99.9333 397.533 112.333 409.267ZM119.933 402.733C126.6 409.267 136.467 418.6 141.667 423.667C151.267 432.733 154.067 436.867 151.8 439.133C150.867 440.067 102.333 395.133 101 392.067C100.733 391.4 102.2 391 104.2 391C106.867 391 110.733 393.8 119.933 402.733ZM136.867 405.267C147 415.267 151.4 420.467 151.4 422.6C151.4 424.333 151 425.667 150.6 425.667C149.533 425.667 116.2 393.667 115.667 392.2C115.4 391.533 116.867 391 118.867 391C121.667 391 125.667 394.2 136.867 405.267ZM143.8 398.467C148.733 403.4 151.4 407.133 151.4 409.133C151.4 410.867 151.133 412.333 150.733 412.333C150.467 412.333 145.133 407.533 139.133 401.667C128.333 391.267 128.2 391.133 132.2 391C135.4 391 137.933 392.6 143.8 398.467ZM151.4 395.267V399.533L147.4 395.667C145.267 393.533 143.4 391.667 143.4 391.4C143.4 391.133 145.267 391 147.4 391C151 391 151.4 391.4 151.4 395.267ZM44.6 399.267C53.2667 407.4 113.933 465.8 137.267 488.467C149 499.933 153 504.6 152.333 506.2C151.667 507.667 150.733 508.067 149.533 507.4C148.467 506.867 128.333 487.667 104.733 465C81.1333 442.2 54.4667 416.6 45.6667 408.067C30.6 393.533 29.6667 392.467 33.2667 392.333C36.2 392.333 39.1333 394.2 44.6 399.267ZM66.7333 406.733C74.8667 414.6 96.7333 435.667 115.4 453.667C134.067 471.533 150.2 487.267 151.133 488.6C152.067 489.933 152.733 492.333 152.467 493.933C152.2 496.467 142.733 487.933 98.4667 445.133C68.8667 416.733 44.7333 393.133 44.7333 392.867C44.7333 392.6 46.3333 392.333 48.4667 392.333C51.2667 392.333 55.2667 395.533 66.7333 406.733ZM109.8 434.333C147 469.933 152.733 476.067 152.733 479.533V483.4L145.8 476.867C135.8 467.8 105.133 437.933 80.0667 413.267C60.8667 394.333 59.1333 392.2 62.8667 392.6C66.2 392.867 74.7333 400.6 109.8 434.333ZM45.1333 413.267C54.0667 421.933 77 444.067 96.0667 462.467C115.133 480.867 133.267 498.2 136.467 501C143 506.733 143.4 508.333 138.6 508.333C135 508.333 132.067 505.667 82.0667 457C69.9333 445.267 52.4667 428.333 43.1333 419.267C32.4667 409.133 26.0667 401.933 26.0667 400.333C26.0667 398.867 26.7333 397.667 27.5333 397.667C28.3333 397.667 36.3333 404.733 45.1333 413.267ZM72.7333 453.8C93.6667 473.933 114.467 493.933 119.133 498.333C123.667 502.6 127.4 506.6 127.4 507.267C127.4 507.8 125.933 508.333 124.2 508.333C120.867 508.333 106.6 495.267 62.7333 452.2C51.8 441.4 39.2667 429.533 35.1333 425.667C27.5333 418.733 25.1333 415 26.7333 412.2C27.9333 410.467 26.6 409.267 72.7333 453.8ZM65.9333 461C78.8667 473.533 95.1333 489.267 102.067 496.067C113.933 507.533 114.467 508.333 110.867 508.333C106.6 508.333 106.467 508.2 57.1333 460.467C31.2667 435.533 27.4 431.267 27.4 427.8V423.8L35 431C39.1333 435 53.1333 448.6 65.9333 461ZM64.7333 473.667C96.8667 504.867 99.4 507.667 96.0667 508.067C92.2 508.6 94.4667 510.6 45.1333 462.6C31.8 449.667 27.4 444.6 27.4 442.067C27.4 440.2 27.9333 439 28.6 439.267C29.2667 439.4 45.5333 455 64.7333 473.667ZM61.9333 484.6C84.0667 506.067 86.0667 508.333 82.6 508.333C79.4 508.333 74.3333 504.067 53.1333 483.533C33.1333 464.333 27.4 458.067 27.4 455.4V452.067L32.4667 456.467C35.1333 458.867 48.4667 471.533 61.9333 484.6ZM54.4667 490.733C70.3333 506.2 73.4 510.867 67 509.4C65.8 509.267 56.4667 501 46.0667 491.267C30.0667 476.067 27.4 472.867 27.4 469.4V465.4L32.4667 469.667C35.1333 472.067 45.1333 481.533 54.4667 490.733ZM42.7333 493.267C54.8667 504.867 57.5333 508.067 56.0667 509.4C54.3333 511.267 47.9333 506.867 38.0667 497.133C28.4667 487.667 24.8667 481.667 28.8667 481.667C29.6667 481.667 35.9333 486.867 42.7333 493.267ZM37 501.267C44.2 508.333 44.7333 509.667 40.4667 509.667C36.0667 509.533 28.7333 502.467 28.7333 498.333C28.7333 496.467 29.1333 495 29.6667 495C30.2 495 33.5333 497.8 37 501.267Z" fill="black"/>
<path d="M452.909 459.909V459.636C452.939 456.742 453.242 454.439 453.818 452.727C454.394 451.015 455.212 449.629 456.273 448.568C457.333 447.508 458.606 446.53 460.091 445.636C460.985 445.091 461.788 444.447 462.5 443.705C463.212 442.947 463.773 442.076 464.182 441.091C464.606 440.106 464.818 439.015 464.818 437.818C464.818 436.333 464.47 435.045 463.773 433.955C463.076 432.864 462.144 432.023 460.977 431.432C459.811 430.841 458.515 430.545 457.091 430.545C455.848 430.545 454.652 430.803 453.5 431.318C452.348 431.833 451.386 432.644 450.614 433.75C449.841 434.856 449.394 436.303 449.273 438.091H443.545C443.667 435.515 444.333 433.311 445.545 431.477C446.773 429.644 448.386 428.242 450.386 427.273C452.402 426.303 454.636 425.818 457.091 425.818C459.758 425.818 462.076 426.348 464.045 427.409C466.03 428.47 467.561 429.924 468.636 431.773C469.727 433.621 470.273 435.727 470.273 438.091C470.273 439.758 470.015 441.265 469.5 442.614C469 443.962 468.273 445.167 467.318 446.227C466.379 447.288 465.242 448.227 463.909 449.045C462.576 449.879 461.508 450.758 460.705 451.682C459.902 452.591 459.318 453.674 458.955 454.932C458.591 456.189 458.394 457.758 458.364 459.636V459.909H452.909ZM455.818 473.364C454.697 473.364 453.735 472.962 452.932 472.159C452.129 471.356 451.727 470.394 451.727 469.273C451.727 468.152 452.129 467.189 452.932 466.386C453.735 465.583 454.697 465.182 455.818 465.182C456.939 465.182 457.902 465.583 458.705 466.386C459.508 467.189 459.909 468.152 459.909 469.273C459.909 470.015 459.72 470.697 459.341 471.318C458.977 471.939 458.485 472.439 457.864 472.818C457.258 473.182 456.576 473.364 455.818 473.364Z" fill="black"/>
</svg>
