<svg width="180" height="180" viewBox="0 0 180 180" fill="none" xmlns="http://www.w3.org/2000/svg">
<rect x="0.1" y="0.1" width="179.8" height="179.8" fill="white" stroke="#CBCBCB" stroke-width="0.2"/>
<path d="M47.2667 28.2001L23 28.4668L23.6667 89.5334C24.0667 123 24.4667 151 24.6 151.8C24.8667 153 154.6 153 155.933 151.667C156.2 151.533 155.933 123.4 155.4 89.1334L154.333 27.0001L112.867 27.4001C90.0667 27.6668 60.4667 27.9334 47.2667 28.2001ZM146.067 33.9334C149.4 36.8668 150.733 39.1334 150.733 42.0668V45.9334L142.733 39.0001C137.267 34.0668 135.267 31.5334 136.467 30.8668C139.267 29.1334 141.133 29.6668 146.067 33.9334ZM34.6 37.6668C31.4 41.2668 28.3333 44.2001 27.8 44.3334C27.1333 44.4668 26.7333 42.8668 26.7333 40.8668C26.7333 35.9334 31.5333 31.1334 36.4667 31.1334H40.4667L34.6 37.6668ZM53.4 32.2001C53.4 32.7334 47.4 39.1334 40.0667 46.4668C27 59.4001 26.7333 59.6668 26.7333 55.5334C26.7333 52.2001 28.6 49.5334 36.6 41.2668C43.9333 33.9334 47.5333 31.1334 49.9333 31.1334C51.8 31.1334 53.4 31.5334 53.4 32.2001ZM54.6 45.4001C47 53.4001 37.5333 63.1334 33.6667 67.1334L26.7333 74.4668V69.9334C26.7333 65.8001 28.6 63.5334 43.6667 48.2001C57.8 33.9334 61.2667 31.1334 64.6 31.1334C68.4667 31.1334 67.9333 31.8001 54.6 45.4001ZM56.0667 58.7334C41 73.9334 28.3333 86.6001 27.8 86.8668C27.1333 87.1334 26.7333 85.6668 26.7333 83.8001C26.7333 80.8668 31.1333 75.6668 47.8 58.7334C75.6667 30.0668 74.4667 31.1334 79.2667 31.1334C83 31.1334 81.5333 33.0001 56.0667 58.7334ZM120.6 50.6001C148.867 78.0668 152.067 81.5334 152.067 85.4001C152.067 87.1334 151.533 88.4668 150.867 88.2001C150.333 87.9334 136.733 75.0001 120.733 59.4001C93 32.4668 91.8 31.1334 96.0667 31.1334C99.8 31.1334 102.867 33.5334 120.6 50.6001ZM133.267 49.2668C147.133 62.6001 152.067 68.3334 152.067 70.6001C152.067 72.3334 151.667 73.8001 151.133 73.8001C150.467 73.8001 140.2 64.2001 128.067 52.4668C107.133 32.2001 106.333 31.2668 110.333 31.1334C113.933 31.1334 117.133 33.6668 133.267 49.2668ZM140.6 43.0001C149.933 52.3334 152.2 55.4001 151.8 57.9334C151.4 60.8668 149.667 59.5334 136.067 46.2001C121.533 31.9334 121 31.1334 124.733 31.1334C128.067 31.1334 130.867 33.2668 140.6 43.0001ZM86.7333 39.2668C86.7333 41.0001 76.0667 52.8668 57.9333 71.5334C42.0667 87.8001 28.4667 101.267 27.9333 101.533C27.2667 101.8 26.7333 100.467 26.7333 98.6001C26.7333 94.6001 31.6667 88.8668 63.9333 56.2001C75.1333 44.6001 85 35.5334 85.5333 35.9334C86.2 36.3334 86.7333 37.8001 86.7333 39.2668ZM101.933 46.7334C135.133 78.3334 152.067 95.9334 152.067 98.8668C152.067 100.6 151.533 101.8 150.867 101.533C147.933 100.467 89.6667 42.0668 88.8667 39.4001C87.1333 34.2001 90.6 36.0668 101.933 46.7334ZM86.7333 53.5334C86.6 56.4668 28.6 116.2 27.2667 114.733C26.7333 114.2 26.7333 112.333 27.5333 110.6C29.1333 106.467 84.0667 49.6668 85.5333 50.6001C86.2 51.0001 86.7333 52.3334 86.7333 53.5334ZM121.933 79.4001C148.733 105.533 152.333 109.533 151.933 112.733C151.4 116.2 150.6 115.667 136.6 102.067C128.467 94.2001 114.467 80.7334 105.667 72.2001C93.2667 60.2001 89.4 55.8001 89.4 53.1334C89.4 51.2668 89.8 49.8001 90.4667 49.8001C91 49.8001 105.133 63.1334 121.933 79.4001ZM71.6667 85.6668C63.2667 94.2001 50.2 107.533 42.7333 115.4C35.1333 123.4 28.4667 129.8 27.9333 129.8C26.2 129.8 26.6 125.667 28.4667 122.2C29.4 120.6 42.6 106.6 58.0667 90.8668C84.4667 64.2001 86.0667 62.7334 86.4667 66.3334C86.8667 69.6668 85 72.2001 71.6667 85.6668ZM128.467 100.067C147.133 118.2 152.067 123.8 152.067 126.6C152.067 128.467 151.533 129.8 150.867 129.533C150.2 129.267 136.067 115.8 119.533 99.5334C95 75.4001 89.4 69.2668 89.4 66.3334C89.4 62.8668 89.6667 63.0001 97.1333 69.9334C101.267 73.8001 115.4 87.4001 128.467 100.067ZM133.8 119C148.333 133.267 153.4 139.133 153.4 141.4C153.4 143.533 152.733 144.467 151.533 144.2C150.467 143.933 136.067 130.467 119.533 114.067C93.2667 88.0668 89.4 83.6668 89.4 80.2001C89.4 76.2001 89.6667 76.3334 101.8 87.9334C108.467 94.4668 122.867 108.467 133.8 119ZM86.4667 81.6668C86.2 84.7334 79.6667 92.0668 57.1333 115C29.9333 142.6 28.0667 144.2 28.0667 140.2C28.0667 136.6 30.7333 133.4 46.4667 117.267C56.7333 106.867 69.4 93.8001 74.7333 88.0668C80.0667 82.4668 85 77.8001 85.6667 77.8001C86.3333 77.8001 86.7333 79.5334 86.4667 81.6668ZM86.7333 96.0668C86.7333 98.8668 81.5333 104.733 61.8 124.733C40.8667 145.8 36.2 149.8 33 149.8C29.4 149.8 31.5333 147.267 56.7333 121.133C71.9333 105.4 85 92.4668 85.5333 92.4668C86.2 92.4668 86.7333 94.0668 86.7333 96.0668ZM120.067 120.333C145.8 145.4 148.333 148.333 145 148.333C141.8 148.467 136.733 144.2 115.267 123.4C97 105.8 89.4 97.5334 89.4 95.4001C89.4 93.8001 89.9333 92.4668 90.4667 92.4668C91 92.4668 104.333 105 120.067 120.333ZM75 125C68.4667 131.667 60.6 139.933 57.4 143.4C53.1333 148.2 50.7333 149.8 47.8 149.8C45.8 149.8 44.0667 149.4 44.0667 148.867C44.0667 148.333 53.5333 138.333 65.1333 126.733C84.3333 107.533 86.0667 106.067 86.4667 109.267C86.8667 112.067 84.8667 115 75 125ZM113.4 127C130.867 143.8 134.467 147.8 132.733 148.867C130.067 150.333 127.267 148.467 117.4 139.133C90.0667 113 89.4 112.333 89.4 109C89.4 107.133 89.9333 105.8 90.7333 106.067C91.4 106.2 101.667 115.667 113.4 127ZM75.9333 138.6C66.8667 147.667 64.0667 149.8 60.7333 149.8C57 149.8 57.5333 149.133 71.4 135.133C85.1333 121.267 86.0667 120.6 86.4667 123.933C86.8667 126.867 85 129.4 75.9333 138.6ZM106.333 134.067C120.067 147.533 122.333 152.2 113.533 148.6C108.067 146.2 89.4 126.733 89.4 123.267C89.4 121.8 90.0667 120.467 90.8667 120.467C91.8 120.467 98.7333 126.6 106.333 134.067ZM105.4 148.733C105.4 151.4 99.1333 149.4 95.1333 145.533C92.0667 142.6 90.7333 140.067 90.7333 137.267V133.267L98.0667 140.467C102.067 144.467 105.4 148.2 105.4 148.733ZM86.7333 138.733C86.7333 143.667 80.6 149.8 75.8 149.8C73.8 149.8 72.0667 149.4 72.0667 148.867C72.0667 147.533 84.3333 135.133 85.6667 135.133C86.2 135.133 86.7333 136.733 86.7333 138.733Z" fill="black"/>
</svg>
