<svg width="180" height="180" viewBox="0 0 180 180" fill="none" xmlns="http://www.w3.org/2000/svg">
<rect x="0.1" y="0.1" width="179.8" height="179.8" fill="white" stroke="#CBCBCB" stroke-width="0.2"/>
<path d="M69.4667 28.2667L24 28.6667L24.5333 87.0667C24.9333 119.067 25.4667 147.333 25.8667 149.6L26.5333 154L68.1333 153.333C117.867 152.533 156 151.6 156.4 151.067C156.533 150.8 156.267 123.067 155.867 89.3333L155.067 28H135.067C124.133 28 94.5333 28.1333 69.4667 28.2667ZM134.267 33.4667C133.067 34.9333 132.267 34.9333 130.933 33.8667C128.4 31.8667 129.733 30.1333 133.067 30.9333C135.2 31.4667 135.467 32 134.267 33.4667ZM148.8 31.6C148.4 32.5333 147.333 33.3333 146.4 33.3333C145.467 33.3333 144.4 32.5333 144.133 31.6C143.733 30.6667 144.667 30 146.4 30C148.133 30 149.067 30.6667 148.8 31.6ZM77.4667 42.4C86.6667 51.0667 89.0667 54.1333 89.0667 56.9333C89.0667 59.0667 88.6667 60.6667 88 60.6667C86.8 60.6667 59.7333 33.6 59.7333 32.2667C59.7333 31.7333 61.0667 31.3333 62.8 31.3333C64.6667 31.4667 70.1333 35.6 77.4667 42.4ZM84.2667 35.6C88.2667 39.0667 89.2 40.8 88.8 43.7333C88.4 47.4667 88.4 47.4667 80.4 39.3333C73.0667 32 72.8 31.3333 75.8667 31.3333C77.8667 31.3333 81.4667 33.2 84.2667 35.6ZM106.933 33.3333C106.4 34.4 105.6 35.3333 105.067 35.3333C104.533 35.3333 103.333 34.4 102.4 33.3333C100.933 31.6 101.333 31.3333 104.133 31.3333C106.667 31.3333 107.467 31.8667 106.933 33.3333ZM120.8 33.4667C119.6 34.6667 118 35.2 117.2 34.8C114.533 33.0667 115.733 31.3333 119.333 31.3333C122.667 31.3333 122.8 31.4667 120.8 33.4667ZM64.8 57.8667C82.8 75.4667 90.4 83.8667 90.4 85.8667C90.4 87.7333 89.7333 88.6667 88.5333 88.4C87.4667 88.1333 74 75.6 58.5333 60.2667C32.1333 34.2667 30.6667 32.6667 34.8 32.6667C38.5333 32.8 42.4 36 64.8 57.8667ZM71.3333 50.4C86.4 65.3333 89.2 68.6667 88.8 71.6C88.4 74.6667 86.5333 73.2 66.4 53.8667C45.0667 33.2 44.5333 32.6667 48.9333 32.6667C52.9333 32.6667 55.4667 34.6667 71.3333 50.4ZM99.7333 37.3333C101.467 39.4667 100.533 42 97.7333 42C95.3333 42 94 39.7333 94.9333 37.3333C95.8667 34.8 97.6 34.8 99.7333 37.3333ZM114.267 37.2C116.533 39.8667 112.533 42.9333 109.733 40.6667C108.133 39.3333 108 38.5333 109.2 37.2C110 36.1333 111.2 35.3333 111.733 35.3333C112.267 35.3333 113.467 36.1333 114.267 37.2ZM128.533 36.8C128.933 37.6 128.533 39.0667 127.6 40.1333C125.2 42.4 121.733 40.4 122.8 37.4667C123.733 35.0667 127.2 34.6667 128.533 36.8ZM141.733 36.6667C142.267 37.4667 141.867 39.0667 140.933 40.1333C139.467 41.8667 139.067 41.8667 137.333 40.1333C136.267 39.0667 135.867 37.6 136.267 36.8C137.467 34.9333 140.667 34.9333 141.733 36.6667ZM68.1333 75.2C84.6667 91.4667 90.4 98 90.4 100.4C90.4 102.133 89.8667 103.333 89.2 103.067C88.5333 102.8 74.5333 89.4667 57.8667 73.4667C31.8667 48.1333 27.7333 43.6 27.7333 40.2667C27.7333 36.2667 27.7333 36.2667 36.8 44.6667C41.7333 49.3333 55.7333 63.0667 68.1333 75.2ZM106.933 44.2667C107.467 45.4667 107.067 47.3333 106 48.2667C104.4 49.8667 103.867 49.8667 102.4 48.1333C101.067 46.4 101.067 45.6 102.4 44C104.533 41.4667 105.867 41.4667 106.933 44.2667ZM120.933 43.8667C122.133 45.2 122 46 120.4 47.3333C117.867 49.4667 114.933 47.2 116.133 44.1333C117.2 41.4667 118.933 41.4667 120.933 43.8667ZM135.333 44.1333C135.733 45.2 135.467 46.8 134.533 47.7333C132.667 49.6 128.267 45.7333 129.6 43.4667C130.933 41.3333 134.4 41.7333 135.333 44.1333ZM148.933 43.8667C151.2 46.5333 147.2 49.6 144.4 47.3333C142.8 46 142.667 45.2 143.867 43.8667C144.667 42.8 145.867 42 146.4 42C146.933 42 148.133 42.8 148.933 43.8667ZM94.4 46C94.4 46.6667 93.8667 47.3333 93.0667 47.3333C92.4 47.3333 91.7333 46.6667 91.7333 46C91.7333 45.2 92.4 44.6667 93.0667 44.6667C93.8667 44.6667 94.4 45.2 94.4 46ZM114 54.9333C111.867 57.0667 111.6 57.0667 109.467 54.9333C107.2 52.6667 107.2 52.4 109.733 50.5333C112 48.9333 112.533 48.9333 114.267 50.6667C116.133 52.4 116 52.9333 114 54.9333ZM127.6 49.8667C129.867 51.3333 128.533 55.3333 125.867 55.3333C123.333 55.3333 122 53.0667 122.933 50.6667C123.733 48.4 124.933 48.2667 127.6 49.8667ZM142.267 50.5333C144.533 53.2 140.533 56.2667 137.733 54C136.133 52.6667 136 51.8667 137.2 50.5333C138 49.4667 139.2 48.6667 139.733 48.6667C140.267 48.6667 141.467 49.4667 142.267 50.5333ZM100.667 52.1333C101.733 55.0667 98.2667 57.0667 95.8667 54.8C94.9333 53.7333 94.5333 52.2667 94.9333 51.4667C96.2667 49.3333 99.7333 49.7333 100.667 52.1333ZM151.333 52.9333C150.933 54 150.533 53.6 150.533 52.1333C150.4 50.6667 150.8 49.8667 151.2 50.4C151.6 50.8 151.733 52 151.333 52.9333ZM60.1333 81.3333C81.8667 102.4 90.4 111.467 90.4 113.6C90.4 115.333 90 116.667 89.4667 116.667C88.1333 116.667 80.5333 109.467 51.4667 81.0667C32.8 62.9333 27.7333 57.2 27.7333 54.5333C27.7333 52.6667 28.2667 51.3333 28.9333 51.6C29.4667 51.7333 43.6 65.2 60.1333 81.3333ZM121.067 61.2C120.133 62.4 118.8 63.3333 118.133 63.3333C116 63.3333 115.333 59.3333 117.2 57.2C118.667 55.4667 119.067 55.4667 120.8 57.2C122.533 58.8 122.533 59.6 121.067 61.2ZM135.6 57.0667C136.667 58.4 136.533 59.6 135.067 61.4667C133.333 63.8667 133.067 63.8667 130.933 61.7333C129.067 59.8667 128.933 59.0667 130.4 57.4667C132.4 54.9333 133.6 54.8 135.6 57.0667ZM148.8 60.1333C148.133 63.6 145.467 63.8667 144.4 60.5333C143.733 58.6667 144.133 57.2 145.2 56.5333C147.6 55.2 149.467 57.0667 148.8 60.1333ZM107.333 58.8C108.533 61.8667 105.6 64.1333 103.067 62C101.467 60.6667 101.333 59.8667 102.533 58.5333C104.533 56.1333 106.267 56.1333 107.333 58.8ZM94.4 60.1333C94.4 61.2 93.7333 61.7333 93.0667 61.3333C92.2667 60.8 92 59.8667 92.4 59.2C93.6 57.3333 94.4 57.7333 94.4 60.1333ZM100.667 65.4667C101.867 68.5333 98.9333 70.8 96.4 68.6667C94.8 67.3333 94.6667 66.5333 95.8667 65.2C97.8667 62.8 99.6 62.8 100.667 65.4667ZM114.267 65.2C116.533 67.8667 112.533 70.9333 109.733 68.6667C108.133 67.3333 108 66.5333 109.2 65.2C110 64.1333 111.2 63.3333 111.733 63.3333C112.267 63.3333 113.467 64.1333 114.267 65.2ZM128.667 65.4667C129.067 66.5333 128.8 68.1333 127.867 69.0667C126 70.9333 121.6 67.0667 122.933 64.8C124.267 62.6667 127.733 63.0667 128.667 65.4667ZM142.267 65.2C143.467 66.5333 143.333 67.3333 141.733 68.6667C139.2 70.8 136.267 68.5333 137.467 65.4667C138.533 62.8 140.267 62.8 142.267 65.2ZM153.067 66C153.067 66.6667 152.533 67.3333 151.733 67.3333C151.067 67.3333 150.4 66.6667 150.4 66C150.4 65.2 151.067 64.6667 151.733 64.6667C152.533 64.6667 153.067 65.2 153.067 66ZM39.0667 74.8C44.2667 79.7333 57.8667 92.9333 69.4667 104.267C87.4667 122.133 90.4 125.6 90.4 129.2C90.4 133.2 90.4 133.2 80.1333 123.333C38.9333 83.6 27.7333 71.8667 27.7333 69.0667C27.7333 67.3333 28.1333 66 28.8 66C29.3333 66 34 70 39.0667 74.8ZM107.6 71.8667C109.867 74.5333 105.867 77.6 103.067 75.3333C101.467 74 101.333 73.2 102.533 71.8667C103.333 70.8 104.533 70 105.067 70C105.6 70 106.8 70.8 107.6 71.8667ZM120.933 71.2C123.2 72.6667 121.867 76.6667 119.2 76.6667C116.667 76.6667 115.333 74.4 116.267 72C117.067 69.7333 118.267 69.6 120.933 71.2ZM135.6 71.8667C137.867 74.5333 133.867 77.6 131.067 75.3333C129.467 74 129.333 73.2 130.533 71.8667C131.333 70.8 132.533 70 133.067 70C133.6 70 134.8 70.8 135.6 71.8667ZM148.667 71.4667C150.533 73.3333 149.467 76.6667 147.067 76.6667C144.667 76.6667 143.333 74.4 144.267 72C145.067 69.6 146.667 69.4667 148.667 71.4667ZM101.067 80.6667C101.067 84.2667 98.5333 85.3333 96 82.9333C94.4 81.2 94.2667 80.4 95.6 78.8C97.7333 76.2667 101.067 77.4667 101.067 80.6667ZM114.4 78.6667C115.733 80.2667 115.733 81.0667 114.4 82.8C112.8 84.5333 112.4 84.5333 110.667 82.8C108.667 80.8 109.333 76.6667 111.467 76.6667C112.133 76.6667 113.467 77.6 114.4 78.6667ZM129.6 81.3333C128.533 83.8667 125.867 83.8667 123.867 81.6C122.8 80.2667 122.933 79.3333 124 78.2667C126 76.2667 130.533 78.6667 129.6 81.3333ZM142.4 78.8C143.867 80.4 143.867 81.2 142.133 82.9333C139.6 85.3333 137.067 84.2667 137.067 80.8C137.067 76.4 139.733 75.4667 142.4 78.8ZM152.533 81.6C151.2 82.9333 150 80.9333 151.2 79.2C152 77.7333 152.267 77.7333 152.8 79.2C153.067 80.1333 152.933 81.2 152.533 81.6ZM60.4 110C86.2667 134.667 90.4 139.2 90.4 142.667C90.4 146.533 90.1333 146.4 80.1333 136.667C42.9333 100.667 27.7333 85.2 27.7333 82.9333C27.7333 81.6 28.4 80.6667 29.0667 80.9333C29.8667 81.2 44 94.2667 60.4 110ZM108.533 86.1333C108.933 86.9333 108.4 88.5333 107.333 89.7333C105.6 91.4667 104.8 91.4667 103.067 90C101.467 88.6667 101.333 87.8667 102.533 86.5333C104.4 84.2667 107.2 84.1333 108.533 86.1333ZM121.733 86C122.267 86.8 121.867 88.4 120.933 89.4667C119.467 91.2 119.067 91.2 117.333 89.4667C116.267 88.4 115.867 86.9333 116.267 86.1333C117.467 84.2667 120.667 84.2667 121.733 86ZM136.133 86.5333C137.333 89.4667 133.733 91.8667 131.733 89.4667C130.933 88.2667 130.533 86.8 131.067 86C132.267 84 135.333 84.4 136.133 86.5333ZM149.867 86.1333C151.2 88.4 146.8 92.2667 144.933 90.4C144 89.4667 143.733 87.8667 144.133 86.8C145.067 84.4 148.533 84 149.867 86.1333ZM100.933 93.2C102.133 94.5333 102 95.3333 100.4 96.6667C97.8667 98.8 94.9333 96.5333 96.1333 93.4667C97.2 90.8 98.9333 90.8 100.933 93.2ZM115.467 94.4C116 97.0667 112.133 98.9333 110.133 96.9333C108.133 94.9333 110 91.0667 112.667 91.6C114 91.8667 115.2 93.0667 115.467 94.4ZM129.867 92.8C131.2 95.0667 126.8 98.9333 124.933 97.0667C124 96.1333 123.733 94.5333 124.133 93.4667C125.067 91.0667 128.533 90.6667 129.867 92.8ZM142.267 93.2C143.467 94.5333 143.333 95.3333 141.733 96.6667C139.2 98.8 136.267 96.5333 137.467 93.4667C138.533 90.8 140.267 90.8 142.267 93.2ZM153.067 94.8C153.067 95.8667 152.4 96.4 151.733 96C150.933 95.4667 150.667 94.5333 151.067 93.8667C152.267 92 153.067 92.4 153.067 94.8ZM58 120.8C73.3333 135.6 86 148.267 86.1333 148.8C86.4 149.467 85.0667 150 83.0667 150C80.2667 150 75.2 145.867 59.8667 131.067C49.2 120.667 37.7333 109.733 34.5333 106.533C29.2 101.467 26 94 29.2 94C29.8667 94 42.8 106.133 58 120.8ZM107.733 100C109.067 101.6 109.067 102.4 107.733 104.133C106.133 105.867 105.733 105.867 104 104.133C102 102.133 102.667 98 104.8 98C105.467 98 106.8 98.9333 107.733 100ZM122.267 99.7333C123.333 101.067 123.2 102 122.133 103.067C118.667 106.533 114.133 103.6 117.067 100C119.067 97.6 120.267 97.4667 122.267 99.7333ZM135.733 100C137.467 102.133 136.533 104.667 133.733 104.667C131.333 104.667 130 102.4 130.933 100C131.867 97.4667 133.6 97.4667 135.733 100ZM150.4 101.467C150.4 104 146.667 105.467 144.8 103.6C143.733 102.533 143.733 101.6 144.933 100.133C146.8 97.8667 150.4 98.8 150.4 101.467ZM114.933 110.4C113.867 113.2 112.533 113.2 110.4 110.667C109.067 109.067 109.067 108.267 110.4 106.533C111.867 104.8 112.4 104.8 114 106.4C115.067 107.333 115.467 109.2 114.933 110.4ZM129.067 110.667C127.733 112.267 126.933 112.4 125.6 111.2C124.533 110.4 123.733 108.933 123.733 108C123.733 105.467 126.8 104.667 128.933 106.8C130.533 108.267 130.533 108.933 129.067 110.667ZM142.267 110.8C140.4 112.667 140 112.667 138.4 110.8C137.067 109.067 137.067 108.267 138.4 106.533C140 104.667 140.4 104.667 142.267 106.533C144.133 108.533 144.133 108.8 142.267 110.8ZM101.867 107.467C103.2 109.733 98.8 113.6 96.9333 111.733C96 110.8 95.7333 109.2 96.1333 108.133C97.0667 105.733 100.533 105.333 101.867 107.467ZM71.7333 148.8C71.7333 149.467 70.4 150 68.6667 150C66.5333 150 60 144.667 47.3333 132.533C31.7333 117.733 29.0667 114.533 29.0667 111.067C29.0667 107.333 30.2667 108.267 50.4 127.333C62.1333 138.533 71.7333 148.267 71.7333 148.8ZM153.067 108.667C153.067 109.333 152.8 110 152.533 110C152.133 110 151.467 109.333 151.067 108.667C150.667 107.867 150.933 107.333 151.6 107.333C152.4 107.333 153.067 107.867 153.067 108.667ZM135.6 117.467C133.733 119.333 133.333 119.333 131.733 117.467C130.4 115.733 130.4 114.933 131.733 113.2C133.333 111.333 133.733 111.333 135.6 113.2C137.467 115.2 137.467 115.467 135.6 117.467ZM108.267 113.867C109.467 115.733 107.733 119.333 105.733 119.333C103.333 119.333 102 117.067 102.933 114.667C103.733 112.4 107.2 112 108.267 113.867ZM122.4 114C124.133 115.067 124.133 115.467 122.133 117.467C120.267 119.333 119.467 119.467 117.733 118C116.133 116.667 116 115.867 117.2 114.533C118.933 112.4 119.733 112.267 122.4 114ZM149.867 114.667C150.267 115.733 150.267 117.2 149.867 117.867C148.533 120 145.067 118 145.067 115.2C145.067 112.267 148.8 111.733 149.867 114.667ZM95.0667 115.2C95.4667 115.867 95.2 116.8 94.4 117.333C93.7333 117.733 93.0667 117.2 93.0667 116.133C93.0667 113.733 93.8667 113.333 95.0667 115.2ZM101.067 121.333C102.4 122.933 102.4 123.733 101.067 125.467C99.4667 127.2 99.0667 127.2 97.3333 125.467C95.3333 123.467 96 119.333 98.1333 119.333C98.8 119.333 100.133 120.267 101.067 121.333ZM115.6 121.067C116.667 122.4 116.533 123.333 115.467 124.4C112 127.867 107.467 124.933 110.4 121.333C112.4 118.933 113.6 118.8 115.6 121.067ZM130.133 122.4C130.667 125.067 126.8 126.933 124.8 124.933C122.8 122.933 124.667 119.067 127.333 119.6C128.667 119.867 129.867 121.067 130.133 122.4ZM143.6 121.2C144.8 122.533 144.667 123.333 143.067 124.667C140.533 126.667 136.8 124.267 138 121.2C138.933 118.8 141.6 118.8 143.6 121.2ZM49.0667 139.867C58.8 149.733 58.9333 150 55.0667 150C49.4667 149.867 29.0667 130.533 29.0667 125.333V121.733L34.1333 125.733C36.8 128 43.6 134.4 49.0667 139.867ZM122.4 128.133C123.867 129.733 123.733 130.533 122 132.4C119.867 134.4 119.6 134.4 117.467 132.4C115.733 130.533 115.6 129.733 117.067 128.133C118 126.933 119.2 126 119.733 126C120.267 126 121.467 126.933 122.4 128.133ZM136.933 127.733C138.533 129.733 136.533 132.667 133.6 132.667C131.333 132.667 130.4 129.2 132.133 127.467C134 125.6 135.067 125.6 136.933 127.733ZM150.267 127.867C151.467 129.2 151.333 130 149.733 131.333C146.933 133.6 142.933 130.533 145.2 127.867C146 126.8 147.2 126 147.733 126C148.267 126 149.467 126.8 150.267 127.867ZM108.533 128.8C108.933 129.6 108.533 131.067 107.6 132.133C105.2 134.4 101.733 132.4 102.8 129.467C103.733 127.067 107.2 126.667 108.533 128.8ZM95.7333 130C95.7333 130.667 95.2 131.333 94.4 131.333C93.7333 131.333 93.0667 130.667 93.0667 130C93.0667 129.2 93.7333 128.667 94.4 128.667C95.2 128.667 95.7333 129.2 95.7333 130ZM128.933 138.8C127.067 140.667 126.667 140.667 125.067 138.8C123.733 137.067 123.733 136.267 125.067 134.533C126.667 132.667 127.067 132.667 128.933 134.533C130.8 136.533 130.8 136.8 128.933 138.8ZM143.333 134.133C145.333 136.133 144 139.333 141.067 139.333C138.133 139.333 136.8 136.133 138.8 134.133C139.6 133.333 140.667 132.667 141.067 132.667C141.467 132.667 142.533 133.333 143.333 134.133ZM101.067 135.333C102.8 136.4 102.8 136.8 100.8 138.933C98 141.6 94.8 139.6 96.1333 136.133C97.0667 133.733 98.2667 133.467 101.067 135.333ZM115.333 136.133C115.733 137.2 115.467 138.8 114.533 139.733C112.667 141.6 108.267 137.733 109.6 135.467C110.933 133.333 114.4 133.733 115.333 136.133ZM43.7333 148.933C43.7333 149.6 42 150 40 150C35.0667 150 29.0667 143.867 29.0667 138.8V135.2L36.4 141.6C40.4 145.067 43.7333 148.4 43.7333 148.933ZM138.4 143.2C138.4 143.867 137.467 145.067 136.267 146C134.667 147.467 133.867 147.333 132.133 145.6C129.067 142.667 132.133 138.667 135.867 140.8C137.2 141.467 138.4 142.533 138.4 143.2ZM150.267 145.467C148.4 147.333 148 147.333 146.4 145.467C145.067 143.733 145.067 142.933 146.4 141.2C148 139.333 148.4 139.333 150.267 141.2C152.133 143.2 152.133 143.467 150.267 145.467ZM108.8 143.733C109.333 146.4 105.467 148.267 103.467 146.267C101.467 144.267 103.333 140.4 106 140.933C107.333 141.2 108.533 142.4 108.8 143.733ZM122.267 142.533C123.467 143.867 123.333 144.667 121.733 146C118.933 148.267 114.933 145.2 117.2 142.533C118 141.467 119.2 140.667 119.733 140.667C120.267 140.667 121.467 141.467 122.267 142.533ZM95.7333 143.867C95.7333 144.267 95.2 144.933 94.4 145.333C93.7333 145.733 93.0667 145.467 93.0667 144.8C93.0667 144 93.7333 143.333 94.4 143.333C95.2 143.333 95.7333 143.6 95.7333 143.867ZM114.4 147.867C114.4 148.267 113.867 148.933 113.067 149.333C112.4 149.733 111.733 149.467 111.733 148.8C111.733 148 112.4 147.333 113.067 147.333C113.867 147.333 114.4 147.6 114.4 147.867Z" fill="black"/>
</svg>
