<svg width="180" height="180" viewBox="0 0 180 180" fill="none" xmlns="http://www.w3.org/2000/svg">
<rect x="0.1" y="0.1" width="179.8" height="179.8" fill="white" stroke="#CBCBCB" stroke-width="0.2"/>
<path d="M35.6667 29.1998L23 29.5998L23.4 77.1998C23.6667 103.333 24.2 131.467 24.6 139.733L25.4 154.667L52.2 154C67 153.733 96.2 153.2 116.867 152.933C137.667 152.533 154.867 152.133 155 151.867C155.267 151.6 155.133 123.733 154.733 89.7332L154.067 27.9998L101.267 28.3998C72.2 28.6665 42.7333 28.9332 35.6667 29.1998ZM90.8667 32.5332C90.7333 33.1998 77.6667 46.7998 61.9333 62.9332C39 86.3998 32.6 92.1332 29.8 92.1332H26.3333L29 88.3998C30.4667 86.3998 43.6667 72.5332 58.2 57.7332C80.3333 34.9332 85.1333 30.6665 87.8 31.0665C89.6667 31.1998 91 31.9998 90.8667 32.5332ZM105.133 31.7332C105 32.3998 92.0667 46.2665 76.0667 62.5332C50.8667 88.6665 46.7333 92.2665 43.5333 91.8665C40.3333 91.4665 42.3333 89.0665 69.4 61.0665C91.5333 38.3998 99.5333 30.7998 101.933 30.7998C103.667 30.7998 105.133 31.1998 105.133 31.7332ZM118.2 31.9998C118.067 32.6665 105 46.5332 89.2667 62.6665C71.1333 81.4665 59.9333 92.1332 58.2 92.1332C56.6 92.1332 55.8 91.3332 56.0667 90.1332C56.7333 86.7998 113.4 30.7998 116.2 30.7998C117.533 30.7998 118.467 31.3332 118.2 31.9998ZM133.133 31.5998C133.133 31.9998 120.2 45.8665 104.333 62.2665C82.7333 84.6665 74.6 92.1332 72.3333 92.1332C70.6 92.1332 69.1333 91.4665 69.1333 90.6665C69.1333 89.8665 81.2667 76.9332 96.0667 61.8665C111 46.9332 123.667 33.7332 124.2 32.6665C125.267 30.9332 133.133 29.8665 133.133 31.5998ZM146.467 31.5998C146.467 31.9998 133.533 45.8665 117.667 62.2665C99.5333 80.9332 87.8 92.1332 86.2 92.1332C84.7333 92.1332 83.8 91.3332 84.0667 90.2665C84.3333 89.3332 97.1333 75.5998 112.467 59.7332C132.333 39.1998 141.4 30.7998 143.533 30.7998C145.133 30.7998 146.467 31.1998 146.467 31.5998ZM34.4667 33.0665C34.4667 34.3998 28.8667 40.1332 27.5333 40.1332C27 40.1332 26.4667 38.2665 26.4667 36.1332C26.4667 32.5332 26.8667 32.1332 30.4667 32.1332C32.7333 32.1332 34.4667 32.5332 34.4667 33.0665ZM47.8 33.1998C47.8 33.7332 43 38.9332 37.1333 44.7998C27.4 54.5332 26.4667 55.0665 26.4667 51.8665C26.4667 46.9332 40.0667 32.1332 44.6 32.1332C46.3333 32.1332 47.8 32.5332 47.8 33.1998ZM62.4667 33.1998C62.4667 33.7332 54.3333 42.2665 44.4667 52.1332C27.4 69.1998 26.4667 69.8665 26.4667 65.9998C26.4667 62.6665 28.8667 59.3332 40.6 47.0665C52.2 34.7998 55.4 32.1332 58.6 32.1332C60.7333 32.1332 62.4667 32.5332 62.4667 33.1998ZM75.5333 33.4665C75.4 34.1332 64.3333 45.5998 51.1333 58.9332C30.8667 79.3332 27 82.6665 26.7333 80.1332C26.3333 77.9998 28.0667 75.1998 32.2 70.9332C66.2 35.3332 69.6667 32.1332 72.7333 32.1332C74.6 32.1332 75.8 32.6665 75.5333 33.4665ZM150.467 39.7332C150.467 42.7998 145.8 48.2665 126.733 67.8665C106.6 88.5332 102.733 91.9998 100.2 91.3332C98.4667 90.7998 97.1333 90.2665 97.1333 89.8665C97.1333 89.5998 106.333 79.8665 117.533 68.3998C128.867 56.9332 140.333 44.9332 143.133 41.7332C149 35.1998 150.467 34.7998 150.467 39.7332ZM151.533 53.8665C152.2 57.4665 120.2 89.9998 115.533 90.5332C113.533 90.7998 111.8 90.5332 111.8 90.1332C111.8 88.3998 148.467 50.9332 149.8 51.3332C150.6 51.4665 151.267 52.6665 151.533 53.8665ZM151.8 67.1998C151.8 69.1998 148.333 73.9998 142.2 80.6665C133.933 89.4665 131.933 90.9332 128.867 90.5332C125.267 90.1332 125.667 89.7332 137.267 77.0665C143.933 69.9998 149.933 64.1332 150.6 64.1332C151.267 64.1332 151.8 65.4665 151.8 67.1998ZM151.8 81.7332C151.8 85.5998 146.733 90.7998 142.867 90.7998C138.733 90.7998 139 89.7332 144.733 83.8665C150.467 77.9998 151.8 77.5998 151.8 81.7332ZM114.333 94.6665C114.6 94.6665 114.067 95.7332 113.133 96.7998C111.8 98.3998 111 98.5332 109.667 97.3332C106.867 95.0665 107.4 93.7332 110.867 94.1332C112.467 94.2665 114.067 94.5332 114.333 94.6665ZM127.533 95.0665C127.133 95.9998 126.067 96.7998 125.133 96.7998C124.2 96.7998 123.133 95.9998 122.867 95.0665C122.467 94.1332 123.4 93.4665 125.133 93.4665C126.867 93.4665 127.8 94.1332 127.533 95.0665ZM140.867 95.0665C140.467 95.9998 139.4 96.7998 138.467 96.7998C137.533 96.7998 136.467 95.9998 136.2 95.0665C135.8 94.1332 136.733 93.4665 138.467 93.4665C140.2 93.4665 141.133 94.1332 140.867 95.0665ZM29.1333 96.1332C29.1333 96.7998 28.4667 97.4665 27.6667 97.4665C27 97.4665 26.7333 96.7998 27.1333 96.1332C27.5333 95.3332 28.2 94.7998 28.6 94.7998C28.8667 94.7998 29.1333 95.3332 29.1333 96.1332ZM43.5333 96.3998C43.1333 97.3332 42.0667 98.1332 41.1333 98.1332C40.2 98.1332 39.1333 97.3332 38.8667 96.3998C38.4667 95.4665 39.4 94.7998 41.1333 94.7998C42.8667 94.7998 43.8 95.4665 43.5333 96.3998ZM55.8 96.7998C54.2 98.7998 51.8 98.3998 51.8 95.9998C51.8 95.3332 53.1333 94.7998 54.6 94.7998C57 94.7998 57.1333 95.0665 55.8 96.7998ZM70.4667 96.7998C69.1333 98.3998 68.3333 98.5332 67 97.3332C64.3333 95.1998 64.6 94.7998 68.6 94.7998C71.5333 94.7998 71.9333 95.0665 70.4667 96.7998ZM84.4667 96.1332C84.0667 96.7998 82.7333 97.4665 81.6667 97.4665C80.6 97.4665 79.8 96.7998 79.8 96.1332C79.8 95.3332 81 94.7998 82.6 94.7998C84.0667 94.7998 84.8667 95.3332 84.4667 96.1332ZM98.4667 96.7998C97.1333 98.3998 96.3333 98.5332 95 97.3332C92.3333 95.1998 92.6 94.7998 96.6 94.7998C99.5333 94.7998 99.9333 95.0665 98.4667 96.7998ZM93.1333 102.267C93.1333 104.533 91.1333 105.6 88.6 104.667C86.0667 103.733 85.8 101.333 88.0667 99.0665C89.8 97.3332 93.1333 99.3332 93.1333 102.267ZM121.133 102.267C121.133 105.067 118.333 105.867 116.067 103.733C114.333 102 114.333 101.2 115.8 99.4665C117.133 97.8665 117.933 97.7332 119.267 98.9332C120.333 99.7332 121.133 101.2 121.133 102.267ZM134.333 102.267C132.333 104.667 130.6 104.667 129.533 102C128.467 99.3332 131.8 97.1998 134.067 99.0665C135.4 100.133 135.4 100.933 134.333 102.267ZM148.867 100.533C149.4 103.2 145.533 105.067 143.533 103.067C141.533 101.067 143.4 97.1998 146.067 97.7332C147.4 97.9998 148.6 99.1998 148.867 100.533ZM35.5333 99.8665C37.5333 101.2 36.2 105.467 33.8 105.467C31.4 105.467 30.0667 103.2 31 100.8C31.8 98.5332 33 98.3998 35.5333 99.8665ZM50.0667 100.933C51.2667 104 48.3333 106.267 45.8 104.133C44.2 102.8 44.0667 102 45.2667 100.667C47.2667 98.2665 49 98.2665 50.0667 100.933ZM63.4 100.267C65.2667 102.133 64.2 105.467 61.8 105.467C59 105.467 57 102.133 58.7333 100.4C60.7333 98.3998 61.5333 98.3998 63.4 100.267ZM78.0667 100.933C79.2667 104 76.3333 106.267 73.8 104.133C72.2 102.8 72.0667 102 73.2667 100.667C75.2667 98.2665 77 98.2665 78.0667 100.933ZM107.267 100.267C108.6 102.533 104.2 106.4 102.333 104.533C101.4 103.6 101.133 102 101.533 100.933C102.467 98.5332 105.933 98.1332 107.267 100.267ZM141 110.267C139.133 112.133 138.733 112.133 137.133 110.267C135.8 108.533 135.8 107.733 137.133 106C138.733 104.133 139.133 104.133 141 106C142.867 108 142.867 108.267 141 110.267ZM43.8 108.8C43.8 111.6 41.2667 112.533 39 110.8C37.6667 109.6 37.5333 108.667 38.6 107.333C40.2 105.333 43.8 106.267 43.8 108.8ZM57.1333 107.467C58.8667 109.6 57.9333 112.133 55.2667 112.133C52.3333 112.133 50.3333 108.8 52.0667 107.067C54.2 104.933 55.1333 105.067 57.1333 107.467ZM71.8 108.933C71.8 111.467 68.0667 112.933 66.2 111.067C65.1333 110 65.1333 109.067 66.3333 107.6C68.2 105.333 71.8 106.267 71.8 108.933ZM85.1333 107.467C86.8667 109.6 85.9333 112.133 83.2667 112.133C80.3333 112.133 78.3333 108.8 80.0667 107.067C82.2 104.933 83.1333 105.067 85.1333 107.467ZM99.6667 107.333C101.933 110 97.9333 113.067 95.1333 110.8C93.5333 109.467 93.4 108.667 94.6 107.333C95.4 106.267 96.6 105.467 97.1333 105.467C97.6667 105.467 98.8667 106.267 99.6667 107.333ZM114.2 108.533C114.733 111.2 110.867 113.067 108.867 111.067C106.867 109.067 108.733 105.2 111.4 105.733C112.733 106 113.933 107.2 114.2 108.533ZM127.4 107.6C128.6 110.667 125.667 112.933 123.133 110.8C121.533 109.467 121.4 108.667 122.6 107.333C124.6 104.933 126.333 104.933 127.4 107.6ZM29.8 109.467C29.8 110.4 29 111.467 28.2 111.733C27.1333 112.133 26.4667 111.2 26.4667 109.467C26.4667 107.733 27.1333 106.8 28.2 107.067C29 107.467 29.8 108.533 29.8 109.467ZM151.8 108.133C151.8 108.8 151.533 109.467 151.267 109.467C150.867 109.467 150.2 108.8 149.8 108.133C149.4 107.333 149.667 106.8 150.333 106.8C151.133 106.8 151.8 107.333 151.8 108.133ZM148.333 116.533C147.267 119.333 145.933 119.333 143.8 116.8C142.467 115.2 142.467 114.4 143.8 112.667C145.267 110.933 145.8 110.933 147.4 112.533C148.467 113.467 148.867 115.333 148.333 116.533ZM50.4667 114.133C51.8 115.733 51.8 116.533 50.4667 118.133C48.8667 120 48.4667 120 46.3333 118C44.4667 116.267 44.2 115.333 45.2667 113.867C47.2667 111.6 48.4667 111.6 50.4667 114.133ZM78.4667 114.267C79.9333 115.867 79.8 116.667 78.0667 118.533C75.9333 120.533 75.6667 120.533 73.5333 118.533C71.8 116.667 71.6667 115.867 73.1333 114.267C74.0667 113.067 75.2667 112.133 75.8 112.133C76.3333 112.133 77.5333 113.067 78.4667 114.267ZM91.6667 118.267C89.8 120.133 89.4 120.133 87.8 118.267C86.4667 116.533 86.4667 115.733 87.8 114C89.4 112.133 89.8 112.133 91.6667 114C93.5333 116 93.5333 116.267 91.6667 118.267ZM106.467 114.133C108.2 116.267 107.267 118.8 104.467 118.8C102.067 118.8 100.733 116.533 101.667 114.133C102.6 111.6 104.333 111.6 106.467 114.133ZM120.867 115.2C121.4 118 117.533 119.733 115.533 117.733C114.467 116.667 114.467 115.6 115.8 114.133C117.933 111.6 120.333 112.133 120.867 115.2ZM134.333 114C136.6 116.667 132.6 119.733 129.8 117.467C128.2 116.133 128.067 115.333 129.267 114C130.067 112.933 131.267 112.133 131.8 112.133C132.333 112.133 133.533 112.933 134.333 114ZM36.4667 114.8C37.4 116.267 34.8667 120.133 33.1333 120.133C31.6667 120.133 30.3333 116.133 31.2667 114.667C32.2 113.067 35.4 113.2 36.4667 114.8ZM64.8667 115.733C65.5333 118 61.4 119.6 59.5333 117.733C58.7333 116.933 58.6 115.733 59.1333 114.8C60.3333 112.933 64.0667 113.6 64.8667 115.733ZM45.1333 122.533C45.1333 124.133 42.0667 126.8 40.3333 126.8C38.0667 126.8 36.8667 122.8 38.6 120.667C39.6667 119.333 40.7333 119.2 42.6 120.267C43.9333 120.933 45.1333 122 45.1333 122.533ZM71.1333 125.333C69.4 127.2 68.8667 127.2 66.8667 125.2C65 123.333 65 122.533 66.4667 120.8C68.0667 118.933 68.4667 118.933 70.7333 121.067C73 123.067 73 123.467 71.1333 125.333ZM99.4 125.067C97.2667 127.2 97 127.2 94.8667 125.067C92.6 122.8 92.6 122.533 95.1333 120.667C97.4 119.067 97.9333 119.067 99.6667 120.8C101.533 122.533 101.4 123.067 99.4 125.067ZM113 124.933C111.133 126.8 110.733 126.8 109.133 124.933C107.8 123.2 107.8 122.4 109.133 120.667C110.733 118.8 111.133 118.8 113 120.667C114.867 122.667 114.867 122.933 113 124.933ZM127.4 120.267C129.4 122.267 128.067 125.467 125.133 125.467C122.2 125.467 120.867 122.267 122.867 120.267C123.667 119.467 124.733 118.8 125.133 118.8C125.533 118.8 126.6 119.467 127.4 120.267ZM141.933 120.8C142.467 121.867 142.067 123.733 141.133 124.8C139.667 126.667 139.133 126.667 137 124.667C135.133 122.933 134.867 122 135.933 120.533C137.933 118.267 141 118.267 141.933 120.8ZM57.8 121.467C58.3333 122.267 57.9333 123.867 57 124.933C55.5333 126.667 55.1333 126.667 53.4 124.933C52.3333 123.867 51.9333 122.4 52.3333 121.6C53.5333 119.733 56.7333 119.733 57.8 121.467ZM86.2 123.2C86.7333 125.867 82.8667 127.733 80.8667 125.733C78.8667 123.733 80.7333 119.867 83.4 120.4C84.7333 120.667 85.9333 121.867 86.2 123.2ZM151.8 122.267C151.8 123.333 151.133 123.867 150.467 123.467C149.667 122.933 149.4 122 149.8 121.333C151 119.467 151.8 119.867 151.8 122.267ZM29.6667 124.267C29.2667 124.933 28.3333 125.2 27.6667 124.667C27 124.267 26.7333 123.333 27.2667 122.667C27.6667 122 28.6 121.733 29.2667 122.267C29.9333 122.667 30.2 123.6 29.6667 124.267ZM120.467 132C118.733 133.867 118.2 133.867 116.2 131.867C114.333 130 114.333 129.2 115.8 127.467C117.4 125.6 117.8 125.6 120.067 127.733C122.333 129.733 122.333 130.133 120.467 132ZM134.333 131.6C132.467 133.467 132.067 133.467 130.467 131.6C129.133 129.867 129.133 129.067 130.467 127.333C132.067 125.467 132.467 125.467 134.333 127.333C136.2 129.333 136.2 129.6 134.333 131.6ZM149.133 128.8C149.133 129.733 148.333 131.2 147.267 132C144.6 134.267 141.4 130.267 143.8 127.6C145.533 125.333 149.133 126.267 149.133 128.8ZM35.8 128.8C37.1333 130.4 37.1333 131.2 35.8 132.933C34.2 134.667 33.8 134.667 32.0667 132.933C30.0667 130.933 30.7333 126.8 32.8667 126.8C33.5333 126.8 34.8667 127.733 35.8 128.8ZM51.2667 128.267C51.6667 129.067 51.1333 130.667 50.0667 131.867C48.3333 133.6 47.5333 133.6 45.8 132.133C44.2 130.8 44.0667 130 45.2667 128.667C47.1333 126.4 49.9333 126.267 51.2667 128.267ZM64.7333 128.933C65.1333 130 64.8667 131.6 63.9333 132.533C62.0667 134.4 57.6667 130.533 59 128.267C60.3333 126.133 63.8 126.533 64.7333 128.933ZM78.4667 128.8C80.2 130.933 79.2667 133.467 76.4667 133.467C74.0667 133.467 72.7333 131.2 73.6667 128.8C74.6 126.267 76.3333 126.267 78.4667 128.8ZM93 128.533C94.0667 129.867 93.9333 130.8 92.8667 131.867C89.4 135.333 84.8667 132.4 87.8 128.8C89.8 126.4 91 126.267 93 128.533ZM107.267 128.267C108.6 130.533 104.2 134.4 102.333 132.533C101.4 131.6 101.133 130 101.533 128.933C102.467 126.533 105.933 126.133 107.267 128.267ZM58.3333 135.2C59.4 136.667 59.1333 137.6 57.2667 139.333C55.1333 141.333 54.7333 141.333 53.1333 139.467C51.8 137.867 51.8 137.067 53.1333 135.467C55.1333 132.933 56.3333 132.933 58.3333 135.2ZM71.8 135.467C73.1333 137.067 73.1333 137.867 71.8 139.6C70.2 141.333 69.8 141.333 68.0667 139.6C66.0667 137.6 66.7333 133.467 68.8667 133.467C69.5333 133.467 70.8667 134.4 71.8 135.467ZM85 139.6C83.1333 141.467 82.7333 141.467 81.1333 139.6C79.8 137.867 79.8 137.067 81.1333 135.333C82.7333 133.467 83.1333 133.467 85 135.333C86.8667 137.333 86.8667 137.6 85 139.6ZM99.6667 135.333C100.867 136.667 100.733 137.467 99.1333 138.8C96.6 140.933 93.6667 138.667 94.8667 135.6C95.9333 132.933 97.6667 132.933 99.6667 135.333ZM114.2 136.533C114.733 139.2 110.867 141.067 108.867 139.067C106.867 137.067 108.733 133.2 111.4 133.733C112.733 134 113.933 135.2 114.2 136.533ZM127.667 135.333C128.867 136.667 128.733 137.467 127.133 138.8C124.333 141.067 120.333 138 122.6 135.333C123.4 134.267 124.6 133.467 125.133 133.467C125.667 133.467 126.867 134.267 127.667 135.333ZM141.8 134.8C142.333 135.6 141.933 137.2 141 138.267C139.533 140 139.133 140 137.4 138.267C136.333 137.2 135.933 135.733 136.333 134.933C137.533 133.067 140.733 133.067 141.8 134.8ZM43.8 136.667C43.8 139.867 40.3333 141.733 38.4667 139.6C37.6667 138.4 37.2667 136.933 37.8 136.133C39 134.133 43.8 134.533 43.8 136.667ZM30.4667 137.333C30.4667 138.133 29.9333 139.067 29.1333 139.467C28.4667 139.867 27.8 139.333 27.8 138.267C27.8 137.067 28.4667 136.133 29.1333 136.133C29.9333 136.133 30.4667 136.667 30.4667 137.333ZM51.8 144.8C51.8 147.333 47.8 148.4 45.5333 146.667C44.0667 145.333 44.0667 144.667 45.9333 142.667C47.6667 140.8 48.6 140.533 50.0667 141.6C51 142.4 51.8 143.867 51.8 144.8ZM65.1333 142.267C66.6 143.867 66.4667 144.667 64.7333 146.533C62.6 148.533 62.3333 148.533 60.2 146.533C58.4667 144.667 58.3333 143.867 59.8 142.267C60.7333 141.067 61.9333 140.133 62.4667 140.133C63 140.133 64.2 141.067 65.1333 142.267ZM92.7333 142.933C93 144 92.6 145.733 91.8 146.8C90.7333 148.533 90.3333 148.533 88.3333 146.533C86.3333 144.667 86.3333 143.867 87.8 142.133C89.8 139.733 92.3333 140.133 92.7333 142.933ZM106.467 142.133C107.8 143.733 107.8 144.533 106.467 146.267C104.867 148 104.467 148 102.733 146.267C100.733 144.267 101.4 140.133 103.533 140.133C104.2 140.133 105.533 141.067 106.467 142.133ZM121 141.867C122.067 143.2 121.933 144.133 120.867 145.2C117.4 148.667 112.867 145.733 115.8 142.133C117.8 139.733 119 139.6 121 141.867ZM134.467 142.133C136.2 144.267 135.267 146.8 132.467 146.8C130.067 146.8 128.733 144.533 129.667 142.133C130.6 139.6 132.333 139.6 134.467 142.133ZM149 142C150.2 143.333 150.067 144.133 148.467 145.467C145.667 147.733 141.667 144.667 143.933 142C144.733 140.933 145.933 140.133 146.467 140.133C147 140.133 148.2 140.933 149 142ZM36.4667 144.8C36.4667 147.733 34.6 148.533 31.9333 146.933C30.3333 145.867 30.2 145.333 31.8 143.467C33.9333 140.8 36.4667 141.6 36.4667 144.8ZM79.1333 142.8C79.6667 143.6 79.2667 145.2 78.3333 146.267C76.8667 148 76.4667 148 74.7333 146.267C73.6667 145.2 73.2667 143.733 73.6667 142.933C74.8667 141.067 78.0667 141.067 79.1333 142.8ZM99.5333 149.2C99.8 150.133 99.1333 150.8 97.9333 150.8C96.7333 150.8 95.8 149.867 95.8 148.667C95.8 146.4 98.7333 146.8 99.5333 149.2ZM112.467 148.133C112.867 148.8 112.333 149.467 111.133 149.467C109.933 149.467 109.4 148.8 109.8 148.133C110.2 147.333 110.867 146.8 111.133 146.8C111.4 146.8 112.067 147.333 112.467 148.133ZM127.133 148.133C127.533 148.8 127 149.467 125.933 149.467C124.733 149.467 123.8 148.8 123.8 148.133C123.8 147.333 124.333 146.8 125 146.8C125.8 146.8 126.733 147.333 127.133 148.133ZM141.133 148.133C141.133 148.8 140.2 149.467 139 149.467C137.933 149.467 137.4 148.8 137.8 148.133C138.2 147.333 139.133 146.8 139.933 146.8C140.6 146.8 141.133 147.333 141.133 148.133ZM43.1333 149.467C43.5333 150.133 42.7333 150.8 41.1333 150.8C39.5333 150.8 38.7333 150.133 39.1333 149.467C39.5333 148.667 40.4667 148.133 41.1333 148.133C41.8 148.133 42.7333 148.667 43.1333 149.467ZM57.1333 149.467C57.1333 150.133 56.2 150.8 55.1333 150.8C54.0667 150.8 53.1333 150.133 53.1333 149.467C53.1333 148.667 54.0667 148.133 55.1333 148.133C56.2 148.133 57.1333 148.667 57.1333 149.467ZM71.8 149.467C71.8 150.133 70.8667 150.8 69.8 150.8C68.7333 150.8 67.8 150.133 67.8 149.467C67.8 148.667 68.7333 148.133 69.8 148.133C70.8667 148.133 71.8 148.667 71.8 149.467ZM85.1333 149.467C85.1333 150.133 84.2 150.8 83.1333 150.8C82.0667 150.8 81.1333 150.133 81.1333 149.467C81.1333 148.667 82.0667 148.133 83.1333 148.133C84.2 148.133 85.1333 148.667 85.1333 149.467Z" fill="black"/>
</svg>
