<svg width="180" height="180" viewBox="0 0 180 180" fill="none" xmlns="http://www.w3.org/2000/svg">
<rect x="0.1" y="0.1" width="179.8" height="179.8" fill="white" stroke="#CBCBCB" stroke-width="0.2"/>
<path d="M30.4 28.2001L24 28.6001V60.3334C24 77.8001 24.4 105.667 24.9333 122.467L25.7333 152.733L41.2 151.933C49.7333 151.533 79.0667 151.133 106.4 151.133H156V115.4C156 95.6667 155.6 67.8001 155.067 53.2667L154.267 27.0001L95.4667 27.4001C63.0667 27.5334 33.8667 27.9334 30.4 28.2001ZM105.067 31.2667C104.8 32.0667 104 32.6001 103.333 32.6001C102.667 32.6001 101.867 32.0667 101.6 31.2667C101.333 30.4667 102.133 29.8001 103.333 29.8001C104.533 29.8001 105.333 30.4667 105.067 31.2667ZM118.8 31.5334C118.667 33.1334 116.8 32.7334 116.267 31.0001C115.867 30.2001 116.4 29.6667 117.333 29.9334C118.133 30.3334 118.8 31.0001 118.8 31.5334ZM134 31.1334C133.6 31.8001 132.267 32.4667 131.2 32.4667C130.133 32.4667 129.333 31.8001 129.333 31.1334C129.333 30.3334 130.533 29.8001 132.133 29.8001C133.6 29.8001 134.4 30.3334 134 31.1334ZM147.333 31.1334C146.933 31.8001 146 32.4667 145.2 32.4667C144.533 32.4667 144 31.8001 144 31.1334C144 30.3334 144.933 29.8001 146.133 29.8001C147.2 29.8001 147.733 30.3334 147.333 31.1334ZM35.3333 32.4667C34.9333 33.1334 33.6 33.8001 32.5333 33.8001C31.4667 33.8001 30.6667 33.1334 30.6667 32.4667C30.6667 31.6667 31.8667 31.1334 33.4667 31.1334C34.9333 31.1334 35.7333 31.6667 35.3333 32.4667ZM48.2667 32.7334C47.0667 33.9334 46.2667 33.9334 45.0667 32.7334C43.8667 31.5334 44.1333 31.1334 46.6667 31.1334C49.2 31.1334 49.4667 31.5334 48.2667 32.7334ZM62.6667 32.4667C62.6667 33.1334 62.1333 33.8001 61.4667 33.8001C60.6667 33.8001 59.7333 33.1334 59.3333 32.4667C58.9333 31.6667 59.4667 31.1334 60.5333 31.1334C61.7333 31.1334 62.6667 31.6667 62.6667 32.4667ZM76.2667 32.7334C75.0667 33.9334 74.2667 33.9334 73.0667 32.7334C71.8667 31.5334 72.1333 31.1334 74.6667 31.1334C77.2 31.1334 77.4667 31.5334 76.2667 32.7334ZM90.9333 32.7334C89.7333 33.9334 88.9333 33.9334 87.7333 32.7334C86.5333 31.5334 86.8 31.1334 89.3333 31.1334C91.8667 31.1334 92.1333 31.5334 90.9333 32.7334ZM57.3333 37.2667C57.3333 39.8001 53.6 41.2667 51.7333 39.4001C50.6667 38.3334 50.6667 37.4001 51.8667 35.9334C53.7333 33.6667 57.3333 34.6001 57.3333 37.2667ZM70.2667 35.2667C72.1333 37.1334 71.0667 40.4667 68.6667 40.4667C65.8667 40.4667 63.8667 37.1334 65.6 35.4001C67.6 33.4001 68.4 33.4001 70.2667 35.2667ZM85.0667 36.8667C85.6 39.6667 81.7333 41.4001 79.7333 39.4001C78.6667 38.3334 78.6667 37.2667 80 35.8001C82.1333 33.2667 84.5333 33.8001 85.0667 36.8667ZM99.4667 37.4001C99.0667 38.4667 98.6667 39.6667 98.6667 39.9334C98.6667 40.2001 97.7333 40.4667 96.6667 40.4667C93.8667 40.4667 92.5333 36.4667 94.6667 35.1334C97.2 33.5334 100.267 35.1334 99.4667 37.4001ZM113.2 35.6667C114.4 37.0001 114.267 37.8001 112.667 39.1334C109.867 41.4001 105.867 38.3334 108.133 35.6667C108.933 34.6001 110.133 33.8001 110.667 33.8001C111.2 33.8001 112.4 34.6001 113.2 35.6667ZM127.6 35.9334C128 37.0001 127.733 38.6001 126.8 39.5334C124.933 41.4001 120.533 37.5334 121.867 35.2667C123.2 33.1334 126.667 33.5334 127.6 35.9334ZM141.867 35.0001C142.267 35.5334 141.867 37.0001 140.933 38.2001C138.933 41.0001 135.2 39.0001 136.4 35.9334C137.333 33.6667 140.667 33.0001 141.867 35.0001ZM29.3333 38.6001C29.3333 39.6667 28.8 40.4667 28 40.4667C27.3333 40.4667 26.6667 39.2667 26.6667 37.6667C26.6667 36.2001 27.3333 35.4001 28 35.8001C28.8 36.2001 29.3333 37.5334 29.3333 38.6001ZM43.2 36.2001C43.4667 36.7334 42.9333 38.3334 41.8667 39.6667C40.4 41.6667 39.7333 41.9334 38.1333 40.6001C37.0667 39.6667 36.5333 38.0667 36.9333 37.0001C37.6 35.0001 42 34.4667 43.2 36.2001ZM152 36.4667C152 37.1334 151.467 37.8001 150.667 37.8001C150 37.8001 149.333 37.1334 149.333 36.4667C149.333 35.6667 150 35.1334 150.667 35.1334C151.467 35.1334 152 35.6667 152 36.4667ZM49.4667 46.3334C47.6 48.4667 44 47.8001 44 45.2667C44 44.3334 44.6667 43.0001 45.6 42.0667C48.1333 39.5334 51.7333 43.5334 49.4667 46.3334ZM77.2 46.6001C75.3333 48.4667 74.9333 48.4667 73.3333 46.6001C72 44.8667 72 44.0667 73.3333 42.3334C74.9333 40.4667 75.3333 40.4667 77.2 42.3334C79.0667 44.3334 79.0667 44.6001 77.2 46.6001ZM92.4 45.2667C91.6 47.4001 88.5333 47.8001 87.3333 45.8001C86.8 45.0001 87.2 43.5334 88 42.3334C90 39.9334 93.6 42.3334 92.4 45.2667ZM106.4 43.5334C106.933 46.3334 103.067 48.0667 101.067 46.0667C100 45.0001 100 43.9334 101.333 42.4667C103.467 39.9334 105.867 40.4667 106.4 43.5334ZM120 42.4667C121.733 44.6001 120.8 47.1334 118 47.1334C115.6 47.1334 114.267 44.8667 115.2 42.4667C116.133 39.9334 117.867 39.9334 120 42.4667ZM134.267 42.6001C135.467 45.6667 132.533 47.9334 130 45.8001C128.4 44.4667 128.267 43.6667 129.467 42.3334C131.467 39.9334 133.2 39.9334 134.267 42.6001ZM148.933 42.6001C149.333 43.6667 149.067 45.2667 148.133 46.2001C146.267 48.0667 141.867 44.2001 143.2 41.9334C144.533 39.8001 148 40.2001 148.933 42.6001ZM35.3333 43.1334C36.6667 45.2667 33.2 48.8667 31.6 47.2667C30.1333 45.8001 31.3333 41.8001 33.2 41.8001C33.8667 41.8001 34.9333 42.4667 35.3333 43.1334ZM63.7333 44.0667C64.4 46.3334 60.2667 47.9334 58.4 46.0667C57.6 45.2667 57.4667 44.0667 58 43.1334C59.2 41.2667 62.9333 41.9334 63.7333 44.0667ZM98.5333 53.2667C96.6667 55.1334 96.2667 55.1334 94.6667 53.2667C93.3333 51.5334 93.3333 50.7334 94.6667 49.0001C96.2667 47.1334 96.6667 47.1334 98.5333 49.0001C100.4 51.0001 100.4 51.2667 98.5333 53.2667ZM113.333 49.1334C115.067 51.2667 114.133 53.8001 111.333 53.8001C108.933 53.8001 107.6 51.5334 108.533 49.1334C109.467 46.6001 111.2 46.6001 113.333 49.1334ZM127.733 50.2001C128.267 53.0001 124.4 54.7334 122.4 52.7334C121.333 51.6667 121.333 50.6001 122.667 49.1334C124.8 46.6001 127.2 47.1334 127.733 50.2001ZM141.333 49.1334C143.067 51.2667 142.133 53.8001 139.467 53.8001C136.533 53.8001 134.533 50.4667 136.267 48.7334C138.4 46.6001 139.333 46.7334 141.333 49.1334ZM42.5333 50.3334C44.8 53.0001 40.8 56.0667 38 53.8001C36.4 52.4667 36.2667 51.6667 37.4667 50.3334C38.2667 49.2667 39.4667 48.4667 40 48.4667C40.5333 48.4667 41.7333 49.2667 42.5333 50.3334ZM56.9333 50.6001C57.3333 51.6667 57.0667 53.2667 56.1333 54.2001C54.2667 56.0667 49.8667 52.2001 51.2 49.9334C52.5333 47.8001 56 48.2001 56.9333 50.6001ZM71.7333 51.5334C72.2667 54.4667 68.5333 55.9334 66 53.8001C64.4 52.4667 64.2667 51.6667 65.4667 50.2001C67.6 47.8001 71.2 48.4667 71.7333 51.5334ZM84.9333 50.6001C86.1333 53.6667 83.2 55.9334 80.6667 53.8001C79.0667 52.4667 78.9333 51.6667 80.1333 50.3334C82.1333 47.9334 83.8667 47.9334 84.9333 50.6001ZM29.3333 51.8001C29.3333 52.8667 28.8 53.8001 28 53.8001C27.3333 53.8001 26.6667 52.8667 26.6667 51.8001C26.6667 50.7334 27.3333 49.8001 28 49.8001C28.8 49.8001 29.3333 50.7334 29.3333 51.8001ZM152 51.1334C152 51.8001 151.733 52.4667 151.467 52.4667C151.067 52.4667 150.4 51.8001 150 51.1334C149.6 50.3334 149.867 49.8001 150.533 49.8001C151.333 49.8001 152 50.3334 152 51.1334ZM119.867 59.9334C118 61.8001 117.6 61.8001 116 59.9334C114.667 58.2001 114.667 57.4001 116 55.6667C117.6 53.8001 118 53.8001 119.867 55.6667C121.733 57.6667 121.733 57.9334 119.867 59.9334ZM134.667 55.9334C136.133 57.5334 136.133 58.3334 134.533 59.9334C132.8 61.5334 132.133 61.5334 130 59.9334C127.867 58.3334 127.733 57.8001 129.2 55.9334C131.467 53.2667 132.533 53.2667 134.667 55.9334ZM35.7333 58.2001C36.2667 61.1334 32.1333 62.8667 30.6667 60.3334C29.3333 58.3334 31.6 54.7334 33.8667 55.5334C34.6667 55.8001 35.4667 57.0001 35.7333 58.2001ZM49.3333 57.1334C50.6667 58.7334 50.6667 59.5334 49.3333 61.2667C47.7333 63.0001 47.3333 63.0001 45.6 61.2667C43.6 59.2667 44.2667 55.1334 46.4 55.1334C47.0667 55.1334 48.4 56.0667 49.3333 57.1334ZM64 57.1334C65.3333 58.7334 65.3333 59.5334 64 61.1334C62.4 63.0001 62 63.0001 59.8667 61.0001C58 59.2667 57.7333 58.3334 58.8 56.8667C60.8 54.6001 62 54.6001 64 57.1334ZM78.5333 56.8667C79.6 58.2001 79.4667 59.1334 78.4 60.2001C74.9333 63.6667 70.4 60.7334 73.3333 57.1334C75.3333 54.7334 76.5333 54.6001 78.5333 56.8667ZM91.8667 57.0001C94.1333 59.6667 90.1333 62.7334 87.3333 60.4667C85.7333 59.1334 85.6 58.3334 86.8 57.0001C87.6 55.9334 88.8 55.1334 89.3333 55.1334C89.8667 55.1334 91.0667 55.9334 91.8667 57.0001ZM106.533 57.0001C107.733 58.3334 107.6 59.1334 106 60.4667C103.2 62.7334 99.2 59.6667 101.467 57.0001C102.267 55.9334 103.467 55.1334 104 55.1334C104.533 55.1334 105.733 55.9334 106.533 57.0001ZM148.933 57.2667C149.333 58.3334 149.067 59.9334 148.133 60.8667C146.267 62.7334 141.867 58.8667 143.2 56.6001C144.533 54.4667 148 54.8667 148.933 57.2667ZM42.6667 67.8001C41.3333 69.4001 40.5333 69.5334 39.2 68.3334C38.1333 67.5334 37.3333 66.0667 37.3333 65.1334C37.3333 62.6001 40.4 61.8001 42.5333 63.9334C44.1333 65.4001 44.1333 66.0667 42.6667 67.8001ZM58.6667 65.6667C58.6667 66.3334 57.7333 67.5334 56.5333 68.4667C54.9333 69.9334 54.1333 69.8001 52.4 68.0667C49.3333 65.1334 52.4 61.1334 56.1333 63.2667C57.4667 63.9334 58.6667 65.0001 58.6667 65.6667ZM71.4667 67.0001C70.2667 68.8667 67.0667 68.8667 66 67.1334C65.4667 66.3334 65.8667 64.7334 66.8 63.6667C68.2667 61.9334 68.6667 61.9334 70.4 63.6667C71.4667 64.7334 71.8667 66.2001 71.4667 67.0001ZM85.2 63.6667C87.4667 66.3334 83.4667 69.4001 80.6667 67.1334C79.0667 65.8001 78.9333 65.0001 80.1333 63.6667C80.9333 62.6001 82.1333 61.8001 82.6667 61.8001C83.2 61.8001 84.4 62.6001 85.2 63.6667ZM99.7333 64.8667C100.267 67.6667 96.4 69.4001 94.4 67.4001C93.3333 66.3334 93.3333 65.2667 94.6667 63.8001C96.8 61.2667 99.2 61.8001 99.7333 64.8667ZM113.2 63.6667C114.4 65.0001 114.267 65.8001 112.667 67.1334C110.133 69.2667 107.2 67.0001 108.4 63.9334C109.467 61.2667 111.2 61.2667 113.2 63.6667ZM127.867 63.6667C129.067 65.0001 128.933 65.8001 127.333 67.1334C125.6 68.6001 124.8 68.6001 123.067 66.8667C120.933 64.6001 121.733 61.8001 124.533 61.8001C125.6 61.8001 127.067 62.6001 127.867 63.6667ZM142.267 63.9334C143.333 66.8667 139.867 68.8667 137.467 66.6001C136.533 65.5334 136.133 64.0667 136.533 63.2667C137.867 61.1334 141.333 61.5334 142.267 63.9334ZM152 65.2667C152 66.3334 151.333 66.8667 150.667 66.4667C149.867 65.9334 149.6 65.0001 150 64.3334C151.2 62.4667 152 62.8667 152 65.2667ZM29.3333 66.4667C29.3333 67.5334 28.8 68.4667 28 68.4667C27.3333 68.4667 26.6667 67.5334 26.6667 66.4667C26.6667 65.4001 27.3333 64.4667 28 64.4667C28.8 64.4667 29.3333 65.4001 29.3333 66.4667ZM50 75.0001C48.2667 76.8667 47.7333 76.8667 45.7333 74.8667C43.8667 73.0001 43.8667 72.2001 45.3333 70.4667C46.9333 68.6001 47.3333 68.6001 49.6 70.7334C51.8667 72.7334 51.8667 73.1334 50 75.0001ZM77.2 74.6001C75.3333 76.4667 74.9333 76.4667 73.3333 74.6001C72 72.8667 72 72.0667 73.3333 70.3334C74.9333 68.4667 75.3333 68.4667 77.2 70.3334C79.0667 72.3334 79.0667 72.6001 77.2 74.6001ZM91.8667 74.6001C90 76.4667 89.6 76.4667 88 74.6001C86.6667 72.8667 86.6667 72.0667 88 70.3334C89.6 68.4667 90 68.4667 91.8667 70.3334C93.7333 72.3334 93.7333 72.6001 91.8667 74.6001ZM106.533 70.3334C108.8 73.0001 104.8 76.0667 102 73.8001C100.4 72.4667 100.267 71.6667 101.467 70.3334C102.267 69.2667 103.467 68.4667 104 68.4667C104.533 68.4667 105.733 69.2667 106.533 70.3334ZM121.067 71.5334C121.6 74.2001 117.733 76.0667 115.733 74.0667C113.733 72.0667 115.6 68.2001 118.267 68.7334C119.6 69.0001 120.8 70.2001 121.067 71.5334ZM134.667 70.4667C136.4 72.6001 135.467 75.1334 132.667 75.1334C130.267 75.1334 128.933 72.8667 129.867 70.4667C130.8 67.9334 132.533 67.9334 134.667 70.4667ZM148.933 70.6001C150.133 73.6667 147.2 75.9334 144.667 73.8001C143.067 72.4667 142.933 71.6667 144.133 70.3334C146.133 67.9334 147.867 67.9334 148.933 70.6001ZM35.8667 71.6667C38.1333 74.3334 34.1333 77.4001 31.3333 75.1334C29.7333 73.8001 29.6 73.0001 30.8 71.6667C31.6 70.6001 32.8 69.8001 33.3333 69.8001C33.8667 69.8001 35.0667 70.6001 35.8667 71.6667ZM64.8 71.2667C66.1333 73.5334 61.7333 77.4001 59.8667 75.5334C58.9333 74.6001 58.6667 73.0001 59.0667 71.9334C60 69.5334 63.4667 69.1334 64.8 71.2667ZM113.2 81.2667C111.333 83.1334 110.933 83.1334 109.333 81.2667C108 79.5334 108 78.7334 109.333 77.0001C110.933 75.1334 111.333 75.1334 113.2 77.0001C115.067 79.0001 115.067 79.2667 113.2 81.2667ZM128 77.1334C130.533 80.0667 127.333 83.5334 123.867 81.6667C121.867 80.6001 121.6 79.8001 122.667 77.8001C124.4 74.6001 125.733 74.4667 128 77.1334ZM142.267 77.2667C142.667 78.3334 142.133 80.2001 141.067 81.2667C139.333 83.0001 138.933 83.0001 137.333 81.2667C136 79.5334 136 78.7334 137.333 77.1334C139.467 74.6001 141.2 74.6001 142.267 77.2667ZM42.6667 78.4667C44 80.0667 44 80.8667 42.6667 82.4667C41.0667 84.3334 40.6667 84.3334 38.5333 82.3334C36.6667 80.6001 36.4 79.6667 37.4667 78.2001C39.4667 75.9334 40.6667 75.9334 42.6667 78.4667ZM57.2 78.3334C58.4 79.6667 58.2667 80.4667 56.6667 81.8001C54.1333 83.9334 51.2 81.6667 52.4 78.6001C53.4667 75.9334 55.2 75.9334 57.2 78.3334ZM71.7333 79.5334C72.2667 82.2001 68.4 84.0667 66.4 82.0667C64.4 80.0667 66.2667 76.2001 68.9333 76.7334C70.2667 77.0001 71.4667 78.2001 71.7333 79.5334ZM85.2 78.3334C86.4 79.6667 86.2667 80.4667 84.6667 81.8001C82.1333 83.9334 79.2 81.6667 80.4 78.6001C81.4667 75.9334 83.2 75.9334 85.2 78.3334ZM99.3333 77.8001C99.8667 78.6001 99.4667 80.2001 98.5333 81.2667C97.0667 83.0001 96.6667 83.0001 94.9333 81.2667C93.8667 80.2001 93.4667 78.7334 93.8667 77.9334C95.0667 76.0667 98.2667 76.0667 99.3333 77.8001ZM29.3333 80.4667C29.3333 81.1334 28.8 81.8001 28 81.8001C27.3333 81.8001 26.6667 81.1334 26.6667 80.4667C26.6667 79.6667 27.3333 79.1334 28 79.1334C28.8 79.1334 29.3333 79.6667 29.3333 80.4667ZM64 85.1334C65.7333 87.2667 64.8 89.8001 62 89.8001C59.6 89.8001 58.2667 87.5334 59.2 85.1334C60.1333 82.6001 61.8667 82.6001 64 85.1334ZM78 86.4667C78 89.4001 76.1333 90.2001 73.4667 88.6001C71.8667 87.5334 71.7333 87.0001 73.3333 85.1334C75.4667 82.4667 78 83.2667 78 86.4667ZM93.3333 85.8001C93.3333 86.3334 92.4 87.5334 91.3333 88.4667C88.4 90.8667 85.4667 88.2001 87.8667 85.2667C89.4667 83.4001 93.3333 83.6667 93.3333 85.8001ZM107.467 84.6001C107.867 85.4001 107.333 87.0001 106.267 88.2001C104.533 89.9334 103.733 89.9334 102 88.4667C100.4 87.1334 100.267 86.3334 101.467 85.0001C103.333 82.7334 106.133 82.6001 107.467 84.6001ZM121.2 85.0001C122.4 86.3334 122.267 87.1334 120.667 88.4667C118.933 89.9334 118.133 89.8001 116.267 87.9334C114.267 85.9334 114.267 85.5334 116 84.4667C118.667 82.7334 119.467 82.8667 121.2 85.0001ZM135.333 84.4667C135.867 85.2667 135.467 86.8667 134.533 87.9334C133.067 89.6667 132.667 89.6667 130.933 87.9334C129.867 86.8667 129.467 85.4001 129.867 84.6001C131.067 82.7334 134.267 82.7334 135.333 84.4667ZM149.867 84.3334C150.267 84.8667 149.733 86.4667 148.8 87.9334C147.2 89.9334 146.667 90.0667 144.8 88.6001C143.2 87.2667 142.933 86.3334 144.133 85.0001C145.867 82.8667 148.8 82.6001 149.867 84.3334ZM35.8667 86.3334C36.9333 87.6667 36.9333 88.4667 35.4667 89.6667C34.1333 90.8667 33.3333 90.7334 32 89.2667C30.4 87.2667 31.2 84.4667 33.2 84.4667C33.8667 84.4667 35.0667 85.2667 35.8667 86.3334ZM50 85.8001C50.5333 86.6001 50.1333 88.2001 49.2 89.2667C47.7333 91.0001 47.3333 91.0001 45.6 89.2667C44.5333 88.2001 44.1333 86.7334 44.5333 85.9334C45.7333 84.0667 48.9333 84.0667 50 85.8001ZM86.6667 93.8001C86.6667 95.5334 82.2667 96.6001 80.9333 95.2667C78.8 93.1334 82.5333 89.4001 84.8 91.2667C85.8667 92.0667 86.6667 93.2667 86.6667 93.8001ZM99.8667 91.6667C101.733 93.9334 98.6667 96.8667 95.4667 95.6667C92.9333 94.7334 92.8 93.5334 94.9333 91.4001C96.9333 89.4001 98 89.4001 99.8667 91.6667ZM114 93.1334C114 96.0667 112.133 96.8667 109.467 95.2667C107.867 94.2001 107.733 93.6667 109.333 91.8001C111.467 89.1334 114 89.9334 114 93.1334ZM128 91.8001C129.733 93.9334 128.8 96.4667 126.133 96.4667C123.2 96.4667 121.2 93.1334 122.933 91.4001C125.067 89.2667 126 89.4001 128 91.8001ZM142.267 91.9334C143.467 95.0001 140.533 97.2667 138 95.1334C136.4 93.8001 136.267 93.0001 137.467 91.6667C139.467 89.2667 141.2 89.2667 142.267 91.9334ZM42.5333 92.3334C44.1333 93.4001 44.2667 93.9334 42.8 95.6667C40.6667 98.2001 37.0667 96.0667 38.2667 93.0001C39.0667 90.8667 39.8667 90.7334 42.5333 92.3334ZM58 92.4667C58.5333 93.2667 58.1333 94.8667 57.2 95.9334C55.7333 97.6667 55.3333 97.6667 53.6 95.9334C52.5333 94.8667 52.1333 93.4001 52.5333 92.6001C53.7333 90.7334 56.9333 90.7334 58 92.4667ZM71.3333 92.4667C71.8667 93.2667 71.4667 94.8667 70.5333 95.9334C69.0667 97.6667 68.6667 97.6667 66.9333 95.9334C65.8667 94.8667 65.4667 93.4001 65.8667 92.6001C67.0667 90.7334 70.2667 90.7334 71.3333 92.4667ZM152.533 93.9334C152.133 94.6001 151.2 94.8667 150.533 94.3334C149.867 93.9334 149.6 93.0001 150.133 92.3334C150.533 91.6667 151.467 91.4001 152.133 91.9334C152.8 92.3334 153.067 93.2667 152.533 93.9334ZM30 93.6667C30.4 94.3334 30.1333 95.2667 29.3333 95.8001C28.6667 96.2001 28 95.6667 28 94.6001C28 92.2001 28.8 91.8001 30 93.6667ZM93.3333 101.133C93.3333 103.667 89.7333 104.6 88 102.333C85.6 99.6667 88.8 95.6667 91.4667 97.9334C92.5333 98.7334 93.3333 100.2 93.3333 101.133ZM106.533 102.6C104.667 104.467 104.267 104.467 102.667 102.6C101.333 100.867 101.333 100.067 102.667 98.3334C104.267 96.4667 104.667 96.4667 106.533 98.3334C108.4 100.333 108.4 100.6 106.533 102.6ZM121.333 98.4667C123.067 100.6 122.133 103.133 119.467 103.133C116.533 103.133 114.533 99.8001 116.267 98.0667C118.4 95.9334 119.333 96.0667 121.333 98.4667ZM135.733 99.5334C136.267 102.333 132.4 104.067 130.4 102.067C129.333 101 129.333 99.9334 130.667 98.4667C132.8 95.9334 135.2 96.4667 135.733 99.5334ZM148.933 98.6001C150.133 101.667 147.2 103.933 144.667 101.8C143.067 100.467 142.933 99.6667 144.133 98.3334C146.133 95.9334 147.867 95.9334 148.933 98.6001ZM37.3333 101.8C37.3333 103.533 32.9333 104.6 31.6 103.267C29.4667 101.133 33.2 97.4001 35.4667 99.2667C36.5333 100.067 37.3333 101.267 37.3333 101.8ZM50.5333 99.6667C51.7333 101 51.6 101.8 50 103.133C47.2 105.4 43.2 102.333 45.4667 99.6667C46.2667 98.6001 47.4667 97.8001 48 97.8001C48.5333 97.8001 49.7333 98.6001 50.5333 99.6667ZM64.9333 99.9334C66 102.867 62.5333 104.867 60.1333 102.6C59.2 101.533 58.8 100.067 59.2 99.2667C60.5333 97.1334 64 97.5334 64.9333 99.9334ZM79.0667 99.6667C80.2667 102.733 76.5333 105.133 74 103.133C72.4 101.8 72.2667 101 73.4667 99.6667C75.4667 97.2667 78.1333 97.2667 79.0667 99.6667ZM127.867 109.267C126 111.133 125.6 111.133 124 109.267C122.667 107.533 122.667 106.733 124 105C125.6 103.133 126 103.133 127.867 105C129.733 107 129.733 107.267 127.867 109.267ZM142.533 104.867C143.6 106.2 143.467 107.133 142.4 108.2C138.933 111.667 134.4 108.733 137.333 105.133C139.333 102.733 140.533 102.6 142.533 104.867ZM43.7333 107.533C44.2667 110.333 40.4 112.067 38.4 110.067C37.3333 109 37.3333 107.933 38.6667 106.467C40.8 103.933 43.2 104.467 43.7333 107.533ZM57.3333 106.467C59.0667 108.6 58.1333 111.133 55.3333 111.133C52.9333 111.133 51.6 108.867 52.5333 106.467C53.4667 103.933 55.2 103.933 57.3333 106.467ZM71.6 106.6C72.8 109.667 69.8667 111.933 67.3333 109.8C65.7333 108.467 65.6 107.667 66.8 106.333C68.8 103.933 70.5333 103.933 71.6 106.6ZM86.4 107.533C86.9333 110.2 83.0667 112.067 81.0667 110.067C79.0667 108.067 80.9333 104.2 83.6 104.733C84.9333 105 86.1333 106.2 86.4 107.533ZM100.4 106.333C101.6 109.4 97.8667 111.8 95.3333 109.8C93.7333 108.467 93.6 107.667 94.8 106.333C96.8 103.933 99.4667 103.933 100.4 106.333ZM114.533 106.333C115.733 107.667 115.6 108.467 114 109.8C112.267 111.267 111.467 111.267 109.733 109.533C107.6 107.267 108.4 104.467 111.2 104.467C112.267 104.467 113.733 105.267 114.533 106.333ZM29.6 110.067C28.4 111.267 28 111 28 108.467C28 105.933 28.4 105.667 29.6 106.867C30.8 108.067 30.8 108.867 29.6 110.067ZM153.333 107.133C153.333 107.8 152.8 108.467 152 108.467C151.333 108.467 150.667 107.8 150.667 107.133C150.667 106.333 151.333 105.8 152 105.8C152.8 105.8 153.333 106.333 153.333 107.133ZM136 114.467C136 117 132.4 117.933 130.667 115.667C128.267 113 131.467 109 134.133 111.267C135.2 112.067 136 113.533 136 114.467ZM149.333 115.8C148 117.4 147.2 117.533 145.867 116.333C144.8 115.533 144 114.067 144 113.133C144 110.6 147.067 109.8 149.2 111.933C150.8 113.4 150.8 114.067 149.333 115.8ZM64.8 116.333C63.6 118.2 60.4 118.2 59.3333 116.467C58.8 115.667 59.2 114.067 60.1333 113C61.6 111.267 62 111.267 63.7333 113C64.8 114.067 65.2 115.533 64.8 116.333ZM78.6667 113.133C80.4 115.267 79.4667 117.8 76.8 117.8C73.8667 117.8 71.8667 114.467 73.6 112.733C75.7333 110.6 76.6667 110.733 78.6667 113.133ZM93.2 113C94.4 114.333 94.2667 115.133 92.6667 116.467C89.8667 118.733 85.8667 115.667 88.1333 113C88.9333 111.933 90.1333 111.133 90.6667 111.133C91.2 111.133 92.4 111.933 93.2 113ZM107.733 114.2C108.267 117 104.4 118.733 102.4 116.733C101.333 115.667 101.333 114.6 102.667 113.133C104.8 110.6 107.2 111.133 107.733 114.2ZM121.2 113C123.467 115.667 119.467 118.733 116.667 116.467C115.067 115.133 114.933 114.333 116.133 113C116.933 111.933 118.133 111.133 118.667 111.133C119.2 111.133 120.4 111.933 121.2 113ZM36.6667 113.8C37.2 114.6 36.8 116.2 35.8667 117.267C34.4 119 34 119 32.2667 117.267C31.2 116.2 30.8 114.733 31.2 113.933C32.4 112.067 35.6 112.067 36.6667 113.8ZM51.3333 113.8C51.8667 114.6 51.4667 116.067 50.6667 117.267C48.8 119.4 45.3333 117.533 45.3333 114.333C45.3333 112.2 50.1333 111.8 51.3333 113.8ZM73.3333 121.667C73.3333 124.467 69.7333 125.8 67.3333 123.933C65.2 122.333 65.0667 121.8 66.5333 119.933C67.8667 118.333 68.9333 118.2 70.8 119.267C72.1333 119.933 73.3333 121 73.3333 121.667ZM100.8 123C99.6 124.867 96.4 124.867 95.3333 123.133C94.8 122.333 95.2 120.733 96.1333 119.667C97.6 117.933 98 117.933 99.7333 119.667C100.8 120.733 101.2 122.2 100.8 123ZM114.267 119.933C115.467 123 112.533 125.267 110 123.133C108.4 121.8 108.267 121 109.467 119.667C111.467 117.267 113.2 117.267 114.267 119.933ZM128.8 119.267C130.133 121.533 125.733 125.4 123.867 123.533C122.933 122.6 122.667 121 123.067 119.933C124 117.533 127.467 117.133 128.8 119.267ZM142.533 119.667C143.733 121 143.6 121.8 142 123.133C139.2 125.4 135.2 122.333 137.467 119.667C138.267 118.6 139.467 117.8 140 117.8C140.533 117.8 141.733 118.6 142.533 119.667ZM44.4 121C44.8 122.067 44.2667 123.667 43.2 124.6C41.6 125.933 40.8 125.8 38.9333 123.933C36.9333 121.933 36.9333 121.533 38.6667 120.467C41.4667 118.6 43.6 118.867 44.4 121ZM58.4 121.4C59.0667 123.667 54.9333 125.267 53.0667 123.4C52.2667 122.6 52.1333 121.4 52.6667 120.467C53.8667 118.6 57.6 119.267 58.4 121.4ZM86 120.467C86.5333 121.267 86.1333 122.867 85.2 123.933C83.7333 125.667 83.3333 125.667 81.6 123.933C80.5333 122.867 80.1333 121.4 80.5333 120.6C81.7333 118.733 84.9333 118.733 86 120.467ZM153.333 120.467C153.333 121.133 152.667 121.8 151.867 121.8C151.2 121.8 150.933 121.133 151.333 120.467C151.733 119.667 152.4 119.133 152.8 119.133C153.067 119.133 153.333 119.667 153.333 120.467ZM30 121.667C30.4 122.333 30.1333 123.267 29.3333 123.8C28.6667 124.2 28 123.667 28 122.6C28 120.2 28.8 119.8 30 121.667ZM65.2 130.6C64.1333 131.933 63.0667 132.067 61.2 131C58.2667 129.533 58 128.333 60.2667 126.067C62.5333 123.8 67.3333 128.067 65.2 130.6ZM92.8 131C91.2 132.6 90.4 132.6 88.6667 131.133C86.8 129.533 86.8 129.133 88.9333 126.867C91.0667 124.467 91.3333 124.467 92.9333 126.6C94.4 128.6 94.4 129.4 92.8 131ZM108 127.933C108 130.467 104.267 131.933 102.4 130.067C101.333 129 101.333 128.067 102.533 126.6C104.4 124.333 108 125.267 108 127.933ZM121.067 126.067C123.2 128.2 123.067 129.4 120.533 130.333C117.333 131.533 114.267 128.6 116.133 126.333C118 124.067 119.067 124.067 121.067 126.067ZM136 126.467C138 128.867 136.667 131.133 133.333 131.133C132 131.133 130.4 130.467 130 129.8C129.067 128.333 131.6 124.467 133.333 124.467C133.867 124.467 135.067 125.4 136 126.467ZM150 127.933C150 129.267 148.933 130.6 147.6 130.867C144.667 131.4 142.933 127.267 145.467 125.667C148.133 124.067 150 125 150 127.933ZM36.9333 127.933C38.1333 131 35.2 133.267 32.6667 131.133C31.0667 129.8 30.9333 129 32.1333 127.667C34.1333 125.267 35.8667 125.267 36.9333 127.933ZM51.4667 127.267C51.8667 128.067 51.3333 129.667 50.2667 130.867C48.5333 132.6 47.7333 132.6 46 131.133C44.4 129.8 44.2667 129 45.4667 127.667C47.3333 125.4 50.1333 125.267 51.4667 127.267ZM79.4667 127.267C79.8667 128.067 79.4667 129.533 78.5333 130.6C76.1333 132.867 72.6667 130.867 73.7333 127.933C74.6667 125.533 78.1333 125.133 79.4667 127.267ZM58.5333 137.4C57.7333 138.333 56.1333 139.133 55.0667 139.133C52.4 139.133 51.3333 135.533 53.3333 133.133C54.8 131.267 55.3333 131.267 57.4667 133.267C59.3333 135 59.6 135.933 58.5333 137.4ZM113.867 136.6C111.733 138.867 111.333 139 109.6 137.267C106.667 134.333 109.867 130.6 113.6 132.6C116.133 133.933 116.133 134.067 113.867 136.6ZM129.333 135.933C129.333 138.733 126.533 139.533 124.267 137.4C122.533 135.667 122.533 134.867 124 133.133C125.333 131.533 126.133 131.4 127.467 132.6C128.533 133.4 129.333 134.867 129.333 135.933ZM142.533 137.267C140.667 139.133 140.267 139.133 138.667 137.267C137.333 135.533 137.333 134.733 138.667 133C140.267 131.133 140.667 131.133 142.533 133C144.4 135 144.4 135.267 142.533 137.267ZM43.6 134.6C44.6667 137.4 41.8667 140.2 39.8667 138.2C38.1333 136.467 39.2 132.467 41.3333 132.467C42.1333 132.467 43.0667 133.4 43.6 134.6ZM71.8667 134.333C73.0667 135.667 72.9333 136.467 71.3333 137.8C68.8 139.933 65.8667 137.667 67.0667 134.6C68.1333 131.933 69.8667 131.933 71.8667 134.333ZM86.5333 134.333C87.7333 135.667 87.6 136.467 86 137.8C83.2 140.067 79.2 137 81.4667 134.333C82.2667 133.267 83.4667 132.467 84 132.467C84.5333 132.467 85.7333 133.267 86.5333 134.333ZM100.8 133.933C102.133 136.2 97.7333 140.067 95.8667 138.2C94.9333 137.267 94.6667 135.667 95.0667 134.6C96 132.2 99.4667 131.8 100.8 133.933ZM30.6667 135.667C30.6667 136.733 30.1333 138.067 29.3333 138.467C28.6667 138.867 28 138.067 28 136.6C28 135 28.6667 133.8 29.3333 133.8C30.1333 133.8 30.6667 134.6 30.6667 135.667ZM153.333 135.133C153.333 135.8 152.8 136.467 152 136.467C151.333 136.467 150.667 135.8 150.667 135.133C150.667 134.333 151.333 133.8 152 133.8C152.8 133.8 153.333 134.333 153.333 135.133ZM37.2 140.867C38.2667 142.2 38.1333 143.133 37.0667 144.2C34.6667 146.6 32 146.067 32 143.4C32 139.133 34.6667 137.8 37.2 140.867ZM50.6667 141.133C52.4 143.267 51.4667 145.8 48.6667 145.8C46.2667 145.8 44.9333 143.533 45.8667 141.133C46.8 138.6 48.5333 138.6 50.6667 141.133ZM65.2 141C67.0667 143.267 64 146.2 60.8 145C58.2667 144.067 58.1333 142.867 60.2667 140.733C62.2667 138.733 63.3333 138.733 65.2 141ZM80 142.6C80 145.133 76.2667 146.6 74.4 144.733C73.3333 143.667 73.3333 142.733 74.5333 141.267C76.4 139 80 139.933 80 142.6ZM93.2 141C94.4 142.333 94.2667 143.133 92.6667 144.467C90.1333 146.6 87.2 144.333 88.4 141.267C89.4667 138.6 91.2 138.6 93.2 141ZM107.6 141.267C108 142.333 107.733 143.933 106.8 144.867C104.933 146.733 100.533 142.867 101.867 140.6C103.2 138.467 106.667 138.867 107.6 141.267ZM122 142.333C122 145.267 120.133 146.2 117.467 144.6C114.933 143 116.667 138.867 119.6 139.4C120.933 139.667 122 141 122 142.333ZM135.867 141C137.067 142.333 136.933 143.133 135.333 144.467C132.533 146.733 128.533 143.667 130.8 141C131.6 139.933 132.8 139.133 133.333 139.133C133.867 139.133 135.067 139.933 135.867 141ZM150.267 141.267C150.667 142.333 150.4 143.933 149.467 144.867C147.6 146.733 143.2 142.867 144.533 140.6C145.867 138.467 149.333 138.867 150.267 141.267ZM43.3333 147.133C43.7333 147.8 42.9333 148.467 41.3333 148.467C39.7333 148.467 38.9333 147.8 39.3333 147.133C39.7333 146.333 40.6667 145.8 41.3333 145.8C42 145.8 42.9333 146.333 43.3333 147.133ZM72 147.133C72 147.8 71.0667 148.467 69.8667 148.467C68.8 148.467 68.2667 147.8 68.6667 147.133C69.0667 146.333 70 145.8 70.8 145.8C71.4667 145.8 72 146.333 72 147.133ZM85.3333 147.133C85.3333 147.8 84.8 148.467 84 148.467C83.3333 148.467 82.6667 147.8 82.6667 147.133C82.6667 146.333 83.3333 145.8 84 145.8C84.8 145.8 85.3333 146.333 85.3333 147.133ZM100 147.133C100 147.8 99.0667 148.467 98 148.467C96.9333 148.467 96 147.8 96 147.133C96 146.333 96.9333 145.8 98 145.8C99.0667 145.8 100 146.333 100 147.133ZM114 147.133C114.4 147.8 113.6 148.467 112 148.467C110.4 148.467 109.6 147.8 110 147.133C110.4 146.333 111.333 145.8 112 145.8C112.667 145.8 113.6 146.333 114 147.133ZM128 147.133C128 147.8 127.067 148.467 125.867 148.467C124.8 148.467 124.267 147.8 124.667 147.133C125.067 146.333 126 145.8 126.8 145.8C127.467 145.8 128 146.333 128 147.133ZM142.667 147.133C142.667 147.8 141.733 148.467 140.667 148.467C139.6 148.467 138.667 147.8 138.667 147.133C138.667 146.333 139.6 145.8 140.667 145.8C141.733 145.8 142.667 146.333 142.667 147.133ZM56.9333 147.933C56.5333 148.333 55.3333 148.467 54.4 148.067C53.3333 147.667 53.7333 147.267 55.2 147.267C56.6667 147.133 57.4667 147.533 56.9333 147.933Z" fill="black"/>
</svg>
