<svg width="180" height="180" viewBox="0 0 180 180" fill="none" xmlns="http://www.w3.org/2000/svg">
<rect x="0.1" y="0.1" width="179.8" height="179.8" fill="white" stroke="#CBCBCB" stroke-width="0.2"/>
<path d="M146.985 24.4737C146.719 24.7404 119.785 25.407 87.1185 25.9404C54.4519 26.3404 27.5185 27.007 27.2519 27.2737C26.7185 27.807 27.1185 100.474 27.6519 107.274C27.9185 109.407 28.1852 121.807 28.1852 134.74L28.4519 158.207L35.5185 157.807C39.2519 157.674 60.7185 157.274 83.1185 157.14C105.519 156.874 130.319 156.474 138.452 156.074L152.985 155.274L152.719 124.607C152.319 82.0737 150.852 26.207 150.185 24.8737C149.652 23.9404 147.919 23.6737 146.985 24.4737ZM132.452 28.7404C132.452 31.407 93.9185 70.8737 92.3185 69.807C91.6519 69.407 91.1185 68.207 91.1185 67.1404C91.1185 65.007 123.519 30.607 127.119 29.007C129.785 27.807 132.452 27.6737 132.452 28.7404ZM147.119 28.8737C146.985 29.5404 134.719 42.4737 119.785 57.9404C94.7185 83.5404 92.4519 85.5404 92.7185 81.6737C93.1185 78.0737 97.2519 73.1404 116.852 52.607C134.852 33.9404 141.519 27.9404 143.919 27.9404C145.652 27.9404 147.119 28.3404 147.119 28.8737ZM88.1852 60.0737L88.4519 90.3404L60.8519 90.8737C45.5185 91.2737 32.7185 91.1404 32.1852 90.7404C31.6519 90.207 30.8519 76.607 30.3185 60.3404L29.3852 30.7404L35.9185 30.207C39.5185 29.9404 52.7185 29.807 65.1185 29.807L87.7852 29.9404L88.1852 60.0737ZM99.7852 35.9404C96.1852 39.5404 92.7185 42.607 92.1852 42.607C90.0519 42.607 91.2519 36.207 93.9185 32.7404C95.9185 30.207 97.7852 29.2737 101.519 29.2737H106.319L99.7852 35.9404ZM117.919 30.8737C116.985 31.807 111.119 38.0737 104.852 44.8737C98.5852 51.6737 92.8519 56.8737 92.1852 56.4737C89.1185 54.607 91.9185 49.5404 101.385 39.807C109.652 31.2737 112.319 29.2737 115.652 29.2737C118.852 29.2737 119.385 29.5404 117.919 30.8737ZM148.452 39.007C148.452 41.2737 141.652 49.2737 125.519 66.3404C105.785 87.1404 102.052 90.607 98.5852 90.607H94.7185L97.2519 87.6737C98.5852 85.9404 105.785 78.3404 113.119 70.607C120.585 62.8737 130.985 51.9404 136.452 46.207C141.785 40.607 146.719 35.9404 147.385 35.9404C147.919 35.9404 148.452 37.2737 148.452 39.007ZM148.452 54.0737C148.452 56.607 144.719 61.407 133.519 73.007C125.252 81.6737 117.919 89.007 117.119 89.5404C115.119 91.007 109.519 90.8737 110.052 89.407C110.719 87.1404 145.919 50.607 147.252 50.607C147.919 50.607 148.452 52.207 148.452 54.0737ZM148.452 67.007C148.452 70.0737 134.319 86.8737 129.519 89.407C122.719 93.007 125.385 87.5404 135.919 76.207C142.185 69.5404 147.652 63.9404 147.919 63.9404C148.185 63.9404 148.452 65.2737 148.452 67.007ZM146.319 86.7404C144.185 89.1404 137.785 90.3404 137.785 88.3404C137.785 87.807 140.052 85.1404 142.852 82.207L147.785 77.1404L148.185 80.607C148.452 82.607 147.652 85.2737 146.319 86.7404ZM85.1185 98.8737C87.1185 101.274 88.4519 104.474 88.4519 107.007V111.14L80.4519 103.274C76.1852 99.007 72.8519 95.1404 73.1185 94.607C74.4519 92.4737 82.0519 95.1404 85.1185 98.8737ZM148.852 96.207C149.252 97.9404 149.652 111.007 149.785 125.407C149.785 148.34 149.519 151.674 147.652 152.474C146.585 152.874 133.652 153.274 118.985 153.274H92.4519V123.274V93.2737H120.319C148.052 93.2737 148.185 93.2737 148.852 96.207ZM42.3185 99.5404C45.2519 102.207 57.2519 113.54 68.8519 124.874C84.4519 140.34 89.7852 146.34 89.7852 148.74C89.7852 150.474 89.3852 151.94 88.9852 151.94C87.7852 151.94 31.1185 96.7404 31.1185 95.6737C31.1185 93.007 37.3852 95.1404 42.3185 99.5404ZM70.8519 113.007C84.3185 125.94 89.7852 132.207 89.7852 134.207C89.7852 135.94 89.2519 137.274 88.5852 137.274C87.9185 137.274 77.5185 127.674 65.5185 115.94C45.3852 96.207 44.0519 94.7404 47.7852 94.7404C51.1185 94.607 54.8519 97.6737 70.8519 113.007ZM76.1852 104.74C88.1852 115.807 90.4519 118.874 88.8519 121.94C87.9185 123.407 84.3185 120.474 73.1185 109.274C60.5852 96.7404 58.9852 94.607 61.7852 94.607C64.0519 94.607 68.7185 97.9404 76.1852 104.74ZM58.1852 128.474C71.7852 141.674 82.7185 152.874 82.3185 153.54C80.3185 156.74 74.7185 152.607 53.9185 132.474C36.4519 115.54 31.1185 109.54 31.1185 107.007C31.1185 105.274 31.6519 103.94 32.3185 104.207C32.8519 104.34 44.5852 115.407 58.1852 128.474ZM51.1185 135.407C60.7185 144.74 68.4519 152.874 68.4519 153.407C68.4519 154.074 66.8519 154.607 64.9852 154.607C60.3185 154.607 31.1185 126.34 31.1185 121.674C31.1185 119.94 31.7852 118.607 32.4519 118.607C33.2519 118.607 41.6519 126.207 51.1185 135.407ZM53.7852 153.54C53.7852 154.074 52.4519 154.607 50.8519 154.607C48.9852 154.607 44.7185 151.54 39.5185 146.34C31.7852 138.74 29.7852 135.007 31.9185 132.874C32.8519 131.94 53.7852 151.807 53.7852 153.54ZM38.4519 150.607L42.3185 154.607H38.0519C35.2519 154.607 33.3852 153.807 32.4519 152.074C28.9852 145.54 32.7185 144.607 38.4519 150.607Z" fill="black"/>
</svg>
