<svg width="180" height="180" viewBox="0 0 180 180" fill="none" xmlns="http://www.w3.org/2000/svg">
<rect x="0.1" y="0.1" width="179.8" height="179.8" fill="white" stroke="#CBCBCB" stroke-width="0.2"/>
<path d="M104.322 27.4667C83.7885 27.8667 57.1218 28.4 45.1218 28.5333C26.5885 28.6667 23.5218 28.9333 24.0552 30.6667C24.5885 31.7333 24.9885 53.4667 25.2552 78.9333C25.3885 104.4 25.7885 131.733 26.0552 139.733L26.4552 154L76.7218 153.333C104.322 152.933 133.788 152.267 142.055 151.867L156.988 151.067V128.8C156.988 116.533 156.588 88.4 156.055 66.2667L155.255 26L148.455 26.2667C144.722 26.4 124.855 26.9333 104.322 27.4667ZM134.055 48.5333C149.388 63.4667 152.988 67.7333 152.988 70.6667C152.988 75.2 154.322 76.2667 128.988 51.2C111.122 33.4667 108.855 30.4 113.655 30.1333C114.455 30.1333 123.522 38.4 134.055 48.5333ZM141.122 41.6C149.522 49.7333 152.988 54.1333 152.988 56.4C152.988 58.1333 152.455 59.3333 151.788 59.0667C149.788 58.4 123.655 32.4 123.655 31.2C123.655 30.5333 124.988 30 126.455 30C128.322 30 133.788 34.4 141.122 41.6ZM148.188 34.5333C152.722 38.6667 154.722 44.6667 151.655 44.6667C149.922 44.6667 136.988 32.8 136.988 31.2C136.988 28.2667 143.788 30.4 148.188 34.5333ZM40.1885 32.5333C41.2552 34.1333 37.3885 37.0667 35.6552 36C33.3885 34.5333 34.1885 31.3333 36.8552 31.3333C38.3218 31.3333 39.7885 31.8667 40.1885 32.5333ZM54.0552 33.6C54.7218 35.8667 50.5885 37.4667 48.7218 35.6C47.9218 34.8 47.7885 33.6 48.3218 32.6667C49.5218 30.8 53.2552 31.4667 54.0552 33.6ZM68.9885 32.5333C68.9885 33.2 68.0552 34.4 66.9885 35.3333C65.3885 36.6667 64.5885 36.6667 62.9885 35.3333C61.9218 34.4 61.3885 33.2 61.7885 32.5333C62.7218 30.9333 68.9885 30.9333 68.9885 32.5333ZM82.3218 33.4667C82.3218 34.8 81.3885 35.3333 79.3885 35.0667C75.1218 34.4 74.7218 31.3333 78.8552 31.3333C81.1218 31.3333 82.3218 32 82.3218 33.4667ZM127.922 56.2667C145.655 74 152.988 82.1333 152.988 84.2667C152.988 86 152.588 87.3333 152.055 87.2C151.388 87.2 138.055 74.6667 122.322 59.3333C94.1885 32 93.7885 31.3333 98.3218 31.3333C102.588 31.3333 104.988 33.4667 127.922 56.2667ZM119.122 62C140.722 83.3333 143.655 86.6667 140.855 87.0667C136.322 87.6 90.3218 43.3333 90.3218 38.4C90.3218 36 90.8552 35.4667 92.1885 36.2667C93.2552 36.9333 105.388 48.4 119.122 62ZM32.8552 38.4C33.9218 39.8667 33.6552 40.8 31.6552 42.6667C29.2552 44.8 28.9885 44.8 28.1885 42.8C27.2552 40.2667 28.3218 36.6667 30.0552 36.6667C30.7218 36.6667 32.0552 37.4667 32.8552 38.4ZM47.1218 41.8667C45.9218 43.7333 42.7218 43.7333 41.6552 42C41.1218 41.2 41.5218 39.6 42.4552 38.5333C43.9218 36.8 44.3218 36.8 46.0552 38.5333C47.1218 39.6 47.5218 41.0667 47.1218 41.8667ZM60.8552 38.4C61.9218 39.7333 61.7885 40.6667 60.7218 41.7333C57.2552 45.2 52.7218 42.2667 55.6552 38.6667C57.6552 36.2667 58.8552 36.1333 60.8552 38.4ZM75.3885 39.7333C75.9218 42.4 72.0552 44.2667 70.0552 42.2667C68.0552 40.2667 69.9218 36.4 72.5885 36.9333C73.9218 37.2 75.1218 38.4 75.3885 39.7333ZM87.6552 40C87.6552 43.6 86.0552 44.2667 83.7885 41.6C82.7218 40.2667 82.8552 39.3333 83.9218 38.2667C86.4552 35.7333 87.6552 36.4 87.6552 40ZM39.3885 49.6C37.5218 51.4667 36.7218 51.4667 34.9885 50C33.1218 48.4 33.1218 48 35.2552 45.7333C37.2552 43.4667 37.6552 43.4667 39.5218 45.3333C41.3885 47.0667 41.3885 47.6 39.3885 49.6ZM67.7885 49.2C66.4552 50.8 65.5218 50.9333 63.6552 49.6C61.2552 48.2667 61.2552 47.8667 63.2552 45.7333C65.2552 43.4667 65.6552 43.4667 67.3885 45.2C68.9885 46.8 69.1218 47.6 67.7885 49.2ZM82.1885 45.0667C83.2552 46.5333 82.9885 47.4667 81.1218 49.2C78.9885 51.2 78.5885 51.2 76.9885 49.3333C75.6552 47.7333 75.6552 46.9333 76.9885 45.3333C78.9885 42.8 80.1885 42.8 82.1885 45.0667ZM53.6552 46C54.1885 46.8 53.7885 48.4 52.8552 49.4667C51.3885 51.2 50.9885 51.2 49.2552 49.4667C48.1885 48.4 47.7885 46.9333 48.1885 46.1333C49.3885 44.2667 52.5885 44.2667 53.6552 46ZM111.655 68C126.455 82.8 130.322 87.4667 128.588 88.1333C127.388 88.5333 125.922 88.6667 125.255 88.4C124.588 88.2667 116.455 80.6667 107.122 71.8667C93.9218 59.2 90.3218 54.9333 90.3218 52.1333C90.3218 50.2667 90.7218 48.6667 91.3885 48.6667C91.9218 48.6667 100.988 57.3333 111.655 68ZM32.3218 54.8C32.3218 56.1333 31.2552 57.4667 30.0552 57.7333C27.6552 58.1333 26.5885 54.1333 28.5885 52.1333C30.1885 50.6667 32.3218 52.1333 32.3218 54.8ZM46.8552 52.5333C48.0552 54.4 46.3218 58 44.3218 58C41.9218 58 40.5885 55.7333 41.5218 53.3333C42.3218 51.0667 45.7885 50.6667 46.8552 52.5333ZM60.8552 53.2C62.0552 54.5333 61.9218 55.3333 60.3218 56.6667C57.5218 58.9333 53.5218 55.8667 55.7885 53.2C56.5885 52.1333 57.7885 51.3333 58.3218 51.3333C58.8552 51.3333 60.0552 52.1333 60.8552 53.2ZM75.2552 53.3333C75.3885 54 74.9885 55.6 74.3218 56.6667C73.2552 58.4 72.8552 58.4 70.8552 56.4C69.6552 55.2 69.1218 53.6 69.6552 52.6667C70.7218 50.9333 74.5885 51.3333 75.2552 53.3333ZM87.6552 54.6667C87.6552 58.1333 85.7885 59.0667 84.3218 56.6667C83.1218 54.8 84.4552 51.3333 86.3218 51.3333C86.9885 51.3333 87.6552 52.8 87.6552 54.6667ZM39.6552 60.1333C41.1218 61.7333 40.9885 62.5333 39.2552 64.4C37.1218 66.4 36.8552 66.4 34.7218 64.4C32.9885 62.5333 32.8552 61.7333 34.3218 60.1333C35.2552 58.9333 36.4552 58 36.9885 58C37.5218 58 38.7218 58.9333 39.6552 60.1333ZM54.0552 61.0667C54.5885 63.8667 50.7218 65.6 48.7218 63.6C47.6552 62.5333 47.6552 61.4667 48.9885 60C51.1218 57.4667 53.5218 58 54.0552 61.0667ZM67.5218 59.2C69.7885 60.6667 68.4552 64.6667 65.7885 64.6667C63.2552 64.6667 61.9218 62.4 62.8552 60C63.6552 57.7333 64.8552 57.6 67.5218 59.2ZM82.1885 59.8667C83.3885 61.2 83.2552 62 81.6552 63.3333C78.8552 65.6 74.8552 62.5333 77.1218 59.8667C77.9218 58.8 79.1218 58 79.6552 58C80.1885 58 81.3885 58.8 82.1885 59.8667ZM104.722 75.2C111.388 81.7333 116.988 87.3333 116.988 87.8667C116.988 88.2667 115.388 88.6667 113.388 88.6667C108.588 88.6667 90.3218 70.9333 90.3218 66.4C90.3218 64.6667 90.7218 63.3333 91.3885 63.3333C91.9218 63.3333 97.9218 68.6667 104.722 75.2ZM46.3218 70.5333C45.3885 71.7333 44.0552 72.6667 43.3885 72.6667C41.2552 72.6667 40.5885 68.6667 42.4552 66.5333C43.9218 64.8 44.3218 64.8 46.0552 66.5333C47.7885 68.1333 47.7885 68.9333 46.3218 70.5333ZM60.9885 66.8C62.4552 68.4 62.3218 69.2 60.5885 71.0667C58.4552 73.0667 58.1885 73.0667 56.0552 71.0667C54.3218 69.2 54.1885 68.4 55.6552 66.8C56.5885 65.6 57.7885 64.6667 58.3218 64.6667C58.8552 64.6667 60.0552 65.6 60.9885 66.8ZM75.6552 68C75.6552 68.9333 74.8552 70.4 73.7885 71.2C71.1218 73.4667 67.9218 69.4667 70.3218 66.8C72.0552 64.5333 75.6552 65.4667 75.6552 68ZM87.6552 68.9333C87.6552 72.9333 87.5218 73.0667 85.5218 71.0667C84.3218 69.8667 83.6552 67.8667 84.0552 66.8C85.5218 63.2 87.6552 64.5333 87.6552 68.9333ZM32.3218 69.3333C32.3218 70.6667 31.6552 72 30.8552 72.2667C29.1218 72.8 27.2552 69.0667 28.4552 67.2C29.6552 65.2 32.3218 66.6667 32.3218 69.3333ZM39.6552 74.6667C41.3885 76.8 40.4552 79.3333 37.6552 79.3333C35.2552 79.3333 33.9218 77.0667 34.8552 74.6667C35.7885 72.1333 37.5218 72.1333 39.6552 74.6667ZM54.0552 75.7333C54.5885 78.6667 50.4552 80.4 48.9885 77.8667C47.6552 75.8667 49.9218 72.2667 52.1885 73.0667C52.9885 73.3333 53.7885 74.5333 54.0552 75.7333ZM68.1885 73.8667C69.3885 75.7333 67.6552 79.3333 65.6552 79.3333C63.6552 79.3333 61.9218 75.7333 63.1218 73.8667C63.5218 73.2 64.5885 72.6667 65.6552 72.6667C66.7218 72.6667 67.7885 73.2 68.1885 73.8667ZM83.1218 74.1333C84.1885 76 80.3218 79.8667 78.4552 78.8C77.6552 78.2667 76.9885 76.6667 76.9885 75.2C76.9885 72.4 81.5218 71.6 83.1218 74.1333ZM96.9885 81.4667C103.388 87.2 103.655 88.6667 98.4552 88.6667C93.9218 88.6667 90.3218 84.6667 90.3218 79.7333C90.3218 78 90.5885 76.6667 90.9885 76.6667C91.3885 76.6667 94.0552 78.8 96.9885 81.4667ZM34.3218 83.6C34.3218 85.6 30.0552 86.4 28.9885 84.5333C27.2552 81.8667 30.1885 78.8 32.4552 80.8C33.5218 81.6 34.3218 82.9333 34.3218 83.6ZM46.1885 85.4667C44.3218 87.3333 43.9218 87.3333 42.3218 85.4667C40.9885 83.7333 40.9885 82.9333 42.3218 81.2C43.9218 79.3333 44.3218 79.3333 46.1885 81.2C48.0552 83.2 48.0552 83.4667 46.1885 85.4667ZM60.9885 81.4667C62.4552 83.0667 62.3218 83.8667 60.4552 85.7333C58.3218 87.8667 58.0552 87.8667 56.3218 85.4667C54.8552 83.6 54.7218 82.4 55.7885 81.0667C57.7885 78.8 58.9885 78.9333 60.9885 81.4667ZM75.5218 81.0667C77.1218 83.0667 75.1218 86 72.1885 86C69.9218 86 68.9885 82.5333 70.7218 80.8C72.5885 78.9333 73.6552 78.9333 75.5218 81.0667ZM88.0552 82C88.8552 85.3333 86.8552 86.8 84.1885 84.6667C82.7218 83.3333 82.5885 82.5333 83.7885 81.2C85.9218 78.6667 87.2552 78.9333 88.0552 82ZM66.9885 87.3333C67.3885 88 66.8552 88.6667 65.6552 88.6667C64.4552 88.6667 63.9218 88 64.3218 87.3333C64.7218 86.5333 65.3885 86 65.6552 86C65.9218 86 66.5885 86.5333 66.9885 87.3333ZM80.9885 87.3333C80.9885 88 80.4552 88.6667 79.6552 88.6667C78.9885 88.6667 78.3218 88 78.3218 87.3333C78.3218 86.5333 78.9885 86 79.6552 86C80.4552 86 80.9885 86.5333 80.9885 87.3333ZM39.6552 87.8667C39.6552 88.1333 38.7218 88.6667 37.6552 89.2C36.5885 89.6 35.6552 89.3333 35.6552 88.6667C35.6552 87.8667 36.5885 87.3333 37.6552 87.3333C38.7218 87.3333 39.6552 87.6 39.6552 87.8667ZM52.5885 88.1333C52.1885 88.5333 50.9885 88.6667 50.0552 88.2667C48.9885 87.8667 49.3885 87.4667 50.8552 87.4667C52.3218 87.3333 53.1218 87.7333 52.5885 88.1333ZM52.9885 93.2C52.9885 93.3333 47.6552 98.8 40.9885 105.333C29.5218 116.8 28.9885 117.067 28.9885 113.333C28.9885 107.467 44.8552 91.4667 49.6552 92.4C51.5218 92.6667 52.9885 93.0667 52.9885 93.2ZM66.3218 92.4C66.3218 92.9333 57.9218 102.133 47.7885 112.667C30.1885 130.933 29.1218 131.733 29.1218 127.867C28.9885 124.533 31.3885 121.333 43.2552 108.8C51.1218 100.533 58.8552 93.2 60.3218 92.5333C63.7885 91.2 66.3218 91.0667 66.3218 92.4ZM80.7218 92.5333C80.0552 94.4 31.2552 144.667 30.0552 144.667C29.5218 144.667 28.9885 143.067 28.9885 141.2C28.9885 138.667 34.0552 132.667 50.7218 115.6C62.5885 103.333 72.9885 92.9333 73.6552 92.4C75.5218 90.9333 81.2552 91.0667 80.7218 92.5333ZM34.7218 97.3333C30.1885 102.933 28.9885 103.2 28.9885 98.2667C28.9885 93.4667 29.7885 92.6667 34.5885 92.6667H38.4552L34.7218 97.3333ZM88.9885 96C88.9885 100.8 40.7218 150 36.0552 150C34.4552 150 32.9885 149.6 32.9885 149.2C32.9885 148 86.5885 92.6667 87.9218 92.6667C88.4552 92.6667 88.9885 94.1333 88.9885 96ZM110.188 98.2667C108.855 100.667 108.588 100.8 106.588 98.9333C104.855 97.2 104.855 96.4 106.322 94.6667C108.855 91.6 112.188 94.6667 110.188 98.2667ZM124.588 94.8C124.988 95.8667 124.455 97.7333 123.388 98.8C121.655 100.533 121.255 100.533 119.655 98.8C118.322 97.0667 118.322 96.2667 119.655 94.6667C121.788 92.1333 123.522 92.1333 124.588 94.8ZM137.522 93.4667C140.188 94.5333 140.322 97.2 137.788 99.2C135.522 101.067 132.322 97.7333 133.522 94.6667C134.322 92.4 134.588 92.4 137.522 93.4667ZM152.588 94.8C153.788 97.8667 150.855 100.133 148.322 98C146.722 96.6667 146.588 95.8667 147.788 94.5333C149.788 92.1333 151.522 92.1333 152.588 94.8ZM96.5885 96.1333C97.6552 98.9333 94.8552 101.733 92.8552 99.7333C91.1218 98 92.1885 94 94.3218 94C95.1218 94 96.0552 94.9333 96.5885 96.1333ZM118.322 104.133C118.322 106.933 115.522 107.733 113.255 105.6C111.522 103.867 111.522 103.067 112.988 101.333C114.322 99.7333 115.122 99.6 116.455 100.8C117.522 101.6 118.322 103.067 118.322 104.133ZM146.322 103.333C146.322 106.933 143.788 108 141.255 105.6C139.655 103.867 139.522 103.067 140.855 101.467C142.988 98.9333 146.322 100.133 146.322 103.333ZM103.255 102.8C104.455 105.867 101.522 108.133 98.9885 106C97.3885 104.667 97.2552 103.867 98.4552 102.533C100.455 100.133 102.188 100.133 103.255 102.8ZM132.455 102.133C132.855 102.933 132.322 104.533 131.255 105.733C129.522 107.467 128.722 107.467 126.988 106C125.388 104.667 125.255 103.867 126.455 102.533C128.322 100.267 131.122 100.133 132.455 102.133ZM88.9885 110.4C88.9885 112.4 83.3885 118.933 70.4552 131.867C55.7885 146.533 51.3885 150.133 48.9885 149.733C46.1885 149.333 48.4552 146.667 66.1885 128.267C77.5218 116.8 87.1218 107.333 87.7885 107.333C88.4552 107.333 88.9885 108.667 88.9885 110.4ZM96.7218 111.2C96.0552 114.4 91.6552 114.8 91.6552 111.6C91.6552 110.267 92.0552 108.8 92.4552 108.267C93.9218 106.8 97.1218 108.933 96.7218 111.2ZM110.322 109.333C112.055 111.467 111.122 114 108.322 114C105.922 114 104.588 111.733 105.522 109.333C106.455 106.8 108.188 106.8 110.322 109.333ZM124.855 109.2C126.055 110.533 125.922 111.333 124.322 112.667C121.522 114.933 117.522 111.867 119.788 109.2C120.588 108.133 121.788 107.333 122.322 107.333C122.855 107.333 124.055 108.133 124.855 109.2ZM139.388 110.4C139.922 113.067 136.055 114.933 134.055 112.933C132.055 110.933 133.922 107.067 136.588 107.6C137.922 107.867 139.122 109.067 139.388 110.4ZM152.588 109.467C153.655 112.267 150.855 115.067 148.855 113.067C147.122 111.333 148.188 107.333 150.322 107.333C151.122 107.333 152.055 108.267 152.588 109.467ZM103.655 116.133C105.122 117.733 104.988 118.533 103.255 120.4C101.122 122.4 100.855 122.4 98.7218 120.4C96.9885 118.533 96.8552 117.733 98.3218 116.133C99.2552 114.933 100.455 114 100.988 114C101.522 114 102.722 114.933 103.655 116.133ZM117.522 116.267C118.055 117.467 117.655 119.333 116.588 120.267C114.988 121.867 114.455 121.867 112.988 120.133C111.655 118.4 111.655 117.6 112.988 116C115.122 113.467 116.455 113.467 117.522 116.267ZM131.655 116C132.988 117.6 132.988 118.4 131.655 120C130.055 121.867 129.655 121.867 127.522 119.867C125.655 118.133 125.388 117.2 126.455 115.733C128.455 113.467 129.655 113.467 131.655 116ZM146.188 115.867C148.455 118.533 144.455 121.6 141.655 119.333C140.055 118 139.922 117.2 141.122 115.867C141.922 114.8 143.122 114 143.655 114C144.188 114 145.388 114.8 146.188 115.867ZM88.9885 124.4C88.9885 127.2 86.4552 130.533 77.7885 139.2C68.4552 148.533 66.1885 150.133 62.9885 149.733C59.2552 149.333 59.6552 148.933 72.9885 134.933C80.5885 127.067 87.2552 120.667 87.9218 120.667C88.4552 120.667 88.9885 122.267 88.9885 124.4ZM125.522 126.4C125.122 127.6 123.788 128.667 122.855 128.667C120.055 128.667 118.988 125.067 121.122 122.533C122.455 120.8 122.988 120.8 124.588 122.4C125.655 123.333 126.055 125.2 125.522 126.4ZM139.655 124.667C139.655 128.267 137.122 129.333 134.588 126.933C132.988 125.2 132.855 124.4 134.188 122.8C136.322 120.267 139.655 121.467 139.655 124.667ZM152.722 126.933C151.388 128.533 150.855 128.533 149.255 126.8C147.522 125.067 147.522 124.533 148.988 122.667C150.722 120.533 150.988 120.667 152.588 122.8C153.922 124.533 153.922 125.6 152.722 126.933ZM96.7218 123.6C97.7885 124.667 97.9218 125.6 96.8552 126.933C94.4552 129.733 91.6552 128.933 91.6552 125.333C91.6552 121.733 94.0552 120.933 96.7218 123.6ZM111.255 124.133C111.655 125.2 111.388 126.8 110.455 127.733C108.588 129.6 104.188 125.733 105.522 123.467C106.855 121.333 110.322 121.733 111.255 124.133ZM103.655 130.667C105.388 132.8 104.455 135.333 101.655 135.333C99.2552 135.333 97.9218 133.067 98.8552 130.667C99.7885 128.133 101.522 128.133 103.655 130.667ZM118.055 130.267C119.122 131.333 119.122 132.533 118.188 134.267C116.855 136.8 116.588 136.8 114.188 134.533C112.322 132.8 112.055 131.867 113.122 130.4C114.988 128.267 116.055 128.267 118.055 130.267ZM132.722 131.733C133.255 134.4 129.388 136.267 127.388 134.267C125.388 132.267 127.255 128.4 129.922 128.933C131.255 129.2 132.455 130.4 132.722 131.733ZM146.188 130.533C148.455 133.2 144.455 136.267 141.655 134C140.055 132.667 139.922 131.867 141.122 130.533C141.922 129.467 143.122 128.667 143.655 128.667C144.188 128.667 145.388 129.467 146.188 130.533ZM84.8552 145.467C81.7885 148.667 79.2552 150 76.4552 150H72.4552L80.3218 142C88.0552 134.133 88.3218 134 88.7218 137.467C89.1218 140 88.0552 142.267 84.8552 145.467ZM96.9885 141.2C96.0552 142.4 94.7218 143.333 94.0552 143.333C91.9218 143.333 91.2552 139.333 93.1218 137.2C94.5885 135.467 94.9885 135.467 96.7218 137.2C98.4552 138.8 98.4552 139.6 96.9885 141.2ZM110.988 138.133C112.322 142.133 109.522 144.533 106.722 141.733C104.988 139.867 104.855 139.067 106.322 137.467C108.588 134.533 109.922 134.8 110.988 138.133ZM124.855 141.467C122.988 143.333 122.588 143.333 120.988 141.467C119.655 139.733 119.655 138.933 120.988 137.2C122.588 135.333 122.988 135.333 124.855 137.2C126.722 139.2 126.722 139.467 124.855 141.467ZM139.388 138.4C139.922 141.2 136.055 142.933 134.055 140.933C132.988 139.867 132.988 138.8 134.322 137.333C136.455 134.8 138.855 135.333 139.388 138.4ZM153.388 136.933C154.188 139.467 152.988 142 150.988 142C148.588 142 147.255 139.733 148.188 137.333C149.122 134.933 152.588 134.667 153.388 136.933ZM104.988 146.8C104.988 149.6 102.188 150.4 99.9218 148.267C98.1885 146.533 98.1885 145.733 99.6552 144C100.988 142.4 101.788 142.267 103.122 143.467C104.188 144.267 104.988 145.733 104.988 146.8ZM132.988 146.667C132.988 149.2 129.388 150.133 127.655 147.867C125.255 145.2 128.455 141.2 131.122 143.467C132.188 144.267 132.988 145.733 132.988 146.667ZM146.322 144C148.055 146.133 147.122 148.667 144.322 148.667C141.922 148.667 140.588 146.4 141.522 144C142.455 141.467 144.188 141.467 146.322 144ZM119.122 144.8C119.522 145.6 118.988 147.2 117.922 148.4C116.188 150.133 115.388 150.133 113.655 148.667C112.055 147.333 111.922 146.533 113.122 145.2C114.988 142.933 117.788 142.8 119.122 144.8Z" fill="black"/>
</svg>
