<svg width="540" height="540" viewBox="0 0 540 540" fill="none" xmlns="http://www.w3.org/2000/svg">
<rect x="0.1" y="0.1" width="179.8" height="179.8" fill="white" stroke="#CBCBCB" stroke-width="0.2"/>
<rect x="180.1" y="0.1" width="179.8" height="179.8" fill="white" stroke="#CBCBCB" stroke-width="0.2"/>
<rect x="360.1" y="0.1" width="179.8" height="179.8" fill="white" stroke="#CBCBCB" stroke-width="0.2"/>
<rect x="0.1" y="180.1" width="179.8" height="179.8" fill="white" stroke="#CBCBCB" stroke-width="0.2"/>
<rect x="180.1" y="180.1" width="179.8" height="179.8" fill="white" stroke="#CBCBCB" stroke-width="0.2"/>
<rect x="360.1" y="180.1" width="179.8" height="179.8" fill="white" stroke="#CBCBCB" stroke-width="0.2"/>
<rect x="0.1" y="360.1" width="179.8" height="179.8" fill="white" stroke="#CBCBCB" stroke-width="0.2"/>
<rect x="180.1" y="360.1" width="179.8" height="179.8" fill="white" stroke="#CBCBCB" stroke-width="0.2"/>
<rect x="360.1" y="360.1" width="179.8" height="179.8" fill="white" stroke="#CBCBCB" stroke-width="0.2"/>
<path d="M39.8481 48.5951C27.0267 53.5302 17.1641 63.7705 13.2191 76.4784C10.2603 85.9784 10.2603 92.6408 13.2191 102.141C17.2874 115.342 28.6294 127.187 40.7111 130.764C47.1218 132.615 64.1347 132.368 69.3126 130.148C91.9966 120.648 103.215 93.7512 93.476 71.79C90.024 64.0172 79.7916 53.6535 72.1481 50.3223C63.8882 46.7444 47.1218 45.8807 39.8481 48.5951ZM71.0385 54.147C89.6542 63.5237 98.0374 84.0044 90.887 102.881C87.4351 112.258 78.4355 122.005 69.6824 125.829C60.313 130.024 47.245 129.901 37.9989 125.583C14.0821 114.232 7.17824 83.7577 24.0679 64.1406C32.4511 54.2704 40.4645 50.6925 54.7653 50.5691C62.1622 50.4457 64.6279 51.0626 71.0385 54.147Z" fill="black"/>
<path d="M248.834 48.7865C241.126 50.8795 238.434 52.1107 232.317 57.1586C215.065 71.0711 211.884 97.7879 225.343 115.886C234.03 127.583 244.796 132.877 259.723 133C269.634 133 278.198 130.045 285.662 123.889C290.556 119.949 293.737 118.349 298.142 117.61C313.802 115.271 322 105.668 322 89.9083C322 74.7647 310.744 62.8221 296.551 62.8221C293.003 62.8221 291.045 61.9603 288.843 59.621C284.683 55.0656 276.608 50.6333 269.144 48.5403C261.192 46.4473 257.154 46.4473 248.834 48.7865ZM276.118 55.0656C279.544 56.6661 283.459 59.2516 285.05 60.7291L287.864 63.3146L284.071 65.2845C263.761 75.8727 263.271 104.436 283.337 114.778L288.231 117.241L283.949 120.811C274.895 128.445 258.622 131.646 247.733 127.952C237.822 124.751 229.258 117.118 223.874 106.776C219.715 99.0191 219.837 81.9056 223.997 73.4103C229.258 62.699 240.269 53.8344 251.036 51.6183C258.01 50.2639 269.511 51.7414 276.118 55.0656ZM296.184 76.6114C298.876 84.1217 299.12 92.8632 297.04 100.127C295.939 103.944 294.471 107.391 293.859 107.761C292.024 108.869 283.459 103.944 281.012 100.25C275.751 92.1244 278.198 80.9206 286.396 75.5034C292.146 71.5636 294.593 71.9329 296.184 76.6114ZM304.626 75.134C308.664 77.5964 313.313 85.8454 313.435 90.4008C313.435 95.2024 308.297 103.575 304.137 105.668C299.12 108.007 298.386 107.391 300.099 102.343C301.445 98.4035 300.956 80.4281 299.365 75.3802C298.264 72.056 299.365 71.9329 304.626 75.134Z" fill="black"/>
<path d="M285.182 85.2161C282.61 86.6701 282.243 92.365 284.447 94.546C285.305 95.3942 287.019 96 288.489 96C291.918 96 294 93.6978 294 89.9416C294 84.6102 289.959 82.4292 285.182 85.2161Z" fill="black"/>
<path d="M435.073 49.6887C423.997 53.4045 416.49 60.2169 411.321 71.2406C399.63 95.6412 412.675 124.749 438.272 131.437C459.07 137.011 479.499 127.35 488.729 107.656C492.052 100.348 492.298 99.1094 491.805 88.4573C491.19 74.3371 487.867 67.277 477.899 58.1113C465.962 47.0876 451.071 44.2388 435.073 49.6887ZM465.962 54.0238C474.084 58.2351 481.837 66.0384 485.406 73.7178C488.36 79.9109 488.606 81.6449 488.114 91.8015C487.498 104.683 485.406 109.885 477.53 118.06C469.654 126.235 462.639 129.084 450.21 129.084C441.349 129.084 438.764 128.588 432.734 125.616C412.306 115.583 404.799 90.4391 415.997 69.5065C419.689 62.5703 430.15 54.5193 439.134 51.5466C444.918 49.5648 460.301 51.0512 465.962 54.0238Z" fill="black"/>
<path d="M437.595 65.4521C417.832 75.87 418.2 104.795 438.332 114.477C447.784 119.012 460.796 117.296 468.284 110.433C472.704 106.388 477 96.3379 477 89.9647C476.877 79.9145 470.739 69.8644 462.024 65.3296C455.886 62.1429 443.61 62.2655 437.595 65.4521ZM459.323 75.3797C464.602 78.5663 467.18 83.4688 467.18 90.2098C467.18 103.814 452.326 111.781 440.542 104.55C429.248 97.5635 430.353 80.4048 442.506 73.909C447.661 71.2126 453.431 71.7028 459.323 75.3797Z" fill="black"/>
<path d="M445.584 85.7458C443.188 88.2067 443.566 93.4977 446.34 95.2204C449.619 97.1891 454.915 95.2204 455.797 91.652C457.31 85.7458 449.997 81.4392 445.584 85.7458Z" fill="black"/>
<path d="M132.392 64.1372C121.271 69.4383 116.261 77.2051 116.016 90.0265C115.894 97.1768 116.383 98.7795 120.049 104.574C124.693 111.847 130.437 115.546 139.114 116.779C150.724 118.381 163.311 111.108 167.222 100.505C170.277 92.4921 169.3 80.7803 165.022 74.2463C158.056 63.5208 143.391 58.9593 132.392 64.1372ZM150.724 74.2463C156.956 78.5612 159.401 82.6295 159.523 89.0402C159.889 108.026 135.692 114.313 127.137 97.4234C119.56 82.1364 137.159 65.0002 150.724 74.2463Z" fill="black"/>
<path d="M100.757 85.9011C97.9979 91.5872 103.265 96.2289 108.782 92.8637C114.174 89.6145 112.419 83 106.274 83C103.139 83 101.885 83.6963 100.757 85.9011Z" fill="black"/>
<path d="M11.7392 228.302C11.3696 228.793 11 247.787 11 270.58V312H52.7655C89.726 312 94.6541 311.755 95.2701 310.039C96.3789 307.221 96.1325 228.67 95.1469 228.548C90.3421 227.935 12.3552 227.812 11.7392 228.302ZM92.0669 269.967L92.3133 308.324H53.6279C23.813 308.324 14.8193 307.956 14.4497 306.731C14.08 305.628 14.2033 246.439 14.5729 233.817L14.6961 231.121L53.2583 231.366L91.6973 231.734L92.0669 269.967Z" fill="black"/>
<path d="M405.065 228.184L401 228.797V270.46V312L443.254 311.755L485.384 311.387L485.754 269.969L486 228.674H469.616C460.5 228.674 443.254 228.429 431.058 228.184C418.986 227.939 407.159 227.939 405.065 228.184ZM478.978 232.35H482.304V270.337V308.324H443.5H404.696V270.582C404.696 249.751 405.065 232.35 405.681 231.86C406.174 231.247 422.065 231.125 441.036 231.615C460.007 231.982 477.007 232.35 478.978 232.35Z" fill="black"/>
<path d="M416 269.75C416 289.5 416.369 296.625 417.476 297.125C418.337 297.375 430.392 297.75 444.538 297.875L470 298V270.5V243H442.938H416V269.75ZM461.144 270.75L461.513 288H443.554H425.718V270.5V252.875L443.308 253.25L460.774 253.625L461.144 270.75Z" fill="black"/>
<path d="M439.43 265.49C437.369 267.74 437.611 273.828 439.673 275.814C442.462 278.196 446.828 276.872 448.769 272.902C450.467 269.725 450.467 269.196 448.405 266.681C445.858 263.637 441.613 263.108 439.43 265.49Z" fill="black"/>
<path d="M220.857 225.735C220.489 226.103 220.122 244.611 220 266.673C220 297.438 220.245 307.121 221.468 307.856C223.059 308.837 275.802 309.449 293.791 308.591L304.438 308.224V300.257V292.412H311.78H319L318.755 265.693L318.511 239.095H311.78H305.049L304.682 231.986L304.315 225H262.953C240.192 225 221.346 225.368 220.857 225.735ZM301.256 232.967C301.745 235.418 301.745 237.87 301.378 238.482C300.889 239.34 293.913 239.708 283.267 239.586L265.89 239.218L265.278 260.054C264.911 271.453 264.789 283.342 265.033 286.529L265.4 292.29L283.389 292.658L301.378 293.025L300.889 298.541C300.766 301.605 300.277 304.424 299.91 304.914C299.665 305.527 283.022 305.895 262.953 305.895C233.461 305.895 226.119 305.527 225.017 304.179C223.549 302.463 223.059 234.07 224.528 230.516C225.017 228.922 230.891 228.677 262.831 228.677H300.522L301.256 232.967ZM301.378 265.938V282.852L287.917 282.975H274.456L274.089 266.673C273.844 254.539 274.211 250.126 275.313 249.391C276.169 248.901 282.41 248.533 289.141 248.656L301.378 248.901V265.938ZM309.333 266.796C309.333 282.975 309.21 283.833 306.885 283.833C304.56 283.833 304.438 282.975 304.438 266.918C304.438 257.603 304.805 249.636 305.172 249.146C305.539 248.778 306.64 248.778 307.619 249.146C308.965 249.636 309.333 253.313 309.333 266.796Z" fill="black"/>
<path d="M284.355 261.505C280.38 265.893 285.944 274.294 290.827 271.41C295.936 268.276 294.574 260 288.896 260C287.08 260 285.149 260.627 284.355 261.505Z" fill="black"/>
<path d="M115 269V296L141.755 295.755L168.386 295.386L168.755 268.632L169 242H142H115V269ZM159.182 269V286.182H142H124.818V269V251.818H142H159.182V269Z" fill="black"/>
<path d="M100.985 262.753C97.087 266.535 99.2798 273 104.518 273C108.051 273 110 270.682 110 266.657C110 261.533 104.518 259.094 100.985 262.753Z" fill="black"/>
<path d="M493.172 332C492.806 332.5 493.05 333 493.659 333C494.391 333 495 332.5 495 332C495 331.4 494.756 331 494.512 331C494.147 331 493.537 331.4 493.172 332Z" fill="black"/>
<path d="M50.1437 413.755C45.6083 421.017 9.5701 480.348 5.40243 487.487C4.4218 489.333 3.8089 491.057 4.05406 491.426C4.4218 491.672 27.9569 492.288 56.5178 492.657C101.136 493.272 108.491 493.149 108.982 491.549C109.472 490.564 100.156 474.193 87.1625 452.775C74.9046 432.465 63.5048 413.632 61.9113 410.924C60.3177 408.216 58.1113 406 57.0081 406C55.7823 406 52.8404 409.323 50.1437 413.755ZM66.5693 426.556C71.3498 434.557 77.8465 445.266 80.911 450.313C83.9754 455.36 90.227 465.7 94.885 473.208C99.543 480.84 103.343 487.61 103.343 488.349C103.343 489.333 90.1044 489.703 56.7629 489.703C31.144 489.703 10.183 489.333 10.183 488.964C10.183 488.472 12.8797 483.671 16.1894 478.132C19.499 472.593 23.2989 466.192 24.6473 463.853C27.2215 459.299 32.4923 450.559 43.2793 433.08C46.8341 427.295 51.1243 420.279 52.7178 417.324C54.4339 414.493 56.1501 412.155 56.7629 412.155C57.2533 412.155 61.6661 418.678 66.5693 426.556Z" fill="black"/>
<path d="M259.629 415.211C253.239 425.531 243.163 441.995 223.748 473.816C218.587 482.54 214.655 490.034 215.024 490.771C215.515 491.509 234.193 492 267.984 492C317.136 492 320.085 491.877 320.085 489.788C320.085 488.56 319.225 486.471 318.242 485.12C316.153 481.925 316.89 480.942 321.559 480.942C323.525 480.942 325 480.328 325 479.345C324.877 477.748 301.284 431.92 297.844 426.76C296.124 424.303 295.509 424.057 293.912 425.408C292.929 426.268 291.454 428.603 290.594 430.569C289.734 432.657 288.628 434.254 288.137 434.254C287.645 434.254 285.802 431.674 283.959 428.357C275.234 412.999 270.073 405.382 268.23 405.013C266.879 404.767 264.175 407.962 259.629 415.211ZM278.183 426.514L285.679 439.046L275.234 458.458C269.459 469.27 264.79 478.608 264.79 479.468C264.79 481.065 265.281 481.065 292.437 481.065C306.445 481.065 309.886 481.434 311.729 483.031C317.504 488.191 316.399 488.314 267.862 488.314C231.858 488.314 221.782 487.946 221.782 486.717C221.782 485.98 222.765 483.522 224.117 481.557C225.346 479.468 232.35 467.919 239.845 455.755C267.37 410.665 267.37 410.542 269.09 412.385C269.828 413.245 274.006 419.634 278.183 426.514ZM302.513 456.37C305.954 463.127 308.657 468.656 308.411 468.656C307.797 468.656 294.28 445.681 294.28 444.821C294.28 441.995 296.984 445.926 302.513 456.37ZM294.895 453.913C297.23 458.458 297.23 458.827 294.403 458.827C289.98 458.827 288.137 460.301 288.137 463.742C288.137 465.584 288.997 467.796 289.857 468.656C292.56 470.745 297.23 469.639 298.581 466.445C299.196 464.97 300.056 463.742 300.547 463.742C301.039 463.742 303.865 468.533 306.323 473.939C306.691 474.676 280.641 474.431 278.552 473.693C278.183 473.571 283.713 462.636 287.891 455.387C289.488 452.561 291.331 450.227 291.946 450.227C292.56 450.227 293.789 451.824 294.895 453.913Z" fill="black"/>
<path d="M140.122 431.578C124.939 459.078 116 476.067 116 477.533C116 478.633 124.082 479 146 479C171.714 479 176 478.756 176 477.167C176 475.578 170 464.089 152.367 431.456C150.041 426.933 147.592 424 146.367 424C145.143 424 142.694 426.933 140.122 431.578ZM149.796 446.856C150.776 449.056 154.082 455.411 157.02 460.911C160.082 466.289 162.531 471.056 162.531 471.544C162.531 471.911 155.429 472.278 146.612 472.278C137.918 472.278 130.694 471.789 130.694 471.3C130.694 468.122 145.51 441.111 146.857 441.844C147.469 442.333 148.816 444.533 149.796 446.856Z" fill="black"/>
<path d="M104.3 451.984C101.769 455.788 103.035 459.716 107.211 460.697C111.64 461.802 114.425 459.838 114.931 455.543C115.817 449.161 107.97 446.461 104.3 451.984Z" fill="black"/>
<path d="M436.909 459.909V459.636C436.939 456.742 437.242 454.439 437.818 452.727C438.394 451.015 439.212 449.629 440.273 448.568C441.333 447.508 442.606 446.53 444.091 445.636C444.985 445.091 445.788 444.447 446.5 443.705C447.212 442.947 447.773 442.076 448.182 441.091C448.606 440.106 448.818 439.015 448.818 437.818C448.818 436.333 448.47 435.045 447.773 433.955C447.076 432.864 446.144 432.023 444.977 431.432C443.811 430.841 442.515 430.545 441.091 430.545C439.848 430.545 438.652 430.803 437.5 431.318C436.348 431.833 435.386 432.644 434.614 433.75C433.841 434.856 433.394 436.303 433.273 438.091H427.545C427.667 435.515 428.333 433.311 429.545 431.477C430.773 429.644 432.386 428.242 434.386 427.273C436.402 426.303 438.636 425.818 441.091 425.818C443.758 425.818 446.076 426.348 448.045 427.409C450.03 428.47 451.561 429.924 452.636 431.773C453.727 433.621 454.273 435.727 454.273 438.091C454.273 439.758 454.015 441.265 453.5 442.614C453 443.962 452.273 445.167 451.318 446.227C450.379 447.288 449.242 448.227 447.909 449.045C446.576 449.879 445.508 450.758 444.705 451.682C443.902 452.591 443.318 453.674 442.955 454.932C442.591 456.189 442.394 457.758 442.364 459.636V459.909H436.909ZM439.818 473.364C438.697 473.364 437.735 472.962 436.932 472.159C436.129 471.356 435.727 470.394 435.727 469.273C435.727 468.152 436.129 467.189 436.932 466.386C437.735 465.583 438.697 465.182 439.818 465.182C440.939 465.182 441.902 465.583 442.705 466.386C443.508 467.189 443.909 468.152 443.909 469.273C443.909 470.015 443.72 470.697 443.341 471.318C442.977 471.939 442.485 472.439 441.864 472.818C441.258 473.182 440.576 473.364 439.818 473.364Z" fill="black"/>
</svg>
