<svg width="180" height="180" viewBox="0 0 180 180" fill="none" xmlns="http://www.w3.org/2000/svg">
<rect x="0.1" y="0.1" width="179.8" height="179.8" fill="white" stroke="#CBCBCB" stroke-width="0.2"/>
<path d="M44.45 48.0668C44.05 48.7335 43.9167 69.2668 44.05 93.8002L44.3167 138.333H89.65H134.983L135.383 92.6002L135.65 47.0002H90.45C65.5167 47.0002 44.85 47.5335 44.45 48.0668ZM131.65 93.0002V135H89.65H47.65V93.0002V51.0002H89.65H131.65V93.0002Z" fill="black"/>
<path d="M60.9834 92.6001V121.667L67.3834 121.8C70.8501 121.8 82.9834 122.067 94.3167 122.333C105.65 122.6 115.65 122.467 116.45 121.933C118.05 121 119.917 64.3335 118.45 64.3335C118.05 64.3335 104.85 64.2001 89.2501 63.9335L60.9834 63.6668V92.6001ZM108.717 93.4001L109.117 112.467L90.0501 112.067L70.9834 111.667L70.5834 94.4668C70.4501 84.8668 70.5834 76.3335 70.8501 75.4001C71.3834 73.9335 75.6501 73.6668 89.9167 73.9335L108.317 74.3335L108.717 93.4001Z" fill="black"/>
<path d="M85.9166 88.0665C83.1166 91.1331 82.9833 94.1998 85.7833 96.8665C89.7833 101 96.9833 98.0665 96.9833 92.3331C96.9833 89.1331 93.5166 85.6665 90.45 85.6665C89.1166 85.6665 87.1166 86.7331 85.9166 88.0665Z" fill="black"/>
</svg>
