<svg width="180" height="180" viewBox="0 0 180 180" fill="none" xmlns="http://www.w3.org/2000/svg">
<rect x="0.1" y="0.1" width="179.8" height="179.8" fill="white" stroke="#CBCBCB" stroke-width="0.2"/>
<path d="M44.1333 85.2668C44.1333 106.467 44 126.6 44 130.067C44 133.533 44.2667 136.733 44.5333 137.133C44.9333 137.4 65.4667 137.8 90.4 138.067L135.6 138.333L136 92.6002L136.267 47.0002H90.2667H44.2667L44.1333 85.2668ZM94.6667 51.0002H132.267V93.0002V135H92.6667C70.8 135 51.6 134.6 50.1333 134.2C47.3333 133.4 47.3333 133.4 48 92.6002C48.4 64.7335 49.0667 51.4002 50.1333 50.6002C50.9333 50.0668 52.8 49.9335 54.2667 50.3335C55.7333 50.6002 73.8667 51.0002 94.6667 51.0002Z" fill="black"/>
<path d="M73.0668 90.0667C64.5334 105.8 57.6001 119.533 57.6001 120.733C57.6001 122.733 60.8001 123 90.2668 123C115.467 123 122.933 122.6 122.933 121.267C122.933 119.533 117.2 107.933 107.2 89.6667C103.867 83.4 99.2001 74.7333 97.0668 70.3333C94.8001 65.9333 92.0001 62.2 90.8001 61.9333C89.2001 61.6667 84.5334 69.1333 73.0668 90.0667ZM94.9334 89.2667C96.8001 92.8667 100.533 99.8 103.2 104.867C106 109.933 108.267 114.2 108.267 114.467C108.267 114.733 100.133 115 90.2668 115C80.4001 115 72.2668 114.733 72.2668 114.333C72.2668 113.933 75.8668 107.267 80.2668 99.4C84.6668 91.6667 88.2668 84.8667 88.2668 84.2C88.2668 80.8667 92.0001 83.8 94.9334 89.2667Z" fill="black"/>
<path d="M84.7998 98.3336C82.7998 101.4 82.7998 101.934 84.7998 105C88.5331 110.6 96.2665 108.067 96.2665 101.134C96.2665 94.6002 88.5331 92.7336 84.7998 98.3336Z" fill="black"/>
</svg>
