<svg width="180" height="180" viewBox="0 0 180 180" fill="none" xmlns="http://www.w3.org/2000/svg">
<rect x="0.1" y="0.1" width="179.8" height="179.8" fill="white" stroke="#CBCBCB" stroke-width="0.2"/>
<path d="M77.6512 47.769C70.4512 50.0357 62.4512 54.969 57.1179 60.3023C34.8512 82.7023 41.9179 120.836 70.8512 134.436C77.1179 137.369 80.1845 137.902 90.3179 137.902C100.451 137.902 103.518 137.369 109.785 134.436C119.918 129.636 126.985 122.969 131.785 113.636C135.251 106.569 135.651 104.702 135.651 92.569C135.651 77.1023 133.251 70.569 123.785 60.7023C115.118 51.5023 105.918 47.5023 92.3179 47.1023C86.0512 46.8357 79.5179 47.1023 77.6512 47.769ZM103.251 51.9023C110.585 54.0357 120.318 61.1023 125.251 68.0357C131.518 76.8357 134.585 90.0357 132.585 99.369C128.051 121.102 112.318 134.569 91.3845 134.569C78.1845 134.569 69.1179 130.969 60.4512 122.436C33.9179 95.769 52.0512 50.969 89.6512 50.7023C94.4512 50.569 100.585 51.2357 103.251 51.9023Z" fill="black"/>
<path d="M81.5178 64.3023C68.8511 68.9689 61.6511 79.2356 61.6511 92.4356C61.6511 100.969 63.9178 106.302 70.1845 112.969C75.3845 118.569 79.3845 120.702 87.2511 121.769C95.5178 122.969 102.984 120.702 109.784 114.702C122.984 103.502 123.918 84.5689 111.918 72.1689C109.518 69.6356 106.051 66.8356 103.918 65.7689C98.7178 62.9689 87.2511 62.3023 81.5178 64.3023ZM98.1845 75.1023C113.384 81.5023 113.384 103.636 98.1845 110.036C92.0511 112.569 87.5178 112.436 81.6511 109.102C75.3845 105.502 72.0511 99.9023 72.0511 92.5689C72.0511 84.8356 75.7845 78.8356 82.3178 75.7689C88.7178 72.8356 92.3178 72.7023 98.1845 75.1023Z" fill="black"/>
<path d="M85.9178 88.169C82.1844 91.9023 85.5178 99.9023 90.8511 99.9023C96.0511 99.9023 99.6511 91.769 96.0511 88.169C94.0511 86.169 87.9178 86.169 85.9178 88.169Z" fill="black"/>
</svg>
