<svg width="180" height="180" viewBox="0 0 180 180" fill="none" xmlns="http://www.w3.org/2000/svg">
<rect x="0.1" y="0.1" width="179.8" height="179.8" fill="white" stroke="#CBCBCB" stroke-width="0.2"/>
<path d="M84.2 49.3484C81.6667 53.615 69 74.1484 56.2 94.815C43.4 115.615 33 133.482 33 134.548C33 136.148 41.9333 136.415 90.3333 136.415C131.4 136.415 147.667 136.015 147.667 134.948C147.667 134.148 143.533 126.815 138.6 118.548C133.533 110.415 128.333 101.882 126.867 99.4817C123 92.9484 106.867 66.5484 99.1333 53.8817C95.4 47.615 91.5333 42.415 90.6 42.015C89.8 41.7484 86.8667 45.0817 84.2 49.3484ZM98.0667 60.6817C105.267 72.6817 118.2 94.1484 132.2 116.948C137.133 124.815 141 131.615 140.733 131.748C140.467 132.015 117.667 132.548 90.0667 133.082C52.0667 133.748 39.6667 133.482 39.6667 132.415C39.6667 130.815 47.8 116.948 66.8667 86.415C72.8667 76.815 80.3333 64.6817 83.5333 59.3484C86.7333 54.1484 89.8 49.7484 90.3333 49.7484C90.8667 49.7484 94.3333 54.6817 98.0667 60.6817Z" fill="black"/>
<path d="M85.9334 96.1481C81.1334 101.348 84.3334 107.615 91.2667 106.815C96.3334 106.281 98.6 100.281 95 96.4148C91.9334 93.0815 88.7334 92.9481 85.9334 96.1481Z" fill="black"/>
</svg>
