<svg width="180" height="180" viewBox="0 0 180 180" fill="none" xmlns="http://www.w3.org/2000/svg">
<rect x="0.1" y="0.1" width="179.8" height="179.8" fill="white" stroke="#CBCBCB" stroke-width="0.2"/>
<path d="M87.1333 45.383C86.2 47.6497 67.5333 78.183 55 97.783C43.8 115.383 33 133.65 33 134.983C33 136.05 49.8 136.45 90.3333 136.45C121.933 136.45 147.667 135.916 147.667 135.25C147.667 133.916 141.133 122.716 126.867 99.783C121.4 90.983 111.4 74.583 104.733 63.383C92.6 43.383 89.1333 39.783 87.1333 45.383ZM97.5333 60.3164C100.867 66.0497 112.067 84.4497 122.333 101.116C132.6 117.783 141 131.916 141 132.583C141 133.25 119.4 133.783 90.3333 133.783C55.2667 133.783 39.6667 133.383 39.6667 132.316C39.6667 131.516 45 122.45 51.5333 112.05C57.9333 101.65 68.2 84.983 74.3333 75.1164C85.6667 56.7164 90.2 49.783 90.8667 49.783C91.1333 49.783 94.0667 54.4497 97.5333 60.3164Z" fill="black"/>
<path d="M85.6667 69.7829C83.8 73.3829 81 78.7162 79.4 81.3829C74.7333 89.6495 57 122.183 57 122.716C57 122.85 71.6667 123.116 89.6667 123.116C127.267 123.116 125.4 124.05 117.4 109.916C110.067 96.9829 105.933 89.2495 98.7333 75.3829C95.2667 68.7162 91.5333 63.1162 90.7333 63.1162C89.8 63.1162 87.5333 66.0495 85.6667 69.7829ZM100.333 99.1162C105 107.516 108.467 114.85 108.2 115.383C107.267 116.85 71.4 116.716 71.9333 115.25C73.6667 110.316 89.9333 83.2495 90.8667 83.5162C91.5333 83.7829 95.8 90.7162 100.333 99.1162Z" fill="black"/>
<path d="M86.5999 99.9166C82.9999 102.45 82.8666 105.917 86.3332 109.117C88.5999 111.117 89.5332 111.25 92.3332 110.05C96.5999 108.05 96.9999 101.25 93.1332 99.1166C89.7999 97.3832 90.1999 97.3832 86.5999 99.9166Z" fill="black"/>
</svg>
