<svg width="180" height="180" viewBox="0 0 180 180" fill="none" xmlns="http://www.w3.org/2000/svg">
<rect x="0.1" y="0.1" width="179.8" height="179.8" fill="white" stroke="#CBCBCB" stroke-width="0.2"/>
<path d="M44 90V136H90H136V90.8C136 50.8 135.733 45.4667 133.867 44.8C132.667 44.4 112 44 87.8667 44H44V90ZM132 89.8667C132 112.933 131.467 132.133 130.8 132.533C130.267 132.933 111.333 132.933 88.8 132.4L48 131.6V89.7333V48H90H132V89.8667Z" fill="black"/>
<path d="M79.9998 62.1334C58.7998 69.4667 54.1331 98.8 71.7331 113.333C87.3331 126.133 111.6 119.067 118 100C121.6 89.2 119.2 78.2667 111.333 69.4667C103.466 60.8 91.8664 58.1334 79.9998 62.1334ZM100.133 73.7334C112.133 81.7334 112 98.2667 99.9998 106.4C96.2664 108.933 94.1331 109.467 88.9331 108.933C77.3331 107.867 69.8664 99.0667 71.1998 88.2667C73.0664 73.6 88.5331 65.8667 100.133 73.7334Z" fill="black"/>
<path d="M88.3998 83.7332C83.3332 84.5332 82.5332 93.7332 87.3332 95.4665C93.1998 97.7332 98.9332 92.1332 96.1332 86.9332C94.5332 83.8665 92.3998 83.0665 88.3998 83.7332Z" fill="black"/>
</svg>
